<?xml version="1.0" encoding="UTF-8" standalone="no"?>
<!-- Created with Inkscape (http://www.inkscape.org/) -->

<svg
   xmlns:dc="http://purl.org/dc/elements/1.1/"
   xmlns:cc="http://creativecommons.org/ns#"
   xmlns:rdf="http://www.w3.org/1999/02/22-rdf-syntax-ns#"
   xmlns:svg="http://www.w3.org/2000/svg"
   xmlns="http://www.w3.org/2000/svg"
   xmlns:xlink="http://www.w3.org/1999/xlink"
   xmlns:sodipodi="http://sodipodi.sourceforge.net/DTD/sodipodi-0.dtd"
   xmlns:inkscape="http://www.inkscape.org/namespaces/inkscape"
   version="1.1"
   id="svg46"
   width="666.66669"
   height="666.66669"
   viewBox="0 0 666.66669 666.66669"
   sodipodi:docname="agen.svg"
   inkscape:version="0.92.3 (2405546, 2018-03-11)">
  <metadata
     id="metadata52">
    <rdf:RDF>
      <cc:Work
         rdf:about="">
        <dc:format>image/svg+xml</dc:format>
        <dc:type
           rdf:resource="http://purl.org/dc/dcmitype/StillImage" />
        <dc:title></dc:title>
      </cc:Work>
    </rdf:RDF>
  </metadata>
  <defs
     id="defs50" />
  <sodipodi:namedview
     pagecolor="#ffffff"
     bordercolor="#666666"
     borderopacity="1"
     objecttolerance="10"
     gridtolerance="10"
     guidetolerance="10"
     inkscape:pageopacity="0"
     inkscape:pageshadow="2"
     inkscape:window-width="1366"
     inkscape:window-height="705"
     id="namedview48"
     showgrid="false"
     inkscape:zoom="0.35399999"
     inkscape:cx="333.33334"
     inkscape:cy="473.53057"
     inkscape:window-x="-8"
     inkscape:window-y="-8"
     inkscape:window-maximized="1"
     inkscape:current-layer="svg46" />
  <image
     sodipodi:absref="E:\Project-website\tanyabudi\public\assets\images\icon\agen.png"
     xlink:href="agen.png"
     y="0"
     x="0"
     id="image54"
     preserveAspectRatio="none"
     height="666.66669"
     width="666.66669" />
  <path
     inkscape:connector-curvature="0"
     id="path70"
     d="m 381.87912,548.54961 c -6.65792,-4.31708 -11.24548,-10.90639 -12.69232,-18.23051 -0.61412,-3.10883 -1.08632,-35.35242 -1.04932,-71.65242 l 0.0673,-66 -3.76902,-2.06035 c -4.87703,-2.66602 -11.92647,-4.71402 -24.91166,-7.2373 -8.64431,-1.67975 -23.83061,-2.03568 -86.85331,-2.03568 -70.26127,0 -77.37663,0.2061 -88.85737,2.57393 -18.47108,3.80953 -24.62685,6.34053 -37.91044,15.58721 -13.60866,9.47295 -23.95685,23.32656 -30.868387,41.32497 -3.49549,9.10264 -3.531816,9.5653 -4.280016,54.51389 l -0.754604,45.33334 -12.333334,0.38337 -12.333333,0.38336 v -44.69756 c 0,-42.41887 0.735197,-52.97912 4.157505,-59.71775 0.646705,-1.27339 1.175828,-2.95237 1.175828,-3.73108 0,-0.77871 1.2,-3.89955 2.666667,-6.9352 1.466667,-3.03564 2.666667,-6.03096 2.666667,-6.65624 0,-0.6253 1.106137,-2.76259 2.458082,-4.74956 1.351946,-1.98698 4.201946,-6.31087 6.333334,-9.60864 5.229099,-8.09068 20.908761,-23.55375 30.004231,-29.58976 8.79944,-5.83955 22.19382,-12.12891 30.53769,-14.33903 3.3,-0.87411 7.8426,-2.14863 10.09467,-2.83227 5.4252,-1.64689 189.05214,-1.64689 194.47734,0 5.93753,1.80242 15.92382,4.50618 17.14165,4.64106 0.57585,0.0637 1.01419,-24.78404 0.97407,-55.21738 -0.0785,-59.58555 0.44314,-65.22957 6.69745,-72.46064 1.80483,-2.08668 5.73421,-5.23668 8.73197,-7 l 5.45048,-3.20603 H 491.0766 c 100.50151,0 102.25823,0.0448 107.21619,2.73516 5.39547,2.92773 12.3739,10.12958 12.3739,12.77003 0,0.88325 0.75,1.85585 1.66666,2.16132 1.31656,0.43873 1.74166,30.61592 2.02364,143.65738 l 0.35698,143.10198 -2.80978,5.45373 c -3.38842,6.57689 -8.62496,12.35685 -13.50462,14.90612 -3.00928,1.57212 -20.64356,1.88096 -107.39978,1.88096 H 387.20047 Z m 205.96395,-22.36048 c 1.09834,-1.32342 1.41148,-38.56159 1.16327,-138.33334 l -0.33965,-136.52245 h -97.33334 -97.33334 l -0.33965,136.52245 c -0.24821,99.77175 0.0649,137.00992 1.16327,138.33334 1.24042,1.49462 18.09532,1.81089 96.50972,1.81089 78.4144,0 95.2693,-0.31627 96.50972,-1.81089 z M 415.89745,466.76924 c -5.10312,-5.1031 -5.15812,-10.39584 -0.15781,-15.18644 5.01249,-4.80226 11.23735,-4.82404 15.65738,-0.0548 5.29929,5.71804 4.27656,13.85999 -2.15903,17.18796 -5.59483,2.89319 -8.99708,2.39671 -13.34054,-1.94676 z m 42.33938,3.02315 c -0.49691,-0.49692 -0.90348,-5.60348 -0.90348,-11.34793 v -10.44444 h 56.05392 56.05392 l -0.38725,11 -0.38725,11 -54.76319,0.34793 c -30.11975,0.19136 -55.16975,-0.0587 -55.66667,-0.55556 z m -42.33938,-47.02315 c -5.10312,-5.10311 -5.15812,-10.39584 -0.15781,-15.18644 5.13873,-4.92321 12.32143,-4.95417 16.1636,-0.0696 3.80222,4.83372 3.55426,10.99459 -0.62385,15.50048 -4.60988,4.97155 -10.25571,4.88184 -15.38194,-0.2444 z m 42.33938,3.02315 c -0.49691,-0.49692 -0.90348,-5.60348 -0.90348,-11.34794 v -10.44444 h 56.05392 56.05392 l -0.38725,11 -0.38725,11 -54.76319,0.34794 c -30.11975,0.19136 -55.16975,-0.0587 -55.66667,-0.55556 z m -42.33938,-49.68982 c -5.12624,-5.12622 -5.21594,-10.77205 -0.2444,-15.38193 7.727,-7.16487 19.01363,-2.66525 19.01363,7.58012 0,3.71811 -0.92168,5.57108 -4.1023,8.2474 -5.37586,4.52348 -9.83327,4.38807 -14.66693,-0.44559 z m 42.33938,3.02315 c -0.49691,-0.49692 -0.90348,-5.60348 -0.90348,-11.34793 v -10.44444 h 56.05392 56.05392 l -0.38725,11 -0.38725,11 -54.76319,0.34793 c -30.11975,0.19136 -55.16975,-0.0587 -55.66667,-0.55556 z M 234.00001,344.60169 c -37.71726,-8.23702 -66.91843,-32.81203 -81.91187,-68.93501 -1.31841,-3.1764 -3.0036,-8.80526 -5.33544,-17.82136 -1.83615,-7.09954 -1.83615,-36.59109 0,-43.69062 3.63935,-14.07167 4.44099,-16.35749 9.40624,-26.82136 9.41096,-19.83281 29.74215,-40.40404 48.83284,-49.40936 4.22119,-1.99119 8.87489,-4.24588 10.34156,-5.01043 1.46667,-0.76455 5.96667,-2.22184 10,-3.23842 4.03333,-1.01658 9.43333,-2.39504 12,-3.06325 7.37455,-1.9199 32.46468,-1.5335 38.9534,0.59989 3.1423,1.03314 7.81327,2.30567 10.37994,2.82785 6.94744,1.41343 23.5826,9.54393 32.66666,15.96597 9.03503,6.38736 22.85637,20.56407 28.28914,29.0165 5.02791,7.82253 9.71087,17.0834 9.71087,19.20389 0,0.97572 0.50417,1.77403 1.12038,1.77403 0.6162,0 1.87903,3.45 2.80626,7.66666 0.92724,4.21667 2.2545,8.88598 2.94949,10.37624 1.70763,3.66166 0.61725,41.11685 -1.41551,48.62377 -0.89358,3.3 -1.95588,7.65 -2.36066,9.66666 -0.40478,2.01667 -1.26786,3.66667 -1.91796,3.66667 -0.6501,0 -1.182,0.83907 -1.182,1.8646 0,2.64605 -7.25018,16.09303 -12.58359,23.33891 -5.64785,7.67308 -19.498,20.99524 -27.46036,26.41354 -7.0322,4.78535 -22.66874,12.38295 -25.48518,12.38295 -1.06565,0 -2.50754,0.56391 -3.20421,1.25312 -4.72624,4.67568 -38.92057,6.77279 -54.6,3.34856 z m 34.5864,-24.7452 c 4.44415,-0.81228 9.12212,-2.01228 10.39551,-2.66667 1.27338,-0.6544 3.48797,-1.18981 4.9213,-1.18981 1.43335,0 2.9769,-0.6 3.43012,-1.33333 0.45323,-0.73334 1.6678,-1.33334 2.69906,-1.33334 1.74293,0 10.95305,-5.29881 17.43941,-10.03333 8.00676,-5.84428 18.16297,-17.56887 21.91568,-25.3 1.06788,-2.2 2.26327,-4.3 2.6564,-4.66667 1.31328,-1.22485 6.39222,-19.2235 7.99522,-28.33333 2.76064,-15.68872 -3.29468,-39.50478 -14.2243,-55.94526 -6.79932,-10.22762 -9.91452,-13.67101 -17.45092,-19.28933 -2.7668,-2.06264 -5.33055,-4.05365 -5.69721,-4.42449 -0.71426,-0.72238 -4.9916,-3.17006 -9.33334,-5.34092 -1.46666,-0.73334 -3.85852,-1.93334 -5.31524,-2.66667 -1.45672,-0.73333 -3.73672,-1.33333 -5.06666,-1.33333 -1.32995,0 -2.9881,-0.53855 -3.68476,-1.19676 -4.30026,-4.06296 -43.56642,-4.06296 -47.86667,0 -0.69667,0.65821 -2.26239,1.19676 -3.47939,1.19676 -2.42365,0 -17.69519,7.47241 -21.79968,10.66666 -12.18109,9.47974 -22.82915,22.44303 -28.47521,34.66667 -1.52426,3.3 -4.03526,12.47333 -5.57999,20.38517 l -2.80863,14.38518 2.74943,14.24723 c 3.70187,19.18257 11.30757,34.08452 23.81864,46.66809 4.09956,4.12331 18.05931,13.64767 20.00324,13.64767 0.82771,0 1.50492,0.6 1.50492,1.33333 0,0.73333 1.16459,1.33333 2.58797,1.33333 1.42339,0 2.9588,0.6 3.41203,1.33334 0.45323,0.73333 1.99677,1.33333 3.43012,1.33333 1.43333,0 3.64792,0.54791 4.92131,1.21757 6.82981,3.59179 24.69735,4.86952 36.90164,2.63891 z"
     style="fill:#e9e9e9;stroke-width:1.33333337" />
  <path
     inkscape:connector-curvature="0"
     id="path68"
     d="m 382.37789,548.10349 c -3.53589,-2.2424 -7.60885,-6.39579 -9.59437,-9.78382 l -3.45017,-5.88728 v -70.18507 -70.18507 l -5.32356,-2.57206 c -2.92796,-1.41464 -8.47796,-3.2807 -12.33334,-4.14679 -3.85537,-0.86609 -9.17938,-2.12267 -11.83113,-2.79239 -6.8001,-1.71741 -166.35963,-1.57669 -174.25489,0.15368 -3.4414,0.75424 -9.11273,2.01114 -12.60296,2.7931 -24.80742,5.55793 -48.39108,27.681 -58.100528,54.50223 -4.586527,12.66974 -5.553606,23.66832 -5.553606,63.16113 v 38.27603 l -11.666667,-0.38525 -11.666667,-0.38524 v -44.66667 c 0,-39.48818 0.290167,-45.74875 2.502803,-54 8.47114,-31.59018 31.165514,-59.42882 59.545265,-73.04277 23.88419,-11.45738 25.66459,-11.62345 124.61861,-11.62345 88.92841,0 97.63692,0.46944 110.80941,5.97327 2.66728,1.11445 5.07631,2.02628 5.35342,2.02628 0.27712,0 0.50384,-26.62672 0.50384,-59.17051 0,-64.36586 0.0305,-64.6553 7.55745,-71.69355 2.07673,-1.94191 5.87588,-4.78966 8.44255,-6.32835 4.62878,-2.77492 5.4797,-2.79767 104.83717,-2.80261 108.82834,-0.005 104.53723,-0.28598 113.71259,7.43458 2.31276,1.94606 5.3852,5.98097 6.82763,8.96647 2.55759,5.29358 2.62261,8.9528 2.62261,147.57006 v 142.14187 l -4.33333,7.11772 c -2.87059,4.71508 -6.25824,8.18326 -10.03579,10.27435 l -5.70245,3.15664 H 490.89194 388.52209 Z m 204.62213,-20.6029 c 2.20332,-0.55169 2.33333,-8.22864 2.33333,-137.77575 0,-104.92672 -0.37629,-137.56779 -1.6,-138.7915 -2.31489,-2.31489 -190.48511,-2.31489 -192.8,0 -1.22368,1.22368 -1.6,33.82232 -1.6,138.60042 0,117.36471 0.27308,137.15325 1.90528,138.06667 1.92612,1.07792 187.44355,0.98134 191.76139,-0.0999 z M 416.23243,466.24742 c -6.83026,-7.27048 0.12146,-19.88262 9.64209,-17.4931 7.51787,1.88687 10.68712,12.13516 5.51884,17.84604 -3.50539,3.87342 -11.36229,3.69051 -15.16093,-0.35294 z m 41.37817,-7.2474 0.38942,-10.33334 h 55.33333 55.33334 l 0.38941,10.33334 0.38943,10.33333 h -56.11218 -56.11217 z m -41.37817,-36.75261 c -2.85644,-3.04054 -3.69258,-7.96149 -2.07084,-12.18766 1.22437,-3.19066 7.9773,-6.243 11.72878,-5.30144 7.50289,1.8831 10.66561,12.13742 5.50299,17.84205 -3.50539,3.87341 -11.36229,3.69051 -15.16093,-0.35295 z m 41.10092,-6.77141 c 0,-7.75863 0.44904,-10.02967 2.10905,-10.66667 2.75406,-1.05682 105.02785,-1.05682 107.7819,0 1.66001,0.637 2.10905,2.90804 2.10905,10.66667 v 9.85735 h -56 -56 z m -41.10092,-39.89525 c -4.22834,-4.50087 -3.93467,-11.90592 0.61406,-15.48396 4.8683,-3.8294 9.32212,-3.46664 13.92275,1.134 4.5824,4.5824 4.83296,7.2185 1.24539,13.10256 -2.24252,3.678 -3.41647,4.33333 -7.7626,4.33333 -3.62846,0 -5.96527,-0.8992 -8.0196,-3.08593 z m 41.37817,-7.2474 0.38942,-10.33334 h 55.33333 55.33334 l 0.38941,10.33334 0.38943,10.33333 H 513.33335 457.22118 Z M 233.33334,343.86703 c -31.84861,-8.36584 -53.23975,-23.00678 -69.37033,-47.47979 -13.54852,-20.55555 -19.42527,-41.77095 -18.20486,-65.72057 0.84526,-16.58736 3.18982,-25.99216 10.1114,-40.56005 6.58515,-13.8598 11.00778,-20.21897 21.55948,-30.99975 9.80428,-10.01713 19.46439,-16.87096 31.90431,-22.63604 8.1374,-3.77114 11.07441,-4.76097 24.82136,-8.36526 9.49614,-2.48978 36.55279,-1.7984 47.82391,1.22203 49.43187,13.24678 83.17554,56.08511 83.3144,105.76949 0.12267,43.87847 -24.63637,82.58715 -64.50417,100.84698 -4.87059,2.23077 -9.44872,4.05594 -10.17364,4.05594 -0.72492,0 -2.3599,0.52912 -3.63328,1.17583 -7.80904,3.96593 -42.22348,5.69228 -53.64858,2.69119 z m 40.23372,-24.58285 c 34.79948,-7.3203 58.78739,-32.53526 66.32642,-69.71922 5.23129,-25.80178 -5.89944,-58.12378 -26.30711,-76.39199 -8.92139,-7.98612 -21.74557,-15.34194 -32.91969,-18.8824 -13.27319,-4.20555 -37.34571,-4.21352 -50.66667,-0.0168 -9.9401,3.13161 -22.45354,10.14692 -31.4453,17.6289 -10.83145,9.0128 -22.2261,27.1913 -25.13384,40.09732 -0.9087,4.03334 -2.20014,9.50295 -2.86986,12.1547 -0.66972,2.65176 -1.21767,7.98214 -1.21767,11.84532 0,3.86317 0.54795,9.19356 1.21767,11.84531 0.66972,2.65174 1.9474,8.0581 2.83929,12.01412 3.22636,14.31068 14.88319,32.09389 27.67959,42.2269 20.77444,16.45052 46.75325,22.61324 72.49717,17.19784 z"
     style="fill:#d2d2d2;stroke-width:1.33333337" />
  <path
     inkscape:connector-curvature="0"
     id="path66"
     d="m 385.33335,549.18838 c -6.37132,-3.82508 -10.50372,-7.76703 -13.12668,-12.52169 -1.94972,-3.53426 -2.28428,-12.21496 -2.87332,-74.55277 l -0.66667,-70.55277 -4,-2.17424 c -4.23168,-2.30019 -10.63748,-4.33523 -20.92376,-6.6472 -4.03733,-0.90744 -36.43867,-1.3991 -91.33334,-1.3859 -79.91853,0.0192 -85.70225,0.17823 -95.40237,2.62268 -32.73376,8.24896 -55.33995,30.38842 -65.373275,64.02353 -0.765633,2.56666 -1.746483,24.46666 -2.179664,48.66666 l -0.787601,44.00001 -11.000001,0.38725 c -8.277813,0.29143 -11.011045,-0.0385 -11.044631,-1.33333 -0.02455,-0.94632 -0.02711,-20.82126 -0.0057,-44.16654 0.03439,-37.46841 0.342373,-43.66505 2.626387,-52.842 10.466704,-42.05403 43.673735,-73.76346 86.489605,-82.58898 4.69957,-0.9687 37.15977,-1.45641 96.93438,-1.45641 89.82331,0 95.94724,0.26735 109.71327,4.78975 3.14229,1.0323 5.99229,1.87692 6.33333,1.87692 0.34104,0 0.62007,-26.33112 0.62007,-58.51359 0,-43.98002 0.41516,-59.46234 1.67145,-62.33334 3.11301,-7.11412 6.6868,-11.25059 12.85103,-14.87439 l 6.14418,-3.61202 h 100.00001 c 55,0 101.66513,0.46522 103.70028,1.03384 5.28127,1.47556 14.29813,10.0475 17.14551,16.29949 2.29994,5.05002 2.43053,12.78482 2.45826,145.60394 0.0221,106.27696 -0.35886,141.17439 -1.57237,144.00001 -2.93308,6.82956 -6.7468,11.34244 -12.86307,15.22126 l -6.05736,3.84147 -101.40563,-0.005 c -100.6606,-0.005 -101.43991,-0.0256 -106.07229,-2.80666 z m 202.50967,-21.66585 c 1.09841,-1.32351 1.41145,-38.90901 1.16325,-139.66668 l -0.33958,-137.85584 -96.51943,-0.34215 c -70.19343,-0.24884 -97.01418,0.0684 -98.33334,1.16326 -1.50797,1.2515 -1.81391,24.45436 -1.81391,137.57049 0,124.73891 0.18368,136.26806 2.20666,138.50342 2.09841,2.31872 6.86437,2.43832 97.17007,2.43832 78.37601,0 95.22593,-0.31629 96.46628,-1.81082 z M 416.60608,466.06062 c -3.9996,-3.99959 -4.17512,-8.55378 -0.50929,-13.21412 3.61228,-4.59227 10.2391,-4.78972 14.33748,-0.42722 8.94648,9.5231 -4.59144,22.8781 -13.82819,13.64134 z m 41.63075,2.39844 c -0.49691,-0.49692 -0.90348,-5.01007 -0.90348,-10.02923 v -9.12573 l 55.66667,0.34796 55.66667,0.34796 v 9.33333 9.33333 l -54.76319,0.34794 c -30.11975,0.19136 -55.16975,-0.0587 -55.66667,-0.55556 z m -41.63075,-46.39845 c -4.19949,-4.19949 -4.27765,-9.98502 -0.1868,-13.82818 6.47977,-6.08742 16.91407,-1.8182 16.91407,6.92044 0,9.06005 -10.31518,13.31985 -16.72727,6.90774 z m 41.63075,2.39844 c -0.49691,-0.49692 -0.90348,-5.01006 -0.90348,-10.02922 v -9.12574 l 55.66667,0.34796 55.66667,0.34796 v 9.33334 9.33333 l -54.76319,0.34793 c -30.11975,0.19136 -55.16975,-0.0587 -55.66667,-0.55556 z m -41.37546,-49.06204 c -6.83669,-6.33604 -2.55526,-16.73033 6.89124,-16.73033 8.85214,0 13.01909,10.97167 6.49481,17.10092 -4.05527,3.80972 -9.02383,3.67217 -13.38605,-0.37059 z m 41.37546,2.39538 c -0.49691,-0.49692 -0.90348,-5.01007 -0.90348,-10.02923 v -9.12573 l 55.66667,0.34796 55.66667,0.34796 v 9.33333 9.33333 l -54.76319,0.34794 c -30.11975,0.19136 -55.16975,-0.0587 -55.66667,-0.55556 z M 234.00001,343.3642 c -20.92954,-4.32007 -39.11136,-14.07291 -54.74248,-29.36419 -5.99706,-5.86667 -12.38799,-13.06667 -14.20208,-16 -14.26998,-23.07417 -18.29379,-36.71139 -18.29379,-62 0,-25.46451 4.95931,-41.98302 18.62087,-62.02255 19.70602,-28.90589 54.53153,-47.31079 89.52089,-47.31079 50.01768,0 93.53351,33.54468 106.61582,82.18604 3.9708,14.76383 3.95824,39.57538 -0.0276,54.40233 -13.11216,48.77665 -57.14378,82.54271 -106.82452,81.91937 -6.96694,-0.0875 -16.26716,-0.90201 -20.66717,-1.81021 z m 34.23161,-22.13739 c 16.94099,-3.43477 27.79931,-8.04603 39.20775,-16.65056 42.00798,-31.68344 45.53112,-95.33871 7.24679,-130.93314 -13.20922,-12.28113 -27.52008,-19.1832 -47.07199,-22.70262 -11.94632,-2.1504 -23.17097,-1.37807 -36.9475,2.5422 -10.02309,2.85218 -24.59405,11.36786 -33.39729,19.51832 -28.70873,26.57989 -35.85801,66.71828 -18.29685,102.72455 5.97698,12.25481 23.5009,29.7973 36.36081,36.39934 17.06001,8.7583 37.3629,12.2517 52.89828,9.10191 z"
     style="fill:#b0b0b0;stroke-width:1.33333337" />
  <path
     inkscape:connector-curvature="0"
     id="path64"
     d="m 384.39407,547.99522 c -4.8141,-2.76096 -8.0808,-5.92176 -10.66667,-10.32083 l -3.72739,-6.34104 -0.66666,-70.45613 -0.66667,-70.45613 -7.33333,-2.9695 c -15.19531,-6.15308 -17.99246,-6.29778 -113.33334,-5.86248 -98.71908,0.45072 -91.20203,-0.13027 -110.0905,8.50945 -21.51703,9.84211 -39.880316,32.32755 -46.026336,56.35826 -2.23974,8.75729 -2.549838,14.961 -2.549838,51.01113 0,27.82747 -0.461409,41.32652 -1.433104,41.92707 -0.788206,0.48713 -5.738206,0.88589 -11,0.88612 l -9.566896,4.3e-4 -0.397926,-41.14078 c -0.413408,-42.74145 0.155928,-49.62423 5.388373,-65.14077 13.066235,-38.74726 46.243567,-66.93729 87.009557,-73.93007 6.82847,-1.17132 33.30844,-1.47438 98.66667,-1.12919 81.80082,0.43201 90.0641,0.67839 98,2.92195 4.76667,1.34758 9.23667,2.97977 9.93334,3.62706 0.69666,0.6473 1.74666,1.17691 2.33333,1.17691 0.58667,0 1.06667,-25.88039 1.06667,-57.51198 0,-39.2363 0.48361,-59.12614 1.5219,-62.59165 2.00767,-6.70097 8.16839,-14.01074 14.55395,-17.2684 4.99111,-2.54628 8.27583,-2.62798 105.66132,-2.62798 h 100.51007 l 5.87639,3.076 c 3.60649,1.88783 7.55021,5.55124 10.20971,9.48403 l 4.33333,6.40802 v 142.42917 c 0,97.19347 -0.44944,143.6213 -1.41511,146.18266 -2.01229,5.33743 -9.01666,12.32746 -15.25156,15.22034 -5.04366,2.34017 -10.72842,2.47548 -104.66667,2.49133 l -99.33333,0.0168 -6.93928,-3.97977 z m 204.17738,-20.75711 c 1.8774,-1.8774 2.09524,-16.24875 2.09524,-138.22835 0,-124.80219 -0.18367,-136.33606 -2.20666,-138.57143 -2.0983,-2.3186 -6.85578,-2.43832 -96.89501,-2.43832 -86.23742,0 -94.90598,0.19695 -97.12669,2.20665 -2.33204,2.11047 -2.43832,8.17223 -2.43832,139.06667 0,104.6689 0.37634,137.23636 1.6,138.46002 1.21471,1.21471 24.6307,1.6 97.2381,1.6 85.16595,0 95.86752,-0.22942 97.73334,-2.09524 z m -171.34066,-61.8022 c -2.1436,-2.14359 -3.89744,-4.79755 -3.89744,-5.89769 0,-3.51483 6.67317,-10.20487 10.17913,-10.20487 4.29216,0 9.82087,5.62955 9.82087,10 0,4.17309 -5.4629,10 -9.3753,10 -1.55641,0 -4.58368,-1.75384 -6.72726,-3.89744 z m 40.65535,2.08148 c -0.38327,-0.99879 -0.51443,-5.34879 -0.29148,-9.66667 l 0.40536,-7.8507 55,-0.34812 55,-0.34814 v 10.0148 10.01479 h -54.70851 c -44.93563,0 -54.833,-0.3244 -55.40537,-1.81596 z m -39.6275,-44.8855 c -4.36921,-3.43681 -5.50925,-7.04562 -3.44804,-10.91485 3.73639,-7.01379 10.05768,-8.30331 15.25002,-3.11096 1.8,1.8 3.27273,4.82727 3.27273,6.72727 0,4.03941 -5.41992,10 -9.09292,10 -1.4011,0 -4.09291,-1.21566 -5.98179,-2.70146 z m 39.6275,0.8855 c -0.38327,-0.99879 -0.51443,-5.34879 -0.29148,-9.66667 l 0.40536,-7.85071 55,-0.34812 55,-0.34813 v 10.0148 10.01479 h -54.70851 c -44.93563,0 -54.833,-0.3244 -55.40537,-1.81596 z m -37.47506,-46.19684 c -1.60725,-0.6474 -3.92857,-2.71291 -5.15851,-4.59002 -1.90168,-2.90232 -1.98568,-4.0178 -0.56153,-7.45601 2.99308,-7.22591 9.96575,-8.73895 15.36958,-3.33511 4.48,4.47999 4.19456,9.0479 -0.82958,13.27542 -4.49667,3.78369 -4.59559,3.80732 -8.81996,2.10572 z m 38.36139,-0.5264 c -0.93753,-1.12966 -1.41511,-5.0625 -1.17568,-9.68164 l 0.40323,-7.77916 55.0587,-0.34818 55.05873,-0.34817 -0.39206,9.68151 -0.39204,9.6815 -53.49097,0.34831 c -45.00722,0.29307 -53.7414,0.0465 -55.06991,-1.55417 z M 237.33334,343.43161 c -34.80447,-6.43638 -65.71341,-29.53308 -79.50296,-59.40856 -1.86749,-4.046 -3.85621,-8.25877 -4.41937,-9.36171 -6.34952,-12.43549 -8.29235,-48.28771 -3.57623,-65.99467 4.93301,-18.52129 13.46485,-33.42881 27.34776,-47.78424 18.53261,-19.16337 38.62572,-29.28422 65.40354,-32.94358 44.77304,-6.11852 92.35204,20.26265 111.31563,61.72129 7.49005,16.37493 10.0983,28.34387 10.0983,46.33987 0,14.29908 -1.36468,22.88096 -5.61866,35.33333 -17.02547,49.83735 -70.1905,81.50335 -121.04801,72.09827 z m 33.60104,-22.18323 c 37.89136,-7.60601 64.51363,-35.6799 70.37901,-74.21652 4.61553,-30.32492 -10.36723,-64.30519 -36.04126,-81.74009 -33.18196,-22.53345 -73.82144,-21.08687 -104.61868,3.72393 -10.0396,8.08808 -16.73572,16.81176 -23.2712,30.31764 -6.22975,12.87405 -8.321,22.49911 -8.21354,37.80283 0.17878,25.4562 11.97779,50.133 31.48474,65.84815 6.97137,5.61625 18.61598,12.19646 26.67989,15.07642 12.05006,4.30359 31.10251,5.6965 43.60104,3.18764 z"
     style="fill:#919191;stroke-width:1.33333337" />
  <path
     inkscape:connector-curvature="0"
     id="path62"
     d="m 391.99139,550.75423 c -9.04246,-2.75058 -15.16298,-7.75972 -19.16875,-15.688 -1.90223,-3.76493 -2.15836,-12.3954 -2.17637,-73.33333 -0.0107,-37.98642 -0.46123,-69.69782 -1,-70.46978 -1.63439,-2.34175 -14.2397,-7.14413 -24.3149,-9.26352 -7.86997,-1.65551 -23.88796,-1.99797 -93.0852,-1.99024 -78.58588,0.009 -84.23515,0.16652 -94.55339,2.64025 -26.66665,6.39315 -48.16422,23.24764 -60.009561,47.04862 -8.373528,16.82503 -8.819584,20.03253 -9.359395,67.30179 l -0.491056,43 H 77.249719 66.666669 l 2.28e-4,-39.66667 c 2.36e-4,-40.79424 0.958649,-51.25216 6.085984,-66.40845 10.766851,-31.82659 37.344459,-58.39922 69.190219,-69.17723 16.53097,-5.59483 24.50219,-6.0318 110.05691,-6.03315 84.84926,-10e-4 95.48964,0.55556 110.64767,5.79104 3.28955,1.13619 6.42148,1.62531 6.95985,1.08693 0.53838,-0.53837 1.14692,-28.06593 1.35234,-61.17235 l 0.37348,-60.1935 4,-5.66123 c 2.2,-3.11368 6.4,-6.91468 9.33333,-8.44666 5.24772,-2.7407 6.91715,-2.79182 104,-3.18518 69.38271,-0.28114 100.17526,0.0389 103.74957,1.07834 6.36302,1.85042 15.12608,9.64499 17.65916,15.70753 1.63594,3.91536 1.92461,25.68209 1.92461,145.1246 v 140.51838 l -2.84585,6.05428 c -1.56522,3.32985 -4.75642,7.51155 -7.09156,9.29264 -9.74638,7.43392 -7.6759,7.30035 -111.23023,7.17608 -52.52447,-0.0631 -97.00291,-0.57207 -98.84099,-1.13119 z m 197.0753,-23.02088 c 1.22378,-1.22378 1.6,-33.97476 1.6,-139.28643 0,-134.76192 -0.0548,-137.71574 -2.57902,-139.06667 -3.94068,-2.10899 -192.37183,-1.89607 -194.48766,0.21976 -2.32138,2.32139 -2.32138,275.81196 0,278.13334 2.31519,2.31519 193.15149,2.31519 195.46668,0 z m -171.73334,-62.4 c -3.9238,-3.9238 -3.1373,-10.22424 1.72777,-13.8408 3.43215,-2.55136 4.01111,-2.61208 7.30059,-0.76575 1.96505,1.10296 4.47523,3.61314 5.57819,5.57819 1.84633,3.28948 1.78561,3.86844 -0.76575,7.30059 -3.61656,4.86506 -9.917,5.65157 -13.8408,1.72777 z m 41.60575,-6.33333 0.39425,-9 h 54 54 l 0.39426,9 0.39425,9 h -54.78851 -54.78851 z m -41.60575,-37.66667 c -3.9238,-3.9238 -3.1373,-10.22424 1.72777,-13.8408 3.43215,-2.55136 4.01111,-2.61208 7.30059,-0.76575 1.96505,1.10296 4.47523,3.61313 5.57819,5.57819 1.84633,3.28948 1.78561,3.86844 -0.76575,7.30058 -3.61656,4.86507 -9.917,5.65158 -13.8408,1.72778 z m 41.33333,-6.68163 v -9.34828 l 54.33334,0.34828 54.33333,0.34829 0.39426,9 0.39425,9 h -54.72759 -54.72759 z m -41.08192,-40.03699 c -4.09151,-3.81181 -3.82541,-9.70746 0.59507,-13.18461 4.65566,-3.66215 7.40188,-3.48477 11.63837,0.75171 4.23648,4.23649 4.41386,6.9827 0.75171,11.63837 -3.37815,4.29463 -8.86771,4.63052 -12.98515,0.79453 z m 41.08192,-6.61472 v -9.33333 h 54.66667 54.66667 v 9.33333 9.33334 H 513.33335 458.66668 Z M 235.09646,342.53565 c -8.76763,-1.46384 -21.68533,-6.31866 -34.05959,-12.80055 -12.98465,-6.8016 -31.53048,-25.25594 -39.39224,-39.19793 -24.32664,-43.14069 -18.30662,-93.22512 15.58547,-129.66574 11.53384,-12.40113 32.66431,-24.8746 50.10324,-29.57632 11.29619,-3.04557 34.74091,-4.05904 46.44266,-2.00762 11.60476,2.03441 27.95197,8.13609 38.83197,14.49424 11.47572,6.70628 29.46422,25.3105 36.41408,37.66052 16.01616,28.46096 19.10912,59.75091 8.89298,89.96621 -11.93322,35.29374 -43.20933,62.78702 -80.39121,70.66793 -9.66685,2.04894 -31.49108,2.28518 -42.42736,0.45926 z m 37.70459,-21.04676 c 2.12609,-0.64777 6.56563,-1.97516 9.86563,-2.94975 33.71725,-9.95761 60,-45.8787 60,-82.00301 0,-24.68039 -9.77475,-46.6353 -28.58323,-64.20035 -16.69484,-15.59113 -35.62391,-23.00244 -58.75011,-23.00244 -24.72932,0 -42.68512,7.49504 -60.6908,25.33333 -14.60981,14.47399 -21.05175,26.3416 -25.18612,46.39896 -7.79719,37.82713 15.83375,80.22919 53.22297,95.50037 3.293,1.34498 8.98728,3.20152 12.65395,4.12561 7.84336,1.97675 31.91535,2.48899 37.46771,0.79728 z"
     style="fill:#6e6e6e;stroke-width:1.33333337" />
  <path
     inkscape:connector-curvature="0"
     id="path60"
     d="m 388.14584,548.95058 c -5.32199,-1.69975 -14.10789,-10.38301 -15.59949,-15.41725 -0.57579,-1.94332 -1.38427,-34.98199 -1.79662,-73.41927 l -0.74972,-69.88595 -4,-2.1744 c -2.2,-1.19591 -6.7,-2.96723 -10,-3.93626 -3.3,-0.96902 -7.73953,-2.29188 -9.86562,-2.93965 -5.04743,-1.53785 -181.888,-1.53785 -186.93542,0 -2.1261,0.64777 -6.56563,1.97724 -9.86563,2.95436 -25.082,7.42669 -49.833075,32.17423 -57.209365,57.20119 -0.972621,3.3 -2.298407,7.73953 -2.946188,9.86563 -0.647781,2.1261 -1.177784,22.9761 -1.177784,46.33333 v 42.46771 H 77.894468 67.788934 l 0.498804,-46.33334 0.498806,-46.33333 4.075544,-11.58381 c 12.277631,-34.89638 36.492562,-59.40323 69.323812,-70.15957 16.68993,-5.46804 23.8182,-5.79318 116.48078,-5.31298 85.37561,0.44244 89.01309,0.563 98,3.24781 5.13333,1.53357 10.23333,3.01787 11.33333,3.29844 1.74843,0.44595 2.08386,-7.03696 2.66667,-59.4899 0.62921,-56.62864 0.81651,-60.29486 3.33333,-65.24768 3.83362,-7.54411 10.67866,-12.47536 19.60836,-14.12609 4.9268,-0.91078 40.29691,-1.26124 101.96754,-1.01036 93.14187,0.37892 94.50755,0.42272 100.56874,3.22568 6.61293,3.05812 11.69789,8.97451 14.25554,16.58645 2.23606,6.65483 2.31011,276.55858 0.0779,284.00897 -2.08727,6.96668 -8.54089,14.41606 -15.05044,17.37263 -5.13037,2.33016 -10.83184,2.45933 -104.09432,2.35835 -66.85645,-0.0724 -100.12419,-0.57235 -103.18751,-1.55071 z m 201.18751,-20.95056 c 2.63174,-2.63173 2.66667,-4.44444 2.66667,-138.36999 0,-120.66415 -0.23003,-136.03174 -2.0756,-138.66667 l -2.07561,-2.96335 h -96.49583 c -85.9457,0 -96.7249,0.22908 -98.59106,2.09524 -1.87753,1.87753 -2.09524,16.30936 -2.09524,138.89502 0,125.42253 0.18352,137.00256 2.20665,139.2381 2.09876,2.3191 6.89028,2.43832 98.00001,2.43832 94.01557,0 95.84284,-0.0495 98.46001,-2.66667 z M 417.56576,464.91408 c -3.73788,-3.9788 -3.67631,-7.71906 0.18685,-11.34832 3.84943,-3.61634 8.11127,-3.70188 11.58074,-0.23241 5.1916,5.1916 1.46559,14.66667 -5.76759,14.66667 -1.70549,0 -4.40549,-1.38867 -6,-3.08594 z m 41.10092,-5.58073 v -8.66667 h 54.66667 54.66667 v 8.66667 8.66667 h -54.66667 -54.66667 z m -41.10092,-38.41927 c -3.73788,-3.9788 -3.67631,-7.71907 0.18685,-11.34832 3.84943,-3.61635 8.11127,-3.70188 11.58074,-0.23241 3.49464,3.49464 3.38811,8.55733 -0.25141,11.94805 -3.83449,3.57237 -7.93799,3.44148 -11.51618,-0.36732 z m 41.10092,-5.58073 v -8.66667 h 54.66667 54.66667 v 8.66667 8.66666 h -54.66667 -54.66667 z m -40.72727,-41.27274 c -3.96789,-3.96788 -4.17316,-7.82684 -0.60606,-11.39393 5.1916,-5.1916 14.66667,-1.46559 14.66667,5.76759 0,3.56864 -5.07934,8.89908 -8.47989,8.89908 -1.2694,0 -3.78072,-1.47274 -5.58072,-3.27274 z m 40.72727,-5.39393 v -8.66667 h 54.66667 54.66667 v 8.66667 8.66667 H 513.33335 458.66668 Z M 236.00001,341.99381 c -14.37343,-2.73026 -31.28471,-9.60709 -42,-17.07895 -7.3794,-5.14572 -22.25819,-20.17884 -27.29836,-27.58152 -21.80327,-32.02321 -24.95178,-72.82289 -8.33438,-108 12.45931,-26.37489 36.78867,-47.46002 64.2994,-55.72531 29.61855,-8.89856 55.15955,-6.82184 82.00001,6.66733 10.72324,5.38918 14.37948,8.05343 25.1527,18.3285 19.13315,18.24843 28.79237,37.84876 32.88487,66.72948 2.45674,17.33715 -1.95238,41.47619 -10.72748,58.7308 -12.5822,24.74062 -36.38715,45.49122 -61.97676,54.02474 -16.97,5.65908 -37.1014,7.11485 -54,3.90493 z M 273.7368,321.8549 c 28.03986,-6.2677 53.48002,-27.96345 63.1496,-53.85489 5.26128,-14.08769 5.78028,-16.96091 5.78028,-32 0,-15.02318 -0.51032,-17.85504 -5.76659,-32 -12.52365,-33.70195 -49.66665,-57.84179 -85.55656,-55.60459 -32.58627,2.03127 -60.43183,20.40768 -74.59186,49.2262 -6.58701,13.40588 -8.75166,22.89848 -8.75166,38.37839 0,15.97248 2.19365,25.18201 9.42577,39.57201 17.74064,35.29908 58.28477,54.78284 96.31102,46.28288 z"
     style="fill:#4c4c4c;stroke-width:1.33333337" />
  <path
     inkscape:connector-curvature="0"
     id="path58"
     d="m 388.39679,548.40069 c -1.61512,-0.31323 -5.56883,-3.16454 -8.78604,-6.33623 -8.74764,-8.62389 -8.94407,-10.53053 -8.94407,-86.81886 v -65.64301 l -5.21639,-2.71894 c -2.86901,-1.49541 -7.51901,-3.13422 -10.33333,-3.6418 -2.81432,-0.50758 -5.95871,-1.59464 -6.98752,-2.41569 -2.45825,-1.96181 -176.79542,-2.87128 -184.71509,-0.96361 -14.67333,3.53446 -17.8494,4.53936 -25.33791,8.01674 -16.98551,7.88747 -31.56784,22.11527 -40.437193,39.45406 -9.908579,19.3704 -9.996071,19.93573 -10.62698,68.66667 L 86.45124,539.33335 H 77.189835 67.92843 l 0.517416,-41.33333 c 0.526255,-42.03932 1.523134,-52.75928 6.075526,-65.33334 1.987607,-5.48992 12.788759,-26 13.69229,-26 0.516985,0 1.292253,-1.10993 1.722816,-2.46652 C 90.853245,401.31169 105.2511,386.87585 112,382.07844 c 2.56667,-1.82449 5.38254,-3.93031 6.2575,-4.67957 2.79293,-2.39172 17.32737,-9.39886 19.49542,-9.39886 1.14934,0 2.46052,-0.6 2.91375,-1.33333 0.45323,-0.73333 2.55323,-1.33333 4.66667,-1.33333 2.11344,0 4.16099,-0.51512 4.55009,-1.14471 1.67623,-2.7122 22.36871,-3.41067 102.11658,-3.44695 79.36847,-0.0361 101.75944,0.71171 103.45498,3.45514 0.38632,0.62509 2.43158,1.13652 4.54502,1.13652 2.11344,0 4.21344,0.6 4.66667,1.33333 0.45323,0.73333 1.98864,1.33333 3.41203,1.33333 2.52065,0 2.58838,-1.46528 2.6038,-56.33333 0.0173,-61.58678 0.58948,-67.31079 7.44365,-74.46501 1.98164,-2.06838 6.20739,-4.98492 9.39056,-6.48118 5.6616,-2.66127 7.92111,-2.72048 103.82019,-2.72048 53.91795,0 99.07448,0.50922 100.34787,1.1316 8.44743,4.12878 10.74893,5.87306 14.31524,10.84933 l 4,5.58142 0.38125,140.21883 c 0.27378,100.68856 -0.0409,141.75914 -1.11644,145.68248 -1.85358,6.76198 -5.6698,11.31955 -12.5784,15.02202 -5.29988,2.84032 -5.57153,2.8472 -105.33333,2.66609 -55.01087,-0.0999 -101.34121,-0.43785 -102.95631,-0.75109 z m 202.22299,-20.31302 c 0.92575,-1.72977 1.38024,-47.68585 1.38024,-139.56168 0,-125.59273 -0.18348,-137.18542 -2.20665,-139.42099 -2.09959,-2.32002 -6.87058,-2.43627 -98.33334,-2.39592 -77.81811,0.0343 -96.5711,0.37977 -98.46002,1.81366 -2.19589,1.66692 -2.33333,9.93426 -2.33333,140.35759 0,106.01161 0.37608,138.96244 1.6,140.18636 1.21532,1.21532 25.08587,1.6 99.28643,1.6 95.2151,0 97.72134,-0.0652 99.06667,-2.57902 z M 418.09525,464.57144 c -2.96689,-2.96688 -2.59662,-8.00044 0.82284,-11.18614 3.80311,-3.54314 5.82623,-3.42886 9.80919,0.55412 3.81364,3.81362 4.04472,5.69841 1.19714,9.76392 -2.46487,3.51908 -8.71921,3.97806 -11.82917,0.8681 z m 41.2381,-5.9091 v -7.9969 l 53.54824,6.3e-4 53.54824,6.1e-4 0.45176,8.00243 0.45176,8.00243 -54,-0.007 -54,-0.007 v -7.99689 z m -40.43426,-37.74826 c -3.91922,-4.17184 -3.75237,-9.3816 0.38735,-12.09405 4.38769,-2.87494 5.58896,-2.7325 9.44084,1.11938 4.18975,4.18974 4.12972,6.72704 -0.25529,10.79094 -4.37783,4.05722 -5.90636,4.08657 -9.5729,0.18373 z m 40.43426,-5.58073 v -8.66667 h 53.66667 53.66667 v 8.66667 8.66666 h -53.66667 -53.66667 z m -39.82019,-40.76344 c -4.64039,-3.65014 -4.74639,-9.45515 -0.22672,-12.41655 4.38769,-2.87493 5.58896,-2.73249 9.44084,1.11939 4.18975,4.18973 4.12972,6.72704 -0.25529,10.79093 -4.27795,3.96467 -4.5431,3.97964 -8.95883,0.50623 z m 41.15352,1.75182 c -0.73333,-0.54361 -1.33333,-4.4385 -1.33333,-8.65532 v -7.66694 l 53.73029,2.8e-4 53.73029,2.6e-4 -0.39695,8.33334 -0.39696,8.33333 -52,0.32172 c -28.6,0.17695 -52.6,-0.12307 -53.33334,-0.66667 z M 236.66667,341.39492 c -36.4766,-5.88027 -71.99189,-35.98596 -81.86428,-69.39491 -0.97516,-3.3 -2.23186,-7.2 -2.7927,-8.66667 -1.47247,-3.85072 -4.00968,-21.1465 -4.00968,-27.33333 0,-6.18683 2.53721,-23.48262 4.00968,-27.33334 0.56084,-1.46666 1.81754,-5.36666 2.7927,-8.66666 8.84688,-29.93858 40.37811,-59.10465 72.53095,-67.09039 22.08828,-5.48604 34.00155,-5.48738 56,-0.006 21.09088,5.25493 44.59676,20.99194 57.40182,38.43003 2.15399,2.93333 4.21976,5.63333 4.5906,6 1.70463,1.68544 11.26896,22.88865 12.63024,28 2.33352,8.76196 4.65821,24.06625 4.65821,30.66667 0,9.09197 -3.57348,29.09073 -6.55178,36.66667 -1.74368,4.4354 -10.0108,21.28625 -10.79332,22 -0.402,0.36666 -2.19931,2.76666 -3.99403,5.33333 -7.92429,11.33272 -23.31863,24.26107 -37.36299,31.37789 -14.67377,7.43577 -26.02837,10.19153 -43.91208,10.65749 -9.16667,0.23882 -19.66667,-0.0493 -23.33334,-0.64047 z m 37.33334,-18.72824 c 0.45323,-0.73334 1.99808,-1.33334 3.43303,-1.33334 3.6931,0 13.23364,-3.11776 13.23364,-4.32464 0,-0.55478 0.93292,-1.00869 2.07316,-1.00869 3.15994,0 17.82182,-10.34408 24.85698,-17.53681 17.47274,-17.86411 26.40319,-38.99127 26.40319,-62.46319 0,-22.44892 -8.16777,-42.70792 -24.65547,-61.15442 -4.50458,-5.03973 -19.54636,-16.17892 -21.84718,-16.17892 -0.82355,0 -1.49735,-0.50396 -1.49735,-1.11992 0,-0.61596 -2.55,-1.92221 -5.66667,-2.90278 -3.11666,-0.98058 -6.26666,-2.12262 -7,-2.53786 -6.90128,-3.90781 -36.97298,-5.55826 -47.84531,-2.62596 -31.04516,8.37302 -53.55082,29.3834 -64.56545,60.2757 -4.76025,13.35089 -5.02052,36.88481 -0.56555,51.13731 4.09074,13.08722 12.05195,26.39202 21.72719,36.3105 8.06341,8.26614 22.69793,18.79635 26.12251,18.79635 0.9863,0 1.79328,0.45391 1.79328,1.00869 0,1.20688 9.54053,4.32464 13.23364,4.32464 1.43494,0 2.9798,0.6 3.43302,1.33334 0.48294,0.78141 8.20985,1.33333 18.66667,1.33333 10.45683,0 18.18374,-0.55192 18.66667,-1.33333 z"
     style="fill:#353535;stroke-width:1.33333337" />
</svg>
