<?xml version="1.0" encoding="UTF-8" standalone="no"?>
<!-- Created with Inkscape (http://www.inkscape.org/) -->

<svg
   xmlns:dc="http://purl.org/dc/elements/1.1/"
   xmlns:cc="http://creativecommons.org/ns#"
   xmlns:rdf="http://www.w3.org/1999/02/22-rdf-syntax-ns#"
   xmlns:svg="http://www.w3.org/2000/svg"
   xmlns="http://www.w3.org/2000/svg"
   xmlns:xlink="http://www.w3.org/1999/xlink"
   xmlns:sodipodi="http://sodipodi.sourceforge.net/DTD/sodipodi-0.dtd"
   xmlns:inkscape="http://www.inkscape.org/namespaces/inkscape"
   version="1.1"
   id="svg22"
   width="666.66669"
   height="666.66669"
   viewBox="0 0 666.66669 666.66669"
   sodipodi:docname="agen-circle.svg"
   inkscape:version="0.92.3 (2405546, 2018-03-11)">
  <metadata
     id="metadata28">
    <rdf:RDF>
      <cc:Work
         rdf:about="">
        <dc:format>image/svg+xml</dc:format>
        <dc:type
           rdf:resource="http://purl.org/dc/dcmitype/StillImage" />
        <dc:title></dc:title>
      </cc:Work>
    </rdf:RDF>
  </metadata>
  <defs
     id="defs26" />
  <sodipodi:namedview
     pagecolor="#ffffff"
     bordercolor="#666666"
     borderopacity="1"
     objecttolerance="10"
     gridtolerance="10"
     guidetolerance="10"
     inkscape:pageopacity="0"
     inkscape:pageshadow="2"
     inkscape:window-width="1366"
     inkscape:window-height="705"
     id="namedview24"
     showgrid="false"
     inkscape:zoom="0.28425692"
     inkscape:cx="-324.56082"
     inkscape:cy="-87.572956"
     inkscape:window-x="-8"
     inkscape:window-y="-8"
     inkscape:window-maximized="1"
     inkscape:current-layer="svg22" />
  <image
     sodipodi:absref="E:\Project-website\tanyabudi\public\assets\images\icon\agen-circle.png"
     xlink:href="agen-circle.png"
     y="0"
     x="0"
     id="image30"
     preserveAspectRatio="none"
     height="666.66669"
     width="666.66669" />
  <path
     inkscape:connector-curvature="0"
     id="path46"
     d="m 300.66668,644.5089 c -19.19643,-2.6644 -49.04196,-9.4029 -55.3771,-12.50301 -1.12408,-0.55007 -4.12408,-1.44569 -6.66666,-1.99029 -2.54261,-0.54459 -5.22291,-1.41756 -5.95625,-1.93995 -0.73333,-0.52237 -4.33333,-2.0306 -8,-3.35161 -18.0344,-6.49738 -51.02126,-25.3299 -71.7376,-40.95569 -14.07023,-10.61278 -46.08461,-42.62717 -56.697404,-56.6974 -15.762638,-20.89776 -34.566639,-53.83197 -40.959051,-71.7376 -1.309021,-3.66667 -2.880868,-7.23667 -3.492992,-7.93333 -0.612125,-0.69667 -1.112955,-2.40599 -1.112955,-3.7985 0,-1.3925 -0.80776,-4.4225 -1.795021,-6.73333 -3.513623,-8.22413 -6.459827,-19.56975 -11.131922,-42.86818 -3.525022,-17.5783 -3.525022,-87.75503 0,-105.33333 4.672095,-23.29843 7.618299,-34.64404 11.131922,-42.86818 0.987261,-2.31082 1.795021,-5.34082 1.795021,-6.73333 0,-1.39251 0.50083,-3.10183 1.112955,-3.7985 0.612124,-0.69666 2.183971,-4.26666 3.492992,-7.93333 6.392412,-17.90563 25.196413,-50.83984 40.959051,-71.7376 10.612794,-14.07023 42.627174,-46.08461 56.697404,-56.697407 23.11208,-17.432839 53.89844,-34.557548 77.07094,-42.870204 6.6,-2.367615 13.2,-4.759374 14.66667,-5.315021 7.79297,-2.952364 20.66416,-6.161873 41.33333,-10.306716 17.57831,-3.525023 87.75503,-3.525023 105.33334,0 20.66917,4.144843 33.54036,7.354352 41.33333,10.306716 1.46667,0.555647 8.06667,2.947406 14.66667,5.315021 23.17249,8.312656 53.95885,25.437365 77.07094,42.870204 14.07022,10.612797 46.08461,42.627177 56.6974,56.697407 15.74705,20.87711 34.52417,53.75684 40.96827,71.7376 1.31409,3.66667 2.81665,7.26667 3.33902,8 0.52239,0.73333 1.39536,3.41364 1.93995,5.95624 0.5446,2.54259 1.44023,5.54259 1.99029,6.66667 2.28183,4.66297 5.93054,19.14845 10.25442,40.71043 3.52501,17.5783 3.52501,87.75503 0,105.33333 -4.32388,21.56198 -7.97259,36.04746 -10.25442,40.71043 -0.55006,1.12408 -1.43296,4.0145 -1.96198,6.42315 -0.52904,2.40867 -1.80164,5.98897 -2.828,7.95624 -1.02636,1.96727 -1.86982,4.00907 -1.87434,4.53733 -0.004,0.52828 -1.54128,4.42828 -3.41501,8.66667 -9.37016,21.19529 -23.93456,45.91973 -38.1582,64.77712 -10.61279,14.07023 -42.62718,46.08462 -56.6974,56.6974 -20.71634,15.62579 -53.70321,34.45831 -71.73761,40.95569 -3.66666,1.32101 -7.26666,2.82924 -8,3.35161 -0.73333,0.52239 -3.41364,1.39536 -5.95624,1.93995 -2.54258,0.5446 -5.54258,1.46402 -6.66666,2.04317 -2.40587,1.23957 -13.94631,4.47299 -23.3771,6.54981 -25.89913,5.70344 -26.54104,5.76347 -65.33333,6.11006 -21.26667,0.19 -40.46667,0.0956 -42.66667,-0.20974 z m 60,-14.62613 c 36.66556,-2.48843 74.91843,-13.21476 108.9153,-30.54051 55.51181,-28.29035 98.98055,-71.71147 127.00783,-126.86875 7.79257,-15.33565 11.1503,-23.26977 17.41056,-41.14016 6.07797,-17.35 11.80171,-48.51038 13.77649,-75 2.17528,-29.17895 -4.17774,-77.59969 -13.77649,-105.00001 -6.26026,-17.87039 -9.61799,-25.80451 -17.41056,-41.14016 C 553.72338,125.8327 471.28552,67.02732 378.66668,54.742118 c -31.98979,-4.24321 -48.01022,-4.24321 -80,0 -50.36486,6.680525 -101.21861,28.622788 -141.57133,61.084882 -13.0652,10.51041 -33.29296,30.70618 -43.65093,43.58189 -45.949244,57.11821 -69.129618,131.20433 -63.283265,202.25779 3.599468,43.746 12.032606,74.30115 30.58239,110.80683 37.549845,73.89751 104.728955,128.01142 184.842025,148.89338 22.61367,5.89439 60.28676,10.84227 75.08111,9.86095 4.4,-0.29186 13.4,-0.89714 20,-1.34507 z m 16.87365,-139.03822 c -2.45282,-1.30736 -6.20282,-4.97249 -8.33333,-8.14475 l -3.87365,-5.76773 V 421.96113 366.9902 l -3.66667,-1.39697 c -12.89899,-4.91443 -13.11139,-4.92655 -86.33334,-4.92655 -55.89125,0 -73.19324,0.39213 -77.33333,1.75271 -8.49531,2.79182 -15.8555,6.06142 -17.76191,7.89034 -0.96904,0.92966 -2.25303,1.69028 -2.85329,1.69028 -2.3538,0 -15.89883,14.74274 -19.76315,21.51068 -8.43075,14.7656 -8.64169,16.01314 -9.27,54.82266 l -0.57741,35.66667 H 137.88712 128 v -33.2506 c 0,-25.29355 0.49396,-35.3805 2.06414,-42.15098 3.8547,-16.62116 12.51726,-31.66991 25.28857,-43.93176 12.64252,-12.1382 22.34155,-17.27731 43.98063,-23.30345 7.07877,-1.97132 148.58866,-1.23235 155.33334,0.81117 2.56667,0.77765 6.01667,1.84697 7.66667,2.37628 l 3,0.96237 v -46.18296 -46.18295 l 3.97334,-5.77505 c 2.39059,-3.4746 6.27615,-6.88983 9.7543,-8.57356 5.6638,-2.7418 7.31632,-2.79852 81.53863,-2.79852 54.3681,0 77.24085,0.44437 81.01079,1.57386 3.34829,1.00318 7.15132,3.73037 10.48802,7.52106 l 5.23492,5.94719 v 113.17211 113.17211 l -3.38056,5.35516 c -1.8593,2.94533 -5.3093,6.53117 -7.66666,7.96852 -4.13382,2.5205 -7.12864,2.61156 -84.28611,2.56246 -74.13617,-0.0472 -80.32689,-0.22513 -84.45969,-2.42793 z m 158.1343,-17.28188 c 1.326,-0.84185 1.60356,-23.52827 1.33334,-108.97959 l -0.34128,-107.9164 -72.66667,-0.36884 c -39.96667,-0.20287 -74.01667,-0.0415 -75.66667,0.35873 l -3,0.72757 v 107.04127 c 0,81.47655 0.38213,107.42341 1.6,108.64127 1.20584,1.20584 19.51756,1.59498 74.33333,1.57959 40.00334,-0.0107 73.48691,-0.49885 74.40795,-1.0836 z M 402.20667,425.56169 c -3.3261,-3.67529 -2.75987,-8.93297 1.30649,-12.13157 1.93223,-1.51989 4.25131,-2.76344 5.15352,-2.76344 0.90221,0 3.22129,1.24355 5.15352,2.76344 6.69331,5.26496 3.25409,14.56989 -5.38519,14.56989 -2.21193,0 -5.01469,-1.09724 -6.22834,-2.43832 z m 32.72972,-5.89501 0.39696,-8.33333 h 43.33333 43.33334 l 0.39696,8.33333 0.39694,8.33333 h -44.12724 -44.12724 z m -32.0373,-28.08593 c -5.69629,-6.06343 -2.25021,-14.2474 5.99926,-14.2474 7.81968,0 11.30204,9.22505 5.51692,14.61472 -3.83448,3.57237 -7.93799,3.44148 -11.51618,-0.36732 z m 32.67463,2.2152 c -0.49886,-0.49888 -0.90704,-4.40704 -0.90704,-8.68483 v -7.77777 h 44.06363 44.06361 l -0.39694,8.33333 -0.39696,8.33333 -42.75963,0.3515 c -23.51779,0.1933 -43.16779,-0.0567 -43.66667,-0.55556 z m -33.36705,-38.90092 c -4.96984,-5.49162 -0.44242,-14.89502 7.17144,-14.89502 7.09745,0 10.8531,10.29751 5.51692,15.12668 -3.23639,2.9289 -9.93886,2.80651 -12.68836,-0.23166 z m 32.72972,-5.89502 0.39696,-8.33333 43.66667,-0.35155 43.66666,-0.35156 v 8.6849 8.68488 H 478.60306 434.53944 Z M 258.66668,330.09364 c -7.57847,-2.00778 -9.134,-2.62323 -21.33334,-8.44068 -14.19469,-6.76899 -30.4156,-23.22718 -36.94527,-37.48572 -8.20588,-17.91884 -9.7214,-23.97286 -9.7214,-38.8339 0,-14.90373 1.50776,-20.90293 9.80348,-39.00672 6.74272,-14.71468 22.31499,-30.20844 38.19653,-38.00396 26.29777,-12.90836 51.12522,-12.88832 77.09581,0.0623 43.89179,21.88721 60.90199,76.00063 37.18084,118.28092 -8.16078,14.54568 -22.69828,28.63285 -36.27665,35.15293 -13.00095,6.2428 -14.34683,6.76482 -22.35247,8.66971 -8.02284,1.90897 -27.77751,1.69016 -35.64753,-0.39485 z m 41.78128,-22.68306 c 22.51838,-8.28072 38.82105,-28.45257 42.57009,-52.67344 4.2435,-27.41523 -11.76825,-57.58935 -36.39573,-68.58779 -4.74227,-2.11785 -10.06351,-4.51785 -11.82498,-5.33333 -4.46312,-2.06621 -32.92733,-1.88601 -35.03514,0.2218 -0.89587,0.89587 -2.60231,1.62885 -3.79208,1.62885 -4.50788,0 -18.27834,8.79443 -25.98685,16.59635 -9.10532,9.21567 -14.39522,18.82613 -17.28556,31.40365 -2.52242,10.97651 -2.51566,18.41638 0.0267,29.33334 2.60776,11.19796 5.74911,17.82933 12.4792,26.34353 9.60735,12.15422 23.9667,21.02698 39.46311,24.38458 8.94039,1.93712 25.72348,0.38104 35.78128,-3.31754 z"
     style="fill:#e7e7e7;stroke-width:1.33333337" />
  <path
     inkscape:connector-curvature="0"
     id="path44"
     d="m 302.66668,644.53786 c -30.89922,-5.24806 -39.03243,-7.1345 -60,-13.91664 C 202.57578,617.65351 162.54002,593.75754 128.81432,562.66669 116.86037,551.64665 97.235489,528.14961 85.481946,510.78447 60.869517,474.42112 45.984219,436.60534 37.150727,388.00001 c -2.512747,-13.82612 -2.512747,-79.50721 0,-93.33333 8.596267,-47.30002 22.620948,-83.61155 46.090361,-119.33334 23.951662,-36.45579 49.693762,-62.54645 86.092252,-87.257966 30.57551,-20.758201 69.9612,-37.618478 104,-44.520448 5.5,-1.115223 13.9,-2.821309 18.66667,-3.791301 12.03171,-2.448392 81.30163,-2.448392 93.33334,0 4.76666,0.969992 13.16666,2.654147 18.66666,3.742563 5.5,1.088418 11.5,2.496787 13.33334,3.12971 1.83333,0.632922 6.93333,2.19715 11.33333,3.476061 33.48918,9.734018 71.31879,29.91782 101.36223,54.081311 16.33976,13.14183 25.39499,21.91408 38.9047,37.68895 33.94904,39.64125 56.62651,84.68545 67.52148,134.11779 5.02667,22.80683 5.54493,28.91332 5.54493,65.33334 0,36.42001 -0.51826,42.5265 -5.54493,65.33333 -10.90644,49.48431 -33.53675,94.43486 -67.52148,134.11779 -13.70322,16.00082 -22.85603,24.83183 -39.7272,38.33043 -29.99071,23.99555 -67.09986,43.72015 -100.53973,53.43983 -4.4,1.27892 -9.5,2.84983 -11.33333,3.49092 -1.83334,0.64108 -8.43334,2.14357 -14.66667,3.33885 -6.23333,1.19528 -13.73333,2.79355 -16.66667,3.55172 -5.21309,1.34742 -76.73652,2.72207 -83.33333,1.60164 z m 70,-15.13262 c 13.68049,-1.49063 17.20273,-2.15059 36.54343,-6.84712 28.54769,-6.93226 56.60372,-18.79989 82.78991,-35.01991 35.08344,-21.73108 71.14044,-57.78808 92.87152,-92.87153 16.09073,-25.97745 29.92591,-59.01208 35.73832,-85.33333 1.21455,-5.5 2.76259,-12.46963 3.4401,-15.48806 2.11444,-9.42016 4.61673,-37.88196 4.61673,-52.51194 0,-14.62999 -2.50229,-43.09179 -4.61673,-52.51195 -0.67751,-3.01843 -2.2323,-9.98806 -3.45507,-15.48806 -5.79198,-26.05201 -20.03971,-60.18215 -35.47234,-84.97323 C 562.85587,152.59078 527.30114,116.99439 492.00002,95.128477 465.38904,78.64534 436.89783,66.670728 408.46359,60.018829 c -6.4883,-1.517872 -13.89691,-3.309663 -16.46358,-3.981758 -8.0954,-2.119825 -37.39309,-4.703736 -53.33333,-4.703736 -15.94024,0 -45.23794,2.583911 -53.33334,4.703736 -2.56666,0.672095 -9.97528,2.463886 -16.46357,3.981758 -28.43424,6.651899 -56.92546,18.626511 -83.53643,35.109648 -35.21825,21.814583 -70.90812,57.546263 -93.122535,93.231633 -15.432634,24.79108 -29.680361,58.92122 -35.472336,84.97323 -1.222779,5.5 -2.772118,12.44802 -3.442976,15.44002 -0.670859,2.99201 -2.253635,16.04201 -3.517282,29 -2.174495,22.29825 -2.174495,24.82172 0,47.11997 1.263647,12.95799 2.846423,26.00799 3.517282,29 0.670858,2.992 2.220197,9.94002 3.442976,15.44002 5.791975,26.05201 20.039702,60.18215 35.472336,84.97323 22.266685,35.76933 57.821415,71.36572 93.122535,93.23163 26.64255,16.50269 57.30004,29.31132 85.33334,35.65207 5.5,1.24402 12.1,2.79941 14.66666,3.45641 2.56667,0.65701 12.16667,1.89615 21.33334,2.75363 9.16666,0.85749 16.96666,1.85866 17.33333,2.22482 0.95473,0.95343 32.92816,-0.50502 48.66667,-2.2199 z M 379.00796,491.224 c -2.37897,-1.0405 -6.12897,-4.38158 -8.33333,-7.42462 l -4.00795,-5.5328 v -54.97002 c 0,-42.4114 -0.38077,-55.25949 -1.66667,-56.23703 -2.91817,-2.21838 -13.3798,-5.4576 -22.44254,-6.94882 -5.35763,-0.88158 -31.58435,-1.44332 -67.33334,-1.4422 -65.59384,0.003 -74.79416,0.84161 -89.89079,8.20294 -10.15591,4.95218 -24.46701,18.70724 -28.93691,27.81262 -7.72746,15.7412 -7.51732,14.41032 -8.3135,52.64928 l -0.74959,36 h -9.11058 -9.11056 l 0.10227,-34.32149 c 0.10503,-35.24669 0.8112,-41.82362 5.75007,-53.55243 11.44195,-27.17235 34.79797,-47.00443 62.30372,-52.90335 3.82544,-0.82041 35.20571,-1.18029 82.128,-0.94189 68.37438,0.3474 76.41818,0.61294 80.76773,2.66629 2.65686,1.25425 5.20686,1.90425 5.66666,1.44444 0.45982,-0.45981 0.83603,-22.01515 0.83603,-47.90074 v -47.06472 l 4.19792,-4.78117 c 7.96756,-9.07454 3.44592,-8.64495 90.99299,-8.64495 78.3415,0 79.38244,0.0349 84.09828,2.81728 2.62622,1.54951 6.26051,5.35223 8.07622,8.45048 l 3.30126,5.6332 v 110.67801 c 0,120.65425 0.39028,114.39985 -7.61534,122.0376 -2.0449,1.95092 -5.40704,4.18529 -7.47146,4.96528 -2.50772,0.94748 -29.50175,1.38207 -81.33333,1.3094 -63.8891,-0.0896 -78.34319,-0.44263 -81.90526,-2.00059 z m 158.17011,-18.37021 c 1.09602,-1.32061 1.41188,-30.91884 1.16326,-109 l -0.34131,-107.18711 -75.18324,-0.34452 c -54.41729,-0.24936 -75.68505,0.072 -77.00001,1.16326 -1.50538,1.24935 -1.81676,19.54808 -1.81676,106.76551 0,70.00702 0.46224,106.12143 1.38024,107.83674 1.33932,2.50253 3.5884,2.57901 75.83675,2.57901 61.14159,0 74.72555,-0.3242 75.96107,-1.81289 z M 402.74529,425.41196 c -3.29538,-3.29539 -3.48004,-6.43624 -0.61858,-10.52153 3.11009,-4.4403 11.01438,-3.6157 13.83141,1.44292 1.83353,3.2925 1.83356,4.04082 2.9e-4,7.33333 -2.67632,4.80663 -9.27957,5.67883 -13.21312,1.74528 z m 31.92139,-5.41195 v -8 h 44 44 v 8 8 h -44 -44 z M 402.07561,390.37 c -2.86613,-4.09197 -2.60181,-6.74413 1.01034,-10.13757 3.84942,-3.61635 8.11126,-3.70188 11.58073,-0.23242 5.28348,5.28348 1.66105,13.33334 -6,13.33334 -3.15465,0 -5.14097,-0.89306 -6.59107,-2.96335 z m 32.85787,-4.70332 0.39987,-7.66667 43.66667,-0.35154 43.66666,-0.35156 v 8.01822 8.01822 H 478.60015 434.5336 Z m -32.03439,-31.41927 c -3.43728,-3.65882 -3.62676,-5.94846 -0.82348,-9.95072 4.12399,-5.88781 15.25774,-2.54872 15.25774,4.5759 0,3.36946 -5.32764,8.46076 -8.85352,8.46076 -1.47491,0 -3.98623,-1.38867 -5.58074,-3.08594 z m 32.65649,2.19704 c -0.4889,-0.48888 -0.8889,-4.0726 -0.8889,-7.96381 v -7.07492 l 42.6734,-0.36952 c 23.47036,-0.20324 43.27036,-0.16952 44,0.0749 0.72963,0.24446 1.3266,3.99446 1.3266,8.33334 v 7.88889 h -43.1111 c -23.71112,0 -43.51112,-0.4 -44,-0.88889 z m -176.22224,-26.6398 c -31.85897,-8.33023 -52.9408,-27.55749 -64.292,-58.63628 -3.44536,-9.43317 -3.40984,-42.32914 0.056,-51.83503 10.11731,-27.74937 28.49003,-46.11615 56.2635,-56.24531 8.38132,-3.05672 42.47032,-3.49882 49.97253,-0.64809 31.85921,12.106 51.82299,33.03885 59.2952,62.17353 2.89118,11.27284 2.6701,32.52931 -0.45128,43.39078 -8.05438,28.02696 -27.54103,48.55759 -56.43177,59.45509 -5.7491,2.16854 -38.47814,3.8969 -44.41215,2.34531 z m 46.47143,-24.32179 c 16.41021,-7.97485 28.0059,-20.52449 34.63356,-37.48285 3.06947,-7.85388 4.24698,-25.27033 2.38886,-35.33334 -4.75384,-25.74541 -27.08177,-48.07333 -52.82718,-52.82717 -10.00864,-1.84808 -27.43377,-0.68733 -35.33333,2.35368 -9.30067,3.58037 -23.02445,12.85264 -27.53417,18.60304 -9.94001,12.67464 -13.23396,19.99303 -15.72578,34.93909 -2.76494,16.58423 0.56217,31.2557 10.64282,46.93137 6.38882,9.93477 9.10055,12.598 19.28379,18.93892 13.8916,8.65005 21.26586,10.41124 40.47143,9.66577 12.06575,-0.46833 14.02468,-0.9408 24,-5.78851 z"
     style="fill:#d2d2d2;stroke-width:1.33333337" />
  <path
     inkscape:connector-curvature="0"
     id="path42"
     d="m 301.33334,643.85545 c -11.91361,-1.89453 -36.3487,-6.66252 -40.66666,-7.93524 C 203.05501,618.93915 160.04993,593.58547 121.24201,553.72225 112.8237,545.07502 102.0085,532.90002 97.208229,526.66669 71.047629,492.69616 51.039136,450.25882 41.887535,409.33335 30.909446,360.23993 32.189125,305.01817 45.36355,259.33334 c 11.77528,-40.83303 30.322125,-76.60845 56.67011,-109.31225 11.93269,-14.81118 36.16084,-38.48494 51.29968,-50.125877 22.11056,-17.001795 55.03601,-35.403379 77.33333,-43.220531 5.5,-1.928229 12.70001,-4.455052 16.00001,-5.615163 11.1389,-3.915868 26.76888,-7.476756 48.66666,-11.087447 12.26654,-2.022609 22.378,-2.638215 43.33334,-2.638215 27.41031,0 43.75724,1.741288 68,7.243411 16.31479,3.702795 15.43667,3.436476 40,12.131301 22.9355,8.118608 55.25487,26.160329 77.33334,43.169956 15.22191,11.727225 39.40305,35.376105 51.40501,50.273535 29.4973,36.61347 50.16442,79.01468 60.04079,123.18128 9.9507,44.49896 9.94643,91.74574 -0.012,136.00001 -4.69277,20.8536 -10.58368,38.01435 -20.82188,60.65601 -22.52749,49.81934 -66.13203,99.02907 -114.8564,129.62078 -22.91958,14.39011 -57.05908,29.50799 -79.75525,35.31774 -31.68056,8.10956 -50.35384,10.42474 -82.66666,10.24934 -15.76667,-0.0856 -31.96667,-0.68038 -36.00001,-1.32177 z m 69.37315,-13.87688 c 48.73534,-5.92512 89.62373,-20.93324 129.29353,-47.45732 C 589.99171,522.35086 639.6142,416.14027 627.32806,309.99184 617.28049,223.18405 571.72217,148.10042 500.00002,100.14544 420.52409,47.006127 322.0294,36.164661 233.20837,70.779269 168.46699,96.009747 113.89157,144.93121 81.452675,206.81321 c -44.39106,84.68252 -44.39106,184.35775 0,269.04027 39.875595,76.06862 111.821635,130.98169 195.880665,149.50661 28.29939,6.23661 65.09407,8.05659 93.37315,4.61848 z m 5.74231,-140.72551 c -9.35949,-5.99584 -9.04331,-3.86754 -9.78212,-65.84605 l -0.66667,-55.92633 -4.05394,-2.36656 c -9.75682,-5.69572 -19.93343,-6.44744 -87.28382,-6.44744 -53.38818,0 -65.31594,0.34391 -72.91284,2.10224 -17.96202,4.15739 -32.89944,14.16313 -42.04348,28.1626 -11.19438,17.13849 -13.03926,26.4738 -13.03926,65.98004 v 29.08846 H 138 129.33334 v -34.14088 c 0,-38.51645 0.74137,-43.38993 9.30885,-61.19246 9.23575,-19.19115 26.55259,-34.64051 48.02448,-42.84543 l 10,-3.82124 74.42759,-0.38628 c 75.93845,-0.39412 77.57711,-0.3148 93.23909,4.51335 2.19184,0.67568 2.33333,-2.14443 2.33333,-46.50671 0,-46.94872 0.0179,-47.25248 3.03943,-51.73621 1.67169,-2.48062 5.42169,-5.85947 8.33333,-7.50858 l 5.29391,-2.99837 77.70949,-0.022 c 63.05667,-0.0179 78.51851,0.32422 82.00001,1.81385 5.47482,2.34252 10.83814,8.23231 12.77576,14.02984 1.08112,3.23492 1.51474,35.52298 1.51474,112.79037 v 108.25799 l -3.0993,5.87638 c -1.70463,3.232 -5.09336,7.22638 -7.53052,8.87638 l -4.4312,3 -80.80282,-0.0224 c -78.85908,-0.0219 -80.9043,-0.0875 -85.02071,-2.7245 z m 160.72927,-16.39927 c 1.09602,-1.32061 1.41188,-30.91884 1.16326,-109 l -0.34131,-107.18711 -75.18324,-0.34452 c -54.41729,-0.24936 -75.68505,0.072 -77.00001,1.16326 -2.51329,2.08586 -2.72544,213.07258 -0.21676,215.58126 2.49623,2.49623 149.50105,2.28975 151.57806,-0.21289 z M 403.54,425.56169 c -4.54125,-5.01802 -1.16557,-13.56168 5.35835,-13.56168 2.80605,0 6.13184,3.06995 7.49116,6.91491 1.09946,3.10988 -3.90754,9.08509 -7.61295,9.08509 -1.66645,0 -4.02291,-1.09724 -5.23656,-2.43832 z m 31.6745,0.60938 c -0.39383,-1.02628 -0.5282,-4.48462 -0.2986,-7.68519 l 0.41745,-5.8192 h 43.33333 43.33334 v 7.33333 7.33334 l -43.03475,0.35185 c -35.88441,0.29339 -43.15371,0.0419 -43.75077,-1.51413 z M 403.54,390.89503 c -4.54125,-5.01803 -1.16557,-13.56168 5.35835,-13.56168 6.03908,0 9.44676,9.46444 5.00642,13.90476 -2.80977,2.80978 -7.65666,2.64934 -10.36477,-0.34308 z m 31.66739,0.59085 c -0.38992,-1.01609 -0.52109,-4.46609 -0.29149,-7.66667 l 0.41745,-5.8192 h 43.33333 43.33334 l 0.39986,7.66667 0.39988,7.66667 h -43.44172 c -35.79072,0 -43.56657,-0.32538 -44.15065,-1.84747 z m -30.9107,-36.22813 c -6.02298,-4.21867 -2.63177,-13.9244 4.86523,-13.9244 4.79829,0 6.83809,2.24453 6.83809,7.5244 0,4.17224 -3.72338,8.4756 -7.33333,8.4756 -0.77365,0 -2.74016,-0.93403 -4.36999,-2.0756 z m 30.91781,0.24665 c -0.39383,-1.02628 -0.5282,-4.48461 -0.2986,-7.68519 l 0.41745,-5.8192 43.73375,-0.35164 43.73376,-0.35164 -0.40043,7.68498 -0.40041,7.68497 -43.03475,0.35185 c -35.88441,0.29339 -43.15371,0.0419 -43.75077,-1.51413 z M 256.00001,328.15702 c -16.34884,-4.43154 -26.3514,-10.29473 -38.80328,-22.74529 -12.3953,-12.39397 -19.06214,-23.73939 -23.12804,-39.35852 -2.64588,-10.16411 -2.67571,-31.16242 -0.0585,-41.21043 9.91042,-38.04864 44.23946,-64.84277 83.07753,-64.84277 29.27534,0 55.85512,14.37766 71.48252,38.66666 9.93991,15.44919 14.09648,29.20959 14.09648,46.66667 0,38.84652 -25.39708,71.81787 -63.77314,82.79244 -11.4609,3.27752 -30.86524,3.29167 -42.89353,0.0312 z m 36.55275,-17.46121 c 13.70898,-3.50616 22.36153,-8.36608 32.09893,-18.02913 13.09179,-12.99184 19.40711,-28.09903 19.50828,-46.66667 0.1032,-18.93099 -6.38434,-34.92571 -19.47597,-48.01732 -9.79395,-9.79396 -21.63862,-15.93832 -36.05451,-18.70311 -36.35532,-6.97251 -71.49296,18.23061 -77.93679,55.9016 -5.82591,34.0586 17.8956,68.51208 52.37648,76.07239 11.70312,2.56604 17.71427,2.45232 29.48358,-0.55776 z"
     style="fill:#b1b1b1;stroke-width:1.33333337" />
  <path
     inkscape:connector-curvature="0"
     id="path40"
     d="M 305.33334,643.76654 C 265.44325,638.11892 238.07909,630.15956 206.88762,615.13179 175.0585,599.79682 149.67618,581.70969 123.94174,556.02558 98.453058,530.58674 80.306927,505.12246 64.871964,473.13358 24.664693,389.8042 24.652028,292.66582 64.837596,209.55429 80.327019,177.51917 98.481279,152.05179 123.94174,126.64112 149.67618,100.957 175.0585,82.869867 206.88762,67.534898 272.34349,35.998876 345.2432,28.968853 416.66668,47.305028 c 23.24186,5.966759 60.21247,21.742026 80.4669,34.335016 30.29484,18.835526 64.09156,49.698346 84.34899,77.026626 15.05529,20.31036 20.73386,29.62799 31.01318,50.88762 40.18558,83.11153 40.17291,180.24991 -0.0344,263.57929 -15.43496,31.98888 -33.58109,57.45316 -59.06977,82.892 -25.72101,25.67071 -51.04699,43.72115 -82.92471,59.10248 -42.70999,20.608 -86.25099,30.38946 -133.69899,30.0354 -12.52231,-0.0934 -26.66787,-0.72206 -31.43454,-1.39692 z m 79.64894,-15.0333 c 69.47555,-12.03389 129.41366,-45.86238 174.50382,-98.48831 34.77477,-40.58657 55.73907,-85.07646 66.08547,-140.24492 2.59499,-13.8368 3.00068,-20.41652 3.00068,-48.66666 0,-34.47162 -1.66139,-48.69877 -8.71927,-74.66667 C 591.99958,164.18626 511.51866,84.717052 410.00001,59.451746 c -28.4425,-7.078587 -36.62614,-7.99591 -71.33333,-7.99591 -34.70719,0 -42.89083,0.917323 -71.33334,7.99591 -94.89699,23.61735 -172.521585,95.470184 -204.414142,189.214934 -4.406596,12.95272 -7.955897,26.93361 -11.17019,44 -2.611669,13.86674 -3.013448,20.3554 -3.013448,48.66667 0,34.4717 1.650575,48.56496 8.744821,74.66666 25.763413,94.79079 95.233749,168.90516 188.519629,201.12201 17.30287,5.97566 41.18705,11.1634 64.66667,14.04588 10.74597,1.31924 62.41605,-0.37353 74.3156,-2.43466 z m -7.66249,-139.73322 c -2.42435,-1.65 -5.66308,-4.69328 -7.19718,-6.76286 -2.71082,-3.65702 -2.79982,-5.33465 -3.16458,-59.65413 l -0.37531,-55.89128 -3.62469,-1.84354 c -1.99358,-1.01394 -7.56302,-2.81958 -12.37654,-4.01253 -12.41633,-3.07717 -137.32607,-3.21149 -150.26184,-0.16157 -25.47279,6.00581 -45.63974,26.17276 -51.64555,51.64554 -1.44249,6.11814 -1.97327,16.81993 -1.98772,40.07733 l -0.0197,31.73028 -8.33333,-0.39695 L 130,483.33335 129.63971,452.00002 c -0.41365,-35.9727 0.86362,-45.24413 8.43747,-61.24609 11.29413,-23.86213 33.39697,-41.62062 58.85271,-47.28513 8.12413,-1.80781 20.09168,-2.13191 78,-2.11231 68.06968,0.0231 73.52415,0.31484 88.73679,4.74714 l 3,0.87406 V 300.606 254.2343 l 3.31449,-5.65574 c 2.21006,-3.77118 5.23818,-6.587 9.08763,-8.45048 5.6582,-2.7391 7.29784,-2.79415 82.35218,-2.76546 72.34689,0.0276 76.88733,0.16925 82.15752,2.562 3.34585,1.51907 6.95675,4.6154 9.02223,7.73656 l 3.44374,5.20386 -0.35556,113.28787 -0.35556,113.28787 -3.33333,4.13597 c -7.01932,8.70952 -3.92071,8.42327 -91.18139,8.42327 h -79.09092 z m 161.0215,-122.85383 c 0.24861,-78.57415 -0.0672,-108.34598 -1.16327,-109.66667 -2.07696,-2.5026 -149.08183,-2.70902 -151.57801,-0.21284 -1.21798,1.21798 -1.6,27.26913 -1.6,109.11111 0,59.13112 0.40487,107.91599 0.89971,108.41083 0.49484,0.49484 35.14484,0.74484 77,0.55554 l 76.1003,-0.34414 z m -134.0446,59.77822 c -3.69977,-2.59142 -3.83492,-7.71949 -0.29668,-11.25773 3.20923,-3.20923 5.12024,-3.33423 9.03666,-0.59107 1.89848,1.32975 2.96334,3.45867 2.96334,5.9244 0,3.69548 -3.94581,8 -7.33333,8 -0.77365,0 -2.74016,-0.93402 -4.36999,-2.0756 z m 31.70333,-5.9244 v -8.03694 l 42.93372,0.35181 42.93372,0.3518 v 7.33333 7.33334 l -42.93372,0.3518 -42.93372,0.35181 z M 403.54,390.89503 c -2.96707,-3.27858 -2.78239,-7.65262 0.46001,-10.89502 3.20923,-3.20922 5.12024,-3.33422 9.03666,-0.59106 5.6749,3.97485 2.38682,13.9244 -4.60166,13.9244 -1.4786,0 -3.68136,-1.09724 -4.89501,-2.43832 z m 32.72626,-5.20979 0.40042,-7.68523 h 42.6 42.6 l 3.9e-4,7.33334 3.9e-4,7.33333 -43.00082,0.35189 -43.00081,0.3519 z M 403.54,353.56169 c -2.89493,-3.19885 -2.80064,-7.27749 0.23167,-10.02169 4.80056,-4.34445 12.22834,-1.02199 12.22834,5.46976 0,6.29947 -8.17557,9.28619 -12.46001,4.55193 z m 32.46002,-4.89501 v -7.37028 l 42.97501,0.35181 42.97501,0.3518 -0.13776,6.66667 -0.13774,6.66667 -42.83727,0.3518 -42.83725,0.35181 z M 258.66668,328.50666 c -4.76667,-1.04073 -13.76667,-4.40884 -20,-7.48468 -33.97683,-16.76585 -53.07103,-57.00281 -44.57829,-93.93924 10.5189,-45.74853 56.01611,-75.00423 100.98174,-64.93343 33.2982,7.45768 58.61795,33.11918 65.44335,66.32664 2.72789,13.27203 2.72235,22.48535 -0.0208,34.59418 -10.55605,46.59584 -55.58474,75.53268 -101.82595,65.43653 z m 33.80754,-17.21708 c 4.50584,-1.12405 11.49246,-3.64634 15.52579,-5.60508 9.74168,-4.73092 24.9648,-20.07196 29.6879,-29.91789 13.27164,-27.66651 8.48698,-56.31651 -12.99217,-77.79567 -27.38553,-27.38552 -67.21324,-27.38552 -94.79027,0 -18.20582,18.0794 -24.41197,40.25046 -18.05002,64.48259 9.24906,35.22897 45.97767,57.47789 80.61877,48.83605 z"
     style="fill:#8e8e8e;stroke-width:1.33333337" />
  <path
     inkscape:connector-curvature="0"
     id="path38"
     d="m 317.33253,644.89642 c -0.36711,-0.37168 -6.66711,-1.33856 -14,-2.1486 -56.238,-6.21248 -110.44564,-29.15379 -156.66586,-66.30287 C 113.64419,549.90345 85.864367,514.64123 65.959822,474.00002 44.883482,430.96623 35.333335,389.59725 35.333335,341.33335 c 0,-48.26391 9.550147,-89.63289 30.626487,-132.66668 C 90.763058,158.02329 124.84721,119.15444 171.86542,87.894191 252.29701,34.418909 354.53845,23.042331 446.21059,57.367342 543.05881,93.630441 615.80275,179.71763 636.58924,282.66668 c 5.54489,27.4621 7.1173,67.24936 3.71494,94 -10.89168,85.6344 -53.72047,158.88301 -122.6092,209.69427 -41.01154,30.24947 -89.34134,49.48989 -141.69497,56.40969 -12.1362,1.60409 -57.55721,3.2499 -58.66748,2.12578 z m 46.63866,-13.61277 c 14.1015,-0.78828 41.48572,-5.61044 53.9409,-9.49859 23.64362,-7.38085 33.45481,-11.24331 50.51586,-19.88696 31.55,-15.98419 54.55277,-32.90525 78.98806,-58.10439 24.26657,-25.02515 37.10938,-43.25512 53.01812,-75.25756 14.60902,-29.38789 23.38684,-59.01442 27.56169,-93.02507 1.76504,-14.37891 1.83014,-53.56002 0.11334,-68.17774 -5.42507,-46.19046 -22.52026,-91.49533 -49.30533,-130.66667 -17.72197,-25.91712 -46.63732,-55.3514 -71.47048,-72.75308 -23.77475,-16.66002 -52.44809,-31.196929 -77.33333,-39.206733 -15.49327,-4.986808 -20.36343,-6.246056 -36.13974,-9.344424 -41.58592,-8.167214 -98.01284,-5.856913 -134.3872,5.50225 -23.72529,7.409047 -33.49618,11.254958 -50.56767,19.903902 -31.55,15.984193 -54.55278,32.905265 -78.98806,58.104395 -14.50183,14.95517 -21.6862,23.60579 -31.387789,37.79369 -26.785069,39.17134 -43.880254,84.47621 -49.305315,130.66667 -1.71685,14.61772 -1.651746,53.79883 0.11328,68.17774 4.174856,34.01065 12.952676,63.63718 27.561694,93.02507 15.908742,32.00244 28.75156,50.23241 53.01813,75.25756 24.43528,25.19914 47.43805,42.1202 78.98805,58.10439 17.0715,8.64895 26.84239,12.49485 50.56767,19.90391 20.52977,6.41113 62.28363,11.82773 82.52694,10.70596 4.4,-0.24383 14.28702,-0.79477 21.97117,-1.22432 z m 14.12885,-142.30557 c -3.26251,-1.85657 -6.40073,-5.19102 -8.33333,-8.85444 -3.09572,-5.86822 -3.10003,-5.95088 -3.10003,-59.51332 v -53.63695 l -3,-1.9192 c -1.65,-1.05556 -6.63936,-2.92456 -11.08747,-4.15334 -7.08633,-1.95759 -16.66602,-2.23415 -77.38655,-2.23415 -57.95881,0 -70.58315,0.33447 -77.14604,2.04388 -21.09841,5.49544 -40.25084,23.26584 -47.87249,44.41809 -2.38555,6.62056 -2.80487,11.83854 -3.44514,42.87137 l -0.72898,35.33333 H 138 130 l 0.0317,-34 c 0.026,-27.86672 0.44329,-35.50844 2.31312,-42.36211 6.89098,-25.2582 23.02901,-45.17879 45.48088,-56.14105 18.56648,-9.0652 23.04795,-9.50108 97.31687,-9.46511 58.69215,0.0284 66.63621,0.28653 76.19072,2.4756 5.86667,1.34412 11.71667,2.89404 13,3.44425 2.19645,0.9417 2.33333,-1.69692 2.33333,-44.97944 0,-50.57264 0.2265,-52.22656 8.05399,-58.81296 2.28335,-1.92132 5.45529,-3.81363 7.04877,-4.20512 1.59348,-0.39151 38.71422,-0.54133 82.49051,-0.33295 l 79.59329,0.37888 4.6508,4.50839 c 2.55794,2.4796 5.30138,6.0796 6.09653,8 1.00929,2.43759 1.33812,37.13179 1.08925,114.92922 l -0.35646,111.4376 -3.84243,5.03721 c -6.87079,9.0072 -4.27556,8.75664 -90.44808,8.73232 l -77.70949,-0.0219 z m 160.29998,-15.9114 c 2.11795,-2.11794 2.33153,-211.8751 0.21976,-215.82099 -1.33951,-2.50288 -3.59477,-2.57901 -76.4,-2.57901 -56.57093,0 -75.41323,0.39346 -76.61977,1.6 -1.21798,1.21798 -1.6,27.26913 -1.6,109.11111 0,59.13112 0.4,107.91112 0.8889,108.4 0.48888,0.48889 34.86888,0.88889 76.4,0.88889 56.95308,0 75.90434,-0.39322 77.11111,-1.6 z M 403.54,424.22836 c -2.86807,-3.16917 -2.79392,-5.95025 0.23167,-8.68836 3.19885,-2.89493 7.27749,-2.80064 10.02169,0.23167 2.77129,3.06224 2.80977,6.10142 0.11147,8.79977 -2.80978,2.80979 -7.65667,2.64935 -10.36478,-0.34308 z m 32.46002,-4.22835 v -6.66666 h 42.66666 42.66667 v 6.66666 6.66667 h -42.66667 -42.66666 z m -31.74859,-29.38528 c -3.55758,-3.31438 -3.72927,-6.80064 -0.47976,-9.7414 3.19885,-2.89493 7.27749,-2.80064 10.02169,0.23167 2.93248,3.24035 2.78445,6.31721 -0.46001,9.56168 -3.37287,3.37287 -5.41838,3.36117 -9.08192,-0.052 z m 31.74859,-4.61472 v -7.33333 h 42.66666 42.66667 v 7.33333 7.33334 h -42.66667 -42.66666 z m -32.61805,-32.61294 c -3.08369,-3.40743 -1.76425,-8.96628 2.6002,-10.95487 7.09635,-3.23331 13.34938,6.13952 7.57952,11.36116 -3.25729,2.94781 -7.28997,2.78685 -10.17972,-0.40629 z m 32.61805,-4.72039 v -7.33333 h 42.66666 42.66667 v 7.33333 7.33333 h -42.66667 -42.66666 z m -174.95684,-20.0953 c -34.68168,-6.90805 -61.41627,-34.96032 -67.53057,-70.859 -1.91678,-11.2539 -1.90926,-13.34918 0.0893,-24.90656 3.39864,-19.65325 10.30425,-33.05488 24.18515,-46.93577 8.57341,-8.57342 13.41958,-12.2186 21.01159,-15.80447 13.49376,-6.37339 25.09561,-9.11885 38.53464,-9.11885 23.1829,0 42.44993,8.1006 59.45811,24.99848 16.78081,16.67198 24.9285,36.08254 24.9285,59.38813 0,23.25296 -8.1262,42.64276 -24.9285,59.48155 -12.87187,12.89983 -27.03453,20.53993 -44.14458,23.81401 -12.49496,2.39096 -19.37403,2.37844 -31.60369,-0.0575 z m 33.71483,-17.38796 c 17.80531,-5.28581 31.99785,-15.94864 40.59936,-30.50221 23.38915,-39.57395 3.51106,-88.46786 -41.21667,-101.38022 -10.68021,-3.08324 -29.1875,-2.17986 -39.85922,1.9456 -18.61695,7.19692 -33.03163,21.14028 -40.26415,38.9476 -3.61878,8.90984 -3.98358,11.20686 -3.99251,25.13915 -0.0133,20.60008 3.79873,31.11656 16.50549,45.53574 16.14882,18.32506 45.49542,27.06282 68.2277,20.31434 z"
     style="fill:#6f6f6f;stroke-width:1.33333337" />
  <path
     inkscape:connector-curvature="0"
     id="path36"
     d="m 314.66668,643.80953 c -44.12115,-5.86767 -63.41846,-10.58588 -93.33334,-22.82007 -21.41269,-8.75707 -50.03847,-25.67601 -72,-42.55477 -10.09467,-7.75838 -39.28638,-37.09763 -48.19108,-48.43467 -87.515006,-111.41994 -87.515006,-265.91341 0,-377.33335 8.9047,-11.33704 38.09641,-40.67629 48.19108,-48.43466 43.96587,-33.790433 91.27776,-54.476908 142,-62.08755 42.56426,-6.386571 52.10242,-6.386571 94.66667,0 50.50833,7.578544 98.21957,28.439625 142.00001,62.08755 10.09467,7.75837 39.28639,37.09762 48.19108,48.43466 21.69325,27.61883 38.51287,58.62118 49.55078,91.33334 7.61149,22.55753 11.2461,40.06039 15.51954,74.73587 2.53114,20.53803 1.82267,35.08448 -3.40585,69.9308 -7.63452,50.88132 -28.89796,99.61658 -61.66447,141.33334 -8.95847,11.40549 -38.16661,40.74195 -48.19108,48.40279 -44.98071,34.37488 -90.8629,54.44653 -142.00001,62.11943 -33.59245,5.04038 -51.83116,5.88089 -71.33333,3.28729 z m 52,-11.88336 c 25.54263,-3.17912 43.77577,-7.10403 64.36999,-13.85643 70.78637,-23.20931 133.79627,-77.80941 168.14995,-145.70735 41.71888,-82.45479 41.71888,-179.6033 0,-262.05809 -27.74285,-54.83207 -74.704,-101.79121 -129.4909,-129.485385 -82.6512,-41.779279 -179.40688,-41.779279 -262.05809,0 C 146.08949,111.93083 94.331539,167.75231 68.698069,230.66667 54.567502,265.3485 46.663266,305.04641 46.663266,341.33335 c 0,36.28693 7.904236,75.98484 22.034803,110.66667 25.63347,62.91436 77.391421,118.73584 138.939561,149.84776 31.95711,16.15396 60.08259,24.44854 101.69571,29.99139 12.57671,1.67521 44.18751,1.72317 57.33334,0.0869 z m 15.33333,-141.52845 c -6.29096,-2.18886 -12.25669,-8.69342 -13.87773,-15.13118 -0.92797,-3.68531 -1.4556,-24.59298 -1.4556,-57.67918 v -51.89848 l -6.75245,-2.80619 c -12.10875,-5.03217 -25.03944,-5.7642 -92.6735,-5.2464 -60.79496,0.46544 -64.297,0.62558 -71.90739,3.2882 -17.79241,6.225 -30.17081,15.97507 -38.66667,30.45652 -9.40345,16.02848 -9.8127,18.38003 -9.9118,56.95234 l -0.0882,34.33333 h -8.10988 -8.10987 l 0.58482,-37 c 0.52151,-32.995 0.87867,-37.80513 3.29956,-44.43821 4.71298,-12.91324 9.45793,-21.11286 18.33537,-31.68488 4.05632,-4.8306 16.53347,-14.10538 24,-17.84015 19.51682,-9.76236 29.85495,-10.74855 105.33334,-10.04809 62.13702,0.57665 70.90756,1.18238 82.26851,5.6818 2.10508,0.83369 2.2972,-2.44812 2.66667,-45.5527 0.44198,-51.56392 0.69762,-53.15396 9.56254,-59.47736 l 4.16895,-2.97375 h 80.66667 80.66667 l 4.36352,3.11228 c 2.39993,1.71176 5.54993,5.43787 7,8.28023 2.56288,5.02365 2.63648,8.21584 2.63648,114.34467 v 109.17674 l -3.05833,5.87638 c -2.17308,4.17542 -4.7635,6.74475 -8.94919,8.87638 l -5.89085,3 -76.05082,-0.10534 c -49.11014,-0.068 -77.4678,-0.59828 -80.05082,-1.49702 z m 156.40001,-15.9977 c 2.50884,-2.50884 2.29676,-216.1619 -0.21665,-218.24784 -1.31512,-1.09146 -22.75637,-1.4126 -77.66667,-1.16326 l -75.85002,0.34442 -0.34121,108.52057 c -0.2486,79.06712 0.0671,109.01255 1.16325,110.33333 2.07711,2.50275 150.41491,2.70916 152.9113,0.21278 z M 403.21073,423.33335 c -2.02321,-3.08783 -2.02321,-3.57884 0,-6.66667 2.59668,-3.96304 7.43574,-4.37229 10.58263,-0.89501 2.86807,3.16917 2.79392,5.95025 -0.23167,8.68836 -3.5211,3.18656 -7.83229,2.71729 -10.35096,-1.12668 z m 32.78929,-3.33334 v -6.66666 h 42.66666 42.66667 v 6.66666 6.66667 h -42.66667 -42.66666 z m -32.78929,-31.33333 c -2.02682,-3.09335 -2.02304,-3.57912 0.0528,-6.74717 2.95024,-4.50264 8.52034,-4.01567 11.31691,0.98938 1.82327,3.26314 1.77976,3.81652 -0.49792,6.33334 -3.41027,3.7683 -8.19139,3.51518 -10.87175,-0.57555 z m 32.78929,-3.33333 v -6.66667 h 42.66666 42.66667 v 6.66667 6.66666 H 478.66668 436.00002 Z M 405.6514,355.11188 c -2.99873,-1.20811 -4.54203,-5.53533 -3.00108,-8.41464 2.52519,-4.71835 5.99533,-5.62196 9.87387,-2.57111 4.1688,3.27919 4.37628,5.6401 0.80916,9.20722 -2.65202,2.65201 -4.4694,3.07277 -7.68195,1.77853 z m 30.61227,-6.11187 0.40301,-7 h 42 42 l 0.40302,7 0.40301,7 H 478.66668 435.86066 Z M 262.66668,328.54856 c -26.80641,-4.76012 -51.41351,-23.93915 -62.28885,-48.54855 -4.2772,-9.67869 -4.57653,-10.77023 -6.30752,-23 -1.31282,-9.27539 -1.31282,-14.05795 0,-23.33334 0.9082,-6.41666 2.10235,-12.86666 2.65364,-14.33333 10.71483,-28.50552 29.00691,-45.85232 58.60939,-55.58063 3.3712,-1.10788 11.71028,-1.72072 22.66667,-1.66574 15.63584,0.0784 18.31265,0.45493 27.33333,3.84448 26.83667,10.08398 45.95189,30.60704 53.46423,57.40189 2.64596,9.43753 2.41084,36.65103 -0.39317,45.50699 -8.66145,27.3556 -27.43044,46.73008 -55.07106,56.84765 -6.54594,2.39608 -32.85909,4.247 -40.66666,2.86058 z m 42.66666,-20.87818 c 25.62891,-12.44894 40.00001,-34.84522 40.00001,-62.33704 0,-27.46612 -14.2701,-49.72979 -40.00001,-62.40649 l -10,-4.92684 h -18 -18 l -10.34317,5.05484 c -15.098,7.37858 -25.92032,18.0213 -33.20286,32.65185 l -5.7873,11.62664 v 18 18 l 5.20997,10.66667 c 7.25464,14.85281 17.80248,25.59103 31.93586,32.51227 13.40482,6.56446 14.0043,6.67966 32.85417,6.31341 14.63263,-0.28431 15.79032,-0.51989 25.33333,-5.15531 z"
     style="fill:#4f4f4f;stroke-width:1.33333337" />
  <path
     inkscape:connector-curvature="0"
     id="path34"
     d="m 321.33334,643.73301 c -35.25317,-4.27833 -60.32685,-8.80312 -72,-12.99313 -23.11719,-8.29776 -36.26211,-13.70915 -47.79293,-19.67497 C 160.70773,589.93893 127.84261,562.85281 100.3387,527.65853 68.129962,486.4439 47.741602,439.25911 39.9928,388.00001 c -4.672844,-30.91133 -5.419121,-48.47032 -2.975085,-70 4.088661,-36.01728 7.698468,-53.02451 16.555608,-78 25.934756,-73.13119 78.528587,-132.73193 149.172927,-169.046772 10.61592,-5.45713 23.91242,-10.887499 46.58709,-19.02643 16.68907,-5.990434 67.37571,-13.847127 89.33334,-13.847127 23.34132,0 70.88563,7.573547 91.33334,14.548901 26.92716,9.185699 45.59318,17.836726 67.33333,31.206561 31.32894,19.266777 57.07016,42.265167 79.66131,71.173027 22.26323,28.48826 37.47569,57.17328 50.37679,94.99184 6.97535,20.44771 14.54889,67.99201 14.54889,91.33334 0,23.34132 -7.57354,70.88562 -14.54889,91.33333 -12.82276,37.58891 -28.24875,66.67658 -50.37679,94.99185 -37.64268,48.16794 -85.22415,81.30773 -146.99464,102.37959 -16.01342,5.46266 -42.27751,10.20124 -76.66667,13.83221 -15.44819,1.63108 -17.50096,1.62228 -32.00001,-0.13732 z m 58.66667,-12.80055 c 15.95043,-2.26889 46.56323,-9.72268 55.33334,-13.47289 1.46667,-0.62718 5.36667,-2.1943 8.66667,-3.48251 11.76069,-4.59097 29.28946,-12.58523 30.66666,-13.98597 0.36667,-0.37295 3.96667,-2.41083 8,-4.52863 4.03334,-2.11781 8.28058,-4.66323 9.43832,-5.65649 1.15775,-0.99327 2.75775,-1.80595 3.55556,-1.80595 0.79782,0 1.65056,-0.45 1.89502,-1 0.24444,-0.55 4.34444,-3.67188 9.1111,-6.93751 18.75787,-12.85096 44.44165,-36.75974 59.50843,-55.39582 13.08716,-16.18749 28.28043,-40.54495 37.42574,-60.00001 1.7236,-3.66666 3.71853,-7.70852 4.43316,-8.9819 0.71464,-1.27339 1.30304,-3.07339 1.30756,-4 0.004,-0.92662 0.80734,-3.21604 1.78405,-5.0876 5.10285,-9.778 14.30912,-44.18123 17.10775,-63.9305 2.15185,-15.18517 2.17645,-68.26884 0.0383,-82.66667 -3.03979,-20.46924 -12.1057,-54.27223 -17.14606,-63.9305 -0.97671,-1.87156 -1.77953,-4.16098 -1.78405,-5.0876 -0.004,-0.92661 -0.59292,-2.72661 -1.30756,-4 -0.71463,-1.27338 -2.70956,-5.31524 -4.43316,-8.9819 -9.14531,-19.45506 -24.33858,-43.81252 -37.42574,-60 -8.64394,-10.69174 -31.34677,-33.53424 -41.92994,-42.18796 -11.57123,-9.46164 -31.63614,-23.224113 -41.71038,-28.609048 -3.96077,-2.11713 -7.5014,-4.153903 -7.86807,-4.526163 -1.37628,-1.397277 -24.0993,-12.01017 -25.71469,-12.01017 -0.6686,0 -3.40631,-0.961176 -6.0838,-2.135947 -9.16439,-4.020938 -10.21716,-4.409492 -19.53484,-7.209767 -29.2013,-8.775969 -46.73795,-11.068552 -84.66667,-11.068552 -37.92872,0 -55.46538,2.292583 -84.66667,11.068552 -9.31768,2.800275 -10.37045,3.188829 -19.53484,7.209767 -2.6775,1.174771 -5.4152,2.135947 -6.0838,2.135947 -1.61539,0 -24.33842,10.612893 -25.7147,12.01017 -0.36666,0.37226 -3.90729,2.409033 -7.86806,4.526163 -10.07424,5.384935 -30.13915,19.147408 -41.71038,28.609048 -10.58317,8.65372 -33.286,31.49622 -41.92999,42.18796 -8.61284,10.6532 -22.278966,31.11793 -28.383048,42.50298 -3.097139,5.77664 -6.173272,11.47664 -6.835851,12.66667 -2.720006,4.88527 -7.939903,16.76 -7.947553,18.07988 -0.0045,0.77943 -0.807342,2.94841 -1.784051,4.81997 -4.898931,9.38726 -14.009573,43.08711 -17.103165,63.26383 -2.109018,13.75523 -2.112385,68.46797 -0.0051,83.33334 2.800049,19.75259 12.006027,54.15362 17.108292,63.9305 0.97671,1.87156 1.779534,4.16098 1.784051,5.0876 0.0045,0.92661 0.592919,2.72661 1.307556,4 0.714639,1.27338 2.709563,5.31524 4.433167,8.9819 9.145307,19.45506 24.338567,43.81252 37.425732,60.00001 15.06679,18.63608 40.75057,42.54486 59.50843,55.39582 4.76667,3.26563 8.86667,6.38751 9.11111,6.93751 0.24445,0.55 1.0972,1 1.89501,1 0.79782,0 2.39782,0.81268 3.55556,1.80595 1.15775,0.99326 5.40499,3.53868 9.43832,5.65649 4.03334,2.1178 7.63334,4.15513 8.00001,4.52739 1.37628,1.39728 24.0993,12.01017 25.71469,12.01017 0.6686,0 3.40631,0.96117 6.0838,2.13595 2.67749,1.17477 6.06817,2.6493 7.53484,3.27674 9.92063,4.24403 41.04109,11.69759 53.41259,12.79266 5.08975,0.45052 10.15408,1.33199 11.25408,1.9588 2.68883,1.53219 60.75981,0.55683 73.33333,-1.23171 z m -0.92145,-142.57207 c -2.34015,-1.2982 -5.64015,-4.14481 -7.33333,-6.32579 l -3.07855,-3.96541 -0.66667,-56.55442 -0.66666,-56.55441 -6.66667,-2.31061 c -3.66667,-1.27084 -8.80927,-2.98692 -11.428,-3.81351 -3.27908,-1.03503 -26.44555,-1.50289 -74.41614,-1.50289 -60.19152,0 -70.59457,0.29085 -76.572,2.14086 -13.57101,4.20023 -21.89299,8.98524 -31.85216,18.31452 -4.47241,4.18954 -14.39837,18.16954 -14.39837,20.27906 0,0.4744 -0.82463,2.75322 -1.83251,5.06405 -4.20411,9.63907 -4.83416,15.81115 -4.83416,47.3562 v 32.17864 h -7.46122 -7.46122 l 0.57631,-35.66666 c 0.52735,-32.63731 0.83063,-36.40278 3.57065,-44.33334 11.15321,-32.28119 35.14153,-52.90904 68.22583,-58.66823 5.84401,-1.0173 30.49097,-1.31636 77.88299,-0.94501 69.34103,0.54335 76.16788,0.99011 83.11617,5.43928 0.99571,0.63759 2.29832,0.62613 2.95038,-0.0259 0.64213,-0.64213 1.33985,-22.56679 1.55049,-48.72144 0.3688,-45.79591 0.48575,-47.693 3.16331,-51.31629 1.52918,-2.06932 5.12918,-5.06402 8,-6.65491 5.17788,-2.86936 5.82933,-2.89337 81.39016,-3 82.44322,-0.1164 81.55788,-0.18763 88.40494,7.11973 6.79278,7.24946 6.71632,5.89147 6.73781,119.66225 0.0191,101.03893 -0.10227,106.50473 -2.48589,112 -1.37828,3.17747 -4.12626,7.27721 -6.1066,9.11055 l -3.60064,3.33333 -80.22674,0.36037 c -74.66262,0.33538 -80.52182,0.19667 -84.48151,-2 z m 160.26303,-15.36037 c 0.39914,-1.65 0.56056,-51.30001 0.35874,-110.33334 l -0.36698,-107.33334 -76.5168,-0.34433 c -55.40332,-0.24932 -77.01803,0.0717 -78.33334,1.16327 -2.51329,2.08585 -2.72528,215.73899 -0.21653,218.24774 1.2072,1.2072 20.34991,1.6 77.9746,1.6 h 76.37461 z M 404.87333,424.22836 c -1.21366,-1.34108 -2.20665,-3.34808 -2.20665,-4.46001 0,-2.27378 4.1018,-6.435 6.34308,-6.435 2.31015,0 5.65692,3.94416 5.65692,6.66666 0,2.83978 -3.38025,6.66667 -5.88859,6.66667 -0.93396,0 -2.6911,-1.09724 -3.90476,-2.43832 z m 31.79335,-4.22835 v -6.66666 h 42.35783 42.35783 l -0.23596,6.66666 -0.23596,6.66667 h -42.12187 -42.12187 z m -31.66667,-29.44013 c -3.04114,-1.77131 -2.98568,-6.88953 0.10494,-9.68655 3.12484,-2.82794 4.629,-2.78056 7.35502,0.23167 2.96671,3.27817 2.78884,7.82295 -0.37236,9.51477 -3.15109,1.68642 -4.10325,1.67836 -7.08765,-0.0599 z m 31.66667,-5.22653 v -6.66667 h 42.15556 42.15555 v 6.66667 6.66666 h -42.15555 -42.15556 z m -31.79335,-31.77166 c -5.06737,-5.59937 -0.14974,-12.81589 6.62867,-9.72744 3.85275,1.75543 4.22045,6.797 0.72636,9.95911 -3.12484,2.82795 -4.629,2.78056 -7.35503,-0.23167 z m 32.33535,2.12399 c -0.0685,-0.19379 -0.23436,-3.20233 -0.36841,-6.68567 l -0.24375,-6.33333 h 42.44147 42.44147 l -0.40639,6.33333 -0.40639,6.33334 -41.66666,0.35233 c -22.91667,0.19377 -41.72278,0.19377 -41.79134,0 z M 263.33334,328.44412 c -2.93333,-0.34227 -5.90333,-1.18222 -6.6,-1.86655 -0.69666,-0.68432 -2.3964,-1.24423 -3.77718,-1.24423 -3.43939,0 -22.66117,-9.65233 -26.50177,-13.30801 -1.71658,-1.63393 -4.4901,-3.88955 -6.1634,-5.01248 -7.43802,-4.9916 -22.95765,-30.26329 -22.95765,-37.38356 0,-1.33611 -0.74516,-3.17444 -1.65592,-4.0852 -1.16033,-1.16033 -1.65591,-7.20891 -1.65591,-20.21075 0,-13.00184 0.49558,-19.05041 1.65591,-20.21075 0.91076,-0.91076 1.65592,-2.75298 1.65592,-4.09385 0,-4.49637 9.19071,-21.62144 15.62711,-29.11801 7.9049,-9.20696 16.16914,-15.80062 25.70623,-20.50983 4.03333,-1.99157 8.32798,-4.14204 9.54369,-4.7788 1.21569,-0.63676 7.18305,-2.16535 13.26079,-3.39687 15.23885,-3.08777 35.97684,-1.15508 46.4922,4.33288 1.85349,0.96735 3.84881,1.7625 4.43404,1.76702 2.32032,0.0179 16.63569,9.95813 22.76633,15.80834 5.74826,5.48532 18.16962,22.50678 18.16962,24.89851 0,0.49409 0.85824,2.78903 1.90718,5.09985 2.38151,5.24639 6.0929,23.52793 6.09259,30.01079 -3.2e-4,6.88915 -3.66589,25.32972 -6.13375,30.85739 -6.03352,13.51431 -8.80912,17.56499 -19.19936,28.01935 -11.08693,11.15536 -22.36949,18.26694 -33.01409,20.8093 -2.00892,0.47982 -4.31444,1.38996 -5.12338,2.02258 -1.71984,1.34494 -26.75597,2.49989 -34.5292,1.59288 z m 31.82644,-16.13146 c 23.41635,-6.52248 43.28861,-26.84202 49.39335,-50.5051 7.22579,-28.00841 -5.13565,-58.27239 -30.40373,-74.43619 -11.94292,-7.63979 -24.07066,-11.37136 -36.95735,-11.37136 -29.64693,0 -58.98771,22.32662 -66.66028,50.72461 -3.03539,11.23468 -3.01338,28.00259 0.0491,37.3311 7.43867,22.6593 23.09119,39.45978 42.75257,45.88805 4.03333,1.31869 8.53333,2.90072 10,3.51561 3.50386,1.46898 25.24856,0.68551 31.82644,-1.14672 z"
     style="fill:#353535;stroke-width:1.33333337" />
</svg>
