<?xml version="1.0" encoding="UTF-8" standalone="no"?>
<!-- Created with Inkscape (http://www.inkscape.org/) -->

<svg
   xmlns:dc="http://purl.org/dc/elements/1.1/"
   xmlns:cc="http://creativecommons.org/ns#"
   xmlns:rdf="http://www.w3.org/1999/02/22-rdf-syntax-ns#"
   xmlns:svg="http://www.w3.org/2000/svg"
   xmlns="http://www.w3.org/2000/svg"
   xmlns:xlink="http://www.w3.org/1999/xlink"
   xmlns:sodipodi="http://sodipodi.sourceforge.net/DTD/sodipodi-0.dtd"
   xmlns:inkscape="http://www.inkscape.org/namespaces/inkscape"
   version="1.1"
   id="svg118"
   width="666.66669"
   height="666.66669"
   viewBox="0 0 666.66669 666.66669"
   sodipodi:docname="haji.svg"
   inkscape:version="0.92.3 (2405546, 2018-03-11)">
  <metadata
     id="metadata124">
    <rdf:RDF>
      <cc:Work
         rdf:about="">
        <dc:format>image/svg+xml</dc:format>
        <dc:type
           rdf:resource="http://purl.org/dc/dcmitype/StillImage" />
        <dc:title></dc:title>
      </cc:Work>
    </rdf:RDF>
  </metadata>
  <defs
     id="defs122" />
  <sodipodi:namedview
     pagecolor="#ffffff"
     bordercolor="#666666"
     borderopacity="1"
     objecttolerance="10"
     gridtolerance="10"
     guidetolerance="10"
     inkscape:pageopacity="0"
     inkscape:pageshadow="2"
     inkscape:window-width="1366"
     inkscape:window-height="705"
     id="namedview120"
     showgrid="false"
     inkscape:zoom="0.35399999"
     inkscape:cx="333.33334"
     inkscape:cy="333.33334"
     inkscape:window-x="-8"
     inkscape:window-y="-8"
     inkscape:window-maximized="1"
     inkscape:current-layer="svg118" />
  <image
     sodipodi:absref="E:\Project-website\tanyabudi\public\assets\images\icon\haji.png"
     xlink:href="haji.png"
     y="0"
     x="0"
     id="image126"
     preserveAspectRatio="none"
     height="666.66669"
     width="666.66669" />
  <path
     inkscape:connector-curvature="0"
     id="path142"
     d="m 300.00001,639.31864 c -70.25518,-10.67802 -130.45512,-43.55693 -179.4071,-97.98529 -2.96796,-3.3 -9.39223,-11.57809 -14.27615,-18.39576 -27.416744,-38.2722 -43.733164,-75.96289 -53.220071,-122.93758 -2.801218,-13.8703 -3.096687,-18.89549 -3.096687,-52.66666 0,-39.58913 0.963304,-48.03411 8.897312,-78.00001 21.092671,-79.66475 78.533996,-149.8245 152.863266,-186.709614 21.72988,-10.783225 21.6544,-10.773015 25.23039,-3.412566 l 2.92309,6.016622 -18.95703,9.241668 c -38.66388,18.84888 -68.49328,42.66214 -96.30817,76.88428 -24.44348,30.0741 -44.709316,71.49868 -53.804508,109.97961 -9.925183,41.99255 -10.175401,86.70681 -0.720007,128.66667 2.334139,10.35812 10.350063,36.08743 13.50043,43.33334 6.38724,14.69077 11.914308,25.87804 17.456415,35.33333 l 6.25215,10.66667 0.35194,-66.66667 0.35194,-66.66667 14.31473,-5.10982 c 7.87309,-2.81042 16.41472,-5.91111 18.98139,-6.89044 2.56667,-0.97934 20.86667,-7.58211 40.66667,-14.67283 19.8,-7.09072 38.1,-13.70296 40.66666,-14.69387 2.56667,-0.99092 19.96667,-7.28189 38.66667,-13.97996 18.7,-6.69807 36.1,-12.98783 38.66667,-13.97724 24.82376,-9.56923 40.29483,-14.28556 44.30564,-13.50652 2.39858,0.46588 19.36103,6.28507 37.69436,12.93153 18.33334,6.64648 51.63334,18.68904 74.00001,26.76127 22.36666,8.07224 42.76666,15.47811 45.33333,16.45751 2.56667,0.9794 16.66667,6.11227 31.33334,11.40637 14.66666,5.29412 29.81114,10.78758 33.65438,12.20771 l 6.98772,2.58204 0.34562,66.90879 0.34561,66.9088 6.25215,-10.66667 c 5.5421,-9.45529 11.06917,-20.64256 17.45641,-35.33333 6.55529,-15.07728 14.01608,-42.89734 17.87869,-66.66667 3.14272,-19.33935 3.10358,-59.4124 -0.0775,-79.33334 -10.93882,-68.50192 -40.57182,-123.88823 -90.95411,-170 -16.45543,-15.06063 -38.97115,-30.42181 -59.88314,-40.854834 -8.0699,-4.026085 -15.36901,-8.030784 -16.22025,-8.89933 -2.4872,-2.537778 0.8094,-10.807569 4.51837,-11.334731 6.89768,-0.980374 46.46687,21.822821 68.8827,39.696185 47.97221,38.25086 85.08041,94.8424 100.58267,153.39271 7.934,29.9659 8.89731,38.41088 8.89731,78.00001 0,45.40988 -1.63312,55.97816 -14.93797,96.66667 -5.67782,17.3638 -21.69318,50.25368 -31.81333,65.33333 -49.07388,73.1232 -122.5094,119.30907 -207.67853,130.61543 -14.20578,1.88584 -62.97924,1.4862 -76.90352,-0.63014 z m 59.33334,-16.48195 c 41.01276,-4.57 75.70383,-13.72435 110.66667,-29.20298 18.73172,-8.29284 26.69193,-13.06652 26.29641,-15.76977 -0.20363,-1.39183 -0.94148,-9.43059 -1.63967,-17.86392 -0.69817,-8.43333 -1.88868,-19.83333 -2.64554,-25.33333 -0.75687,-5.5 -1.93831,-14.50001 -2.62543,-20.00001 -5.73277,-45.88738 -19.51001,-102.61784 -31.73299,-130.66667 -3.2981,-7.56836 -12.12604,-15.75402 -22.37578,-20.74788 -6.66778,-3.24864 -9.54985,-3.86117 -17.94367,-3.81357 -8.59958,0.0488 -11.40043,0.71584 -20,4.76337 -11.23838,5.28955 -22.90834,15.08711 -26.57919,22.31466 -5.11816,10.07714 -12.86543,36.8062 -19.36645,66.81676 -1.82688,8.43333 -3.91542,18.03333 -4.6412,21.33333 -0.72579,3.3 -2.31868,11.7 -3.53978,18.66667 -1.22108,6.96667 -2.64362,15.06667 -3.16121,18 -1.47288,8.34748 -2.52283,3.03237 -3.02895,-15.33333 -0.37538,-13.62163 -1.05038,-18.24495 -3.69455,-25.30524 -5.44893,-14.54946 -16.89641,-23.99164 -29.12201,-24.02066 -3.66787,-0.009 -10.05612,6.28244 -14.86667,14.64068 -4.84637,8.42051 -30.69088,34.0154 -45,44.5654 l -12.33333,9.09327 -0.009,10.8466 c -0.005,5.96564 -0.38169,14.78654 -0.83662,19.60199 l -0.82715,8.75537 24.5033,18.13074 c 27.04862,20.01422 30.50314,22.9213 30.50314,25.66944 0,1.03054 -1.35,3.43436 -3,5.34181 l -3,3.46809 -30.32549,-20.29048 c -16.67903,-11.15976 -30.77903,-19.83849 -31.33334,-19.28606 -0.5543,0.55241 -1.20957,7.50498 -1.45613,15.45014 l -0.44829,14.44575 6.44829,2.89737 c 9.16889,4.11982 33.35544,12.92592 40.4483,14.72688 10.88654,2.76423 40.55674,7.87613 46.66666,8.04023 3.3,0.0887 7.5,0.67358 9.33334,1.29987 3.65285,1.24785 23.90688,0.63301 40.66667,-1.23452 z m 48.92696,-161.59237 c -12.55416,-2.472 -23.55316,-10.70178 -27.76043,-20.77117 -1.06019,-2.53741 -1.8332,-9.09604 -1.8332,-15.55394 0,-9.11533 0.56971,-12.24584 3.10156,-17.04282 13.27413,-25.14984 57.62163,-23.92546 70.1412,1.93652 3.5427,7.31824 3.88727,25.40932 0.60798,31.91999 -5.1006,10.12664 -14.28544,16.75896 -26.91637,19.43617 -7.90161,1.67481 -9.18896,1.68039 -17.34074,0.0752 z M 552.00002,335.14575 c -9.16667,-3.31743 -18.76667,-6.83174 -21.33333,-7.80959 -2.56667,-0.97786 -11.86667,-4.28263 -20.66667,-7.34395 -8.8,-3.06131 -17.2,-6.08149 -18.66667,-6.71152 -1.46667,-0.63001 -7.76667,-2.91607 -14,-5.08009 -6.23333,-2.16403 -18.23333,-6.4083 -26.66667,-9.4317 -8.43333,-3.0234 -21.03333,-7.52516 -28,-10.00392 -33.87452,-12.05264 -51.297,-18.30477 -65.33333,-23.44514 -8.43334,-3.08846 -16.23334,-5.62463 -17.33334,-5.63594 -1.1,-0.0107 -11.6,3.42064 -23.33333,7.62652 -11.73334,4.2059 -24.03334,8.48086 -27.33334,9.49992 -3.3,1.01907 -7.2,2.39884 -8.66666,3.06618 -1.46667,0.66733 -8.66667,3.29901 -16,5.84816 -30.40449,10.56897 -46.0101,16.07028 -57.81949,20.38257 -6.86737,2.50768 -13.0767,4.55943 -13.79849,4.55943 -0.72179,0 -3.20303,0.83545 -5.51385,1.85654 -2.31083,1.02111 -10.20151,3.95199 -17.53484,6.51308 -36.03333,12.58428 -45.89422,16.04402 -52.45198,18.40299 -3.91526,1.40839 -7.66526,2.56072 -8.33334,2.56072 -1.38293,0 -1.46453,-51.68403 -0.0979,-62 L 110,271.33334 l 10.69902,-5.33333 c 5.88446,-2.93333 15.48446,-7.53936 21.33333,-10.23561 5.84888,-2.69626 16.03432,-7.41347 22.63432,-10.48272 13.7391,-6.38918 24.80446,-11.49837 35.33334,-16.31437 7.19085,-3.28916 15.30186,-7.06416 39.33333,-18.30637 6.6,-3.08756 15.6,-7.27992 20,-9.31635 43.19176,-19.99022 60.78227,-28.16549 73.46199,-34.14177 3.73743,-1.76155 7.71495,-3.20281 8.83894,-3.20281 1.12398,0 11.26609,4.4199 22.53801,9.82202 11.27192,5.40211 24.6944,11.78086 29.82773,14.175 14.65272,6.8339 29.42354,13.7861 45.33334,21.33711 8.06667,3.82855 19.16667,9.06813 24.66667,11.64352 5.5,2.57539 16,7.53544 23.33333,11.02235 7.33333,3.4869 17.83333,8.44696 23.33333,11.02235 14.55047,6.81328 37.59699,17.68136 51.00001,24.05013 l 11.66666,5.54371 v 34.35857 c 0,31.86327 -0.16945,34.35291 -2.33333,34.2806 -1.28333,-0.0429 -9.83333,-2.79221 -19,-6.10962 z M 294.56718,101.57296 c -3.68665,-1.591422 -19.9005,-16.644984 -19.9005,-18.476397 0,-2.26795 0.38958,-2.233634 10.45212,0.920641 14.30526,4.484231 29.47885,3.158912 34.6093,-3.022906 1.24294,-1.497651 -0.27737,-2.861194 -8.01554,-7.188975 -11.29919,-6.319382 -13.57091,-9.076583 -9.79104,-11.883413 3.7815,-2.808044 6.47313,-2.395284 13.7079,2.102099 13.68912,8.509623 32.61491,7.819503 53.60395,-1.954644 18.35939,-8.549574 31.14575,-10.789167 41.32955,-7.239072 4.28671,1.494349 7.91836,7.276165 5.81997,9.265739 -0.8498,0.805736 -51.5611,19.678607 -95.04955,35.373926 -8.52501,3.076742 -22.04888,4.139302 -26.76616,2.103002 z"
     style="fill:#b6abc7;stroke-width:1.33333337" />
  <path
     inkscape:connector-curvature="0"
     id="path140"
     d="M 312.66668,640.51529 C 269.5057,634.31953 245.38294,627.3468 214.00001,611.9955 136.64467,574.15631 79.969147,504.52074 58.581503,421.03729 c -5.982534,-23.35192 -8.151281,-39.75172 -8.865167,-67.03728 -0.88945,-33.99587 2.0893,-57.00289 11.738073,-90.66155 22.74003,-79.32605 81.220101,-147.78523 156.545601,-183.258729 15.82392,-7.452055 14.95438,-7.382947 17.9914,-1.42991 3.20237,6.277163 3.34471,8.016849 0.65592,8.016849 -1.11066,0 -9.63522,3.910217 -18.94348,8.689373 C 136.66604,136.96338 83.481531,208.68201 66.440036,299.33334 c -2.600095,13.83107 -3.004452,20.33787 -2.982903,48.00001 0.02623,33.66014 1.252196,44.11192 8.507355,72.52757 5.798191,22.70927 20.195522,56.63211 31.182742,73.47243 l 4.78452,7.33333 0.0341,-66.3026 0.0341,-66.30259 3,-1.88744 c 1.65,-1.03809 9,-4.02145 16.33334,-6.6297 14.24173,-5.06536 86.84724,-31.24201 137.33334,-49.51313 16.86666,-6.10412 40.79202,-14.75828 53.16748,-19.23146 12.37545,-4.4732 23.17545,-8.13942 24,-8.14715 0.82455,-0.008 17.09919,5.66572 36.16585,12.60771 19.06667,6.94197 54.76667,19.86974 79.33334,28.72838 24.56667,8.85864 60.71274,21.93518 80.3246,29.05897 l 35.65794,12.95234 0.0429,67.33334 0.0428,67.33333 4.78452,-7.33333 c 10.52327,-16.12921 23.86758,-47.06232 30.40647,-70.4845 7.45788,-26.71389 9.39041,-42.47769 9.33945,-76.18217 -0.0404,-26.72682 -0.48837,-33.6856 -3.04697,-47.33334 -16.98274,-90.58715 -70.43176,-162.69755 -151.20706,-204.000003 -8.60509,-4.4 -15.65291,-8.710941 -15.66181,-9.579867 -0.0309,-3.022803 2.62233,-8.493025 4.46189,-9.198933 3.64759,-1.39971 35.82893,15.709949 54.54574,28.999993 31.2142,22.16396 60.88678,53.5221 80.5372,85.11214 20.50833,32.96922 33.19269,67.1677 41.29399,111.33334 3.49981,19.07981 3.51436,70.08631 0.0256,90 -3.09682,17.67679 -7.7592,36.44795 -12.99196,52.30673 -5.2328,15.85901 -21.43994,48.93594 -31.53522,64.35994 -35.57601,54.35449 -90.15873,97.03875 -149.68679,117.05666 -33.17829,11.1571 -52.77652,14.43875 -89.33333,14.95855 -15.76667,0.22417 -30.46667,0.14921 -32.66667,-0.1666 z m 53.28039,-17.65936 c 43.8435,-5.65766 82.01707,-17.24878 120.51999,-36.59499 l 11.13369,-5.59425 -0.76364,-6 c -0.42,-3.3 -1.66984,-15 -2.77743,-26 -5.77936,-57.39794 -16.06676,-108.86361 -29.44088,-147.28646 -2.67109,-7.67386 -5.95741,-16.11038 -7.30294,-18.74783 -3.26852,-6.40684 -12.23822,-14.93977 -20.54647,-19.546 -6.03089,-3.34363 -8.09185,-3.75305 -18.892,-3.75305 -11.37731,0 -12.72991,0.30849 -22,5.0177 -14.00038,7.1122 -21.6007,14.05516 -26.292,24.01798 -7.40023,15.7157 -15.01203,44.43899 -24.84798,93.76447 -5.24232,26.2892 -5.83609,28.33596 -5.9568,20.53318 -0.5103,-32.98658 -11.89017,-53.46184 -31.45824,-56.60136 -4.84269,-0.77696 -5.72873,-0.44484 -9.44016,3.53863 -2.25271,2.41784 -6.82323,8.29607 -10.15669,13.06273 -7.50726,10.73494 -33.2672,35.7432 -45.97287,44.63139 l -9.47958,6.63139 -0.94892,19.59351 c -0.52189,10.77641 -0.54828,20.2417 -0.0587,21.03398 0.48965,0.79227 12.55523,10.12983 26.81239,20.75012 21.35244,15.90564 25.92213,19.88488 25.92213,22.57274 0,3.09884 -3.03531,7.45354 -5.19525,7.45354 -0.55263,0 -14.37978,-9.02998 -30.72702,-20.06664 -16.34723,-11.03665 -30.10223,-19.68828 -30.56665,-19.22584 -0.46443,0.46244 -1.04642,7.70744 -1.29331,16.1 l -0.44889,15.25922 9.78222,4.45985 c 21.68278,9.88549 53.76494,18.6653 74.4489,20.37415 5.5,0.4544 11.2,1.31475 12.66667,1.91188 3.6006,1.46593 38.46479,0.6218 53.28039,-1.29004 z m 35.9609,-163.86746 c -10.50614,-3.75449 -17.2833,-9.97667 -21.27677,-19.53436 -2.59935,-6.22113 -2.54172,-22.15584 0.10307,-28.49692 9.73273,-23.33498 46.2765,-28.23916 65.2038,-8.75035 11.38896,11.72683 11.54743,36.1966 0.31253,48.2585 -8.9016,9.55684 -30.06635,13.62494 -44.34261,8.52313 z m 148.75872,-124.9404 c -10.63334,-3.89211 -28.93334,-10.48091 -40.66667,-14.64179 -11.73334,-4.16088 -30.33334,-10.80707 -41.33334,-14.7693 -11,-3.96224 -35.3,-12.66312 -54,-19.33528 -18.7,-6.67217 -43.10353,-15.43997 -54.23007,-19.48402 l -20.23005,-7.3528 -17.10328,6.00712 c -9.4068,3.30392 -26.70327,9.39557 -38.4366,13.53701 -11.73334,4.14144 -27.33334,9.6322 -34.66667,12.20169 -7.33333,2.56951 -19.03334,6.66976 -26,9.11168 -6.96667,2.44192 -21.96667,7.73476 -33.33334,11.76184 -11.36666,4.0271 -33.56666,11.83856 -49.33333,17.35883 -15.76667,5.52027 -29.80987,10.47883 -31.20711,11.01903 -2.46331,0.95237 -2.51451,0.17591 -1.68632,-25.57327 1.19491,-37.15036 1.92792,-43.16977 5.42166,-44.52216 1.5428,-0.5972 7.9051,-3.48139 14.13843,-6.40931 6.23334,-2.92792 15.23334,-7.12724 20.00001,-9.33181 7.86292,-3.63657 52.39678,-24.32216 77.33333,-35.92063 5.5,-2.55816 13.3,-6.16651 17.33334,-8.01855 4.03333,-1.85205 20.23333,-9.36158 36,-16.68785 15.76666,-7.32628 32.56666,-15.10785 37.33333,-17.29239 4.76667,-2.18454 12.17824,-5.71209 16.47016,-7.839 4.29194,-2.1269 8.25971,-3.8671 8.81728,-3.8671 0.55759,0 9.64602,4.12298 20.19651,9.16218 18.55395,8.86187 28.67948,13.64804 51.18272,24.1932 11.75085,5.50652 28.90222,13.6097 49.33334,23.30758 7.33333,3.48086 16.93333,7.98841 21.33333,10.0168 4.4,2.02838 15.2,7.12338 24,11.32223 36.66364,17.49373 63.67447,29.99801 64.79954,29.99801 0.68096,0 1.20046,15.00223 1.20046,34.66667 0,26.90011 -0.37338,34.64328 -1.66666,34.56231 -0.91667,-0.0573 -10.36667,-3.28882 -21,-7.18092 z M 293.80054,100.43213 c -5.4154,-3.136341 -19.13386,-15.803284 -19.13386,-17.667258 0,-1.805109 -0.0781,-1.811241 6.50178,0.510294 16.28204,5.744633 31.35396,5.265101 37.41871,-1.190526 l 2.86465,-3.049293 -9.99337,-5.717772 C 298.71717,66.02757 297.1556,62.813928 305.41334,60.876991 c 2.39862,-0.562616 4.8679,0.187759 8.30611,2.524091 2.69103,1.828598 8.76277,4.339743 13.49276,5.580324 12.1642,3.190426 26.28082,1.063432 41.24987,-6.215248 17.59376,-8.554944 30.32007,-11.052399 41.08445,-8.062557 3.65679,1.015688 5.23203,2.365669 6.28502,5.386282 1.05245,3.019057 0.99894,4.177089 -0.21318,4.613315 -41.647,14.988242 -87.16556,31.785925 -92.06193,33.973556 -9.15264,4.089266 -24.19394,4.976596 -29.7559,1.755376 z"
     style="fill:#9d8fb5;stroke-width:1.33333337" />
  <path
     inkscape:connector-curvature="0"
     id="path138"
     d="M 306.00001,639.32885 C 277.98942,635.35044 257.47685,630.09174 234.87021,621.0937 172.48671,596.26345 121.78205,552.09603 87.954592,493.11963 51.450676,429.47696 40.089169,349.50091 57.440993,278.32796 78.312013,192.72011 134.69339,121.81712 212.59062,83.217904 c 9.49151,-4.703179 18.02931,-8.551235 18.97291,-8.551235 0.94358,0 2.95073,2.421038 4.46033,5.380082 l 2.74471,5.380081 -5.05095,2.083062 c -12.21664,5.038264 -32.80981,16.227666 -45.71761,24.840896 -58.50143,39.03734 -100.335554,98.36964 -117.26627,166.31589 -6.336374,25.42909 -7.401272,35.43713 -7.377358,69.33333 0.02016,28.57944 0.403622,34.58516 3.064751,48 6.327307,31.89616 12.355315,49.7365 26.355157,78.00001 16.51599,33.34321 15.13584,35.92316 15.33525,-28.66667 0.094,-30.43334 0.5573,-60.6553 1.02965,-67.15992 L 110,366.34684 146.66667,353.06547 c 20.16667,-7.30475 38.76667,-14.09622 41.33334,-15.09215 2.56666,-0.99593 23.26666,-8.49174 46,-16.65734 22.73333,-8.1656 56.22192,-20.28002 74.41909,-26.92094 l 33.08575,-12.0744 12.91426,4.70726 c 12.95152,4.72086 60.32236,21.8237 136.24757,49.19103 22.36667,8.0621 42.76667,15.4664 45.33334,16.45402 2.56667,0.98761 12.0086,4.39022 20.98207,7.56136 l 16.3154,5.7657 0.0604,67.33334 c 0.068,75.83881 -0.87534,71.18045 10.28481,50.79016 14.23188,-26.00255 23.65224,-51.75956 30.0358,-82.1235 4.07724,-19.39373 4.20563,-21.03065 4.23525,-54 0.0323,-35.97656 -1.67529,-50.66312 -8.75904,-75.33333 -22.58549,-78.65703 -74.58496,-142.20051 -145.15469,-177.379287 -8.43334,-4.20399 -15.46707,-7.747203 -15.63054,-7.873809 -0.77749,-0.602208 2.57152,-10.092407 3.83767,-10.874932 2.1372,-1.320859 31.73145,13.883396 47.79287,24.553918 108.02189,71.76516 156.666,205.94433 119.72254,330.24078 -32.07209,107.90662 -121.08258,186.86916 -232.38921,206.15595 -20.95846,3.6316 -62.15583,4.56338 -81.33334,1.83955 z m 62,-16.47517 c 41.46151,-5.78838 75.37439,-15.81278 111.85255,-33.06279 l 17.85255,-8.44223 -0.80165,-7.67432 c -0.44091,-4.22088 -1.68366,-16.37432 -2.76167,-27.00765 -5.43844,-53.64374 -15.34384,-103.49943 -28.34519,-142.66668 -7.02237,-21.15526 -10.29049,-27.23436 -18.05696,-33.58816 -11.27032,-9.2203 -16.35072,-11.07073 -30.40629,-11.07482 -12.09103,-0.004 -13.09214,0.22377 -22.02871,5.0014 -14.93801,7.98608 -22.34835,15.29558 -27.11533,26.7464 -7.51784,18.05866 -16.28031,52.67199 -25.71578,101.58185 l -3.08664,16 -0.80024,-12 c -1.80408,-27.05325 -8.73216,-41.44094 -23.19881,-48.1775 -12.31779,-5.73591 -14.60874,-4.69483 -25.91436,11.77638 -8.25611,12.02836 -34.14366,37.5461 -47.71411,47.03251 l -9.4863,6.63139 -0.94892,19.59351 c -0.52189,10.77641 -0.54828,20.2417 -0.0587,21.03398 0.48965,0.79227 12.55523,10.12983 26.81239,20.75012 21.35244,15.90564 25.92213,19.88488 25.92213,22.57274 0,3.09884 -3.03531,7.45354 -5.19525,7.45354 -0.55263,0 -14.39816,-9.0424 -30.76784,-20.09421 -22.28822,-15.04763 -30.04349,-19.65196 -30.87958,-18.33333 -0.61408,0.96848 -1.11657,8.36088 -1.11667,16.42754 l -1.7e-4,14.66667 11.64643,5.02504 c 22.76839,9.8238 49.26273,17.1325 69.37657,19.13814 4.91508,0.4901 10.13651,1.37945 11.60318,1.97633 3.74888,1.52563 45.7084,0.61631 59.33333,-1.28585 z m 33.90796,-163.86521 c -10.50614,-3.75449 -17.2833,-9.97667 -21.27677,-19.53436 -2.59935,-6.22113 -2.54172,-22.15584 0.10307,-28.49692 9.73273,-23.33498 46.2765,-28.23916 65.2038,-8.75035 11.38896,11.72683 11.54743,36.1966 0.31253,48.2585 -8.9016,9.55684 -30.06635,13.62494 -44.34261,8.52313 z M 540.00002,329.93432 c -17.23334,-6.21147 -41.53334,-14.92604 -54,-19.36572 -12.46667,-4.43968 -31.66667,-11.29906 -42.66667,-15.24304 -11,-3.944 -32,-11.44383 -46.66667,-16.66631 -14.66667,-5.22248 -33.26667,-11.86215 -41.33333,-14.75483 -8.06667,-2.89269 -15.11396,-5.25454 -15.66066,-5.24858 -0.98386,0.0107 -33.01671,11.17186 -82.33935,28.68932 -6.96666,2.47428 -22.26667,7.85968 -34,11.96753 -11.73333,4.10787 -28.23333,9.91212 -36.66667,12.89833 -8.43333,2.98622 -21.03333,7.42543 -28,9.8649 -15.99465,5.60076 -45.19342,16.04752 -48.53791,17.36593 -2.45357,0.96723 -2.50862,0.27312 -1.65674,-20.88735 0.48465,-12.0383 1.25572,-27.68542 1.7135,-34.77137 l 0.83232,-12.88355 9.49108,-4.3413 c 5.2201,-2.38771 14.59108,-6.7045 20.82442,-9.59286 6.23333,-2.88836 14.93333,-6.91473 19.33333,-8.94748 4.4,-2.03276 21.2,-9.83225 37.33334,-17.3322 28.09336,-13.05985 35.7742,-16.62316 54.33333,-25.20641 4.58334,-2.11971 26.5509,-12.33448 48.81679,-22.6995 l 40.48346,-18.84548 10.18321,4.88075 c 5.60077,2.68441 14.38321,6.8246 19.51655,9.20043 5.13333,2.37581 18.85581,8.89425 30.4944,14.4854 11.63858,5.59116 21.32309,10.16574 21.52113,10.16574 0.19805,0 9.27558,4.26412 20.17228,9.47584 10.89671,5.21171 29.11219,13.83666 40.47886,19.16656 11.36666,5.3299 25.16666,11.82125 30.66666,14.42522 5.5,2.60397 20.80001,9.819 34.00001,16.03339 l 24,11.29888 0.35584,34.1334 c 0.19572,18.77336 -0.10427,34.10965 -0.66667,34.08065 -0.56237,-0.029 -15.12251,-5.13484 -32.35584,-11.34629 z M 293.80054,100.43213 c -5.4154,-3.136341 -19.13386,-15.803284 -19.13386,-17.667258 0,-1.805109 -0.0781,-1.811241 6.50178,0.510294 16.28204,5.744633 31.35396,5.265101 37.41871,-1.190526 l 2.86465,-3.049293 -9.99337,-5.717772 C 298.71717,66.02757 297.1556,62.813928 305.41334,60.876991 c 2.39862,-0.562616 4.8679,0.187759 8.30611,2.524091 2.69103,1.828598 8.76277,4.339743 13.49276,5.580324 12.1642,3.190426 26.28082,1.063432 41.24987,-6.215248 17.59376,-8.554944 30.32007,-11.052399 41.08445,-8.062557 3.65679,1.015688 5.23203,2.365669 6.28502,5.386282 1.05245,3.019057 0.99894,4.177089 -0.21318,4.613315 -41.647,14.988242 -87.16556,31.785925 -92.06193,33.973556 -9.15264,4.089266 -24.19394,4.976596 -29.7559,1.755376 z"
     style="fill:#a7cd45;stroke-width:1.33333337" />
  <path
     inkscape:connector-curvature="0"
     id="path136"
     d="M 306.00001,639.32885 C 277.98942,635.35044 257.47685,630.09174 234.87021,621.0937 172.48671,596.26345 121.78205,552.09603 87.954592,493.11963 51.450676,429.47696 40.089169,349.50091 57.440993,278.32796 78.312013,192.72011 134.69339,121.81712 212.59062,83.217904 c 9.49151,-4.703179 18.02931,-8.551235 18.97291,-8.551235 0.94358,0 2.95073,2.421038 4.46033,5.380082 l 2.74471,5.380081 -5.05095,2.083062 c -12.21664,5.038264 -32.80981,16.227666 -45.71761,24.840896 -58.50143,39.03734 -100.335554,98.36964 -117.26627,166.31589 -6.336374,25.42909 -7.401272,35.43713 -7.377358,69.33333 0.02016,28.57944 0.403622,34.58516 3.064751,48 6.327307,31.89616 12.355315,49.7365 26.355157,78.00001 16.51599,33.34321 15.13584,35.92316 15.33525,-28.66667 0.094,-30.43334 0.5573,-60.6553 1.02965,-67.15992 L 110,366.34684 146.66667,353.06547 c 20.16667,-7.30475 38.76667,-14.09622 41.33334,-15.09215 2.56666,-0.99593 23.26666,-8.49174 46,-16.65734 22.73333,-8.1656 56.22192,-20.28002 74.41909,-26.92094 l 33.08575,-12.0744 12.91426,4.70726 c 12.95152,4.72086 60.32236,21.8237 136.24757,49.19103 22.36667,8.0621 42.76667,15.4664 45.33334,16.45402 2.56667,0.98761 12.0086,4.39022 20.98207,7.56136 l 16.3154,5.7657 0.0604,67.33334 c 0.068,75.83881 -0.87534,71.18045 10.28481,50.79016 14.23188,-26.00255 23.65224,-51.75956 30.0358,-82.1235 4.07724,-19.39373 4.20563,-21.03065 4.23525,-54 0.0323,-35.97656 -1.67529,-50.66312 -8.75904,-75.33333 -22.58549,-78.65703 -74.58496,-142.20051 -145.15469,-177.379287 -8.43334,-4.20399 -15.46707,-7.747203 -15.63054,-7.873809 -0.77749,-0.602208 2.57152,-10.092407 3.83767,-10.874932 2.1372,-1.320859 31.73145,13.883396 47.79287,24.553918 108.02189,71.76516 156.666,205.94433 119.72254,330.24078 -32.07209,107.90662 -121.08258,186.86916 -232.38921,206.15595 -20.95846,3.6316 -62.15583,4.56338 -81.33334,1.83955 z m 62,-16.47517 c 41.46151,-5.78838 75.37439,-15.81278 111.85255,-33.06279 l 17.85255,-8.44223 -0.80165,-7.67432 c -0.44091,-4.22088 -1.68366,-16.37432 -2.76167,-27.00765 -5.43844,-53.64374 -15.34384,-103.49943 -28.34519,-142.66668 -7.02237,-21.15526 -10.29049,-27.23436 -18.05696,-33.58816 -11.27032,-9.2203 -16.35072,-11.07073 -30.40629,-11.07482 -12.09103,-0.004 -13.09214,0.22377 -22.02871,5.0014 -14.93801,7.98608 -22.34835,15.29558 -27.11533,26.7464 -7.51784,18.05866 -16.28031,52.67199 -25.71578,101.58185 l -3.08664,16 -0.80024,-12 c -1.80408,-27.05325 -8.73216,-41.44094 -23.19881,-48.1775 -8.00411,-3.7272 -13.02968,-3.99016 -16.17355,-0.84631 -1.27023,1.27024 -2.06309,1.59915 -1.76189,0.73089 0.30118,-0.86825 3.83449,-3.87065 7.8518,-6.672 19.32854,-13.47823 26.58245,-38.73771 17.05014,-59.37193 -4.39009,-9.5031 -14.83697,-20.74263 -23.29726,-25.06498 -5.58076,-2.8512 -8.16414,-3.26484 -20.3904,-3.26484 -12.79532,0 -14.68839,0.33774 -22,3.92488 -9.46364,4.64296 -19.1293,14.10034 -23.51574,23.00904 -2.70807,5.49996 -3.14989,8.36714 -3.14351,20.39942 0.007,13.37192 0.20991,14.37398 4.52059,22.33612 2.48224,4.58488 7.1289,10.74723 10.32591,13.69413 3.19701,2.94691 5.81275,5.61846 5.81275,5.93679 0,0.31833 -2.25,0.98711 -5,1.48615 -11.17921,2.02869 -20.70607,9.44192 -26.28665,20.45466 -5.31734,10.4933 -7.04952,23.52268 -8.01393,60.2807 l -0.89699,34.18853 3.04248,2.13104 c 2.93206,2.05368 3.02975,2.74862 2.69154,19.14479 l -0.35094,17.01376 11.74058,5.02504 c 23.10852,9.89059 49.41877,17.13867 69.47073,19.13814 4.91508,0.4901 10.13651,1.37945 11.60318,1.97633 3.74888,1.52563 45.7084,0.61631 59.33333,-1.28585 z M 540.00002,329.93432 c -17.23334,-6.21147 -41.53334,-14.92604 -54,-19.36572 -12.46667,-4.43968 -31.66667,-11.29906 -42.66667,-15.24304 -11,-3.944 -32,-11.44383 -46.66667,-16.66631 -14.66667,-5.22248 -33.26667,-11.86215 -41.33333,-14.75483 -8.06667,-2.89269 -15.11396,-5.25454 -15.66066,-5.24858 -0.98386,0.0107 -33.01671,11.17186 -82.33935,28.68932 -6.96666,2.47428 -22.26667,7.85968 -34,11.96753 -11.73333,4.10787 -28.23333,9.91212 -36.66667,12.89833 -8.43333,2.98622 -21.03333,7.42543 -28,9.8649 -15.99465,5.60076 -45.19342,16.04752 -48.53791,17.36593 -2.45357,0.96723 -2.50862,0.27312 -1.65674,-20.88735 0.48465,-12.0383 1.25572,-27.68542 1.7135,-34.77137 l 0.83232,-12.88355 9.49108,-4.3413 c 5.2201,-2.38771 14.59108,-6.7045 20.82442,-9.59286 6.23333,-2.88836 14.93333,-6.91473 19.33333,-8.94748 4.4,-2.03276 21.2,-9.83225 37.33334,-17.3322 28.09336,-13.05985 35.7742,-16.62316 54.33333,-25.20641 4.58334,-2.11971 26.5509,-12.33448 48.81679,-22.6995 l 40.48346,-18.84548 10.18321,4.88075 c 5.60077,2.68441 14.38321,6.8246 19.51655,9.20043 5.13333,2.37581 18.85581,8.89425 30.4944,14.4854 11.63858,5.59116 21.32309,10.16574 21.52113,10.16574 0.19805,0 9.27558,4.26412 20.17228,9.47584 10.89671,5.21171 29.11219,13.83666 40.47886,19.16656 11.36666,5.3299 25.16666,11.82125 30.66666,14.42522 5.5,2.60397 20.80001,9.819 34.00001,16.03339 l 24,11.29888 0.35584,34.1334 c 0.19572,18.77336 -0.10427,34.10965 -0.66667,34.08065 -0.56237,-0.029 -15.12251,-5.13484 -32.35584,-11.34629 z"
     style="fill:#8775a4;stroke-width:1.33333337" />
  <path
     inkscape:connector-curvature="0"
     id="path134"
     d="m 305.18765,638.67349 c -25.81496,-3.42269 -52.15952,-10.12765 -72.3465,-18.41292 -13.88136,-5.69727 -40.02144,-19.5624 -51.816,-27.48406 -33.83586,-22.72538 -58.81081,-47.57769 -80.3552,-79.96064 C 72.176953,469.98863 58.122929,431.65999 51.333972,378.26505 46.127806,337.31871 52.349652,287.53473 68.030682,244.66668 93.98123,173.7243 148.17055,114.12508 216.43883,81.442411 c 7.78434,-3.726658 14.7579,-6.775742 15.49682,-6.775742 0.73892,0 2.57956,2.42289 4.0903,5.3842 l 2.74682,5.384201 -4.38638,1.490952 c -8.91836,3.031392 -34.33456,16.904618 -47.95449,26.175578 -24.56388,16.72039 -39.26064,30.09417 -59.59659,54.23174 -34.167269,40.55455 -56.134405,91.62402 -62.785726,145.96503 -1.77782,14.52471 -1.782098,53.49258 -0.0075,68.06995 4.819561,39.58956 19.875005,82.51234 40.162406,114.50224 l 3.79548,5.98487 0.0173,-26.59437 c 0.0232,-35.53747 1.28609,-100.26946 2.05362,-105.26105 0.5836,-3.79541 1.44996,-4.29506 16.93871,-9.76904 19.68396,-6.95661 77.89611,-27.96765 194.27053,-70.11979 l 20.61353,-7.46645 33.38647,12.13239 c 18.36256,6.67282 51.38647,18.64412 73.38647,26.60288 22,7.95877 58.26604,21.10413 80.59121,29.21192 22.32517,8.10779 41.45372,14.74143 42.50788,14.74143 1.64953,0 1.83242,9.47797 1.31216,68 -0.3325,37.4 -0.26104,67.98952 0.15878,67.97671 0.41982,-0.0133 2.96347,-3.76282 5.65255,-8.33334 20.91013,-35.54013 33.64855,-72.56204 38.40199,-111.6084 1.77463,-14.57737 1.77035,-53.54524 -0.008,-68.06995 C 605.79513,219.43665 548.43134,137.50111 464.53908,95.125535 451.04052,88.307158 449.33335,87.056854 449.33335,83.989086 c 0,-3.849565 2.17947,-6.65575 5.16929,-6.65575 3.03459,0 23.47602,10.231472 36.83071,18.434747 65.21831,40.061077 112.22444,104.249897 131.36361,179.382457 18.90268,74.20422 7.57513,154.26921 -31.24567,220.84948 -28.77958,49.35891 -70.93206,89.05479 -120.78461,113.74544 -20.53758,10.17172 -24.0204,11.60828 -42.17448,17.39566 -19.67583,6.2725 -30.46257,8.60961 -53.53661,11.5995 -24.06414,3.11819 -45.90182,3.09718 -69.76794,-0.0671 z m 68.81236,-16.36325 c 42.87986,-6.62538 81.28537,-18.94882 115.92225,-37.19677 l 6.74442,-3.5532 -0.0597,-8.4468 c -0.13679,-19.36597 -9.37952,-87.36787 -15.28363,-112.44679 -7.4471,-31.63314 -10.17161,-41.77081 -14.81273,-55.1172 -2.97397,-8.55221 -6.07809,-17.57095 -6.89805,-20.04163 -2.10427,-6.3406 -11.29703,-16.02577 -20.41432,-21.50784 -7.50022,-4.50974 -8.21223,-4.66666 -21.17443,-4.66666 -12.47996,0 -14.0351,0.30613 -22.35046,4.39977 -11.39989,5.61215 -23.2202,16.35492 -26.65453,24.22472 -7.34693,16.83553 -15.30599,46.6921 -23.20065,87.0319 -2.83335,14.47768 -5.60154,26.32768 -6.15154,26.33333 -0.55,0.005 -1.00886,-3.13972 -1.0197,-6.98972 -0.0257,-9.13997 -3.13179,-22.08087 -7.25081,-30.20935 -6.81542,-13.4496 -22.36941,-21.94774 -31.81714,-17.38376 -2.50364,1.20944 -2.60679,1.16267 -0.73503,-0.33333 1.19753,-0.95713 4.87505,-3.62677 8.17227,-5.93255 17.67753,-12.36209 24.52821,-38.31755 15.34665,-58.14453 -4.40348,-9.50904 -14.85148,-20.74566 -23.30584,-25.06498 -5.58069,-2.8512 -8.16407,-3.26484 -20.39033,-3.26484 -12.79532,0 -14.68839,0.33774 -22,3.92488 -9.46364,4.64296 -19.1293,14.10034 -23.51574,23.00904 -2.70807,5.49996 -3.14989,8.36714 -3.14351,20.39942 0.007,13.37192 0.20991,14.37398 4.52059,22.33612 2.48224,4.58488 7.1289,10.74723 10.32591,13.69413 3.19701,2.94691 5.81275,5.61846 5.81275,5.93679 0,0.31833 -2.25,0.98711 -5,1.48615 -11.17921,2.02869 -20.70607,9.44192 -26.28665,20.45466 -5.31734,10.4933 -7.04952,23.52268 -8.01393,60.2807 l -0.89699,34.18853 3.04248,2.13104 c 2.93655,2.05684 3.02899,2.72584 2.65463,19.21362 l -0.38785,17.08257 3.77749,1.75432 c 21.73144,10.0924 50.99375,18.84735 73.59686,22.01934 7.59404,1.0657 14.16465,2.29496 14.60136,2.73166 1.52412,1.52412 53.02019,-0.28924 66.24593,-2.33274 z m 185.33334,-285.6598 c -6.6,-2.4676 -24,-8.76307 -38.66667,-13.98995 -63.29836,-22.55813 -115.34015,-41.17751 -148.77095,-53.22685 -14.35734,-5.17478 -27.85734,-9.74256 -30,-10.15066 -2.79764,-0.53285 -11.41221,1.93776 -30.56239,8.7651 -14.66666,5.22889 -29.06666,10.29638 -32,11.26106 -2.93333,0.9647 -14.93333,5.17298 -26.66666,9.35172 -11.73334,4.17876 -27.03334,9.59099 -34.00001,12.02719 -28.13002,9.83688 -40.28768,14.11104 -60.66666,21.32807 -31.54033,11.16969 -47.70254,16.65056 -49.09992,16.65056 -0.74354,0 -0.90895,-6.0246 -0.41185,-15 0.45693,-8.25 1.21624,-23.53567 1.68737,-33.96816 0.77906,-17.25148 1.09274,-19.04311 3.46603,-19.79636 1.4352,-0.45551 9.00296,-3.84084 16.81724,-7.52294 7.81428,-3.6821 17.80779,-8.35429 22.20779,-10.38265 11.7627,-5.42248 45.33931,-20.98156 55.33334,-25.64095 11.68462,-5.44756 25.50685,-11.86825 36,-16.72267 21.94293,-10.1514 87.85899,-40.84242 92.36872,-43.0076 l 5.0354,-2.41754 16.9646,8.02205 c 9.33054,4.41213 20.56462,9.71183 24.96462,11.77711 4.4,2.06528 14.6,6.88124 22.66666,10.70212 8.06667,3.82089 19.46667,9.19413 25.33334,11.94054 17.04429,7.97907 30.76599,14.45195 49.33333,23.27186 9.53334,4.52853 34.28334,16.25252 55.00001,26.05329 l 37.66666,17.81958 v 33.76949 c 0,18.57323 -0.45,33.72531 -1,33.67131 -0.55,-0.054 -6.4,-2.11712 -13,-4.58472 z"
     style="fill:#69538e;stroke-width:1.33333337" />
  <path
     inkscape:connector-curvature="0"
     id="path132"
     d="m 325.33334,640.94321 c -0.36666,-0.37285 -7.56666,-1.39141 -16,-2.26347 -23.42301,-2.42208 -47.13126,-8.01108 -69.45238,-16.37276 C 197.32225,606.36413 162.57103,583.23007 130.53361,549.5139 80.467729,496.8246 53.545769,431.45856 49.733759,353.33335 49.016803,338.63968 52.652437,302.56929 56.677931,284.43784 72.172939,214.64587 110.82677,154.3277 167.33334,111.76332 c 18.16499,-13.683045 46.64615,-30.149922 60.76053,-35.129768 4.85718,-1.713711 4.86862,-1.70886 7.12372,3.020161 1.24231,2.605145 1.77658,5.165122 1.18724,5.688838 -0.58932,0.523715 -5.57149,2.972895 -11.07149,5.442622 C 153.18003,123.18498 95.273841,190.47575 72.833464,268.00001 52.721726,337.47956 59.746359,410.81993 92.755969,476.00002 c 3.899565,7.7 8.832231,16.56972 10.961481,19.71048 l 3.87137,5.71046 0.85622,-22.37713 c 0.47092,-12.30743 1.25695,-42.59941 1.74674,-67.31552 l 0.89053,-44.93839 4.79218,-1.88515 c 2.6357,-1.03682 16.79218,-6.21697 31.45885,-11.51144 14.66667,-5.29446 28.76667,-10.42192 31.33333,-11.39434 2.56667,-0.97242 17.56667,-6.38491 33.33334,-12.02775 33.48109,-11.98279 41.80901,-15.04935 47.53484,-17.50364 2.31083,-0.99051 4.66965,-1.80092 5.24183,-1.80092 1.24012,0 66.01869,-23.3777 72.14692,-26.03683 4.0054,-1.73801 5.30527,-1.46521 22,4.61715 9.75869,3.55536 36.34308,13.1755 59.07641,21.3781 22.73334,8.2026 43.43334,15.71784 46.00001,16.70055 13.75634,5.26692 71.69768,26.0143 72.75817,26.05294 0.683,0.0249 3.64183,1.20452 6.57516,2.62142 2.93334,1.41691 6.14266,2.59655 7.13183,2.62143 0.98917,0.0249 3.68917,0.87216 6,1.88284 2.31083,1.01067 7.05151,2.86029 10.53484,4.11027 l 6.33333,2.27269 -0.004,19.55639 c -0.003,10.75601 -0.62922,41.3795 -1.39306,68.05221 -0.76383,26.67271 -1.11567,48.76895 -0.78186,49.10276 1.94383,1.94384 20.47126,-31.38286 27.94414,-50.26525 13.1461,-33.21746 20.92065,-72.7681 20.88963,-106.26958 -0.0218,-23.2346 -4.75283,-55.79488 -11.48831,-79.06376 -22.26092,-76.90432 -78.34892,-142.56634 -150.83321,-176.579873 -8.63294,-4.051047 -9.85837,-6.079205 -6.95309,-11.507789 1.94199,-3.628635 3.93671,-3.287396 15.87707,2.716098 59.00625,29.667764 104.71935,74.750164 132.53345,130.704894 18.02364,36.25884 25.12499,60.37898 30.35563,103.1045 3.08904,25.23227 2.94812,38.71112 -0.71332,68.22884 -11.15669,89.94279 -63.87549,170.08157 -142.31512,216.33566 -10.33182,6.09244 -33.47558,17.66435 -35.32862,17.66435 -0.39581,0 -2.61033,0.83168 -4.92116,1.84819 -17.06086,7.50488 -44.20481,14.46828 -68.86817,17.6672 -16.04467,2.08104 -50.85127,3.92922 -52.00001,2.76113 z m 52.00001,-18.70823 c 37.94696,-6.09977 71.29104,-16.60301 105.65964,-33.28231 l 14.32632,-6.95265 0.007,-7.59837 c 0.004,-4.17911 -0.84919,-14.37911 -1.89568,-22.66667 -1.04615,-8.28756 -2.30476,-18.96829 -2.7966,-23.73496 -0.95875,-9.29188 -6.07962,-41.97063 -9.2704,-59.15898 -4.57618,-24.65121 -16.48472,-66.57487 -23.91,-84.17436 -5.83783,-13.83689 -26.15767,-27.33333 -41.15226,-27.33333 -16.46033,0 -40.58327,13.98253 -48.06409,27.8597 -7.3667,13.66546 -16.59488,47.11962 -25.53816,92.58133 -1.85099,9.40924 -3.40762,18.40924 -3.45916,20 -0.17754,5.47949 -2.37551,-1.82199 -2.47923,-8.23582 -0.10707,-6.62264 -3.3116,-18.65208 -6.82139,-25.60697 -5.3134,-10.52887 -16.89499,-18.59824 -26.69319,-18.59824 -2.68438,0 -2.10206,-0.89965 4.24244,-6.55443 4.3199,-3.85025 9.24303,-10.03881 11.93283,-15 4.38939,-8.09599 4.57892,-9.02507 4.57892,-22.44557 0,-12.58898 -0.35787,-14.67798 -3.55068,-20.7268 -5.01784,-9.50634 -14.34976,-19.40571 -21.95457,-23.28959 -5.80546,-2.96492 -8.1221,-3.31695 -21.82808,-3.31695 -14.41027,0 -15.80412,0.2408 -23.15379,4 -8.32804,4.25962 -19.0458,14.82714 -22.52688,22.21108 -1.1553,2.45058 -2.86982,8.20559 -3.81004,12.78892 -3.05794,14.90662 2.53325,32.11272 14.23896,43.81843 3.25512,3.25514 5.91841,6.1499 5.91841,6.4328 0,0.28291 -2.35322,0.91196 -5.2294,1.39788 -11.75103,1.98532 -22.65876,12.49396 -28.18917,27.1578 -3.15668,8.36988 -5.08583,34.21455 -5.19067,69.53903 -0.0527,17.7555 0.15581,19.47912 2.53643,20.96583 2.38738,1.49095 2.53141,2.72244 1.80948,15.47088 -1.07739,19.02523 -0.81251,19.71483 9.457,24.62029 17.59023,8.40238 45.30843,16.54778 66.61969,19.57721 7.23068,1.02784 13.50236,2.22448 13.93706,2.65917 1.70357,1.70357 58.43997,-0.18452 72.24959,-2.40435 z M 562.00002,337.29863 c -5.13333,-2.0523 -19.83333,-7.44943 -32.66667,-11.99363 -12.83333,-4.5442 -35.03333,-12.44891 -49.33333,-17.566 -14.3,-5.1171 -35.3,-12.60616 -46.66667,-16.64236 -11.36667,-4.0362 -22.76667,-8.14826 -25.33334,-9.13791 -2.56666,-0.98964 -15.16666,-5.46371 -28,-9.94237 -12.83333,-4.47866 -27.07697,-9.56092 -31.65254,-11.29394 l -8.3192,-3.15093 -15.01414,5.31376 c -25.20997,8.92224 -41.41868,14.60827 -47.01412,16.49257 -2.93333,0.98783 -12.23333,4.2807 -20.66667,7.31748 -8.43333,3.03678 -17.73333,6.31186 -20.66667,7.27796 -2.93333,0.9661 -14.93333,5.17552 -26.66666,9.35427 -11.73334,4.17876 -27.03334,9.58137 -34,12.00581 -6.96667,2.42444 -22.26667,7.82706 -34.00001,12.00582 -27.17167,9.67703 -32.94401,11.49461 -33.79669,10.64193 -0.3797,-0.37969 0.0192,-7.49772 0.8865,-15.81784 0.86727,-8.32013 1.57686,-23.03832 1.57686,-32.70711 v -17.57961 l 11,-5.10541 c 6.05,-2.80798 19.1,-8.84956 29,-13.42575 29.76124,-13.75687 33.50672,-15.49488 46,-21.34536 6.6,-3.09072 15.6,-7.28566 20,-9.32208 21.93939,-10.15411 47.58379,-22.04219 55.33334,-25.65112 23.10388,-10.75939 33.48368,-15.57508 42.63377,-19.77988 5.4819,-2.51915 13.8406,-6.41068 18.57488,-8.64787 l 8.60779,-4.0676 7.42511,3.66308 c 10.82847,5.34208 49.68637,23.80547 50.10081,23.80547 0.19446,0 8.37198,3.82606 18.17227,8.50237 19.67134,9.38636 36.92019,17.53656 51.15204,24.16967 5.13334,2.39252 15.93334,7.4861 24,11.31908 8.06667,3.83299 18.26667,8.64196 22.66667,10.68664 4.4,2.04467 16.4,7.69069 26.66667,12.54671 10.26667,4.85602 21.51667,10.15872 25,11.78377 l 6.33333,2.95464 v 33.68523 c 0,18.52688 -0.45,33.61699 -1,33.5336 -0.55,-0.0833 -5.2,-1.83079 -10.33333,-3.88309 z"
     style="fill:#4a2f76;stroke-width:1.33333337" />
  <path
     inkscape:connector-curvature="0"
     id="path130"
     d="m 325.33334,639.87448 c -4.76666,-0.60324 -14.06666,-1.66718 -20.66666,-2.36428 -13.23356,-1.39778 -32.80798,-4.88039 -38,-6.76084 -1.83334,-0.664 -8.73334,-2.87028 -15.33334,-4.90284 -6.6,-2.03256 -13.5,-4.47583 -15.33333,-5.42948 -1.83334,-0.95366 -3.82756,-1.73762 -4.43163,-1.74214 -2.37399,-0.0177 -34.09516,-16.14627 -42.90171,-21.81321 -10.1242,-6.51486 -22.26172,-15.00715 -26.00498,-18.195 -1.29166,-1.1 -7.15774,-6.09686 -13.03574,-11.10412 -9.39901,-8.00671 -29.91447,-29.09103 -36.31926,-37.32635 -12.53983,-16.12382 -31.082238,-47.93327 -38.610475,-66.2362 -2.262223,-5.5 -4.589142,-10.9 -5.170929,-12 -0.581786,-1.1 -2.681502,-7.4 -4.666034,-14 -1.984532,-6.6 -4.245567,-13.99706 -5.024522,-16.43789 -1.78102,-5.58078 -4.953644,-23.14665 -6.543388,-36.22878 -3.92682,-32.3141 -4.287762,-38.7838 -2.844371,-50.98407 0.803561,-6.7921 1.789912,-16.54927 2.191891,-21.6826 0.760973,-9.71774 1.372237,-13.12552 6.061859,-33.79478 3.045249,-13.42176 8.213457,-30.29958 11.352357,-37.0734 1.070808,-2.31082 1.946925,-4.67139 1.946925,-5.24569 0,-0.96168 2.125273,-5.84587 7.782854,-17.88614 3.667622,-7.8053 16.289638,-29.41905 23.224163,-39.76869 25.27929,-37.72884 69.80776,-75.99518 110.99299,-95.383814 4.4,-2.071374 9.59257,-4.609441 11.53905,-5.640149 5.21201,-2.75988 6.899,-2.27658 9.19272,2.633595 l 2.06511,4.420768 -6.25415,2.869144 c -3.43979,1.578031 -6.52984,2.869146 -6.8668,2.869146 -0.33696,0 -6.5844,3.245528 -13.8832,7.212284 -40.19573,21.845586 -75.20726,53.458696 -99.07075,89.454386 -3.88933,5.86667 -8.08059,12.16667 -9.31391,14 -3.666765,5.45067 -16.785508,32.04615 -20.059634,40.66667 -1.671146,4.4 -3.497449,9.2 -4.05845,10.66667 -2.448287,6.40073 -6.540612,20.43616 -7.38647,25.33333 -0.506654,2.93333 -1.407148,6.27836 -2.001096,7.4334 -0.593948,1.15504 -2.163752,9.25504 -3.488453,18 -3.523262,23.25868 -3.250138,67.43336 0.551712,89.23327 3.805248,21.81939 8.335092,39.81686 12.41688,49.33334 0.629079,1.46666 2.765056,6.86666 4.746617,12 6.463292,16.74349 23.058584,47.33333 25.678794,47.33333 1.66639,0 2.84927,-36.47751 2.85425,-88.0188 l 0.004,-46.0188 5.34248,-2.31454 c 2.93836,-1.27298 5.99769,-2.31453 6.7985,-2.31453 0.8008,0 3.34669,-0.8386 5.65752,-1.86355 2.31082,-1.02496 9.0015,-3.49649 14.86817,-5.49229 5.86667,-1.99581 12.55735,-4.45721 14.86817,-5.46979 2.31083,-1.01257 4.69923,-1.84104 5.30756,-1.84104 1.10584,0 12.10295,-4.13641 20.02578,-7.53241 2.31082,-0.99051 4.92014,-1.80092 5.79849,-1.80092 0.87835,0 3.48767,-0.8348 5.79849,-1.85511 2.31083,-1.0203 14.70151,-5.58503 27.53484,-10.14383 12.83334,-4.5588 24.53334,-8.80776 26.00001,-9.44213 3.41428,-1.47677 13.42933,-5.01279 18.93242,-6.68448 2.34618,-0.71269 5.94618,-2.17231 8,-3.24359 2.05383,-1.07128 4.54356,-1.95146 5.53274,-1.95598 0.98917,-0.004 3.68917,-0.84608 6,-1.87015 4.40468,-1.95199 47.52864,-17.39525 52.29055,-18.72596 1.51564,-0.42353 6.31564,0.46571 10.66666,1.97611 4.35103,1.5104 9.83055,3.33574 12.17672,4.05633 2.34618,0.72057 5.94618,2.18664 8,3.25792 2.05383,1.07128 4.54356,1.95147 5.53274,1.95599 0.98917,0.004 3.68917,0.84301 6,1.86332 2.31082,1.0203 14.7015,5.58502 27.53484,10.14382 12.83333,4.5588 24.53333,8.80776 26,9.44214 3.64379,1.57604 13.67087,5.09196 19.33333,6.77908 2.56667,0.76474 5.26667,1.84532 6,2.40129 0.73334,0.55597 3.13334,1.43987 5.33334,1.9642 2.2,0.52433 5.8,1.74317 8,2.70853 2.2,0.96536 11.2,4.28266 20,7.37177 18.6735,6.55506 29.59768,10.55302 33.33333,12.19913 1.46667,0.64628 4.46667,1.73197 6.66667,2.41264 5.77124,1.78561 15.56641,5.26957 18.66667,6.6394 1.46666,0.64804 6.79893,2.57179 11.84948,4.27501 l 9.18282,3.09678 -0.85098,15.35556 c -0.46806,8.44554 -1.19611,39.65554 -1.61792,69.35555 l -0.76694,54 2.77031,-3.33334 c 6.55855,-7.8915 24.19485,-41.36978 27.39351,-52 0.55165,-1.83333 1.77288,-5.13333 2.71382,-7.33333 4.76611,-11.14344 9.01858,-27.68302 13.02687,-50.66667 3.80186,-21.79991 4.07498,-65.97459 0.55172,-89.23327 -1.32471,-8.74496 -2.89451,-16.84496 -3.48845,-18 -0.59395,-1.15504 -1.49444,-4.50007 -2.0011,-7.4334 -0.84586,-4.89717 -4.93818,-18.9326 -7.38646,-25.33333 -0.56102,-1.46667 -2.38731,-6.26667 -4.05846,-10.66667 -3.27413,-8.62052 -16.39286,-35.216 -20.05964,-40.66667 -1.23332,-1.83333 -5.42457,-8.13333 -9.3139,-14 C 551.86849,159.06225 522.95162,130.54066 492.66624,110.45413 481.15743,102.821 460.2154,91.384745 453.9752,89.325292 c -4.12596,-1.361689 -4.54893,-1.927405 -3.80958,-5.09519 1.238,-5.304279 3.65026,-7.403062 6.66504,-5.798903 1.37624,0.732296 6.10225,3.022919 10.50225,5.090273 32.97255,15.492258 66.58735,41.594128 92.77947,72.043178 15.35359,17.84894 32.29953,43.65454 41.43768,63.10202 5.65757,12.04027 7.78285,16.92446 7.78285,17.88614 0,0.5743 0.87612,2.93487 1.94692,5.24569 3.13891,6.77382 8.30711,23.65164 11.35237,37.0734 4.68962,20.66926 5.30089,24.07704 6.06185,33.79478 0.40199,5.13333 1.38833,14.8905 2.19189,21.6826 1.44506,12.21431 1.09072,18.45216 -2.97182,52.3174 -1.43582,11.96881 -4.6252,29.22136 -6.48758,35.09357 -0.73954,2.33187 -2.96835,9.63977 -4.95288,16.23977 -1.98453,6.6 -4.08424,12.9 -4.66603,14 -0.58178,1.1 -2.9087,6.5 -5.17093,12 -8.55796,20.80645 -21.90779,43.50824 -37.13431,63.14805 -15.72553,20.28347 -24.61393,29.29384 -50.82123,51.51862 -3.79054,3.21453 -15.93881,11.71109 -26.01492,18.195 -8.80654,5.66694 -40.52772,21.79545 -42.9017,21.81321 -0.60407,0.004 -2.5983,0.78848 -4.43163,1.74214 -1.83333,0.95365 -8.73333,3.39692 -15.33333,5.42948 -6.60001,2.03256 -13.50001,4.23884 -15.33334,4.90284 -4.77684,1.73008 -24.19751,5.25772 -36.66667,6.66025 -39.1793,4.40693 -37.82265,4.34344 -52.66667,2.46487 z m 44.00001,-15.83296 c 3.3,-0.62307 9.9,-1.78143 14.66666,-2.57411 11.77942,-1.95889 33.39608,-6.79716 36.66667,-8.20678 1.46667,-0.63212 5.36667,-1.7994 8.66667,-2.59394 3.3,-0.79455 7.2,-1.96098 8.66667,-2.59207 1.46666,-0.63109 6.56666,-2.49844 11.33333,-4.14965 11.37597,-3.94076 17.85131,-6.74068 34.33333,-14.84563 l 13.66667,-6.72052 -0.0237,-9.51273 c -0.0255,-10.20955 -1.07612,-20.69654 -5.22794,-52.17941 -3.43257,-26.02897 -6.54236,-46.15885 -7.51832,-48.66666 -0.42809,-1.1 -1.5877,-6.2 -2.57692,-11.33334 -1.62621,-8.4388 -4.32622,-19.9134 -8.6278,-36.66667 -0.84732,-3.3 -2.02334,-6.91969 -2.61341,-8.04376 -0.59007,-1.12408 -1.52049,-4.12408 -2.06763,-6.66666 -0.54712,-2.5426 -3.41566,-10.80024 -6.37453,-18.35032 -4.59616,-11.72794 -6.34219,-14.59274 -11.98732,-19.66819 -9.83831,-8.84552 -21.42108,-13.93773 -31.7028,-13.93773 -19.58639,0 -43.82639,14.86018 -50.5033,30.96076 -1.60554,3.87158 -3.42498,8.23924 -4.04318,9.7059 -1.81071,4.2958 -6.35692,19.59935 -7.32772,24.66667 -0.49172,2.56667 -1.43374,5.86667 -2.09336,7.33334 -0.65963,1.46666 -2.14848,7.46666 -3.30858,13.33333 -1.16009,5.86667 -2.99941,14.86667 -4.08738,20 -1.08796,5.13333 -3.05214,15.33333 -4.36482,22.66667 l -2.3867,13.33333 -1.62443,-12.41891 c -0.89343,-6.8304 -2.11648,-13.4304 -2.71788,-14.66666 -6.03566,-12.40718 -8.1059,-15.70939 -12.01835,-19.17046 -5.44692,-4.81848 -15.79461,-9.47722 -18.70449,-8.42114 -1.15468,0.41906 0.70261,-1.66282 4.12732,-4.6264 23.83196,-20.62313 24.2888,-52.92202 1.07362,-75.90633 -8.733,-8.64616 -15.1348,-10.7901 -32.21908,-10.7901 -12.8246,0 -15.43694,0.40552 -21.7004,3.36861 -7.20397,3.40801 -16.33353,11.35044 -21.58255,18.77612 -11.65577,16.48919 -9.06002,42.70973 5.86034,59.19727 l 7.11312,7.86024 -5.13145,1.38176 c -7.32081,1.97128 -17.34051,8.99404 -20.91817,14.6614 -9.49218,15.0366 -11.38884,27.24016 -11.38884,73.27887 0,28.00004 0.20031,30.69289 2.33334,31.36935 2.0972,0.6651 2.28609,2.49397 1.86656,18.07212 l -0.46678,17.33213 3.47107,1.31969 c 1.90908,0.72584 6.31913,2.57719 9.80011,4.11411 3.48097,1.53692 8.12904,3.58429 10.32904,4.54972 2.2,0.96543 5.5,2.15977 7.33333,2.65411 1.83334,0.49432 4.53334,1.43064 6,2.08069 3.9953,1.77079 18.63379,5.40961 30.66667,7.6231 5.86667,1.0792 13.06667,2.42674 16,2.99456 7.31039,1.41508 63.91988,1.47408 71.33334,0.0743 z M 564.00002,337.18357 c -4.03333,-1.44618 -8.92696,-3.14605 -10.87472,-3.77749 -7.59473,-2.4621 -31.3433,-11.12264 -35.32679,-12.88286 -2.31083,-1.02109 -4.92015,-1.85654 -5.79849,-1.85654 -0.87835,0 -3.48767,-0.8386 -5.7985,-1.86355 -2.31082,-1.02496 -9.0015,-3.49649 -14.86817,-5.49229 -5.86667,-1.99582 -12.46667,-4.39392 -14.66667,-5.32915 -2.2,-0.93523 -5.94312,-2.10985 -8.31804,-2.61029 -2.37493,-0.50044 -4.66033,-1.46372 -5.07869,-2.14064 -0.41836,-0.67691 -1.68456,-1.23075 -2.81379,-1.23075 -1.12922,0 -3.94381,-0.82847 -6.25464,-1.84104 -2.31082,-1.01257 -9.0015,-3.47397 -14.86817,-5.46979 -5.86667,-1.9958 -12.55735,-4.46733 -14.86818,-5.49229 -2.31082,-1.02495 -4.92014,-1.86355 -5.79849,-1.86355 -0.87835,0 -3.48767,-0.8386 -5.79849,-1.86354 -2.31083,-1.02496 -9.00151,-3.4869 -14.86818,-5.47098 -5.86666,-1.98408 -11.86666,-4.1545 -13.33333,-4.82317 -1.46667,-0.66867 -4.46667,-1.76508 -6.66667,-2.43645 -2.2,-0.67139 -10.9,-3.72243 -19.33333,-6.7801 -20.52213,-7.44069 -19.38848,-7.21978 -24.52996,-4.78 -2.49686,1.18484 -5.25836,2.15424 -6.13671,2.15424 -0.87835,0 -3.48767,0.85268 -5.79849,1.89484 -2.31083,1.04216 -9.00151,3.46911 -14.86818,5.39323 -5.86666,1.92411 -11.86666,4.00949 -13.33333,4.63419 -1.46667,0.62469 -7.46667,2.74932 -13.33333,4.72137 -5.86667,1.97207 -11.86667,4.10705 -13.33334,4.74441 -1.46666,0.63738 -7.46666,2.73312 -13.33333,4.65723 -5.86667,1.92412 -12.55735,4.35107 -14.86817,5.39323 -2.31083,1.04216 -5.01083,1.89853 -6.00001,1.90305 -0.98917,0.004 -3.40808,0.84797 -5.37534,1.87433 -1.96727,1.02636 -5.45768,2.27922 -7.75648,2.78412 -2.2988,0.50491 -5.78922,1.75776 -7.75648,2.78412 -1.96727,1.02636 -4.38618,1.86982 -5.37535,1.87434 -0.98917,0.004 -3.68917,0.83668 -6,1.84925 -2.31083,1.01257 -9.00151,3.46415 -14.86817,5.44793 -5.86667,1.98379 -11.86667,4.12838 -13.33334,4.76574 -1.46666,0.63737 -7.46666,2.73312 -13.33333,4.65722 -5.86667,1.92412 -12.55735,4.35107 -14.86817,5.39323 -2.31083,1.04216 -5.01083,1.89853 -6.00001,1.90305 -0.98917,0.004 -3.40808,0.84798 -5.37534,1.87434 -1.96727,1.02636 -5.47984,2.28408 -7.80571,2.79493 -2.32587,0.51084 -6.91616,2.11754 -10.20063,3.57042 -3.28447,1.45288 -6.20885,2.40452 -6.49861,2.11474 -0.28976,-0.28976 0.0566,-4.08989 0.76976,-8.44473 0.71313,-4.35486 1.30007,-19.04615 1.30432,-32.64732 l 0.008,-24.7294 11,-5.16026 c 6.05,-2.83814 16.1,-7.51301 22.33334,-10.38861 6.23333,-2.87559 14.93333,-6.92213 19.33333,-8.99232 4.4,-2.07019 13.4,-6.27019 20,-9.33333 6.6,-3.06315 15.6,-7.25601 20,-9.31747 4.4,-2.06147 11.3,-5.24923 15.33333,-7.08391 4.03334,-1.83469 12.43334,-5.71549 18.66667,-8.624 6.23334,-2.90852 15.83334,-7.38855 21.33334,-9.95561 5.5,-2.56708 14.2,-6.60272 19.33333,-8.96808 5.13333,-2.36536 13.53333,-6.27642 18.66667,-8.69122 5.13333,-2.4148 12.63333,-5.89569 16.66666,-7.7353 4.03334,-1.83963 12.04115,-5.53323 17.79515,-8.208 l 10.46182,-4.86324 5.53818,2.60433 c 28.11335,13.22031 47.67627,22.47339 71.17546,33.66529 6.03382,2.87372 16.83383,7.9667 24,11.31771 12.80859,5.98949 17.03431,7.98503 46.36273,21.89412 8.06667,3.82564 19.76667,9.3334 26,12.23947 6.23334,2.90605 15.53334,7.28087 20.66667,9.7218 26.59374,12.64547 35.44599,16.67077 36.66156,16.67077 0.86,0 1.33844,11.91532 1.33844,33.33334 0,18.33333 -0.45,33.29125 -1,33.23983 -0.55,-0.0515 -4.3,-1.27675 -8.33333,-2.72294 z"
     style="fill:#2e0e61;stroke-width:1.33333337" />
</svg>
