<?xml version="1.0" encoding="UTF-8" standalone="no"?>
<!-- Created with Inkscape (http://www.inkscape.org/) -->

<svg
   xmlns:dc="http://purl.org/dc/elements/1.1/"
   xmlns:cc="http://creativecommons.org/ns#"
   xmlns:rdf="http://www.w3.org/1999/02/22-rdf-syntax-ns#"
   xmlns:svg="http://www.w3.org/2000/svg"
   xmlns="http://www.w3.org/2000/svg"
   xmlns:xlink="http://www.w3.org/1999/xlink"
   xmlns:sodipodi="http://sodipodi.sourceforge.net/DTD/sodipodi-0.dtd"
   xmlns:inkscape="http://www.inkscape.org/namespaces/inkscape"
   version="1.1"
   id="svg46"
   width="666.66669"
   height="666.66669"
   viewBox="0 0 666.66669 666.66669"
   sodipodi:docname="history.svg"
   inkscape:version="0.92.3 (2405546, 2018-03-11)">
  <metadata
     id="metadata52">
    <rdf:RDF>
      <cc:Work
         rdf:about="">
        <dc:format>image/svg+xml</dc:format>
        <dc:type
           rdf:resource="http://purl.org/dc/dcmitype/StillImage" />
        <dc:title></dc:title>
      </cc:Work>
    </rdf:RDF>
  </metadata>
  <defs
     id="defs50" />
  <sodipodi:namedview
     pagecolor="#ffffff"
     bordercolor="#666666"
     borderopacity="1"
     objecttolerance="10"
     gridtolerance="10"
     guidetolerance="10"
     inkscape:pageopacity="0"
     inkscape:pageshadow="2"
     inkscape:window-width="1366"
     inkscape:window-height="705"
     id="namedview48"
     showgrid="false"
     inkscape:zoom="0.35399999"
     inkscape:cx="333.33334"
     inkscape:cy="333.33334"
     inkscape:window-x="-8"
     inkscape:window-y="-8"
     inkscape:window-maximized="1"
     inkscape:current-layer="svg46" />
  <image
     sodipodi:absref="E:\Project-website\tanyabudi\public\assets\images\icon\history.png"
     xlink:href="history.png"
     y="0"
     x="0"
     id="image54"
     preserveAspectRatio="none"
     height="666.66669"
     width="666.66669" />
  <path
     inkscape:connector-curvature="0"
     id="path70"
     d="m 299.33334,596.63074 c -17.72153,-2.87111 -37.50921,-7.98451 -46.86817,-12.11139 -2.31083,-1.01896 -4.74121,-1.85266 -5.40084,-1.85266 -3.12963,0 -36.21802,-16.66172 -46.69004,-23.51086 -27.60814,-18.05685 -56.86147,-45.88323 -73.60268,-70.01239 -15.81206,-22.78997 -31.8009,-55.54661 -38.226994,-78.31635 -7.737283,-27.4157 -9.702259,-42.97532 -9.702259,-76.82708 0,-33.85176 1.964976,-49.41137 9.702259,-76.82708 6.960693,-24.66399 26.658704,-63.99446 41.386514,-82.63527 1.50455,-1.90429 4.81777,-6.10429 7.36271,-9.33333 13.68849,-17.36804 41.50778,-42.25666 62.75566,-56.14456 10.3824,-6.78607 43.95036,-23.726434 47.01483,-23.726434 0.65963,0 3.09001,-0.833701 5.40084,-1.852669 4.96031,-2.187269 20.11932,-6.73471 29.53484,-8.85994 15.89337,-3.587385 30.70481,-5.117441 50.33333,-5.199547 l 21.00001,-0.08784 V 84.000003 98.66667 l -11.66667,0.09476 c -24.12431,0.195945 -64.63224,6.73814 -73.98191,11.94837 -1.27339,0.70961 -2.98271,1.2902 -3.79849,1.2902 -1.49431,0 -3.60275,0.86929 -17.47036,7.20288 -4.17127,1.90509 -7.86487,3.46379 -8.20802,3.46379 -1.28575,0 -24.44085,13.97896 -30.20789,18.2368 -3.3,2.43642 -7.2,5.30599 -8.66667,6.37684 -6.12389,4.47123 -23.25488,20.70242 -31.01541,29.38636 -11.41959,12.77838 -12.71902,14.40482 -18.44064,23.08159 -2.75096,4.1718 -6.09874,9.21079 -7.43951,11.19776 C 141.097,212.93299 140,214.85658 140,215.22067 c 0,0.3641 -1.67304,3.53839 -3.71785,7.05399 -4.77525,8.20995 -11.5011,23.42339 -14.72683,33.3111 -5.83208,17.87686 -6.93943,21.99642 -8.93909,33.2551 -5.47126,30.80495 -5.46922,59.39349 0.006,90.3183 1.98534,11.21255 3.16474,15.61087 8.80617,32.84085 4.07611,12.44922 11.51274,28.65565 18.35476,40.00001 1.54802,2.56666 3.9751,6.78517 5.39351,9.37446 6.14203,11.21216 23.85411,32.04592 40.0849,47.14971 8.52209,7.93036 10.21248,9.31072 22.73798,18.56783 8.54947,6.31856 27.18306,16.99385 37.33334,21.38847 4.76667,2.06376 10.55735,4.59992 12.86817,5.6359 2.31083,1.036 4.86898,1.88363 5.68476,1.88363 0.81579,0 2.52511,0.58059 3.7985,1.2902 1.27338,0.70961 6.21524,2.28848 10.9819,3.5086 26.707,6.83619 54.39184,9.48609 77.66667,7.434 21.99786,-1.93949 49.45795,-7.30703 55.98191,-10.9426 1.27339,-0.70961 2.98271,-1.2902 3.79849,-1.2902 0.81579,0 3.37394,-0.84763 5.68476,-1.88363 2.31083,-1.03598 8.10151,-3.56178 12.86818,-5.61289 4.76667,-2.05109 13.76667,-6.70388 20,-10.33952 10.2352,-5.96977 14.17024,-8.63396 27.32729,-18.5018 16.29364,-12.22028 44.85697,-43.73504 52.82893,-58.2877 1.41841,-2.58929 3.84549,-6.8078 5.3935,-9.37446 9.18723,-15.2328 15.02591,-29.03497 22.84344,-54.00001 4.8103,-15.36156 8.58755,-42.6148 8.82408,-63.66666 l 0.11615,-10.33334 h 14.66667 14.66666 l -0.0879,19.66667 c -0.19908,44.56985 -11.23859,83.41227 -35.71275,125.65499 -13.67019,23.59492 -20.73664,32.66859 -42.13394,54.10208 -21.3909,21.42708 -40.2495,35.1282 -66.5384,48.34139 -16.924,8.50625 -22.18076,10.90155 -23.92473,10.90155 -0.65963,0 -3.09001,0.8337 -5.40084,1.85266 -9.59906,4.23275 -29.20302,9.25106 -47.53484,12.16819 -14.70268,2.33963 -66.09842,2.30344 -80.66667,-0.0568 z M 425.33335,413.98185 c -5.5,-3.92994 -12.87138,-9.13356 -16.38083,-11.5636 -3.50945,-2.43002 -9.33808,-6.51824 -12.95251,-9.0849 -3.61442,-2.56667 -9.61442,-6.76667 -13.33333,-9.33334 -3.71891,-2.56666 -9.681,-6.76666 -13.24909,-9.33333 -3.5681,-2.56667 -7.806,-5.56667 -9.41758,-6.66667 -1.61157,-1.1 -5.84948,-4.1 -9.41757,-6.66666 -3.56809,-2.56667 -9.60935,-6.76667 -13.425,-9.33334 -3.81567,-2.56666 -8.63704,-6.38012 -10.71416,-8.47434 l -3.7766,-3.80767 v -91.859 -91.85899 h 16 16 l 0.008,84.33333 0.008,84.33334 19.4426,13.33333 c 10.69344,7.33334 20.13964,13.93334 20.99156,14.66667 0.85192,0.73333 4.24895,3.13164 7.54895,5.32959 3.3,2.19793 6.3,4.29962 6.66666,4.67041 0.36667,0.37079 3.36667,2.47079 6.66667,4.66667 3.3,2.19588 6.3,4.29588 6.66667,4.66666 0.36666,0.37079 3.36666,2.47248 6.66667,4.67042 3.3,2.19794 6.70805,4.59625 7.57344,5.32958 0.8654,0.73334 4.65441,3.43334 8.42004,6 3.76562,2.56667 8.10318,5.61962 9.63901,6.78431 l 2.79241,2.11765 -4.49981,6.54902 c -5.85849,8.52644 -14.52905,17.91006 -16.42824,17.77929 -0.82327,-0.0567 -5.99685,-3.31847 -11.49686,-7.24843 z M 571.8683,277.19233 c -2.64512,-2.8316 -3.86828,-5.52744 -3.86828,-8.52565 0,-6.78675 6.17585,-12.66667 13.30417,-12.66667 11.67756,0 17.78,13.26316 9.9752,21.68029 -2.7374,2.95216 -4.55337,3.65304 -9.46505,3.65304 -5.07983,0 -6.71291,-0.67993 -9.94604,-4.14101 z M 547.89746,217.4359 c -5.61776,-5.61776 -5.51592,-13.52079 0.24357,-18.90095 2.6343,-2.46081 5.57372,-3.86828 8.07868,-3.86828 2.66691,0 3.62656,-0.50341 2.9736,-1.55992 -0.65729,-1.06353 -0.22334,-1.27566 1.3637,-0.66666 1.28028,0.49129 2.5787,0.89325 2.8854,0.89325 0.30668,0 0.55761,0.64003 0.55761,1.42229 0,0.78227 1.5,3.3889 3.33333,5.79252 3.83124,5.02302 4.16831,8.6363 1.31954,14.14522 -4.06626,7.86326 -14.28451,9.21346 -20.75543,2.74253 z M 510.6404,166.64213 c -3.97724,-3.71531 -4.25954,-4.53167 -3.6741,-10.62451 0.79836,-8.30872 4.58194,-11.90929 12.58186,-11.97325 4.58703,-0.0367 6.14611,0.66629 9.00001,4.05794 5.07393,6.03003 4.79592,13.57226 -0.68916,18.69608 -5.62971,5.25895 -11.47842,5.20587 -17.21861,-0.15626 z m -53.40961,-39.87289 c -5.61776,-5.61777 -5.51592,-13.52079 0.24357,-18.90096 12.62602,-11.794463 30.63639,6.48253 18.4231,18.69583 -5.66884,5.66883 -13.12107,5.75072 -18.66667,0.20513 z M 395.42828,102.1759 c -6.22921,-5.874911 -6.53252,-11.998108 -0.89332,-18.03489 3.13287,-3.353745 4.92676,-4.141007 9.43589,-4.141007 14.27058,0 18.55386,18.64645 5.78348,25.177277 -5.07222,2.59396 -9.34168,1.69949 -14.32605,-3.00138 z"
     style="fill:#e6e6e6;stroke-width:1.33333337" />
  <path
     inkscape:connector-curvature="0"
     id="path68"
     d="m 308.00001,597.80959 c -7.80499,-0.96424 -30.92084,-5.84952 -38,-8.03088 -13.42905,-4.138 -22.73045,-7.21845 -25.33333,-8.38993 -28.69921,-12.91661 -43.79627,-21.58401 -62.58999,-35.93357 -45.52518,-34.75985 -78.10809,-83.01549 -94.612358,-140.12186 -7.066071,-24.44931 -8.126968,-33.76118 -8.126968,-71.33334 0,-37.57216 1.060897,-46.88403 8.126968,-71.33333 16.474518,-57.00347 49.245058,-105.57717 94.459138,-140.0108 16.87138,-12.84871 23.23855,-16.7702 43.40987,-26.735758 19.88895,-9.82605 19.85566,-9.811575 30,-13.043468 32.48604,-10.349751 43.95227,-12.424065 73.0469,-13.214653 l 25.04689,-0.680599 -0.38022,14.509301 -0.38023,14.5093 -20,0.913292 c -27.28655,1.246025 -43.85406,4.204625 -66.12744,11.808925 -136.94422,46.75376 -199.111071,206.69123 -130.46022,335.63672 17.19815,32.30293 42.99168,61.16101 73.86689,82.64308 20.47486,14.2458 54.70291,29.39281 77.92666,34.48503 20.28015,4.44678 26.04612,4.99982 52.12744,4.99982 26.08132,0 31.8473,-0.55304 52.12744,-4.99982 23.22375,-5.09222 57.45181,-20.23923 77.92666,-34.48503 61.24559,-42.61288 97.849,-108.84297 101.58891,-183.81455 l 1.02367,-20.52079 14.51416,-0.38028 14.51416,-0.38027 -0.72015,23.7136 c -0.977,32.1719 -5.23501,52.46683 -17.98329,85.71362 -12.5885,32.83008 -40.29154,73.30983 -65.69931,96 -26.0957,23.3045 -45.59423,35.68882 -81.95891,52.05543 -1.46667,0.66011 -6.26667,2.35567 -10.66667,3.76793 -35.10808,11.26858 -42.55299,12.46704 -80,12.87812 -17.6,0.19322 -34.1,0.0919 -36.66667,-0.22524 z m 121.94391,-181.262 c -6.12584,-4.44507 -43.56116,-30.65486 -81.16273,-56.82488 -8.73702,-6.08082 -17.88702,-12.76819 -20.33334,-14.86082 l -4.44784,-3.80478 v -92.52855 -92.52855 h 15.33334 15.33333 v 84.38483 84.38481 l 9.39911,6.61519 c 5.1695,3.63835 14.9195,10.52172 21.66666,15.2964 6.74716,4.77467 25.00647,17.56403 40.57626,28.42079 15.56979,10.85676 28.66851,20.32174 29.10828,21.03332 1.13269,1.83274 -6.22533,12.82954 -13.07224,19.53685 l -5.79025,5.67219 z M 572.60609,278.06061 c -2.50614,-2.50612 -3.27274,-4.67972 -3.27274,-9.27937 0,-7.86555 4.78884,-12.78123 12.45143,-12.78123 6.69057,0 12.88191,6.08789 12.88191,12.66667 0,2.99821 -1.22316,5.69405 -3.86828,8.52565 -5.09142,5.45039 -13.22218,5.83844 -18.19232,0.86828 z m -24.50351,-60.82983 c -5.55193,-5.55195 -5.6272,-11.91127 -0.20512,-17.33333 2.25145,-2.25147 5.32051,-3.89744 7.26708,-3.89744 1.85329,0 3.90539,-0.95734 4.56019,-2.1274 0.98368,-1.75772 1.92194,-1.13287 5.39958,3.59601 5.66344,7.70107 5.76968,14.5092 0.3116,19.96728 -5.42206,5.42208 -11.78138,5.34681 -17.33333,-0.20512 z m -35.06904,-48.64251 c -4.61095,-2.50228 -6.36686,-5.80226 -6.36686,-11.96566 0,-3.74667 0.96564,-5.78808 4.14102,-8.75432 4.6231,-4.31864 8.76618,-4.84662 14.55235,-1.85448 4.6884,2.42446 6.63997,5.73944 6.63997,11.27878 0,5.50295 -3.24917,10.18482 -8.28695,11.94099 -5.22375,1.82101 -6.24899,1.75905 -10.67953,-0.64531 z M 460.14678,128.806 c -11.63786,-6.45037 -6.94007,-23.47266 6.47794,-23.47266 7.56818,0 12.04196,4.47379 12.04196,12.04196 0,10.17645 -9.83298,16.24549 -18.5199,11.4307 z m -64.87403,-26.74539 c -5.2239,-5.223881 -4.87282,-13.111562 0.81868,-18.39394 6.51624,-6.047827 15.5766,-4.253258 19.75253,3.912345 2.47089,4.831572 1.69917,9.247726 -2.37889,13.613315 -5.09142,5.45037 -13.22218,5.83844 -18.19232,0.86828 z"
     style="fill:#d0d0d0;stroke-width:1.33333337" />
  <path
     inkscape:connector-curvature="0"
     id="path66"
     d="M 308.00001,597.36006 C 268.06012,591.03407 236.30909,579.93618 206.33286,561.82445 153.2493,529.75119 111.67279,477.72834 92.114262,418.90772 81.928371,388.27453 79.333336,371.17025 79.333336,334.66668 c 0,-37.34595 2.654751,-55.12078 12.780926,-85.57438 C 111.66327,190.30033 153.25517,138.24423 206.27329,106.21177 244.94776,82.845446 291.8096,69.333336 334.17272,69.333336 h 17.82729 v 14.469398 14.469399 l -21.66667,0.746656 c -33.36289,1.149721 -62.56616,8.404351 -90.91549,22.585101 -97.55926,48.80054 -148.625841,153.98617 -126.74341,261.06279 18.80464,92.01614 89.8127,163.01706 182.92961,182.91123 12.61103,2.69431 18.11563,3.07566 44.39596,3.07566 26.28034,0 31.78494,-0.38135 44.39596,-3.07566 93.11793,-19.89438 164.01496,-90.77763 182.94678,-182.91123 2.75844,-13.4242 6.60168,-51.64952 5.66234,-56.31814 -0.25216,-1.25328 3.36144,-1.77878 14.18066,-2.06218 l 14.51908,-0.38034 -0.75144,22.38034 c -2.16028,64.34156 -28.14816,125.22486 -73.46549,172.11184 -43.13146,44.62539 -91.21124,68.94281 -156.15455,78.97862 -9.1681,1.41676 -54.35813,1.4048 -63.33334,-0.0168 z M 397.33335,393.2212 c -38.97819,-27.36537 -42.52455,-29.84379 -57.21572,-39.98595 -4.70199,-3.24605 -10.25199,-7.49262 -12.33334,-9.43685 l -3.78428,-3.53495 v -92.13172 -92.13172 h 15.32347 15.32347 l 0.3432,84.89225 0.3432,84.89227 49.33333,34.52594 c 27.13334,18.98925 49.84932,35.03372 50.47998,35.65437 2.02181,1.98975 -14.84902,24.09952 -18.30179,23.98507 -0.83133,-0.0275 -18.61152,-12.05547 -39.51152,-26.72871 z M 573.23079,277.4359 c -2.88548,-2.88546 -3.89744,-5.16238 -3.89744,-8.76922 0,-6.25994 5.92672,-12.66667 11.71763,-12.66667 4.65753,0 10.64201,4.35219 12.42196,9.03383 1.85863,4.88854 -0.84492,11.90628 -5.51776,14.32269 -5.86432,3.03256 -10.35725,2.44651 -14.72439,-1.92063 z m -24.69744,-60.63589 c -4.98205,-4.98206 -5.56665,-8.26755 -2.51953,-14.16003 2.33111,-4.50784 5.72364,-6.63997 10.56521,-6.63997 1.88155,0 3.42099,-0.69299 3.42099,-1.53999 0,-2.17957 5.24193,2.82899 7.46984,7.13729 3.74933,7.2504 1.85061,14.29522 -4.77648,17.72223 -5.89248,3.04712 -9.17797,2.46252 -14.16003,-2.51953 z M 510.56412,165.4359 c -6.27996,-6.27996 -4.57622,-15.54452 3.56943,-19.40989 5.63561,-2.67428 10.24358,-1.54736 14.53707,3.55516 4.54988,5.40722 4.35184,10.93486 -0.56804,15.85473 -5.37908,5.37909 -12.15938,5.37909 -17.53846,0 z m -50.00369,-37.28319 c -11.49913,-7.01215 -7.19863,-22.81937 6.20823,-22.81937 12.8734,0 16.78716,17.3576 5.25805,23.31953 -5.02229,2.59712 -6.49225,2.533 -11.46628,-0.50016 z m -64.45811,-26.27123 c -11.10559,-9.344734 2.41949,-28.104671 14.27531,-19.800538 5.13946,3.59983 7.34288,9.372589 5.59681,14.663235 -2.95289,8.947333 -12.43192,11.397823 -19.87212,5.137303 z"
     style="fill:#b0b0b0;stroke-width:1.33333337" />
  <path
     inkscape:connector-curvature="0"
     id="path64"
     d="M 310.12889,597.14827 C 272.3131,592.29586 234.41239,578.97089 203.64135,559.70983 138.28179,518.79816 95.655663,454.52576 81.803055,376.00001 c -3.48268,-19.74213 -3.48268,-64.25787 0,-84 C 91.632126,236.28233 114.86543,189.47206 152.33998,149.88278 199.65209,99.900802 269.96789,69.333336 337.63171,69.333336 h 14.3683 v 14 14.000001 h -10.27956 c -21.60041,0 -53.71668,5.243153 -73.72044,12.035263 -72.31618,24.55435 -128.01038,81.80315 -150.43235,154.63141 -7.20426,23.39997 -10.11986,43.56743 -10.11986,70 0,31.67248 4.87699,58.45747 15.65882,86 31.26903,79.87777 101.31944,135.81826 185.56006,148.18358 24.95528,3.66307 60.069,1.85183 85.33333,-4.40168 79.35401,-19.64197 143.04448,-79.56529 167.96046,-158.026 6.35195,-20.00234 11.37288,-51.82492 11.37288,-72.08106 v -9.67484 h 14.19144 14.19143 l -0.77372,20.33334 c -3.37401,88.66736 -49.47231,168.36059 -124.58383,215.37648 -31.53399,19.73863 -68.86444,32.68262 -108.32368,37.56024 -13.23104,1.63552 -44.7273,1.56927 -57.9061,-0.12173 z m 99.87112,-195.28998 c -13.93333,-9.88661 -27.73333,-19.62909 -30.66666,-21.64996 -30.94344,-21.3179 -51.07294,-35.79173 -52.97035,-38.08757 -2.1327,-2.58052 -2.3059,-9.5947 -2.33334,-94.49775 l -0.0297,-91.71034 15,0.377 15,0.377 0.36476,84.66667 0.36478,84.66667 6.30189,4.22873 c 3.46605,2.3258 9.60191,6.57174 13.63524,9.43539 14.75867,10.47866 22.75308,16.06572 51.03836,35.66922 15.87155,11 28.88083,20.84336 28.90951,21.87414 0.0856,3.07926 -16.18012,22.9829 -18.55881,22.7095 -0.39731,-0.0456 -12.12239,-8.17208 -26.05573,-18.0587 z M 573.47437,277.46506 c -6.98339,-6.52345 -5.11114,-16.41617 3.80588,-20.10972 3.25817,-1.34958 4.84804,-1.34958 8.10621,0 8.76363,3.63002 10.73321,13.39682 4.04945,20.08056 -5.14768,5.1477 -10.47173,5.15742 -15.96154,0.0292 z m -24.86828,-60.73779 c -3.25547,-3.25545 -4.33594,-9.73852 -2.4445,-14.66753 1.06724,-2.78119 6.68147,-5.66747 12.13715,-6.23973 3.58856,-0.37642 4.83463,0.29446 7.66016,4.12426 4.30269,5.83198 4.27871,10.7765 -0.0773,15.95343 -4.54215,5.39804 -12.33286,5.77215 -17.27542,0.82957 z m -38.07113,-51.53494 c -5.12825,-5.48982 -5.11853,-10.81387 0.0292,-15.96155 6.68375,-6.68376 16.45055,-4.71417 20.08057,4.04945 1.34958,3.25818 1.34958,4.84804 0,8.10622 -3.69355,8.91701 -13.58627,10.78926 -20.10973,3.80588 z m -52.59554,-39.13172 c -2.21492,-2.21492 -3.27274,-4.76543 -3.27274,-7.89095 0,-6.45857 1.08851,-8.64123 5.4287,-10.88564 5.81444,-3.00676 10.31781,-2.40931 14.67386,1.94675 4.96866,4.96865 5.12112,10.4437 0.44559,16.00027 -4.54215,5.39803 -12.33285,5.77214 -17.27541,0.82957 z m -62.2089,-24.79163 c -3.60052,-3.600531 -3.97881,-4.702162 -3.31476,-9.653046 0.93645,-6.981766 4.722,-10.282598 11.79257,-10.282598 11.15139,0 15.90128,12.095529 7.89424,20.102564 -5.3032,5.3032 -10.95958,5.24553 -16.37205,-0.16692 z"
     style="fill:#8d8d8d;stroke-width:1.33333337" />
  <path
     inkscape:connector-curvature="0"
     id="path62"
     d="m 310.00001,596.6313 c -31.90259,-4.51817 -54.64303,-11.11233 -80,-23.19801 C 186.29283,552.60153 152.9965,524.16458 124.91384,483.6838 89.846443,433.13462 73.007757,364.51333 80.770213,303.789 88.934822,239.9187 114.70195,187.2855 159.21083,143.5623 180.01405,123.12632 201.93599,107.96555 230.00001,94.605985 262.72329,79.028424 294.73976,71.343688 333.66668,69.723441 l 18.33333,-0.763084 v 14.18649 14.18649 h -12.59837 c -82.40974,0 -160.7221,46.477003 -202.13437,119.963153 -12.67821,22.49752 -22.34073,49.7074 -27.47499,77.37019 -1.74512,9.40254 -2.35095,19.5385 -2.35095,39.33333 0,29.2804 1.54091,40.95734 8.70945,66 32.26447,112.71295 142.47747,184.88236 256.68187,168.07977 34.77943,-5.117 65.05198,-16.68524 94.24803,-36.01557 63.56263,-42.08401 102.49582,-111.3794 105.84997,-188.39753 l 0.79842,-18.33334 h 13.80214 13.80214 v 11.21102 c 0,22.57675 -5.87936,57.51672 -13.4822,80.12232 -14.14737,42.0645 -35.12718,76.06703 -65.81685,106.67111 -31.91494,31.82592 -74.87972,56.05686 -119.31439,67.28995 -27.45014,6.9394 -67.70687,9.546 -92.7199,6.00356 z m 72.00206,-214.78665 c -28.59887,-20.12253 -53.35305,-38.04782 -55.00927,-39.834 l -3.01132,-3.24758 0.3426,-91.04819 0.3426,-91.04821 h 14.37243 14.37242 l -0.0581,84.24613 -0.0581,84.24612 50.68569,35.49444 c 27.87716,19.52193 50.68572,35.97491 50.68572,36.56215 0,1.27989 -8.38201,12.64141 -13.12061,17.7845 -1.85807,2.01667 -4.31604,3.61366 -5.46217,3.54886 -1.14614,-0.0648 -25.48297,-16.5817 -54.08183,-36.70422 z m 194.6323,-102.37256 c -4.13875,-1.80325 -7.30102,-6.84371 -7.30102,-11.63739 0,-1.48856 1.75384,-4.46033 3.89744,-6.60392 6.96763,-6.96762 17.81123,-4.35994 19.50931,4.69163 1.17488,6.26264 -0.2682,9.82868 -5.19247,12.83128 -4.92513,3.00313 -5.57173,3.04569 -10.91326,0.7184 z m -25.65374,-60.85414 c -6.46082,-2.5956 -7.4365,-13.03385 -1.74984,-18.7205 5.24319,-5.2432 12.06746,-5.39108 16.03476,-0.34747 3.9851,5.06624 4.59431,8.89763 2.16251,13.60023 -3.33988,6.4586 -9.16273,8.39433 -16.44743,5.46774 z m -37.8392,-51.30648 c -11.35673,-6.16958 -3.87304,-24.62604 8.70525,-21.46909 5.66807,1.4226 8.82001,5.48667 8.82001,11.37244 0,4.18628 -0.8091,5.89561 -4.10231,8.66667 -4.59556,3.8669 -8.22535,4.2536 -13.42295,1.42998 z M 458.56412,125.4359 c -2.66,-2.65999 -3.89744,-5.23257 -3.89744,-8.10256 0,-4.90113 6.21232,-12 10.50136,-12 6.99223,0 13.49864,6.44426 13.49864,13.36968 0,1.5595 -1.75384,4.58929 -3.89744,6.73288 -5.24001,5.24001 -10.9651,5.24001 -16.20512,0 z m -59.75068,-21.96324 c -7.44464,-4.126246 -8.69029,-12.467591 -2.74907,-18.408814 3.55471,-3.554703 4.73808,-3.973996 9.43708,-3.34373 11.23363,1.506747 14.35339,15.155621 4.79611,20.982924 -5.0026,3.05022 -7.11413,3.19172 -11.48412,0.76962 z"
     style="fill:#6f6f6f;stroke-width:1.33333337" />
  <path
     inkscape:connector-curvature="0"
     id="path60"
     d="m 326.66668,598.28785 c -0.36667,-0.37167 -7.10488,-1.36251 -14.97382,-2.20187 C 200.7855,584.25575 109.37161,501.1058 85.48449,390.32716 65.963408,299.79641 94.31545,206.60637 160.8435,142.63038 208.46433,96.836313 264.84246,73.428837 336.33335,69.769254 l 15.66666,-0.801968 v 13.996261 13.996262 l -21.66667,0.754365 C 271.16129,99.774361 217.78607,123.564 175.09197,166.90615 c -19.32146,19.61472 -31.47734,36.43763 -42.91703,59.39418 -11.4402,22.95759 -16.50909,37.99941 -22.36457,66.36635 -3.55726,17.23314 -3.55726,65.43352 0,82.66667 5.83066,28.2467 10.93248,43.42288 22.20154,66.04195 28.85359,57.91448 85.11912,104.70777 145.55134,121.04795 24.25911,6.55937 32.64303,7.57677 62.43676,7.57677 22.6838,0 31.17112,-0.51499 40.66667,-2.46753 40.08249,-8.24207 68.8301,-21.07694 99.33334,-44.34913 56.26857,-42.92962 90.25668,-107.85116 92.9346,-177.51668 l 0.7816,-20.33334 h 13.98335 13.98333 l -0.73901,13.66667 c -2.50644,46.35155 -11.16659,80.15834 -29.97143,117.00001 -24.37479,47.75409 -64.58843,88.17537 -112.30578,112.88564 -35.36468,18.31349 -70.21173,27.17143 -115.33333,29.31711 -8.8,0.41846 -16.30001,0.45676 -16.66667,0.0851 z m 96.66667,-188.03716 c -11.3095,-7.91333 -16.07798,-11.2629 -33,-23.18056 -3.85,-2.71144 -19,-13.2894 -33.66667,-23.5066 -14.66667,-10.2172 -28.01368,-20.14874 -29.66004,-22.07012 l -2.99339,-3.4934 -0.007,-90.33333 -0.007,-90.33334 h 14.66667 14.66667 l 0.0409,84.33334 0.0409,84.33333 24.89731,17.33334 c 13.69352,9.53333 29.72511,20.66944 35.62576,24.7469 5.90064,4.07747 14.02844,9.7403 18.06178,12.58408 4.03333,2.84378 10.78333,7.5411 15,10.4385 4.21666,2.8974 7.66666,5.51974 7.66666,5.82744 0,1.80556 -17.07538,21.7471 -18.60393,21.72665 -0.40117,-0.005 -6.1294,-3.78817 -12.7294,-8.40623 z M 575.14711,278.05312 c -1.52877,-1.0708 -3.50954,-3.70919 -4.40172,-5.86308 -2.88749,-6.97103 3.09419,-14.8567 11.26954,-14.8567 4.66229,0 11.31842,6.6649 11.31842,11.33334 0,4.83336 -6.65336,11.33333 -11.60076,11.33333 -2.09324,0 -5.0567,-0.87611 -6.58548,-1.94689 z m -25.91632,-61.95055 c -6.0678,-6.0678 -4.55305,-14.88203 3.09408,-18.00424 7.17383,-2.92898 10.63562,-1.90427 14.00467,4.14546 2.55588,4.58954 2.77956,6.00159 1.52211,9.60871 -1.53792,4.41169 -6.98883,8.14751 -11.88798,8.14751 -1.55949,0 -4.58929,-1.75384 -6.73288,-3.89744 z m -34.08811,-48.09134 c -3.95537,-1.5962 -7.14266,-6.53917 -7.14266,-11.07713 0,-4.9474 6.49997,-11.60076 11.33333,-11.60076 2.13316,0 5.08634,1.54788 7.4359,3.89744 6.13285,6.13285 4.921,14.12579 -2.74254,18.08876 -4.38181,2.26592 -4.88584,2.30516 -8.88403,0.69169 z M 458.56412,125.4359 c -2.1436,-2.14359 -3.89744,-5.17338 -3.89744,-6.73288 0,-4.71025 3.63307,-10.22751 7.89803,-11.99411 3.4728,-1.43848 4.62251,-1.31806 8.39621,0.87947 8.71779,5.07658 9.22452,15.51211 0.96075,19.78547 -5.61204,2.9021 -9.01056,2.40904 -13.35755,-1.93795 z m -59.59735,-22.7672 c -5.59105,-3.41863 -7.64052,-8.489819 -5.50988,-13.63363 3.483,-8.408722 12.2521,-10.197887 18.64568,-3.804298 2.1436,2.14359 3.89744,5.201015 3.89744,6.794278 0,3.756192 -3.87146,10.27991 -6.56469,11.06201 -1.15608,0.33572 -3.00197,0.97966 -4.10197,1.43098 -1.1,0.45131 -3.96496,-0.38089 -6.36658,-1.84934 z"
     style="fill:#4c4c4c;stroke-width:1.33333337" />
  <path
     inkscape:connector-curvature="0"
     id="path58"
     d="m 324.66668,597.20966 c -35.6471,-4.11037 -50.59254,-7.28964 -73.75438,-15.68935 -22.44371,-8.13928 -47.48349,-21.9086 -67.58932,-37.16721 -15.99204,-12.1366 -34.04229,-30.01286 -47.39558,-46.93866 -7.16215,-9.0783 -17.0259,-23.43853 -18.69595,-27.21862 -0.69554,-1.57436 -2.51594,-4.96247 -4.04532,-7.52914 -4.93992,-8.29033 -7.6714,-13.82313 -11.19029,-22.66666 -1.89669,-4.76667 -4.018545,-9.86667 -4.715242,-11.33334 -2.00326,-4.2172 -7.947262,-23.20912 -7.947262,-25.39263 0,-1.08729 -0.57245,-3.01874 -1.272113,-4.29213 -2.174771,-3.95808 -5.555021,-25.68821 -7.990318,-51.36623 -0.934057,-9.84877 -0.929868,-18.67749 0.01333,-28 2.681464,-26.50473 5.8774,-46.77625 7.977035,-50.59759 0.699612,-1.27338 1.272062,-3.20484 1.272062,-4.29213 0,-2.18351 5.944002,-21.17543 7.947262,-25.39263 0.696697,-1.46667 2.818556,-6.56667 4.715246,-11.33333 3.51889,-8.84354 6.25037,-14.37634 11.19029,-22.66667 1.52938,-2.56667 3.34978,-5.95477 4.04532,-7.52913 1.67005,-3.7801 11.5338,-18.14032 18.69595,-27.21863 13.35329,-16.9258 31.40354,-34.80206 47.39558,-46.93865 30.81652,-23.38712 65.3494,-39.253507 102.67703,-47.175725 19.52725,-4.14436 53.24368,-7.631165 61,-6.308353 l 5,0.85273 v 13.158877 13.158878 l -18.33333,0.112506 c -10.08334,0.06188 -21.63334,0.584686 -25.66667,1.16179 -10.22691,1.463297 -28.13788,5.300537 -31.33333,6.712837 -1.46667,0.64823 -4.16667,1.55619 -6,2.0177 -6.90951,1.73934 -28.91343,10.69893 -35.05869,14.27524 -3.5156,2.04596 -6.84514,3.71993 -7.399,3.71993 -1.49318,0 -21.95117,13.71808 -32.06672,21.50229 -10.5402,8.11102 -32.0616,29.79656 -40.65758,40.9677 -13.3403,17.3367 -31.07917,49.43314 -34.74295,62.86335 -0.50014,1.83333 -1.4293,4.53333 -2.06481,6 -1.6094,3.71429 -5.92993,19.2966 -8.87266,32 -2.06883,8.93082 -2.47093,16.30814 -2.47093,45.33333 0,29.02519 0.4021,36.40251 2.47093,45.33334 2.94273,12.7034 7.26326,28.2857 8.87266,32 0.63551,1.46666 1.56467,4.16666 2.06481,6 2.32067,8.50682 12.42078,28.80236 22.104,44.4166 21.02116,33.89673 55.38139,65.55599 91.15427,83.98887 10.99527,5.66559 30.36647,13.54411 36.74705,14.94552 2.47432,0.54345 5.41844,1.49071 6.54252,2.10501 2.34632,1.28228 19.89663,5.05576 30.71043,6.60304 4.03333,0.5771 18.43333,1.04927 32,1.04927 13.56667,0 27.96667,-0.47217 32,-1.04927 10.8138,-1.54728 28.36411,-5.32076 30.71043,-6.60304 1.12408,-0.6143 4.0682,-1.56156 6.54252,-2.10501 11.39349,-2.50243 38.92144,-15.12673 53.41372,-24.49552 22.34666,-14.44638 47.1599,-36.88132 61.6845,-55.7722 14.03343,-18.25206 28.25332,-44.07839 35.46755,-64.41661 9.02537,-25.44412 12.41192,-42.98318 13.1942,-68.33333 l 0.68918,-22.33334 h 13.91359 13.91359 l -0.62952,11.00001 c -1.00988,17.64654 -3.44379,39.91081 -4.84164,44.28928 -0.71011,2.22422 -1.69276,7.20752 -2.18368,11.07397 -0.49092,3.86647 -1.4135,7.35188 -2.05018,7.74536 -0.63666,0.39349 -1.15758,1.86148 -1.15758,3.26221 0,2.77472 -5.64451,20.86866 -8.5151,27.29585 -0.98258,2.2 -3.21796,7.6 -4.9675,12 -14.00096,35.21177 -46.52928,76.56684 -80.50705,102.35308 -30.88562,23.43956 -67.39442,40.19812 -102.15336,46.89123 -4.84531,0.93301 -9.39937,2.06084 -10.12013,2.50629 -1.14462,0.70741 -18.16242,2.39763 -41.73687,4.14532 -4.03333,0.29901 -12.13334,-0.009 -18,-0.68628 z M 429.74163,414.18688 c -3.07546,-2.30277 -8.47546,-6.17048 -12,-8.59489 -3.52456,-2.42442 -10.60828,-7.3408 -15.74162,-10.92531 -5.13333,-3.58451 -12.2047,-8.50089 -15.71416,-10.92531 -3.50945,-2.42441 -9.33808,-6.50802 -12.9525,-9.07469 -3.61443,-2.56667 -9.635,-6.76667 -13.37907,-9.33333 -3.74407,-2.56667 -7.51543,-5.26667 -8.38083,-6 -0.86538,-0.73334 -4.27344,-3.13334 -7.57344,-5.33334 -8.4216,-5.6144 -9.04797,-6.10456 -14.48279,-11.33333 l -4.85054,-4.66667 v -90.33343 -90.33343 l 14.33333,1e-4 14.33334,9e-5 v 84.5722 84.57222 l 5.66666,3.83729 c 3.11667,2.11052 8.66667,5.9491 12.33334,8.53018 3.66666,2.58108 10.86666,7.62104 16,11.1999 5.13333,3.57887 16.53333,11.58674 25.33333,17.79527 8.8,6.20852 19.5997,13.73428 23.99932,16.72392 8.24279,5.60113 8.49807,5.78292 13.84715,9.86071 l 3.1798,2.42406 -5.0452,7.17787 c -10.07197,14.32951 -11.97307,15.35112 -18.90612,10.15992 z M 576.04507,278.29677 c -4.14218,-2.09601 -6.35786,-9.08649 -4.30681,-13.58805 3.97063,-8.71456 14.52033,-9.24267 19.35256,-0.96875 2.18327,3.73825 2.30372,4.89336 0.87101,8.35224 -2.99898,7.24017 -9.13965,9.63389 -15.91676,6.20456 z m -23.89829,-60.15744 c -3.5582,-1.97216 -6.69439,-6.87387 -6.76617,-10.57522 -0.026,-1.33974 1.70658,-4.18974 3.85018,-6.33333 7.09234,-7.09235 16.3053,-4.55047 18.22082,5.02716 1.02252,5.11263 -1.06296,9.12788 -6.09156,11.72827 -4.66182,2.41072 -5.12616,2.41842 -9.21327,0.15312 z M 513.3784,166.29677 c -7.33014,-3.70918 -6.2968,-15.13708 1.7124,-18.9377 4.27564,-2.02892 4.84059,-2.00989 8.9797,0.30246 13.37556,7.47237 2.99655,25.56193 -10.6921,18.63524 z m -52.35125,-39.41036 c -4.87455,-2.95071 -7.20483,-8.63934 -5.27449,-12.87596 2.23385,-4.90279 7.55094,-7.8164 12.46918,-6.83275 5.65667,1.13134 7.55526,2.94483 8.5316,8.14922 1.01812,5.42704 -0.9693,9.36008 -6.06006,11.99262 -4.65103,2.40513 -5.00355,2.38933 -9.66623,-0.43313 z m -62.36047,-24.60583 c -4.72959,-2.383882 -6.55491,-10.217637 -3.47575,-14.917014 3.63395,-5.546103 8.15184,-6.990587 13.26014,-4.239592 6.11085,3.290914 8.32289,8.845137 5.61114,14.089071 -3.39908,6.573115 -8.84926,8.367075 -15.39553,5.067535 z"
     style="fill:#353535;stroke-width:1.33333337" />
</svg>
