<?xml version="1.0" encoding="UTF-8" standalone="no"?>
<!-- Created with Inkscape (http://www.inkscape.org/) -->

<svg
   xmlns:dc="http://purl.org/dc/elements/1.1/"
   xmlns:cc="http://creativecommons.org/ns#"
   xmlns:rdf="http://www.w3.org/1999/02/22-rdf-syntax-ns#"
   xmlns:svg="http://www.w3.org/2000/svg"
   xmlns="http://www.w3.org/2000/svg"
   xmlns:xlink="http://www.w3.org/1999/xlink"
   xmlns:sodipodi="http://sodipodi.sourceforge.net/DTD/sodipodi-0.dtd"
   xmlns:inkscape="http://www.inkscape.org/namespaces/inkscape"
   version="1.1"
   id="svg446"
   width="666.66669"
   height="666.66669"
   viewBox="0 0 666.66669 666.66669"
   sodipodi:docname="home.svg"
   inkscape:version="0.92.3 (2405546, 2018-03-11)">
  <metadata
     id="metadata452">
    <rdf:RDF>
      <cc:Work
         rdf:about="">
        <dc:format>image/svg+xml</dc:format>
        <dc:type
           rdf:resource="http://purl.org/dc/dcmitype/StillImage" />
        <dc:title></dc:title>
      </cc:Work>
    </rdf:RDF>
  </metadata>
  <defs
     id="defs450" />
  <sodipodi:namedview
     pagecolor="#ffffff"
     bordercolor="#666666"
     borderopacity="1"
     objecttolerance="10"
     gridtolerance="10"
     guidetolerance="10"
     inkscape:pageopacity="0"
     inkscape:pageshadow="2"
     inkscape:window-width="1366"
     inkscape:window-height="705"
     id="namedview448"
     showgrid="false"
     inkscape:zoom="0.35399999"
     inkscape:cx="333.33334"
     inkscape:cy="333.33334"
     inkscape:window-x="-8"
     inkscape:window-y="-8"
     inkscape:window-maximized="1"
     inkscape:current-layer="svg446" />
  <image
     sodipodi:absref="E:\Project-website\tanyabudi\public\assets\images\icon\home.png"
     xlink:href="home.png"
     y="0"
     x="0"
     id="image454"
     preserveAspectRatio="none"
     height="666.66669"
     width="666.66669" />
  <path
     inkscape:connector-curvature="0"
     id="path470"
     d="m 57.240342,599.46479 c -2.591611,-1.76105 -6.480892,-5.81105 -8.642847,-9 l -3.930827,-5.7981 -0.348134,-173.17553 c -0.32972,-164.01526 -0.223928,-173.26979 2,-174.95761 1.291473,-0.98013 3.379885,-1.80114 4.640913,-1.82448 1.261028,-0.0233 4.411028,-1.2424 7,-2.70906 2.588972,-1.46667 6.725019,-3.81024 9.191215,-5.20795 2.466195,-1.39772 5.916195,-3.34772 7.666667,-4.33333 1.750471,-0.98563 3.482674,-2.09206 3.84934,-2.45872 0.366667,-0.36667 2.09887,-1.4731 3.849341,-2.45872 7.168573,-4.03636 13.677839,-7.7397 25.81733,-14.68835 2.38333,-1.36423 7.50973,-4.36423 11.39201,-6.66667 3.88227,-2.30245 7.38965,-4.18626 7.79417,-4.18626 0.40452,0 2.32812,-1.12975 4.27466,-2.51056 1.94653,-1.3808 5.78916,-3.7808 8.53916,-5.33334 11.62811,-6.5647 37.36189,-21.40542 87,-50.17305 11.42347,-6.62045 55.68148,-32.20173 68,-39.304243 2.2,-1.268459 7.3,-4.29397 11.33334,-6.723358 19.8748,-11.971144 25.07822,-13.623636 31.79428,-10.097167 1.94648,1.022059 8.63905,4.353483 14.87239,7.403164 6.23333,3.049682 14.93333,7.663127 19.33333,10.252103 4.4,2.588975 11,6.369551 14.66667,8.401281 3.66666,2.03173 9.84306,5.58205 13.72534,7.88961 3.88227,2.30755 7.34419,4.19555 7.69316,4.19555 0.34896,0 2.87256,1.40987 5.60799,3.13304 2.73543,1.72317 9.17351,5.42292 14.30684,8.22168 5.13334,2.79875 9.63334,5.43984 10,5.86909 0.36667,0.42925 2.46667,1.66805 4.66667,2.75289 2.2,1.08485 9.90581,5.43389 17.12404,9.66455 7.21823,4.23065 13.26873,7.69209 13.44556,7.69209 0.34641,0 32.11781,17.85939 35.4304,19.91619 3.16371,1.96436 36.97698,21.32069 48,27.47749 5.5,3.07197 13,7.26113 16.66667,9.30924 3.66667,2.04811 7.86667,4.3778 9.33333,5.17712 1.46667,0.79931 3.56667,2.14027 4.66667,2.97989 1.1,0.83963 7.39484,4.38124 13.98855,7.87024 15.87314,8.39914 21.00517,11.27799 23.01145,12.90851 2.38858,1.9412 2.44511,337.76475 0.0577,343.2986 -3.03136,7.02676 -9.02127,14.82265 -13.52979,17.60908 l -4.50938,2.78699 H 334.48548 61.952361 Z M 310.20152,544.33335 c -0.47126,-10.81666 -1.25296,-55.49959 -1.73712,-99.29539 -0.85723,-77.54263 -0.81371,-79.65145 1.661,-80.49675 1.3977,-0.47742 5.50908,-2.2945 9.1364,-4.03796 3.62732,-1.74345 8.90122,-3.1699 11.71978,-3.1699 6.10291,0 14.89933,4.18884 17.53574,8.35048 2.22285,3.50884 4.83904,88.81425 4.82464,157.31619 l -0.009,41 H 470.00002 586.66669 V 415.45536 266.9107 l -13.66667,-7.65076 c -7.51667,-4.20792 -16.36667,-9.1572 -19.66667,-10.9984 -3.3,-1.84118 -14.4,-8.1213 -24.66666,-13.95583 -10.26667,-5.8345 -22.56667,-12.73242 -27.33334,-15.3287 -4.76667,-2.59627 -10.25929,-5.82822 -12.20583,-7.18208 -1.94653,-1.35387 -3.8316,-2.46159 -4.18904,-2.46159 -0.35742,0 -14.27974,-7.8 -30.93846,-17.33333 -16.65872,-9.53334 -30.53559,-17.33334 -30.83746,-17.33334 -0.30188,0 -2.78695,-1.40542 -5.52237,-3.12318 -2.73543,-1.71775 -8.57351,-5.1012 -12.97351,-7.51879 -4.4,-2.41759 -11.3,-6.20673 -15.33333,-8.42031 -4.03334,-2.21358 -9.57142,-5.43012 -12.30684,-7.14786 -2.73543,-1.71776 -5.23811,-3.12319 -5.56151,-3.12319 -0.3234,0 -5.88533,-3.08122 -12.35983,-6.84715 C 340.03909,127.3963 333.68415,124 331.99942,124 c -0.87326,0 -3.18038,1.10845 -5.12692,2.46321 -1.94653,1.35476 -6.83916,4.26676 -10.87249,6.47111 -4.03333,2.20435 -10.50973,5.89591 -14.39201,8.20346 -3.88227,2.30756 -7.63227,4.19556 -8.33334,4.19556 -0.70105,0 -1.27465,0.6 -1.27465,1.33333 0,0.73334 -0.5736,1.33334 -1.27465,1.33334 -0.70107,0 -4.45107,1.88381 -8.33334,4.18626 -6.64684,3.94202 -8.84064,5.21295 -20.39201,11.81374 -2.56667,1.46666 -6.76667,3.86666 -9.33333,5.33333 -2.56667,1.46667 -6.61667,3.78657 -9,5.15533 -3.62783,2.0835 -34.4233,19.93515 -51.82513,30.04222 -2.65381,1.54134 -28.30381,16.25137 -57,32.68893 L 82.66667,267.1063 v 148.44686 148.44686 h 114.19584 114.19585 z"
     style="fill:#d6d6d6;stroke-width:1.33333337" />
  <path
     inkscape:connector-curvature="0"
     id="path468"
     d="m 56.347217,597.9879 c -3.006364,-2.57333 -7.014363,-7.44891 -8.906666,-10.83461 l -3.440549,-6.15582 V 409.37883 237.76017 l 5.666666,-1.83831 c 3.116667,-1.01107 10.766667,-4.78412 17.000001,-8.38456 6.233334,-3.60045 13.283334,-7.66925 15.666667,-9.04179 8.501235,-4.89574 13.217733,-7.62424 29.666664,-17.16217 9.16667,-5.31531 18.61667,-10.78975 21,-12.16543 2.38334,-1.37568 6.28334,-3.62898 8.66667,-5.00733 13.71478,-7.93165 57.04892,-32.88779 61,-35.12989 2.56667,-1.45651 5.26667,-3.09784 6,-3.64743 0.73334,-0.54957 4.63334,-2.80916 8.66667,-5.02131 8.20288,-4.49899 45.34402,-25.90689 82.66667,-47.648517 29.87712,-17.404366 31.05079,-17.674997 46,-10.606855 5.86667,2.773822 14.42724,7.334588 19.02348,10.135036 4.59626,2.800447 8.56671,5.091723 8.82324,5.091723 0.25652,0 12.09596,6.677773 26.30984,14.839503 14.2139,8.16173 30.94345,17.68268 37.17678,21.15766 14.02117,7.81658 11.10757,6.16016 67.33333,38.27987 25.66667,14.66242 50.26667,28.64292 54.66667,31.06778 4.4,2.42486 10.23808,5.81426 12.97351,7.532 2.73543,1.71776 5.27485,3.12319 5.64317,3.12319 0.36834,0 4.54518,2.37207 9.2819,5.27125 4.7367,2.89919 13.89728,8.01308 20.35681,11.36422 6.45953,3.35113 13.16783,7.18688 14.90732,8.52388 l 3.1627,2.43091 -0.22916,169.20488 -0.22916,169.20487 -3.08343,6.76042 c -1.86905,4.09792 -5.44148,8.69265 -9.07086,11.66666 l -5.98744,4.90626 H 334.43603 61.813331 Z M 310.59657,543.00002 c -0.0385,-11.55 -0.56497,-55.49272 -1.16979,-97.6505 -0.60481,-42.15777 -0.83945,-77.25777 -0.52142,-78 0.31804,-0.74223 3.99444,-3.02053 8.16978,-5.06289 13.24122,-6.47692 27.17727,-3.92511 31.87287,5.83621 1.19006,2.47391 1.86034,28.67072 2.54879,99.6169 l 0.93411,96.26028 h 117.11788 117.1179 l -0.0281,-149.00001 -0.0281,-149 -12.97193,-7.25583 c -7.13456,-3.99069 -18.37193,-10.3405 -24.97193,-14.11068 -6.6,-3.77017 -15.6,-8.84207 -20,-11.27085 -4.4,-2.42879 -16.10001,-9.04199 -26.00001,-14.69598 -9.9,-5.65398 -21.44988,-12.18496 -25.6664,-14.51328 -4.21652,-2.3283 -17.61368,-9.9153 -29.77146,-16.86 -12.15779,-6.94469 -22.4153,-12.62672 -22.79445,-12.62672 -0.37916,0 -2.282,-1.11072 -4.22853,-2.46825 -1.94653,-1.35753 -8.03916,-4.90331 -13.53916,-7.87949 -5.5,-2.97619 -17.40572,-9.66547 -26.45715,-14.86508 C 371.15809,144.25423 363.45072,140 363.08203,140 c -0.3687,0 -2.26299,-1.1151 -4.20952,-2.478 -1.94654,-1.3629 -8.67198,-5.23671 -14.9454,-8.60847 l -11.40626,-6.13047 -15.26041,8.77295 c -8.39324,4.82513 -18.56043,10.59049 -22.59376,12.81194 -4.03334,2.22144 -8.92596,5.14743 -10.8725,6.50219 -1.94653,1.35476 -3.87013,2.4632 -4.27465,2.4632 -0.40453,0 -3.91191,1.88381 -7.79417,4.18627 -6.64684,3.94201 -8.84064,5.21294 -20.39202,11.81373 -6.33821,3.62184 -10.58858,6.07761 -30,17.33333 -19.41141,11.25572 -23.66179,13.7115 -30,17.33334 -2.56667,1.46666 -6.61667,3.79504 -9,5.17417 -2.38333,1.37912 -20.83333,11.95832 -41,23.50932 -20.16667,11.55102 -41.00646,23.62264 -46.310642,26.82584 -5.304184,3.2032 -10.249047,5.824 -10.988583,5.824 -0.893869,0 -1.460177,50.05963 -1.689361,149.33341 l -0.344751,149.33342 114.333337,-8e-5 114.33334,-7e-5 -0.0701,-21 z"
     style="fill:#c6c6c6;stroke-width:1.33333337" />
  <path
     inkscape:connector-curvature="0"
     id="path466"
     d="m 58.473447,599.32417 c -5.112884,-3.35146 -8.594661,-7.666 -12.262695,-15.19567 -2.023656,-4.15412 -2.21075,-18.99319 -2.21075,-175.34203 V 237.98262 l 5.666666,-1.75571 c 3.116667,-0.96564 11.666667,-5.21705 19.000001,-9.44758 7.333334,-4.23055 24.733334,-14.29263 38.666671,-22.3602 49.68623,-28.76895 77.40209,-44.78758 82,-47.39262 2.56667,-1.45421 5.26667,-3.09366 6,-3.64325 0.73333,-0.54957 4.63333,-2.80699 8.66667,-5.01647 4.03333,-2.20949 14.83333,-8.37033 24,-13.69077 18.9112,-10.97628 23.40632,-13.57487 30,-17.34268 2.56667,-1.46667 6.76667,-3.86667 9.33333,-5.33334 7.40995,-4.23425 12.2438,-7.03443 30,-17.378522 27.87242,-16.237422 29.85394,-17.238986 34.15563,-17.263989 4.04911,-0.02353 22.57084,8.584014 37.91052,17.618053 4.06972,2.396787 15.76972,9.086678 26,14.866418 10.2303,5.77974 21.45954,12.22974 24.95388,14.33333 3.49436,2.10359 6.65628,3.82471 7.0265,3.82471 0.37022,0 2.91121,1.40544 5.64664,3.12318 2.73543,1.71775 8.57351,5.11905 12.97351,7.55844 4.4,2.43938 22.4,12.64391 40,22.67673 17.6,10.03282 34.7,19.75783 38,21.61115 3.3,1.85332 15.51021,8.84336 27.13383,15.53343 11.6236,6.69005 21.36302,12.16374 21.64317,12.16374 0.28015,0 4.43051,2.4 9.223,5.33334 4.79249,2.93333 8.91697,5.33333 9.16549,5.33333 0.24852,0 5.66538,3 12.03747,6.66667 6.37209,3.66666 11.97105,6.66666 12.44216,6.66666 0.47109,0 2.83956,1.35 5.26327,3 l 4.40672,3.00001 0.009,168.83717 c 0.008,152.38685 -0.20062,169.34021 -2.14341,174.00001 -3.18564,7.64073 -6.84912,12.25332 -12.63095,15.90323 l -5.16376,3.2596 -271.0265,-0.0784 -271.026504,-0.0785 z M 311.08165,562.00002 c -0.13843,-1.46667 -0.68324,-46.31667 -1.21071,-99.66667 -0.86305,-87.2946 -0.75144,-97 1.1156,-97 1.14103,0 4.68586,-1.49278 7.87738,-3.31727 3.67858,-2.10295 7.89656,-3.32316 11.52254,-3.33333 6.31462,-0.0177 15.51559,4.02917 17.40415,7.65496 2.2938,4.40378 2.81718,19.88429 3.66243,108.32897 0.46605,48.76667 1.26311,89.11999 1.77121,89.67405 0.50811,0.55405 53.39052,0.85405 117.51647,0.66666 l 116.59263,-0.3407 0.37855,-145.33334 c 0.20821,-79.93334 0.0393,-147.23897 -0.37525,-149.56807 -0.6666,-3.74488 -2.32987,-5.11704 -14.37855,-11.86208 -19.21613,-10.75751 -21.32509,-11.94515 -49.62475,-27.94571 -13.93333,-7.87788 -34.63333,-19.56906 -46,-25.98039 -11.36667,-6.41133 -30.76383,-17.42899 -43.1048,-24.48369 -12.34098,-7.05471 -22.68196,-12.82674 -22.97998,-12.82674 -0.29801,0 -3.40084,-1.71664 -6.8952,-3.81474 -12.34513,-7.4124 -70.72708,-40.18526 -71.58645,-40.18526 -0.47931,0 -8.79794,4.57893 -18.48586,10.17539 -9.6879,5.59646 -20.91438,11.98803 -24.94772,14.20347 -4.03333,2.21544 -8.92596,5.13652 -10.87249,6.49128 -1.94653,1.35476 -3.90675,2.4632 -4.35603,2.4632 -0.44928,0 -5.15665,2.61862 -10.46084,5.81917 -8.02816,4.84419 -41.74041,24.33661 -59.64397,34.48613 -2.56667,1.45504 -5.26667,3.09519 -6,3.64478 -0.73334,0.54957 -4.63334,2.80972 -8.66667,5.02254 -5.80532,3.185 -45.86431,26.15216 -73,41.85337 -2.38334,1.37904 -6.43334,3.70734 -9,5.17401 -21.059005,12.03372 -23.939628,13.79508 -24.979586,15.2738 -1.22681,1.7444 -1.349696,295.95249 -0.124134,297.17805 0.49296,0.49296 52.24297,0.74296 115.00001,0.55556 113.19611,-0.33803 114.10171,-0.36195 113.85202,-3.0074 z"
     style="fill:#b4b4b4;stroke-width:1.33333337" />
  <path
     inkscape:connector-curvature="0"
     id="path464"
     d="m 62.000002,601.11723 c -5.337005,-2.93874 -11.6588,-9.93305 -14.793064,-16.36674 l -3.206936,-6.58288 V 408.51295 238.85828 l 7.179996,-2.68639 c 3.948997,-1.47751 15.798998,-7.72874 26.333334,-13.89163 C 88.047668,216.11737 104.46667,206.57933 114,201.08461 c 9.53334,-5.49472 34.73334,-20.0829 56.00001,-32.41816 21.26666,-12.33527 52.16666,-30.20317 68.66667,-39.70643 31.39922,-18.08455 35.90242,-20.68353 43,-24.81697 29.10774,-16.951624 47.40324,-26.809714 49.7558,-26.809714 3.12161,0 15.87533,5.647359 26.71404,11.829012 3.74175,2.134035 15.44175,8.832634 26,14.885772 10.55825,6.05315 21.29683,12.19226 23.86349,13.64247 14.07936,7.95511 25.34562,14.29535 30.66667,17.25812 5.38646,2.99917 72.3193,41.19899 99.33334,56.69136 5.86667,3.3645 13.36667,7.60216 16.66667,9.41703 3.3,1.81487 6.6,3.73917 7.33333,4.27624 0.73333,0.53707 4.03333,2.46953 7.33333,4.29436 37.38803,20.67483 46.71764,25.93704 51.00001,28.76566 l 5,3.30265 v 167.70814 c 0,166.41583 -0.0212,167.75778 -2.7493,174.15199 -1.5121,3.54413 -4.65752,8.42248 -6.98981,10.84077 -8.64698,8.9658 15.02009,8.27384 -281.46576,8.22923 -193.58774,-0.0291 -270.212692,-0.454 -272.128488,-1.50891 z M 310.66668,505.33335 c -0.36667,-32.63333 -0.66667,-77.27592 -0.66667,-99.20576 0,-36.73535 0.18097,-39.89902 2.30019,-40.21048 1.2651,-0.18595 3.85733,-1.56292 5.7605,-3.05996 7.55143,-5.93995 20.92525,-4.88692 27.60675,2.17369 l 3.44063,3.63584 1.45205,80 c 0.79863,44 1.44932,88.25326 1.44598,98.34058 l -0.006,18.34059 117.66667,-0.34059 117.66667,-0.34057 0.33915,-148.52305 c 0.23015,-100.78298 -0.10387,-149.05692 -1.03931,-150.18398 -0.75814,-0.91352 -8.11076,-5.43764 -16.33914,-10.05358 -8.22839,-4.61596 -20.3607,-11.48298 -26.9607,-15.26004 -6.6,-3.77707 -15.6,-8.86051 -20,-11.29654 -7.38416,-4.08817 -24.02277,-13.51275 -90,-50.97852 -13.56667,-7.70395 -27.66667,-15.62963 -31.33334,-17.6126 -3.66666,-1.98299 -8.46666,-4.66533 -10.66666,-5.96077 -2.2,-1.29544 -6.7,-3.8594 -10,-5.69771 -3.3,-1.83829 -15.06515,-8.5378 -26.14479,-14.88779 -11.07963,-6.34999 -21.03839,-11.54544 -22.13058,-11.54544 -1.09218,0 -21.12704,10.99669 -44.52189,24.4371 -40.93623,23.51797 -118.25984,68.06886 -126.53608,72.90521 -2.2,1.28561 -18.4,10.574 -36.00001,20.64087 -17.6,10.06688 -34.849997,20.10147 -38.33333,22.29911 l -6.333334,3.9957 v 148.30546 c 0,81.568 0.403331,148.70878 0.89629,149.20174 0.49296,0.49296 52.242964,0.74296 115.000004,0.55556 l 114.10371,-0.34073 z"
     style="fill:#909090;stroke-width:1.33333337" />
  <path
     inkscape:connector-curvature="0"
     id="path462"
     d="m 64.000002,601.33335 c 0,-0.73333 -0.763293,-1.33333 -1.696208,-1.33333 -2.993229,0 -10.892138,-7.54897 -13.451615,-12.85568 -1.364635,-2.82937 -3.014635,-6.18617 -3.666667,-7.45956 -0.673417,-1.31515 -1.18551,-75.46827 -1.18551,-171.66667 0,-150.32047 0.226784,-169.35143 2.018092,-169.35143 1.10995,0 3.05995,-0.52675 4.333333,-1.17057 1.273383,-0.6438 4.415242,-2.13008 6.981908,-3.30285 2.566667,-1.17276 7.366667,-3.73087 10.666667,-5.68467 3.3,-1.95381 7.800001,-4.59309 10.000001,-5.86505 2.2,-1.27197 11.5,-6.66216 20.666667,-11.9782 9.16667,-5.31603 19.36667,-11.16011 22.66667,-12.98684 3.3,-1.82673 8.7,-4.97859 12,-7.00412 3.3,-2.02553 16.2,-9.55603 28.66667,-16.73444 12.46666,-7.17841 35.56666,-20.51617 51.33333,-29.63947 15.76667,-9.12329 44.26667,-25.61236 63.33334,-36.64237 41.39622,-23.947592 53.07606,-30.326937 55.50917,-30.318255 2.63238,0.0093 15.43447,6.768481 49.30388,26.030855 76.00602,43.22651 180.19926,102.5248 203.85362,116.01688 11.36667,6.48337 23.04242,12.94821 25.94611,14.36632 2.90369,1.41811 7.25368,4.15361 9.66663,6.07891 l 4.38719,3.50053 4e-5,164.40958 c 2e-5,120.73994 -0.41288,166.07155 -1.55456,170.66667 -0.85503,3.4414 -2.92184,8.44262 -4.59294,11.1138 -3.05419,4.88204 -9.6714,10.47663 -12.39163,10.47663 -0.80346,0 -1.46084,0.6 -1.46084,1.33333 0,0.88451 -91.11111,1.33334 -270.66667,1.33334 -179.55557,0 -270.666678,-0.44883 -270.666678,-1.33334 z m 247.533478,-105 c -0.48664,-37.95 -1.27136,-82.3304 -1.74383,-98.62311 l -0.85905,-29.62311 3.8656,-1.46969 c 2.12608,-0.80833 4.76669,-2.26831 5.86804,-3.24437 6.4656,-5.73019 18.96488,-4.69703 26.14804,2.16133 l 4.1456,3.95815 0.86957,80.9204 c 0.47827,44.50621 1.23975,88.5704 1.69218,97.9204 l 0.8226,17 h 117.82889 117.8289 V 415.4966 c 0,-118.28563 -0.35095,-150.11108 -1.66667,-151.13962 -0.91666,-0.71658 -5.86666,-3.56473 -11,-6.3292 -5.13333,-2.76446 -9.93333,-5.47134 -10.66666,-6.01528 -0.73334,-0.54393 -4.03334,-2.47606 -7.33334,-4.2936 -10.61469,-5.84626 -49.20672,-27.66143 -78,-44.09155 -15.4,-8.78761 -32.5,-18.49409 -38,-21.56996 -5.5,-3.07586 -17.5,-9.81888 -26.66667,-14.98448 -9.16667,-5.1656 -19.06667,-10.72366 -22,-12.35126 -2.93333,-1.62759 -17.3854,-9.82455 -32.11571,-18.21546 -29.15691,-16.6088 -27.16058,-16.12199 -38.55096,-9.40082 -6.28824,3.71053 -8.62116,5.05911 -20,11.5613 -2.56667,1.46667 -6.76667,3.86667 -9.33333,5.33334 -2.56667,1.46666 -6.61667,3.79537 -9,5.1749 -2.38334,1.37955 -19.93334,11.48608 -39,22.45898 -19.06667,10.97289 -59.86667,34.51572 -90.66667,52.31738 C 123.2,241.75294 94.250003,258.40146 89.66667,260.948 l -8.333334,4.63006 V 415.45571 565.33335 H 196.87579 312.41826 Z"
     style="fill:#6a6a6a;stroke-width:1.33333337" />
  <path
     inkscape:connector-curvature="0"
     id="path460"
     d="m 63.333336,600.45782 c -6.311425,-3.31681 -12.167534,-9.54077 -14.653341,-15.57377 -1.257892,-3.05288 -2.825483,-6.59255 -3.483535,-7.86594 -0.687708,-1.33077 -1.196458,-73.36624 -1.196458,-169.41007 V 240.51321 l 5.114693,-2.2566 c 2.81308,-1.24114 5.491094,-2.2566 5.951139,-2.2566 0.460045,0 8.208434,-4.27639 17.218641,-9.50308 9.010207,-5.2267 19.682195,-11.31824 23.715528,-13.53679 4.033337,-2.21855 8.925957,-5.14217 10.872497,-6.49693 1.94654,-1.35476 3.90675,-2.4632 4.35603,-2.4632 0.44927,0 5.15665,-2.61447 10.46084,-5.80995 8.23694,-4.96228 17.91435,-10.60397 40.64397,-23.6944 2.38333,-1.37261 6.28333,-3.61864 8.66667,-4.99116 2.38333,-1.37253 9.73333,-5.64956 16.33333,-9.50449 14.26444,-8.3316 18.99377,-11.06026 25.66667,-14.80875 2.75,-1.54481 5.6,-3.25842 6.33333,-3.808 0.73333,-0.54958 4.63333,-2.80699 8.66667,-5.01647 10.11379,-5.54039 40.36936,-23.03968 42,-24.29206 0.73333,-0.56322 4.63333,-2.82753 8.66667,-5.0318 4.03333,-2.20427 16.29933,-9.203583 27.25777,-15.554021 10.95844,-6.350438 21.75844,-12.034081 24,-12.630317 3.30949,-0.880297 5.5793,-0.285585 12.07556,3.16393 8.36755,4.443158 18.54212,10.109497 25.33334,14.108417 2.2,1.295444 7,3.971781 10.66666,5.947421 3.66667,1.97564 8.2593,4.71623 10.20583,6.09019 1.94653,1.37397 3.84921,2.49812 4.22817,2.49812 0.37896,0 5.98635,3.08122 12.46084,6.84715 6.47451,3.76593 15.07183,8.65234 19.10516,10.85868 4.03334,2.20634 7.93334,4.46237 8.66667,5.01341 0.73334,0.55103 4.03334,2.48163 7.33334,4.29021 18.8113,10.30966 22.45152,12.36107 26.9735,15.2007 2.73543,1.71776 5.29627,3.12319 5.69076,3.12319 0.3945,0 4.66774,2.4 9.4961,5.33333 4.82837,2.93333 8.97021,5.33333 9.20409,5.33333 0.23388,0 5.72256,3.08122 12.19705,6.84715 6.47451,3.76593 15.07183,8.65749 19.10516,10.87013 4.03334,2.21264 8.92597,5.13143 10.8725,6.48619 1.94653,1.35476 3.84083,2.4632 4.20952,2.4632 0.36869,0 7.98179,4.2 16.91799,9.33333 8.9362,5.13334 16.43058,9.33334 16.65421,9.33334 0.22361,0 4.35705,2.4 9.18543,5.33333 4.82836,2.93333 9.07912,5.33333 9.44612,5.33333 0.367,0 4.42784,2.26947 9.02409,5.04327 4.59624,2.77379 10.87147,6.14899 13.94495,7.50041 3.07346,1.35144 5.90464,3.28198 6.29148,4.29007 0.38685,1.00811 1.63116,1.83292 2.76513,1.83292 1.8512,0 2.0257,17.32906 1.70852,169.66667 l -0.35326,169.66668 -2.8779,5.33333 c -3.41017,6.31976 -8.73635,11.46323 -14.99363,14.47925 -4.16141,2.00582 -26.68773,2.18299 -271.33334,2.13403 C 93.864721,602.56523 66.935557,602.35087 63.333336,600.45782 Z M 310.95181,467.16814 c -0.36248,-93.89603 -0.2626,-98.87117 2,-99.61802 1.30984,-0.43236 4.06213,-2.14801 6.11621,-3.81256 5.71923,-4.63464 17.52563,-4.30189 24.05457,0.67796 2.6712,2.03743 5.12372,5.02743 5.45006,6.64445 0.32634,1.61703 0.92899,45.47614 1.33922,97.4647 0.53122,67.32351 1.17956,95.04723 2.25294,96.34059 1.25474,1.51185 21.07008,1.75889 118.33782,1.47535 l 116.83072,-0.34059 0.339,-150.71275 0.339,-150.71275 -9.00566,-5.24114 c -4.95312,-2.88262 -11.10567,-6.3869 -13.67234,-7.78729 -2.56666,-1.40039 -10.26417,-5.77113 -17.10557,-9.71279 -6.8414,-3.94164 -12.70332,-7.16663 -13.02649,-7.16663 -0.32318,0 -2.82567,-1.40465 -5.5611,-3.12145 -2.73542,-1.71679 -7.93003,-4.76437 -11.54356,-6.77241 -3.61353,-2.00803 -29.157,-16.45579 -56.76328,-32.10614 -27.60628,-15.65034 -53.11824,-30.08818 -56.69324,-32.08409 -3.57502,-1.99591 -9.40794,-5.34349 -12.96207,-7.43908 -3.55412,-2.09559 -6.65989,-3.81016 -6.90171,-3.81016 -0.24181,0 -7.2654,-3.94867 -15.60798,-8.77483 -23.10578,-13.36659 -34.09627,-19.22557 -36.05615,-19.22131 -0.97838,0.002 -14.97886,7.57559 -31.11219,16.82994 -16.13333,9.25433 -32.63333,18.64416 -36.66667,20.86627 -4.03333,2.2221 -8.92596,5.14864 -10.87249,6.5034 -1.94653,1.35476 -3.87013,2.4632 -4.27465,2.4632 -0.40454,0 -3.91191,1.88381 -7.79418,4.18626 -6.64684,3.94202 -8.84064,5.21295 -20.39201,11.81374 -6.33822,3.62184 -10.58859,6.07761 -30,17.33333 -19.41142,11.25572 -23.66179,13.71149 -30,17.33333 -2.56667,1.46667 -6.76667,3.86667 -9.33334,5.33334 -2.56666,1.46666 -6.76666,3.86666 -9.33333,5.33333 -2.56667,1.46667 -6.76667,3.86667 -9.33334,5.33333 -11.68088,6.67479 -13.7692,7.88737 -20.66666,12.00001 C 109.3,249.07157 104.2,252.07053 102,253.33104 c -2.199997,1.26052 -6.699997,3.90305 -9.999997,5.87232 -3.3,1.96925 -7.05,3.92408 -8.333333,4.34406 -2.203906,0.72126 -2.333334,9.1 -2.333334,151.05254 0,82.65892 0.403331,150.69227 0.89629,151.18523 0.49296,0.49296 52.242964,0.74296 115.000004,0.55556 l 114.10371,-0.34073 z"
     style="fill:#4f4f4f;stroke-width:1.33333337" />
  <path
     inkscape:connector-curvature="0"
     id="path458"
     d="m 62.758218,599.12155 c -6.131117,-3.39274 -10.953994,-8.17222 -13.108476,-12.99054 -5.133216,-11.48 -4.970464,-6.03091 -5.326658,-178.34042 l -0.343585,-166.20943 5.764551,-2.79058 c 3.170503,-1.53481 6.199367,-2.79057 6.730809,-2.79057 1.264243,0 44.015981,-24.44979 88.191811,-50.43704 8.06667,-4.74538 16.61667,-9.73832 19,-11.09546 2.38334,-1.35713 6.43334,-3.6675 9,-5.13417 2.56667,-1.46667 6.91667,-3.9306 9.66667,-5.47541 2.75,-1.54482 5.6,-3.28088 6.33333,-3.85792 0.73334,-0.57704 3.58334,-2.31311 6.33334,-3.85792 8.27888,-4.65066 13.35678,-7.58004 19.66666,-11.34543 3.3,-1.96926 7.05,-3.92408 8.33334,-4.34407 1.28333,-0.41999 2.33333,-1.18164 2.33333,-1.69257 0,-0.51092 2.1,-1.75294 4.66667,-2.76002 2.56666,-1.00708 4.66666,-2.20708 4.66666,-2.66666 0,-0.45959 2.1,-1.65959 4.66667,-2.66667 2.56667,-1.00708 4.66667,-2.24909 4.66667,-2.76002 0,-0.51093 1.05,-1.27258 2.33333,-1.69257 1.28334,-0.41998 5.03334,-2.37481 8.33334,-4.34407 3.3,-1.96926 7.95,-4.69561 10.33333,-6.05857 13.53599,-7.74082 18.73548,-10.69853 25.81732,-14.68606 1.75048,-0.98562 3.48268,-2.092043 3.84935,-2.45871 0.36666,-0.366667 3.06666,-1.911893 6,-3.433837 6.94601,-3.603899 11.83402,-6.398165 12.66666,-7.240974 1.40756,-1.424755 17.78927,-9.32519 19.33598,-9.32519 0.89543,0 5.99424,2.400001 11.33069,5.333334 5.33646,2.933333 10.0223,5.333333 10.413,5.333333 0.3907,0 1.6576,0.838324 2.81535,1.862943 1.15775,1.024619 6.00499,3.922084 10.77165,6.438812 10.53212,5.560799 15.11762,8.149199 16,9.031579 0.36667,0.36667 3.06667,1.92537 6,3.46379 7.46626,3.91577 17.81964,9.76779 23.33334,13.18866 2.56666,1.59244 8.56666,4.93281 13.33333,7.42303 4.76667,2.49023 8.96667,4.89199 9.33334,5.33725 0.36666,0.44526 4.56666,2.82819 9.33333,5.2954 4.76667,2.46723 10.16667,5.47565 12,6.68541 1.83333,1.20974 6.63333,4.00272 10.66667,6.2066 4.03333,2.20389 9.58333,5.29545 12.33333,6.87013 2.75,1.57469 7.1,4.06307 9.66667,5.52973 11.55137,6.60079 13.74517,7.87172 20.39201,11.81374 3.88227,2.30245 7.27644,4.18626 7.54261,4.18626 0.26618,0 6.54679,3.6 13.95693,8 7.41013,4.4 13.75538,8 14.10056,8 0.34517,0 4.54873,2.4 9.34122,5.33334 4.7925,2.93333 8.9925,5.33333 9.33334,5.33333 0.34084,0 4.54084,2.4 9.33333,5.33333 4.79249,2.93334 8.98465,5.33334 9.31591,5.33334 0.33125,0 5.70902,3.01632 11.95058,6.70293 6.24158,3.68661 13.97336,7.82816 17.18175,9.20344 3.20839,1.37527 6.20123,3.45895 6.65075,4.6304 0.44953,1.17144 1.73615,2.1299 2.85917,2.1299 1.8226,0 2.04184,17.77764 2.04184,165.572 0,165.94145 -0.0676,168.6429 -4.45629,178.18106 -2.37475,5.16111 -8.3745,10.56652 -14.96334,13.48108 l -6.25269,2.76587 -264.83051,-0.1378 -264.830521,-0.1378 z m 249.908462,-87.7882 c 0,-30.06667 -0.49414,-74.61667 -1.09808,-99 -1.06998,-43.19879 -1.0326,-44.33334 1.46002,-44.33334 1.40695,0 3.64407,-1.2 4.97139,-2.66666 1.32732,-1.46667 3.70031,-2.66667 5.27332,-2.66667 1.573,0 3.562,-0.70199 4.41997,-1.55996 2.11675,-2.11675 11.77142,0.92523 16.43729,5.17903 l 3.4639,3.158 1.0224,82.27813 c 0.56232,45.25298 1.40358,89.47814 1.86943,98.27814 l 0.84703,16 h 118.66667 118.66667 l 0.3391,-149.88865 c 0.30068,-132.90361 0.10827,-150.14375 -1.69836,-152.14001 -1.12061,-1.23826 -4.87321,-3.68027 -8.3391,-5.42671 -3.46591,-1.74644 -6.60164,-3.48343 -6.96831,-3.85999 -0.82579,-0.84806 -5.66213,-3.61654 -12.66667,-7.25081 -2.93333,-1.52195 -5.63333,-3.06717 -6,-3.43384 -0.85553,-0.85553 -5.51233,-3.50596 -14.43853,-8.21771 -3.90787,-2.06279 -8.80048,-4.95768 -10.87249,-6.43308 -2.07202,-1.4754 -4.06896,-2.68255 -4.43766,-2.68255 -0.36869,0 -7.98179,-4.2 -16.91799,-9.33333 -8.9362,-5.13333 -16.50384,-9.33333 -16.81697,-9.33333 -0.31315,0 -2.80743,-1.40543 -5.54285,-3.12319 -2.73543,-1.71775 -8.57351,-5.11631 -12.97351,-7.55235 -4.4,-2.43605 -19.7,-11.1221 -34,-19.30236 -14.3,-8.18025 -30.74803,-17.43604 -36.55118,-20.56842 -5.80313,-3.13239 -12.84121,-7.1409 -15.64016,-8.9078 -2.79896,-1.76691 -5.41285,-3.21255 -5.80866,-3.21255 -0.39582,0 -2.95774,-1.40465 -5.69316,-3.12146 -4.7291,-2.96805 -10.87444,-6.48132 -24.30684,-13.89613 -3.3,-1.82163 -7.94091,-4.4812 -10.31314,-5.91016 -2.74528,-1.65368 -5.34813,-2.26961 -7.1604,-1.69442 -1.566,0.49703 -13.72508,7.21271 -27.0202,14.92374 -13.29511,7.71104 -26.87293,15.53002 -30.17293,17.3755 -11.24114,6.28648 -24.64923,14.04606 -34.31064,19.85641 -5.30419,3.18992 -10.01157,5.79985 -10.46085,5.79985 -0.44928,0 -2.40949,1.10844 -4.35602,2.4632 -1.94654,1.35476 -6.83916,4.26676 -10.8725,6.47112 -4.03333,2.20435 -10.63333,5.97972 -14.66666,8.38972 -4.03334,2.41 -9.28334,5.498 -11.66667,6.86223 -12.13949,6.94865 -18.64875,10.65199 -25.81732,14.68835 -1.75048,0.98562 -3.48268,2.09205 -3.84935,2.45872 -0.36666,0.36666 -3.06666,1.91189 -6,3.43384 -6.90948,3.58494 -11.82961,6.39522 -12.66667,7.23494 -0.36666,0.36784 -2.46666,1.56688 -4.66666,2.66455 -2.2,1.09767 -4.3,2.29671 -4.66667,2.66455 -0.36667,0.36782 -2.09887,1.47521 -3.84934,2.46084 -4.90016,2.75909 -11.67058,6.60028 -16.81733,9.54128 -5.14674,2.941 -11.917165,6.78219 -16.817323,9.54128 -1.750471,0.98563 -3.482674,2.09205 -3.849341,2.45872 -0.366666,0.36667 -2.466666,1.67884 -4.666666,2.91593 l -4.000001,2.24926 -0.343301,149.08408 c -0.188816,81.99624 -0.05637,149.83739 0.294315,150.75811 0.506211,1.32903 24.483577,1.60382 116.343307,1.33334 l 115.70569,-0.34071 z"
     style="fill:#353535;stroke-width:1.33333337" />
</svg>
