<?xml version="1.0" encoding="UTF-8" standalone="no"?>
<!-- Created with Inkscape (http://www.inkscape.org/) -->

<svg
   xmlns:dc="http://purl.org/dc/elements/1.1/"
   xmlns:cc="http://creativecommons.org/ns#"
   xmlns:rdf="http://www.w3.org/1999/02/22-rdf-syntax-ns#"
   xmlns:svg="http://www.w3.org/2000/svg"
   xmlns="http://www.w3.org/2000/svg"
   xmlns:xlink="http://www.w3.org/1999/xlink"
   xmlns:sodipodi="http://sodipodi.sourceforge.net/DTD/sodipodi-0.dtd"
   xmlns:inkscape="http://www.inkscape.org/namespaces/inkscape"
   version="1.1"
   id="svg10"
   width="666.66669"
   height="666.66669"
   viewBox="0 0 666.66669 666.66669"
   sodipodi:docname="kabah.svg"
   inkscape:version="0.92.3 (2405546, 2018-03-11)">
  <metadata
     id="metadata16">
    <rdf:RDF>
      <cc:Work
         rdf:about="">
        <dc:format>image/svg+xml</dc:format>
        <dc:type
           rdf:resource="http://purl.org/dc/dcmitype/StillImage" />
        <dc:title></dc:title>
      </cc:Work>
    </rdf:RDF>
  </metadata>
  <defs
     id="defs14" />
  <sodipodi:namedview
     pagecolor="#ffffff"
     bordercolor="#666666"
     borderopacity="1"
     objecttolerance="10"
     gridtolerance="10"
     guidetolerance="10"
     inkscape:pageopacity="0"
     inkscape:pageshadow="2"
     inkscape:window-width="1366"
     inkscape:window-height="705"
     id="namedview12"
     showgrid="false"
     inkscape:zoom="0.40199999"
     inkscape:cx="553.00663"
     inkscape:cy="238.98429"
     inkscape:window-x="-8"
     inkscape:window-y="-8"
     inkscape:window-maximized="1"
     inkscape:current-layer="svg10" />
  <image
     sodipodi:absref="E:\Project-website\tanyabudi\public\assets\images\icon\kabah.png"
     xlink:href="kabah.png"
     y="0"
     x="0"
     id="image18"
     preserveAspectRatio="none"
     height="666.66669"
     width="666.66669" />
  <path
     inkscape:connector-curvature="0"
     id="path34"
     d="m 329.33334,608.31035 c -3.3,-1.1195 -7.2,-2.47246 -8.66666,-3.00657 -2.49303,-0.90787 -12.57523,-3.7636 -23.33334,-6.60907 -14.68437,-3.88396 -20.88914,-5.69765 -22.71794,-6.64062 -1.1282,-0.58174 -4.70512,-1.50607 -7.94872,-2.05407 -3.2436,-0.548 -6.82052,-1.44853 -7.94872,-2.00117 -2.89138,-1.41634 -10.55031,-3.62732 -16.05128,-4.63371 -2.56667,-0.46957 -5.86667,-1.34396 -7.33334,-1.94311 -2.42661,-0.99128 -11.08843,-3.4886 -23.33333,-6.72732 -14.68438,-3.88396 -20.88915,-5.69765 -22.71795,-6.64062 -1.1282,-0.58174 -4.7282,-1.49972 -8,-2.03998 -3.27179,-0.54024 -6.54872,-1.43904 -7.28205,-1.99733 -0.73334,-0.55829 -3.13334,-1.33879 -5.33334,-1.73444 -5.58124,-1.00375 -15.48332,-3.62904 -18.66666,-4.94899 -3.18335,-1.31994 -13.08543,-3.94524 -18.66667,-4.94898 -2.2,-0.39566 -4.6,-1.17615 -5.33334,-1.73444 -0.73333,-0.5583 -3.93127,-1.44375 -7.10654,-1.96768 -3.17526,-0.52395 -8.87526,-2.57132 -12.66666,-4.54972 l -6.893463,-3.59711 -0.884476,-11.53885 C 97.962399,522.6502 97.362399,432.17746 97.115527,327.94601 L 96.66667,138.43431 107.33334,134.7658 C 113.2,132.74814 118.9,130.76913 120,130.36803 c 1.1,-0.40111 5.9,-1.75437 10.66667,-3.00725 4.76667,-1.25287 9.70852,-2.82159 10.98191,-3.48603 1.27339,-0.66444 3.45448,-1.20808 4.84689,-1.20808 2.78883,0 15.59756,-3.60819 18.97524,-5.34528 1.17555,-0.60457 4.93292,-1.51844 8.34972,-2.03082 3.4168,-0.51238 6.5404,-1.46237 6.94132,-2.11108 0.40094,-0.64872 2.45815,-1.17949 4.57159,-1.17949 2.11344,0 4.17065,-0.53076 4.57159,-1.17948 0.40092,-0.64871 3.58633,-1.60487 7.07868,-2.12478 3.49236,-0.51991 6.94973,-1.37468 7.68306,-1.89948 0.73334,-0.5248 5.83334,-2.02061 11.33334,-3.32402 5.5,-1.30341 11.2,-2.86667 12.66666,-3.473898 1.46667,-0.607231 5.36667,-1.791309 8.66667,-2.631285 3.3,-0.839978 7.8,-2.05222 10,-2.693875 2.2,-0.641655 7.6,-2.132279 12,-3.312499 4.4,-1.18022 10.1,-2.764367 12.66667,-3.520327 2.56667,-0.755958 7.46707,-2.0797 10.88979,-2.941645 3.42272,-0.861945 6.67272,-2.016768 7.22222,-2.566275 0.54951,-0.549505 2.19636,-0.9991 3.65968,-0.9991 2.90771,0 16.27808,-3.642884 19.69902,-5.367175 1.17554,-0.592528 4.93292,-1.496544 8.34972,-2.008925 3.4168,-0.51238 6.50565,-1.406157 6.86412,-1.986171 1.17246,-1.89708 13.20717,-2.828851 18.65524,-1.444356 7.36097,1.870612 20.39269,5.376824 25.99355,6.99362 2.56666,0.740919 7.46706,2.052354 10.88978,2.914299 3.42272,0.861946 6.67272,2.016768 7.22223,2.566275 0.54951,0.549505 2.07813,0.9991 3.39695,0.9991 1.31881,0 4.96881,0.821399 8.1111,1.825331 5.92655,1.893472 17.81043,5.277389 27.04661,7.701476 2.93333,0.769871 6.2564,1.867104 7.38461,2.438295 1.1282,0.571192 4.70512,1.486896 7.94872,2.034898 3.2436,0.548003 6.82052,1.46582 7.94872,2.039597 1.12821,0.57377 5.95128,2.05596 10.71795,3.29374 4.76666,1.23778 9.62848,2.74416 10.80404,3.3475 1.17554,0.60335 4.93292,1.51622 8.34972,2.0286 3.4168,0.51238 6.5404,1.46237 6.94132,2.11108 0.40093,0.64872 2.45814,1.17948 4.57158,1.17948 2.11344,0 4.17066,0.53077 4.57159,1.17949 0.40092,0.64871 3.52452,1.5987 6.94132,2.11108 3.4168,0.51238 7.17417,1.42625 8.34972,2.03082 3.32225,1.70858 16.16634,5.34528 18.87847,5.34528 1.33917,0 2.80568,0.6 3.25891,1.33333 0.45322,0.73334 1.96766,1.33334 3.36542,1.33334 2.8864,0 14.13,3.43078 17.61648,5.37535 1.27339,0.71022 3.37339,1.331 4.66667,1.37951 4.94709,0.18556 16.69835,4.86322 17.98263,7.15808 0.86812,1.55124 1.8491,72.24269 2.76981,199.59616 1.42528,197.14566 1.42497,197.19511 -1.27928,200.84257 -1.54344,2.08177 -4.94136,4.26165 -7.91332,5.07665 -2.86463,0.78557 -6.10841,1.78545 -7.20841,2.22197 -3.44814,1.36832 -9.94506,2.80047 -11.25942,2.48196 -0.69268,-0.16785 -2.49268,0.28487 -4,1.00606 -1.50732,0.72117 -6.94058,2.32117 -12.07392,3.55553 -5.13333,1.23437 -10.53333,2.74829 -12,3.36425 -1.46666,0.61598 -4.76667,1.50414 -7.33333,1.97371 -5.50098,1.00639 -13.15991,3.21737 -16.05128,4.63371 -1.1282,0.55264 -4.70512,1.45317 -7.94872,2.00117 -3.2436,0.548 -6.82052,1.44853 -7.94872,2.00117 -2.89138,1.41634 -10.55031,3.62732 -16.05128,4.63371 -2.56667,0.46957 -5.86667,1.36996 -7.33334,2.00087 -1.46666,0.6309 -6.86666,2.15705 -12,3.39141 -5.13333,1.23437 -10.53333,2.73201 -12,3.32811 -1.46666,0.59608 -5.36666,1.77104 -8.66666,2.61101 -3.3,0.83997 -8.10001,2.12905 -10.66667,2.8646 -2.56667,0.73556 -7.36667,1.93451 -10.66667,2.66433 -3.3,0.72983 -7.2,1.80884 -8.66667,2.39779 -4.33713,1.74161 -11.66845,3.82748 -16.66666,4.74188 -2.56667,0.46957 -5.86667,1.3676 -7.33334,1.99563 -2.47876,1.06141 -10.14028,3.1893 -18,4.99929 -1.83333,0.42219 -3.63333,1.18252 -4,1.68964 -1.15238,1.59377 -13.65086,5.3546 -17.23752,5.1868 -1.88602,-0.0882 -6.12915,-1.07639 -9.42915,-2.19591 z m -5.33333,-118.64336 -0.66667,-83.66698 -7.33333,-1.41085 c -4.03333,-0.77597 -8.23333,-1.77731 -9.33333,-2.2252 -1.1,-0.44788 -3.5,-1.1462 -5.33334,-1.55181 -7.14142,-1.57998 -18.09636,-4.38892 -20,-5.1282 -1.1,-0.42718 -5.3,-1.45852 -9.33333,-2.29188 -4.03333,-0.83335 -8.83333,-1.83268 -10.66667,-2.22072 -1.83333,-0.38804 -4.53333,-1.22535 -6,-1.86068 -1.46666,-0.63534 -5.66666,-1.82419 -9.33333,-2.64191 -3.66667,-0.81772 -8.76667,-2.01865 -11.33334,-2.66875 -2.56666,-0.65009 -7.66666,-1.85102 -11.33333,-2.66874 -3.66667,-0.81772 -7.86667,-1.98584 -9.33333,-2.59584 -1.46667,-0.60999 -7.46667,-2.15174 -13.33334,-3.42608 -5.86666,-1.27436 -11.86666,-2.80531 -13.33333,-3.4021 -2.65571,-1.0806 -12.38844,-3.43505 -20,-4.83821 -2.2,-0.40556 -4.6,-1.18632 -5.33333,-1.73501 -0.73334,-0.5487 -4.33334,-1.42947 -8,-1.95727 -3.66667,-0.5278 -7.26667,-1.42811 -8,-2.00068 -0.73334,-0.57257 -3.13334,-1.35109 -5.33334,-1.73004 -2.2,-0.37893 -6.04689,-1.34023 -8.54866,-2.13619 l -4.54866,-1.4472 0.88199,46.18654 c 0.4851,25.4026 0.882,62.22039 0.882,81.81729 v 35.63075 l 6.19596,0.92915 c 3.40778,0.51102 7.15778,1.42378 8.33333,2.02836 3.37768,1.73708 16.18642,5.34528 18.97524,5.34528 1.39242,0 3.57351,0.54364 4.8469,1.20808 1.27338,0.66444 6.21524,2.25344 10.9819,3.53112 4.76667,1.27767 11.66667,3.16991 15.33334,4.20496 3.66666,1.03505 9.06666,2.50453 12,3.26551 2.93333,0.76096 6.2564,1.8509 7.38461,2.4221 1.1282,0.57119 4.70512,1.4869 7.94872,2.0349 3.2436,0.548 6.82052,1.44853 7.94872,2.00117 2.89137,1.41633 10.55031,3.62732 16.05128,4.63371 2.56667,0.46957 5.86667,1.35254 7.33334,1.96218 1.46666,0.60963 6.56666,2.1637 11.33333,3.45347 4.76667,1.28977 11.66667,3.19191 15.33333,4.22696 3.66667,1.03505 9.06667,2.50453 12,3.26551 2.93334,0.76096 6.2564,1.8509 7.38462,2.4221 1.1282,0.57119 4.7282,1.48055 8,2.0208 3.27178,0.54024 6.54872,1.45694 7.28205,2.0371 1.15337,0.91244 4.56043,1.81132 9.33333,2.4624 0.88276,0.1204 1.10806,-28.09135 0.66667,-83.4851 z m 37.90492,81.15355 c 0.40092,-0.64872 3.52452,-1.59871 6.94132,-2.11109 3.4168,-0.51238 7.17418,-1.40796 8.34972,-1.99018 2.94188,-1.45701 10.53419,-3.66238 16.13738,-4.68746 2.56666,-0.46958 5.86666,-1.34396 7.33333,-1.94311 2.46819,-1.00827 12.11387,-3.78256 23.33333,-6.71113 2.56667,-0.66998 7.96667,-2.1614 12.00001,-3.3143 4.03333,-1.15289 9.43333,-2.65289 12,-3.33333 2.56666,-0.68044 7.66666,-2.08977 11.33333,-3.13185 12.89332,-3.6643 22.71353,-6.40418 27.33333,-7.6261 14.68183,-3.88326 20.91724,-5.72377 22.98191,-6.78356 1.27339,-0.65362 3.45448,-1.18841 4.84689,-1.18841 2.53216,0 14.47849,-3.30801 19.50454,-5.40092 1.46667,-0.61075 4.76667,-1.48291 7.33333,-1.93814 2.56667,-0.45522 6.41248,-1.50264 8.54627,-2.3276 l 3.87959,-1.49993 -0.87784,-54.75004 c -0.4828,-30.11252 -0.87863,-65.01684 -0.87959,-77.56515 l -0.002,-22.81511 -3.33333,0.63722 -3.33334,0.6372 v 58.3599 58.3599 l -3.66666,0.7212 c -8.75139,1.72133 -17.19634,3.82203 -19.66667,4.89212 -1.46667,0.63533 -4.16667,1.42488 -6,1.75456 -5.23064,0.94059 -16.39627,3.84859 -19.33334,5.03523 -1.46666,0.59256 -5.36666,1.67452 -8.66666,2.40434 -3.3,0.72983 -8.4,2.00322 -11.33334,2.82975 -2.93333,0.82653 -8.63333,2.32599 -12.66666,3.33213 -4.03334,1.00615 -9.73334,2.51372 -12.66667,3.35016 -11.80692,3.36678 -10.55565,9.30322 -11.52609,-54.68349 -0.47268,-31.16667 -0.53488,-57.20144 -0.13822,-57.85506 0.83411,-1.37442 -7.61369,-0.44081 -23.00236,2.5421 -5.86667,1.13718 -15.46667,2.94028 -21.33333,4.00686 -5.86667,1.0666 -13.36667,2.51858 -16.66667,3.22662 -3.3,0.70804 -10.2,2.06557 -15.33333,3.01674 l -9.33334,1.7294 0.11654,7.33334 c 0.0641,4.03333 0.61164,41.38333 1.21677,83 1.03561,71.22252 1.23949,75.66667 3.47143,75.66667 1.30417,0 2.69924,-0.53077 3.10017,-1.17948 z M 492.66668,460.70638 c 7.33334,-1.96878 15.13334,-4.00771 17.33334,-4.53098 l 4,-0.95137 -0.0317,-12.27868 c -0.0175,-6.75327 -0.16745,-33.8225 -0.33333,-60.15384 l -0.3016,-47.87518 -3,0.66039 c -1.65,0.36321 -3.9,1.01069 -5,1.43883 -1.92679,0.74993 -13.10257,3.61218 -20,5.12224 -1.83333,0.40136 -4.53333,1.25364 -6,1.89393 -1.46667,0.64029 -3.86667,1.35027 -5.33333,1.57773 -3.66466,0.56834 -3.75418,2.81803 -2.63364,66.18526 l 0.95125,53.79469 3.50785,-0.65172 c 1.92934,-0.35845 9.50787,-2.26253 16.8412,-4.2313 z M 322.29185,342.33449 c -0.57283,-17.05063 -0.86112,-33.20764 -0.64065,-35.90445 0.3261,-3.98908 -0.1012,-5.03128 -2.29184,-5.58964 -12.58854,-3.20864 -20.64602,-5.14324 -24.02602,-5.76863 -2.2,-0.40707 -4.6,-1.19689 -5.33333,-1.75519 -0.73333,-0.55829 -4.03333,-1.41692 -7.33333,-1.90806 -3.3,-0.49115 -7.2,-1.38408 -8.66667,-1.9843 -1.46667,-0.60021 -7.16667,-2.11817 -12.66667,-3.37322 -5.5,-1.25507 -11.2,-2.75246 -12.66666,-3.32755 -1.46667,-0.57511 -8.06667,-2.37077 -14.66667,-3.99039 -6.6,-1.61961 -15.6,-3.83945 -20,-4.93297 -4.4,-1.09352 -9.8,-2.32127 -12,-2.72832 -2.2,-0.40707 -4.6,-1.19689 -5.33334,-1.75519 -0.73333,-0.55829 -4.03333,-1.41692 -7.33333,-1.90806 -3.3,-0.49115 -7.2,-1.3788 -8.66667,-1.97256 -3.33698,-1.35094 -14.69446,-4.25906 -20,-5.12107 -2.2,-0.35745 -4.6,-1.10735 -5.33333,-1.66643 -0.73333,-0.55909 -4.48267,-1.43992 -8.33184,-1.9574 -3.84919,-0.51748 -7.3346,-1.48466 -7.74536,-2.14929 -0.41076,-0.66464 -2.47603,-1.20843 -4.58947,-1.20843 -2.11344,0 -4.21344,-0.6 -4.66667,-1.33333 -2.5959,-4.20027 -3.06057,2.15467 -2.51045,34.33333 0.33536,19.61667 0.58741,36.35103 0.5601,37.18746 -0.0273,0.83644 1.90035,1.81658 4.28369,2.1781 5.8251,0.88359 27.66709,6.3084 31,7.69937 1.46667,0.61209 5.66667,1.78194 9.33333,2.59966 3.66667,0.81772 8.76667,2.0199 11.33334,2.67148 4.53362,1.15092 7.37522,1.85272 32.66666,8.06772 6.6,1.62186 12.9,3.27314 14,3.66951 1.1,0.39636 5.3,1.53203 9.33334,2.52368 4.03333,0.99165 9.43333,2.35519 12,3.03007 10.48068,2.7558 22.23615,5.60478 26,6.3012 2.2,0.40706 4.6,1.20858 5.33333,1.78116 0.73334,0.57257 4.33334,1.47288 8,2.00068 3.66667,0.5278 7.26667,1.40857 8,1.95726 0.73334,0.5487 3.13334,1.33176 5.33334,1.74014 2.2,0.40837 6.1,1.32233 8.66666,2.03102 10.87552,3.00288 10.13059,5.4507 8.95851,-29.43736 z m 43.0415,29.58535 c 6.28008,-1.35792 12.27708,-2.51931 30,-5.80983 5.86666,-1.08922 13.96666,-2.6722 18,-3.5177 4.03333,-0.84551 11.45365,-2.23194 16.48961,-3.08095 l 9.15628,-1.54367 -0.22125,-16.03882 c -0.24441,-17.71854 0.32405,-20.59553 4.06944,-20.59553 1.39816,0 3.58396,-0.57574 4.85735,-1.27945 1.27338,-0.70369 5.01524,-1.86584 8.31524,-2.58253 3.3,-0.7167 8.4,-1.97935 11.33333,-2.80588 2.93333,-0.82654 8.63333,-2.30786 12.66667,-3.29184 4.03333,-0.98399 10.93333,-2.81784 15.33333,-4.07526 4.4,-1.2574 9.5,-2.5626 11.33333,-2.90042 1.83334,-0.33782 4.23334,-0.9692 5.33334,-1.40307 1.91636,-0.75585 12.99645,-3.59936 20,-5.13265 1.83333,-0.40136 4.64285,-1.3643 6.24339,-2.13983 6.32362,-3.06412 7.08994,-1.18513 7.08994,17.38419 v 17.19029 l 3.53587,-0.67593 3.53588,-0.67592 -0.86513,-22.80586 c -0.47582,-12.54321 -0.86696,-29.62393 -0.8692,-37.95717 l -0.004,-15.15133 -3.66667,0.72393 c -2.01667,0.39816 -7.26667,1.62407 -11.66667,2.72423 -11.55095,2.88816 -26.13845,6.33442 -30,7.08744 -1.83333,0.3575 -4.23333,1.01113 -5.33333,1.45249 -1.1,0.44137 -5.3,1.55452 -9.33334,2.47365 -4.03333,0.91915 -10.03333,2.34756 -13.33333,3.17426 -3.3,0.82669 -9.3,2.2551 -13.33333,3.17425 -4.03334,0.91913 -8.23334,2.0364 -9.33334,2.4828 -1.1,0.4464 -3.8,1.11385 -6,1.48323 -2.2,0.36937 -7.6,1.57172 -12,2.67188 -11.55095,2.88816 -26.13845,6.33442 -30,7.08744 -1.83333,0.3575 -4.23333,1.01113 -5.33333,1.45249 -1.1,0.44137 -5.3,1.55452 -9.33334,2.47365 -4.03333,0.91915 -9.73333,2.28822 -12.66666,3.04238 -2.93334,0.75416 -9.29578,2.20282 -14.13875,3.21925 -4.84297,1.01643 -9.49297,2.27299 -10.33333,2.79236 -1.08716,0.67191 -1.52792,11.30647 -1.52792,36.86563 v 35.92131 l 3,-0.058 c 1.65,-0.032 5.7,-0.64188 9,-1.35544 z M 321.33334,242.76129 v -26.57206 l -7.20521,-2.09461 c -3.96287,-1.15204 -8.42745,-2.09461 -9.92131,-2.09461 -1.49385,0 -3.03804,-0.52092 -3.43153,-1.15759 -0.39348,-0.63668 -3.86389,-1.57525 -7.71203,-2.08572 -3.84812,-0.51048 -7.61158,-1.41417 -8.36325,-2.00824 -0.75167,-0.59405 -3.16667,-1.41315 -5.36667,-1.82021 -3.76385,-0.69642 -15.51932,-3.5454 -26,-6.3012 -2.56666,-0.67488 -7.96666,-2.03842 -12,-3.03007 -4.03333,-0.99165 -8.23333,-2.12732 -9.33333,-2.52368 -1.1,-0.39637 -7.4,-2.04765 -14,-3.66951 -6.6,-1.62185 -15.6,-3.84352 -20,-4.93704 -4.4,-1.09352 -9.8,-2.32126 -12,-2.72832 -2.2,-0.40706 -4.6,-1.19689 -5.33334,-1.75518 -0.73333,-0.5583 -4.03333,-1.41692 -7.33333,-1.90807 -3.3,-0.49115 -7.2,-1.39479 -8.66667,-2.00808 -2.36645,-0.98955 -15.53597,-4.36473 -32.42749,-8.31076 -3.16846,-0.74019 -5.94761,-1.13816 -6.17589,-0.8844 -0.22829,0.25377 -0.10264,11.97916 0.2792,26.05643 0.5926,21.84697 1.00885,25.72714 2.84255,26.4973 2.35041,0.98716 15.78965,4.32606 22.1483,5.50258 2.2,0.40706 4.6,1.20858 5.33333,1.78116 0.73334,0.57257 4.33334,1.47288 8,2.00068 3.66667,0.5278 7.26667,1.40857 8,1.95726 0.73334,0.5487 3.13334,1.34843 5.33334,1.77718 5.2277,1.01881 18.11621,4.22982 20.66666,5.14885 1.1,0.39637 7.4,2.04766 14,3.66951 24.3287,5.97843 26.77227,6.59679 32.00001,8.09789 2.93333,0.84228 8.63333,2.2709 12.66666,3.1747 4.03334,0.9038 8.23334,2.0044 9.33334,2.44577 1.1,0.44136 3.5,1.13435 5.33333,1.53996 14.1524,3.13108 18.61429,4.31531 19.46524,5.16627 0.53856,0.53856 2.31031,0.9792 3.9372,0.9792 2.65731,0 11.52852,2.2734 20.59756,5.27846 1.83333,0.60748 3.78333,1.16835 4.33333,1.24636 0.55,0.078 1,-11.81558 1,-26.43021 z m 47.33334,21.85788 c 5.86667,-1.26343 12.16667,-2.76919 14,-3.34612 1.83333,-0.57693 8.13333,-2.06128 14,-3.29856 5.86667,-1.23727 11.56667,-2.59747 12.66667,-3.02265 1.1,-0.4252 5.3,-1.52511 9.33333,-2.44424 4.03333,-0.91915 10.03334,-2.34756 13.33334,-3.17426 3.3,-0.82669 9.3,-2.2551 13.33333,-3.17425 4.03333,-0.91913 8.23333,-2.00407 9.33333,-2.41095 1.1,-0.40689 6.5,-1.75121 12,-2.9874 5.5,-1.2362 12.1,-2.80795 14.66667,-3.49279 7.15511,-1.90913 26.33605,-6.5679 36,-8.74386 4.76667,-1.07328 11.06667,-2.56842 14,-3.32251 2.93334,-0.75409 8.48334,-2.03327 12.33334,-2.84261 l 7,-1.47151 v -27.1358 -27.13579 l -3.66667,0.79579 c -2.01667,0.43769 -4.86667,1.2724 -6.33333,1.85489 -1.46667,0.58251 -7.46667,2.10419 -13.33334,3.38152 -5.86667,1.27734 -11.56667,2.66384 -12.66667,3.08114 -1.83137,0.69474 -10.65926,2.81428 -20.66666,4.96197 -2.2,0.47213 -4.9,1.21956 -6,1.66092 -1.1,0.44137 -5.3,1.55452 -9.33334,2.47365 -4.03333,0.91915 -9.73333,2.28348 -12.66666,3.03186 -2.93334,0.74838 -8.63334,2.0407 -12.66667,2.87184 -4.03333,0.83112 -8.23333,1.86678 -9.33333,2.30148 -1.9965,0.78894 -14.42927,3.7243 -22.00001,5.19417 -2.2,0.42713 -4.6,1.22553 -5.33333,1.77423 -0.73333,0.54869 -4.33333,1.42946 -8,1.95726 -3.66667,0.5278 -7.26667,1.42811 -8,2.00068 -0.73333,0.57258 -3.13333,1.39051 -5.33333,1.81764 -6.94608,1.34859 -19.91984,4.37468 -22,5.13144 -1.1,0.40018 -6.2,1.76236 -11.33334,3.02708 -5.13333,1.26472 -9.48345,2.4472 -9.66692,2.62774 -0.18346,0.18053 0.0599,12.07494 0.54066,26.43203 0.78001,23.29025 1.10338,25.98628 3.00025,25.01345 1.16931,-0.59968 6.92601,-2.12405 12.79268,-3.38748 z m -17.33333,-80.7927 c 2.93333,-0.73125 8.63333,-2.08157 12.66666,-3.00072 4.03334,-0.91913 8.23334,-2.03228 9.33334,-2.47365 1.1,-0.44136 3.8,-1.18879 6,-1.66092 9.74329,-2.09101 18.82473,-4.26141 20.66666,-4.93921 1.1,-0.40478 6.8,-1.78292 12.66667,-3.06254 5.86667,-1.27962 11.56667,-2.668 12.66667,-3.08529 1.83137,-0.69475 10.65927,-2.81428 20.66667,-4.96197 2.2,-0.47214 4.9,-1.21956 6,-1.66092 1.1,-0.44138 5.3,-1.55452 9.33333,-2.47366 4.03333,-0.91914 9.73333,-2.29036 12.66667,-3.04714 2.93333,-0.7568 9.16337,-2.25503 13.84454,-3.32943 10.23462,-2.34899 12.83367,-4.29327 7.34831,-5.49708 -4.77851,-1.04868 -16.63477,-4.37899 -24.23945,-6.8086 C 467.81112,136.8214 464.09654,136 462.69878,136 c -1.39776,0 -2.87123,-0.5337 -3.27438,-1.18601 -0.40316,-0.65231 -2.68856,-1.49417 -5.07869,-1.87081 -5.24617,-0.82669 -15.34169,-3.43375 -19.01236,-4.90973 -1.46667,-0.58975 -6.56667,-2.0949 -11.33334,-3.34478 -4.76666,-1.24988 -9.62848,-2.76616 -10.80404,-3.3695 -1.17554,-0.60335 -4.93292,-1.51622 -8.34972,-2.0286 -3.4168,-0.51238 -6.5404,-1.46237 -6.94132,-2.11108 C 397.504,116.53077 395.44679,116 393.33335,116 c -2.11344,0 -4.17066,-0.53076 -4.57159,-1.17948 -0.40092,-0.64871 -3.52452,-1.5987 -6.94132,-2.11108 -3.4168,-0.51238 -7.17417,-1.42625 -8.34972,-2.03082 -3.21143,-1.65159 -16.12691,-5.34528 -18.69048,-5.34528 -1.2358,0 -2.94689,-0.7 -3.80245,-1.55556 -2.02108,-2.02108 -17.2678,-2.02108 -19.28889,0 -0.85556,0.85556 -2.86665,1.55556 -4.46912,1.55556 -3.09285,0 -15.77085,3.5009 -19.35714,5.34528 -1.17555,0.60457 -4.93292,1.51844 -8.34972,2.03082 -3.4168,0.51238 -6.5404,1.46237 -6.94132,2.11108 -0.40094,0.64872 -2.45815,1.17948 -4.57159,1.17948 -2.11344,0 -4.17065,0.53077 -4.57159,1.17949 -0.40092,0.64871 -3.52452,1.5987 -6.94132,2.11108 -3.4168,0.51238 -7.17417,1.4164 -8.34972,2.00893 -3.49921,1.76375 -16.82113,5.36717 -19.84254,5.36717 -1.54227,0 -3.17494,0.6 -3.62816,1.33333 -0.45323,0.73334 -1.91974,1.33334 -3.25891,1.33334 -2.45367,0 -14.46322,3.34204 -19.40776,5.40082 -1.46667,0.61068 -5.36667,1.70747 -8.66667,2.4373 -3.3,0.72982 -8.1,1.93814 -10.66667,2.68516 -2.56666,0.74701 -8.04237,2.21348 -12.16824,3.25883 -4.12586,1.04533 -8.6083,2.51996 -9.96097,3.27694 -2.10476,1.1779 -1.69597,1.50951 2.83491,2.29972 2.91186,0.50784 9.7943,2.11814 15.2943,3.57842 13.44516,3.56976 25.14239,6.4256 30,7.32438 2.2,0.40707 4.6,1.1969 5.33334,1.75519 0.73333,0.55829 4.03333,1.41692 7.33333,1.90807 3.3,0.49114 7.2,1.39478 8.66667,2.00808 1.46667,0.61329 8.06667,2.43184 14.66667,4.0412 6.6,1.60936 15.6,3.81589 20,4.9034 4.4,1.0875 9.8,2.31034 12,2.7174 2.2,0.40706 4.6,1.18905 5.33333,1.73774 0.73333,0.5487 4.33333,1.42947 8,1.95727 3.66667,0.5278 7.26667,1.42811 8,2.00068 0.73333,0.57257 3.13333,1.37517 5.33333,1.78355 2.2,0.40837 6.1,1.27248 8.66667,1.92024 2.69443,0.68 6.63891,0.68128 9.33334,0.003 2.56666,-0.64609 7.06666,-1.77301 10,-2.50428 z"
     style="fill:#e8e8e8;stroke-width:1.33333337" />
  <path
     inkscape:connector-curvature="0"
     id="path32"
     d="m 335.26668,609.55874 c -0.69667,-0.60936 -5.16667,-2.17691 -9.93334,-3.48343 -4.76666,-1.30652 -10.16666,-2.89361 -12,-3.52689 -1.83333,-0.63327 -5.73333,-1.73165 -8.66666,-2.44085 -6.53056,-1.5789 -9.57856,-2.42443 -34,-9.43171 -10.63334,-3.05104 -22.63334,-6.42792 -26.66667,-7.50419 -4.03333,-1.07625 -9.13334,-2.50349 -11.33334,-3.17165 -2.2,-0.66816 -7.6,-2.18047 -12,-3.36068 -4.4,-1.18023 -9.8,-2.68023 -12,-3.33333 -2.2,-0.65312 -7.3,-2.07686 -11.33333,-3.16387 -4.03333,-1.08701 -12.73333,-3.5592 -19.33333,-5.49375 -6.6,-1.93454 -15.3,-4.39849 -19.33334,-5.47545 -4.03333,-1.07695 -9.43333,-2.56983 -12,-3.31749 -2.56666,-0.74768 -7.96667,-2.14283 -12,-3.10034 -4.03333,-0.95749 -10.03333,-2.71037 -13.33333,-3.89526 -3.3,-1.1849 -6.83428,-2.16308 -7.85396,-2.17376 -3.27058,-0.0343 -13.42191,-5.73548 -14.090511,-7.9136 -0.868767,-2.8302 -3.370556,-249.18769 -3.380739,-332.91006 l -0.0081,-66.80424 12.33334,-4.30891 c 6.78333,-2.36989 15.63333,-5.18465 19.66666,-6.25501 4.03334,-1.07036 9.13334,-2.49278 11.33334,-3.16093 2.2,-0.66816 7.3,-2.09361 11.33333,-3.16768 4.03334,-1.07407 10.93334,-2.96522 15.33334,-4.20257 4.4,-1.23735 9.8,-2.74787 12,-3.35671 11.5537,-3.19746 28.86289,-8.06674 35.33333,-9.93971 4.03333,-1.16751 12.73333,-3.61945 19.33333,-5.448756 6.60001,-1.829308 15.30001,-4.266184 19.33334,-5.415281 9.06919,-2.583815 13.14959,-3.710345 23.33333,-6.44195 4.4,-1.18022 9.8,-2.692525 12,-3.36068 2.2,-0.668155 7.6,-2.18046 12,-3.36068 4.4,-1.18022 9.8,-2.68022 12,-3.333334 2.2,-0.653113 7.3,-2.082229 11.33334,-3.175813 4.03333,-1.093584 9.88333,-2.693231 13,-3.554772 4.0616,-1.12275 7.08289,-1.175791 10.66667,-0.187263 4.3194,1.191442 35.85669,10.231972 47.66666,13.664202 2.2,0.639367 7.3,2.05186 11.33334,3.138873 4.03333,1.087014 12.73333,3.563326 19.33333,5.502918 6.6,1.939591 13.8,4.012387 16,4.606213 5.53143,1.49305 15.39987,4.271703 38,10.699653 22.60014,6.42795 32.46858,9.20661 38,10.69966 2.2,0.59383 9.40001,2.67101 16.00001,4.61596 6.6,1.94495 14.27028,4.10218 17.04505,4.79384 2.77479,0.69166 6.07479,1.79362 7.33333,2.4488 1.25856,0.65518 6.18828,2.246 10.95495,3.53516 4.76667,1.28914 9.43307,3.03334 10.36979,3.87598 2.20014,1.97919 3.82982,87.88571 5.05934,266.69728 l 0.89848,130.66667 -2.83512,3.54954 c -2.59958,3.25466 -16.06548,8.4919 -28.15916,10.95182 -3.48497,0.70887 -16.46821,4.1546 -23.33333,6.19266 -2.2,0.65312 -7.3,2.0809 -11.33334,3.17288 -12.7632,3.45548 -30.70814,8.46109 -50.66666,14.1331 -10.63334,3.0219 -24.73334,6.97459 -31.33334,8.78378 -6.6,1.80918 -17.4,4.79724 -24,6.64012 -13.37343,3.73417 -20.34916,5.63613 -36,9.81557 -10.63227,2.83927 -16.27453,4.65335 -21.33333,6.859 -5.02574,2.19124 -14.66642,5.19605 -16.73334,5.21547 -1.13666,0.0107 -2.63666,-0.47918 -3.33333,-1.08855 z m -10.38487,-61.89205 c -0.48113,-14.85 -0.88292,-52.80001 -0.89284,-84.33334 l -0.018,-57.33334 -25.65212,-6.43286 c -14.10872,-3.53808 -28.95217,-7.24214 -32.98551,-8.23123 -4.03333,-0.98911 -19.33333,-4.89025 -34,-8.66924 -14.66667,-3.77899 -29.96667,-7.67711 -34,-8.66249 -4.03333,-0.98539 -19.33333,-4.89016 -34,-8.67728 -33.76896,-8.71958 -35.86819,-9.23648 -36.19273,-8.91195 -0.14717,0.14717 0.26281,27.56403 0.91106,60.92632 0.64826,33.36231 1.20184,70.03879 1.23016,81.5033 0.0507,20.51246 0.0993,20.8551 3.05151,21.50609 1.65,0.36384 6.6,1.68577 11,2.93764 4.4,1.25186 9.8,2.75963 12,3.35059 2.2,0.59096 7.6,2.09927 12,3.35177 4.4,1.25251 11.3,3.15598 15.33333,4.22992 8.44303,2.24811 8.88371,2.37231 34.66667,9.77026 10.63333,3.05104 22.63334,6.42792 26.66667,7.50418 4.03333,1.07626 9.13333,2.5035 11.33333,3.17166 2.2,0.66816 7.6,2.18046 12,3.36068 4.4,1.18022 9.8,2.68022 12,3.33333 2.2,0.65312 7.3,2.07685 11.33334,3.16387 16.69656,4.49985 31.07818,8.77585 31.73916,9.43684 2.8961,2.8961 3.28718,-1.2571 2.47597,-26.29472 z m 63.1182,16.2251 c 15.76667,-4.4387 33.76667,-9.47536 40,-11.19256 6.23334,-1.71718 17.03334,-4.71024 24.00001,-6.6512 6.96666,-1.94097 15.96666,-4.42246 20,-5.51445 4.03333,-1.09197 9.13333,-2.51976 11.33333,-3.17288 2.2,-0.65311 7.3,-2.06616 11.33333,-3.14011 13.62356,-3.62752 23.30283,-6.2638 30.00001,-8.17089 3.66666,-1.04412 10.26666,-2.89402 14.66666,-4.11086 4.4,-1.21685 9.5,-2.76128 11.33334,-3.43206 l 3.33333,-1.21962 -0.35952,-76.9769 c -0.19773,-42.3373 -0.60044,-77.65275 -0.89491,-78.47877 -0.29742,-0.83434 -2.05753,-1.21089 -3.96005,-0.8472 l -3.42467,0.65467 -0.34709,58.69221 -0.34709,58.69222 -12.66667,3.26185 c -6.96667,1.79402 -15.66667,4.0764 -19.33334,5.07196 -3.66666,0.99556 -12.51666,3.34747 -19.66666,5.22646 -7.15,1.879 -18.85,4.95782 -26,6.84185 -21.49964,5.66515 -22.24642,5.84304 -24.66667,5.87603 -2.18701,0.0299 -2.33333,-3.61191 -2.33333,-58.07414 v -58.10593 l -3.66667,0.705 c -2.01667,0.38774 -13.56667,2.55605 -25.66667,4.81845 -12.1,2.2624 -24.4,4.65344 -27.33333,5.31341 -2.93334,0.65996 -10.89642,2.25651 -17.69572,3.54787 l -12.36239,2.34792 0.72885,42.07295 c 0.40087,23.14012 1.00112,51.07295 1.33391,62.07295 0.33279,11 0.61788,29.45 0.63353,41 0.0216,15.9062 0.43275,20.99541 1.69515,20.98108 0.91667,-0.0107 14.56667,-3.6506 30.33333,-8.08931 z M 487.33335,462.5553 c 5.13333,-1.32547 13.40875,-3.49264 18.3898,-4.81595 l 9.05647,-2.406 -0.0827,-59.91516 c -0.0455,-32.95334 -0.29173,-60.12415 -0.54716,-60.37959 -0.53155,-0.53153 -7.25152,0.99575 -18.81637,4.27651 -4.4,1.24821 -11.50766,3.0506 -15.79479,4.00532 -4.28715,0.9547 -8.25385,2.24818 -8.81491,2.87437 -0.56106,0.6262 -0.72514,27.98033 -0.36461,60.78696 l 0.65551,59.64842 3.49273,-0.83247 c 1.921,-0.45785 7.69273,-1.91695 12.82607,-3.24241 z M 323.02808,337.10344 c -0.74016,-34.64844 -0.83175,-35.58511 -3.56055,-36.41368 -4.78517,-1.45298 -27.52604,-7.41103 -40.80085,-10.68975 -6.96667,-1.72068 -18.66667,-4.72063 -26,-6.66655 -7.33334,-1.94593 -16.63334,-4.34597 -20.66667,-5.33345 -4.03334,-0.98748 -13.03334,-3.29991 -20,-5.13875 -6.96667,-1.83882 -17.76667,-4.60322 -24,-6.1431 -6.23334,-1.53988 -13.43334,-3.38004 -16,-4.08924 -9.62606,-2.65978 -26.25146,-6.94632 -33.33334,-8.59439 -4.03333,-0.93861 -8.39294,-2.14824 -9.68802,-2.68807 -2.22264,-0.92644 -2.3348,1.0987 -2,36.1104 l 0.35469,37.09188 9.33333,2.5137 c 5.13333,1.38253 12.63334,3.32066 16.66667,4.30697 4.03333,0.98631 9.73333,2.43746 12.66667,3.22478 2.93333,0.7873 8.93333,2.28017 13.33333,3.31746 4.4,1.0373 14,3.48498 21.33333,5.4393 11.9286,3.17896 18.09654,4.73778 34,8.59285 2.56667,0.62217 13.96667,3.55051 25.33334,6.50741 11.36667,2.95691 25.76667,6.63339 32,8.16998 6.23333,1.53658 13.43333,3.3697 16,4.07357 10.677,2.92804 14.04695,3.55856 14.89388,2.78664 0.49164,-0.44809 0.55203,-16.81817 0.13419,-36.37796 z m 43.6386,34.83135 c 4.76667,-0.8248 11.36667,-2.0295 14.66667,-2.67708 6.5229,-1.28006 19.56034,-3.808 37.33333,-7.2389 6.23333,-1.20328 13.56691,-2.52656 16.29682,-2.94062 l 4.96349,-0.75283 0.36984,-18.08061 0.36985,-18.08061 12,-3.20353 c 6.6,-1.76193 15.3,-4.01047 19.33334,-4.99673 4.03333,-0.98627 9.43333,-2.37511 12,-3.08632 2.56666,-0.7112 11.86666,-3.2061 20.66666,-5.54422 8.8,-2.33812 17.8,-4.76078 20.00001,-5.38372 22.14185,-6.26942 20.66666,-7.23137 20.66666,13.47646 0,17.30882 0.0201,17.4232 3,17 l 3,-0.42607 0.20379,-38.33333 c 0.20123,-37.85434 0.16953,-38.33334 -2.53661,-38.33334 -2.46282,0 -29.16738,6.06688 -41.00051,9.31471 -2.56667,0.70448 -14.86667,3.71285 -27.33334,6.68529 -12.46666,2.97244 -24.76666,5.98082 -27.33333,6.6853 -2.56667,0.70446 -12.46667,3.09608 -22,5.3147 -9.53334,2.21863 -19.43334,4.61298 -22,5.32079 -2.56667,0.70781 -12.46667,3.11345 -22,5.34588 -9.53334,2.23243 -19.43334,4.61603 -22,5.29691 -2.56667,0.68086 -6.31667,1.57904 -8.33334,1.99592 l -3.66666,0.75797 v 37.39779 c 0,34.99699 0.14978,37.35245 2.33333,36.69181 1.28333,-0.38828 6.23333,-1.38081 11,-2.20562 z M 322.46702,242.6866 c -0.38753,-22.11151 -0.80741,-26.79151 -2.46701,-27.49731 -1.1,-0.46782 -5.6,-1.7096 -10,-2.75954 -4.4,-1.04994 -10.1,-2.44332 -12.66667,-3.09641 -2.56666,-0.65309 -8.26666,-2.0668 -12.66666,-3.14159 -4.4,-1.07478 -14,-3.55316 -21.33334,-5.50748 -7.33333,-1.95432 -16.93333,-4.402 -21.33333,-5.43929 -4.4,-1.03729 -10.4,-2.53016 -13.33334,-3.31747 -2.93333,-0.78732 -8.63333,-2.23484 -12.66666,-3.21672 -7.67668,-1.8688 -25.35538,-6.46864 -33.33334,-8.67302 -2.56666,-0.7092 -9.76666,-2.54936 -16,-4.08924 -19.85418,-4.90476 -35.23656,-8.85786 -38.48992,-9.89144 l -3.15659,-1.00284 0.48992,26.78865 c 0.40665,22.23531 0.82987,26.92944 2.48992,27.61688 2.0776,0.86035 17.78773,4.99355 37.33334,9.82208 6.23333,1.53988 13.43333,3.38004 16,4.08924 8.36749,2.31201 25.83547,6.84814 33.33333,8.65607 4.03334,0.97253 13.03334,3.27801 20,5.12328 6.96667,1.84527 22.26667,5.82221 34.00001,8.83767 11.73333,3.01545 27.63333,7.17004 35.33333,9.23241 21.26135,5.69464 19.00991,8.44191 18.46701,-22.53393 z m 35.43833,25.32864 c 2.25206,-0.72495 11.89466,-3.15279 21.428,-5.39518 9.53333,-2.24238 19.43333,-4.64922 22,-5.34852 2.56666,-0.6993 14.86666,-3.68058 27.33333,-6.62508 12.46667,-2.94449 24.76667,-5.94829 27.33334,-6.67509 2.56666,-0.72681 7.36666,-1.95723 10.66666,-2.73425 3.3,-0.77703 8.1,-1.91896 10.66667,-2.53763 2.56667,-0.61868 8.56667,-2.04796 13.33333,-3.17619 4.76667,-1.12824 14.96667,-3.61372 22.66667,-5.52329 12.30552,-3.05174 24.71775,-6.04522 34.33334,-8.28023 2.99004,-0.695 3,-0.78745 3,-27.84188 v -27.14456 l -4.33334,0.7458 c -2.38333,0.41019 -5.83333,1.25768 -7.66666,1.88331 -1.83334,0.62561 -5.43334,1.52425 -8,1.99696 -2.56667,0.4727 -6.46667,1.40408 -8.66667,2.0697 -2.2,0.66563 -23.8,6.02684 -48,11.91382 -24.2,5.88697 -46.10001,11.30213 -48.66667,12.03369 -4.65784,1.3276 -20.19668,5.16163 -35.33334,8.71808 -4.4,1.03381 -10.4,2.52383 -13.33333,3.31113 -2.93333,0.78732 -8.63333,2.21931 -12.66667,3.18219 -13.33118,3.18259 -12.1859,0.26744 -11.88453,30.25026 0.14648,14.57228 0.58783,26.49506 0.98076,26.49506 0.39295,0 2.55704,-0.59314 4.80911,-1.3181 z m 3.38352,-86.03455 c 25.79168,-6.28252 30.55712,-7.47807 39.37781,-9.87907 2.93333,-0.79845 7.73333,-2.01021 10.66667,-2.6928 2.93333,-0.6826 11.63333,-2.82037 19.33333,-4.75063 7.7,-1.93025 17.6,-4.36222 22,-5.40437 4.4,-1.04216 10.4,-2.539 13.33334,-3.32631 8.83192,-2.37052 20.87601,-5.21692 29,-6.85362 4.21666,-0.84951 7.66666,-1.95915 7.66666,-2.46587 0,-0.50673 -2.85,-1.56421 -6.33333,-2.34996 -7.9964,-1.8038 -17.73965,-4.43343 -33,-8.90643 -6.6,-1.93455 -15.3,-4.40673 -19.33333,-5.49375 -4.03334,-1.08701 -9.13334,-2.52305 -11.33334,-3.19121 -2.2,-0.66815 -7.3,-2.1042 -11.33333,-3.19121 -4.03334,-1.08702 -12.73334,-3.55034 -19.33334,-5.47406 -12.40057,-3.61443 -23.71372,-6.82431 -30.66666,-8.70105 -2.2,-0.59383 -9.4,-2.68851 -16,-4.65485 -13.48075,-4.01633 -14.16448,-4.08755 -20.66667,-2.15268 -2.56667,0.76377 -7.96667,2.26746 -12,3.34153 -4.03334,1.07406 -10.93334,2.96522 -15.33334,4.20257 -4.4,1.23735 -9.8,2.73501 -12,3.32814 -2.2,0.59313 -12.7,3.56487 -23.33333,6.60385 -10.63333,3.03899 -24.73333,7.01353 -31.33333,8.83232 -6.60001,1.81878 -15.30001,4.24705 -19.33334,5.39615 -12.19305,3.4738 -26.59928,7.38292 -36.55045,9.91793 -8.41095,2.14264 -8.55255,3.03418 -0.78288,4.92914 16.11897,3.93126 22.55462,5.56549 35.33333,8.97232 7.33333,1.95509 15.92343,4.09049 19.0891,4.74534 3.16566,0.65486 6.27557,1.51191 6.9109,1.90456 0.63534,0.39266 3.74524,1.24647 6.91091,1.89738 3.16567,0.65089 15.35576,3.69838 27.08909,6.7722 11.73334,3.07381 23.43334,6.06221 26,6.64089 4.6549,1.04949 18.41679,4.57037 26,6.65192 2.20001,0.60389 4.27999,1.1594 4.62219,1.23447 0.3422,0.0751 11.7422,-2.57222 25.33334,-5.88284 z"
     style="fill:#d0d0d0;stroke-width:1.33333337" />
  <path
     inkscape:connector-curvature="0"
     id="path30"
     d="m 332.00001,607.88121 c -3.21295,-1.38458 -53.58973,-15.69099 -107.33334,-30.48139 -2.2,-0.60544 -19.3,-5.43536 -38,-10.73313 -18.7,-5.29778 -35.8,-10.11206 -38,-10.6984 -2.2,-0.58635 -9.7,-2.65668 -16.66667,-4.60075 -6.96666,-1.94407 -14.86955,-4.08949 -17.56196,-4.76761 -2.69242,-0.67814 -6.98222,-2.46427 -9.5329,-3.96922 l -4.63761,-2.73625 -0.758033,-17.61388 C 98.628935,501.81971 95.937794,241.64524 95.974858,180.55854 l 0.02515,-41.44147 17.666662,-5.52059 c 9.71667,-3.03632 22.16667,-6.77543 27.66667,-8.30912 5.5,-1.5337 13.30001,-3.71527 17.33333,-4.84793 4.03334,-1.13267 9.13334,-2.54291 11.33334,-3.13388 2.2,-0.59096 7.6,-2.09096 12,-3.33333 4.4,-1.24237 9.8,-2.74227 12,-3.33312 2.2,-0.59085 23.5,-6.56547 47.33333,-13.276931 55.25423,-15.559586 57.20914,-16.107234 62,-17.368689 2.2,-0.579269 11.73449,-3.302925 21.18773,-6.052569 16.98996,-4.941831 17.25844,-4.974723 23.33334,-2.858803 5.23355,1.822875 31.69437,9.475536 44.81228,12.960036 2.2,0.584384 14.5,4.060986 27.33333,7.725781 46.95589,13.409125 76.76123,21.882585 80.66667,22.933025 2.2,0.59173 12.7,3.5763 23.33334,6.63239 10.63333,3.05608 21.13333,6.05361 23.33333,6.66117 2.2,0.60755 5.8,1.74358 8,2.5245 2.2,0.78093 8.5,2.83257 14,4.55921 l 10,3.13934 0.83843,35.89123 c 0.46113,19.74016 1.59964,108.57721 2.53,197.41564 l 1.69156,161.52443 -2.78296,4.47557 c -2.39816,3.85672 -4.40729,4.97187 -14.53,8.06468 -6.46087,1.974 -16.54703,4.79788 -22.41369,6.27528 -13.2598,3.33922 -17.24343,4.43444 -111.33334,30.60907 -42.16667,11.73023 -78.57547,22.29583 -80.90843,23.47909 -5.45049,2.76448 -16.14253,3.77408 -20.42491,1.92866 z m -6.54379,-60.54786 c -0.0565,-14.66666 -0.49926,-52.54184 -0.98388,-84.16705 l -0.8811,-57.50039 -10.79562,-2.69543 c -5.93758,-1.48248 -27.29561,-6.91837 -47.46228,-12.07977 -123.11146,-31.50878 -136.45614,-34.8907 -137.67472,-34.8907 -1.08992,0 -0.0698,134.47569 1.15932,152.82118 l 0.72499,10.82117 5.56187,1.67575 c 3.05903,0.92167 8.26187,2.43636 11.56187,3.36598 3.3,0.92961 9.3,2.64704 13.33334,3.81649 6.74617,1.95603 70.12425,19.66708 79.33333,22.16975 30.49232,8.28664 81.20472,22.75662 81.78383,23.33573 0.41404,0.41405 1.58283,0.58207 2.59731,0.37339 1.50049,-0.30867 1.82533,-5.35278 1.74174,-27.0461 z m 131.21046,-1.98518 c 83.89267,-23.18407 89.7071,-24.82527 94.95095,-26.80107 l 2.95094,-1.11187 -0.80136,-78.38428 c -0.44075,-43.11135 -0.89883,-78.51443 -1.01796,-78.67351 -0.11907,-0.15909 -1.86134,0.15061 -3.87156,0.68824 l -3.65495,0.97748 0.082,57.66149 0.082,57.66151 -3.02673,1.28788 c -1.66471,0.70834 -11.42674,3.48179 -21.69341,6.16323 -10.26666,2.68144 -23.76666,6.22944 -30,7.88445 -40.46302,10.74328 -48.26318,12.62635 -49.39756,11.92527 -0.77129,-0.47673 -1.26902,-23.23911 -1.26902,-58.039 0,-53.63943 -0.14734,-57.25463 -2.33334,-57.25442 -1.28333,1.4e-4 -7.13333,0.95684 -13,2.12604 -5.86667,1.16919 -15.16667,2.98715 -20.66667,4.0399 -5.5,1.05274 -12.7,2.43546 -16,3.07269 -3.3,0.63723 -9.6,1.83676 -14,2.66564 -4.4,0.82888 -10.89044,2.159 -14.42318,2.95583 l -6.4232,1.44877 0.86126,82.17879 c 0.47371,45.19834 1.08386,82.89895 1.35591,83.77916 0.36736,1.18856 2.82783,0.95612 9.56192,-0.90329 4.98701,-1.37703 46.26729,-12.78404 91.73396,-25.34893 z m 30,-82.14845 c 6.96667,-1.87933 15.70422,-4.16317 19.41678,-5.0752 3.71256,-0.91204 7.48332,-2.1114 8.37948,-2.66525 1.26408,-0.78124 1.44492,-14.21031 0.80661,-59.8998 -0.45252,-32.39103 -1.03936,-59.60347 -1.30411,-60.47208 -0.34165,-1.12095 -1.56738,-1.21982 -4.22338,-0.34064 -4.11216,1.36118 -30.90494,8.52334 -36.74204,9.82177 l -3.66667,0.81563 V 379.811 c 0,48.65124 1.41315,86.86156 3.21128,86.83068 0.80047,-0.0137 7.15539,-1.56262 14.12205,-3.44196 z M 323.55546,338.42005 c -0.46678,-19.93564 -1.30772,-36.67436 -1.86874,-37.19715 -0.56103,-0.52278 -7.02004,-2.47552 -14.35338,-4.3394 -14.4813,-3.68065 -51.10149,-13.0869 -78.66667,-20.20629 -9.53333,-2.46223 -29.33333,-7.55931 -44,-11.32685 -14.66666,-3.76756 -33.4405,-8.63334 -41.71962,-10.81284 -8.27914,-2.17952 -15.47914,-3.6999 -16.00001,-3.37863 -0.52087,0.32125 -0.77865,17.09715 -0.57285,37.27976 l 0.37419,36.69565 8.29248,2.00799 c 4.56086,1.1044 19.99248,5.01761 34.29248,8.69603 14.3,3.67841 41.6,10.66683 60.66667,15.5298 19.06667,4.86297 46.96667,12.0246 62,15.91471 15.03333,3.89012 28.47427,7.14289 29.86875,7.2284 2.45277,0.15038 2.50774,-1.02594 1.6867,-36.09118 z m 45.83822,33.66068 c 6.93348,-1.42228 22.50633,-4.45536 34.60633,-6.74018 12.1,-2.28483 25.15001,-4.81663 29.00001,-5.62622 l 7,-1.472 v -17.73644 -17.73643 l 5,-1.24401 c 2.75,-0.6842 6.5,-1.64348 8.33333,-2.13175 1.83333,-0.48825 8.73333,-2.30764 15.33333,-4.04308 35.2097,-9.25822 62.34075,-16.50166 67.32454,-17.97429 8.11343,-2.39739 7.89781,-2.80316 8.30229,15.62368 l 0.37318,17 h 4 4 l -0.49808,-38.66667 c -0.27394,-21.26666 -0.71672,-38.90945 -0.98396,-39.20618 -0.26724,-0.29674 -5.44311,0.74094 -11.50192,2.30596 -6.05883,1.56501 -22.41605,5.59096 -36.34938,8.94656 -13.93333,3.3556 -37.33333,9.03452 -52,12.61982 -29.29362,7.16092 -78.84776,19.14543 -89.33334,21.60498 -3.66666,0.86008 -7.26666,1.99925 -8,2.53149 -2.12782,1.54435 -1.04912,74.53071 1.10154,74.53071 0.92718,0 7.35865,-1.16368 14.29213,-2.58595 z m -46.727,-129.33536 c 0,-14.62339 -0.51428,-26.90583 -1.14284,-27.2943 -0.62856,-0.38846 -16.67856,-4.66584 -35.66667,-9.50528 -18.98811,-4.83942 -47.42383,-12.09428 -63.1905,-16.12189 -54.69213,-13.9712 -96.27066,-24.49056 -96.80062,-24.49056 -1.2095,0 -0.45582,53.22348 0.76435,53.97759 0.71339,0.44089 5.66339,1.93544 11,3.3212 5.33662,1.38576 18.10294,4.70766 28.36961,7.382 10.26666,2.67434 28.86666,7.47573 41.33333,10.66975 48.87487,12.52197 75.38679,19.37261 92,23.77268 9.53334,2.52492 18.68334,4.65513 20.33334,4.73378 l 3,0.143 z m 47.20328,22.64873 c 8.87153,-2.16658 28.73005,-6.96444 44.13005,-10.6619 15.40001,-3.69746 30.10001,-7.31718 32.66667,-8.04383 2.56667,-0.72664 12.16667,-3.10145 21.33334,-5.27735 32.05384,-7.60863 72.71608,-17.43515 78.51704,-18.97457 l 5.85037,-1.55254 -0.85037,-11.98012 c -0.46771,-6.58906 -0.85037,-18.98217 -0.85037,-27.54022 v -15.56011 l -47.66667,11.74879 c -26.21667,6.46182 -49.46667,12.28921 -51.66667,12.94976 -2.2,0.66054 -25.45,6.45841 -51.66667,12.88416 l -47.66667,11.68316 v 27.132 c 0,14.92261 0.39148,27.13201 0.86995,27.13201 0.47847,0 8.12847,-1.77266 17,-3.93924 z m -20.09209,-80.06799 c 5.98884,-1.47064 12.98881,-3.26694 15.55548,-3.9918 4.94028,-1.39517 132.11697,-32.75608 136.66667,-33.70106 3.8245,-0.79438 5.6249,-0.20834 -41.33334,-13.45403 -13.93333,-3.93023 -26.53333,-7.47098 -28,-7.86834 -1.46666,-0.39735 -11.36667,-3.24864 -22,-6.3362 -10.63333,-3.08755 -21.13333,-6.09242 -23.33333,-6.67748 -2.2,-0.58507 -13.6017,-3.77683 -25.33711,-7.09282 l -21.33711,-6.02906 -9.32956,2.69208 c -5.13125,1.48064 -11.12956,3.1767 -13.32956,3.76902 -2.2,0.59232 -7.6,2.09343 -12,3.3358 -4.4,1.24237 -9.8,2.74237 -12,3.33333 -5.43187,1.45911 -13.39795,3.69863 -50,14.05663 -17.23334,4.87685 -33.13334,9.35094 -35.33334,9.94242 -2.2,0.59148 -7.6,2.10179 -12,3.35622 -4.4,1.25444 -10.85,2.89844 -14.33333,3.65333 -3.48333,0.75491 -6.33333,1.80179 -6.33333,2.32643 0,0.52463 8.55,3.09063 19,5.70223 17.29842,4.3231 40.59164,10.26057 113.66667,28.97377 13.93333,3.56808 26.43336,6.53152 27.77785,6.58543 1.34448,0.0539 7.34448,-1.10526 13.33334,-2.5759 z"
     style="fill:#afafaf;stroke-width:1.33333337" />
  <path
     inkscape:connector-curvature="0"
     id="path28"
     d="m 333.33334,607.86843 c -1.83333,-0.77921 -22.53333,-6.81245 -46,-13.40721 C 185.18467,565.75471 145.48521,554.64645 138,552.67642 c -4.4,-1.15804 -10.78052,-2.98397 -14.17895,-4.05763 -3.39842,-1.07365 -6.98981,-1.9521 -7.98086,-1.9521 -0.99105,0 -4.96052,-1.59811 -8.82105,-3.55136 L 100,539.56397 99.939133,529.44866 c -0.03348,-5.56341 -0.61749,-58.41531 -1.297802,-117.44865 -0.680312,-59.03333 -1.634173,-144.53333 -2.119693,-190 l -0.882763,-82.66667 9.847235,-3.07434 c 8.6062,-2.68689 64.2033,-18.6474 75.18056,-21.58243 2.2,-0.58822 30.1,-8.38244 62.00001,-17.320504 31.9,-8.938059 59.8,-16.723907 62,-17.301886 13.93598,-3.661224 29.67471,-8.358525 31.64857,-9.445676 2.95228,-1.626028 5.77532,-1.618522 8.70286,0.02315 1.89858,1.064669 21.38613,6.774814 40.9819,12.008321 2.2,0.587561 15.85,4.433936 30.33334,8.547499 14.48333,4.113561 38.18333,10.844846 52.66667,14.958406 14.48333,4.11356 28.13333,7.96001 30.33333,8.54767 33.13095,8.84982 76.85015,22.38469 78.88259,24.42095 1.1394,1.14154 1.94649,40.35382 3.05073,148.21885 0.82582,80.66667 1.8673,168.57506 2.31439,195.35196 1.00719,60.31998 2.19803,56.20627 -18.24771,63.03606 -5.5,1.83725 -12.1,3.68755 -14.66666,4.11177 -2.56667,0.42422 -8.56667,1.8919 -13.33334,3.2615 -4.76666,1.3696 -47.06667,13.12862 -94,26.13117 -46.93334,13.00255 -87.73334,24.77034 -90.66667,26.15063 -6.86175,3.22885 -15.10099,4.29085 -19.33334,2.492 z m -7.60436,-114.86841 c -0.2931,-44.91667 -0.79297,-82.93507 -1.11082,-84.48533 -0.66944,-3.26498 0.76358,-2.8202 -53.28482,-16.53888 -20.53333,-5.21182 -49.03333,-12.4831 -63.33333,-16.1584 -14.3,-3.6753 -37.4,-9.58794 -51.33334,-13.13918 -13.93333,-3.55126 -26.38333,-6.87083 -27.66667,-7.37684 -2.17358,-0.85703 -2.33321,0.84704 -2.33163,24.8893 9.3e-4,14.19514 0.39764,51.39521 0.88157,82.66685 l 0.87988,56.8575 5.45176,1.63942 c 2.99846,0.90168 8.15176,2.40001 11.45176,3.32963 3.3,0.92961 9.3,2.64173 13.33333,3.8047 8.95831,2.58303 73.76974,20.72695 79.33334,22.20931 2.2,0.58617 22,6.16769 44,12.40339 22,6.2357 40.95893,11.38884 42.13095,11.45141 1.9359,0.10333 2.08217,-7.36105 1.59802,-81.55288 z m 127.78866,53.62365 c 53.06531,-14.69032 97.61926,-27.05832 99.00878,-27.48445 2.45691,-0.75348 2.49953,-2.94363 1.5494,-79.62367 -0.53735,-43.36688 -1.18133,-79.05596 -1.43105,-79.30908 -0.24974,-0.25312 -2.37398,-0.0385 -4.72055,0.47686 l -4.26647,0.93707 0.50447,58.0866 0.50447,58.08659 -4,1.11093 c -2.2,0.61102 -12.1,3.25176 -22.00001,5.86834 -35.85778,9.47721 -42.13312,11.13954 -50,13.24501 -21.2957,5.69949 -26.1499,6.81336 -26.55752,6.09404 -0.24265,-0.42821 -0.87097,-26.57856 -1.39626,-58.11189 -0.52531,-31.53334 -1.07168,-57.45443 -1.21419,-57.60243 -0.14251,-0.148 -4.438,0.57205 -9.54556,1.60012 -5.10756,1.02806 -22.18647,4.31422 -37.95314,7.30258 -15.76666,2.98838 -30.76666,5.89031 -33.33333,6.44876 l -4.66667,1.01536 -0.4291,23.95114 c -0.62226,34.73305 1.22993,144.6178 2.43765,144.6178 0.56469,0 44.44379,-12.01934 97.50908,-26.70968 z m 39.44663,-84.63164 c 10.103,-2.63217 19.47507,-5.11539 20.82684,-5.51824 2.35001,-0.70035 2.43769,-3.38133 2,-61.1594 -0.25177,-33.23482 -0.77881,-60.74767 -1.17121,-61.13967 -0.3924,-0.392 -7.2924,1.03305 -15.33334,3.16679 -8.04093,2.13373 -17.91988,4.72312 -21.95321,5.7542 l -7.33333,1.87469 -0.34766,59.84815 c -0.19121,32.91647 -0.0361,60.66039 0.34458,61.65313 0.38072,0.99276 1.57108,1.46776 2.64524,1.05558 1.07416,-0.4122 10.2191,-2.90306 20.32209,-5.53523 z M 323.44714,301.81577 c -0.32828,-0.85548 -3.48817,-2.20133 -7.022,-2.9908 -3.53382,-0.78947 -15.72513,-3.87765 -27.0918,-6.86264 -11.36666,-2.98499 -33.56666,-8.75393 -49.33333,-12.81988 -15.76667,-4.06595 -38.86667,-10.02377 -51.33334,-13.23963 -49.3124,-12.7204 -61.95653,-15.72406 -62.76945,-14.91113 -0.46583,0.46583 -0.33327,17.45659 0.29458,37.75724 l 1.14154,36.91028 20,5.03308 c 11,2.76819 34.1,8.65668 51.33333,13.08554 70.41597,18.09645 116.89191,29.95357 120.66667,30.78496 l 4,0.88097 0.35534,-36.03628 c 0.19544,-19.81996 0.0868,-36.73623 -0.24154,-37.59171 z m 58.48998,68.27664 c 12.50125,-2.51584 29.62956,-5.85478 38.06289,-7.41986 8.43334,-1.56508 16.36617,-3.14164 17.62851,-3.50348 1.9958,-0.57206 2.34363,-2.93787 2.66667,-18.13762 l 0.37149,-17.47975 5.33334,-1.6472 c 2.93333,-0.90596 11.33333,-3.21025 18.66666,-5.12065 7.33334,-1.91041 27.73334,-7.30956 45.33334,-11.99812 17.6,-4.68856 32.45,-8.24799 33,-7.90984 0.55,0.33816 1,7.97943 1,16.98059 0,9.00116 0.29659,16.66234 0.65908,17.02484 0.36249,0.36249 2.46249,0.39438 4.66667,0.0709 l 4.00758,-0.58824 -0.007,-24.182 c -0.008,-33.68196 -1.29767,-54.182 -3.40844,-54.182 -1.62054,0 -19.73294,4.30439 -81.25157,19.30931 -16.13333,3.93506 -43.43333,10.5807 -60.66667,14.7681 -17.23333,4.1874 -36.73333,8.955 -43.33333,10.59468 l -12,2.98123 -0.24812,22.69841 c -0.13647,12.48413 0.10347,29.36214 0.53308,37.50667 0.72765,13.79318 0.96885,14.80827 3.51856,14.80827 1.50555,0 12.96567,-2.05841 25.46692,-4.57427 z M 322.66668,242.66668 c 0,-15.40001 -0.26623,-28.00001 -0.59162,-28.00001 -0.32538,0 -12.17538,-2.96513 -26.33333,-6.58917 -14.15795,-3.62405 -38.64172,-9.88185 -54.40839,-13.90623 -15.76667,-4.02438 -46.66667,-11.96257 -68.66667,-17.64042 -22,-5.67784 -41.8,-10.37004 -44,-10.4271 l -4,-0.10373 0.48569,26.66667 c 0.26712,14.66666 0.66676,26.86629 0.88807,27.11029 0.40829,0.45013 11.09912,3.26243 67.29291,17.70181 60.2012,15.46913 88.81096,22.85759 108,27.89095 10.63334,2.78918 19.78334,5.12202 20.33334,5.18408 0.55,0.0621 1,-12.48714 1,-27.88714 z m 41.24587,24.67938 c 4.08144,-1.093 20.9208,-5.25616 37.4208,-9.25146 16.5,-3.99532 41.4,-10.0345 55.33333,-13.4204 23.79496,-5.78236 67.27398,-16.29911 80.66667,-19.51175 3.3,-0.79162 7.95,-2.02352 10.33334,-2.7376 l 4.33333,-1.29831 v -27.15125 c 0,-14.93318 -0.50536,-27.46356 -1.12301,-27.8453 -0.61766,-0.38173 -6.76766,0.77011 -13.66667,2.55964 -6.89901,1.78955 -50.34366,12.58547 -96.54366,23.99096 -46.2,11.4055 -85.41944,21.33702 -87.15431,22.07006 -3.14313,1.32808 -3.15154,1.39282 -2.37493,18.29108 0.42865,9.32705 0.79809,21.30828 0.82097,26.62495 0.0476,11.04768 -0.14992,10.92082 11.95414,7.67938 z m 57.75413,-99.51281 c 45.28334,-11.27218 82.33334,-20.87604 82.33334,-21.34195 0,-0.46589 -1.35,-1.1436 -3,-1.506 -1.65,-0.3624 -15,-4.08686 -29.66667,-8.27655 -14.66667,-4.18971 -28.46667,-8.0975 -30.66667,-8.68399 -3.74344,-0.99795 -25.73848,-7.22517 -77.93799,-22.06573 l -21.93797,-6.237071 -20.06203,5.615231 c -11.03411,3.08838 -22.46201,6.36999 -25.39535,7.29248 -2.93333,0.92249 -31.27782,8.8082 -62.98776,17.52379 -31.70993,8.7156 -57.65993,16.19901 -57.66667,16.62981 -0.007,0.4308 4.93776,2.02284 10.98776,3.5379 12.53331,3.13858 82.93763,21.1658 123.66667,31.66516 15.03334,3.87538 27.93334,6.88766 28.66667,6.69396 0.73334,-0.1937 38.38334,-9.57487 83.66667,-20.84704 z"
     style="fill:#909090;stroke-width:1.33333337" />
  <path
     inkscape:connector-curvature="0"
     id="path26"
     d="m 331.33334,606.61846 c -7.69738,-2.32136 -66.45016,-19.04731 -74.66666,-21.25637 -2.2,-0.59148 -7.3,-2.00343 -11.33334,-3.13766 -61.72887,-17.35898 -85.35097,-23.98097 -88.66667,-24.85592 -2.2,-0.58054 -11.5,-3.15105 -20.66667,-5.71222 -9.16666,-2.56119 -19.36666,-5.37588 -22.66666,-6.2549 -3.3,-0.879 -7.59807,-2.90389 -9.55125,-4.49977 l -3.55125,-2.9016 -1.761683,-159.33334 C 97.500233,291.03334 96.698294,201.39395 96.687073,179.46803 L 96.66667,139.60272 102,137.7168 c 4.39891,-1.55549 41.23915,-12.15536 74.00001,-21.29166 4.03333,-1.12481 9.13333,-2.54678 11.33333,-3.15994 2.2,-0.61316 6.1,-1.68359 8.66667,-2.37872 7.63548,-2.06794 86.71825,-24.129606 94.66667,-26.409101 8.84762,-2.537376 17.26825,-4.91201 25.33333,-7.144043 13.82821,-3.827 19.50478,-5.607592 22.41562,-7.031216 2.18448,-1.068372 3.73878,-1.097479 5.33612,-0.09992 1.23961,0.774149 33.45258,10.2376 71.58438,21.029893 38.13181,10.792287 70.83055,20.135087 72.66389,20.761767 1.83333,0.62667 15.63333,4.5225 30.66666,8.65739 15.03334,4.13488 30.33334,8.59874 34.00001,9.91968 3.66666,1.32094 10.98386,3.70691 16.26044,5.30213 6.21837,1.87998 9.82057,3.70259 10.2384,5.18036 0.35456,1.25396 1.00862,59.57993 1.45349,129.61326 0.44487,70.03334 1.42353,157.18769 2.17481,193.67633 l 1.36596,66.34298 -2.83994,5.05302 c -2.41666,4.29986 -4.16752,5.50022 -11.74656,8.05322 -4.89863,1.65009 -13.4066,4.13942 -18.9066,5.53182 -9.54796,2.41722 -26.88513,7.09794 -42.66667,11.51923 -4.03334,1.12996 -9.13334,2.538 -11.33334,3.12896 -2.2,0.59096 -7.3,2.00068 -11.33333,3.13269 -4.03333,1.13202 -34.63333,9.65134 -68,18.93183 -33.36667,9.28049 -61.26667,17.35757 -62,17.94907 -1.1244,0.90693 -15.63631,5.64709 -15.90867,5.1964 -0.0503,-0.0831 -3.69133,-1.23682 -8.09134,-2.56376 z m -5.47966,-116.28511 c -0.48836,-46.38333 -1.07395,-84.55206 -1.3013,-84.81939 -0.22736,-0.26733 -12.89465,-3.66308 -28.14954,-7.54611 -15.25488,-3.88302 -45.73616,-11.6576 -67.73617,-17.27685 -22,-5.61925 -52.9,-13.49272 -68.66666,-17.4966 -15.76667,-4.00389 -29.71667,-7.60101 -31.00001,-7.99361 -2.20069,-0.67323 -2.32306,2.7967 -2.15276,61.0427 0.0993,33.9661 0.54931,71.31897 1,83.00641 l 0.81943,21.24988 6.66667,1.83226 c 11.65324,3.20277 13.92232,3.83882 53.33333,14.94977 44.19534,12.45977 51.76573,14.58313 57.33334,16.08093 2.2,0.59185 19.9,5.58064 39.33333,11.08619 19.43334,5.50556 36.7002,10.05682 38.3708,10.11393 l 3.03747,0.10387 -0.88793,-84.33334 z m 129.782,56.161 c 53.36706,-14.76145 97.71875,-27.51145 98.55933,-28.33333 1.13961,-1.11428 1.24601,-21.45171 0.41836,-79.96486 -0.61048,-43.15879 -1.35092,-78.71149 -1.64544,-79.00601 -0.29452,-0.29452 -2.43279,0.12586 -4.7517,0.93429 l -4.21621,1.46977 v 58.38491 58.3849 l -3.66667,0.60949 c -2.01666,0.33521 -12.06666,2.84665 -22.33333,5.58095 -55.92286,14.89385 -73.51539,19.44556 -75.15786,19.44556 -1.09948,0 -1.50881,-15.56535 -1.50881,-57.37518 0,-45.53175 -0.354,-57.51103 -1.71495,-58.03328 -0.94322,-0.36195 -15.19323,1.99769 -31.66667,5.24364 -16.47345,3.24595 -35.50172,6.94896 -42.28505,8.22893 l -12.33333,2.32722 v 60.25725 c 0,75.63181 1.06828,108.68475 3.51274,108.68475 0.96722,0 45.42254,-12.07754 98.78959,-26.839 z m 38.36434,-84.27097 21.33333,-5.70583 0.34675,-61.743 0.34674,-61.74302 -5.01341,0.91571 c -5.08235,0.92831 -25.61151,6.35079 -33.10808,8.74503 -2.25207,0.71926 -5.03787,1.30774 -6.19068,1.30774 -1.15281,0 -2.46431,0.95974 -2.91443,2.13275 -1.50596,3.92447 0.83374,121.87051 2.41678,121.83184 0.79732,-0.0195 11.04966,-2.60304 22.783,-5.74122 z M 324.17937,338.55063 c -0.26801,-20.10285 -0.95093,-37.05354 -1.5176,-37.66822 -0.56665,-0.61468 -11.14737,-3.70569 -23.51269,-6.86891 -12.36532,-3.16322 -33.2824,-8.54906 -46.4824,-11.96853 -45.80758,-11.86648 -65.45259,-16.94204 -88.00001,-22.736 -12.46666,-3.20353 -25.95719,-6.70715 -29.97895,-7.78581 -4.02175,-1.07866 -7.77175,-1.67723 -8.33333,-1.33015 -1.30683,0.80767 -1.30744,72.67048 -6.3e-4,74.54691 0.53877,0.77361 6.07958,2.6611 12.31291,4.19442 11.9489,2.93927 66.58266,16.87153 124.66667,31.79149 19.06667,4.89762 40.06667,10.28796 46.66667,11.97849 6.6,1.69055 12.6,2.92144 13.33333,2.73532 0.86318,-0.21908 1.16151,-13.22673 0.84603,-36.88901 z m 46.48731,34.0465 c 6.23333,-1.16521 17.03333,-3.24178 24,-4.61462 6.96667,-1.37284 19.56667,-3.78612 28,-5.36284 8.43334,-1.57674 15.83444,-3.34228 16.44692,-3.92347 0.61247,-0.58117 1.21247,-8.75017 1.33334,-18.15335 l 0.21974,-17.09665 4,-0.92984 c 2.2,-0.51142 7.6,-1.9163 12,-3.12195 4.4,-1.20567 16.1,-4.32649 26,-6.93517 9.9,-2.6087 23.4,-6.17962 30,-7.93542 21.53246,-5.72824 28.76233,-7.28873 30.05833,-6.48777 0.70161,0.43363 1.27501,8.31797 1.27501,17.53149 0,16.71294 0.005,16.74202 3,15.93952 1.65,-0.44218 3.75,-0.81217 4.66667,-0.82218 1.29518,-0.0141 1.66666,-8.76774 1.66666,-39.27284 0,-21.59006 -0.52134,-39.57687 -1.15856,-39.97068 -0.63721,-0.39382 -10.68721,1.64477 -22.33333,4.5302 -19.62027,4.86109 -48.50976,11.90837 -105.17478,25.65626 -12.46667,3.02463 -33.76667,8.24572 -47.33333,11.60243 l -24.66667,6.10309 -0.35533,36.64775 c -0.19544,20.15626 -0.0587,37.421 0.30405,38.36608 0.38832,1.01194 1.90472,1.44088 3.68867,1.04343 1.6661,-0.3712 8.12928,-1.62827 14.36261,-2.79347 z M 323.42765,268.90169 c 0.37252,-0.97073 0.20368,-13.67071 -0.37517,-28.22216 l -1.05247,-26.45718 -9.33333,-2.28566 c -9.19691,-2.25227 -52.1462,-13.2214 -125.33334,-32.00984 C 133.79919,166.18369 126.11999,164.33825 125,164.9471 c -0.55,0.29899 -1,12.43475 -1,26.96833 0,19.5227 0.43533,26.78135 1.66667,27.79008 0.91667,0.75096 10.06667,3.482 20.33334,6.06899 10.26666,2.58699 26.76666,6.80029 36.66666,9.36291 9.9,2.56261 28.8,7.44052 42,10.83981 52.42871,13.50151 81.61371,21.08086 87.33334,22.68047 8.13163,2.27417 10.62813,2.32748 11.42764,0.244 z m 65.9057,-7.44691 c 17.96666,-4.3901 41.66667,-10.13526 52.66667,-12.76702 25.25322,-6.04184 89.21033,-21.64183 100.66667,-24.55395 l 8.66666,-2.203 0.35986,-28.29874 c 0.24221,-19.04829 -0.0964,-28.29873 -1.03579,-28.29873 -1.52712,0 -155.50577,37.88076 -161.99074,39.85184 -2.2,0.66868 -8.5,2.24011 -14,3.49207 -5.5,1.25196 -13.15,3.15432 -17,4.22746 l -7,1.95119 v 27.0165 c 0,14.85908 0.4066,27.4231 0.90356,27.92005 0.49695,0.49696 1.84695,0.62024 3,0.27396 1.15304,-0.34628 16.79644,-4.22151 34.76311,-8.61163 z m 3.93246,-86.18664 c 31.20382,-7.73587 69.18421,-17.15607 84.40087,-20.93379 15.21667,-3.7777 27.66667,-7.21948 27.66667,-7.64838 0,-0.42891 -11.55,-4.0003 -25.66667,-7.93642 -14.11666,-3.93613 -28.06666,-7.88641 -31,-8.7784 -27.11351,-8.24491 -105.42235,-29.97046 -107.97895,-29.95705 -1.47825,0.008 -10.18772,2.16222 -19.35439,4.78771 -9.16666,2.62548 -18.46666,5.25464 -20.66666,5.84258 -5.33938,1.42692 -10.31004,2.82063 -69.33334,19.44015 -27.86667,7.84657 -52.31667,14.55561 -54.33333,14.90899 -2.01667,0.35336 -3.66667,1.17437 -3.66667,1.82448 0,0.65009 0.28809,1.182 0.6402,1.182 0.35211,0 17.30211,4.24934 37.66667,9.443 20.36456,5.19364 52.32647,13.3401 71.02647,18.10325 18.7,4.76315 37.9,9.73251 42.66666,11.04301 4.76667,1.31051 9.23629,2.46403 9.93247,2.5634 0.6962,0.0993 26.7962,-6.14868 58,-13.88453 z"
     style="fill:#6e6e6e;stroke-width:1.33333337" />
  <path
     inkscape:connector-curvature="0"
     id="path24"
     d="m 331.33334,606.06199 c -3.66666,-1.00476 -12.06666,-3.42525 -18.66666,-5.37889 -6.6,-1.95364 -15.3,-4.4332 -19.33334,-5.51016 -4.03333,-1.07695 -9.13333,-2.49245 -11.33333,-3.14557 -2.2,-0.65311 -7.6,-2.15311 -12,-3.33334 -4.4,-1.18021 -9.8,-2.66897 -12,-3.30833 -16.64883,-4.83851 -43.94644,-12.59868 -50,-14.21403 -4.03334,-1.07625 -9.13334,-2.49118 -11.33334,-3.1443 -2.2,-0.65311 -7.6,-2.15311 -12,-3.33334 -4.4,-1.18021 -9.8,-2.69252 -12,-3.36068 -2.2,-0.66816 -7.3,-2.10474 -11.33333,-3.19241 -43.55971,-11.74683 -49.95739,-13.64435 -55.52456,-16.46828 l -4.19123,-2.12599 -0.86717,-30.77333 C 100.27343,491.84802 99.272858,412.60001 98.526882,332.66668 97.780905,252.73334 96.832775,176.73043 96.419927,163.77131 l -0.750632,-23.56201 9.165355,-2.91052 C 109.87559,135.69799 115.8,133.90247 118,133.30872 c 2.2,-0.59375 18.1,-5.06969 35.33334,-9.94654 36.60205,-10.358 44.56813,-12.59752 50,-14.05663 2.2,-0.59096 7.6,-2.09096 12,-3.33333 4.4,-1.24237 9.8,-2.7428 12,-3.33428 2.2,-0.59149 18.1,-5.078801 35.33334,-9.971811 17.23333,-4.89301 33.73333,-9.458898 36.66666,-10.146418 2.93334,-0.68752 6.83334,-1.766127 8.66667,-2.396904 1.83333,-0.630778 5.73333,-1.78787 8.66667,-2.571315 14.63637,-3.909137 21.42183,-6.182326 22.29265,-7.468236 0.66516,-0.982224 1.77536,-0.910886 3.62068,0.232658 1.46375,0.907086 7.03206,2.894853 12.37402,4.417259 12.71742,3.624346 23.41369,6.626466 28.37932,7.965222 2.2,0.593131 12.7,3.578855 23.33333,6.634941 10.63333,3.056087 21.13333,6.056087 23.33334,6.666667 2.2,0.61058 12.7,3.606452 23.33333,6.657497 10.63333,3.05104 22.63333,6.42792 26.66667,7.50418 4.03333,1.07626 9.13333,2.47995 11.33333,3.11932 13.55393,3.93906 43.0921,12.37916 45.33334,12.95334 4.97734,1.27514 15.98801,4.61805 18.66666,5.66732 1.46667,0.57452 7.16667,2.48974 12.66667,4.25605 l 10,3.21145 0.91653,45.31543 c 0.50408,24.92348 1.52264,113.35601 2.26347,196.51673 1.18979,133.55926 1.1136,151.65255 -0.65291,155.06861 -1.09992,2.12701 -3.01848,4.19082 -4.26348,4.58626 -1.24498,0.39543 -3.46361,1.22172 -4.93028,1.83619 -3.49742,1.46528 -15.10546,4.90341 -19.33333,5.72627 -1.83333,0.3568 -6.93333,1.67308 -11.33333,2.92504 -9.81418,2.7925 -13.74983,3.87956 -24.00001,6.62898 -4.4,1.18022 -9.8,2.69252 -12,3.36068 -2.2,0.66816 -7.6,2.18047 -12,3.36068 -4.4,1.18023 -9.8,2.68023 -12,3.33334 -2.2,0.65312 -7.3,2.06626 -11.33333,3.14033 -6.47687,1.72477 -13.62996,3.70925 -27.33333,7.58305 -2.2,0.62192 -7.6,2.0964 -12,3.27662 -4.40001,1.18022 -9.80001,2.68022 -12.00001,3.33333 -2.2,0.65312 -7.3,2.06627 -11.33333,3.14033 -4.03333,1.07407 -10.93333,2.96523 -15.33333,4.20258 -4.4,1.23734 -9.8,2.74514 -12,3.35065 -2.2,0.60552 -7.6,2.09677 -12,3.31391 -4.4,1.21712 -10.4753,3.33817 -13.50066,4.71342 -7.68622,3.494 -14.71729,4.11288 -22.49935,1.9804 z m -4.85202,-77.06197 c -0.102,-25.85 -0.55195,-64.4 -1,-85.66667 l -0.81464,-38.66667 -20,-5.08787 c -11,-2.79832 -31.7,-8.10322 -46,-11.78866 -14.3,-3.68544 -29.30001,-7.50031 -33.33334,-8.47748 -8.18565,-1.98319 -49.47888,-12.541 -77.91252,-19.92062 -10.21855,-2.65209 -19.29168,-4.54858 -20.1625,-4.21441 -1.20611,0.46283 -1.45118,19.29505 -1.02869,79.04831 0.30505,43.1424 0.847,80.34616 1.20434,82.67501 0.56778,3.70039 1.35892,4.40427 6.27454,5.58254 6.58855,1.57927 8.73416,2.17413 34.2915,9.50735 10.63333,3.05104 22.63333,6.42792 26.66666,7.50418 4.03334,1.07626 9.13334,2.49119 11.33334,3.14431 2.2,0.65311 7.6,2.15311 12,3.33333 4.4,1.18022 9.8,2.69252 12,3.36068 2.2,0.66816 7.3,2.1042 11.33333,3.19122 4.03334,1.08701 12.73334,3.5592 19.33334,5.49374 6.6,1.93455 15.3,4.3985 19.33333,5.47546 4.03333,1.07694 9.13333,2.49245 11.33333,3.14557 3.87656,1.15083 15.35883,4.26897 24.43896,6.63668 2.44144,0.63661 4.79144,1.50995 5.22223,1.94075 0.43079,0.43078 1.88325,0.78325 3.22771,0.78325 2.32764,0 2.43558,-2.24573 2.25908,-47 z m 38.85203,42.92345 c 1.83333,-0.65621 5.73333,-1.77337 8.66666,-2.48257 2.93334,-0.70919 7.43334,-1.89685 10,-2.63924 2.56667,-0.74239 7.96667,-2.24323 12,-3.3352 4.03334,-1.09199 12.8795,-3.5334 19.65812,-5.42539 25.71569,-7.17749 37.22206,-10.37141 43.67522,-12.12329 3.66667,-0.99543 12.06667,-3.31767 18.66667,-5.16053 6.6,-1.84288 17.4,-4.83094 24,-6.64012 23.20619,-6.36127 49.36035,-13.85977 51.88,-14.87418 2.46893,-0.994 2.51987,-2.6972 1.66843,-55.80079 -0.48304,-30.1265 -0.87904,-65.74431 -0.88,-79.15065 -10e-4,-26.57634 -0.32372,-27.63055 -7.3473,-24.06974 l -3.50752,1.77824 0.11987,57.63458 0.11987,57.63457 -3.69334,0.81708 c -2.03133,0.4494 -6.39333,1.59023 -9.69333,2.53518 -11.50336,3.29394 -16.73728,4.72409 -27.33334,7.4687 -24.98466,6.47158 -35.38748,9.18842 -47.3179,12.35772 -6.95819,1.84844 -12.78808,3.22396 -12.95534,3.05671 -0.16725,-0.16725 -0.7742,-26.37419 -1.34876,-58.23764 -0.90688,-50.29218 -1.30846,-57.905 -3.04466,-57.71703 -1.92238,0.20813 -17.25521,3.16219 -55.00001,10.59644 -9.71666,1.91381 -20.0886,3.89925 -23.04876,4.41211 -2.96014,0.51284 -6.1492,1.40656 -7.0868,1.98601 -1.36946,0.84639 -1.53582,17.34991 -0.84593,83.92124 0.47233,45.57722 1.09821,83.63241 1.39087,84.56709 0.54144,1.72933 4.38489,1.3506 11.25729,-1.1093 z M 484.60411,465.33655 c 2.23441,-0.71881 10.36257,-3.01831 18.06257,-5.10999 l 14,-3.80306 0.32555,-21.8784 c 0.17905,-12.03314 -0.12095,-39.87842 -0.66667,-61.87842 -0.85312,-34.39269 -1.27257,-39.96554 -2.99221,-39.75416 -1.85992,0.22861 -16.70583,4.03845 -35.17268,9.02621 -4.31164,1.16455 -8.36164,2.44015 -9,2.83467 -0.63836,0.39453 -1.16065,28.36347 -1.16065,62.1532 v 61.43588 l 6.27076,-0.8595 c 3.44892,-0.47272 8.09892,-1.44762 10.33333,-2.16643 z M 325.31293,339.58799 c -0.0107,-19.94006 -0.5444,-37.08193 -1.18483,-38.09305 -0.64042,-1.01112 -7.98124,-3.59318 -16.31292,-5.7379 -8.33168,-2.14474 -24.2985,-6.26744 -35.48184,-9.1616 -21.30821,-5.51439 -43.21128,-11.16123 -87.66667,-22.6014 -14.66666,-3.77434 -32.36666,-8.37403 -39.33333,-10.22155 -17.97005,-4.76555 -19.86681,-5.03461 -20.59509,-2.92156 -0.34419,0.99867 -0.2011,18.27359 0.31798,38.38872 L 126,325.81262 l 4,1.15978 c 4.79458,1.39016 52.94445,13.82875 63.33334,16.36095 4.03333,0.98309 19.03333,4.79782 33.33333,8.47718 14.30001,3.67936 41.54626,10.62346 60.54725,15.43131 19.00098,4.80784 34.83466,9.02897 35.18597,9.38028 2.35689,2.35689 2.93111,-4.94323 2.91304,-37.03413 z m 48.68708,32.91585 c 5.86667,-1.11499 13.06667,-2.56281 16,-3.21741 2.93334,-0.65459 10.73334,-2.15118 17.33334,-3.32575 10.84194,-1.92949 17.32469,-3.23387 29.33333,-5.90203 l 4,-0.88876 0.66667,-17.80484 0.66667,-17.80485 12,-3.01978 c 6.6,-1.66088 15.6,-3.99316 20,-5.18284 16.25661,-4.39552 28.36792,-7.61008 42.66666,-11.32449 8.06667,-2.09549 15.56667,-4.11008 16.66667,-4.47684 1.1,-0.36676 3.65,-1.02839 5.66667,-1.47028 l 3.66667,-0.80343 v 17.35874 17.35873 h 4.58797 c 2.52339,0 5.00688,-0.6778 5.51888,-1.50623 0.94736,-1.53285 0.81495,-78.68309 -0.13668,-79.6347 -0.49512,-0.49512 -22.15087,4.13386 -30.63684,6.54873 -2.2,0.62605 -10.3,2.64597 -18,4.48871 -32.50018,7.77781 -75.66961,18.24757 -80.00001,19.4022 -2.56666,0.68434 -12.46666,3.08794 -22,5.34132 -9.53333,2.25336 -19.43333,4.66282 -22,5.35434 -2.56666,0.69154 -9.73861,2.47764 -15.93766,3.96915 -6.19906,1.49149 -11.76271,3.20352 -12.36368,3.80449 -0.60096,0.60096 -0.6823,18.03542 -0.18072,38.74322 l 0.91193,37.65055 5.45173,-0.81536 c 2.99846,-0.44844 10.25174,-1.7276 16.1184,-2.84259 z m -50,-129.08592 c 0,-21.13113 -0.39644,-27.42041 -1.80193,-28.58686 -0.99106,-0.82251 -14.64106,-4.75092 -30.33334,-8.7298 -34.43848,-8.73211 -88.44948,-22.52183 -123.86473,-31.62431 -37.70648,-9.69137 -40.49133,-10.37704 -42.35986,-10.42945 -1.32801,-0.0372 -1.61557,6.06311 -1.33333,28.28584 l 0.35985,28.33333 8.66667,2.21523 c 15.06833,3.85151 61.49073,15.88424 74.66667,19.35368 6.96666,1.83444 15.96666,4.13586 20,5.11426 4.03333,0.9784 13.33333,3.37982 20.66667,5.3365 7.33333,1.95668 15.43333,4.04522 18,4.64116 2.56666,0.59596 14.26666,3.58832 26,6.64971 30.07645,7.84733 29.23038,7.65031 30.33333,7.06383 0.55,-0.29246 1,-12.72287 1,-27.62312 z m 44.28247,23.8295 c 7.54464,-1.88057 15.81753,-3.96572 18.3842,-4.63365 6.14172,-1.59827 54.69276,-13.35401 76.66667,-18.56344 9.53333,-2.26011 19.43333,-4.68376 22,-5.38592 2.56667,-0.70215 18.46667,-4.63976 35.33333,-8.75024 16.86667,-4.11048 31.18454,-7.97059 31.81749,-8.57803 0.63506,-0.60947 0.71152,-13.40612 0.1706,-28.55361 -0.85851,-24.041 -1.24911,-27.44919 -3.14583,-27.44919 -1.97224,0 -71.84698,16.90468 -82.84226,20.04188 -4.81406,1.37357 -21.29422,5.43301 -35.33333,8.70343 -4.4,1.02497 -24.2,5.9266 -44,10.89248 l -36,9.02888 -0.35986,28.33333 c -0.30865,24.30298 -0.0788,28.33334 1.6158,28.33334 1.0866,0 8.14854,-1.53867 15.69319,-3.41926 z m -18.51923,-80.52649 c 2.33022,-0.76003 30.03676,-7.69526 61.5701,-15.41163 31.53333,-7.71637 59.43333,-14.62668 62,-15.35623 3.98027,-1.13136 20.21211,-5.17568 30.33333,-7.55785 1.65,-0.38835 3,-1.16619 3,-1.72855 0,-0.56236 -1.35,-1.33429 -3,-1.71542 -2.43994,-0.5636 -23.32517,-6.51067 -45.66666,-13.00359 -2.2,-0.63936 -7.3,-2.05186 -11.33334,-3.13887 -4.03333,-1.08701 -12.73333,-3.56332 -19.33333,-5.50292 -6.6,-1.93959 -13.8,-4.01238 -16,-4.60621 -5.55398,-1.49913 -15.46486,-4.29001 -38,-10.70071 -36.22946,-10.306381 -30.10279,-9.853173 -51.33334,-3.79728 -10.26667,2.9285 -21.96667,6.20782 -26,7.28736 -4.03333,1.07955 -9.13333,2.47166 -11.33333,3.09358 -15.76926,4.4578 -20.48056,5.77755 -24,6.72294 -5.947,1.59748 -15.37044,4.25321 -50.00001,14.09105 -17.23333,4.89578 -32.98333,9.20247 -35,9.57042 -2.01666,0.36793 -3.66666,1.20088 -3.66666,1.85099 0,0.65009 0.21077,1.182 0.4684,1.182 0.25761,0 7.60761,1.86101 16.33333,4.1356 8.72571,2.27457 19.46493,5.0074 23.86493,6.07294 4.4,1.06555 10.1,2.4464 12.66667,3.06858 2.56667,0.62217 14.26667,3.63869 26,6.70337 11.73334,3.06468 27.03334,6.96919 34,8.67667 6.96667,1.70749 20.46667,5.22702 30,7.82121 17.7557,4.83163 25.03757,5.30592 34.42991,2.24255 z"
     style="fill:#4e4e4e;stroke-width:1.33333337" />
  <path
     inkscape:connector-curvature="0"
     id="path22"
     d="m 328.00001,604.67481 c -2.56667,-0.95302 -7.06667,-2.36612 -10,-3.14024 -13.25372,-3.49775 -21.53957,-5.88808 -24,-6.92359 -1.46667,-0.61728 -4.76667,-1.50651 -7.33333,-1.97608 -5.50098,-1.00639 -13.15991,-3.21737 -16.05128,-4.63371 -1.1282,-0.55264 -4.7282,-1.4482 -8,-1.99012 -3.27179,-0.54193 -6.54872,-1.3583 -7.28206,-1.81416 -1.1964,-0.7437 -6.08806,-2.14774 -31.33333,-8.99349 -4.03334,-1.09372 -9.13334,-2.53524 -11.33334,-3.2034 -5.50341,-1.67143 -19.2875,-5.38312 -23.33333,-6.28307 -1.83333,-0.4078 -3.93333,-1.19309 -4.66667,-1.7451 -0.73333,-0.55202 -4.03333,-1.43934 -7.33333,-1.97183 -3.3,-0.53249 -6.6,-1.38587 -7.33333,-1.89639 -0.73334,-0.5105 -5.83334,-1.99462 -11.33334,-3.29804 -5.5,-1.30341 -11.2,-2.86666 -12.66666,-3.4739 -3.18699,-1.31948 -13.09319,-3.94496 -18.66667,-4.94732 -2.2,-0.39566 -4.6,-1.18784 -5.33334,-1.76042 -0.73333,-0.57257 -4.18333,-1.46532 -7.66666,-1.98388 C 110.85,544.12151 108,543.26675 108,542.74061 c 0,-0.52616 -1.42161,-1.71747 -3.15914,-2.64736 l -3.15915,-1.69074 -0.83472,-66.20124 C 100.3879,435.79058 99.44327,349.00001 98.747814,279.33334 98.052358,209.66667 97.082134,151.3263 96.591762,149.68807 c -0.490372,-1.63824 -0.521653,-4.45253 -0.06952,-6.25401 0.694792,-2.76827 2.627548,-3.83192 12.483248,-6.86992 6.41365,-1.97699 14.23214,-4.41268 17.37444,-5.41266 3.1423,-0.99998 6.90044,-1.81814 8.35143,-1.81814 1.45099,0 3.68002,-0.54364 4.9534,-1.20808 1.27339,-0.66444 6.21525,-2.25345 10.98191,-3.53112 4.76667,-1.27767 11.66667,-3.16991 15.33334,-4.20497 3.66666,-1.03505 9.06666,-2.50453 12,-3.26549 2.93333,-0.76097 6.2564,-1.85092 7.38461,-2.42211 1.1282,-0.57119 4.70512,-1.4869 7.94872,-2.0349 3.2436,-0.548 6.82052,-1.44853 7.94872,-2.00118 2.89137,-1.41632 10.55031,-3.62731 16.05128,-4.6337 2.56667,-0.46957 5.86667,-1.3676 7.33333,-1.99563 1.46667,-0.62803 5.36667,-1.82913 8.66667,-2.6691 3.3,-0.83998 7.8,-2.052223 10,-2.693878 2.2,-0.641655 7.6,-2.132279 12,-3.312499 4.4,-1.18022 9.8,-2.692525 12,-3.36068 2.2,-0.668154 7.6,-2.18046 12,-3.36068 4.4,-1.18022 9.8,-2.670844 12,-3.312499 2.2,-0.641654 6.7,-1.853897 10,-2.693874 3.3,-0.839976 7.2,-2.014935 8.66667,-2.611018 1.46667,-0.596083 6.86667,-2.103343 12,-3.349467 5.13333,-1.246124 11.32183,-3.153621 13.7522,-4.238885 3.9278,-1.753918 5.11322,-1.740836 10.66667,0.11772 13.43015,4.4946 19.10328,6.115369 21.40551,6.115369 1.31881,0 2.84744,0.449595 3.39694,0.9991 0.54951,0.549507 3.79951,1.70433 7.22223,2.566275 3.42272,0.861946 8.32312,2.17338 10.88979,2.914299 2.56666,0.740919 8.26666,2.31276 12.66666,3.49298 4.4,1.18022 9.8,2.683151 12,3.339846 2.2,0.656694 6.7,1.881244 10,2.721221 3.3,0.839976 7.20001,2.001167 8.66667,2.580421 2.44046,0.963848 11.47778,3.555429 23.33334,6.691169 14.68437,3.88395 20.88914,5.69765 22.71794,6.64063 1.1282,0.58173 4.70512,1.50606 7.94872,2.05406 3.2436,0.548 6.82052,1.46371 7.94872,2.0349 1.12822,0.57119 4.45128,1.66114 7.38462,2.42211 2.93333,0.76096 8.33333,2.23044 12,3.26549 3.66666,1.03506 10.56667,2.9372 15.33333,4.22697 4.76667,1.28977 9.86667,2.79473 11.33334,3.34435 1.46666,0.54961 6.26666,2.05304 10.66666,3.34095 4.4,1.28791 9.2,2.82102 10.66667,3.4069 1.46667,0.58589 5.81667,2.13472 9.66667,3.44185 l 7,2.3766 0.21268,71.40327 c 0.11693,39.2718 0.44713,75.00328 0.73368,79.40328 1.37613,21.13116 2.34173,237.66209 1.07908,241.98031 -1.70199,5.82074 -7.88275,9.27526 -23.47603,13.12113 -20.11159,4.96023 -23.17963,5.77776 -25.88275,6.89691 -1.46666,0.60724 -7.16666,2.17049 -12.66667,3.4739 -5.5,1.30342 -10.6,2.79922 -11.33333,3.32402 -0.73333,0.5248 -4.19071,1.37957 -7.68307,1.89948 -3.49234,0.51992 -6.67776,1.47606 -7.07868,2.12478 -0.40093,0.64871 -2.45814,1.17948 -4.57158,1.17948 -2.11344,0 -4.17066,0.53078 -4.57159,1.17948 -0.40092,0.64872 -3.52452,1.59871 -6.94132,2.1111 -3.4168,0.51237 -7.17417,1.40796 -8.34972,1.99017 -2.94188,1.45701 -10.53419,3.66239 -16.13737,4.68747 -2.56667,0.46957 -5.86667,1.3676 -7.33334,1.99562 -3.11037,1.33187 -12.92002,3.95166 -18.66667,4.98515 -2.2,0.39565 -4.6,1.18784 -5.33333,1.76041 -0.73333,0.57258 -4.19071,1.46643 -7.68307,1.98634 -3.49234,0.51992 -6.67776,1.47606 -7.07868,2.12478 -0.40093,0.64871 -2.45814,1.17948 -4.57158,1.17948 -2.11344,0 -4.17066,0.53078 -4.57159,1.17948 -0.40092,0.64872 -3.52452,1.59871 -6.94132,2.1111 -3.4168,0.51237 -7.17417,1.42624 -8.34972,2.03081 -3.68344,1.89435 -16.30188,5.34528 -19.54513,5.34528 -1.70584,0 -3.42783,0.52796 -3.82663,1.17324 -1.29427,2.09416 -13.7806,5.49687 -19.68281,5.36385 -3.1622,-0.0712 -7.84947,-0.9093 -10.41614,-1.8623 z m 0.001,-62.34146 c 10e-4,-30.07051 -2.49399,-137.20343 -3.2132,-137.97075 -0.15676,-0.16725 -4.44819,-1.3066 -9.53649,-2.53188 -5.08831,-1.22528 -10.15147,-2.54208 -11.25147,-2.92623 -1.1,-0.38414 -5.3,-1.5098 -9.33333,-2.50145 -4.03334,-0.99165 -9.43334,-2.35519 -12,-3.03007 -10.48068,-2.7558 -22.23615,-5.60478 -26,-6.3012 -2.2,-0.40706 -4.6,-1.20858 -5.33334,-1.78116 -0.73333,-0.57257 -4.33333,-1.47288 -8,-2.00068 -3.66666,-0.5278 -7.26667,-1.40857 -8,-1.95726 -0.73333,-0.5487 -3.13333,-1.33068 -5.33333,-1.73775 -2.2,-0.40705 -7.75,-1.68244 -12.33334,-2.83417 -4.58333,-1.15174 -12.08333,-3.0364 -16.66666,-4.18814 -4.58334,-1.15173 -10.13334,-2.42712 -12.33334,-2.83417 -2.2,-0.40707 -4.6,-1.20859 -5.33333,-1.78116 -0.73333,-0.57257 -4.33333,-1.47288 -8,-2.00068 -3.66667,-0.5278 -7.26667,-1.40857 -8,-1.95727 -0.73333,-0.54869 -3.13333,-1.33068 -5.33333,-1.73774 -4.90304,-0.9072 -17.49999,-3.99262 -27.31229,-6.68971 -4.02175,-1.10545 -7.77175,-1.72595 -8.33333,-1.37887 -1.23296,0.76202 -1.38164,145.96591 -0.16141,157.64043 0.79064,7.56446 1.19197,8.37483 5,10.09616 2.2772,1.02935 6.24036,2.25125 8.80702,2.7153 2.56667,0.46407 5.86667,1.33396 7.33334,1.93311 2.42661,0.99128 11.08843,3.4886 23.33333,6.72732 14.83908,3.92488 20.89935,5.70393 22.80404,6.6944 1.17555,0.6113 4.93292,1.53068 8.34972,2.04305 3.4168,0.51239 6.5404,1.46237 6.94132,2.11109 0.40094,0.64871 2.45815,1.17948 4.57159,1.17948 2.11344,0 4.17065,0.53078 4.57159,1.17948 0.40092,0.64872 3.52452,1.59871 6.94132,2.1111 3.4168,0.51237 7.17417,1.41638 8.34972,2.00892 1.90833,0.96188 8.44767,2.87529 22.80404,6.67248 12.78539,3.38168 20.92257,5.73578 23.33333,6.7504 1.46667,0.61728 4.76667,1.5065 7.33334,1.97608 5.60318,1.02508 13.19549,3.23045 16.13737,4.68746 1.17555,0.58222 4.93292,1.4778 8.34972,1.99018 3.4168,0.51238 6.5404,1.46237 6.94132,2.11109 0.40093,0.64871 2.79356,1.17948 5.31695,1.17948 h 4.58797 z m 29.88683,32.66756 c 0.98952,-0.9895 11.06489,-3.80802 18.77868,-5.25318 2.2,-0.41218 4.6,-1.20618 5.33333,-1.76447 0.73334,-0.55829 4.01027,-1.45709 7.28206,-1.99733 3.2718,-0.54026 6.8718,-1.43444 8,-1.98708 2.89137,-1.41634 10.5503,-3.62732 16.05128,-4.63371 2.56666,-0.46957 5.86666,-1.34396 7.33333,-1.94311 5.06203,-2.06786 17.57559,-5.42201 20.22831,-5.42201 1.46332,0 3.11017,-0.4496 3.65968,-0.99911 0.54951,-0.54949 3.79951,-1.70432 7.22223,-2.56626 3.42272,-0.86195 8.62312,-2.25022 11.55645,-3.08503 2.93333,-0.83483 8.03333,-2.11499 11.33333,-2.84481 3.3,-0.72983 7.2,-1.82662 8.66667,-2.4373 5.3654,-2.23402 17.052,-5.40082 19.93089,-5.40082 1.6269,0 3.40759,-0.4496 3.9571,-0.99911 0.5495,-0.54949 3.7995,-1.70432 7.22222,-2.56627 3.42272,-0.86194 8.32312,-2.17338 10.88979,-2.9143 7.04334,-2.03319 20.24011,-5.57593 24,-6.4429 6.82208,-1.57307 6.66684,-0.44933 6.66394,-48.24068 -10e-4,-24.66021 -0.39779,-60.58675 -0.88064,-79.83675 l -0.87792,-35 h -3.20702 c -1.76385,0 -4.45084,0.66568 -5.97108,1.47929 -2.75418,1.47399 -2.7606,1.6837 -1.78836,58.5534 1.10331,64.53735 2.06266,58.68513 -9.93892,60.6299 -3.3,0.53473 -6.6,1.42903 -7.33333,1.98732 -0.73333,0.55829 -3.13334,1.36587 -5.33334,1.79461 -5.93206,1.15608 -18.37536,4.31016 -20.66666,5.23851 -1.1,0.44567 -4.7,1.41145 -8,2.14617 -3.3,0.73474 -8.4,2.01214 -11.33334,2.83867 -2.93333,0.82653 -8.63333,2.32599 -12.66666,3.33213 -4.03334,1.00615 -9.73334,2.51714 -12.66667,3.35776 -2.93333,0.84062 -6.98333,1.84712 -9,2.23666 l -3.66667,0.70825 V 453.0136 c 0,-27.47565 -0.39118,-53.69848 -0.86932,-58.27292 l -0.86932,-8.31717 -4.13068,0.8349 c -2.27186,0.4592 -8.93068,1.73738 -14.79735,2.8404 -5.86666,1.10302 -13.36666,2.53043 -16.66666,3.17202 -13.66048,2.6559 -29.27204,5.61284 -38.66667,7.32373 -5.5,1.00163 -11.07503,2.2514 -12.38893,2.77728 -2.26684,0.90728 -2.36907,5.258 -2,85.1255 0.2139,46.29315 0.87434,84.91935 1.46762,85.83601 1.22492,1.89262 2.68268,2.12752 4.14263,0.66756 z M 486.00002,465.46708 c 5.86666,-1.54358 12.76666,-3.39574 15.33333,-4.11588 2.56667,-0.72014 7.22259,-1.94349 10.34648,-2.71853 l 5.67981,-1.40919 -0.34648,-62.26035 c -0.32749,-58.84806 -0.47862,-62.28579 -2.75769,-62.72449 -1.32617,-0.2553 -3.42617,-0.009 -4.66667,0.54558 -2.05786,0.9213 -11.93781,3.53258 -20.25545,5.35357 -1.83333,0.40136 -4.53333,1.25805 -6,1.90374 -1.46667,0.6457 -5.36667,1.66939 -8.66667,2.27487 l -6,1.10085 -0.3475,61.29139 c -0.19112,33.71026 -0.0337,62.1099 0.34992,63.11031 0.75932,1.98037 0.9788,1.9506 17.33092,-2.35187 z M 325.33334,338.82844 v -38.50491 l -3.66666,-1.30909 c -8.00936,-2.85955 -13.26622,-4.28276 -19,-5.14396 -3.3,-0.49566 -6.6,-1.3439 -7.33334,-1.88499 -0.73333,-0.54108 -3.13333,-1.33459 -5.33333,-1.76333 -5.22771,-1.01882 -18.11621,-4.22983 -20.66667,-5.14886 -1.1,-0.39637 -7.4,-2.04765 -14,-3.6695 -24.13093,-5.92983 -26.76309,-6.59367 -32,-8.07046 -2.93333,-0.82718 -8.93333,-2.39841 -13.33333,-3.49161 -4.4,-1.09319 -10.1,-2.5398 -12.66667,-3.21468 -2.56667,-0.67488 -8.26667,-2.09177 -12.66667,-3.14864 -4.4,-1.05687 -8,-2.02215 -8,-2.14507 0,-0.27338 -14.48312,-3.81364 -20,-4.88881 -2.2,-0.42875 -4.6,-1.22848 -5.33333,-1.77717 -0.73333,-0.5487 -4.33333,-1.42947 -8,-1.95727 -3.66667,-0.5278 -7.26667,-1.43239 -8,-2.01019 -0.73334,-0.5778 -3.66201,-1.31036 -6.50816,-1.62789 l -5.17483,-0.57735 0.61379,38.41387 c 0.33759,21.12761 0.9886,38.78867 1.4467,39.24676 0.45809,0.45809 4.31056,1.70408 8.56103,2.76887 20.78742,5.20743 24.0116,5.98311 27.72814,6.67076 2.2,0.40707 4.6,1.18905 5.33333,1.73775 0.73333,0.54869 4.33333,1.42946 8,1.95726 3.66667,0.5278 7.26667,1.42811 8,2.00068 0.73333,0.57258 3.13333,1.3741 5.33333,1.78116 2.2,0.40706 7.6,1.6348 12,2.72832 4.4,1.09352 13.4,3.31519 20,4.93704 6.6,1.62186 12.9,3.27314 14,3.66951 1.1,0.39636 5.30001,1.53203 9.33334,2.52368 4.03333,0.99165 9.43333,2.35519 12,3.03007 2.56667,0.67488 8.56667,2.19272 13.33333,3.37296 4.76667,1.18024 10.76667,2.69808 13.33334,3.37296 2.56666,0.67488 7.96666,2.03841 12,3.03006 4.03333,0.99166 8.23333,2.12646 9.33333,2.52178 2.69896,0.96996 17.58327,4.67712 19.66667,4.89828 1.29894,0.13788 1.66666,-8.31859 1.66666,-38.32799 z m 33.35033,37.18881 c 2.576,-0.71566 8.276,-1.88166 12.66666,-2.59109 8.78688,-1.41976 27.28426,-4.91288 36.64968,-6.92108 3.3,-0.70761 10.5,-2.1254 16,-3.15064 5.50001,-1.02525 11.65001,-2.26936 13.66667,-2.76469 l 3.66667,-0.9006 v -17.81918 c 0,-17.38837 0.0725,-17.83563 3,-18.50044 7.54452,-1.71332 14.09179,-3.3372 19,-4.71245 2.93333,-0.82192 8.63333,-2.31759 12.66667,-3.32374 4.03333,-1.00614 9.73333,-2.52274 12.66666,-3.37024 2.93334,-0.84749 8.63334,-2.3356 12.66667,-3.30692 4.03333,-0.9713 7.33333,-1.86658 7.33333,-1.9895 0,-0.33898 15.40398,-4.03602 20.3457,-4.88307 2.39013,-0.40969 4.67553,-1.27861 5.07869,-1.93092 0.40315,-0.65231 2.19759,-1.18601 3.98764,-1.18601 h 3.25464 l 0.0204,15.66666 c 0.0107,8.61667 0.5434,16.49232 1.18259,17.50144 0.89069,1.40618 2.36536,1.55033 6.31292,0.61711 l 5.15075,-1.21767 0.35293,-40.31809 c 0.30639,-35.00059 0.0865,-40.42032 -1.66667,-41.09309 -1.11077,-0.42626 -3.0696,-0.30103 -4.35293,0.27828 -1.28333,0.5793 -5.63333,1.8053 -9.66667,2.72444 -4.03333,0.91914 -10.03333,2.34756 -13.33333,3.17425 -3.3,0.82669 -9.3,2.25511 -13.33334,3.17425 -4.03333,0.91914 -8.23333,2.00234 -9.33333,2.40712 -1.1,0.40478 -6.8,1.78292 -12.66667,3.06254 -5.86666,1.27962 -11.56666,2.668 -12.66666,3.08529 -1.1,0.41729 -5.3,1.51075 -9.33334,2.42988 -4.03333,0.91915 -9.73333,2.28821 -12.66666,3.04237 -2.93334,0.75416 -9.23334,2.24836 -14,3.32043 -4.76667,1.07207 -13.46667,3.18613 -19.33334,4.69792 -5.86667,1.5118 -11.91667,2.7558 -13.44444,2.76445 -1.52779,0.008 -3.22592,0.46575 -3.77364,1.01575 -0.54772,0.55 -4.39772,1.7118 -8.55556,2.58179 -4.15781,0.86998 -10.25968,2.25818 -13.55968,3.08488 -3.3,0.82669 -9.3,2.2551 -13.33333,3.17425 -4.03334,0.91913 -8.23334,2.05152 -9.33334,2.5164 -1.1,0.46489 -3.5,1.02468 -5.33333,1.24396 l -3.33333,0.39872 -0.40903,30 c -0.40432,29.65526 0.46945,49.34034 2.18945,49.3259 0.48743,-0.004 2.99388,-0.59299 5.5699,-1.30866 z M 324.61341,243.66668 c -0.58995,-18.22809 -1.45729,-28.86502 -2.43187,-29.82407 -1.34833,-1.32687 -8.09269,-3.13886 -20.18153,-5.42212 -2.2,-0.41554 -4.6,-1.20444 -5.33333,-1.75314 -0.73334,-0.54869 -4.33334,-1.42946 -8,-1.95726 -3.66667,-0.5278 -7.26667,-1.42811 -8,-2.00068 -0.73334,-0.57258 -3.13334,-1.3741 -5.33334,-1.78116 -2.2,-0.40706 -7.9,-1.71527 -12.66666,-2.90712 -4.76667,-1.19187 -10.76667,-2.66066 -13.33334,-3.26399 -8.74862,-2.05647 -17.99615,-4.453 -20,-5.18307 -1.1,-0.40076 -5.3,-1.46813 -9.33333,-2.37193 -4.03334,-0.9038 -9.73334,-2.33241 -12.66667,-3.17469 -2.93333,-0.84228 -8.93333,-2.42586 -13.33333,-3.51906 -4.4,-1.09318 -10.1,-2.5398 -12.66667,-3.21468 -2.56667,-0.67488 -7.96667,-1.99433 -12,-2.9321 -4.03333,-0.93778 -7.93333,-2.07632 -8.66667,-2.53011 -0.73333,-0.45377 -4.26152,-1.24999 -7.84042,-1.76936 -3.5789,-0.51937 -7.7789,-1.43333 -9.33334,-2.03104 -1.55443,-0.59769 -5.22624,-1.7282 -8.15957,-2.51223 C 132.4,164.73483 128.65,163.73193 127,163.29017 l -3,-0.8032 v 28.59326 c 0,30.3935 0.0146,30.46338 6.66667,31.99715 4.57087,1.05391 19.65091,4.80144 25.33334,6.29559 2.56666,0.67488 7.96666,2.03841 12,3.03006 4.03333,0.99166 8.23333,2.12978 9.33333,2.52916 1.1,0.39938 6.5,1.75815 12,3.01948 5.5,1.26135 10.9,2.64801 12,3.08147 1.1,0.43347 5.3,1.5276 9.33333,2.4314 4.03334,0.9038 9.73334,2.33242 12.66667,3.1747 5.25131,1.50786 8.16033,2.24365 32,8.09382 6.6,1.61962 13.2,3.38707 14.66667,3.92766 3.66736,1.35176 15.14981,4.23638 20,5.02441 2.2,0.35745 4.6,1.09884 5.33333,1.64753 0.73334,0.5487 4.33334,1.42947 8,1.95727 3.66667,0.5278 7.26667,1.4504 8,2.05021 1.23242,1.00803 5.85471,1.97455 11.7652,2.4601 2.30986,0.18974 2.38586,-1.22168 1.51487,-28.13356 z m 44.05327,23.99488 c 4.4,-1.01216 8.9,-2.20142 10,-2.64279 1.1,-0.44136 3.5,-1.09499 5.33333,-1.45249 1.83334,-0.35751 7.53334,-1.65694 12.66667,-2.8876 11.72823,-2.81175 24.13344,-5.65992 29.33333,-6.73478 2.2,-0.45476 4.90001,-1.18796 6.00001,-1.62932 1.1,-0.44137 5.3,-1.55452 9.33333,-2.47365 4.03333,-0.91915 10.03333,-2.34756 13.33333,-3.17425 3.3,-0.8267 9.3,-2.25511 13.33334,-3.17426 4.03333,-0.91913 8.23333,-2.00233 9.33333,-2.40712 1.1,-0.40477 6.8,-1.78176 12.66667,-3.05996 5.86666,-1.2782 12.16666,-2.83287 14,-3.45481 2.98244,-1.01178 10.26444,-2.60664 22,-4.81836 2.2,-0.41462 4.6,-1.20279 5.33333,-1.75148 0.73334,-0.5487 4.20628,-1.41352 7.71767,-1.92183 3.51139,-0.50832 8.42232,-1.77573 10.91317,-2.81648 l 4.52884,-1.89227 -0.68865,-27.01838 c -0.37876,-14.86012 -0.92085,-27.76839 -1.20465,-28.68506 -0.58826,-1.89997 -6.73207,-2.27654 -7.84199,-0.48065 -0.40316,0.65231 -2.68856,1.51044 -5.07869,1.90696 -7.1019,1.1782 -18.86447,3.75583 -21.01237,4.60461 -1.81964,0.71907 -10.32462,2.77408 -20.66666,4.99359 -2.2,0.47213 -4.9,1.21956 -6,1.66092 -1.1,0.44137 -5.3,1.55452 -9.33334,2.47365 -4.03333,0.91915 -9.73333,2.27654 -12.66666,3.01643 -13.32638,3.36139 -23.11794,5.72843 -28.42243,6.87091 -3.16567,0.68181 -6.27557,1.56093 -6.91091,1.95358 -0.63533,0.39266 -3.74524,1.27178 -6.91091,1.95359 -5.30449,1.14248 -15.09605,3.50952 -28.42242,6.87091 -2.93334,0.73989 -8.63334,2.09728 -12.66667,3.01642 -4.03333,0.91914 -8.23333,2.03228 -9.33333,2.47366 -2.04082,0.81885 -4.11096,1.2998 -17.77571,4.12964 -4.43903,0.91928 -8.2954,2.53894 -8.98681,3.77442 -0.69618,1.24399 -0.84164,13.61346 -0.34215,29.09225 l 0.86897,26.92812 4.78451,-0.70191 c 2.63149,-0.38605 8.38452,-1.53004 12.78452,-2.54221 z m -24,-79.14237 c 2.2,-0.41246 4.9,-1.1078 6,-1.54518 1.1,-0.43739 5.3,-1.54728 9.33333,-2.46642 4.03334,-0.91914 9.73334,-2.27653 12.66667,-3.01642 2.93333,-0.7399 9.23333,-2.31092 14,-3.49116 4.76667,-1.18024 11.06667,-2.75127 14,-3.49116 2.93333,-0.7399 8.63333,-2.09728 12.66667,-3.01643 4.03333,-0.91913 8.23333,-2.00233 9.33333,-2.40712 1.1,-0.40477 6.8,-1.77072 12.66667,-3.03544 5.86667,-1.26472 11.62848,-2.79333 12.80404,-3.39692 1.17555,-0.60359 5.07555,-1.52311 8.66667,-2.04337 3.5911,-0.52027 7.12929,-1.39488 7.86262,-1.94358 0.73334,-0.54869 3.13334,-1.34709 5.33334,-1.77422 7.3303,-1.42319 19.97436,-4.39403 22,-5.16912 1.1,-0.42091 5.45,-1.52651 9.66666,-2.45691 7.18495,-1.58535 10.42466,-3.9324 5.428,-3.9324 -2.13857,0 -8.7292,-1.85959 -14.428,-4.07095 -1.46666,-0.56912 -5.36666,-1.72203 -8.66666,-2.562 -3.3,-0.83997 -7.8,-2.05515 -10,-2.70039 -2.2,-0.64524 -6.7,-1.86041 -10,-2.70038 -3.3,-0.83998 -7.2,-2.01975 -8.66667,-2.62172 -1.46667,-0.60196 -6.56667,-2.0957 -11.33333,-3.3194 -4.76667,-1.22371 -10.46667,-2.76041 -12.66667,-3.41488 -2.2,-0.65447 -7.6,-2.15938 -12,-3.34424 -4.4,-1.18486 -8.92307,-2.63025 -10.05128,-3.21198 -1.1282,-0.58173 -4.70512,-1.50606 -7.94872,-2.05406 -3.2436,-0.54801 -6.82052,-1.47233 -7.94872,-2.05406 -1.8288,-0.94298 -8.03358,-2.75668 -22.71795,-6.64063 -14.68183,-3.88327 -20.91724,-5.72378 -22.98191,-6.783572 -2.97604,-1.527595 -9.37246,-1.522517 -13.28869,0.01053 -1.68451,0.659432 -6.96274,2.225692 -11.7294,3.480592 -4.76667,1.2549 -9.86667,2.78042 -11.33334,3.39006 -1.46666,0.60963 -4.76666,1.49261 -7.33333,1.96218 -5.50097,1.00639 -13.15991,3.21738 -16.05128,4.6337 -1.1282,0.55267 -4.70512,1.45319 -7.94872,2.0012 -3.2436,0.548 -6.82052,1.44853 -7.94872,2.00117 -2.89137,1.41633 -10.55031,3.62732 -16.05128,4.63371 -2.56667,0.46957 -5.86667,1.34396 -7.33333,1.9431 -5.1767,2.11471 -17.60306,5.42202 -20.37185,5.42202 -1.54226,0 -3.17493,0.6 -3.62816,1.33333 C 224.21345,131.4 222.69901,132 221.30125,132 c -1.39776,0 -5.11235,0.8214 -8.25464,1.82534 -3.1423,1.00393 -9.31327,2.8235 -13.71327,4.04349 -4.4,1.22 -9.8,2.73471 -12,3.36601 -2.2,0.63132 -6.85,1.94274 -10.33333,2.91427 -3.48334,0.97152 -6.33334,2.11488 -6.33334,2.5408 0,1.10186 8.34192,3.97676 11.53911,3.97676 1.47572,0 3.13125,0.45 3.67897,1 0.54772,0.55 4.39772,1.69926 8.55556,2.55391 4.15783,0.85464 9.9597,2.25539 12.89303,3.11276 2.93333,0.85737 8.63333,2.29833 12.66667,3.20213 4.03333,0.9038 8.23333,2.0044 9.33333,2.44578 1.1,0.44136 3.5,1.13434 5.33333,1.53996 6.50026,1.43812 18.02862,4.36181 20.00001,5.07217 1.1,0.39637 7.4,2.04765 14,3.66951 6.6,1.62185 15.6,3.84352 20,4.93704 4.4,1.09352 9.8,2.32126 12,2.72832 2.2,0.40706 4.6,1.18905 5.33333,1.73774 0.73333,0.5487 4.27152,1.42331 7.86263,1.94358 3.59112,0.52026 7.49112,1.43702 8.66666,2.03724 3.75275,1.91609 12.71337,3.75846 15.47071,3.1809 1.46667,-0.30721 4.46667,-0.89604 6.66667,-1.30852 z"
     style="fill:#353535;stroke-width:1.33333337" />
</svg>
