<?xml version="1.0" encoding="UTF-8" standalone="no"?>
<!-- Created with Inkscape (http://www.inkscape.org/) -->

<svg
   xmlns:dc="http://purl.org/dc/elements/1.1/"
   xmlns:cc="http://creativecommons.org/ns#"
   xmlns:rdf="http://www.w3.org/1999/02/22-rdf-syntax-ns#"
   xmlns:svg="http://www.w3.org/2000/svg"
   xmlns="http://www.w3.org/2000/svg"
   xmlns:xlink="http://www.w3.org/1999/xlink"
   xmlns:sodipodi="http://sodipodi.sourceforge.net/DTD/sodipodi-0.dtd"
   xmlns:inkscape="http://www.inkscape.org/namespaces/inkscape"
   version="1.1"
   id="svg82"
   width="666.66669"
   height="666.66669"
   viewBox="0 0 666.66669 666.66669"
   sodipodi:docname="konfigurasi.svg"
   inkscape:version="0.92.3 (2405546, 2018-03-11)">
  <metadata
     id="metadata88">
    <rdf:RDF>
      <cc:Work
         rdf:about="">
        <dc:format>image/svg+xml</dc:format>
        <dc:type
           rdf:resource="http://purl.org/dc/dcmitype/StillImage" />
        <dc:title></dc:title>
      </cc:Work>
    </rdf:RDF>
  </metadata>
  <defs
     id="defs86" />
  <sodipodi:namedview
     pagecolor="#ffffff"
     bordercolor="#666666"
     borderopacity="1"
     objecttolerance="10"
     gridtolerance="10"
     guidetolerance="10"
     inkscape:pageopacity="0"
     inkscape:pageshadow="2"
     inkscape:window-width="1366"
     inkscape:window-height="705"
     id="namedview84"
     showgrid="false"
     inkscape:zoom="0.35399999"
     inkscape:cx="333.33334"
     inkscape:cy="333.33334"
     inkscape:window-x="-8"
     inkscape:window-y="-8"
     inkscape:window-maximized="1"
     inkscape:current-layer="svg82" />
  <image
     sodipodi:absref="E:\Project-website\tanyabudi\public\assets\images\icon\konfigurasi.png"
     xlink:href="konfigurasi.png"
     y="0"
     x="0"
     id="image90"
     preserveAspectRatio="none"
     height="666.66669"
     width="666.66669" />
  <path
     inkscape:connector-curvature="0"
     id="path106"
     d="m 157.33195,627.00002 c -7.4e-4,-0.55 -3.00074,-4.12678 -6.66666,-7.94841 -3.66591,-3.82163 -6.66528,-7.91198 -6.66528,-9.08964 0,-2.40978 15.75989,-17.96195 18.20185,-17.96195 0.86676,0 1.77592,-0.54559 2.02037,-1.21243 0.385,-1.05028 14.65911,-16.83712 28.94239,-32.00961 2.47387,-2.62788 9.07387,-9.80223 14.66667,-15.943 5.5928,-6.14079 11.87853,-13.04079 13.96832,-15.33333 2.08977,-2.29256 7.49492,-8.0683 12.01144,-12.83497 4.51651,-4.76666 10.56471,-11.36666 13.44044,-14.66666 2.87573,-3.3 11.9634,-13.2 20.19483,-22 8.23141,-8.8 17.89817,-19.21854 21.48168,-23.15231 l 6.51545,-7.15229 7.75299,1.6095 c 12.27541,2.54838 65.25355,2.20484 72.80357,-0.47208 3.3,-1.17004 7.61459,-2.13608 9.58798,-2.14676 1.97338,-0.0107 3.9588,-0.6194 4.41202,-1.35273 0.45323,-0.73333 2.25688,-1.33333 4.00814,-1.33333 1.75125,0 6.00521,-1.5 9.45322,-3.33334 3.44803,-1.83333 7.07979,-3.33333 8.07056,-3.33333 0.99078,0 1.80142,-0.53003 1.80142,-1.17783 0,-0.6478 1.05,-1.53038 2.33333,-1.96129 8.83293,-2.96584 31.28971,-24.82382 36.98896,-36.00267 1.92306,-3.77201 4.6184,-8.65821 5.98964,-10.85821 1.37124,-2.2 2.53702,-5.25 2.59062,-6.77778 0.0536,-1.52778 0.50865,-3.18898 1.01124,-3.69156 2.63173,-2.63174 6.39469,-16.53365 8.35424,-30.864 0.60166,-4.4 1.53045,-10.18505 2.06398,-12.85567 1.38908,-6.95309 -1.09136,-13.03709 -8.10656,-19.88382 l -6.07302,-5.92718 -2.70615,3.33334 c -3.06732,3.77821 -15.79397,18.28049 -20.99392,23.923 -1.8988,2.06041 -4.65236,5.2538 -6.11903,7.09641 -11.32423,14.22696 -33.12815,36.9774 -35.45485,36.99396 -1.49568,0.0107 -31.7245,-30.13386 -80.90563,-80.68004 -2.14059,-2.2 -4.9196,-5.59723 -6.17558,-7.54939 l -2.28361,-3.54937 7.74317,-8.74107 c 10.56726,-11.92912 30.91017,-34.12229 42.00598,-45.82659 l 9.16387,-9.66642 -4.38,-3.87094 c -2.40902,-2.12901 -7.04966,-6.34741 -10.31255,-9.37421 -3.98764,-3.69911 -6.61032,-5.198 -8,-4.57208 -1.13711,0.51216 -5.96747,1.36552 -10.73414,1.89637 -10.41002,1.15935 -18.47105,3.19142 -20.42968,5.15004 -0.79034,0.79035 -2.81698,1.43699 -4.50365,1.43699 -1.68667,0 -3.06667,0.6 -3.06667,1.33333 0,0.73334 -0.94002,1.33334 -2.08896,1.33334 -1.14893,0 -4.05556,1.5 -6.45918,3.33333 -2.40363,1.83333 -4.75903,3.33333 -5.23423,3.33333 -3.346,0 -26.21763,24.18909 -26.21763,27.72781 0,0.70345 -0.80134,1.94406 -1.78076,2.75692 -1.69589,1.40746 -5.5333,8.69428 -9.92612,18.84861 -1.11034,2.56667 -2.53053,5.70852 -3.15597,6.98191 -0.62543,1.27338 -1.13715,3.48797 -1.13715,4.9213 0,1.43335 -0.6,2.9769 -1.33333,3.43012 -0.73333,0.45323 -1.33333,2.32808 -1.33333,4.16635 0,1.83827 -0.72015,4.65285 -1.60031,6.25464 -3.10539,5.65136 -6.24872,31.97604 -7.22247,60.48648 l -0.73685,21.57414 -35.42348,34.42586 c -50.20916,48.79517 -60.47273,58.81157 -89.0169,86.87321 -24.229235,23.81964 -34.325766,32.886 -36.62271,32.886 -0.58008,0 -4.127275,-2.87404 -7.882658,-6.38676 -5.15248,-4.81955 -6.827967,-7.32794 -6.827967,-10.22223 0,-2.10951 0.566258,-4.03545 1.258351,-4.27991 1.873233,-0.66161 36.074984,-34.56221 36.074984,-35.75733 0,-0.56499 -0.834923,-1.72017 -1.855384,-2.56708 -1.762571,-1.46281 -9.010854,-15.64352 -15.395455,-30.12003 -1.617116,-3.66666 -3.497226,-7.70852 -4.17802,-8.9819 -0.680795,-1.27339 -1.237808,-3.40339 -1.237808,-4.73334 0,-1.32994 -0.476766,-2.98809 -1.059479,-3.68476 -1.069666,-1.27884 -4.275135,-11.44508 -6.705492,-21.26667 -6.519163,-26.34529 -6.235561,-23.09498 -6.224137,-71.33333 0.0096,-40.35718 0.293407,-46.73603 2.31393,-52 1.266669,-3.3 2.311767,-7.91459 2.32244,-10.25464 0.01067,-2.34006 0.619404,-4.62547 1.352737,-5.0787 0.733334,-0.45322 1.333334,-2.85322 1.333334,-5.33333 0,-2.48011 0.553838,-4.85157 1.23075,-5.26993 0.676914,-0.41836 1.653207,-2.68407 2.169542,-5.03492 0.516333,-2.35086 1.388842,-5.19398 1.938908,-6.31806 0.550065,-1.12406 1.759988,-4.44376 2.688716,-7.37709 0.928729,-2.93334 3.039155,-8.33334 4.689833,-12 1.650679,-3.66667 3.376387,-7.56667 3.834909,-8.66667 0.458521,-1.1 3.242464,-6.2 6.186538,-11.33333 2.944077,-5.13334 5.702131,-10.38334 6.12901,-11.66667 0.42688,-1.28333 1.306167,-2.33333 1.953969,-2.33333 0.647804,0 1.177826,-0.65523 1.177826,-1.45607 0,-1.88497 18.843643,-28.0506 25.825983,-35.86107 9.50584,-10.63324 27.88905,-28.09994 38.17402,-36.27081 5.5,-4.36946 11.05685,-8.79968 12.34857,-9.84493 1.29172,-1.04525 2.89172,-1.90046 3.55556,-1.90046 0.66384,0 1.40698,-0.49698 1.65143,-1.1044 0.70704,-1.75695 19.39484,-12.923515 31.77777,-18.988266 20.89347,-10.232924 24.69291,-11.907335 27.01914,-11.907335 1.27281,0 2.3142,-0.6 2.3142,-1.333333 0,-0.733333 1.43141,-1.333333 3.18092,-1.333333 1.74951,0 4.89951,-0.896305 7,-1.991786 2.10049,-1.095483 4.83367,-1.995483 6.07372,-2 1.24005,-0.0045 2.62547,-0.608215 3.07869,-1.341548 0.45323,-0.733333 2.85323,-1.333333 5.33334,-1.333333 2.4801,0 4.8801,-0.6 5.33333,-1.333334 0.45323,-0.733333 2.73864,-1.342065 5.07869,-1.352737 2.34006,-0.01067 6.95464,-1.059582 10.25464,-2.330908 5.30398,-2.04336 11.72288,-2.311504 55.33334,-2.311504 43.61045,0 50.02936,0.268144 55.33333,2.311504 3.3,1.271326 7.91459,2.320235 10.25464,2.330908 2.34006,0.01067 4.62547,0.619404 5.0787,1.352737 0.45322,0.733334 2.85322,1.333334 5.33333,1.333334 2.48011,0 4.88011,0.6 5.33333,1.333333 0.45323,0.733333 1.83864,1.337029 3.0787,1.341548 1.24005,0.0045 3.97323,0.904517 6.07372,2 2.10049,1.095481 4.95863,1.991786 6.35143,1.991786 1.39278,0 3.5742,0.546594 4.84758,1.214654 1.27339,0.66806 5.61524,2.698306 9.64858,4.511658 22.06916,9.922096 49.27741,24.935995 50.44444,27.835955 0.24445,0.60742 0.98758,1.1044 1.65142,1.1044 0.66384,0 2.26384,0.85521 3.55556,1.90046 1.29172,1.04525 6.84858,5.47547 12.34858,9.84493 10.28497,8.17087 28.66819,25.63757 38.17401,36.27081 6.98235,7.81047 25.82599,33.9761 25.82599,35.86107 0,0.80084 0.53003,1.45607 1.17783,1.45607 0.6478,0 1.52709,1.05 1.95397,2.33333 0.42688,1.28333 3.18493,6.53333 6.129,11.66667 2.94408,5.13333 5.72803,10.23333 6.18655,11.33333 0.45852,1.1 2.18422,5 3.8349,8.66667 1.65068,3.66666 3.76111,9.06666 4.68983,12 0.92873,2.93333 2.13865,6.25303 2.68872,7.37709 0.55007,1.12408 1.42257,3.9672 1.93891,6.31806 0.51633,2.35085 1.49262,4.61656 2.16954,5.03492 0.67691,0.41836 1.23075,2.78982 1.23075,5.26993 0,2.48011 0.6,4.88011 1.33333,5.33333 0.73334,0.45323 1.34207,2.73864 1.35274,5.0787 0.0107,2.34005 1.05577,6.95464 2.32244,10.25464 2.02052,5.26397 2.30437,11.64282 2.31393,52 0.012,48.23835 0.29503,44.98804 -6.22413,71.33333 -2.43036,9.82159 -5.63583,19.98783 -6.7055,21.26667 -0.58272,0.69667 -1.05948,2.35482 -1.05948,3.68476 0,1.32995 -0.5628,3.45995 -1.25068,4.73334 -0.68788,1.27338 -2.83486,5.91524 -4.77109,10.31524 -5.97124,13.56937 -10.42024,22.37437 -14.95764,29.60261 -2.39465,3.81477 -4.35392,7.42091 -4.35392,8.01363 0,0.59272 -1.5,2.69536 -3.33333,4.67252 -1.83334,1.97717 -3.33334,4.11304 -3.33334,4.74638 0,0.63334 -2.00009,3.50952 -4.44464,6.39152 -2.44456,2.882 -4.99456,6.22548 -5.66666,7.42996 -1.87534,3.36072 -18.93294,22.08666 -27.8887,30.61638 -17.64737,16.80783 -37.50725,31.66123 -56.66667,42.38153 -7.77848,4.35231 -28.19352,14.44183 -32.66666,16.14451 -11.70347,4.45487 -14.9609,5.76009 -16.98191,6.80451 -1.27339,0.65805 -3.78797,1.19645 -5.58798,1.19645 -1.80001,0 -3.64356,0.6 -4.09678,1.33333 -0.45323,0.73334 -2.34796,1.33334 -4.21052,1.33334 -1.86256,0 -5.27715,0.85321 -7.58798,1.89604 -2.31082,1.04282 -6.6015,2.26622 -9.53484,2.71868 -51.65816,7.96797 -71.00851,7.96797 -122.66667,0 -2.93333,-0.45246 -7.22401,-1.67586 -9.53484,-2.71868 -2.31082,-1.04283 -5.72541,-1.89604 -7.58797,-1.89604 -1.86256,0 -3.75729,-0.6 -4.21052,-1.33334 -0.45323,-0.73333 -2.29677,-1.33333 -4.09679,-1.33333 -1.8,0 -4.31458,-0.5384 -5.58797,-1.19645 -2.02027,-1.04403 -7.80512,-3.35578 -16.98191,-6.78634 -1.46667,-0.54828 -7.16667,-3.17914 -12.66667,-5.84636 -5.5,-2.66721 -11.00752,-4.84678 -12.23892,-4.84349 -1.2314,0.003 -5.7314,3.69364 -10,8.20079 -4.2686,4.50714 -10.31696,10.8884 -13.4408,14.18056 -7.02065,7.3989 -15.503,17.45084 -16.09805,19.07684 -0.53112,1.45128 -9.55496,1.65377 -9.55695,0.21445 z m 214.66806,-37.47428 c 6.23334,-0.62868 13.02239,-1.82916 15.0868,-2.66772 2.0644,-0.83857 6.079,-1.52467 8.92131,-1.52467 2.84232,0 5.53867,-0.6 5.99189,-1.33333 0.45323,-0.73333 2.85323,-1.33333 5.33334,-1.33333 2.4801,0 4.8801,-0.6 5.33333,-1.33334 0.45323,-0.73333 2.13864,-1.33702 3.74536,-1.34154 1.60672,-0.004 4.63989,-0.90452 6.74039,-2 2.10049,-1.09548 4.91508,-1.99179 6.25464,-1.99179 1.33956,0 2.80639,-0.6 3.25961,-1.33333 0.45323,-0.73334 1.67224,-1.33334 2.70891,-1.33334 1.67948,0 13.45475,-4.87402 19.61231,-8.11793 1.27668,-0.67257 6.37668,-3.36483 11.33333,-5.98277 20.28739,-10.71516 40.20567,-25.77798 59.78226,-45.20915 16.05332,-15.9341 24.91968,-27.43335 40.16746,-52.09538 1.84152,-2.97852 11.9532,-23.61669 14.01002,-28.59477 0.75748,-1.83333 2.20414,-4.92591 3.21481,-6.87239 1.01067,-1.94648 1.83757,-4.76108 1.83757,-6.25465 0,-1.49358 0.6,-3.0864 1.33334,-3.53963 0.73333,-0.45323 1.33333,-2.55323 1.33333,-4.66667 0,-2.11344 0.6,-4.21344 1.33333,-4.66666 0.73334,-0.45323 1.33334,-2.32808 1.33334,-4.16635 0,-1.83827 0.66216,-4.57956 1.47148,-6.09177 3.45866,-6.46259 7.04922,-37.97475 6.95902,-61.07522 -0.0836,-21.41108 -1.5894,-41.50423 -3.24245,-43.26667 -0.65343,-0.69666 -1.20932,-3.69666 -1.23531,-6.66666 -0.026,-2.97 -0.90472,-6.9 -1.95274,-8.73334 -1.04803,-1.83333 -1.92678,-5.24792 -1.95275,-7.58797 -0.026,-2.34005 -0.64725,-4.62547 -1.38059,-5.07869 -0.73333,-0.45323 -1.33333,-2.29678 -1.33333,-4.09679 0,-3.27104 -0.26911,-4.01905 -4.44107,-12.3446 -1.22408,-2.44276 -2.2256,-5.24916 -2.2256,-6.23645 0,-0.98728 -2.1,-5.82395 -4.66666,-10.74815 -2.56667,-4.9242 -4.66667,-9.7678 -4.66667,-10.76355 0,-0.99576 -0.46845,-1.81047 -1.04101,-1.81047 -0.57256,0 -1.73051,-1.65 -2.57323,-3.66666 -1.51504,-3.6256 -5.75893,-11.04338 -7.0562,-12.33334 -0.36875,-0.36666 -2.97432,-4.19113 -5.79016,-8.49881 -12.64919,-19.35073 -39.4454,-47.3516 -57.67471,-60.26754 -5.05891,-3.58437 -9.39803,-6.97827 -9.64247,-7.54201 -0.24445,-0.56373 -1.0972,-1.02497 -1.89501,-1.02497 -0.79781,0 -2.39781,-0.83841 -3.55556,-1.86314 -2.68871,-2.37979 -13.00621,-8.47447 -17.77165,-10.49792 -2.01667,-0.8563 -3.66667,-2.02537 -3.66667,-2.59793 0,-0.57256 -0.74139,-1.04101 -1.64753,-1.04101 -0.90614,0 -4.95614,-1.57762 -9,-3.50581 -4.04386,-1.9282 -8.55247,-3.96703 -10.01914,-4.53073 -1.46666,-0.5637 -4.85734,-1.986079 -7.53484,-3.16085 -2.67749,-1.174771 -5.79208,-2.135947 -6.92131,-2.135947 -1.12922,0 -2.42396,-0.6 -2.87718,-1.333333 -0.45323,-0.733333 -2.29678,-1.333333 -4.09679,-1.333333 -1.8,0 -4.31459,-0.52943 -5.58797,-1.176511 -10.2432,-5.205175 -45.21258,-9.99364 -72.98191,-9.99364 -27.76934,0 -62.73871,4.788465 -72.98191,9.99364 -1.27339,0.647081 -3.53152,1.176511 -5.01809,1.176511 -1.48658,0 -3.74471,0.538406 -5.0181,1.196458 -2.01572,1.041672 -7.33026,3.166842 -16.9819,6.790685 -1.46667,0.55068 -5.97529,2.57885 -10.01914,4.50705 -4.04387,1.92819 -8.09387,3.50581 -9,3.50581 -0.90615,0 -1.64753,0.46845 -1.64753,1.04101 0,0.57256 -1.65,1.74163 -3.66667,2.59793 -4.76544,2.02345 -15.08295,8.11813 -17.77165,10.49792 -1.15775,1.02473 -2.75775,1.86314 -3.55556,1.86314 -0.79782,0 -1.65056,0.48066 -1.89502,1.06813 -0.24444,0.58747 -4.63728,4.03747 -9.76185,7.66667 -18.33135,12.98213 -44.87064,40.69468 -57.55532,60.09972 -2.81585,4.30768 -5.42141,8.13215 -5.79016,8.49881 -1.29727,1.28996 -5.54116,8.70774 -7.05621,12.33334 -0.84271,2.01666 -2.00066,3.66666 -2.57322,3.66666 -0.57256,0 -1.04101,0.81471 -1.04101,1.81047 0,0.99575 -2.1,5.83935 -4.66667,10.76355 C 102.1,236.16489 100,241.00156 100,241.98884 c 0,0.98729 -1.001515,3.79369 -2.225594,6.23645 -4.171965,8.32555 -4.441069,9.07356 -4.441069,12.3446 0,1.80001 -0.6,3.64356 -1.333334,4.09679 -0.733333,0.45322 -1.354594,2.73864 -1.38058,5.07869 -0.02599,2.34005 -0.904725,5.75464 -1.952753,7.58797 -1.048028,1.83334 -1.926767,5.76334 -1.952754,8.73334 -0.02599,2.97 -0.581869,5.97 -1.235298,6.66666 -1.653048,1.76244 -3.158852,21.85559 -3.242454,43.26667 -0.0902,23.10047 3.50036,54.61263 6.959032,61.07522 0.809311,1.51221 1.471474,4.2535 1.471474,6.09177 0,1.83827 0.6,3.71312 1.333333,4.16635 0.733334,0.45322 1.333334,2.55322 1.333334,4.66666 0,2.11344 0.6,4.21344 1.333333,4.66667 0.733333,0.45323 1.333333,2.04605 1.333333,3.53963 0,1.49357 0.826908,4.30817 1.837572,6.25465 1.010666,1.94648 2.457335,5.03906 3.214815,6.87239 0.75749,1.83333 3.90809,8.63629 7.00134,15.11768 l 5.6241,11.78435 7.38789,-7.11768 c 4.06335,-3.91472 24.71571,-24.20074 45.89415,-45.08003 21.17844,-20.8793 39.04791,-38.29711 39.70994,-38.70626 0.66201,-0.40916 1.46148,-10.92609 1.77658,-23.37098 0.58578,-23.13481 2.09223,-37.04766 4.73324,-43.71389 0.81787,-2.0644 1.48704,-5.479 1.48704,-7.58797 0,-2.10899 0.6,-4.20533 1.33334,-4.65856 0.73333,-0.45323 1.33333,-2.54001 1.33333,-4.63731 0,-2.09729 1.00152,-5.81188 2.2256,-8.25464 4.05799,-8.09809 4.44107,-9.05625 4.44107,-11.10805 0,-1.84075 0.89338,-3.98297 4.17037,-10 0.59908,-1.1 2.12292,-4.1 3.38632,-6.66667 3.00612,-6.10714 8.84159,-15.21405 10.10998,-15.77777 0.55,-0.24446 1,-0.98988 1,-1.65654 0,-3.1924 17.74861,-21.36418 28.54572,-29.22632 9.18498,-6.68824 24.27168,-14.6727 27.72414,-14.6727 1.31824,0 2.3968,-0.53436 2.3968,-1.18746 0,-0.6531 1.95,-1.51649 4.33334,-1.91864 11.93325,-2.01352 18.40516,-3.5052 20.82368,-4.79954 1.46722,-0.78523 7.98479,-1.4277 14.48348,-1.4277 h 11.81581 l 7.93851,7.46503 c 8.24201,7.75041 24.66447,22.80101 32.39051,29.68475 2.4486,2.18164 4.2486,4.83545 4,5.89736 -0.42798,1.8282 -5.65646,7.64765 -42.69354,47.51932 -8.5662,9.22179 -16.76338,18.29439 -18.216,20.16135 l -2.6411,3.39445 27.13386,27.93888 27.13387,27.93887 4.41955,-4.66667 c 2.43074,-2.56666 7.7177,-8.53628 11.74878,-13.2658 4.0311,-4.72952 8.82926,-10.19552 10.66259,-12.14667 1.83333,-1.95114 5.24771,-5.88154 7.58748,-8.73421 2.33979,-2.85265 6.53979,-7.65497 9.33334,-10.67181 2.79356,-3.01684 8.58544,-9.46112 12.87085,-14.32064 l 7.79165,-8.83548 16.20835,15.21822 c 8.91459,8.37003 19.3924,17.79812 23.28404,20.95134 l 7.07571,5.73309 -0.58115,14.70264 c -0.58632,14.83363 -2.31871,27.43404 -4.65673,33.87052 -0.69902,1.92434 -2.01826,6.1988 -2.93164,9.4988 -1.74556,6.30659 -4.57719,13.7508 -6.71315,17.64858 -0.69781,1.27338 -1.26875,3.22338 -1.26875,4.33333 0,1.10995 -0.46845,2.01809 -1.04101,2.01809 -0.57256,0 -1.75199,1.65 -2.62093,3.66667 -9.36919,21.74396 -34.976,46.73636 -59.67139,58.23963 -4.4,2.04955 -9.04186,4.25908 -10.31524,4.91008 -1.27339,0.65099 -3.38988,1.18363 -4.70332,1.18363 -1.31346,0 -3.5716,0.82174 -5.0181,1.8261 -1.4465,1.00436 -5.03001,2.22427 -7.96334,2.71091 -2.93334,0.48665 -8.93334,1.53493 -13.33334,2.32953 -11.37465,2.05416 -62.7662,2.92536 -67.85801,1.15035 -3.9667,-1.3828 -4.3553,-1.1324 -14.11051,9.09223 -5.51732,5.7828 -14.23148,15.19613 -19.36481,20.91849 -5.13334,5.72237 -11.96211,13.15713 -15.17504,16.52168 -5.1761,5.42034 -11.4693,12.2948 -31.71445,34.64364 -4.0824,4.50662 -5.18849,6.5765 -4.17008,7.80362 0.76235,0.91857 2.10032,1.67012 2.97328,1.67012 0.87296,0 4.69656,1.5 8.49687,3.33333 3.80032,1.83333 7.7772,3.33333 8.83752,3.33333 1.06032,0 2.29867,0.6 2.7519,1.33334 0.45322,0.73333 1.92005,1.33333 3.25961,1.33333 1.33956,0 4.15415,0.89631 6.25464,1.99179 2.10049,1.09548 5.13367,1.99548 6.74039,2 1.60672,0.004 3.29213,0.60821 3.74536,1.34154 0.45322,0.73334 2.85322,1.33334 5.33333,1.33334 2.48011,0 4.88011,0.6 5.33333,1.33333 0.45323,0.73333 2.79328,1.33333 5.20012,1.33333 2.40683,0 7.32143,0.89351 10.92131,1.98558 3.59988,1.09205 10.14524,2.06304 14.54524,2.15774 4.4,0.0947 9.8,0.6632 12,1.26334 4.47261,1.22006 32.64819,0.53581 50,-1.21427 z"
     style="fill:#e8e8e8;stroke-width:1.33333337" />
  <path
     inkscape:connector-curvature="0"
     id="path104"
     d="m 152.33334,620.06336 c -3.85,-4.27133 -7,-8.75865 -7,-9.97182 0,-2.67901 11.30081,-15.02324 14.75787,-16.12047 1.36288,-0.43256 9.9778,-9.003 19.14426,-19.04542 28.37714,-31.08887 39.33412,-43.03788 54.03355,-58.92563 7.80258,-8.43334 17.159,-18.61203 20.79207,-22.61934 3.63308,-4.00729 10.86411,-11.80729 16.06896,-17.33333 5.20485,-5.52603 13.00485,-13.81035 17.33333,-18.40957 l 7.86996,-8.36224 18.66667,1.52945 c 20.31894,1.66483 54.59582,0.85407 63.66879,-1.50599 20.93199,-5.4448 21.94381,-5.79634 33.66455,-11.69646 26.56367,-13.37191 46.32512,-38.38521 55.25197,-69.93586 0.77808,-2.75 1.96887,-6.95 2.64619,-9.33333 2.20811,-7.76978 4.46647,-28.63834 3.59937,-33.26034 -0.56569,-3.01539 -3.17484,-6.81228 -7.86256,-11.44177 l -7.01592,-6.92876 -11.63926,13.64876 c -11.34635,13.30525 -19.2655,22.37505 -36.97979,42.35292 -12.66388,14.28209 -13.05247,14.62919 -16.37812,14.62919 -2.23192,0 -12.4777,-9.69994 -38.37788,-36.33334 -48.61342,-49.98961 -49.24401,-50.66843 -49.24401,-53.01025 0,-2.06811 7.63622,-11.03688 26.66918,-31.32308 13.98821,-14.9093 29.92531,-32.70297 30.37445,-33.91291 0.20732,-0.55852 -4.12874,-5.04808 -9.63572,-9.97679 l -10.01266,-8.96129 -10.3643,1.5676 c -5.70035,0.86217 -11.74251,2.10364 -13.42701,2.75882 -1.68451,0.65518 -4.02496,1.19123 -5.20102,1.19123 -1.17605,0 -7.887,2.79632 -14.91322,6.21405 -10.5315,5.12279 -14.66744,8.10822 -23.55144,17 -17.32407,17.33926 -27.35231,36.08506 -35.01451,65.45262 -5.02202,19.24833 -8.78546,51.44823 -7.8972,67.56822 l 0.71358,12.95 -48.2034,47.21725 c -26.51186,25.96948 -51.8034,50.67766 -56.2034,54.90704 -4.4,4.2294 -16.7,16.20407 -27.33333,26.61038 -23.827148,23.31844 -28.561413,27.04761 -31.374094,24.71329 -5.862642,-4.86556 -12.625911,-12.52436 -12.625911,-14.29772 0,-1.10981 8.550001,-10.29213 19.000001,-20.40519 l 19.000001,-18.38734 -2.505088,-4.43796 c -9.833401,-17.42063 -19.466964,-39.45136 -23.513023,-53.7713 -0.621604,-2.2 -2.12487,-7.3 -3.340593,-11.33333 -2.878675,-9.55042 -4.681423,-17.89282 -5.474404,-25.33334 -0.351702,-3.3 -1.227918,-7.2 -1.947148,-8.66666 -1.68969,-3.44564 -0.73849,-74.72434 1.129858,-84.66667 0.757938,-4.03334 1.789186,-9.73334 2.291663,-12.66667 0.502478,-2.93333 1.415751,-6.83333 2.029496,-8.66667 0.613747,-1.83333 2.123916,-6.93333 3.355934,-11.33333 1.232018,-4.4 2.719466,-9.2 3.305441,-10.66667 0.585975,-1.46666 1.815966,-4.76666 2.733312,-7.33333 12.415638,-34.738 34.691275,-69.24224 63.267885,-97.9999 21.70703,-21.84455 32.92207,-30.66076 61.40523,-48.271039 10.2208,-6.319208 44.83522,-21.729068 48.80894,-21.729068 1.26232,0 2.6232,-0.530823 3.02416,-1.179606 0.40097,-0.648784 2.38638,-1.482533 4.41202,-1.852777 2.02564,-0.370244 7.88299,-1.853367 13.01632,-3.29583 9.28312,-2.608549 19.15146,-4.798473 29.33334,-6.509488 6.94156,-1.166493 81.05844,-1.166493 88,0 10.18188,1.711015 20.05021,3.900939 29.33333,6.509488 5.13334,1.442463 10.99068,2.925586 13.01632,3.29583 2.02565,0.370244 4.01106,1.203993 4.41203,1.852777 0.40096,0.648783 1.8308,1.179606 3.1774,1.179606 3.93454,0 38.62174,15.484987 48.6557,21.720768 1.42712,0.886911 6.82712,4.251204 12,7.476209 34.77295,21.67901 73.07547,61.5746 92.9376,96.80303 7.17563,12.72702 15.93765,31.37386 19.73551,42 0.91734,2.56667 2.14734,5.86667 2.73332,7.33333 0.58597,1.46667 2.07341,6.26667 3.30544,10.66667 1.23201,4.4 2.74218,9.5 3.35593,11.33333 0.61375,1.83334 1.52701,5.73334 2.0295,8.66667 0.50248,2.93333 1.53372,8.63333 2.29166,12.66667 1.86835,9.94233 2.81955,81.22103 1.12986,84.66667 -0.71923,1.46666 -1.59544,5.36666 -1.94715,8.66666 -0.79299,7.44052 -2.59574,15.78292 -5.4744,25.33334 -1.21572,4.03333 -2.71899,9.13333 -3.3406,11.33333 -8.3922,29.70195 -29.67039,68.10878 -52.44732,94.66667 -26.12896,30.46639 -58.93017,55.80906 -94.23746,72.80923 -20.97088,10.09731 -31.56335,14.07803 -49.33334,18.53981 -31.42338,7.88994 -37.46797,8.57824 -75.33333,8.57824 -37.86536,0 -43.90995,-0.6883 -75.33334,-8.57824 -17.18192,-4.31413 -27.61501,-8.19861 -48.872,-18.19616 -5.24627,-2.46741 -10.09867,-4.48621 -10.78312,-4.48621 -1.87596,0 -40.27999,40.95304 -40.32359,43 -0.012,0.55 -1.37129,0.96162 -3.02129,0.9147 -1.90301,-0.0541 -5.55963,-2.92506 -10,-7.85136 z m 214.84889,-29.47642 c 69.22087,-8.04987 122.88383,-35.68829 170.89878,-88.01926 8.8805,-9.67876 26.60094,-35.67696 33.55826,-49.23433 16.28192,-31.7278 23.56328,-56.8396 27.86331,-96.09434 2.1494,-19.6218 2.14747,-21.92642 -0.0353,-42 -1.27026,-11.68145 -2.81798,-23.339 -3.43939,-25.90567 -0.6214,-2.56666 -1.82712,-7.96666 -2.67936,-12 -1.47296,-6.971 -4.52197,-17.54304 -6.7294,-23.33333 -0.55913,-1.46667 -1.77191,-4.76667 -2.69505,-7.33333 -4.8443,-13.46887 -17.53992,-38.79106 -22.11264,-44.10499 -0.99627,-1.15775 -1.81139,-2.56378 -1.81139,-3.1245 0,-2.69932 -20.76989,-28.25628 -32.6444,-40.16834 C 510.5511,142.41116 507.00681,139.3776 491.00081,128.15271 459.34602,105.95345 433.04225,94.873567 389.33338,85.327551 c -9.03975,-1.97428 -39.58926,-5.30335 -48.66667,-5.30335 -9.07742,0 -39.62692,3.32907 -48.66667,5.30335 -43.70887,9.546016 -70.01264,20.625899 -101.66743,42.825159 -16.006,11.22489 -19.55029,14.25845 -36.35484,31.11614 -11.87451,11.91206 -32.6444,37.46902 -32.6444,40.16834 0,0.56072 -0.81512,1.96675 -1.81137,3.1245 -4.57272,5.31393 -17.26835,30.63612 -22.112645,44.10499 -0.923144,2.56666 -2.135918,5.86666 -2.695054,7.33333 -2.207429,5.79029 -5.256435,16.36233 -6.729403,23.33333 -0.85224,4.03334 -2.061442,9.43334 -2.687118,12 -0.625675,2.56667 -2.175144,14.35922 -3.443266,26.20566 -2.175517,20.32309 -2.177987,22.65639 -0.04375,41.33333 3.19595,27.96807 4.666993,35.309 11.314175,56.46102 6.42354,20.44037 18.464761,46.94847 21.054201,46.34972 0.83185,-0.19235 22.20288,-20.60492 47.49119,-45.36127 l 45.97875,-45.01156 0.71029,-20.98844 c 0.39067,-11.54365 1.39689,-24.58846 2.23607,-28.98846 0.83918,-4.4 2.14854,-11.3 2.90969,-15.33333 9.07048,-48.06397 33.55576,-86.8269 67.59047,-107.00322 4.63589,-2.74824 9.16589,-4.99678 10.06667,-4.99678 0.90077,0 2.20777,-0.55272 2.90444,-1.22826 1.86346,-1.80696 17.57465,-7.00642 25.26666,-8.36174 9.76104,-1.7199 29.45372,-3.18114 32.47876,-2.41 1.43838,0.36666 7.62618,5.46666 13.75066,11.33333 6.12448,5.86667 15.47833,14.51323 20.78633,19.21457 5.30802,4.70135 9.64382,9.50135 9.63512,10.66667 -0.009,1.16532 -2.56401,4.81876 -5.67852,8.11876 -3.1145,3.3 -14.6574,15.83868 -25.65088,27.86372 -10.99347,12.02504 -22.51808,24.62504 -25.61023,28 -3.09216,3.37496 -5.64216,6.4754 -5.66666,6.88988 -0.0635,1.07206 53.64981,56.57974 54.75061,56.57974 0.84003,0 25.72692,-27.65312 37.68746,-41.87648 2.83213,-3.36794 7.93213,-9.1855 11.33333,-12.92792 3.40121,-3.74242 8.08283,-8.99242 10.40359,-11.66667 2.32074,-2.67424 4.66414,-4.86227 5.20753,-4.86227 0.5434,0 6.7446,5.55071 13.78045,12.33491 7.03586,6.7842 17.14246,16.21583 22.45913,20.95916 l 9.66666,8.62424 -0.0268,7.37419 c -0.0337,9.29548 -2.30549,24.22748 -6.39594,42.04084 -3.03156,13.20207 -12.98971,35.5778 -21.22099,47.68311 -12.90319,18.97603 -29.84544,33.87348 -49.68959,43.69241 -15.23587,7.53875 -18.31268,8.61983 -35.33333,12.41483 -22.93323,5.11328 -53.97541,6.58399 -72.1533,3.41844 l -8.37173,-1.45787 -11.83034,12.45787 c -6.50669,6.85184 -15.32969,16.35788 -19.60667,21.12455 -4.27698,4.76666 -11.73904,12.86666 -16.58236,18 -4.84332,5.13333 -14.6866,15.75579 -21.87394,23.60545 l -13.06792,14.27214 6.40978,3.20308 c 6.40722,3.20177 27.60383,11.30681 36.4098,13.92217 31.80451,9.44584 71.17773,13.15091 101.84889,9.58408 z"
     style="fill:#d0d0d0;stroke-width:1.33333337" />
  <path
     inkscape:connector-curvature="0"
     id="path102"
     d="m 158.66667,627.02558 c 0,-0.63796 -3,-4.52584 -6.66666,-8.63975 -3.66667,-4.1139 -6.66667,-8.04234 -6.66667,-8.72986 0,-1.10351 10.00245,-10.76992 18.95959,-18.32262 1.7394,-1.46666 16.60394,-17.36666 33.03232,-35.33333 31.7762,-34.7516 51.37865,-56.0464 68.67476,-74.60366 5.86667,-6.29442 14.9758,-16.07677 20.24251,-21.73854 8.39381,-9.02344 10.03965,-10.21594 13.33333,-9.6606 18.51457,3.12168 46.79578,4.0281 62.66102,2.00833 19.22234,-2.44716 25.99249,-4.13573 41.76314,-10.41632 36.90473,-14.69712 60.51063,-48.68538 68.70478,-98.92255 2.71097,-16.62059 0.98939,-22.20354 -9.65689,-31.31636 l -5.27131,-4.51204 -3.76927,4.24753 c -2.0731,2.33615 -12.18384,13.84753 -22.46829,25.58087 -35.06615,40.00627 -35.66739,40.62617 -39.12548,40.33997 -2.05848,-0.17037 -6.82484,-4.06737 -13.41574,-10.96877 -5.6226,-5.88749 -21.35945,-22.10453 -34.97078,-36.03787 -38.28359,-39.18923 -38.89689,-39.8892 -37.71718,-43.04696 0.90895,-2.433 26.12113,-30.54931 49.41483,-55.10676 l 8.39133,-8.8466 -8.84097,-8.49984 c -4.86253,-4.67491 -9.76875,-9.0245 -10.90269,-9.66572 -2.82647,-1.59834 -16.48918,-0.0397 -27.72853,3.16304 -33.3528,9.50444 -56.15973,32.02372 -70.38222,69.49453 -9.36915,24.68411 -12.84587,44.61415 -13.85698,79.43398 l -0.66571,22.92567 -10.86945,10.282 c -5.9782,5.6551 -34.26945,33.12862 -62.86945,61.05227 -60.460652,59.03082 -75.636355,73.60957 -81.871082,78.65061 l -4.537741,3.66896 -7.128926,-7.04037 c -6.594723,-6.5128 -8.792738,-10.93616 -5.97305,-12.02036 0.635732,-0.24444 9.035733,-7.8988 18.666668,-17.0097 17.031159,-16.1115 19.701202,-19.96377 16.289059,-23.50141 -3.840188,-3.98143 -21.264075,-43.3266 -24.179445,-54.6 -0.568933,-2.2 -2.02422,-7.6 -3.233971,-12 -2.33398,-8.48895 -4.168692,-16.7118 -6.396209,-28.66667 -1.805234,-9.68852 -1.779986,-74.45967 0.033,-84.66667 5.496744,-30.94625 12.07526,-51.39691 25.519761,-79.33334 C 117.17081,148.2095 179.00053,94.55533 250.66668,71.068772 c 16.6911,-5.47004 26.31836,-7.853155 46,-11.386775 10.39644,-1.866564 77.60356,-1.866564 88,0 47.88715,8.597601 83.39514,23.086989 121.12844,49.427653 38.12941,26.61718 70.63835,64.59772 90.35017,105.55702 13.44449,27.93643 20.02301,48.38709 25.51975,79.33334 1.813,10.207 1.83824,74.97815 0.0331,84.66667 -2.22752,11.95487 -4.06223,20.17772 -6.39621,28.66667 -1.20975,4.4 -2.66504,9.8 -3.23398,12 -4.5866,17.73589 -19.2856,47.87844 -34.32118,70.38091 -52.9569,79.25585 -141.24751,126.28576 -237.08005,126.28576 -44.41378,0 -84.49494,-9.21863 -125.95826,-28.97028 l -9.95824,-4.74376 -5.37509,6.02179 c -27.65904,30.98679 -40.70842,43.39807 -40.70842,38.71781 z m 214.62514,-36.44661 c 58.56218,-7.65767 109.88845,-32.66872 151.52138,-73.83566 35.10419,-34.71127 55.70884,-70.28388 68.00712,-117.40996 12.36504,-47.38187 10.92406,-94.52018 -4.34082,-142.00001 -1.76827,-5.5 -3.79952,-11.04185 -4.51391,-12.31524 -0.7144,-1.27338 -1.29889,-2.95144 -1.29889,-3.729 0,-3.41848 -14.49663,-30.06808 -24.78675,-45.56625 -29.40401,-44.28603 -72.01502,-78.42656 -122.30704,-97.99412 -6.73175,-2.61918 -14.18955,-5.279627 -16.57289,-5.912103 -2.38333,-0.632476 -6.58333,-1.755291 -9.33333,-2.495143 -21.50839,-5.786554 -47.40739,-9.264971 -69,-9.26718 -12.78727,-0.0013 -41.52212,2.649906 -49.33334,4.551728 -1.46666,0.357095 -6.86666,1.618904 -12,2.804022 -26.58472,6.137537 -60.10023,20.529676 -82.32051,35.349846 -30.849,20.57525 -53.87862,43.45777 -73.71092,73.24011 -10.15061,15.24326 -24.63524,41.8716 -24.63524,45.28909 0,0.77756 -0.5845,2.45562 -1.298888,3.729 -3.155451,5.62452 -9.061587,26.38544 -13.17592,46.31524 -4.421381,21.41714 -5.080817,52.71138 -1.672326,79.3619 2.790303,21.817 12.016011,52.56588 22.151624,73.83042 9.58309,20.10533 4.25123,22.2765 46.08887,-18.76783 20.11532,-19.7339 41.45148,-40.65236 47.41371,-46.48548 l 10.84039,-10.60567 0.1315,-18 c 0.44794,-61.31451 23.71771,-117.92625 59.35882,-144.41079 21.97243,-16.32748 50.76507,-26.32626 75.49556,-26.21722 8.57314,0.0379 8.7458,0.11214 16,6.89392 4.03334,3.77064 13.8035,12.87714 21.71146,20.23664 7.90797,7.35952 14.20797,14.1272 14,15.03932 -0.20796,0.91211 -4.87915,6.33832 -10.3804,12.05826 -5.50126,5.71992 -12.70126,13.41105 -16,17.0914 -3.29875,3.68035 -12.59772,13.7948 -20.66439,22.47657 -8.06667,8.68179 -14.84989,16.56468 -15.07384,17.51755 -0.36684,1.56093 51.60973,56.74672 54.36449,57.72112 1.15272,0.40775 3.56895,-2.25264 43.09318,-47.44764 21.04716,-24.06692 21.3514,-24.34465 24.13269,-22.03048 1.54926,1.28904 8.21682,7.47271 14.81682,13.74147 6.6,6.26877 15.45,14.4883 19.66666,18.26562 l 7.66667,6.86786 v 11.32981 c 0,14.24667 -3.04647,30.88638 -8.94669,48.86659 -15.63015,47.63093 -49.19958,79.59083 -96.57597,91.94548 -23.77792,6.20074 -47.09354,7.54974 -78.58997,4.54708 l -8.77928,-0.83694 -32.43282,35.17218 c -17.83805,19.34471 -36.23737,39.26719 -40.88739,44.27219 -4.65001,5.00499 -8.45456,9.58662 -8.45456,10.1814 0,2.96238 34.11822,15.93914 54.66667,20.7923 16.08091,3.79801 19.29882,4.38428 32,5.83001 6.96667,0.79299 14.76667,1.68371 17.33334,1.97937 6.65684,0.76684 34.77989,-0.42189 46.62513,-1.97078 z"
     style="fill:#b0b0b0;stroke-width:1.33333337" />
  <path
     inkscape:connector-curvature="0"
     id="path100"
     d="m 153.66667,620.07054 c -3.85,-4.19559 -7,-8.62041 -7,-9.83296 0,-1.21255 3.15,-5.06204 7,-8.55443 8.40268,-7.62218 22.07859,-21.31226 30.36878,-30.40022 8.78934,-9.63516 67.7774,-73.71162 91.13489,-98.99633 l 20.0584,-21.71342 11.38564,1.04676 c 6.2621,0.5757 23.38563,0.98016 38.0523,0.89876 24.11496,-0.13383 27.90499,-0.47591 39.60775,-3.57492 35.405,-9.37562 59.3344,-28.30874 74.28969,-58.77857 7.61895,-15.5228 12.5352,-31.2843 14.81551,-47.49853 2.15819,-15.34592 0.56423,-21.10378 -8.29461,-29.96262 l -6.63395,-6.63396 -7.55887,7.99774 c -4.15737,4.39874 -13.25885,14.56214 -20.22552,22.58533 -27.59687,31.78202 -35.60659,40.10875 -38.58175,40.10875 -1.80113,0 -5.2907,-2.5744 -9.10116,-6.71429 -3.39898,-3.69286 -19.05454,-19.91428 -34.79012,-36.04762 -47.28295,-48.47815 -43.52248,-44.12996 -41.1972,-47.63583 1.10563,-1.66696 14.37643,-16.53084 29.49068,-33.03084 15.11426,-16.5 27.48776,-30.38643 27.49667,-30.85873 0.009,-0.47231 -4.79115,-5.19252 -10.66681,-10.48935 l -10.68303,-9.6306 -10.98364,1.71304 c -43.33787,6.75909 -73.38459,34.07442 -88.69622,80.63324 -7.61184,23.14572 -10.95409,45.41995 -10.95409,73.00278 v 20.52337 l -22.33334,21.77936 c -12.28333,11.97866 -34.9401,34.12757 -50.34838,49.21981 -57.64271,56.46036 -74.822448,73.00184 -81.007805,77.99815 l -6.356184,5.13429 -7.166656,-6.51267 c -3.941662,-3.58197 -7.231379,-6.89731 -7.310483,-7.3674 -0.07911,-0.47011 8.556174,-9.42655 19.189507,-19.90323 10.633334,-10.47666 19.333334,-19.56044 19.333334,-20.18617 0,-0.62572 -2.276322,-5.16927 -5.058496,-10.09677 -6.472199,-11.46292 -15.294862,-31.6388 -19.723495,-45.10419 -4.598148,-13.9808 -11.21801,-43.40948 -11.21801,-49.8698 0,-2.83859 -0.6,-5.5319 -1.333333,-5.98512 -1.711748,-1.05792 -1.796908,-56.94406 -0.09535,-62.57201 0.680892,-2.25206 1.895145,-8.59466 2.698343,-14.09466 2.476901,-16.96092 10.768843,-46.48868 16.6619,-59.33334 1.009348,-2.2 3.745441,-8.2 6.080205,-13.33333 6.318705,-13.89264 17.085973,-31.59732 28.786213,-47.33334 11.05093,-14.86273 37.228,-41.95569 50.53536,-52.30348 10.90951,-8.48322 32.29415,-22.068033 46,-29.221971 9.69831,-5.062147 15.63707,-7.701935 32.66667,-14.52036 12.50808,-5.008073 36.55295,-11.148869 58.66667,-14.982832 10.37548,-1.798848 69.62452,-1.798848 80,0 47.05069,8.157405 79.03912,20.280352 116,43.961573 19.04227,12.20058 27.22357,18.87551 45.38149,37.02572 27.30954,27.29799 43.14817,50.65193 61.06598,90.04135 6.20459,13.63978 14.39435,42.59865 16.96842,60.00001 0.81357,5.5 2.06228,12.1 2.77489,14.66666 1.61067,5.80123 0.69014,58.99681 -1.21133,70.00001 -11.109,64.28449 -36.24474,113.66745 -79.89178,156.95955 -17.64305,17.49957 -26.00259,24.34605 -44.42344,36.38293 -20.07015,13.11459 -48.62336,26.99367 -67.33089,32.72804 -2.93334,0.89915 -6.83334,2.12178 -8.66667,2.71696 -3.56899,1.15864 -16.45442,4.16854 -27.33334,6.38478 -31.37346,6.39134 -75.2932,6.39134 -106.66667,0 -10.22413,-2.08286 -23.5561,-5.21915 -28,-6.5869 -16.72797,-5.1486 -27.24588,-9.25981 -43.00703,-16.81048 -5.32053,-2.5489 -10.42274,-4.44098 -11.33825,-4.20462 -1.88915,0.48773 -33.23141,33.62438 -38.32139,40.51535 -1.83333,2.48202 -3.93333,4.46037 -4.66666,4.39633 -0.73334,-0.064 -4.48334,-3.54917 -8.33334,-7.74475 z m 218.22477,-28.77725 c 59.50148,-7.36643 111.99934,-32.82887 154.29094,-74.83401 40.92855,-40.65132 65.90332,-91.1662 73.72848,-149.12593 1.80929,-13.40114 1.85628,-48.94581 0.08,-60.55746 C 594.38363,270.12014 589.95722,255.1881 576.00233,225.85322 541.80066,153.95705 467.21983,97.342665 389.33335,84.152591 c -21.4344,-3.629915 -27.55992,-4.152588 -48.66667,-4.152588 -21.10675,0 -27.23227,0.522673 -48.66667,4.152588 -46.21724,7.826888 -95.32126,32.856939 -131.523,67.041919 -28.93576,27.32376 -50.55438,59.57174 -64.897133,96.8055 -18.439414,47.86867 -20.731076,107.23136 -6.099495,158 6.471641,22.4553 21.312448,55.81749 24.500568,55.07738 0.97306,-0.22589 22.82541,-21.02691 48.56079,-46.2245 l 46.7916,-45.8138 0.0107,-14.85286 c 0.012,-16.98743 2.75097,-39.88466 6.77722,-56.66259 17.39146,-72.47229 59.03131,-111.49821 124.8204,-116.98481 l 10.47765,-0.8738 12.66701,11.83415 c 6.96686,6.50879 16.6975,15.56363 21.62366,20.12187 4.92614,4.55822 8.93224,9.05822 8.90241,10 -0.0299,0.94176 -14.09663,16.97489 -31.25955,35.6292 -18.90325,20.54584 -30.84019,34.53507 -30.27911,35.48496 0.50942,0.86243 13.22622,14.27253 28.25955,29.80023 l 27.33334,28.23217 11.33333,-12.97106 c 6.23333,-7.1341 14.33333,-16.33433 18,-20.44495 3.66667,-4.11064 11.46667,-13.09438 17.33334,-19.96387 5.86666,-6.86949 12.16666,-14.21313 14,-16.31921 l 3.33333,-3.82923 22.33333,20.95507 22.33334,20.95506 -0.0233,8.09196 c -0.0133,4.45058 -0.8847,13.34697 -1.93756,19.76975 -10.06764,61.4162 -40.73878,101.30057 -92.02071,119.66255 -22.13816,7.92678 -61.96226,11.47794 -88.68512,7.90815 l -10,-1.33585 -4.66667,5.1511 c -2.56666,2.83312 -15.46666,16.80638 -28.66666,31.0517 -49.96906,53.92613 -50.13265,54.11464 -48.28946,55.64435 0.94905,0.78765 5.83752,3.277 10.86325,5.53189 42.33311,18.99357 91.73753,26.39372 137.9843,20.66827 z"
     style="fill:#8f8f8f;stroke-width:1.33333337" />
  <path
     inkscape:connector-curvature="0"
     id="path98"
     d="m 154.5993,619.40649 c -3.99628,-4.17643 -7.45656,-8.12323 -7.68953,-8.77068 -0.40883,-1.13623 8.50546,-10.43176 16.59282,-17.30246 2.15798,-1.83333 10.80271,-10.83229 19.21051,-19.99768 8.4078,-9.16538 18.93659,-20.56538 23.39729,-25.33333 4.46072,-4.76795 14.70234,-15.86899 22.75916,-24.66899 41.12545,-44.91895 48.43135,-52.78656 57.72443,-62.16252 l 10.0727,-10.16252 9.33333,1.08143 c 36.1474,4.18832 66.90496,2.26117 89.33334,-5.59727 7.31014,-2.56132 23.92522,-10.94909 29.33333,-14.80831 9.0233,-6.439 20.58395,-18.51556 27.21428,-28.42872 6.40828,-9.58119 15.09892,-28.62259 17.57558,-38.50851 5.13408,-20.49348 6.62765,-36.8464 3.8586,-42.24729 -1.93271,-3.76964 -13.38747,-15.83296 -15.03423,-15.83296 -1.66944,0 -5.64775,4.2506 -32.32198,34.53427 -31.77641,36.07626 -30.20777,34.43396 -33.62676,35.20582 -2.1406,0.48326 -3.77332,-0.30408 -5.69394,-2.74577 -1.48103,-1.88283 -19.63051,-20.75156 -40.33216,-41.93052 -20.70167,-21.17898 -38.15363,-39.62094 -38.78215,-40.98215 -0.63478,-1.37479 -0.63478,-3.35945 0,-4.4648 0.62852,-1.09444 13.44276,-15.32079 28.47609,-31.61412 15.03334,-16.29332 27.50915,-30.365 27.72404,-31.2704 0.2149,-0.9054 -3.9851,-5.97954 -9.33333,-11.27587 l -9.72404,-9.62968 -8.66667,0.70136 c -35.21109,2.84955 -65.75047,23.43985 -82.68991,55.75134 -14.47129,27.6036 -21.26113,57.43501 -22.13419,97.24755 l -0.48669,22.19369 -33.01127,32.502 C 97.702717,509.32227 75.185711,530.66669 71.3205,530.66669 c -1.664315,0 -12.654425,-11.45429 -12.653307,-13.18773 2.88e-4,-0.44676 8.400288,-8.80652 18.666667,-18.57725 18.288205,-17.40527 20.984907,-21.26104 17.462738,-24.96836 -1.752791,-1.84493 -12.684082,-23.84183 -16.863074,-33.93333 -8.109652,-19.58335 -12.324935,-35.64818 -18.192513,-69.33334 -2.033894,-11.67637 -2.021778,-56.88726 0.01859,-69.33334 5.65452,-34.49225 13.387619,-59.76673 26.312966,-86 14.877403,-30.19517 31.117283,-52.3952 56.134113,-76.73575 40.76465,-39.662632 83.27707,-62.081519 143.12666,-75.4777 29.96175,-6.706361 80.70493,-6.706361 110.66667,0 40.31653,9.024078 69.11651,20.714188 100.00001,40.59067 16.28604,10.48163 26.70909,18.91329 43.12665,34.88703 42.26239,41.1199 66.98112,86.5858 79.41427,146.06909 3.69964,17.69998 4.66794,28.60645 4.61662,52 -0.0516,23.54957 -0.55246,29.10983 -4.56334,50.66667 -7.92149,42.57476 -24.13404,79.28251 -50.82459,115.07484 -10.8278,14.52021 -35.54313,39.88131 -50.02633,51.33346 -26.35478,20.83921 -65.31444,41.03229 -94.40995,48.93338 -34.95071,9.49112 -52.1886,11.99166 -82.66667,11.99166 -30.47807,0 -47.71596,-2.50054 -82.66667,-11.99166 -12.55543,-3.4095 -24.40516,-8.00376 -41.53279,-16.10266 l -11.70076,-5.53276 -13.38323,14.4358 c -7.36077,7.93969 -17.01354,18.28077 -21.4506,22.98018 l -8.06738,8.54438 z m 221.51689,-27.98892 c 18.49542,-2.82326 35.61165,-6.71976 47.21716,-10.74896 39.80093,-13.81811 70.67847,-32.61386 100.04617,-60.90003 42.5193,-40.95343 68.11358,-90.83723 76.84297,-149.76857 2.22928,-15.0497 2.20037,-54.08601 -0.0499,-67.33333 -3.00881,-17.71303 -5.33732,-28.50143 -8.20668,-38.02283 C 578.07638,218.55407 551.27023,176.85778 515.03958,144.98683 504.68291,135.8764 483.68955,120 481.99948,120 c -0.33789,0 -3.776,-2.00949 -7.64024,-4.46555 -20.61125,-13.10021 -48.09928,-23.756573 -81.02589,-31.411535 -11.13162,-2.58794 -38.81807,-5.456246 -52.66667,-5.456246 -13.8486,0 -41.53506,2.868306 -52.66667,5.456246 -32.92661,7.654962 -60.41464,18.311325 -81.0259,31.411535 -3.86424,2.45606 -7.30234,4.46555 -7.64024,4.46555 -1.69006,0 -22.68342,15.8764 -33.04009,24.98683 -36.95072,32.50436 -63.98572,75.01279 -77.387389,121.67985 -7.068057,24.61228 -9.432027,41.68364 -9.508671,68.66667 -0.11948,42.06414 7.704874,75.65212 26.78971,115.00144 5.39122,11.11568 6.23788,12.19809 8.56645,10.95188 1.42118,-0.76059 17.13294,-15.63457 34.91505,-33.05332 17.78209,-17.41874 38.48108,-37.59211 45.99774,-44.82972 l 13.66667,-13.15931 0.026,-12.78881 c 0.0591,-29.0471 7.79791,-69.31143 17.96205,-93.4555 17.1371,-40.70772 46.06482,-67.63102 83.34529,-77.57022 10.7137,-2.85634 25.223,-5.04262 33.33333,-5.0227 l 8.66667,0.0213 20.66309,19.27509 c 11.3647,10.60131 20.82375,19.75708 21.02011,20.34616 0.19636,0.58908 -0.70203,2.24863 -1.99643,3.68787 -3.2265,3.58756 -30.13462,32.89315 -46.35344,50.48347 -7.33333,7.95345 -13.468,15.13243 -13.6326,15.95328 -0.1646,0.82085 12.46494,14.63543 28.06564,30.69907 l 28.36491,29.20661 11.16996,-12.53994 c 26.45653,-29.70143 46.67844,-52.91041 50.4035,-57.84883 l 2.29193,-3.03848 14.42141,13.50701 c 7.93178,7.42885 18.10966,16.86328 22.61751,20.96539 l 8.19609,7.45836 -1.67694,15.20831 c -1.48728,13.4882 -4.03028,26.58452 -8.00171,41.20829 -3.83644,14.12672 -13.28109,32.49115 -23.85996,46.39391 -19.36809,25.45357 -46.01375,41.42927 -82.35974,49.37964 -13.60024,2.97495 -40.72288,4.39153 -56.66667,2.95965 -8.43333,-0.75738 -16.62888,-1.38218 -18.21232,-1.38846 -1.7861,-0.007 -5.62537,2.89888 -10.11392,7.65526 -12.87153,13.63959 -26.98097,28.80931 -34.41389,37 -3.99292,4.4 -7.56849,8.30001 -7.94569,8.66667 -0.37722,0.36667 -7.56211,8.16667 -15.96644,17.33334 -8.40435,9.16666 -15.74573,16.86666 -16.31418,17.1111 -2.58853,1.11311 -0.57421,4.40238 4.18189,6.82876 20.50195,10.45931 48.29977,18.74871 80.11789,23.8914 12.18665,1.96971 55.52683,1.71152 69.44951,-0.41372 z"
     style="fill:#6f6f6f;stroke-width:1.33333337" />
  <path
     inkscape:connector-curvature="0"
     id="path96"
     d="m 154.16083,618.56357 c -3.38845,-3.72338 -6.16082,-7.54128 -6.16082,-8.48422 0,-1.63986 10.50262,-12.23316 14.70786,-14.83482 1.10636,-0.68448 9.15387,-9.04451 17.88335,-18.57784 8.72947,-9.53334 22.5176,-24.53292 30.64028,-33.3324 8.12268,-8.7995 17.76851,-19.2969 21.43517,-23.32755 3.66667,-4.03067 10.60945,-11.5311 15.42839,-16.6676 4.81894,-5.13652 12.01894,-12.93652 16,-17.33334 3.98106,-4.39682 11.24194,-12.19682 16.1353,-17.33333 4.89336,-5.13652 10.24876,-11.06775 11.90089,-13.18052 3.00239,-3.83951 3.00887,-3.84085 13.10299,-2.72551 14.89737,1.6461 59.5378,1.38638 68.76577,-0.40008 12.80674,-2.47928 18.39492,-3.87949 22.66667,-5.67952 2.2,-0.92704 5.5,-2.2839 7.33333,-3.01526 3.0644,-1.22247 5.6431,-2.49704 13.71798,-6.78043 1.62178,-0.86029 6.24869,-4.05067 10.28202,-7.08972 24.30589,-18.3141 38.67357,-44.35603 46.17482,-83.69344 3.09643,-16.23806 1.82973,-21.84425 -7.11977,-31.51078 -7.88783,-8.51979 -10.09344,-9.43412 -12.6978,-5.26387 -0.91595,1.46667 -2.27104,2.69074 -3.01131,2.72015 -0.74027,0.0295 -3.5968,2.8794 -6.34785,6.33333 -2.75106,3.45392 -7.43528,8.97986 -10.4094,12.27986 -2.97411,3.3 -12.21385,13.82723 -20.53273,23.39384 -16.55536,19.03845 -18.537,20.97877 -21.95888,21.50099 -1.46337,0.22332 -8.62644,-6.1043 -19.55152,-17.27119 -50.52367,-51.64192 -65.87889,-67.71254 -65.87889,-68.94814 0,-1.4206 15.47901,-19.22865 30.71992,-35.34217 4.85535,-5.13333 11.75765,-12.63333 15.33847,-16.66667 3.58081,-4.03333 8.03254,-9.04213 9.89276,-11.13065 l 3.38218,-3.79734 -11.33333,-10.53132 c -12.50004,-11.61546 -12.73935,-11.69209 -26.66667,-8.53945 -31.37167,7.10141 -49.737,18.53213 -66.85088,41.6085 -2.83201,3.81869 -5.14912,7.28061 -5.14912,7.69316 0,0.41256 -1.38916,2.98817 -3.08701,5.7236 -1.69786,2.73542 -4.48576,8.5735 -6.19535,12.9735 -1.70957,4.4 -3.84269,9.8 -4.74024,12 -6.76048,16.57063 -11.31074,46.34446 -11.31074,74.00987 v 20.90887 l -17,16.45068 c -9.35,9.04788 -31.10261,30.29116 -48.33913,47.20731 -46.09848,45.24164 -84.026868,81.51924 -89.266844,85.38163 l -4.605975,3.39505 -5.727359,-5.62097 c -3.150048,-3.09155 -5.72736,-6.29676 -5.72736,-7.12272 0,-0.82596 8.4,-9.73668 18.666667,-19.80159 10.266667,-10.06491 18.647942,-19.0142 18.625054,-19.88731 -0.02289,-0.87312 -1.539434,-3.98748 -3.370108,-6.92081 -7.104235,-11.38329 -19.074226,-38.96607 -22.663747,-52.2247 -1.058494,-3.90974 -2.900124,-10.55864 -4.092514,-14.7753 -2.948825,-10.42798 -4.214138,-17.42688 -5.845461,-32.33334 -0.762414,-6.96666 -2.005895,-14.22448 -2.763292,-16.12849 -1.692786,-4.25544 -0.906666,-33.51439 1.32202,-49.20484 C 65.071278,270.10917 71.521732,247.69156 85.376215,218.0535 97.729943,191.62593 116.32166,165.2415 138,143.37246 c 15.3349,-15.46978 19.16361,-18.84024 32.00001,-28.17009 30.65302,-22.279452 59.61834,-36.645971 92,-45.631102 17.215,-4.77675 18.73941,-5.078683 49.33333,-9.771197 13.71112,-2.10302 44.95555,-2.10302 58.66667,0 30.59392,4.692514 32.11834,4.994447 49.33334,9.771197 32.38165,8.985131 61.34697,23.35165 92,45.631102 12.8364,9.32985 16.66511,12.70031 32,28.17009 32.0351,32.31688 57.09935,74.76847 68.46559,115.96088 7.23924,26.2357 11.00471,50.42595 11.81024,75.87151 0.31928,10.08543 -0.0252,18.63736 -0.83242,20.66667 -0.7574,1.90401 -2.00088,9.16183 -2.7633,16.12849 -1.63132,14.90646 -2.89663,21.90536 -5.84545,32.33334 -1.1924,4.21666 -3.08534,11.06254 -4.20655,15.21308 -1.1212,4.15052 -2.85555,9.40052 -3.85408,11.66667 -0.99855,2.26613 -2.71928,6.52025 -3.82385,9.45358 -18.71151,49.69068 -64.24922,102.60498 -114.28351,132.79618 -13.16116,7.94157 -43.34182,22.53716 -46.60219,22.53716 -0.78871,0 -2.47585,0.54808 -3.74924,1.21796 -2.92903,1.54085 -19.4869,6.80035 -25.64858,8.14709 -28.26074,6.1769 -51.78765,9.21674 -71.33333,9.21674 -19.54568,0 -43.07259,-3.03984 -71.33334,-9.21674 -6.16168,-1.34674 -22.71954,-6.60624 -25.64857,-8.14709 -1.27339,-0.66988 -2.96053,-1.21796 -3.74924,-1.21796 -1.60141,0 -11.86419,-4.52144 -25.93552,-11.42633 l -9.33334,-4.57994 -4.66666,5.03574 c -2.56667,2.76965 -7.58559,8.32106 -11.15316,12.33646 -10.41207,11.71906 -26.38984,27.96741 -27.50168,27.96741 -0.56292,0 -3.79587,-3.0464 -7.18434,-6.76979 z m 210.50585,-25.22535 c 11.08684,-1.16061 18.30925,-2.24669 34,-5.11277 5.89967,-1.07764 23.43845,-6.1223 28.66667,-8.24535 1.46667,-0.59559 7.46667,-3.00884 13.33333,-5.3628 38.65108,-15.50851 71.8384,-39.48516 100.51435,-72.61804 20.9031,-24.15196 33.4677,-45.61424 46.83368,-79.99925 3.81363,-9.81086 7.06511,-21.57822 9.76306,-35.33333 4.44656,-22.67012 4.88892,-27.16328 4.88892,-49.65851 0,-22.6328 -1.78891,-38.51147 -6.72304,-59.67483 -0.76938,-3.3 -1.89212,-8.1 -2.49498,-10.66666 -1.53776,-6.54704 -6.84448,-20.9802 -11.76562,-32.00001 -14.24103,-31.88958 -32.1398,-57.24681 -57.9131,-82.04558 -12.50957,-12.03658 -34.38753,-29.95442 -36.5748,-29.95442 -0.48216,0 -3.70813,-2.03421 -7.16883,-4.52048 -12.36876,-8.88606 -51.45156,-26.258127 -68.02631,-30.237272 -15.50698,-3.722806 -19.60914,-4.562962 -38.74693,-7.935713 -9.60207,-1.692222 -55.57074,-1.692222 -65.1728,0 -13.85302,2.441387 -23.40116,4.286803 -28.4136,5.491629 -2.75,0.661009 -7.25,1.733418 -10,2.383129 -16.66482,3.937208 -55.82763,21.294877 -68.35965,30.298227 -3.46069,2.48627 -6.68666,4.52048 -7.16882,4.52048 -2.18727,0 -24.06523,17.91784 -36.5748,29.95442 -42.75412,41.13752 -66.910083,87.76491 -76.870071,148.37951 -2.402955,14.62393 -2.743802,55.54681 -0.562922,67.58581 5.061183,27.93903 8.242569,40.81162 13.200866,53.4136 0.577066,1.46667 2.2928,5.84663 3.812744,9.73326 6.483463,16.57873 14.179003,30.94135 16.397363,30.60325 1.21442,-0.18508 21.01443,-18.62852 44,-40.98544 22.98558,-22.35691 44.34195,-43.12796 47.45862,-46.15789 l 5.66666,-5.50896 v -15.10624 c 0,-19.94423 2.7998,-42.45883 7.45027,-59.91131 1.07473,-4.03334 2.59657,-9.73334 3.38185,-12.66667 0.78528,-2.93333 1.96931,-6.37519 2.63116,-7.64857 0.66187,-1.27339 1.20339,-2.95088 1.20339,-3.72778 0,-3.19065 12.87166,-27.55758 19.24262,-36.4276 9.33953,-13.00303 12.06152,-15.98105 22.09072,-24.16852 18.28062,-14.92365 38.00513,-23.18667 65.02474,-27.24025 15.56306,-2.33483 18.67139,-1.98576 24.13257,2.7101 12.91632,11.10627 37.50749,34.90224 37.49292,36.28052 -0.009,0.85548 -3.13367,4.85543 -6.94364,8.88876 -13.22523,14.00059 -47.54972,51.25475 -52.62699,57.11883 l -2.92042,3.37296 21.14943,22.08744 c 11.63219,12.1481 24.79743,25.66971 29.25611,30.04805 8.02081,7.87628 8.13315,7.93277 10.60625,5.33333 6.2047,-6.52164 36.62006,-41.23775 46.6917,-53.29394 6.12621,-7.33333 11.92415,-14.17276 12.88429,-15.19872 1.47164,-1.57252 5.05643,1.23634 22.83272,17.8905 11.59784,10.86573 21.44832,20.40514 21.88996,21.19872 1.29806,2.33244 -1.9844,30.01367 -5.3096,44.77617 -3.35605,14.89958 -11.97049,35.86054 -20.00078,48.66667 -4.01155,6.39733 -15.20211,19.8848 -20.7962,25.06471 -13.94588,12.91335 -36.73582,25.42345 -54.69639,30.02455 -2.93334,0.75146 -7.84006,2.0249 -10.90384,2.82989 -11.12632,2.92336 -34.46788,4.30915 -57.78198,3.43053 l -23.35249,-0.88008 -6.56618,7.09854 c -3.6114,3.9042 -10.80308,11.59853 -15.98149,17.09853 -5.17843,5.5 -14.81503,15.97575 -21.41468,23.27943 -6.59964,7.30369 -15.67409,17.20369 -20.16547,22 -19.04512,20.33823 -19.16748,20.50396 -16.94957,22.95803 1.11216,1.2306 8.11817,4.73794 15.5689,7.79412 19.63583,8.05428 19.3123,7.9417 35.54679,12.36901 28.20952,7.69303 62.89729,10.58108 91.33334,7.60428 z"
     style="fill:#4d4d4d;stroke-width:1.33333337" />
  <path
     inkscape:connector-curvature="0"
     id="path94"
     d="m 154.05155,617.38569 -6.51489,-6.61435 17.25507,-17.05232 c 9.49029,-9.37879 22.04454,-22.42713 27.89834,-28.99632 5.8538,-6.5692 14.933,-16.4692 20.17602,-22 5.24301,-5.53081 11.84301,-12.69908 14.66666,-15.92948 5.84227,-6.68387 9.17067,-10.30167 21.62287,-23.50299 4.86442,-5.15705 13.45786,-14.45705 19.09655,-20.66667 5.63868,-6.20961 14.34064,-15.61593 19.33769,-20.9029 l 9.08554,-9.6127 9.32897,1.60463 c 14.48911,2.49219 57.78184,1.93927 69.99564,-0.89397 5.5,-1.27584 11.95556,-2.64826 14.3457,-3.0498 2.39013,-0.40156 4.67553,-1.26382 5.07869,-1.91612 0.40315,-0.65231 1.77615,-1.18602 3.05111,-1.18602 5.83856,0 29.25246,-14.49977 40.66852,-25.1852 5.83968,-5.46596 15.52265,-17.99876 15.52265,-20.0912 0,-0.76465 0.48802,-1.39027 1.08447,-1.39027 0.59647,0 1.91979,-2.12888 2.94072,-4.73084 1.02092,-2.60196 2.63291,-5.37542 3.58219,-6.16326 0.94928,-0.78783 1.72596,-2.85895 1.72596,-4.60248 0,-1.74355 0.6,-3.17008 1.33333,-3.17008 0.73333,0 1.33333,-1.3665 1.33333,-3.03666 0,-1.67017 0.81764,-4.22017 1.81699,-5.66666 0.99933,-1.44651 2.22205,-4.73002 2.71713,-7.29668 0.4951,-2.56667 1.56888,-7.66667 2.3862,-11.33334 0.81731,-3.66666 1.5446,-12.21165 1.61619,-18.98884 l 0.13013,-12.32219 -9.07004,-9.01114 -9.07004,-9.01116 -2.47701,3 c -1.36236,1.65 -3.13084,3 -3.92996,3 -0.79912,0 -1.45815,0.45 -1.46451,1 -0.007,0.55 -1.97149,3.1 -4.36696,5.66666 -2.39546,2.56667 -5.7303,6.4485 -7.41076,8.62627 -1.68044,2.17779 -7.66532,9.01735 -13.29971,15.19902 -5.63438,6.18168 -11.09062,12.49985 -12.12496,14.0404 -3.60772,5.37334 -19.98074,21.06942 -21.4628,20.5754 -1.74288,-0.58096 -83.98989,-85.15355 -83.98989,-86.36478 0,-0.44844 1.88466,-2.89907 4.18814,-5.44583 8.18203,-9.04616 32.56679,-35.41905 40.03318,-43.29714 11.43885,-12.06961 14.43975,-15.80362 14.46596,-18.00001 0.0133,-1.1 -4.63613,-6.35678 -10.33171,-11.68174 l -10.35557,-9.68175 -8.66667,0.54741 c -12.49233,0.78906 -20.02917,2.55264 -31.33333,7.33187 -7.48811,3.16585 -11.03608,5.03439 -14.79252,7.79045 -2.26923,1.6649 -4.51466,3.0271 -4.98986,3.0271 -0.82272,0 -3.6667,2.25884 -9.55096,7.58586 -6.13725,5.55607 -16.41576,18.22297 -20.15716,24.84105 -2.05877,3.6417 -9.56161,19.12214 -11.42508,23.57309 -0.76754,1.83333 -1.92554,4.37519 -2.57332,5.64857 -0.64777,1.27339 -1.19904,3.67339 -1.22502,5.33334 -0.026,1.65994 -0.90472,4.51809 -1.95275,6.35142 -1.04803,1.83334 -1.92678,5.24792 -1.95275,7.58798 -0.026,2.34005 -0.64725,4.62546 -1.38059,5.07869 -0.73333,0.45323 -1.33333,3.82808 -1.33333,7.49968 0,3.6716 -0.60396,7.80415 -1.34213,9.18344 -0.73818,1.37929 -1.48818,14.31071 -1.66667,28.73647 l -0.32453,26.22867 -43.16683,42.17586 C 108.08914,496.7605 88.470688,515.59054 74.922441,527.23743 l -2.990414,2.57074 -5.299346,-5.17467 c -2.91464,-2.84607 -5.299346,-5.82962 -5.299346,-6.6301 0,-0.80046 8.400001,-9.75938 18.666668,-19.90869 C 90.26667,487.9454 98.66667,479.101 98.66667,478.44047 c 0,-0.66052 -1.05,-2.80336 -2.333333,-4.76187 -4.22452,-6.44709 -11.001406,-19.6438 -14.556102,-28.34525 -1.048528,-2.56667 -2.477348,-5.70852 -3.175156,-6.98191 -0.697808,-1.27338 -1.268743,-3.48797 -1.268743,-4.9213 0,-1.43335 -0.6,-2.9769 -1.333333,-3.43012 -0.733334,-0.45323 -1.352416,-2.13865 -1.375738,-3.74537 -0.02332,-1.60672 -0.923322,-4.08598 -2,-5.50948 -1.076678,-1.42349 -1.957596,-4.23808 -1.957596,-6.25464 0,-2.01656 -0.6,-4.03729 -1.333333,-4.49052 -0.733334,-0.45322 -1.333334,-3.15322 -1.333334,-6 0,-2.84677 -0.6,-5.54677 -1.333333,-6 -0.733333,-0.45322 -1.333333,-2.8132 -1.333333,-5.24438 0,-2.43119 -0.9,-6.97122 -2,-10.08895 -1.1,-3.11773 -2.000001,-9.64713 -2.000001,-14.50977 0,-4.86264 -0.620565,-10.9372 -1.379034,-13.49903 -2.681062,-9.05563 -3.031688,-24.16724 -0.76221,-32.85032 1.177684,-4.50586 2.141244,-12.08043 2.141244,-16.83238 0,-4.75194 0.900001,-11.19077 2.000001,-14.3085 1.1,-3.11774 2,-7.95776 2,-10.75562 0,-2.79785 0.6,-5.45782 1.333333,-5.91105 0.733333,-0.45323 1.333333,-2.89677 1.333333,-5.43012 0,-2.53333 0.519574,-5.64792 1.154608,-6.92131 1.876091,-3.76197 4.433899,-11.37422 5.151583,-15.33156 0.367363,-2.02564 1.198754,-4.01105 1.847538,-4.41202 0.648782,-0.40096 1.179605,-1.83826 1.179605,-3.19396 0,-1.35571 1.424701,-5.37031 3.166004,-8.92131 1.741302,-3.55102 5.051939,-10.35639 7.356971,-15.12306 2.305032,-4.76666 5.676254,-11.06666 7.491604,-14 1.81535,-2.93333 3.697367,-6.23333 4.182258,-7.33333 1.191257,-2.70243 11.532617,-17.52359 19.030357,-27.27417 C 131.20727,149.61246 171.16247,112 175.98685,112 c 0.74057,0 1.34649,-0.6 1.34649,-1.33333 0,-0.73333 0.9,-1.33333 2,-1.33333 1.1,0 2,-0.50369 2,-1.11932 0,-0.61562 1.35,-1.80215 3,-2.63673 1.65,-0.83458 5.4,-3.02027 8.33333,-4.85709 2.93334,-1.836815 7.58334,-4.391825 10.33334,-5.677798 2.75,-1.285972 5,-2.796592 5,-3.356932 0,-0.56034 1.12653,-1.0188 2.50341,-1.0188 1.37687,0 3.25033,-0.9 4.16325,-2 0.91292,-1.1 2.78639,-2 4.16326,-2 1.37688,0 2.50341,-0.6 2.50341,-1.333334 0,-0.733333 0.80781,-1.333333 1.79515,-1.333333 1.67222,0 7.81389,-2.523916 13.18676,-5.419095 1.27338,-0.686165 3.48797,-1.247572 4.92131,-1.247572 1.43334,0 2.97689,-0.6 3.43012,-1.333333 0.45322,-0.733334 1.92005,-1.333334 3.25961,-1.333334 1.33956,0 4.15415,-0.896304 6.25464,-1.991785 2.10049,-1.095483 5.13367,-1.995483 6.74039,-2 1.60672,-0.0045 3.29213,-0.608215 3.74536,-1.341548 0.45322,-0.733334 3.15322,-1.333334 6,-1.333334 2.84677,0 5.54677,-0.6 6,-1.333333 0.45322,-0.733333 3.1132,-1.333333 5.91105,-1.333333 2.79785,0 7.63788,-0.9 10.75561,-2 3.11774,-1.1 9.15403,-2.000001 13.41399,-2.000001 4.25995,0 13.57045,-0.984141 20.69,-2.18698 12.00242,-2.027797 13.92547,-2.027484 26.42032,0.0043 7.41163,1.205207 16.85026,2.189348 20.97472,2.18698 4.12447,-0.0023 10.04991,0.895734 13.16764,1.995734 3.11774,1.1 7.95776,2 10.75562,2 2.79785,0 5.45782,0.6 5.91105,1.333333 0.45323,0.733333 3.15323,1.333333 6,1.333333 2.84677,0 5.54677,0.6 6,1.333334 0.45323,0.733333 2.13864,1.337029 3.74536,1.341548 1.60672,0.0045 4.63989,0.904517 6.74039,2 2.10049,1.095481 4.91508,1.991785 6.25464,1.991785 1.33956,0 2.80639,0.6 3.25961,1.333334 0.45323,0.733333 1.89646,1.333333 3.20718,1.333333 2.176,0 7.88888,2.247491 13.77473,5.419095 1.27339,0.686165 3.22339,1.247572 4.33333,1.247572 1.10995,0 2.0181,0.6 2.0181,1.333333 0,0.733334 1.12653,1.333334 2.50341,1.333334 1.37687,0 3.25033,0.9 4.16325,2 0.91292,1.1 2.78639,2 4.16326,2 1.37688,0 2.50341,0.45846 2.50341,1.0188 0,0.56034 2.25,2.07096 5,3.356932 2.75,1.285973 7.4,3.840983 10.33333,5.677795 2.93334,1.83682 6.68334,4.02251 8.33334,4.85709 1.65,0.83458 3,2.02111 3,2.63673 0,0.61563 0.9,1.11932 2,1.11932 1.1,0 2,0.6 2,1.33333 0,0.73333 0.60592,1.33333 1.34649,1.33333 4.82437,0 44.77958,37.61246 57.42631,54.05917 7.49775,9.75058 17.83911,24.57174 19.03036,27.27417 0.48489,1.1 2.35075,4.4 4.14633,7.33333 1.79559,2.93334 5.16063,9.23334 7.47787,14 2.31723,4.76667 5.64404,11.57204 7.39289,15.12306 1.74887,3.551 3.17975,7.5656 3.17975,8.92131 0,1.3557 0.53083,2.793 1.1796,3.19396 0.64879,0.40097 1.48019,2.38638 1.84755,4.41202 0.71768,3.95734 3.27549,11.56959 5.15157,15.33156 0.63504,1.27339 1.15461,4.38798 1.15461,6.92131 0,2.53335 0.6,4.97689 1.33334,5.43012 0.73333,0.45323 1.33333,3.20791 1.33333,6.12152 0,2.9136 0.9,7.45147 2,10.08413 1.12991,2.70424 2,8.83758 2,14.09806 0,5.12125 0.96356,12.99798 2.14124,17.50384 2.26948,8.68308 1.91886,23.79469 -0.7622,32.85032 -0.75848,2.56183 -1.37904,8.63639 -1.37904,13.49903 0,4.86264 -0.9,11.39204 -2,14.50977 -1.1,3.11773 -2,7.65776 -2,10.08895 0,2.43118 -0.6,4.79116 -1.33333,5.24438 -0.73334,0.45323 -1.33334,3.15323 -1.33334,6 0,2.84678 -0.6,5.54678 -1.33333,6 -0.73333,0.45323 -1.33333,2.47396 -1.33333,4.49052 0,2.01656 -0.88092,4.83115 -1.9576,6.25464 -1.07667,1.4235 -1.97667,3.90276 -2,5.50948 -0.0233,1.60672 -0.6424,3.29214 -1.37574,3.74537 -0.73333,0.45322 -1.33333,1.99677 -1.33333,3.43012 0,1.43333 -0.57093,3.64792 -1.26875,4.9213 -0.6978,1.27339 -2.1978,4.56524 -3.33333,7.31524 -7.30611,17.69386 -24.2118,46.07983 -35.86219,60.21539 -31.24544,37.91051 -64.12347,63.39167 -106.86907,82.82575 -4.4,2.00043 -9.2,4.07637 -10.66666,4.6132 -1.46667,0.53683 -4.93703,1.95921 -7.71191,3.16085 -2.77488,1.20166 -6.18947,2.18482 -7.58797,2.18482 -1.39851,0 -2.87259,0.5337 -3.27574,1.18601 -0.40316,0.65231 -2.68856,1.49417 -5.07869,1.87081 -5.555,0.87536 -15.56735,3.50183 -19.01236,4.98738 -1.46667,0.63244 -5.66667,1.48958 -9.33334,1.90474 -58.19332,6.58908 -48.47334,6.58908 -106.66667,0 -3.66666,-0.41516 -7.86666,-1.2723 -9.33333,-1.90474 -3.44501,-1.48555 -13.45736,-4.11202 -19.01236,-4.98738 -2.39013,-0.37664 -4.67553,-1.2185 -5.07869,-1.87081 -0.40315,-0.65231 -1.87723,-1.18601 -3.27574,-1.18601 -1.3985,0 -4.81309,-0.98316 -7.58797,-2.18482 -2.77488,-1.20164 -6.24524,-2.62402 -7.71191,-3.16085 -3.27885,-1.20012 -16.85817,-7.35588 -23.79267,-10.78568 -6.6864,-3.30709 -8.15546,-3.20272 -11.30658,0.80327 -2.22431,2.82774 -17.2666,19.30445 -33.05819,36.21056 -2.28659,2.44797 -4.70915,4.45085 -5.38345,4.45085 -0.67431,0 -4.15772,-2.97645 -7.7409,-6.61433 z m 222.52046,-23.97458 c 4.51212,-1.38356 17.12523,-3.84661 25.428,-4.9655 2.93334,-0.3953 5.90334,-1.25727 6.6,-1.9155 0.69667,-0.65821 2.48394,-1.19676 3.97172,-1.19676 2.65964,0 19.2095,-5.63394 23.74353,-8.08284 1.27338,-0.68777 2.95965,-1.25049 3.74728,-1.25049 0.78761,0 6.64576,-2.58953 13.01809,-5.75451 32.39736,-16.09098 51.70984,-29.7724 75.63106,-53.57883 15.21766,-15.14462 23.72165,-25.75744 34.72277,-43.33333 3.44257,-5.5 7.37815,-11.62571 8.74572,-13.61268 1.36757,-1.98697 2.48651,-4.53697 2.48651,-5.66667 0,-1.12969 0.6,-2.05398 1.33333,-2.05398 0.73333,0 1.33333,-0.74139 1.33333,-1.64754 0,-0.90613 1.57762,-4.95613 3.50582,-9 1.9282,-4.04385 4.08369,-8.85246 4.79,-10.6858 0.7063,-1.83333 2.12869,-5.03196 3.16085,-7.10805 1.03217,-2.0761 1.87667,-4.89068 1.87667,-6.25464 0,-1.36396 0.5337,-2.80978 1.18601,-3.21292 0.65231,-0.40316 1.52123,-2.68856 1.93092,-5.0787 0.91653,-5.347 4.13593,-18.2972 5.22365,-21.01236 2.95252,-7.37009 3.91106,-78.29235 1.27946,-94.66667 -1.98142,-12.32862 -3.99676,-20.96686 -5.58334,-23.9314 -0.75352,-1.40797 -1.37004,-4.06398 -1.37004,-5.90225 0,-1.83827 -0.6,-3.71312 -1.33333,-4.16635 -0.73333,-0.45322 -1.33333,-1.99157 -1.33333,-3.41856 0,-1.42698 -1.5,-5.70386 -3.33334,-9.50418 -1.83333,-3.80031 -3.33333,-7.65395 -3.33333,-8.56362 0,-0.90968 -3.09191,-7.54739 -6.87091,-14.75047 -3.779,-7.20308 -7.529,-14.44182 -8.33333,-16.0861 -0.80433,-1.64428 -1.91243,-2.99428 -2.46243,-3 -0.55,-0.005 -1,-0.60754 -1,-1.33736 0,-0.72983 -4.61456,-7.77983 -10.25457,-15.66667 -11.18497,-15.64075 -38.76387,-44.2569 -51.74543,-53.69158 -4.4,-3.19782 -8.2,-6.30184 -8.44444,-6.89784 -0.24445,-0.59599 -1.24445,-1.08362 -2.22223,-1.08362 -0.97777,0 -1.97777,-0.45277 -2.22222,-1.00616 -1.22456,-2.77221 -33.74174,-21.01877 -45.77778,-25.68755 -6.32745,-2.45442 -13.50418,-5.529101 -15.64857,-6.704217 -1.27339,-0.697808 -3.78798,-1.268743 -5.58798,-1.268743 -1.80001,0 -3.64356,-0.6 -4.09678,-1.333334 -0.45323,-0.733333 -2.32808,-1.333333 -4.16635,-1.333333 -1.83827,0 -4.49428,-0.61652 -5.90225,-1.370044 -2.96312,-1.585817 -11.59507,-3.600152 -23.9314,-5.584584 -11.2433,-1.808606 -78.09005,-1.808606 -89.33334,0 -12.33633,1.984432 -20.96828,3.998767 -23.9314,5.584584 -1.40797,0.753524 -3.80755,1.370044 -5.33237,1.370044 -1.52483,0 -3.81427,0.526347 -5.08766,1.169659 -1.27338,0.643313 -4.71524,1.912369 -7.64857,2.820125 -2.93333,0.907756 -7.43333,2.542586 -10,3.632955 -2.56667,1.090368 -5.86667,2.447967 -7.33334,3.016888 -12.03604,4.66878 -44.55321,22.91534 -45.77777,25.68755 -0.24445,0.55339 -1.24445,1.00616 -2.22223,1.00616 -0.97777,0 -1.97777,0.48763 -2.22222,1.08362 -0.24444,0.596 -4.04444,3.70002 -8.44444,6.89784 -12.98156,9.43468 -40.56046,38.05083 -51.74543,53.69158 C 120.61456,194.89322 116,201.94322 116,202.67305 c 0,0.72982 -0.45,1.33164 -1,1.33736 -0.55,0.005 -1.65809,1.35572 -2.46242,3 -0.80433,1.64428 -4.55433,8.88302 -8.33333,16.0861 -3.779,7.20308 -6.870913,13.96123 -6.870913,15.0181 0,1.93535 -0.471048,3.06741 -4.47628,10.75779 -1.204712,2.31314 -2.190387,5.42774 -2.190387,6.92132 0,1.49357 -0.6,3.0864 -1.333334,3.53962 -0.733333,0.45323 -1.333333,2.32808 -1.333333,4.16635 0,1.83827 -0.61652,4.49428 -1.370044,5.90225 -1.586576,2.96454 -3.601923,11.60278 -5.583325,23.9314 -2.631609,16.37432 -1.673073,87.29658 1.27945,94.66667 1.087715,2.71516 4.307126,15.66536 5.223656,21.01236 0.409694,2.39014 1.278604,4.67554 1.930914,5.0787 0.652309,0.40314 1.186016,1.84896 1.186016,3.21292 0,1.36396 0.844499,4.17854 1.876664,6.25464 1.032164,2.07609 2.454549,5.27472 3.160855,7.10805 0.706306,1.83334 2.861808,6.64195 4.790001,10.6858 1.9282,4.04387 3.50581,8.09387 3.50581,9 0,0.90615 0.6,1.64754 1.33334,1.64754 0.73333,0 1.33333,0.85137 1.33333,1.89194 0,2.89524 4.46287,10.09012 6.26464,10.09963 1.98007,0.0107 0.0631,1.80379 47.23023,-44.18342 21.54449,-21.0055 41.68149,-40.5055 44.74889,-43.33333 l 5.5771,-5.14149 0.70084,-16.66667 c 0.92356,-21.96306 2.64008,-40.24532 3.98174,-42.40863 0.99486,-1.60412 2.55732,-9.42609 4.38122,-21.93307 0.4017,-2.7546 1.26698,-5.34 1.92285,-5.74534 0.65587,-0.40536 1.19249,-2.08692 1.19249,-3.73682 0,-1.64989 0.88092,-4.16448 1.9576,-5.58797 1.07667,-1.42349 1.97667,-3.64632 2,-4.9396 0.0233,-1.29328 0.59196,-3.39328 1.26364,-4.66667 0.6717,-1.27338 2.20795,-4.41524 3.41391,-6.9819 3.69695,-7.86827 10.11591,-19.2166 12.12555,-21.43723 1.04828,-1.15835 1.90597,-2.50428 1.90597,-2.99095 0,-4.49068 32.38727,-34.23849 37.2764,-34.23849 0.76466,0 1.39027,-0.6 1.39027,-1.33334 0,-0.73333 0.86825,-1.33333 1.92945,-1.33333 1.06119,0 4.75056,-1.5 8.19858,-3.33333 3.44802,-1.83334 7.34437,-3.33334 8.65853,-3.33334 1.31417,0 2.76021,-0.6 3.21344,-1.33333 0.45323,-0.73333 2.76864,-1.33333 5.14536,-1.33333 2.37672,0 4.89131,-0.54842 5.58797,-1.21868 0.69667,-0.67028 6.78179,-1.87831 13.52251,-2.68451 6.74071,-0.8062 13.94071,-1.77627 16,-2.15571 2.82043,-0.51968 4.77486,0.22487 7.92186,3.01784 2.29772,2.03924 5.6813,4.90772 7.51906,6.37439 8.06926,6.43985 30.29995,28.6552 30.2676,30.24671 -0.0356,1.7506 -3.67906,6.0332 -19.11384,22.46671 -4.50112,4.79237 -13.58306,14.69237 -20.1821,22 -6.59904,7.30762 -12.29904,13.59905 -12.66667,13.98094 -0.36763,0.38191 -2.718,2.91322 -5.22305,5.62515 l -4.55463,4.93076 6.4962,7.04153 c 3.57291,3.87284 16.92332,17.7957 29.66757,30.93966 l 23.17138,23.89812 4.14133,-4.56479 c 9.44905,-10.41522 15.32147,-17.06523 21.48445,-24.32931 3.5851,-4.22558 8.20472,-9.48817 10.26586,-11.69461 2.06113,-2.20645 5.72788,-6.4348 8.14833,-9.39633 2.42044,-2.96152 5.5178,-6.68058 6.88302,-8.26456 2.44713,-2.8393 11.78681,-14.40911 12.4139,-15.3781 0.1773,-0.27397 10.00419,8.72603 21.83752,20 l 21.51518,20.49812 -0.85883,8.66667 c -0.47236,4.76667 -1.14015,11.96667 -1.48399,16 -0.5558,6.51984 -1.67785,11.37643 -6.02885,26.09467 -0.66576,2.25207 -1.21047,5.1102 -1.21047,6.35143 0,1.24121 -0.51172,3.29861 -1.13714,4.572 -0.62544,1.27338 -2.04132,4.41524 -3.14642,6.9819 -4.29208,9.96874 -5.78433,12.90452 -10.00969,19.69256 -2.40537,3.86424 -4.37341,7.38098 -4.37341,7.81496 0,2.69008 -18.13619,21.95435 -26.66667,28.32534 -2.56667,1.91692 -4.96667,3.83391 -5.33333,4.25997 -0.36667,0.42607 -2.76667,1.92948 -5.33334,3.34092 -2.56667,1.41144 -4.96667,2.86626 -5.33333,3.23292 -0.36667,0.36667 -3.06667,1.78319 -6,3.14783 -2.93334,1.36463 -6.37519,3.01463 -7.64858,3.66667 -1.27338,0.65202 -3.52338,1.1855 -5,1.1855 -1.47661,0 -2.68476,0.46359 -2.68476,1.03019 0,1.18913 -10.1977,4.13887 -18,5.20657 -2.93333,0.40143 -6.14248,1.38492 -7.13142,2.18555 -1.19943,0.97103 -14.20672,1.47601 -39.06667,1.51669 l -37.26858,0.061 -6.70161,7.33334 c -3.68588,4.03333 -12.60501,13.63333 -19.82028,21.33333 -7.21527,7.7 -15.41955,16.66355 -18.23172,19.919 -2.81219,3.25546 -9.65055,10.75546 -15.19636,16.66667 -22.89168,24.39992 -23.20734,24.79373 -21.7391,27.12136 1.92364,3.04961 6.45398,5.3974 23.82241,12.34568 10.67696,4.27135 21.82186,7.94729 24.09494,7.94729 1.48779,0 3.27506,0.53855 3.97172,1.19676 0.69667,0.65823 3.66667,1.5202 6.6,1.9155 8.30656,1.1194 20.99068,3.60124 24.66667,4.82642 4.65495,1.55146 67.57272,1.67204 72.572,0.13908 z"
     style="fill:#353535;stroke-width:1.33333337" />
</svg>
