<?xml version="1.0" encoding="UTF-8" standalone="no"?>
<!-- Created with Inkscape (http://www.inkscape.org/) -->

<svg
   xmlns:dc="http://purl.org/dc/elements/1.1/"
   xmlns:cc="http://creativecommons.org/ns#"
   xmlns:rdf="http://www.w3.org/1999/02/22-rdf-syntax-ns#"
   xmlns:svg="http://www.w3.org/2000/svg"
   xmlns="http://www.w3.org/2000/svg"
   xmlns:xlink="http://www.w3.org/1999/xlink"
   xmlns:sodipodi="http://sodipodi.sourceforge.net/DTD/sodipodi-0.dtd"
   xmlns:inkscape="http://www.inkscape.org/namespaces/inkscape"
   version="1.1"
   id="svg18"
   width="666.66669"
   height="666.66669"
   viewBox="0 0 666.66669 666.66669"
   sodipodi:docname="logout.svg"
   inkscape:version="0.92.3 (2405546, 2018-03-11)">
  <metadata
     id="metadata24">
    <rdf:RDF>
      <cc:Work
         rdf:about="">
        <dc:format>image/svg+xml</dc:format>
        <dc:type
           rdf:resource="http://purl.org/dc/dcmitype/StillImage" />
        <dc:title></dc:title>
      </cc:Work>
    </rdf:RDF>
  </metadata>
  <defs
     id="defs22" />
  <sodipodi:namedview
     pagecolor="#ffffff"
     bordercolor="#666666"
     borderopacity="1"
     objecttolerance="10"
     gridtolerance="10"
     guidetolerance="10"
     inkscape:pageopacity="0"
     inkscape:pageshadow="2"
     inkscape:window-width="1366"
     inkscape:window-height="705"
     id="namedview20"
     showgrid="false"
     inkscape:zoom="0.80399998"
     inkscape:cx="333.33334"
     inkscape:cy="332.2015"
     inkscape:window-x="-8"
     inkscape:window-y="-8"
     inkscape:window-maximized="1"
     inkscape:current-layer="svg18" />
  <image
     sodipodi:absref="E:\Project-website\tanyabudi\public\assets\images\icon\logout.png"
     xlink:href="logout.png"
     y="0"
     x="0"
     id="image26"
     preserveAspectRatio="none"
     height="666.66669"
     width="666.66669" />
  <path
     inkscape:connector-curvature="0"
     id="path42"
     d="m 194.99141,507.00002 0.34193,-98.33334 h 8 8 l 0.34265,90.33334 0.34266,90.33333 134.32402,-0.10173 134.32401,-0.10173 -45.33333,-9.27736 c -24.93334,-5.10255 -53.73334,-10.91563 -64,-12.91795 l -18.66667,-3.6406 v -222.6125 -222.6125 l 25.33333,-4.96389 c 13.93334,-2.73022 44.23334,-8.85042 67.33334,-13.600523 l 42,-8.636552 L 349.66668,90.767343 212.00001,90.66667 v 90.66667 90.66667 h -8.66667 -8.66667 V 173.33334 74.666669 H 365.33335 536.00002 V 340.00001 605.33335 H 365.32475 194.64947 Z M 390.56996,371.70433 c 1.88885,-5.41834 1.89728,-57.96608 0.0107,-63.37944 -2.78847,-7.99897 -13.58647,-8.49264 -17.09978,-0.78179 -2.05112,4.50174 -2.01182,60.49834 0.0456,65.01395 3.27764,7.19363 14.43356,6.6355 17.04396,-0.85272 z M 240.918,404.27772 c -1.23823,-1.36823 -2.25132,-3.04607 -2.25132,-3.72853 0,-0.68247 12.00586,-13.23522 26.6797,-27.89502 L 292.0261,346.00001 217.01305,345.33335 142,344.66668 l -0.4401,-3.85532 c -0.24996,-2.18977 0.32605,-4.34103 1.33333,-4.97959 0.9754,-0.61834 35.06782,-1.13345 75.76094,-1.14468 l 73.98751,-0.0204 -26.32084,-26.34554 c -18.28704,-18.3042 -26.32083,-27.24317 -26.32083,-29.28642 0,-3.77576 4.41375,-6.28735 7.83315,-4.45734 4.54985,2.435 62.83352,63.09967 62.83352,65.40039 0,2.35042 -62.79678,65.73379 -65.79038,66.40494 -0.93884,0.21049 -2.72008,-0.73676 -3.9583,-2.10499 z"
     style="fill:#dadada;stroke-width:1.33333337" />
  <path
     inkscape:connector-curvature="0"
     id="path40"
     d="m 194.66667,507.33335 v -98 h 8 8 v 90 90 l 136.33334,-0.0677 136.33334,-0.0677 -58,-11.76692 c -31.9,-6.47182 -61.45,-12.48386 -65.66667,-13.36011 l -7.66667,-1.59324 V 340.57215 c 0,-122.04801 0.20906,-221.90548 0.46458,-221.90548 0.40306,0 116.38885,-23.569497 130.86876,-26.593869 3.00073,-0.626754 -55.45999,-1.17785 -133.66667,-1.260043 L 210.66667,90.66667 v 90.66667 90.66667 h -8 -8 V 173.33334 74.666669 H 365.33335 536.00002 V 340.00001 605.33335 H 365.33335 194.66667 Z M 389.66668,374.46211 c 2.07949,-2.45754 2.33333,-6.20663 2.33333,-34.4621 0,-28.99027 -0.21358,-31.96835 -2.49488,-34.78563 -1.80568,-2.22992 -3.87893,-3.08104 -7.50512,-3.08104 -3.62618,0 -5.69944,0.85112 -7.50512,3.08104 -2.27913,2.81462 -2.49488,5.78546 -2.49488,34.35434 0,19.57835 0.53122,32.26584 1.4205,33.92749 3.0093,5.62294 11.86025,6.14916 16.24617,0.9659 z M 240.8889,404.44445 c -3.14404,-3.14404 0.52034,-7.87789 25.12448,-32.45726 l 26.01338,-25.98718 -74.20177,-0.66666 c -68.79417,-0.61808 -74.30901,-0.83671 -75.67323,-3 -1.07306,-1.7016 -1.07302,-2.96507 1.8e-4,-4.66667 1.36851,-2.16983 6.67853,-2.35748 75.77904,-2.67792 l 74.30742,-0.34457 -26.1192,-26.82582 c -14.36555,-14.7542 -26.11919,-27.52913 -26.11919,-28.38875 0,-2.21294 2.82527,-4.76294 5.27708,-4.76294 2.6506,0 65.38959,62.68503 65.38959,65.33333 0,1.08878 -14.24531,16.23418 -31.65626,33.65646 -30.0507,30.07029 -34.91261,33.9969 -38.12152,30.78798 z"
     style="fill:#afafaf;stroke-width:1.33333337" />
  <path
     inkscape:connector-curvature="0"
     id="path38"
     d="m 194.66667,507.33335 v -98 h 8 8 v 90 90 l 137.00001,-0.072 137,-0.072 -65.32075,-13.26138 c -35.9264,-7.29367 -65.7764,-13.26128 -66.33333,-13.26128 -1.51699,0 -1.27049,-442.34991 0.24701,-443.28778 0.69278,-0.42816 32.04278,-7.03364 69.66667,-14.67884 L 491.33335,90.799702 351.00001,90.733186 210.66667,90.66667 v 90.66667 90.66667 h -8 -8 V 173.33334 74.666669 H 365.33335 536.00002 V 340.00001 605.33335 H 365.33335 194.66667 Z m 194.06061,-131.9394 3.27273,-3.27272 V 340.00001 307.8788 l -3.27273,-3.27272 c -1.8,-1.8 -4.82727,-3.27274 -6.72727,-3.27274 -1.9,0 -4.92726,1.47274 -6.72726,3.27274 l -3.27274,3.27272 v 32.12121 32.12122 l 3.27274,3.27272 c 1.8,1.8 4.82726,3.27273 6.72726,3.27273 1.9,0 4.92727,-1.47273 6.72727,-3.27273 z m -147.83838,29.0505 c -3.05112,-3.05112 0.72871,-7.91744 25.40055,-32.70178 l 26.28943,-26.40932 h -74.02277 c -55.79549,0 -74.41676,-0.39399 -75.62277,-1.6 -2.40248,-2.40248 -1.9276,-6.13086 0.97901,-7.68643 1.68846,-0.90363 28.00074,-1.38024 76.19919,-1.38024 h 73.62018 L 267.1992,307.94321 c -14.59288,-14.69791 -26.73924,-27.31808 -26.99191,-28.04483 -0.67832,-1.9511 2.45249,-5.2317 4.99284,-5.2317 2.70092,0 65.46655,62.68923 65.46655,65.38687 0,1.05932 -14.24531,16.18064 -31.65626,33.60292 -30.0507,30.07029 -34.91261,33.9969 -38.12152,30.78798 z"
     style="fill:#909090;stroke-width:1.33333337" />
  <path
     inkscape:connector-curvature="0"
     id="path36"
     d="m 196.00001,507.33335 v -98 h 7.33333 7.33333 v 90 90 l 137.66668,-0.0644 137.66667,-0.0644 -65.2147,-13.20868 c -35.86808,-7.26477 -66.01985,-13.51765 -67.00393,-13.89528 -1.4887,-0.57126 -1.73259,-37.81573 -1.45198,-221.72431 l 0.33727,-221.03771 30.66667,-6.28401 c 16.86666,-3.45621 48.06667,-9.85694 69.33333,-14.223834 L 491.33335,90.89091 351.00001,90.77879 210.66667,90.66667 v 90.66667 90.66667 h -7.33333 -7.33333 V 173.33334 74.666669 h 170 170.00001 V 340.00001 605.33335 h -170.00001 -170 z m 192.72727,-131.9394 3.27273,-3.27272 V 340.00001 307.8788 l -3.27273,-3.27272 c -1.8,-1.8 -4.82727,-3.27274 -6.72727,-3.27274 -1.9,0 -4.92726,1.47274 -6.72726,3.27274 l -3.27274,3.27272 v 32.12121 32.12122 l 3.27274,3.27272 c 1.8,1.8 4.82726,3.27273 6.72726,3.27273 1.9,0 4.92727,-1.47273 6.72727,-3.27273 z m -147.12727,28.3394 c -0.88,-0.88 -1.6,-2.23563 -1.6,-3.01251 0,-0.77687 11.9778,-13.37907 26.61733,-28.00488 14.63955,-14.62581 26.41967,-26.79005 26.17807,-27.03165 -0.2416,-0.2416 -33.39161,-0.40982 -73.66671,-0.37383 -78.6148,0.0703 -79.2431,0.0181 -77.20224,-6.41207 l 0.91992,-2.8984 h 75.24348 c 41.38391,0 75.24348,-0.43128 75.24348,-0.95838 0,-0.52711 -12.05432,-13.06506 -26.78737,-27.86211 -24.37983,-24.48571 -26.65248,-27.15579 -25.28643,-29.70828 0.82554,-1.54251 2.56782,-2.80456 3.87175,-2.80456 2.9664,0 65.91865,63.2404 65.31016,65.60911 -0.58673,2.284 -64.17452,65.05756 -65.90141,65.05756 -0.73702,0 -2.06003,-0.72 -2.94003,-1.6 z"
     style="fill:#777777;stroke-width:1.33333337" />
  <path
     inkscape:connector-curvature="0"
     id="path34"
     d="m 196.00001,507.33335 v -98 h 7.33333 7.33333 v 89.98745 89.98746 l 135.66668,0.34588 c 74.61666,0.19024 136.56667,0.0737 137.66667,-0.25884 1.1,-0.3326 -3.4,-1.67103 -10,-2.97431 -6.6,-1.30326 -36.45,-7.29418 -66.33334,-13.31316 l -54.33333,-10.9436 V 340.69008 119.21592 l 15,-2.99291 C 445.27832,100.87042 492.13972,91.033262 490.5637,90.564379 489.52034,90.253972 426.11668,90.158219 349.66668,90.351594 l -139.00001,0.351591 v 90.648405 90.64842 h -7.33333 -7.33333 V 173.33334 74.666669 h 170 170.00001 V 340.00001 605.33335 h -170.00001 -170 z M 388.91408,375.7676 c 3.06291,-2.87745 3.08593,-3.14296 3.08593,-35.58073 0,-31.71995 -0.0853,-32.77246 -2.89908,-35.76759 -3.7157,-3.95519 -9.91578,-4.03786 -14.01498,-0.18686 -3.06291,2.87746 -3.08594,3.14296 -3.08594,35.58074 0,31.71995 0.0853,32.77245 2.89908,35.76759 3.71571,3.95518 9.91579,4.03785 14.01499,0.18685 z m -147.27515,28.00467 c -0.90141,-0.90142 -1.63892,-2.27455 -1.63892,-3.05143 0,-0.77687 12,-13.40124 26.66667,-28.05416 14.66666,-14.65292 26.66666,-27.09729 26.66666,-27.65416 0,-0.55688 -33.83581,-1.01251 -75.19068,-1.01251 -65.60617,0 -75.28851,-0.25493 -75.95816,-2 -0.42211,-1.1 -0.42211,-2.9 0,-4 0.66965,-1.74506 10.35199,-2 75.95816,-2 41.35487,0 75.19068,-0.45577 75.19068,-1.01282 0,-0.55706 -11.71881,-12.70706 -26.0418,-27.00001 -21.53961,-21.49444 -25.97693,-26.56345 -25.66666,-29.3205 0.25054,-2.22634 1.31341,-3.46723 3.20042,-3.73651 2.16967,-0.30961 10.05943,7.05068 34,31.71833 17.14608,17.66683 31.33179,32.5695 31.52378,33.11703 0.44902,1.28064 -63.16654,64.77918 -65.39372,65.2734 -0.92264,0.20474 -2.41503,-0.36526 -3.31643,-1.26666 z"
     style="fill:#676767;stroke-width:1.33333337" />
  <path
     inkscape:connector-curvature="0"
     id="path32"
     d="m 196.00001,507.33335 v -98 h 7.33333 7.33333 v 90.66667 90.66667 l 136.33334,-0.0204 c 74.98334,-0.0107 137.02361,-0.46123 137.86725,-1 0.84365,-0.53878 -28.40811,-6.9594 -65.00391,-14.26806 l -66.53782,-13.28848 0.33724,-221.31814 0.33724,-221.31813 8.66667,-1.79608 c 4.76667,-0.98785 36.17272,-7.37917 69.79124,-14.20295 33.61851,-6.82378 60.11944,-12.792576 58.89095,-13.263992 -1.22849,-0.471418 -64.88455,-0.857122 -141.45791,-0.857122 H 210.66667 v 91.333334 91.33334 h -7.33333 -7.33333 V 173.33334 74.666669 h 170 170.00001 V 340.00001 605.33335 h -170.00001 -170 z M 388.91408,375.7676 c 3.06291,-2.87745 3.08593,-3.14296 3.08593,-35.58073 0,-31.71995 -0.0853,-32.77246 -2.89908,-35.76759 -3.7157,-3.95519 -9.91578,-4.03786 -14.01498,-0.18686 -3.06291,2.87746 -3.08594,3.14296 -3.08594,35.58074 0,31.71995 0.0853,32.77245 2.89908,35.76759 3.71571,3.95518 9.91579,4.03785 14.01499,0.18685 z m -147.31407,27.96575 c -0.88,-0.88 -1.6,-2.23563 -1.6,-3.01251 0,-0.77687 12,-13.40124 26.66667,-28.05416 14.66666,-14.65292 26.66666,-27.09729 26.66666,-27.65416 0,-0.55688 -33.52653,-1.01251 -74.50341,-1.01251 -64.59864,0 -74.72407,-0.26589 -76.16326,-2 -1.32425,-1.59562 -1.32425,-2.40437 0,-4 1.43919,-1.7341 11.56462,-2 76.16326,-2 40.97688,0 74.50341,-0.43084 74.50341,-0.95742 0,-0.52658 -11.7,-12.71078 -26,-27.07599 -25.63781,-25.75474 -29.11557,-30.48572 -23.88541,-32.49274 1.16303,-0.44629 2.91335,-0.36048 3.88961,0.1907 0.97627,0.55116 15.7131,15.30916 32.74852,32.79554 l 30.97351,31.79343 -32.51957,32.53991 c -17.88578,17.89695 -33.15418,32.53991 -33.92979,32.53991 -0.77561,0 -2.1302,-0.72 -3.0102,-1.6 z"
     style="fill:#4e4e4e;stroke-width:1.33333337" />
  <path
     inkscape:connector-curvature="0"
     id="path30"
     d="m 196.00001,507.33335 v -98 h 7.33333 7.33333 v 90.66667 90.66667 h 137.77778 c 75.77779,0 138.20167,-0.4239 138.71977,-0.94198 0.83016,-0.83016 -49.9196,-11.58277 -99.83087,-21.15169 -9.53334,-1.82771 -20.93334,-4.07889 -25.33334,-5.00264 l -8,-1.67952 -0.33726,-220.85433 c -0.3199,-209.48489 -0.21694,-220.89132 2,-221.57277 2.55626,-0.78575 57.7199,-12.02095 106.6706,-21.725642 17.05,-3.380237 31,-6.654137 31,-7.275334 0,-0.621196 -63.6,-1.129448 -141.33334,-1.129448 H 210.66667 v 91.333334 91.33334 h -7.33333 -7.33333 V 173.33334 74.666669 h 170 170.00001 V 340.00001 605.33335 h -170.00001 -170 z M 389.33335,376.00001 c 2.52444,-2.52444 2.66666,-4.44444 2.66666,-36 0,-31.55556 -0.14222,-33.47556 -2.66666,-36 -1.6508,-1.6508 -4.44444,-2.66667 -7.33334,-2.66667 -2.88889,0 -5.68253,1.01587 -7.33333,2.66667 -2.52444,2.52444 -2.66667,4.44444 -2.66667,36 0,31.55556 0.14223,33.47556 2.66667,36 1.6508,1.6508 4.44444,2.66667 7.33333,2.66667 2.8889,0 5.68254,-1.01587 7.33334,-2.66667 z m -147.23546,27.24074 c -1.46935,-1.46935 -1.7216,-2.75996 -0.84697,-4.33334 0.68509,-1.2324 12.98992,-13.94073 27.34405,-28.24073 l 26.09843,-26 -75.68003,-0.66667 -75.68003,-0.66666 v -3.33334 -3.33333 l 75.59896,-0.66667 75.59898,-0.66666 -26.53158,-27.33334 c -14.59237,-15.03333 -26.5619,-28.00987 -26.59897,-28.83675 -0.0371,-0.82686 0.87189,-2.28293 2.01989,-3.23569 1.8061,-1.49892 6.38624,2.56389 34,30.15967 17.552,17.54056 31.91272,32.81321 31.91272,33.93921 0,1.89822 -62.43282,65.3069 -64.30182,65.3069 -0.46258,0 -1.7827,-0.94167 -2.93363,-2.0926 z"
     style="fill:#353535;stroke-width:1.33333337" />
</svg>
