<?xml version="1.0" encoding="UTF-8" standalone="no"?>
<!-- Created with Inkscape (http://www.inkscape.org/) -->

<svg
   xmlns:dc="http://purl.org/dc/elements/1.1/"
   xmlns:cc="http://creativecommons.org/ns#"
   xmlns:rdf="http://www.w3.org/1999/02/22-rdf-syntax-ns#"
   xmlns:svg="http://www.w3.org/2000/svg"
   xmlns="http://www.w3.org/2000/svg"
   xmlns:xlink="http://www.w3.org/1999/xlink"
   xmlns:sodipodi="http://sodipodi.sourceforge.net/DTD/sodipodi-0.dtd"
   xmlns:inkscape="http://www.inkscape.org/namespaces/inkscape"
   version="1.1"
   id="svg118"
   width="666.66669"
   height="666.66669"
   viewBox="0 0 666.66669 666.66669"
   sodipodi:docname="notifikasi.svg"
   inkscape:version="0.92.3 (2405546, 2018-03-11)">
  <metadata
     id="metadata124">
    <rdf:RDF>
      <cc:Work
         rdf:about="">
        <dc:format>image/svg+xml</dc:format>
        <dc:type
           rdf:resource="http://purl.org/dc/dcmitype/StillImage" />
        <dc:title></dc:title>
      </cc:Work>
    </rdf:RDF>
  </metadata>
  <defs
     id="defs122" />
  <sodipodi:namedview
     pagecolor="#ffffff"
     bordercolor="#666666"
     borderopacity="1"
     objecttolerance="10"
     gridtolerance="10"
     guidetolerance="10"
     inkscape:pageopacity="0"
     inkscape:pageshadow="2"
     inkscape:window-width="1366"
     inkscape:window-height="705"
     id="namedview120"
     showgrid="false"
     inkscape:zoom="0.35399999"
     inkscape:cx="333.33334"
     inkscape:cy="333.33334"
     inkscape:window-x="-8"
     inkscape:window-y="-8"
     inkscape:window-maximized="1"
     inkscape:current-layer="svg118" />
  <image
     sodipodi:absref="E:\Project-website\tanyabudi\public\assets\images\icon\notifikasi.png"
     xlink:href="notifikasi.png"
     y="0"
     x="0"
     id="image126"
     preserveAspectRatio="none"
     height="666.66669"
     width="666.66669" />
  <path
     inkscape:connector-curvature="0"
     id="path142"
     d="m 85.333336,608.41038 c -2.566666,-1.95803 -8.633459,-6.75137 -13.481759,-10.65188 -4.848301,-3.90049 -9.498301,-7.09181 -10.333334,-7.09181 -0.835033,0 -1.518241,-1.72844 -1.518241,-3.84099 0,-3.06576 2.306627,-6.09319 11.428645,-15 6.285753,-6.13745 12.585753,-11.58968 14,-12.11605 2.511927,-0.93491 2.571356,-3.57779 2.571356,-114.35142 0,-69.91514 0.490584,-114.28214 1.279449,-115.70965 0.703698,-1.27338 1.937753,-5.31524 2.742346,-8.9819 3.226496,-14.7037 3.705871,-16.33894 8.989972,-30.66667 3.86402,-10.4772 15.37772,-34.38948 17.6549,-36.66667 0.98675,-0.98674 3.8858,-5.70724 4.91313,-8 5.35375,-11.94831 40.1211,-48.70341 59.08687,-62.46507 6.23334,-4.52293 11.93334,-8.69884 12.66667,-9.27978 0.73333,-0.58096 2.23333,-1.48394 3.33333,-2.00662 1.1,-0.52269 5,-2.7301 8.66667,-4.90536 6.5976,-3.91405 12.40121,-6.81016 25.33333,-12.64178 13.08362,-5.89995 16.78165,-7.36806 18.5595,-7.36806 0.99129,0 3.52093,-0.8963 5.62143,-1.99178 2.10049,-1.09548 5.13366,-1.99549 6.74038,-2.00001 1.60672,-0.004 3.29214,-0.60821 3.74536,-1.34154 C 267.78657,140.6 269.84654,140 271.91106,140 c 2.06452,0 6.30455,-0.9 9.42228,-2 3.11774,-1.1 7.09318,-2 8.83431,-2 h 3.16569 v -18.98086 c 0,-17.691759 0.23034,-19.434935 3.39144,-25.666666 5.32544,-10.498429 18.45495,-23.352472 23.85294,-23.352472 1.14893,0 2.08896,-0.6 2.08896,-1.333333 0,-0.817777 6.44444,-1.333333 16.66667,-1.333333 10.22222,0 16.66666,0.515556 16.66666,1.333333 0,0.733333 0.99336,1.333333 2.20748,1.333333 5.62988,0 18.64103,12.977484 23.76459,23.703115 3.09671,6.482609 3.36127,8.502833 3.36127,25.666663 V 136 h 3.16569 c 1.74113,0 5.71657,0.9 8.83431,2 3.11773,1.1 7.35776,2 9.42228,2 2.06452,0 4.12449,0.6 4.57772,1.33334 0.45322,0.73333 2.13864,1.33702 3.74536,1.34154 1.60672,0.004 4.63989,0.90453 6.74038,2.00001 2.1005,1.09548 4.63014,1.99178 5.62143,1.99178 1.77786,0 5.47588,1.46811 18.5595,7.36806 12.93212,5.83162 18.73573,8.72773 25.33333,12.64178 3.66667,2.17526 7.56667,4.38267 8.66667,4.90536 1.1,0.52268 2.6,1.42566 3.33333,2.00662 0.73333,0.58094 6.43333,4.75685 12.66667,9.27978 21.37374,15.50888 55.47023,52.64767 62.24456,67.79841 0.49184,1.1 1.23803,2.3 1.65819,2.66666 4.58142,3.99816 20.57338,41.25543 24.32308,56.66667 5.8126,23.88983 5.5832,19.05807 6.36209,134.00001 0.86021,126.94019 -1.36851,110.37196 17.28312,128.48233 8.59389,8.3445 10.79563,11.26775 10.79563,14.33334 0,2.11805 -0.68322,3.851 -1.51824,3.851 -1.6623,0 -17.27026,12.57988 -22.28838,17.96422 l -3.13994,3.36911 -250.86006,-0.0148 -250.860067,-0.0148 z m 498.666684,-22.0916 c 0,-0.92468 -2.08849,-4.07468 -4.64109,-7 -2.55259,-2.92532 -4.65259,-5.67544 -4.66667,-6.11137 -0.0141,-0.43594 -1.52484,-2.53594 -3.35728,-4.66667 -1.83244,-2.13073 -3.33244,-4.32405 -3.33333,-4.87405 -9e-4,-0.55 -90.46813,-1 -201.03829,-1 -179.79593,0 -201.34977,-0.21931 -204.00001,-2.0756 -3.59552,-2.5184 -3.9925,-9.24388 -0.75669,-12.81942 2.11919,-2.34168 10.17839,-2.43832 203.33334,-2.43832 h 201.12669 v -99.92131 c 0,-65.17596 -0.46364,-100.20785 -1.33334,-100.74536 -0.73333,-0.45323 -1.35966,-3.63864 -1.39185,-7.07869 -0.0321,-3.44006 -0.92316,-8.65465 -1.97993,-11.58798 -1.05676,-2.93333 -1.93043,-6.66297 -1.94147,-8.28809 -0.0107,-1.62512 -0.84809,-4.92512 -1.86012,-7.33334 -1.01203,-2.40821 -2.58479,-6.77857 -3.49501,-9.7119 -0.91024,-2.93334 -3.14856,-8.63334 -4.97404,-12.66667 -1.8255,-4.03333 -3.83575,-8.53333 -4.46724,-10 -0.6315,-1.46667 -2.95726,-5.66667 -5.16835,-9.33333 -2.21111,-3.66667 -4.44452,-7.56667 -4.96315,-8.66667 -0.51862,-1.1 -1.77949,-2.84581 -2.80192,-3.8796 -1.02242,-1.03377 -3.3972,-4.31632 -5.27728,-7.29455 -6.73325,-10.66617 -42.12695,-46.12309 -46.06925,-46.15156 -0.58095,-0.004 -1.95178,-0.75763 -3.04627,-1.67429 -5.63431,-4.71887 -7.82516,-6.13879 -16.23079,-10.51946 -3.11666,-1.62428 -5.66666,-3.44688 -5.66666,-4.05022 0,-0.60334 -1.12654,-1.09699 -2.50342,-1.09699 -1.37686,0 -3.25033,-0.9 -4.16325,-2 -0.91292,-1.1 -2.71292,-2 -4,-2 -1.28708,0 -3.08708,-0.9 -4,-2 -0.91292,-1.1 -2.49453,-2 -3.51468,-2 -1.02016,0 -2.89669,-0.52675 -4.17008,-1.17056 -5.97219,-3.01945 -12.62355,-5.49611 -14.76048,-5.49611 -1.29512,0 -2.92476,-0.56558 -3.62143,-1.25686 -0.69667,-0.69128 -3.96667,-1.92931 -7.26667,-2.75118 -3.3,-0.82186 -9.6,-2.41706 -14,-3.5449 -4.4,-1.12784 -12.2,-2.50587 -17.33333,-3.06228 -5.13333,-0.5564 -15.69741,-1.76024 -23.47572,-2.67519 -11.31581,-1.33105 -16.91204,-1.32945 -28,0.008 -7.6217,0.91933 -18.05762,2.12317 -23.19095,2.67519 -15.25332,1.6403 -34.84381,7.10034 -57.33333,15.9793 -1.46667,0.57904 -3.56667,1.4034 -4.66667,1.8319 -1.1,0.42849 -2.9,1.33961 -4,2.02469 -1.1,0.68509 -2.9,1.59683 -4,2.02607 -1.1,0.42924 -5,2.5895 -8.66667,4.80061 -3.66667,2.21109 -7.86667,4.60176 -9.33333,5.31257 -4.35075,2.1086 -9.55446,5.62051 -13.28438,8.96544 -1.02216,0.91667 -2.35134,1.6701 -2.95372,1.6743 -3.16245,0.022 -43.09524,38.91241 -43.09524,41.97031 0,0.84165 -0.27036,1.20896 -6.39534,8.6887 -2.10178,2.56667 -4.23055,5.56667 -4.7306,6.66667 -0.50006,1.1 -2.71827,5 -4.92938,8.66667 -2.21109,3.66666 -4.53685,7.86666 -5.16835,9.33333 -0.63149,1.46667 -2.64175,5.96667 -4.46723,10 -1.82549,4.03333 -4.06381,9.73333 -4.97404,12.66667 -0.91024,2.93333 -2.48299,7.30369 -3.49502,9.7119 -1.01202,2.40822 -1.84907,5.70822 -1.86011,7.33334 -0.0111,1.62512 -0.88471,5.35476 -1.94148,8.28809 -1.05677,2.93333 -1.94774,8.14792 -1.97993,11.58798 -0.0322,3.44005 -0.65852,6.62546 -1.39185,7.07869 -0.871,0.53831 -1.34072,38.59255 -1.35463,109.74536 l -0.0213,108.92131 -3.9787,4.51402 c -2.18829,2.4827 -3.98807,4.8827 -3.99953,5.33333 -0.0115,0.45063 -2.40209,3.51932 -5.31251,6.81932 -2.910424,3.3 -5.301051,6.45 -5.312507,7 -0.01145,0.55 110.379177,1 245.312517,1 196.51189,0 245.33334,-0.33457 245.33334,-1.68124 z M 361.33335,119.28022 c 0,-17.08645 -2.71855,-22.628838 -14.20572,-28.961633 -5.3369,-2.942191 -10.25167,-2.942191 -15.58857,0 -11.48717,6.332795 -14.20572,11.875183 -14.20572,28.961633 V 132 h 22.00001 22 z"
     style="fill:#cfcfcf;stroke-width:1.33333337" />
  <path
     inkscape:connector-curvature="0"
     id="path140"
     d="m 81.295907,603.66669 c -6.014259,-4.58334 -13.248635,-9.83334 -16.076393,-11.66667 -2.827756,-1.83333 -5.158956,-4.17535 -5.180444,-5.20447 -0.04486,-2.14848 24.353174,-26.79553 26.524793,-26.79553 1.014751,0 1.43614,-33.40179 1.43614,-113.83675 0,-99.5616 0.2508,-114.04489 2,-115.49659 1.1,-0.91292 2.014122,-2.93639 2.031382,-4.49659 0.05952,-5.38009 8.171515,-32.90512 12.821035,-43.50341 19.33755,-44.07874 48.79536,-79.45463 87.86509,-105.51725 14.77734,-9.85765 14.42279,-9.6532 28.61583,-16.50172 6.96667,-3.3616 14.20587,-6.89104 16.08711,-7.84318 4.78771,-2.42322 36.14703,-12.14022 46.57956,-14.43315 l 8.66667,-1.90483 0.76469,-18.56661 c 0.82013,-19.91299 2.55789,-26.152843 10.00109,-35.911372 3.84986,-5.047421 16.50138,-13.988566 19.79351,-13.988566 1.15905,0 2.10737,-0.6 2.10737,-1.333333 0,-0.804233 5.55556,-1.333333 14.00001,-1.333333 8.44444,0 14,0.5291 14,1.333333 0,0.733333 1.10232,1.333333 2.44961,1.333333 3.30196,0 16.14683,9.368277 19.9414,14.544062 7.05116,9.617742 8.70396,15.761847 9.51096,35.355876 l 0.76469,18.56661 8.66667,1.90483 c 10.43253,2.29293 41.79186,12.00993 46.57956,14.43315 1.88124,0.95214 9.12044,4.48158 16.08711,7.84318 14.19304,6.84852 13.83849,6.64407 28.61583,16.50172 15.31588,10.21691 26.51829,19.64332 40.17672,33.80723 20.83896,21.61019 35.15052,43.13079 47.68837,71.71002 5.1131,11.65498 11.82406,35.3703 13.48827,47.66517 0.52101,3.84919 1.49109,7.3346 2.15572,7.74536 0.70627,0.4365 1.20843,45.65287 1.20843,108.80962 v 108.06278 l 4.2045,5.30862 c 2.31248,2.91974 8.61248,9.65978 14,14.97786 5.38752,5.31808 9.79087,10.51554 9.78523,11.54992 -0.005,1.03437 -2.25565,3.19704 -5,4.8059 -2.74436,1.60888 -9.36775,6.85888 -14.71865,11.66667 l -9.72891,8.74144 H 340.71989 92.230922 Z M 584.82653,587.39761 c 0.43558,-1.13512 -3.02834,-6.91042 -8.37519,-13.96366 l -9.11799,-12.0279 -201,-0.0364 c -199.19768,-0.036 -201.02392,-0.0602 -203.66668,-2.70301 -3.63769,-3.6377 -3.34668,-7.27156 0.84648,-10.5699 l 3.51315,-2.76344 h 200.50357 200.50358 l -0.47411,-99.66667 c -0.48856,-102.70592 -0.68659,-106.81417 -6.12179,-127 -25.96932,-96.44771 -116.63024,-162.72806 -222.51403,-162.67549 -36.28756,0.018 -73.65742,8.6993 -106.25685,24.68419 -52.41396,25.70081 -93.05771,70.59566 -110.43994,121.9913 -10.69391,31.61967 -10.54026,29.57696 -11.43369,152 L 110,563.33335 l -8.33333,10.92128 c -4.583333,6.00671 -8.333333,11.85671 -8.333333,13 0,1.8752 24.023163,2.07872 245.375183,2.07872 213.26105,0 245.47241,-0.25334 246.11801,-1.93574 z M 362.38712,121.67554 c 0.45383,-12.88511 -1.17277,-20.02779 -5.81816,-25.548511 -11.35541,-13.495137 -31.50244,-9.911895 -38.50531,6.848351 -2.10927,5.04818 -2.9858,27.65802 -1.14367,29.50016 0.506,0.50599 10.856,0.75599 23.00001,0.55556 l 22.08002,-0.36443 z"
     style="fill:#adadad;stroke-width:1.33333337" />
  <path
     inkscape:connector-curvature="0"
     id="path138"
     d="m 79.333336,601.26781 c -6.6,-5.14127 -13.646207,-10.37978 -15.658236,-11.64111 -2.012031,-1.26135 -3.662031,-2.66492 -3.666667,-3.11907 -0.0046,-0.45413 6.591569,-7.20213 14.658236,-14.99554 L 89.333336,557.34226 V 444.9378 c 0,-61.82245 0.51274,-112.97446 1.139423,-113.67112 0.626683,-0.69667 2.176322,-5.76667 3.443642,-11.26667 15.959079,-69.26027 62.463459,-126.85126 128.750269,-159.44427 19.90005,-9.78479 32.58555,-14.32196 56.66667,-20.26776 l 14.66667,-3.62131 0.66667,-19.33333 c 0.61921,-17.957074 0.93909,-19.870978 4.49365,-26.88596 2.10485,-4.153942 6.00485,-9.644967 8.66667,-12.202276 4.95549,-4.760921 14.1376,-10.245102 17.15326,-10.245102 0.92754,0 1.68642,-0.6 1.68642,-1.333333 0,-0.795321 5.1111,-1.333333 12.66667,-1.333333 7.55556,0 12.66666,0.538012 12.66666,1.333333 0,0.733333 0.75888,1.333333 1.68642,1.333333 3.01566,0 12.19777,5.484181 17.15326,10.245102 2.66182,2.557309 6.56182,8.048334 8.66667,12.202276 3.55456,7.014982 3.87444,8.928886 4.49365,26.88596 l 0.66667,19.33333 14.66667,3.62131 c 28.77308,7.10428 46.98539,14.30337 73.33333,28.98773 13.25506,7.38736 36.56186,25.56584 49.82928,38.86507 23.28969,23.34551 38.24297,45.7483 51.52406,77.19256 3.94484,9.33978 4.67043,11.53844 8.72061,26.42492 5.54319,20.37399 5.69246,23.46361 6.48587,134.24176 0.63616,88.82164 1.10377,108.59192 2.63332,111.33333 1.02289,1.83334 7.62289,9.26158 14.66667,16.5072 7.04377,7.24562 12.11038,13.42778 11.25913,13.73814 -2.14277,0.78121 -21.88211,16.77506 -24.99225,20.25005 l -2.53999,2.83795 -249.46002,-0.0256 -249.460023,-0.0255 z M 586.04049,587.93454 c 0.47548,-0.76935 0.0609,-2.49619 -0.92131,-3.83743 -0.98221,-1.34124 -5.24012,-7.01177 -9.46203,-12.60118 l -7.6762,-10.16258 H 367.62049 c -179.18391,0 -200.67367,-0.21937 -203.3238,-2.0756 -3.09355,-2.16681 -3.81871,-6.5066 -1.65831,-9.9244 1.11159,-1.75856 25.61541,-2.08048 202.97958,-2.66666 l 201.71539,-0.66667 -0.0185,-101.33334 c -0.0186,-101.7138 -0.17275,-105.73303 -4.78252,-124.66667 -8.26921,-33.96396 -29.62211,-70.97396 -56.11576,-97.26284 -55.98042,-55.54776 -140.04134,-79.28122 -219.0832,-61.85514 -56.18912,12.38783 -103.90049,42.88059 -137.35476,87.78465 -14.38358,19.30638 -28.3005,48.63377 -33.8503,71.33333 -4.42922,18.1162 -4.61229,22.88474 -5.0579,131.74858 l -0.44924,109.74858 -9.4021,12.56397 c -5.171161,6.91019 -9.025506,13.17333 -8.565217,13.91809 1.189696,1.92498 492.196837,1.8805 493.386667,-0.0447 z M 362.37811,119.47098 c 0.32076,-11.93549 -0.0273,-14.86314 -2.29614,-19.31033 -8.75126,-17.15388 -31.52272,-17.591051 -41.03972,-0.787885 -2.58132,4.557565 -3.00143,7.256645 -3.02031,19.405015 -0.012,7.76111 0.22794,14.36111 0.53334,14.66666 0.30538,0.30556 10.65538,0.45192 23,0.32526 l 22.44473,-0.23031 z"
     style="fill:#8f8f8f;stroke-width:1.33333337" />
  <path
     inkscape:connector-curvature="0"
     id="path136"
     d="m 87.200054,606.78993 c -15.963314,-11.901 -23.909397,-18.5574 -24.249746,-20.31391 -0.210666,-1.08723 5.639334,-7.82061 13,-14.96309 L 89.333336,558.52662 V 445.42658 c 0,-98.90678 0.250987,-113.30836 2.000001,-114.7599 1.1,-0.91292 2,-2.99686 2,-4.63096 0,-1.63411 0.53619,-4.71064 1.191533,-6.83675 0.655344,-2.12609 2.547619,-8.66563 4.205056,-14.53229 11.653414,-41.24842 38.077674,-81.12765 73.270084,-110.57847 9.71634,-8.13114 27.34241,-20.75487 28.97929,-20.75487 0.44591,0 1.75797,-0.81371 2.91572,-1.80824 10.0564,-8.63873 53.8449,-26.24409 76.77166,-30.86639 2.2,-0.44355 6.25,-1.39633 9,-2.11731 l 5,-1.31085 v -16.35638 c 0,-13.27225 0.54662,-17.97502 2.89897,-24.940721 3.30769,-9.794615 12.24672,-20.341446 20.66553,-24.382497 2.80619,-1.346978 6.80079,-3.296978 8.87688,-4.333334 4.86794,-2.43 19.58263,-2.43 24.45057,0 2.07609,1.036356 6.07069,2.986356 8.87688,4.333334 8.41881,4.041051 17.35784,14.587882 20.66553,24.382497 2.35235,6.965701 2.89897,11.668471 2.89897,24.940721 v 16.35638 l 5,1.31085 c 2.75,0.72098 6.8,1.67376 9,2.11731 22.92676,4.6223 66.71526,22.22766 76.77166,30.86639 1.15775,0.99453 2.46981,1.80824 2.91572,1.80824 1.63688,0 19.26295,12.62373 28.97929,20.75487 22.6853,18.98422 41.69598,42.20989 56.54107,69.07716 9.7728,17.68725 20.48988,49.19637 22.89202,67.30449 0.50512,3.80785 1.43932,7.24529 2.076,7.63877 0.6392,0.39505 1.15758,49.26921 1.15758,109.14015 0,94.75093 0.25223,108.63405 2,110.08457 1.1,0.91292 2,2.34963 2,3.1927 0,0.84306 5.1,6.60636 11.33334,12.8073 6.23333,6.20095 11.33333,11.9873 11.33333,12.85852 0,0.87124 -2.53627,3.58448 -5.63615,6.02944 -3.09988,2.44496 -9.17558,7.59538 -13.50156,11.44538 l -7.8654,7 H 340.69852 92.400106 Z M 586.66669,587.32046 c 0,-1.99229 -11.72759,-18.53201 -17.24458,-24.32044 l -2.8593,-3 H 366.3864 c -184.39518,0 -200.36865,-0.17396 -202.61474,-2.20665 -3.02559,-2.73811 -3.09973,-5.51919 -0.23167,-8.68836 2.11919,-2.34168 10.17839,-2.43832 203.33334,-2.43832 160.00773,0 201.1285,-0.34074 201.13557,-1.66667 0.005,-0.91667 0.012,-45.89014 0.0171,-99.94104 0.008,-102.45343 -0.16652,-106.25063 -5.9118,-128.20557 -5.0457,-19.28165 -16.8727,-45.48025 -27.77235,-61.52007 -42.80059,-62.98483 -115.79673,-100.66667 -195.00847,-100.66667 -61.84081,0 -120.74366,23.15151 -164.51377,64.66139 -27.77147,26.3374 -48.8867,61.67932 -58.26709,97.52535 -5.8152,22.22212 -5.94834,25.28302 -5.92801,136.28422 0.0151,82.1783 -0.35491,106.83998 -1.63584,109.04439 -0.91042,1.56676 -5.1053,7.41096 -9.32197,12.98711 -4.216667,5.57614 -7.666667,11.04425 -7.666667,12.15133 0,1.78773 27.666457,2.01289 247.333347,2.01289 219.66688,0 247.33334,-0.22516 247.33334,-2.01289 z M 362.66668,119.23822 c 0,-18.13281 -1.71455,-22.80643 -10.50197,-28.626983 -8.32312,-5.513001 -17.3396,-5.513001 -25.66273,0 -8.78742,5.820553 -10.50197,10.494173 -10.50197,28.626983 v 15.14774 h 23.33334 23.33333 z"
     style="fill:#727272;stroke-width:1.33333337" />
  <path
     inkscape:connector-curvature="0"
     id="path134"
     d="m 79.902361,600.33335 c -7.449837,-5.68333 -14.435612,-11.04341 -15.523943,-11.91129 -1.164122,-0.92831 -1.553228,-2.30063 -0.945124,-3.33333 2.182098,-3.70567 21.146805,-22.42646 23.463556,-23.16176 2.334616,-0.74099 2.436486,-5.51764 2.436486,-114.24515 0,-92.56491 0.327248,-113.85967 1.776133,-115.57682 1.545929,-1.83216 3.198498,-7.54263 9.014611,-31.15004 0.68362,-2.77479 1.79432,-6.07479 2.46823,-7.33334 0.67391,-1.25856 3.09976,-6.97686 5.39077,-12.70734 4.35443,-10.8917 7.60544,-17.14244 16.42523,-31.58094 17.99993,-29.46691 51.12616,-61.29299 82.25836,-79.02984 8.00519,-4.56077 27.05603,-13.86079 33.33334,-16.27228 3.3,-1.26773 6.9,-2.74672 8,-3.28664 1.1,-0.53992 5.6,-2.04087 10,-3.33543 4.4,-1.29456 10.65688,-3.1912 13.90419,-4.21477 3.2473,-1.02358 7.4473,-1.9067 9.33333,-1.96248 1.88603,-0.0557 5.52915,-0.85734 8.09581,-1.7812 l 4.66667,-1.67976 0.74441,-17.21881 c 0.82044,-18.97727 2.7726,-26.462756 9.42152,-36.126628 4.33738,-6.30417 16.57016,-15.092166 21.00811,-15.092166 1.44952,0 3.53548,-0.9 4.63548,-2 2.72439,-2.724387 16.32324,-2.724387 19.04763,0 1.1,1.1 3.31515,2 4.92256,2 4.47483,0 16.26064,8.609205 20.78185,15.180558 6.58587,9.57224 8.5421,17.103606 9.3607,36.038236 l 0.74441,17.21881 4.66667,1.67976 c 2.56666,0.92386 6.20978,1.72541 8.09581,1.7812 1.88603,0.0557 6.08603,0.9389 9.33333,1.96248 3.24731,1.02357 9.50419,2.92021 13.90419,4.21477 4.4,1.29456 8.9,2.79551 10,3.33543 1.1,0.53992 4.7,2.03277 8,3.31744 6.28016,2.44483 28.13352,12.96812 32.58414,15.69059 22.22712,13.59649 36.97708,25.30178 53.44629,42.41397 21.47579,22.3142 36.25703,44.41148 45.9865,68.7477 2.29101,5.73048 4.71686,11.44878 5.39077,12.70734 0.67391,1.25855 1.77692,4.55855 2.45115,7.33334 0.67421,2.77477 2.4818,9.79102 4.01684,15.59166 1.53504,5.80064 2.81225,12.40064 2.83824,14.66667 0.026,2.26603 0.90472,5.62006 1.95274,7.45339 1.60744,2.81193 1.9129,20.1818 1.95275,111.04628 l 0.0472,107.71294 11.66667,12.24492 c 15.42737,16.19203 15.00605,15.72004 14.95877,16.75777 -0.0227,0.49762 -2.743,2.94044 -6.04516,5.42848 -3.30216,2.48806 -9.60628,7.73806 -14.00917,11.66667 l -8.00519,7.14295 H 340.67337 93.447521 Z M 586.34987,589.00002 c 1.88359,-2.33745 0.30839,-5.29701 -9.4029,-17.66667 l -8.3743,-10.66666 -201.59174,-0.33763 -201.59175,-0.33764 -2.29452,-3.50188 c -2.24407,-3.42489 -2.21373,-3.57136 1.37976,-6.66236 l 3.67429,-3.16049 h 200.59232 200.59232 v -99.96211 c 0,-85.43053 -0.30357,-101.46978 -2.0883,-110.33334 -3.27375,-16.2585 -7.6534,-32.15887 -11.3036,-41.0379 -21.72707,-52.85044 -58.05778,-91.05373 -112.6081,-118.41227 -6.26132,-3.14022 -7.67844,-3.73488 -13.68253,-5.74142 -3.47461,-1.1612 -8.11747,-2.8586 -10.31747,-3.77199 -8.96946,-3.72389 -23.66212,-7.37584 -45.4136,-11.28777 -10.49138,-1.88684 -58.73935,-1.8795 -69.17281,0.0107 -24.08472,4.36298 -30.16396,5.96564 -52.48646,13.83699 -9.33811,3.2928 -10.93892,3.95041 -16.92714,6.95367 -54.55032,27.35853 -90.88103,65.56183 -112.60809,118.41227 -3.65021,8.87902 -8.02986,24.7794 -11.3036,41.03789 -1.79232,8.9011 -2.08831,25.58086 -2.08831,117.67943 v 107.30833 l -7.66667,10.14968 c -4.216667,5.58233 -8.484152,11.26794 -9.483303,12.63472 -0.999149,1.36676 -1.46798,3.3936 -1.041845,4.50409 0.688088,1.79313 28.363868,2.01907 247.320048,2.01907 195.63104,0 246.82261,-0.34419 247.8883,-1.66667 z M 362.63076,134.0222 c 2.34813,-1.45122 1.71359,-28.13978 -0.78671,-33.08841 -5.01002,-9.915928 -12.28224,-14.648072 -22.5107,-14.648072 -10.22847,0 -17.50069,4.732144 -22.51071,14.648072 -2.42943,4.80838 -3.12976,30.89219 -0.88959,33.13288 1.38544,1.38576 44.44991,1.34475 46.69771,-0.0444 z"
     style="fill:#575757;stroke-width:1.33333337" />
  <path
     inkscape:connector-curvature="0"
     id="path132"
     d="m 89.48655,607.32321 c -1.749067,-0.96179 -3.549067,-2.2949 -4,-2.9625 -0.450935,-0.66758 -4.380994,-3.82285 -8.733466,-7.0117 -10.736358,-7.86604 -12.753082,-9.68174 -12.753082,-11.48183 0,-0.84711 6,-7.29913 13.333334,-14.33784 L 90.66667,558.73169 V 445.47696 c 0,-62.29011 0.45868,-113.45472 1.019288,-113.69918 1.232412,-0.53737 5.647379,-14.38726 5.647379,-17.71601 0,-8.10801 17.383053,-50.09256 24.919753,-60.18761 1.69413,-2.26923 3.08025,-4.54239 3.08025,-5.05148 0,-2.4959 20.80293,-28.26543 32,-39.63986 10.70771,-10.87731 37.22453,-31.96189 44,-34.98615 1.1,-0.49098 3.8,-2.04876 6,-3.46172 6.05835,-3.89101 34.04699,-17.40161 36.04927,-17.40161 0.48457,0 2.77173,-0.80128 5.08256,-1.78061 7.49868,-3.17796 13.42663,-5.14954 18.86817,-6.27535 6.57478,-1.36027 15.60971,-3.63632 22.66667,-5.71011 L 295.33334,138 l 0.783,-18 c 1.06323,-24.441549 2.46807,-28.891891 12.54719,-39.747701 5.38403,-5.798916 9.20827,-8.074771 18.31791,-10.901245 2.73978,-0.85008 5.3252,-2.101826 5.74536,-2.781658 0.99452,-1.609163 12.21857,-1.609163 13.21309,0 0.42016,0.679832 3.00558,1.931578 5.74536,2.781658 9.10964,2.826474 12.93388,5.102329 18.31791,10.901245 10.07912,10.85581 11.48396,15.306152 12.54719,39.747701 l 0.783,18 5.33333,1.56727 c 7.05696,2.07379 16.09189,4.34984 22.66667,5.71011 5.44154,1.12581 11.36949,3.09739 18.86817,6.27535 2.31083,0.97933 4.59799,1.78061 5.08256,1.78061 2.00228,0 29.99092,13.5106 36.04927,17.40161 2.2,1.41296 4.9,2.97074 6,3.46172 6.77547,3.02426 33.29229,24.10884 44,34.98615 11.19707,11.37443 32,37.14396 32,39.63986 0,0.50909 1.38611,2.78225 3.08026,5.05148 4.32302,5.79049 13.76669,25.80797 19.55925,41.45918 2.73369,7.38631 8.23033,29.02599 8.97493,35.33334 0.30302,2.56666 1.11704,5.86667 1.80898,7.33333 0.74778,1.58508 1.39024,46.69658 1.58398,111.22243 0.2565,85.42637 0.68104,108.6741 1.9926,109.11111 0.91667,0.30546 1.66667,1.2686 1.66667,2.14035 0,0.87175 5.1,6.65851 11.33333,12.85945 6.23334,6.20095 11.33334,11.90436 11.33334,12.67424 0,1.61338 -2.04106,3.46046 -12.08642,10.93776 -3.9858,2.96686 -8.7015,6.96787 -10.47933,8.89114 l -3.23243,3.49686 -248.10091,-0.13073 C 138.77579,609.09619 92.07565,608.7469 89.48655,607.32321 Z m 498.2511,-20.15699 c 0.22236,-1.5586 -0.40927,-3.6586 -1.40362,-4.66667 -0.99434,-1.00808 -5.29897,-6.48286 -9.56584,-12.1662 l -7.75793,-10.33333 H 368.27679 c -184.91352,0 -200.92564,-0.17391 -203.1718,-2.20665 -2.92762,-2.64946 -3.10932,-5.31283 -0.53788,-7.88427 1.62522,-1.62521 31.02426,-1.94933 203.00001,-2.23809 l 201.09957,-0.33766 0.40685,-101.33333 c 0.44991,-112.05674 0.62467,-109.26166 -8.75323,-140.00001 -2.80228,-9.18517 -13.15093,-31.9096 -19.4303,-42.66667 -9.20403,-15.76724 -25.16835,-34.93497 -41.70815,-50.07736 -5.73964,-5.25471 -29.37011,-22.90812 -32.51518,-24.29084 -1.1,-0.4836 -5,-2.69069 -8.66666,-4.90464 -3.66667,-2.21395 -7.56667,-4.38628 -8.66667,-4.82743 -3.77551,-1.5141 -16.66821,-7.48585 -20.20572,-9.35905 -1.94648,-1.03071 -4.76108,-1.87401 -6.25466,-1.87401 -1.49357,0 -3.0864,-0.6 -3.53962,-1.33334 -0.45323,-0.73333 -2.13864,-1.33702 -3.74536,-1.34154 -1.60672,-0.004 -4.6399,-0.90452 -6.74039,-2 -2.10049,-1.09548 -5.21143,-1.99179 -6.9132,-1.99179 -1.70176,0 -4.78319,-0.69536 -6.84759,-1.54524 -2.06441,-0.84988 -7.05346,-2.00512 -11.0868,-2.56721 -4.03333,-0.56208 -11.83333,-1.64038 -17.33333,-2.3962 -5.5,-0.75584 -17.8,-1.37426 -27.33333,-1.37426 -9.53334,0 -21.83334,0.61842 -27.33334,1.37426 -5.5,0.75582 -13.3,1.83412 -17.33333,2.3962 -4.03334,0.56209 -9.02239,1.71733 -11.0868,2.56721 -2.0644,0.84988 -5.3944,1.54524 -7.4,1.54524 -2.00559,0 -4.21654,0.52287 -4.9132,1.16193 -0.69667,0.63907 -4.86667,2.1833 -9.26667,3.43162 -8.13179,2.30706 -10.32481,3.16588 -23.33333,9.13764 -4.03334,1.85156 -8.23334,3.72741 -9.33334,4.16854 -1.1,0.44115 -5,2.61348 -8.66667,4.82743 -3.66666,2.21395 -7.56666,4.42104 -8.66666,4.90464 -3.14507,1.38272 -26.77554,19.03613 -32.51518,24.29084 -14.47062,13.24803 -24.77325,25.05044 -35.56649,40.74403 -9.3648,13.61659 -21.21075,37.70505 -25.57196,52 -9.29182,30.45622 -9.04892,26.53224 -9.03013,145.88131 l 0.0171,108.54798 -7.59639,10.11869 c -4.178019,5.56528 -8.378019,10.91155 -9.333337,11.8806 -0.955319,0.96904 -1.736943,3.22063 -1.736943,5.00351 v 3.2416 l 248.33334,-0.33684 248.33334,-0.33684 z M 363.64456,118.55794 c 0.30284,-16.11305 0.21328,-16.69822 -3.33333,-21.778962 -10.5561,-15.12223 -31.44171,-15.12223 -41.93359,0 -3.4451,4.965512 -3.62454,6.009482 -3.66667,21.332132 -0.0244,8.86112 0.20561,16.36112 0.51104,16.66667 0.30544,0.30556 11.25544,0.50662 24.33334,0.44682 l 23.778,-0.1088 0.31121,-16.55793 z"
     style="fill:#454545;stroke-width:1.33333337" />
  <path
     inkscape:connector-curvature="0"
     id="path130"
     d="m 91.517835,607.33335 c -0.42211,-1.1 -1.686304,-2 -2.809319,-2 -1.123016,0 -2.041846,-0.6 -2.041846,-1.33333 0,-0.73333 -0.9,-1.33333 -2,-1.33333 -1.1,0 -2,-0.52694 -2,-1.17096 0,-0.64403 -3.300001,-3.44376 -7.333334,-6.22163 -4.033334,-2.77787 -7.333334,-5.55093 -7.333334,-6.16237 0,-0.61144 -0.9,-1.11171 -2,-1.11171 -1.1,0 -2,-0.54553 -2,-1.21231 0,-1.64118 21.887872,-23.53686 24.549445,-24.55821 1.911084,-0.73335 2.117223,-11.84048 2.117223,-114.07959 0,-103.12195 0.199344,-113.66494 2.225597,-117.70851 1.22408,-2.44276 2.72408,-5.48324 3.333334,-6.75663 0.609254,-1.27339 1.107736,-4.60871 1.107736,-7.41183 0,-2.80312 0.880917,-6.26126 1.957596,-7.68476 1.076677,-1.42349 1.976677,-4.41817 1.999997,-6.65484 0.0233,-2.23666 0.65645,-4.6807 1.40695,-5.43121 0.7505,-0.75049 1.63646,-2.77645 1.96879,-4.50212 0.33233,-1.72567 1.21829,-3.75163 1.96879,-4.50212 0.7505,-0.75051 1.36454,-2.67108 1.36454,-4.26796 0,-1.59687 0.9,-3.65033 2,-4.56325 1.1,-0.91292 2,-2.71292 2,-4 0,-1.28708 0.9,-3.08708 2,-4 1.1,-0.91292 2,-2.73639 2,-4.05215 0,-1.31576 0.45,-2.59229 1,-2.83675 0.55,-0.24444 2.48747,-3.29444 4.30549,-6.77777 1.81802,-3.48333 3.61802,-6.34021 4,-6.34863 0.38198,-0.008 1.84104,-2.40841 3.24236,-5.33333 1.40131,-2.92492 3.05131,-5.31804 3.66666,-5.31804 0.61536,0 1.11883,-0.85 1.11883,-1.88889 0,-1.03889 0.50457,-2.08889 1.12126,-2.33334 0.6167,-0.24444 3.17476,-3.15445 5.6846,-6.46671 10.65154,-14.0569 25.32997,-28.6374 37.52747,-37.2771 3.48334,-2.46731 6.33334,-4.98431 6.33334,-5.59332 0,-0.60902 0.64285,-1.10731 1.42857,-1.10731 0.78571,0 2.26489,-0.75 3.28705,-1.66667 3.51024,-3.14792 5.28798,-4.4695 7.28438,-5.41525 1.1,-0.52109 3.8,-2.13423 6,-3.58475 2.2,-1.45052 4.9,-3.05014 6,-3.55473 1.1,-0.50457 2.30045,-1.26119 2.66768,-1.68135 1.25749,-1.43876 9.54688,-5.43058 11.2771,-5.43058 0.95079,0 2.47563,-0.9 3.38855,-2 0.91292,-1.1 2.78639,-2 4.16325,-2 1.37688,0 2.50342,-0.55234 2.50342,-1.22739 0,-0.67507 1.79312,-1.62124 3.9847,-2.10259 2.19161,-0.48136 4.32701,-1.42902 4.74537,-2.10594 0.41836,-0.67691 2.45177,-1.23075 4.51869,-1.23075 2.06693,0 4.50499,-0.9 5.41791,-2 0.91292,-1.1 3.23638,-2.01908 5.16325,-2.0424 1.92688,-0.0233 4.66809,-0.92333 6.09159,-2 1.42349,-1.07668 4.87349,-1.9576 7.66666,-1.9576 2.79318,0 5.0785,-0.6 5.0785,-1.33333 0,-0.73334 2.67964,-1.33334 5.95476,-1.33334 3.27512,0 8.07512,-1.01113 10.66666,-2.24695 l 4.71191,-2.24694 0.0195,-16.08639 c 0.0191,-15.83555 1.13186,-21.79845 5.98777,-32.086387 4.1072,-8.701715 17.09284,-19.327547 23.633,-19.338318 1.66457,-0.0028 4.991,-1.202741 7.39205,-2.666667 5.45453,-3.325621 7.1477,-3.325621 12.60222,0 2.40105,1.463926 5.72748,2.663926 7.39205,2.666667 6.54016,0.0108 19.5258,10.636603 23.633,19.338318 4.85591,10.287937 5.96867,16.250837 5.98778,32.086387 l 0.0193,16.08639 4.71191,2.24694 c 2.59154,1.23582 7.39154,2.24695 10.66666,2.24695 3.27512,0 5.95476,0.6 5.95476,1.33334 0,0.73333 2.28532,1.33333 5.0785,1.33333 2.79317,0 6.24317,0.88092 7.66666,1.9576 1.4235,1.07667 4.16471,1.97667 6.09159,2 1.92687,0.0233 4.25033,0.9424 5.16325,2.0424 0.91293,1.1 3.35098,2 5.41791,2 2.06692,0 4.10034,0.55384 4.5187,1.23075 0.41836,0.67692 2.55376,1.62458 4.74536,2.10594 2.19158,0.48135 3.9847,1.42752 3.9847,2.10259 0,0.67505 1.12654,1.22739 2.50342,1.22739 1.37686,0 3.25033,0.9 4.16325,2 0.91292,1.1 2.43776,2 3.38855,2 1.73022,0 10.01961,3.99182 11.2771,5.43058 0.36723,0.42016 1.56768,1.17678 2.66768,1.68135 1.1,0.50459 3.8,2.10421 6,3.55473 2.2,1.45052 4.9,3.06034 6,3.57738 1.1,0.51705 2.72918,1.57365 3.6204,2.34802 4.54131,3.94588 5.71394,4.74127 6.98999,4.74127 0.76429,0 1.38961,0.49829 1.38961,1.10731 0,0.60901 2.85,3.12601 6.33334,5.59332 12.1975,8.6397 26.87593,23.2202 37.52747,37.2771 2.50984,3.31226 5.0679,6.22227 5.6846,6.46671 0.61669,0.24445 1.12126,1.29445 1.12126,2.33334 0,1.03889 0.46356,1.88889 1.03014,1.88889 0.56656,0 2.21082,2.25 3.65389,5 1.44308,2.75 2.92952,5.3 3.30321,5.66667 2.4221,2.3766 6.67943,9.56582 6.67943,11.27934 0,1.1297 0.6,2.05399 1.33333,2.05399 0.73334,0 1.33334,1.12653 1.33334,2.50341 0,1.37687 0.9,3.25034 2,4.16326 1.1,0.91292 2,2.71292 2,4 0,1.28708 0.9,3.08708 2,4 1.1,0.91292 2,2.96638 2,4.56325 0,1.59688 0.61404,3.51745 1.36454,4.26796 0.7505,0.75049 1.63646,2.77645 1.96879,4.50212 0.33233,1.72567 1.21829,3.75163 1.96879,4.50212 0.7505,0.75051 1.38362,3.19455 1.40694,5.43121 0.0233,2.23667 0.92334,5.23135 2,6.65484 1.07668,1.4235 1.9576,5.0535 1.9576,8.06667 0,3.01317 0.58147,6.05996 1.29216,6.77065 0.71068,0.71068 1.64746,4.28068 2.08172,7.93334 0.43427,3.65264 1.3528,7.21117 2.04118,7.90784 0.75937,0.76851 1.25161,44.10468 1.25161,110.19068 0,95.59137 0.2448,109.01797 2,109.6915 1.1,0.42211 2,1.48009 2,2.35109 0,0.871 5.1,6.61523 11.33333,12.76495 11.34659,11.1944 13.07307,13.73512 9.33334,13.73512 -1.1,0 -2,0.52027 -2,1.15615 0,0.63589 -2.35528,2.7148 -5.23395,4.61981 -2.87867,1.90503 -8.03373,6.18475 -11.45571,9.51052 l -6.22174,6.04685 h -247.735 c -218.97889,0 -247.824068,-0.23214 -248.502455,-2 z M 588.15799,589.00002 c 0.0869,-0.91667 0.0307,-2.54705 -0.12493,-3.62309 -0.31201,-2.15727 -11.78312,-17.7794 -13.57548,-18.48802 -0.61835,-0.24445 -1.12423,-1.07406 -1.12423,-1.84361 0,-0.76953 -1.2918,-2.51953 -2.87068,-3.88888 -2.77528,-2.407 -9.53553,-2.48973 -203.42858,-2.48973 -172.03906,0 -200.82875,-0.27086 -202.46266,-1.90476 -2.43904,-2.43904 -2.3959,-3.34256 0.3019,-6.32359 2.11918,-2.34168 10.17838,-2.43832 203.33334,-2.43832 H 569.33335 V 441.41204 c 0,-69.6204 -0.46244,-106.87379 -1.33333,-107.41203 -0.73333,-0.45322 -1.33703,-3.33864 -1.34155,-6.41203 -0.004,-3.07338 -0.90452,-7.30656 -2,-9.40705 -1.09548,-2.10049 -2.01086,-5.40049 -2.03418,-7.33333 -0.0233,-1.93284 -0.92334,-4.67894 -2,-6.10243 -1.07668,-1.42349 -1.9576,-4.27349 -1.9576,-6.33333 0,-2.05984 -0.55234,-3.74516 -1.22739,-3.74516 -0.67507,0 -1.62124,-1.79312 -2.10259,-3.98471 -0.48136,-2.1916 -1.42902,-4.327 -2.10594,-4.74536 -0.67691,-0.41836 -1.23075,-1.85177 -1.23075,-3.18536 0,-1.3336 -0.9,-3.17165 -2,-4.08457 -1.1,-0.91292 -2,-2.78639 -2,-4.16326 0,-1.37688 -0.58857,-2.50341 -1.30793,-2.50341 -0.71936,0 -1.6844,-1.5 -2.14455,-3.33333 -0.46013,-1.83334 -1.37156,-3.33334 -2.0254,-3.33334 -0.65383,0 -1.18879,-0.834 -1.18879,-1.85332 0,-1.9617 -11.6319,-18.5013 -13.54354,-19.25778 -0.61772,-0.24446 -1.12312,-0.94348 -1.12312,-1.5534 0,-3.16594 -34.82259,-38.66883 -37.92786,-38.66883 -0.31583,0 -2.53379,-1.78978 -4.9288,-3.97728 -2.395,-2.18751 -6.33204,-4.91566 -8.74896,-6.06256 -2.41691,-1.1469 -4.39439,-2.58715 -4.39439,-3.20055 0,-0.61339 -1.05,-1.48983 -2.33333,-1.94763 -1.28333,-0.4578 -5.33333,-2.60934 -9,-4.7812 -6.04815,-3.58246 -7.79604,-4.47829 -12,-6.15021 -0.73333,-0.29164 -2.23333,-1.06455 -3.33333,-1.71757 -2.72272,-1.61634 -8.03678,-3.81896 -11.66667,-4.83572 -1.65,-0.46218 -3,-1.39988 -3,-2.0838 0,-0.68391 -1.72654,-1.24348 -3.83675,-1.24348 -2.1102,0 -4.58367,-0.9 -5.49659,-2 -0.91292,-1.1 -3.65097,-2 -6.08457,-2 -2.43359,0 -4.79553,-0.6 -5.24876,-1.33334 -0.45323,-0.73333 -2.43864,-1.33702 -4.41203,-1.34154 -1.97338,-0.004 -5.30656,-0.90452 -7.40705,-2 -2.10049,-1.09548 -6.90049,-2.01306 -10.66667,-2.03904 -3.76617,-0.026 -8.34758,-0.90472 -10.18092,-1.95275 -4.86688,-2.78216 -68.46645,-2.78216 -73.33333,0 -1.83334,1.04803 -6.41475,1.92677 -10.18092,1.95275 -3.76618,0.026 -8.56618,0.94356 -10.66667,2.03904 -2.10049,1.09548 -5.43367,1.99548 -7.40705,2 -1.97339,0.004 -3.9588,0.60821 -4.41203,1.34154 -0.45323,0.73334 -2.43864,1.35242 -4.41203,1.37574 -1.97338,0.0233 -4.75265,0.92333 -6.17614,2 -1.4235,1.07668 -4.2735,1.9576 -6.33334,1.9576 -2.05984,0 -3.74516,0.55957 -3.74516,1.24348 0,0.68392 -1.35,1.62162 -3,2.0838 -1.65,0.46217 -4.2,1.3482 -5.66666,1.96894 -1.46667,0.62075 -3.56667,1.47923 -4.66667,1.90772 -1.1,0.4285 -2.9,1.33962 -4,2.0247 -1.1,0.68509 -2.9,1.60736 -4,2.04946 -1.1,0.44212 -5,2.58083 -8.66667,4.75268 -3.66667,2.17186 -7.71667,4.3234 -9,4.7812 -1.28333,0.4578 -2.33333,1.33424 -2.33333,1.94763 0,0.6134 -1.97748,2.05365 -4.39439,3.20055 -2.41692,1.1469 -6.35396,3.87505 -8.74896,6.06256 -2.39501,2.1875 -4.61297,3.97728 -4.9288,3.97728 -1.26659,0 -8.53396,6.57974 -19.92785,18.0423 -12.79704,12.87416 -18,18.83634 -18,20.62653 0,0.60992 -0.5054,1.30894 -1.12312,1.5534 -1.91164,0.75648 -13.54355,17.29608 -13.54355,19.25778 0,1.01932 -0.53496,1.85332 -1.18879,1.85332 -0.65384,0 -1.56527,1.5 -2.0254,3.33334 -0.46015,1.83333 -1.42519,3.33333 -2.14455,3.33333 -0.71936,0 -1.30793,1.12653 -1.30793,2.50341 0,1.37687 -0.9,3.25034 -2,4.16326 -1.1,0.91292 -2,2.75097 -2,4.08457 0,1.33359 -0.55384,2.767 -1.23075,3.18536 -0.67691,0.41836 -1.62459,2.55376 -2.10594,4.74536 -0.48135,2.19159 -1.42752,3.98471 -2.10258,3.98471 -0.67507,0 -1.2274,1.68532 -1.2274,3.74516 0,2.05984 -0.88091,4.90984 -1.95759,6.33333 -1.07668,1.42349 -1.97668,4.16959 -2,6.10243 -0.0233,1.93284 -0.93871,5.23284 -2.03419,7.33333 -1.09548,2.10049 -1.99548,6.33367 -2,9.40705 -0.005,3.07339 -0.60822,5.95881 -1.34155,6.41203 -0.87184,0.53883 -1.33333,39.75988 -1.33333,113.31679 0,98.21577 -0.25383,112.74657 -2,114.49274 -1.1,1.1 -2,2.59287 -2,3.31747 0,0.7246 -0.50588,1.51745 -1.12417,1.7619 -2.211,0.87412 -13.389933,16.70566 -14.268815,20.2074 l -0.896107,3.57038 H 338.52213 c 198.60917,0 249.5101,-0.33984 249.63586,-1.66667 z M 342.00001,135.7495 c 7.33334,0.19822 15.13334,0.48568 17.33334,0.6388 l 4,0.27837 0.37194,-17.65464 c 0.31768,-15.07841 0.0259,-18.18824 -2,-21.311328 -6.05598,-9.336142 -11.53932,-12.367366 -22.37194,-12.367366 -10.81034,0 -16.31999,3.036503 -22.33334,12.308429 -1.91496,2.952655 -2.33333,6.674255 -2.33333,20.755775 0,9.43691 0.41893,17.57694 0.93096,18.08897 0.51201,0.51203 3.66201,0.47457 7,-0.0832 3.33797,-0.55785 12.06904,-0.85205 19.40237,-0.65381 z"
     style="fill:#353535;stroke-width:1.33333337" />
</svg>
