<?xml version="1.0" encoding="UTF-8" standalone="no"?>
<!-- Created with Inkscape (http://www.inkscape.org/) -->

<svg
   xmlns:dc="http://purl.org/dc/elements/1.1/"
   xmlns:cc="http://creativecommons.org/ns#"
   xmlns:rdf="http://www.w3.org/1999/02/22-rdf-syntax-ns#"
   xmlns:svg="http://www.w3.org/2000/svg"
   xmlns="http://www.w3.org/2000/svg"
   xmlns:xlink="http://www.w3.org/1999/xlink"
   xmlns:sodipodi="http://sodipodi.sourceforge.net/DTD/sodipodi-0.dtd"
   xmlns:inkscape="http://www.inkscape.org/namespaces/inkscape"
   version="1.1"
   id="svg154"
   width="666.66669"
   height="666.66669"
   viewBox="0 0 666.66669 666.66669"
   sodipodi:docname="panah.svg"
   inkscape:version="0.92.3 (2405546, 2018-03-11)">
  <metadata
     id="metadata160">
    <rdf:RDF>
      <cc:Work
         rdf:about="">
        <dc:format>image/svg+xml</dc:format>
        <dc:type
           rdf:resource="http://purl.org/dc/dcmitype/StillImage" />
        <dc:title></dc:title>
      </cc:Work>
    </rdf:RDF>
  </metadata>
  <defs
     id="defs158" />
  <sodipodi:namedview
     pagecolor="#ffffff"
     bordercolor="#666666"
     borderopacity="1"
     objecttolerance="10"
     gridtolerance="10"
     guidetolerance="10"
     inkscape:pageopacity="0"
     inkscape:pageshadow="2"
     inkscape:window-width="1366"
     inkscape:window-height="705"
     id="namedview156"
     showgrid="false"
     inkscape:zoom="0.35399999"
     inkscape:cx="333.33334"
     inkscape:cy="151.99881"
     inkscape:window-x="-8"
     inkscape:window-y="-8"
     inkscape:window-maximized="1"
     inkscape:current-layer="svg154" />
  <image
     sodipodi:absref="E:\Project-website\tanyabudi\public\assets\images\icon\panah.png"
     xlink:href="panah.png"
     y="0"
     x="0"
     id="image162"
     preserveAspectRatio="none"
     height="666.66669"
     width="666.66669" />
  <path
     inkscape:connector-curvature="0"
     id="path178"
     d="M 216.93874,496.10098 C 133.31106,413.04111 85.218738,365.53983 75.478504,356.37924 l -8.811835,-8.28744 v -7.84188 c 0,-5.98867 0.648455,-8.59907 2.743929,-11.0459 1.50916,-1.76221 47.209882,-47.75401 101.557152,-102.20401 L 269.78097,128 h 8.34579 c 8.0136,0 8.50884,0.19784 12.44285,4.97046 4.48387,5.43972 5.45652,12.60435 2.45011,18.04764 -0.90583,1.64005 -39.45406,40.93191 -85.66273,87.31524 l -84.01578,84.33334 h 240.69228 240.69228 l 4.97046,4.09706 c 4.79658,3.95375 4.97046,4.39647 4.97046,12.65509 0,7.8601 -0.34232,8.88512 -4.19775,12.56958 l -4.19776,4.0116 H 365.80227 c -132.25792,0 -240.46893,0.39024 -240.46893,0.86722 0,0.47696 13.65,14.32065 30.33333,30.76374 61.19159,60.31043 136.60274,135.79837 139.0999,139.24154 3.11125,4.28991 3.28363,9.9475 0.47464,15.57826 -3.13853,6.29133 -6.79264,8.21592 -15.59913,8.21592 h -7.76459 z"
     style="fill:#e7e7e7;stroke-width:1.33333337" />
  <path
     inkscape:connector-curvature="0"
     id="path176"
     d="M 212.00001,490.44519 C 178.63334,457.37712 132.28334,411.47179 109,388.43333 l -42.333331,-41.88808 0.02336,-6.93929 0.02336,-6.93928 L 168.35669,230.27202 270,127.87737 l 7.36999,0.0613 c 8.37742,0.0697 12.1289,2.11198 15.20454,8.27724 2.47782,4.96689 2.6143,10.0192 0.37822,14.00148 -0.89068,1.58622 -39.52536,41.03622 -85.85486,87.66667 l -84.23545,84.7826 h 239.32311 c 174.30175,0 240.11435,0.40652 242.23545,1.49625 1.60178,0.82293 4.56234,3.03519 6.57901,4.91612 3.07191,2.86515 3.66667,4.5208 3.66667,10.20707 0,7.64388 -2.22254,11.72625 -8.01472,14.72151 -3.37503,1.74529 -33.58395,1.99976 -243.58574,2.05181 l -239.73289,0.0594 85.43823,84.94059 c 53.71724,53.40434 86.07416,86.53982 87.15104,89.24803 2.19091,5.5098 1.07436,9.79763 -4.07999,15.6681 -3.81269,4.34241 -4.67848,4.68749 -11.6474,4.64225 l -7.52854,-0.0489 z"
     style="fill:#d0d0d0;stroke-width:1.33333337" />
  <path
     inkscape:connector-curvature="0"
     id="path174"
     d="M 271.38041,548.6013 C 269.93964,547.51199 229.13331,507.18107 180.6997,458.97704 132.26609,410.773 86.79491,365.77645 79.652631,358.98469 L 66.666669,346.63605 v -6.93062 -6.93062 L 168.97169,230.38741 271.27669,128 h 6.25936 c 7.75477,0 13.69936,4.47194 15.95572,12.00302 1.39264,4.6482 1.21176,5.69096 -1.89105,10.90175 -1.88706,3.16904 -40.66919,42.96009 -86.18253,88.42455 -45.51333,45.46444 -82.75152,83.10962 -82.75152,83.65597 0,0.54633 108.94926,1.14815 242.10946,1.33736 l 242.10945,0.34403 3.89056,4.35437 c 3.15052,3.52612 3.89055,5.56868 3.89055,10.73844 0,5.56459 -0.60852,6.9739 -4.74059,10.97896 l -4.74059,4.5949 -241.29931,0.35106 -241.29933,0.35107 86.00467,85.44988 c 91.11759,90.52982 89.23212,88.40045 86.81218,98.04229 -0.48938,1.94984 -2.71887,5.25377 -4.95442,7.34209 -3.28208,3.06592 -5.25684,3.78879 -10.25697,3.75455 -3.40577,-0.0233 -7.37113,-0.93367 -8.81192,-2.02299 z"
     style="fill:#afafaf;stroke-width:1.33333337" />
  <path
     inkscape:connector-curvature="0"
     id="path172"
     d="M 246.13136,523.00883 C 230.65911,507.79702 186.50001,464.07308 148.00001,425.84452 109.5,387.61597 75.450003,354.09219 72.333336,351.34723 c -5.083747,-4.47744 -5.666667,-5.60648 -5.666667,-10.97558 v -5.98472 L 134.54851,265.5268 c 37.33502,-37.87307 83.43324,-84.31013 102.44051,-103.19346 L 271.5477,128 h 6.08515 c 10.24839,0 17.17741,8.70036 15.13871,19.00877 -0.68528,3.46496 -17.77166,21.41909 -85.95906,90.32457 l -85.10376,86 241.60749,0.66667 c 208.81239,0.57617 241.952,0.93032 244.14563,2.60904 5.24664,4.01509 7.14583,7.44618 7.17517,12.9627 0.024,4.51702 -0.82042,6.47306 -4.46112,10.33333 l -4.49076,4.7616 H 364.17591 c -145.34372,0 -241.50924,0.48629 -241.50924,1.22127 0,0.6717 38.39462,39.19636 85.32136,85.61036 61.79665,61.12143 85.72723,85.61892 86.79345,88.84954 1.94921,5.90617 0.60597,10.71132 -4.46859,15.9855 -3.47972,3.6166 -5.15187,4.33334 -10.10976,4.33334 -5.93667,0 -5.95828,-0.0176 -34.07177,-27.65786 z"
     style="fill:#919191;stroke-width:1.33333337" />
  <path
     inkscape:connector-curvature="0"
     id="path170"
     d="M 273.62406,548.88305 C 271.95062,547.95402 237.15062,513.91786 196.29073,473.24712 155.43083,432.57639 109.55,387.08865 94.333337,372.16328 68.284122,346.61272 66.669148,344.74289 66.709073,340.17979 c 0.02332,-2.66555 0.862716,-5.92823 1.865319,-7.25043 3.59538,-4.74144 197.855288,-199.24568 201.802578,-202.0564 2.21908,-1.58013 5.68544,-2.87296 7.70301,-2.87296 4.55402,0 12.30298,5.74683 14.0913,10.45048 3.52489,9.27117 5.45441,7.05675 -85.60073,98.23989 -46.88046,46.94636 -85.23721,85.79636 -85.23721,86.33333 0,0.53698 107.71927,0.97631 239.37617,0.97631 201.08332,0 240.08412,0.29581 243.80179,1.84915 5.41545,2.26272 10.15539,8.61389 10.15539,13.60751 0,4.51464 -4.82524,11.8838 -9.03831,13.80341 -2.12888,0.96997 -77.77268,1.4066 -243.6911,1.4066 -132.33217,0 -240.60394,0.16996 -240.60394,0.37769 0,0.20774 38.71788,39.05774 86.03972,86.33334 60.91418,60.85464 86.35387,87.12374 87.11548,89.95564 3.2306,12.01234 -10.3153,23.40618 -20.86448,17.5497 z"
     style="fill:#6a6a6a;stroke-width:1.33333337" />
  <path
     inkscape:connector-curvature="0"
     id="path168"
     d="m 267.75932,543.00002 c -4.61599,-4.21667 -49.38135,-48.46667 -99.47859,-98.33334 -50.09725,-49.86667 -92.104739,-91.14337 -93.349982,-91.72603 -2.935083,-1.37332 -8.2777,-9.55849 -8.216832,-12.58861 0.02599,-1.29361 0.789685,-3.68817 1.697109,-5.32125 2.810823,-5.05859 199.436195,-202.75925 203.842795,-204.95755 5.17048,-2.57938 7.35188,-2.49855 12.41286,0.45995 6.34089,3.70671 9.07774,12.05257 6.23961,19.02739 -0.49845,1.22497 -38.70628,40.43752 -84.90628,87.13897 -46.2,46.70147 -84.194,85.74922 -84.4311,86.77278 -0.36767,1.58719 35.01316,1.86101 240.46094,1.86101 217.56609,0 241.2388,0.20483 244.47289,2.11526 3.62531,2.14152 8.16395,8.69488 8.16395,11.78795 0,3.61026 -4.50619,10.44414 -8.48755,12.87186 -4.07353,2.48391 -10.25159,2.54843 -244.51246,2.55328 -132.18334,0.003 -240.36164,0.45499 -240.39623,1.00499 -0.0346,0.55 38.77002,39.47651 86.23248,86.50335 l 86.29537,85.50335 0.1008,6.98072 c 0.0941,6.51391 -0.24836,7.28271 -5.12129,11.49665 -7.59712,6.56974 -10.9234,6.07112 -21.01855,-3.15073 z"
     style="fill:#4c4c4c;stroke-width:1.33333337" />
  <path
     inkscape:connector-curvature="0"
     id="path166"
     d="m 275.33334,548.46623 c -2.2,-1.15153 -27.1,-25.09128 -55.33333,-53.19945 C 110.90648,386.65689 78.246396,354.45279 75.104308,352.394 c -1.791856,-1.17407 -4.422316,-4.41707 -5.845464,-7.20667 -2.195884,-4.30429 -2.341184,-5.63573 -0.959936,-8.79633 0.895184,-2.04837 36.228702,-38.52432 78.518922,-81.05766 42.29023,-42.53333 86.86966,-87.40083 99.06542,-99.70555 12.19576,-12.30472 24.33707,-23.58708 26.98069,-25.07192 4.4376,-2.49244 5.13172,-2.54542 9.0417,-0.69001 7.66837,3.63888 10.70832,9.39772 9.12906,17.294 -0.6315,3.15756 -17.9608,21.33392 -75.59368,79.28883 -41.12589,41.35567 -79.41682,79.77295 -85.09094,85.37172 -5.67412,5.59879 -10.32412,10.92323 -10.33333,11.83211 -0.0132,1.30718 50.66207,1.72512 242.51006,2 238.21094,0.3413 242.57786,0.39369 245.39557,2.9438 1.57783,1.42796 3.78379,4.52456 4.90215,6.88132 1.82646,3.849 1.82285,4.69215 -0.0356,8.28597 -1.13794,2.20052 -3.66188,5.25392 -5.60876,6.78534 l -3.53978,2.7844 H 362.56556 c -150.96241,0 -241.36771,0.47386 -241.85835,1.26773 -0.43093,0.69725 38.23366,40.10179 85.92132,87.56562 l 86.70481,86.29787 v 6.89441 c 0,7.44259 -1.22297,9.24232 -8.93378,13.14692 -5.0333,2.54876 -4.11331,2.55279 -9.06622,-0.0397 z"
     style="fill:#353535;stroke-width:1.33333337" />
</svg>
