<?xml version="1.0" encoding="UTF-8" standalone="no"?>
<!-- Created with Inkscape (http://www.inkscape.org/) -->

<svg
   xmlns:dc="http://purl.org/dc/elements/1.1/"
   xmlns:cc="http://creativecommons.org/ns#"
   xmlns:rdf="http://www.w3.org/1999/02/22-rdf-syntax-ns#"
   xmlns:svg="http://www.w3.org/2000/svg"
   xmlns="http://www.w3.org/2000/svg"
   xmlns:xlink="http://www.w3.org/1999/xlink"
   xmlns:sodipodi="http://sodipodi.sourceforge.net/DTD/sodipodi-0.dtd"
   xmlns:inkscape="http://www.inkscape.org/namespaces/inkscape"
   version="1.1"
   id="svg208"
   width="666.66669"
   height="666.66669"
   viewBox="0 0 666.66669 666.66669"
   sodipodi:docname="pelunasan.svg"
   inkscape:version="0.92.3 (2405546, 2018-03-11)">
  <metadata
     id="metadata214">
    <rdf:RDF>
      <cc:Work
         rdf:about="">
        <dc:format>image/svg+xml</dc:format>
        <dc:type
           rdf:resource="http://purl.org/dc/dcmitype/StillImage" />
        <dc:title></dc:title>
      </cc:Work>
    </rdf:RDF>
  </metadata>
  <defs
     id="defs212" />
  <sodipodi:namedview
     pagecolor="#ffffff"
     bordercolor="#666666"
     borderopacity="1"
     objecttolerance="10"
     gridtolerance="10"
     guidetolerance="10"
     inkscape:pageopacity="0"
     inkscape:pageshadow="2"
     inkscape:window-width="1366"
     inkscape:window-height="705"
     id="namedview210"
     showgrid="false"
     inkscape:zoom="0.35399999"
     inkscape:cx="333.33334"
     inkscape:cy="333.33334"
     inkscape:window-x="-8"
     inkscape:window-y="-8"
     inkscape:window-maximized="1"
     inkscape:current-layer="svg208" />
  <image
     sodipodi:absref="E:\Project-website\tanyabudi\public\assets\images\icon\pelunasan.png"
     xlink:href="pelunasan.png"
     y="0"
     x="0"
     id="image216"
     preserveAspectRatio="none"
     height="666.66669"
     width="666.66669" />
  <path
     inkscape:connector-curvature="0"
     id="path232"
     d="M 111.33334,581.72195 C 96.124651,578.00517 79.067384,563.24277 70.908517,546.73583 l -4.908515,-9.93084 V 376.66668 216.52837 l 5.087824,-10.29451 c 8.698637,-17.60049 22.724168,-29.46995 40.719534,-34.45991 7.66554,-2.12558 14.18342,-2.44061 50.49713,-2.44061 38.81114,0 41.69733,-0.16141 41.7217,-2.33333 0.0564,-5.01995 12.15128,-30.34465 20.3815,-42.67532 9.68249,-14.5065 27.72513,-33.235385 40.92565,-42.482227 17.35604,-12.157754 45.24338,-23.926217 64.10922,-27.054114 12.56839,-2.083798 48.35743,-1.832191 60.10683,0.422569 50.68693,9.727032 95.73835,45.905992 116.42748,93.498182 3.37135,7.75525 5.42203,10.8286 7.64815,11.46223 1.67292,0.47617 7.84166,2.21169 13.70833,3.85673 47.74234,13.38708 89.59007,53.11523 106.11661,100.74175 6.22425,17.93721 7.88358,28.95776 7.88182,52.34749 -10e-4,22.53514 -1.50176,32.97469 -7.21556,50.21605 -7.55417,22.79466 -19.3396,41.64326 -38.43153,61.46411 l -11.68467,12.13077 v 42.34344 c 0,34.20025 -0.40351,43.90063 -2.09821,50.4407 -2.50396,9.66312 -7.3644,19.60465 -13.06983,26.73301 -4.50363,5.62684 -16.93387,14.88713 -25.49863,18.99601 -5.18412,2.48704 -11.26466,2.56386 -217.33334,2.74544 -116.6,0.1028 -213.20001,-0.1064 -214.66667,-0.46488 z m 423.51943,-25.9257 c 7.18325,-3.26212 15.54718,-11.39578 19.58416,-19.04495 l 3.56309,-6.75128 0.42873,-36.33334 c 0.23708,-20.09134 -0.0908,-36.33333 -0.73333,-36.33333 -0.63913,0 -1.73207,0.56281 -2.42873,1.25068 -2.62234,2.58925 -23.07131,10.43613 -35.26667,13.53289 -11.2499,2.85667 -15.57478,3.21643 -38.66667,3.21643 -28.11985,0 -39.24863,-1.82459 -57.90024,-9.49288 -39.54687,-16.25901 -67.82579,-42.52732 -86.28132,-80.14679 -7.85918,-16.02003 -8.09755,-16.33172 -13.57571,-17.75203 -3.06684,-0.79512 -7.67607,-2.00393 -10.24274,-2.68622 -2.69725,-0.71702 -50.97172,-1.24368 -114.39007,-1.24798 l -109.723388,-0.007 0.390061,83.00001 0.39006,83 3.547611,6.66667 c 3.201401,6.01606 8.140206,11.5424 14.860126,16.62789 6.87817,5.20525 7.64123,5.22259 218.25894,4.95947 185.91383,-0.23227 203.74907,-0.44283 208.18609,-2.4578 z M 514.00002,447.65068 c 55.442,-13.33046 96.46229,-60.02373 102.16736,-116.29678 4.36292,-43.03449 -9.8328,-81.60708 -41.0148,-111.44537 -17.40597,-16.6559 -29.95303,-23.64607 -59.81923,-33.32624 -2.2,-0.71307 -11.05208,-2.00704 -19.67128,-2.87551 -32.51437,-3.27612 -61.53556,3.62027 -88.32872,20.98983 -13.69522,8.87838 -21.28994,15.69901 -31.20592,28.02532 -19.87192,24.7022 -29.47486,52.08188 -29.44214,83.94475 0.0404,39.31344 13.26459,70.30573 41.59612,97.48459 16.87508,16.18851 39.19518,28.44235 60.86146,33.41323 18.5816,4.26316 47.32605,4.30136 64.85715,0.0861 z M 259.18334,337.27173 C 247.91257,328.44008 232.75275,312.0306 224.44406,299.6688 l -8.73907,-13.00212 H 152.51917 89.333336 v 27.33333 27.33334 h 87.516674 87.51668 z m 62.81667,-20.27172 c 0,-18.60763 0.54769,-26.58548 2.32759,-33.9046 7.66428,-31.51629 21.21115,-55.57334 44.21496,-78.5186 28.69543,-28.62238 62.4359,-44.02336 103.1472,-47.08198 l 11.02307,-0.82816 -6.20211,-10.66666 c -8.80696,-15.1466 -18.75166,-27.03516 -30.56262,-36.53659 -19.15651,-15.410613 -31.79966,-21.948433 -53.62517,-27.729764 -11.23136,-2.975061 -15.78694,-3.447647 -33.65625,-3.491423 -21.48613,-0.05264 -29.35766,1.189334 -47.33334,7.46827 -45.92678,16.042297 -81.75857,60.892997 -87.04649,108.956167 -1.58154,14.37498 -0.53367,36.71511 2.27729,48.55073 8.9868,37.83928 35.35102,70.9174 70.7692,88.79132 8.30016,4.18871 20.52182,9.02177 23.33334,9.2272 0.84374,0.0616 1.33333,-8.83763 1.33333,-24.23591 z M 203.87505,255.66668 c -4.2082,-13.76763 -6.81955,-33.54539 -6.32792,-47.9263 l 0.45288,-13.24752 -40,0.42257 c -44.86967,0.47404 -45.10528,0.51786 -55.80124,10.37704 -10.105707,9.31512 -11.89319,14.76344 -12.58978,38.37421 l -0.599896,20.33333 h 58.706566 58.70655 z"
     style="fill:#cecece;stroke-width:1.33333337" />
  <path
     inkscape:connector-curvature="0"
     id="path230"
     d="M 108,579.73326 C 90.831251,573.19082 78.878857,562.13663 70.804957,545.33335 l -4.804955,-10 V 376.66668 218.00001 l 4.986496,-10.44328 C 77.464603,193.98954 88.962298,182.24866 102,175.88729 l 9.33334,-4.55395 45.95304,-0.66667 45.95305,-0.66666 3.46731,-9.33334 c 8.93819,-24.05996 20.78187,-42.81969 37.94323,-60.09999 31.08133,-31.296731 69.30657,-47.163745 113.73959,-47.212454 33.28312,-0.03648 61.5224,8.293184 88.27712,26.038882 27.20902,18.047015 52.61019,49.508852 61.34844,75.985992 1.25975,3.81709 2.42514,4.80233 7.07976,5.98543 32.97171,8.38062 55.81365,20.56717 77.40761,41.29822 24.37362,23.39967 40.25719,52.56758 46.8104,85.96066 3.13956,15.99825 2.22149,51.32804 -1.69885,65.3766 -9.0871,32.56351 -26.57718,61.9688 -47.48082,79.82735 l -7.34132,6.27187 -0.39593,47.61707 -0.39595,47.61705 -4.89361,10.24772 c -8.00704,16.76751 -21.18134,28.71056 -38.08612,34.52666 -7.21278,2.48156 -13.73272,2.55685 -215.56235,2.48948 C 115.4647,582.52778 115.32871,582.52598 108,579.73326 Z m 425.47907,-23.11991 c 8.96996,-2.97214 16.3823,-9.98401 21.46495,-20.30525 l 4.38933,-8.91332 0.46291,-35.03072 c 0.33608,-25.43243 0.0499,-35.03071 -1.04432,-35.03071 -0.82899,0 -4.33729,1.4296 -7.79624,3.17689 -18.047,9.11642 -46.63659,15.4909 -69.46367,15.48795 -61.29183,-0.008 -116.15203,-34.38948 -144.15943,-90.34656 -2.93292,-5.8598 -5.33259,-11.55514 -5.33259,-12.65631 0,-2.97993 -2.36037,-4.30609 -12.66667,-7.11671 -8.83508,-2.40938 -15.24114,-2.54526 -120,-2.54526 H 88.66667 l -0.344179,77.03329 c -0.382693,85.65378 -0.02256,90.4417 7.640388,101.57942 6.235161,9.06251 17.099411,15.64204 28.037121,16.97965 1.83334,0.2242 93.33334,0.25383 203.33334,0.0659 175.17198,-0.29937 200.76295,-0.59461 206.14573,-2.37817 z m -30.14572,-106.4514 c 12.78229,-1.9378 29.0778,-7.03785 40,-12.51891 22.79003,-11.43667 45.75266,-33.75063 58.61504,-56.95925 16.08247,-29.0189 20.12106,-70.14945 10.09474,-102.80885 -12.36452,-40.2758 -43.21443,-72.87337 -82.55372,-87.23044 -17.03629,-6.21748 -29.42497,-8.32447 -48.82273,-8.30349 -21.51029,0.0232 -39.19388,4.00694 -57.92559,13.04918 -16.56084,7.99434 -26.43798,15.20588 -39.41628,28.77883 -12.27652,12.83901 -18.96733,22.45454 -25.31124,36.37532 -34.69052,76.12333 6.54823,164.27249 87.37167,186.75982 17.08343,4.75308 38.48439,5.80851 57.94811,2.85779 z M 262.43126,338.96699 C 249.28434,330.1062 229.7725,308.75013 221.30962,293.95856 l -4.17199,-7.29188 H 152.56882 88.000003 v 27.32374 27.32375 l 87.666667,0.34292 c 48.21667,0.1886 88.16074,0.13027 88.76459,-0.1296 0.60387,-0.25989 -0.29613,-1.41212 -2,-2.56048 z m 60.10192,-4.56967 c -3.68978,-25.93062 2.55423,-61.93062 15.10081,-87.06398 15.53697,-31.12377 41.79688,-57.18784 73.03269,-72.48804 20.61723,-10.09891 33.5815,-13.81579 56.66667,-16.24643 8.06667,-0.84934 14.88936,-1.75424 15.16153,-2.01088 0.27218,-0.25662 -1.45109,-3.94392 -3.82949,-8.19396 -20.90043,-37.34777 -57.00346,-63.183036 -97.33204,-69.650651 -12.0053,-1.925323 -35.98771,-1.67591 -48.19445,0.501214 -48.61065,8.669919 -90.20936,45.338487 -104.40711,92.033137 -4.47992,14.7339 -6.23616,26.96489 -6.17241,42.98644 0.19051,47.87681 28.66167,94.39915 71.38448,116.64343 10.5523,5.49421 27.31959,11.89743 28.82532,11.00803 0.42304,-0.24988 0.31684,-3.63312 -0.236,-7.51831 z M 206.66667,264.96944 c 0,-0.20016 -1.56113,-6.35016 -3.46918,-13.66667 -2.74015,-10.5072 -3.65079,-17.92603 -4.33334,-35.30276 l -0.86414,-22 -39.33334,0.0598 c -36.85071,0.056 -39.71267,0.23363 -45.34335,2.81404 -12.96707,5.94249 -20.368814,15.3022 -23.396034,29.58489 -1.912274,9.02227 -2.65971,36.36443 -1.038394,37.98574 0.820332,0.82033 117.777778,1.34165 117.777778,0.52499 z"
     style="fill:#b4b4b4;stroke-width:1.33333337" />
  <path
     inkscape:connector-curvature="0"
     id="path228"
     d="M 109.93164,580.08031 C 88.991388,572.60454 76.408772,560.00267 68.834756,538.92055 l -3.50142,-9.74612 0.01018,-152.25388 c 0.0097,-145.49978 0.122033,-152.62165 2.531485,-160.54444 6.359605,-20.9117 21.959846,-36.71744 42.502609,-43.06245 7.78771,-2.40537 12.44184,-2.64699 50.98901,-2.64699 h 42.41907 l 2.25536,-7 c 4.03197,-12.51408 14.95657,-33.65 22.97304,-44.44613 52.16395,-70.251496 145.75766,-86.52812 219.65258,-38.199177 12.08342,7.902824 34.32078,30.287567 42.47584,42.757327 6.35512,9.71755 15.81409,28.08732 17.20861,33.41996 0.40099,1.53334 1.53602,3.04285 2.52231,3.35446 0.98629,0.3116 7.49325,2.14883 14.45991,4.08271 68.19575,18.93048 116.00001,81.817 116.00001,152.59803 0,41.58356 -15.7409,79.44732 -45.98591,110.61627 l -12.54814,12.93147 -0.44353,45.94255 c -0.50152,51.94989 -0.74614,53.49524 -10.8056,68.2582 -6.64344,9.74972 -18.68739,19.40803 -29.78452,23.88485 l -7.76564,3.13283 -208.66668,0.24237 c -198.05274,0.23004 -209.00925,0.12007 -215.4017,-2.16208 z M 536.7513,555.77026 c 8.09708,-4.27336 15.72373,-12.38217 19.63596,-20.87735 2.66797,-5.79333 2.89988,-8.75236 3.33544,-42.55956 0.25747,-19.98333 0.1052,-36.33333 -0.33827,-36.33333 -0.44352,0 -3.72601,1.47948 -7.29442,3.28773 -9.27902,4.70204 -19.26279,8.38484 -30.75666,11.34547 -74.87324,19.28616 -154.672,-19.08879 -185.4611,-89.18759 -8.38809,-19.09752 0.36622,-17.90888 -135.58679,-18.40956 l -112.381213,-0.41387 0.381211,83.02224 c 0.375494,81.77711 0.424233,83.11429 3.249772,89.15949 5.348604,11.44324 16.72687,21.31682 27.57408,23.9276 2.32322,0.55917 95.72403,0.92333 207.55737,0.80925 l 203.33334,-0.20743 z M 506.88272,450.12728 c 21.60379,-4.13514 39.59978,-12.15194 57.59401,-25.65684 24.5204,-18.40287 41.74553,-44.33407 49.80545,-74.97859 4.35992,-16.57677 4.95792,-44.49879 1.28841,-60.15851 -6.77952,-28.93174 -19.13058,-50.43838 -40.70278,-70.87487 -17.97055,-17.02445 -39.68992,-28.41846 -64.86779,-34.02977 -16.80639,-3.74559 -45.41392,-3.11585 -62.66667,1.37945 -60.43482,15.74667 -102,69.4145 -102,131.69961 0,59.01104 39.18053,111.50022 96.42799,129.18216 4.61382,1.42506 11.655,3.13267 15.64705,3.79468 11.46687,1.9016 38.7004,1.70491 49.47433,-0.35732 z M 265.33334,341.48669 c 0,-0.64898 -1.53226,-2.18397 -3.40504,-3.41105 -11.23713,-7.36286 -27.8686,-25.29576 -38.6686,-41.69446 l -7.293,-11.07368 -63.65001,0.34626 -63.65002,0.34625 -0.362507,26.62905 c -0.199379,14.64598 -0.06821,27.39598 0.291487,28.33334 0.521756,1.35968 18.45603,1.70428 88.69585,1.70428 50.17795,0 88.04184,-0.50748 88.04184,-1.17999 z m 57.84166,-8.48668 c -0.36843,-5.31667 -0.87392,-10.70353 -1.12331,-11.97083 -0.94364,-4.79513 2.02424,-32.21364 4.55484,-42.07964 16.99371,-66.25287 75.54352,-115.65383 141.93639,-119.75777 6.66807,-0.41218 12.86555,-0.97695 13.77218,-1.25507 3.81561,-1.17045 -14.08954,-28.59256 -27.02259,-41.38563 -19.14223,-18.935059 -41.32627,-30.973302 -69.05456,-37.472694 -11.86106,-2.78018 -42.02147,-3.073335 -53.57127,-0.520705 -36.5468,8.077237 -67.77991,28.648639 -87.43034,57.585169 -5.82426,8.57661 -15.61312,28.16318 -16.25456,32.52383 -0.21573,1.46667 -0.74696,3.26667 -1.18051,4 -2.96685,5.01848 -5.66477,24.22787 -5.6179,40 0.0615,20.69176 3.81273,37.81891 12.20626,55.73023 15.71706,33.53934 44.34179,59.44662 79.61038,72.05265 9.83372,3.51486 9.92939,3.43718 9.17499,-7.44954 z M 206.92131,264.63425 c 0.38451,-0.38449 -0.35916,-3.90684 -1.65257,-7.82744 -4.17332,-12.65017 -6.81656,-32.30667 -6.45624,-48.0118 l 0.33944,-14.795 h -40.57596 c -39.85777,0 -40.687,0.0552 -46.84849,3.11825 -7.69685,3.82632 -16.349959,12.98969 -20.127312,21.31419 -2.384216,5.25432 -2.911876,9.43026 -3.35699,26.56756 l -0.528124,20.33333 h 59.253586 c 32.58946,0 59.56817,-0.31458 59.95266,-0.69909 z"
     style="fill:#909090;stroke-width:1.33333337" />
  <path
     inkscape:connector-curvature="0"
     id="path226"
     d="m 112,580.09625 c -16.869417,-5.3534 -30.0734,-15.79478 -37.991163,-30.04244 -9.067949,-16.31738 -8.675501,-8.47396 -8.675501,-173.38713 0,-131.17796 0.250329,-149.91447 2.09821,-157.04569 5.558158,-21.44962 19.153752,-36.53696 40.908594,-45.39718 6.51951,-2.65523 10.01045,-2.89475 51.53797,-3.53598 l 44.54478,-0.68782 2.96582,-8.79704 c 12.91328,-38.30261 43.74674,-73.171964 80.53377,-91.075134 29.6926,-14.450518 64.14652,-19.847642 94.07753,-14.737022 25.63019,4.376269 49.99371,14.226258 69.55599,28.120968 22.81875,16.20772 45.21507,44.562738 54.45164,68.938868 2.69651,7.11633 5.53496,9.48633 12.90798,10.77762 13.81796,2.42004 37.67327,12.94564 53.0844,23.42228 13.80811,9.38688 32.612,28.4929 42.17564,42.85327 22.741,34.14696 31.60286,74.89227 24.6356,113.2703 -6.16852,33.97843 -20.40028,61.39548 -44.46856,85.66733 l -11.67601,11.77478 -0.0197,42.22523 c -0.0215,45.8486 -0.79748,52.69957 -7.45904,65.84551 -4.75302,9.37966 -16.34834,21.21122 -25.57366,26.09472 -16.74144,8.8622 -1.09535,8.29752 -226.1896,8.16337 C 133.1473,582.43167 118.83698,582.26593 112,580.09625 Z m 425.05534,-23.81822 c 7.75299,-4.1398 15.15051,-11.79624 19.04747,-19.71413 3.14718,-6.39449 3.24114,-7.51867 3.64113,-43.56388 0.22581,-20.35 -0.0161,-37 -0.53755,-37 -0.52146,0 -4.90622,1.87213 -9.74392,4.1603 -20.96108,9.91434 -42.37176,14.52071 -67.30377,14.47995 -19.32719,-0.0316 -29.49366,-1.37483 -45.4897,-6.01031 -32.89505,-9.5326 -62.61075,-30.32425 -83.61573,-58.50473 -7.247,-9.72263 -21.05326,-35.32234 -21.05326,-39.03716 0,-2.24167 -1.2996,-2.85239 -12.29156,-5.77622 -9.22807,-2.45462 -15.20261,-2.58396 -120.74688,-2.61378 l -111.038456,-0.0314 0.371778,83.66667 0.371778,83.66667 3.277077,6.61041 C 97.367862,547.55176 107.52959,556.19058 118,558.7617 c 2.2,0.54023 96.10001,0.88986 208.66668,0.77694 l 204.66667,-0.2053 z M 515.34368,448.63412 c 53.12775,-13.14248 93.55523,-57.73804 102.10686,-112.63411 2.01571,-12.93956 0.71565,-39.08399 -2.5526,-51.33333 -10.5634,-39.59135 -36.40791,-71.40418 -72.57939,-89.34029 -31.46632,-15.60298 -70.71244,-18.2909 -104.03895,-7.1255 -20.70077,6.9354 -35.56837,15.96653 -51.77443,31.4497 -35.01453,33.4527 -49.75385,84.38818 -37.75265,130.46393 6.01691,23.10043 18.45341,44.83203 35.48201,62.00136 22.21724,22.40084 50.95442,36.25359 83.76549,40.3791 10.45106,1.31406 34.27964,-0.62915 47.34366,-3.86086 z M 265.773,341.78257 c 0.48625,-0.48625 -0.82406,-1.92289 -2.91182,-3.19253 -10.89052,-6.62292 -30.67751,-28.41014 -40.79907,-44.92336 l -5.1078,-8.33334 H 152.47715 88.000003 v 28.66667 28.66667 h 88.444447 c 48.64445,0 88.84229,-0.39784 89.32855,-0.88411 z m 57.56034,-23.449 c 0,-25.2204 1.04454,-32.55496 7.4693,-52.44835 11.63895,-36.03841 41.81523,-70.86743 77.19737,-89.10005 20.15895,-10.38802 49.77075,-18.08595 69.66667,-18.11063 3.48334,-0.004 6.33334,-0.33177 6.33334,-0.72765 0,-4.20123 -15.27342,-27.5757 -24.59659,-37.64269 C 419.43455,77.146568 357.36867,64.244958 302.89117,87.770056 c -37.83715,16.339264 -65.35238,48.559124 -77.05491,90.229954 -3.37049,12.00177 -3.74403,15.39726 -3.74033,34 0.004,18.27478 0.416,22.15989 3.56304,33.56865 6.58584,23.87522 17.14557,42.63282 33.52837,59.55762 15.54478,16.05904 27.04787,23.8583 48.81267,33.09575 16.45732,6.98482 15.33333,8.44273 15.33333,-19.88846 z M 207.98982,265.00001 c -0.005,-0.18333 -1.20096,-4.23333 -2.65635,-9 -4.20128,-13.76003 -7.08012,-37.63483 -6.15806,-51.07015 l 0.80548,-11.73681 -41.65711,0.40348 c -40.47923,0.39206 -41.8189,0.48986 -47.3791,3.4588 -7.75298,4.1398 -15.150509,11.79624 -19.047462,19.71413 -2.924592,5.94224 -3.273212,8.55273 -3.681026,27.56388 l -0.450476,21 h 60.117144 c 33.06443,0 60.11256,-0.15 60.10696,-0.33333 z"
     style="fill:#737373;stroke-width:1.33333337" />
  <path
     inkscape:connector-curvature="0"
     id="path224"
     d="M 114,580.5355 C 96.914517,575.92182 79.748659,562.29153 73.025143,548.00002 65.022561,530.98973 65.333336,537.91217 65.333336,376.66668 c 0,-160.98225 -0.291107,-154.41171 7.578716,-171.05846 4.561724,-9.64925 16.014278,-21.64243 25.48937,-26.69259 13.855048,-7.38466 20.435928,-8.20737 65.825968,-8.22925 l 40.89407,-0.0197 0.93752,-4.33333 c 1.77524,-8.20533 12.33575,-30.29428 20.06479,-41.96864 14.54537,-21.97009 40.82276,-44.724489 63.35737,-54.863102 20.82747,-9.370548 49.45905,-16.168263 68.09975,-16.168263 16.68392,0 42.9933,5.169432 58.61474,11.516994 22.72967,9.235888 38.44583,19.532429 54.16023,35.483421 17.32305,17.58385 25.44204,29.36064 34.31882,49.78031 4.66816,10.73839 6.17952,12.49841 10.76158,12.5322 4.47236,0.0329 27.11907,7.95868 37.18765,13.01464 31.37975,15.75741 56.62851,41.07183 71.39827,71.58391 8.3843,17.32069 11.25526,26.19801 14.59048,45.11541 3.26592,18.52427 3.40631,28.73927 0.63203,45.98749 -6.05701,37.6576 -20.44206,65.88256 -46.75192,91.7322 l -9.58082,9.41323 -0.51814,45.25344 c -0.49206,42.97292 -0.67144,45.69019 -3.55971,53.92011 -7.44493,21.21384 -22.74353,35.67214 -43.97477,41.55938 -8.3646,2.31944 -18.86538,2.4324 -211.49713,2.27514 C 157.76398,582.36601 119.44654,582.00625 114,580.5355 Z m 422.19307,-23.62084 c 8.22796,-4.09505 15.47116,-11.29716 19.39235,-19.28231 l 3.74793,-7.63233 0.66667,-36.66667 c 0.36667,-20.16667 0.48561,-37.10963 0.26432,-37.65101 -0.22129,-0.5414 -3.82129,0.73365 -8,2.83344 -10.03721,5.04368 -23.80272,9.87857 -36.93099,12.97136 -15.14763,3.56852 -53.02773,3.58341 -67.33333,0.0265 -15.39059,-3.82669 -24.15493,-6.84548 -34.85473,-12.00539 -32.95426,-15.89194 -60.20102,-43.20181 -75.33373,-75.50823 -3.26327,-6.96666 -6.39675,-13.52784 -6.96328,-14.58038 -0.56654,-1.05256 -6.38916,-3.26128 -12.93916,-4.90827 -11.84007,-2.97717 -12.53623,-2.99507 -120.07919,-3.08628 -91.37184,-0.0775 -108.411596,0.19928 -109.725324,1.78223 -2.263587,2.72745 -1.331104,160.77718 0.989394,167.69579 4.046243,12.06395 16.27417,24.40843 27.39228,27.65336 2.46295,0.71884 88.53802,1.12905 209.51373,0.99849 195.38969,-0.21086 205.56869,-0.33873 210.19306,-2.64029 z M 511.33335,450.01784 c 13.66608,-3.13173 28.99148,-9.2433 41.10535,-16.3923 12.21807,-7.21049 30.27079,-23.63583 39.88789,-36.29219 8.42338,-11.08538 18.74982,-32.32279 22.36694,-46 3.49274,-13.20698 4.86896,-38.68199 2.88116,-53.33334 -3.89424,-28.703 -17.61992,-55.58872 -39.49534,-77.363 -22.25816,-22.15527 -46.97984,-34.03592 -80.07933,-38.48422 -21.00712,-2.82317 -37.20638,-1.3386 -58.66667,5.37651 -21.3616,6.68423 -40.17223,18.69021 -57.42955,36.65473 -24.99333,26.01755 -37.07052,56.10242 -37.12599,92.48265 -0.0271,17.74647 1.29699,26.77136 6.16182,42 15.43585,48.3196 60.13257,85.88646 111.06039,93.3444 11.22268,1.64347 38.22436,0.55251 49.33333,-1.99324 z M 324.91082,347.75001 c -0.42562,-1.06364 -0.74157,-0.7477 -0.80554,0.80556 -0.0579,1.40555 0.25722,2.19306 0.70029,1.75 0.44305,-0.44305 0.49041,-1.59306 0.1052,-2.55556 z m -1.4817,-28.75 c 0.0747,-26.77199 1.73889,-37.20619 9.01982,-56.54985 14.14097,-37.56906 43.97447,-70.40249 79.55107,-87.55035 18.00965,-8.68063 49.35801,-16.23314 67.37918,-16.23314 2.54145,0 4.62083,-0.6184 4.62083,-1.37422 0,-2.26008 -10.50427,-20.1329 -16.0404,-27.29245 -2.83526,-3.66666 -9.23604,-10.65358 -14.22398,-15.52648 -25.84139,-25.245462 -58.19881,-38.320947 -95.06896,-38.416928 -16.7568,-0.04363 -27.72336,1.548268 -41.88158,6.079466 -49.65398,15.891272 -86.81195,59.344522 -94.25073,110.218652 -2.11386,14.45678 -0.86244,38.71176 2.73338,52.97863 3.98132,15.7963 15.33934,38.3571 25.92823,51.50212 11.23122,13.94236 28.91063,28.30067 44.13736,35.84608 9.81604,4.86422 24.21386,10.77207 27.34639,11.22105 0.37384,0.0536 0.71107,-11.15258 0.74939,-24.90258 z m -56.83911,22.66667 c -0.0421,-0.55 -4.00128,-4 -8.79803,-7.66667 -11.86666,-9.07096 -23.1792,-21.57911 -32.87171,-36.34587 l -8.10349,-12.34585 -64.74172,0.34585 -64.741724,0.34587 -0.399081,26.53375 c -0.219495,14.59354 -0.08832,27.34355 0.291487,28.33333 0.570156,1.4858 16.274738,1.79959 90.065758,1.79959 49.15635,0 89.34067,-0.45 89.29851,-1 z m -60.14494,-76.16816 c 1.45644,-0.92324 1.30014,-2.79028 -0.86338,-10.31292 -4.42378,-15.38166 -4.56879,-16.44747 -5.42202,-39.85226 l -0.82633,-22.66667 -34.57447,-0.35633 c -19.19373,-0.19781 -37.79776,0.23952 -41.82012,0.98309 -19.11777,3.53412 -31.317891,16.0721 -34.908967,35.87568 -1.801031,9.93209 -1.609747,33.46438 0.291253,35.8309 1.034203,1.28745 14.422344,1.66203 58.842224,1.64625 31.62688,-0.0107 58.30369,-0.52772 59.28181,-1.14774 z"
     style="fill:#686868;stroke-width:1.33333337" />
  <path
     inkscape:connector-curvature="0"
     id="path222"
     d="m 113.97918,580.12558 c -12.54747,-3.52259 -20.370363,-7.91284 -28.501317,-15.99508 -9.016099,-8.96209 -13.689222,-17.32607 -17.384207,-31.11433 -2.712047,-10.12033 -2.76032,-12.85461 -2.76032,-156.34949 0,-142.63023 0.06345,-146.28579 2.710488,-156.16353 6.328503,-23.61554 18.896094,-37.83364 40.341426,-45.63945 9.51543,-3.46348 10.04864,-3.50339 51.61476,-3.86281 23.1,-0.19975 42.66786,-0.35667 43.48414,-0.3487 0.81628,0.008 2.54703,-3.43552 3.8461,-7.65218 1.29908,-4.21667 5.0311,-13.0408 8.29341,-19.60918 18.30003,-36.84559 46.35279,-62.627849 85.41202,-78.499033 12.42225,-5.047616 44.28659,-11.558462 56.56757,-11.558462 7.25759,0 27.76806,3.011463 40.21384,5.904423 44.43562,10.328838 86.78778,45.760062 105.30369,88.095582 6.19636,14.16761 7.00529,15.33333 10.64036,15.33333 4.60614,0 24.6208,6.56107 35.41764,11.61038 47.61015,22.26558 81.66671,67.65337 89.45403,119.21696 2.74716,18.19029 3.06073,26.28209 1.45025,37.42311 -6.17848,42.74164 -19.60577,70.87491 -46.63353,97.70804 l -11.93818,11.85219 -0.42233,47.428 -0.42233,47.428 -4.91342,10.33371 c -8.49429,17.86487 -23.2254,29.65693 -43.52761,34.84329 -7.60435,1.9426 -28.35336,2.142 -209.33334,2.01167 -184.22718,-0.13267 -201.55769,-0.33148 -208.91314,-2.39644 z m 420.75525,-22.26644 c 7.39722,-3.42269 15.22892,-10.13129 19.23403,-16.4758 6.33481,-10.03499 7.36489,-17.37921 7.36489,-52.50984 0,-17.99386 -0.52788,-33.04235 -1.17305,-33.4411 -0.64519,-0.39873 -3.79519,0.62952 -7,2.28504 -10.04136,5.18706 -20.1724,8.87087 -34.57467,12.57191 -12.26369,3.15148 -16.5352,3.5848 -35.91895,3.64375 -13.78897,0.042 -24.98582,-0.60106 -30,-1.72279 -56.18565,-12.56945 -96.70187,-45.2314 -117.53741,-94.75218 l -4.20407,-9.99201 -12.4626,-3.0658 -12.46259,-3.06581 -109.33334,0.33276 -109.333334,0.33274 -0.343938,79.95565 c -0.2986,69.41542 -0.06791,80.90514 1.749984,87.15848 4.666595,16.05252 15.873688,26.91909 31.927288,30.9572 2.2,0.55339 94.9,0.91372 206.00001,0.80075 l 202.00001,-0.2054 z M 519.81946,448.0499 c 23.35873,-7.04127 40.6626,-17.14162 57.56089,-33.59861 22.74315,-22.14917 35.8303,-47.8171 40.76327,-79.9493 1.99868,-13.01894 2.10379,-17.07551 0.75524,-29.14626 -3.84357,-34.40341 -17.78692,-63.14151 -41.73771,-86.02396 -27.14914,-25.93815 -58.53035,-38.55055 -95.8278,-38.51411 -28.85964,0.0281 -51.04492,6.67179 -75.69096,22.6664 -28.86094,18.72997 -50.26143,49.61339 -58.56486,84.51595 -3.27136,13.75077 -3.23238,46.34744 0.0701,58.66667 10.85593,40.49532 30.88016,67.01605 67.75172,89.73259 6.2783,3.86805 25.46972,11.19464 35.10061,13.40013 14.04706,3.2168 15.78636,3.35278 36.66667,2.86648 17.04385,-0.39693 20.96984,-0.94356 33.15277,-4.61598 z M 326.66668,348.74537 c 0,-1.05672 -0.6,-2.29213 -1.33334,-2.74536 -0.73333,-0.45322 -1.33333,0.41136 -1.33333,1.92131 0,1.50995 0.6,2.74536 1.33333,2.74536 0.73334,0 1.33334,-0.86459 1.33334,-1.92131 z m -2.71704,-12.17301 c -0.33896,-3.61479 -0.50878,-14.07235 -0.37735,-23.23902 0.35028,-24.43322 4.79313,-43.3598 15.1959,-64.73449 14.93742,-30.69214 41.05428,-57.21408 71.23182,-72.33667 18.97329,-9.50789 44.80329,-16.13785 63.33334,-16.25617 10.4904,-0.0669 11.84585,-1.23459 8.81572,-7.59387 -4.59976,-9.65338 -16.51219,-26.44195 -24.5376,-34.58162 -22.40893,-22.727982 -48.32679,-36.004822 -80.27812,-41.123785 -15.80036,-2.531394 -21.28488,-2.534047 -37.97602,-0.01837 -35.42059,5.338574 -66.94885,23.392755 -88.74144,50.816435 -15.97118,20.09803 -25.08398,42.00449 -28.63179,68.82854 -1.87889,14.2058 -1.87636,17.16669 0.0272,31.75335 5.85969,44.90135 32.62876,83.69571 71.8312,104.09945 11.33278,5.89839 27.24655,12.03706 29.44046,11.35653 0.70693,-0.21928 1.00625,-3.34883 0.66666,-6.97031 z m -57.28296,4.98701 c 0,-0.60901 -2.83128,-3.14057 -6.29174,-5.62569 -10.38138,-7.45535 -25.4292,-23.7872 -34.64413,-37.60034 l -8.67248,-13 H 151.8625 86.66667 v 27.77778 c 0,15.27778 0.4,28.17779 0.888889,28.66667 1.304109,1.30412 179.111121,1.08728 179.111121,-0.21842 z m -59.04914,-78.55936 c -0.37681,-2.01667 -2.02803,-8.76667 -3.66935,-15 -2.64296,-10.03728 -4.06892,-29.64751 -3.9561,-54.40542 0.007,-1.40018 -7.84556,-1.6598 -40.32542,-1.33333 -37.72078,0.37915 -40.72636,0.58727 -46.40107,3.21296 -12.13911,5.61676 -20.604733,15.4918 -24.486533,28.56324 -2.145284,7.22396 -3.101979,39.86186 -1.223508,41.74032 0.488888,0.4889 27.856991,0.8889 60.818011,0.8889 h 59.9291 z"
     style="fill:#4d4d4d;stroke-width:1.33333337" />
  <path
     inkscape:connector-curvature="0"
     id="path220"
     d="m 116.18168,579.90357 c -13.3024,-3.43404 -20.631311,-7.281 -29.556309,-15.51422 -9.34694,-8.62242 -15.077498,-19.17349 -18.585965,-34.22034 -2.629413,-11.27683 -2.70604,-15.61726 -2.70498,-153.22064 0.0012,-155.43375 -0.140025,-152.43776 8.01333,-169.9985 5.580584,-12.01949 16.755907,-23.22712 29.250524,-29.33506 l 10.06839,-4.92191 46.25162,-0.45139 46.25161,-0.4514 2.85435,-8.89505 c 6.37762,-19.87467 19.45821,-41.67999 35.01948,-58.3774 21.9994,-23.605597 53.44919,-40.89596 84.30508,-46.348985 22.50579,-3.977345 30.58495,-4.603941 42.1325,-3.26767 12.6447,1.46323 38.48437,7.115655 44.5187,9.738461 27.20479,11.824479 40.9191,20.839697 57.99926,38.126304 14.21573,14.38754 24.70049,30.05162 31.46652,47.01053 l 4.34489,10.89037 7.09467,2.21531 c 3.90207,1.21841 10.69467,3.26507 15.09467,4.54812 4.4,1.28304 8.9,2.79948 10,3.36987 1.1,0.57038 5.55929,2.59057 9.90953,4.4893 28.44388,12.4148 59.28103,42.50972 72.88379,71.12955 3.02744,6.36966 5.94451,12.48119 6.48236,13.58119 3.55671,7.27397 7.32434,24.00164 10.60783,47.09701 1.36669,9.61302 -0.59628,30.06246 -4.5026,46.90617 -6.39569,27.57772 -24.45068,58.52325 -45.28174,77.61113 l -8.76584,8.03231 v 42.63008 c 0,37.91851 -0.28769,43.75496 -2.60308,52.808 -6.10274,23.86155 -23.98529,39.99282 -50.48409,45.5401 -8.51871,1.78332 -34.60446,2.02741 -206.00001,1.92762 -188.3003,-0.10962 -196.6437,-0.21688 -206.06449,-2.64886 z m 421.12798,-22.57022 c 7.93903,-4.42805 16.27984,-13.08308 20.18405,-20.94438 3.08127,-6.2043 3.18482,-7.47758 3.58247,-44.05562 0.25736,-23.67368 -0.07,-37.66667 -0.88116,-37.66667 -0.70985,0 -5.77492,2.1 -11.25569,4.66667 -5.48078,2.56667 -10.81426,4.66667 -11.85218,4.66667 -1.03792,0 -2.45713,0.50514 -3.1538,1.12254 -0.69666,0.6174 -5.16666,2.10286 -9.93333,3.301 -32.21458,8.09743 -64.60315,7.18167 -93.21815,-2.63565 -43.00803,-14.75533 -80.92846,-50.03438 -95.07724,-88.45456 -1.48532,-4.03334 -3.22651,-7.90334 -3.86927,-8.6 -0.64278,-0.69667 -1.16868,-2.54667 -1.16868,-4.11111 0,-1.56445 -0.43198,-3.27643 -0.95995,-3.8044 -0.52797,-0.52797 -0.97797,-2.12024 -1,-3.53837 -0.0568,-3.65626 -2.62072,-3.88498 -3.13279,-0.27946 -0.23433,1.65 0.21567,3 1,3 0.78434,0 1.42607,1.26812 1.42607,2.81806 0,2.60629 -0.47593,2.74669 -6.33333,1.86841 -3.48334,-0.52231 -7.3439,-1.49044 -8.57902,-2.1514 -1.2821,-0.68609 -50.35636,-1.20173 -114.37151,-1.20173 H 86.59033 l 0.371504,84.33333 0.371502,84.33334 3.183711,6.41179 c 5.21874,10.51018 16.501163,20.15262 28.149623,24.05788 1.1,0.36877 94.4,0.56397 207.33334,0.43376 l 205.33334,-0.23676 z m -28.64298,-105.9342 c 16.42722,-3.73595 25.78291,-7.06484 36.92529,-13.13855 31.24986,-17.03432 53.67612,-42.31003 65.52793,-73.85387 6.97435,-18.56234 8.11591,-25.15373 8.15259,-47.07339 0.0355,-21.18797 -1.03995,-28.03401 -7.15739,-45.56392 -13.82743,-39.62329 -48.87072,-73.12801 -89.44842,-85.52119 -50.2363,-15.34309 -103.27841,-1.87049 -139.55345,35.44635 -22.46123,23.1063 -33.65655,45.93578 -38.49854,78.5062 -1.92376,12.9405 -2.0186,17.064 -0.65468,28.4659 2.98467,24.95081 9.66128,43.65377 22.59812,63.30335 13.73746,20.8656 37.58426,41.06979 59.44188,50.36208 15.49462,6.5872 22.61379,8.45329 44.00001,11.53337 6.68953,0.96344 30.17165,-0.53436 38.66666,-2.46633 z m -182,-101.16704 c 0,-0.97235 -0.9285,-8.32235 -2.06332,-16.33334 -6.01554,-42.46485 10.76209,-92.09757 42.38608,-125.38942 9.50817,-10.00962 27.54137,-23.54649 40.68348,-30.53957 17.97483,-9.56465 41.47942,-16.08692 63.07275,-17.50201 7.34168,-0.48114 13.67317,-1.40008 14.06996,-2.04211 1.31071,-2.12076 -11.99467,-23.99255 -20.86511,-34.29873 -20.42874,-23.73525 -43.29567,-37.515155 -77.95051,-46.97397 -10.28168,-2.806319 -45.54453,-2.427284 -57.33333,0.616267 -32.1496,8.300159 -53.69171,21.451422 -75.71259,46.221853 -13.51997,15.2081 -22.79844,33.29841 -29.06874,56.67559 -4.17458,15.56387 -4.55762,45.20024 -0.77548,60.00001 8.9387,34.97757 25.92211,60.64778 54.01083,81.63668 9.85934,7.36725 29.38684,17.38521 39.87931,20.4588 4.94784,1.44939 5.66667,2.14059 5.66667,5.44891 0,2.47906 0.69142,3.78894 2,3.78894 1.1,0 2,-0.79556 2,-1.7679 z m -59.02596,-8.48722 c 0.29116,-0.87364 -1.22811,-2.49728 -3.37615,-3.60806 -10.34457,-5.34939 -33.06456,-30.53687 -43.2394,-47.93539 l -3.64152,-6.22683 -65.02515,0.34604 -65.025164,0.34603 -0.361294,27.96554 c -0.198711,15.38106 -0.06592,28.73529 0.295093,29.67607 0.923847,2.40751 179.569445,1.84951 180.373585,-0.5634 z m -58.32458,-76.07821 c -0.009,-0.55 -1.15668,-4.63386 -2.54936,-9.07523 -4.32003,-13.77684 -7.16548,-37.08515 -6.30665,-51.66047 l 0.77006,-13.06904 -42.28176,0.42992 c -41.12833,0.41819 -42.43984,0.51355 -48.07652,3.49537 -7.87068,4.16363 -16.257767,12.83072 -20.204887,20.87944 -2.980617,6.0779 -3.311767,8.5802 -3.749573,28.33334 l -0.480216,21.66667 h 61.448056 c 33.79642,0 61.4403,-0.45 61.43085,-1 z"
     style="fill:#353535;stroke-width:1.33333337" />
</svg>
