<?xml version="1.0" encoding="UTF-8" standalone="no"?>
<!-- Created with Inkscape (http://www.inkscape.org/) -->

<svg
   xmlns:dc="http://purl.org/dc/elements/1.1/"
   xmlns:cc="http://creativecommons.org/ns#"
   xmlns:rdf="http://www.w3.org/1999/02/22-rdf-syntax-ns#"
   xmlns:svg="http://www.w3.org/2000/svg"
   xmlns="http://www.w3.org/2000/svg"
   xmlns:xlink="http://www.w3.org/1999/xlink"
   xmlns:sodipodi="http://sodipodi.sourceforge.net/DTD/sodipodi-0.dtd"
   xmlns:inkscape="http://www.inkscape.org/namespaces/inkscape"
   version="1.1"
   id="svg110"
   width="666.66669"
   height="666.66669"
   viewBox="0 0 666.66669 666.66669"
   sodipodi:docname="pendaftaran.svg"
   inkscape:version="0.92.3 (2405546, 2018-03-11)">
  <metadata
     id="metadata116">
    <rdf:RDF>
      <cc:Work
         rdf:about="">
        <dc:format>image/svg+xml</dc:format>
        <dc:type
           rdf:resource="http://purl.org/dc/dcmitype/StillImage" />
        <dc:title></dc:title>
      </cc:Work>
    </rdf:RDF>
  </metadata>
  <defs
     id="defs114" />
  <sodipodi:namedview
     pagecolor="#ffffff"
     bordercolor="#666666"
     borderopacity="1"
     objecttolerance="10"
     gridtolerance="10"
     guidetolerance="10"
     inkscape:pageopacity="0"
     inkscape:pageshadow="2"
     inkscape:window-width="1366"
     inkscape:window-height="705"
     id="namedview112"
     showgrid="false"
     inkscape:zoom="0.35399999"
     inkscape:cx="333.33334"
     inkscape:cy="333.33334"
     inkscape:window-x="-8"
     inkscape:window-y="-8"
     inkscape:window-maximized="1"
     inkscape:current-layer="svg110" />
  <image
     sodipodi:absref="E:\Project-website\tanyabudi\public\assets\images\icon\stepper\pendaftaran.png"
     xlink:href="pendaftaran.png"
     y="0"
     x="0"
     id="image118"
     preserveAspectRatio="none"
     height="666.66669"
     width="666.66669" />
  <path
     inkscape:connector-curvature="0"
     id="path134"
     d="m 172.35274,619.2779 c -15.34345,-4.13217 -31.01862,-15.53681 -38.1773,-27.77629 -7.96742,-13.62224 -7.50877,1.86202 -7.50877,-253.5016 0,-255.363623 -0.45865,-239.879353 7.50877,-253.50159 4.39224,-7.50958 15.93833,-18.164328 24.24573,-22.374012 15.00509,-7.603657 12.34904,-7.457739 135.74992,-7.457739 62.48595,0 114.5771,0.370792 115.75808,0.823982 1.8837,0.72284 24.22807,24.885696 120.40606,130.205249 12.65103,13.85349 23.31871,26.48925 23.70596,28.07947 0.38724,1.59022 0.5364,83.89131 0.33146,182.89131 l -0.37263,180.00001 -3.12924,7.75604 c -4.04375,10.0227 -16.19423,23.11252 -26.60435,28.66105 -16.24101,8.65638 -7.25963,8.25844 -184.21322,8.16183 -133.90714,-0.0731 -161.88443,-0.40139 -167.70047,-1.96771 z m 337.39749,-27.13065 c 7.24968,-3.59962 13.23961,-9.10907 16.62206,-15.28872 2.13544,-3.90143 2.2944,-15.64636 2.2944,-169.52518 V 242.00001 l -46.66667,-0.66667 c -42.17092,-0.60244 -47.2447,-0.91364 -52.66667,-3.23033 -23.77947,-10.16046 -41.53559,-32.34214 -46.01499,-57.48386 -1.37933,-7.74178 -1.90459,-22.82514 -1.93849,-55.6665 l -0.0465,-45.047365 -101.66667,0.380692 -101.66667,0.380692 -6.1351,3.053651 c -7.03873,3.503426 -13.72261,9.624123 -16.96113,15.531967 -2.06999,3.776183 -2.23711,21.611153 -2.23711,238.747723 0,219.46244 0.14866,234.93826 2.2944,238.85852 4.87078,8.89881 14.45679,15.75742 25.03894,17.91489 2.56666,0.52328 76.36667,0.86333 164,0.75568 l 159.33334,-0.19575 z M 209.9339,518.12455 c -6.8,-2.96189 -11.26723,-9.42175 -11.26723,-16.29305 0,-11.18207 7.37418,-19.14964 17.73288,-19.15983 10.61342,-0.0107 18.2529,7.71011 18.26214,18.45596 0.007,7.59168 -3.32987,12.97917 -10.05352,16.23404 -6.32382,3.06131 -9.06974,3.20407 -14.67427,0.76288 z m 69.63043,-7.00467 c -0.49371,-0.4937 -0.89765,-5.23345 -0.89765,-10.53277 0,-7.55599 0.4551,-9.80976 2.10905,-10.44444 3.23291,-1.24059 187.6505,-0.92101 189.62039,0.32859 1.22588,0.77762 1.61411,3.97452 1.33334,10.97957 l -0.39611,9.88252 -95.43568,0.34209 c -52.48963,0.18815 -95.83963,-0.0619 -96.33334,-0.55556 z m -68.42886,-72.57646 c -2.30881,-0.66886 -6.05881,-3.33563 -8.33333,-5.92615 -10.10959,-11.5142 -1.57513,-29.95059 13.86453,-29.95059 10.79948,0 18,7.25389 18,18.13341 0,6.0377 -0.6184,7.81146 -4.10969,11.78781 -3.35339,3.8193 -11.35933,7.82554 -14.55697,7.28442 -0.36667,-0.062 -2.55571,-0.66005 -4.86454,-1.3289 z m 68.42886,-7.42354 c -0.49371,-0.4937 -0.89765,-5.28621 -0.89765,-10.65001 0,-9.0095 0.22852,-9.80771 3,-10.47868 1.65,-0.39947 45,-0.56091 96.33333,-0.35875 l 93.33334,0.36757 v 10.66667 10.66667 l -95.43568,0.34209 c -52.48963,0.18815 -95.83963,-0.0619 -96.33334,-0.55556 z m -75.72119,-77.62967 c -4.80965,-4.80965 -5.17647,-5.71836 -5.17647,-12.82353 0,-7.10517 0.36682,-8.01388 5.17647,-12.82354 4.80965,-4.80965 5.71836,-5.17646 12.82353,-5.17646 7.10518,0 8.01388,0.36681 12.82354,5.17646 4.80965,4.80966 5.17646,5.71837 5.17646,12.82354 0,7.10517 -0.36681,8.01388 -5.17646,12.82353 -4.80966,4.80966 -5.71836,5.17647 -12.82354,5.17647 -7.10517,0 -8.01388,-0.36681 -12.82353,-5.17647 z m 73.54183,-4.0604 c -0.76173,-1.4233 -1.38496,-5.51258 -1.38496,-9.0873 0,-12.07017 -9.13612,-11.08042 98.66667,-10.68881 l 95.33334,0.34631 v 10.66667 10.66667 l -95.61505,0.34214 c -93.46207,0.33444 -95.64623,0.28387 -97,-2.24568 z m 241.06691,-142.4298 c -1.8592,-2.01667 -26.00412,-28.41667 -53.65537,-58.66667 -27.65124,-30.25 -50.84234,-55.000003 -51.53575,-55.000003 -1.41432,0 -1.47104,28.192193 -0.12747,63.333333 0.80386,21.0238 1.12848,23.19819 4.47894,30 4.64068,9.42118 11.9794,16.92938 20.38773,20.8586 6.50208,3.03844 7.61918,3.11567 45.24946,3.12838 l 38.58278,0.0133 -3.38037,-3.66667 z"
     style="fill:#e6e6e6;stroke-width:1.33333337" />
  <path
     inkscape:connector-curvature="0"
     id="path132"
     d="m 169.01594,617.41087 c -15.44309,-4.93677 -30.14876,-17.64742 -36.77586,-31.78676 l -3.57341,-7.62409 V 338.00001 98.000003 l 3.57341,-7.624087 c 6.72914,-14.357043 21.42715,-26.93625 37.21454,-31.849834 7.70168,-2.397033 13.99656,-2.52608 123.2218,-2.52608 63.30802,0 116.03155,0.355361 117.16339,0.789692 1.76256,0.676359 134.45333,144.804836 141.14249,153.308716 2.27308,2.88974 2.37135,11.84029 2.03636,185.46894 l -0.35197,182.43267 -3.57342,7.62409 c -6.72913,14.35704 -21.42714,26.93624 -37.21453,31.84983 -7.78542,2.4231 -14.78383,2.52316 -171.66418,2.45438 -154.84126,-0.0679 -163.95518,-0.20191 -171.19862,-2.51745 z m 340.31741,-24.21269 c 8.42989,-3.98716 13.7196,-8.89451 17.80071,-16.51401 l 2.86596,-5.35082 V 406.66668 242.00001 l -45.33334,-0.70151 c -42.36418,-0.65557 -45.84406,-0.89213 -53.1312,-3.61187 -10.97599,-4.0965 -19.62475,-9.98648 -28.08968,-19.12961 -7.23748,-7.81735 -15.58868,-22.60832 -18.43935,-32.65828 C 384.10481,182.72002 383.22365,160.78235 382.7612,130 L 382.00001,79.333336 H 280.66668 179.33334 l -7.33333,3.468507 c -8.4299,3.987156 -13.7196,8.894511 -17.80071,16.514019 l -2.86596,5.350808 v 233.33334 233.33334 l 2.86596,5.35082 c 5.73816,10.71326 15.49075,17.50933 27.77259,19.35325 3.68213,0.55281 77.19479,0.92055 163.36146,0.81719 l 156.66667,-0.18792 z M 209.89126,517.44615 c -3.70776,-1.59516 -9.68849,-8.84069 -10.73317,-13.00301 -1.08911,-4.33938 1.43689,-12.69495 4.74214,-15.68616 9.32244,-8.4367 24.35255,-5.52656 29.00847,5.61664 4.4452,10.63885 -2.90347,22.75542 -14.40932,23.75822 -3.20799,0.27959 -7.08164,-0.0289 -8.60812,-0.68569 z m 70.87066,-7.54137 c -2.52947,-2.52947 -2.88655,-15.24679 -0.49524,-17.6381 2.31458,-2.31458 187.81875,-2.31458 190.13334,0 0.88,0.88 1.6,4.96 1.6,9.06667 0,4.10667 -0.72,8.18667 -1.6,9.06667 -1.21386,1.21385 -24.0381,1.6 -94.57143,1.6 -82.74171,0 -93.20198,-0.23055 -95.06667,-2.09524 z m -72.89807,-74.2557 c -9.53108,-6.34828 -11.44964,-17.84965 -4.37919,-26.2524 6.97183,-8.28555 19.41793,-8.25497 26.41865,0.0649 7.20247,8.55964 5.32991,19.60953 -4.43381,26.16381 -5.75019,3.86002 -11.8336,3.86821 -17.60565,0.0237 z m 72.89807,-5.7443 c -2.11918,-2.11917 -2.92528,-12.85695 -1.28592,-17.12905 0.72752,-1.89589 10.41596,-2.10905 95.85735,-2.10905 85.44139,0 95.12983,0.21316 95.85735,2.10905 0.44513,1.15998 0.80932,5.33887 0.80932,9.28642 0,5.73145 -0.51956,7.45544 -2.57902,8.55763 -1.70629,0.91317 -33.70852,1.38024 -94.57143,1.38024 -81.85169,0 -92.22339,-0.23098 -94.08765,-2.09524 z m -70.87499,-73.06975 c -5.01918,-2.26291 -9.4077,-7.61778 -10.56632,-12.89302 -1.928,-8.77809 5.26473,-18.93044 14.66066,-20.69312 9.22015,-1.72971 20.69178,7.85659 20.68042,17.28163 -0.0144,11.91556 -14.03851,21.14497 -24.77476,16.30451 z m 70.44641,-6.2099 c -2.68349,-1.07864 -3,-2.12822 -3,-9.94849 0,-8.1578 0.22879,-8.82962 3.42014,-10.04296 3.71616,-1.41288 180.39008,-1.85076 185.57987,-0.45995 2.76212,0.74021 3,1.57221 3,10.49295 0,8.92073 -0.23788,9.75273 -3,10.49295 -4.86343,1.30334 -182.69909,0.7923 -186.00001,-0.5345 z M 522.66668,210.97655 c 0,-0.9356 -33.858,-38.26449 -88.39756,-97.45949 C 420.20275,98.249997 412.66657,90.985905 412.13675,92.18373 411.69488,93.182681 411.63335,112.9 412.00001,136 c 0.63884,40.24677 0.7945,42.2783 3.72895,48.66667 4.47532,9.74288 9.14216,15.98368 14.97548,20.02618 9.87095,6.84056 12.42466,7.18573 53.62891,7.24864 21.08333,0.0321 38.33333,-0.40204 38.33333,-0.96494 z"
     style="fill:#d5d5d5;stroke-width:1.33333337" />
  <path
     inkscape:connector-curvature="0"
     id="path130"
     d="M 176.07526,618.54607 C 160.36471,615.46541 143.25205,603.63397 135.58812,590.55389 127.59881,576.91845 128,590.27147 128,338.00001 128,85.684939 127.59674,99.085086 135.60096,85.424207 c 7.70414,-13.148696 22.47246,-23.429161 39.38535,-27.41678 12.54495,-2.957769 231.02386,-2.985565 235.24362,-0.02993 3.67064,2.571019 139.26429,150.727483 141.3895,154.489323 1.24711,2.20749 1.6303,43.49564 1.66667,179.58639 0.0516,192.98946 0.35412,185.02623 -7.54087,198.50067 -7.92436,13.52459 -24.81025,24.92934 -41.59387,28.09255 -8.93846,1.68463 -319.45753,1.58964 -328.0761,-0.1004 z m 335.44189,-25.49274 c 8.15976,-4.30395 16.01346,-13.02508 17.84079,-19.81131 0.84531,-3.13923 1.19765,-63.76375 0.98069,-168.73745 l -0.33861,-163.83789 -46.66667,-0.66667 -46.66667,-0.66667 -10.39324,-4.96273 c -17.04464,-8.13875 -29.83968,-22.04012 -37.93103,-41.21082 l -3.58468,-8.49312 -0.38848,-50 c -0.21365,-27.5 -0.69916,-51.364299 -1.0789,-53.031775 l -0.69043,-3.031775 -102.96662,0.365108 -102.96663,0.365108 -6.85046,3.613355 c -8.06795,4.255527 -15.95788,12.950996 -17.81407,19.632839 -1.81085,6.51861 -1.81085,464.32236 0,470.84096 2.54363,9.15644 13.60597,19.05956 25.3312,22.67672 1.83333,0.56556 76.23334,0.92506 165.33334,0.79889 l 162,-0.22941 z M 208.25302,515.52954 c -7.81001,-4.3339 -10.46439,-15.21972 -5.64032,-23.13146 6.42341,-10.53476 20.01772,-10.97833 27.93624,-0.91156 5.43319,6.90718 2.63737,19.7859 -5.17196,23.82426 -4.73244,2.44724 -12.91959,2.55184 -17.12396,0.21876 z m 72.64475,-5.74287 c -0.49376,-0.49377 -0.89776,-4.37665 -0.89776,-8.62863 0,-6.27868 0.48445,-7.99014 2.57901,-9.11112 3.13507,-1.67784 183.85652,-1.90888 186.49012,-0.23841 1.20541,0.76457 1.61282,3.71207 1.33333,9.64625 l -0.40245,8.54526 -94.10225,0.34221 c -51.75623,0.18821 -94.50623,-0.0617 -95,-0.55556 z m -75.7213,-77.62979 c -4.24205,-4.24207 -5.17292,-6.10735 -5.15681,-10.33333 0.0259,-6.77426 2.31515,-11.0386 7.99977,-14.90126 6.85702,-4.65926 15.02979,-3.51668 20.93478,2.92676 10.10005,11.02108 2.3229,27.4843 -12.98346,27.4843 -4.74796,0 -6.41932,-0.80152 -10.79428,-5.17647 z m 75.7213,-2.37021 c -0.49376,-0.49377 -0.89776,-4.63358 -0.89776,-9.19956 0,-6.34016 0.49835,-8.49303 2.10905,-9.11111 3.23918,-1.24299 184.98581,-0.91975 186.96008,0.33251 1.20541,0.76457 1.61282,3.71206 1.33333,9.64625 l -0.40245,8.54526 -94.10225,0.34221 c -51.75623,0.18821 -94.50623,-0.0617 -95,-0.55556 z m -75.7213,-77.62979 c -4.5555,-4.55552 -5.17646,-5.93385 -5.17646,-11.4902 0,-5.55635 0.62096,-6.93468 5.17646,-11.4902 4.55552,-4.55551 5.93386,-5.17647 11.4902,-5.17647 5.55635,0 6.93468,0.62096 11.4902,5.17647 4.55551,4.55552 5.17647,5.93385 5.17647,11.4902 0,5.55635 -0.62096,6.93468 -5.17647,11.4902 -4.55552,4.55551 -5.93385,5.17647 -11.4902,5.17647 -5.55634,0 -6.93468,-0.62096 -11.4902,-5.17647 z m 74.04643,-3.29721 c -0.38516,-1.0037 -0.51786,-5.35774 -0.29492,-9.67562 l 0.40536,-7.85071 94.3057,-0.34226 94.30568,-0.34227 0.77738,3.0973 c 0.42756,1.7035 0.59,6.05753 0.36097,9.6756 l -0.41639,6.5783 -94.37175,0.3423 c -78.86405,0.28604 -94.48681,0.0424 -95.07203,-1.48264 z M 524.00002,211.82241 c 0,-0.83102 -5.57734,-7.58102 -12.39407,-15 -6.81673,-7.41899 -32.16673,-35.08216 -56.33333,-61.47373 l -43.93927,-47.984648 -0.42871,6.651319 c -0.23579,3.658226 -0.21211,23.751319 0.0526,44.651319 0.4526,35.73332 0.6614,38.45347 3.50038,45.60218 5.20532,13.10733 17.91212,24.80644 30.20905,27.81341 6.95103,1.69973 79.33334,1.46265 79.33334,-0.25985 z"
     style="fill:#b2b2b2;stroke-width:1.33333337" />
  <path
     inkscape:connector-curvature="0"
     id="path128"
     d="m 172.13951,616.55666 c -14.32174,-3.85133 -26.31705,-12.19255 -33.84513,-23.53501 -9.62928,-14.50828 -8.96104,4.50906 -8.96104,-255.02164 0,-259.530697 -0.66824,-240.513353 8.96104,-255.021639 5.25773,-7.92176 11.07305,-13.121731 20.27629,-18.130762 14.01379,-7.627259 11.9677,-7.514274 136.07857,-7.514274 H 408.7382 l 8.79025,9.000001 c 7.63772,7.819965 110.68977,120.545444 128.13824,140.166494 l 6.33333,7.12192 v 178.94713 c 0,198.84381 0.57004,186.09245 -8.96104,200.45277 -7.68079,11.57253 -19.58999,19.73872 -34.41891,23.60116 -11.4744,2.98871 -325.3501,2.927 -336.48056,-0.0661 z m 337.33108,-21.4252 c 8.11479,-3.79287 15.34459,-10.28367 18.94131,-17.0052 l 2.92145,-5.45957 0.35888,-165.24113 c 0.25144,-115.77451 -0.0671,-165.66788 -1.06413,-166.66667 -0.92985,-0.93152 -17.68867,-1.65659 -48.35887,-2.09221 l -46.93588,-0.66667 -10.19471,-4.98343 c -17.48705,-8.54812 -31.01157,-25.07297 -37.93439,-46.34991 -2.05836,-6.32628 -2.48798,-14.2912 -3.12846,-58 L 383.33335,78.000003 H 280.66668 c -102.28463,0 -102.68951,0.01067 -108.80391,2.86856 -8.11479,3.792873 -15.34459,10.283666 -18.94131,17.0052 l -2.92145,5.459577 v 234.66667 234.66668 l 2.92145,5.45957 c 5.10388,9.53809 15.31439,16.8094 27.07855,19.28372 2.56666,0.53984 76.36667,0.89344 164,0.78579 l 159.33334,-0.19575 z M 209.93654,515.52255 c -7.47469,-3.37276 -11.21191,-12.5558 -8.12069,-19.95411 6.03669,-14.44782 25.79576,-13.40806 30.29046,1.59394 3.7592,12.54712 -9.92925,23.8834 -22.16977,18.36017 z m 72.99067,-5.99996 c -1.19227,-0.7562 -1.61169,-3.58097 -1.33333,-8.97959 l 0.40613,-7.87632 93.249,-0.34246 c 73.71686,-0.27075 93.47185,0.008 94.31291,1.33333 1.64823,2.59615 1.29394,13.61996 -0.49524,15.40913 -1.88326,1.88327 -183.18887,2.32734 -186.13947,0.45591 z m -73.19575,-74.28947 c -7.63227,-3.88017 -11.0074,-12.26499 -7.91561,-19.66468 6.05473,-14.491 25.79742,-13.40248 30.31365,1.67135 3.77699,12.60645 -10.47439,24.0552 -22.39804,17.99333 z m 71.60188,-14.56644 v -8.66667 h 93.85735 c 103.91429,0 95.47599,-0.76597 95.47599,8.66667 0,9.43264 8.4383,8.66667 -95.47599,8.66667 h -93.85735 z m -70.57189,-65.65104 c -13.34907,-6.85852 -13.18167,-22.07672 0.31666,-28.78832 4.0897,-2.03346 5.66439,-2.18907 9.46359,-0.93522 10.08467,3.32824 14.90389,13.18698 10.73779,21.96639 -3.95352,8.33144 -12.8522,11.69571 -20.51804,7.75715 z m 68.45029,-7.51837 c -0.3875,-1.00984 -0.51868,-4.75984 -0.29148,-8.33334 l 0.41308,-6.49725 94.33334,-0.34228 94.33334,-0.34228 v 8.67561 8.67562 h -94.04185 c -78.63129,0 -94.15731,-0.30088 -94.74643,-1.83608 z M 523.2243,213.85735 c 1.15999,-0.44512 2.10905,-1.35993 2.10905,-2.03289 0,-2.15523 -113.51579,-125.20241 -114.78207,-124.419802 -2.08105,1.286158 -1.46824,77.195952 0.706,87.453992 4.56225,21.52461 18.25482,35.70118 37.14975,38.46296 8.37109,1.22356 71.84048,1.67805 74.81727,0.53574 z"
     style="fill:#8f8f8f;stroke-width:1.33333337" />
  <path
     inkscape:connector-curvature="0"
     id="path126"
     d="m 181.33334,617.80515 c -27.04867,-4.33792 -46.22318,-21.42593 -50.55073,-45.05001 -2.03572,-11.11296 -2.03572,-458.39729 0,-469.51026 1.97285,-10.769762 8.32974,-22.199677 16.3641,-29.423263 7.34487,-6.603673 10.93104,-8.708472 22.0704,-12.95362 7.36034,-2.80498 8.82299,-2.843622 122.11623,-3.226155 l 114.66667,-0.387172 4.18107,3.039333 c 2.29959,1.671633 20.05228,20.439333 39.45043,41.705997 19.39813,21.26667 49.82332,54.56667 67.61151,74.00001 17.7882,19.43333 32.88551,36.72238 33.54959,38.42013 1.81028,4.62807 1.57825,348.39901 -0.24186,358.335 -3.63954,19.8682 -17.8573,35.25395 -39.72604,42.98956 -5.55381,1.96453 -21.85708,2.19871 -166.15803,2.38665 -88,0.11467 -161.50001,-0.0321 -163.33334,-0.3262 z M 508.8258,595.82598 c 4.63228,-1.73316 9.77224,-5.02048 13.18326,-8.43149 10.82775,-10.82774 10.09145,3.06302 9.68553,-182.72781 l -0.36124,-165.33334 -46.66667,-0.70428 c -44.63416,-0.6736 -46.97992,-0.83576 -53.85886,-3.72297 -16.75551,-7.03258 -28.28025,-17.59732 -36.77338,-33.71023 -8.05553,-15.28273 -8.65936,-20.34305 -8.68139,-72.75347 -0.0107,-25.79003 -0.38389,-47.840026 -0.82902,-49.000005 -0.72822,-1.897696 -11.01167,-2.109049 -102.61666,-2.109049 -98.1963,0 -102.05739,0.09363 -108.85735,2.639596 -9.52261,3.565362 -16.1166,9.299286 -20.26304,17.620101 l -3.45364,6.930557 v 233.47642 233.47642 l 3.45364,6.93056 c 4.07649,8.18047 10.67277,14.00438 19.87969,17.55196 6.44588,2.48372 11.9969,2.57108 167.61666,2.63826 l 160.94998,0.0695 z M 206.55662,512.2901 c -3.15689,-2.8207 -4.31621,-5.16579 -4.83675,-9.78386 -0.61033,-5.41489 -0.22337,-6.59926 3.56628,-10.91544 7.30482,-8.31973 19.02127,-7.53518 24.43911,1.63648 3.79833,6.43008 2.98535,12.99547 -2.25859,18.2394 -3.83702,3.83703 -5.47217,4.53334 -10.64562,4.53334 -4.80152,0 -7.00274,-0.7956 -10.26443,-3.70992 z m 75.6746,-3.83664 c -0.49382,-0.49384 -0.89788,-4.09788 -0.89788,-8.009 v -7.11111 h 94.06654 94.06655 l -0.39988,7.66667 -0.39987,7.66666 -92.76879,0.34234 c -51.02283,0.18828 -93.17283,-0.0617 -93.66667,-0.55556 z m -73.21445,-74.46531 c -2.00746,-1.13065 -4.55746,-3.81073 -5.66667,-5.95572 -7.01837,-13.57204 7.11796,-27.69672 20.69355,-20.67651 8.45441,4.37193 10.36877,17.50441 3.54621,24.32696 -4.13093,4.13094 -13.30907,5.27011 -18.57309,2.30527 z m 73.21445,-5.5347 c -0.49382,-0.49384 -0.89788,-4.08645 -0.89788,-7.98358 0,-6.24402 0.35636,-7.172 3,-7.81215 1.65,-0.39955 43.8,-0.56097 93.66667,-0.35875 l 90.66667,0.36771 v 8 8 l -92.76879,0.34234 c -51.02283,0.18828 -93.17283,-0.0617 -93.66667,-0.55557 z m -73.21445,-74.54062 c -10.0458,-5.45079 -9.88287,-21.30515 0.27293,-26.55691 7.65499,-3.95855 16.95104,-1.2922 20.68773,5.93378 7.11227,13.75362 -7.3665,27.99923 -20.96066,20.62313 z m 71.5318,-6.40648 c -0.38944,-1.01484 -0.52217,-4.76892 -0.29497,-8.34242 l 0.41308,-6.49725 h 93.33333 93.33334 v 8 8 l -93.03836,0.34241 c -78.23037,0.28791 -93.15107,0.0488 -93.74642,-1.50274 z M 526.66669,212.82066 c 0,-1.01531 -7.95001,-10.48884 -17.66667,-21.05229 -9.71667,-10.56347 -35.61235,-38.83276 -57.54596,-62.82066 -21.93362,-23.98791 -40.38362,-43.614374 -41.00001,-43.614374 -0.61638,0 -1.1207,19.373944 -1.1207,43.053204 0,48.68376 0.67976,53.65303 9.03658,66.06035 6.20406,9.21109 12.8223,14.55749 21.90337,17.69414 6.21069,2.14522 11.83214,2.44383 46.72672,2.48211 32.92076,0.0361 39.66667,-0.27041 39.66667,-1.80248 z"
     style="fill:#747474;stroke-width:1.33333337" />
  <path
     inkscape:connector-curvature="0"
     id="path124"
     d="m 173.48311,615.22595 c -17.204,-4.62673 -31.69049,-16.24376 -38.57636,-30.93517 l -3.57341,-7.62409 V 338.00001 99.333337 l 3.57341,-7.624087 c 7.00369,-14.94283 21.46604,-26.395256 39.14866,-31.000992 6.73986,-1.755511 23.67193,-2.041589 120.83525,-2.041589 h 112.99707 l 5.11768,5 c 6.71696,6.562484 129.09168,140.583241 133.95594,146.704121 l 3.75176,4.72099 -0.35654,180.78745 -0.35655,180.78746 -3.57341,7.62409 c -7.0037,14.94283 -21.46604,26.39525 -39.14866,31.00099 -11.45663,2.98406 -322.68236,2.9227 -333.79484,-0.0659 z m 338.80368,-20.27246 c 5.5064,-2.71098 10.45535,-6.34847 12.98804,-9.54624 8.52464,-10.76324 8.05852,-0.30855 8.05852,-180.74494 0,-131.88987 -0.33693,-164.61541 -1.70653,-165.75209 -1.11059,-0.92169 -17.98972,-1.56127 -48.33334,-1.83143 l -46.6268,-0.41513 -7.94426,-3.71456 c -18.66794,-8.72869 -32.36202,-24.23825 -39.00765,-44.17903 -3.58008,-10.74233 -3.5912,-10.90056 -4.3187,-61.43673 L 384.66668,76.666669 H 281.30433 177.94197 l -8.8958,4.379873 c -9.81688,4.833368 -15.87314,11.293473 -19.06282,20.333998 -2.96808,8.41243 -3.00182,464.73085 -0.0351,473.13976 3.95704,11.21544 13.10048,19.36376 26.43304,23.55623 4.5541,1.43205 36.06421,1.71848 166.31391,1.51181 l 160.6954,-0.25499 z M 211.17107,514.08412 c -2.28924,-0.99633 -5.13924,-3.20636 -6.33333,-4.91116 -4.44632,-6.34801 -1.63135,-17.83496 5.12501,-20.91336 10.19228,-4.64392 20.61456,1.6292 20.67427,12.44374 0.0361,6.53806 -2.85329,10.96601 -8.76844,13.43752 -5.34224,2.23213 -5.43964,2.23161 -10.69751,-0.0568 z m 71.49561,-13.41744 v -7.33333 h 92.66667 92.66667 v 7.33333 7.33334 h -92.66667 -92.66667 z m -71.49561,-66.58256 c -5.66136,-2.46396 -8.51018,-6.96197 -8.47474,-13.38079 0.0616,-11.17072 11.02664,-17.35112 21.33037,-12.02285 4.89517,2.5314 6.63997,5.75523 6.63997,12.26853 0,6.31588 -2.95856,10.75194 -8.79809,13.19185 -5.34224,2.23213 -5.43964,2.23161 -10.69751,-0.0568 z m 71.49561,-13.41744 v -7.33333 h 92.66667 92.66667 v 7.33333 7.33333 h -92.66667 -92.66667 z m -76.10257,-69.89744 c -3.19108,-3.19107 -3.89744,-5.02204 -3.89744,-10.10256 0,-5.08052 0.70636,-6.91149 3.89744,-10.10256 3.19107,-3.19108 5.02204,-3.89744 10.10256,-3.89744 8.80511,0 14,5.19489 14,14 0,8.80511 -5.19489,14 -14,14 -5.08052,0 -6.91149,-0.70636 -10.10256,-3.89744 z m 73.97187,-4.62901 c -0.39252,-1.02288 -0.52368,-4.17288 -0.29148,-7 l 0.42218,-5.14022 93,-0.3424 93,-0.3424 v 7.3424 7.3424 h -92.70851 c -78.07111,0 -92.8212,-0.29364 -93.42219,-1.85978 z M 527.33335,212.9577 c 0,-2.86527 -115.04366,-128.957697 -117.65786,-128.957697 -1.52812,0 -1.76153,7.705458 -1.4035,46.333337 0.41509,44.78475 0.53236,46.58967 3.5089,54.00279 5.92175,14.74818 16.95291,25.24041 31.26718,29.73961 4.21811,1.32581 15.42291,1.70265 44.95195,1.5118 36.74317,-0.23747 39.33333,-0.41064 39.33333,-2.62984 z"
     style="fill:#4b4b4b;stroke-width:1.33333337" />
  <path
     inkscape:connector-curvature="0"
     id="path122"
     d="m 174.00001,614.11865 c -16.259,-4.0353 -30.39187,-15.16704 -37.41385,-29.46898 l -3.91949,-7.98298 V 338.00001 99.333337 l 3.91949,-7.982983 c 7.2227,-14.710754 22.41851,-26.29798 39.14614,-29.850003 4.91548,-1.043776 41.24081,-1.500349 119.3691,-1.500349 h 112.30347 l 8.76945,9 c 4.8232,4.950001 18.86363,20.100001 31.20094,33.666668 12.33732,13.56667 37.77497,41.46702 56.52812,62.00078 18.75314,20.53376 36.65708,40.2801 39.78652,43.88076 l 5.68988,6.54665 -0.35655,180.78591 -0.35654,180.78592 -3.9195,7.98298 c -7.22269,14.71075 -22.41851,26.29798 -39.14613,29.85 -10.58632,2.24795 -322.45225,1.8896 -331.60105,-0.38102 z m 333.39622,-15.56834 c 7.24179,-2.23676 10.36387,-4.13646 15.9054,-9.67798 12.28508,-12.2851 11.36506,2.69361 11.36506,-185.03114 0,-130.54951 -0.34812,-165.24245 -1.66667,-166.09582 -0.91667,-0.59328 -22.96667,-1.38187 -49,-1.75243 l -47.33334,-0.67372 -9.12243,-4.29817 c -11.24512,-5.2983 -26.47637,-20.15234 -31.80881,-31.02104 -7.88595,-16.07335 -8.23448,-18.99376 -8.74792,-73.30149 -0.348,-36.807708 -0.89143,-50.234541 -2.06329,-50.979585 -0.87499,-0.556287 -46.63198,-1.020619 -101.68222,-1.031848 -87.49511,-0.01785 -100.98651,0.245422 -107.20455,2.09198 -9.05792,2.689914 -15.92245,7.032713 -21.15995,13.386709 -8.77794,10.649174 -8.21084,-6.468342 -8.21084,247.834234 0,262.02512 -1.06926,238.43798 11.37314,250.88038 5.38605,5.38607 8.7772,7.49638 15.43161,9.60311 8.35864,2.64627 11.68085,2.70156 166.72147,2.77496 156.73811,0.0743 158.27577,0.0493 167.20334,-2.70815 z M 209.71795,512.04582 c -10.86474,-6.62458 -5.77422,-24.0458 7.02623,-24.0458 5.43407,0 12.00228,5.22282 12.97636,10.31837 1.00329,5.24839 -2.16987,11.82268 -6.88261,14.25973 -5.29076,2.73596 -7.9358,2.62864 -13.11998,-0.5323 z m 74.28206,-10.71247 v -6.68504 l 91.66667,0.34252 91.66667,0.34252 v 6 6 l -91.66667,0.34252 -91.66667,0.34252 z M 211.10499,432.723 c -5.09597,-2.21672 -7.37165,-6.07736 -7.37165,-12.50587 0,-6.31421 6.20969,-12.21712 12.85207,-12.21712 5.36232,0 12.04572,5.02064 13.29165,9.98484 1.34541,5.36058 -2.42255,12.48873 -7.78624,14.72982 -5.59155,2.33629 -5.63403,2.33633 -10.98583,0.008 z m 72.89502,-12.06551 v -6.00918 l 91.66667,0.34252 91.66667,0.34252 0.41,5.66666 0.41,5.66667 h -92.07667 -92.07667 z m -70.23082,-67.017 c -3.85372,-0.61945 -9.72956,-6.63052 -9.92716,-10.15562 -0.56126,-10.0124 4.53399,-16.03162 13.35834,-15.78073 9.37664,0.2666 15.27772,9.37955 11.66801,18.01877 -1.06128,2.54002 -2.61037,5.03897 -3.44243,5.5532 -2.63169,1.62648 -8.65136,2.84746 -11.65676,2.36438 z m 67.56415,-12.97381 v -6 h 92.00001 92 v 6 6 h -92 -92.00001 z M 530.37421,214.5363 C 530.96105,211.4859 412.65093,82.66667 409.26255,82.66667 c -2.51998,0 -2.59587,1.29006 -2.59587,44.12813 0,36.77537 0.36141,45.38422 2.16905,51.66666 5.35403,18.60792 16.22698,31.07072 31.74874,36.39105 5.90656,2.02456 11.9054,2.28214 48.06439,2.06372 36.66323,-0.22145 41.36164,-0.48945 41.72535,-2.37993 z"
     style="fill:#353535;stroke-width:1.33333337" />
</svg>
