<?xml version="1.0" encoding="UTF-8" standalone="no"?>
<!-- Created with Inkscape (http://www.inkscape.org/) -->

<svg
   xmlns:dc="http://purl.org/dc/elements/1.1/"
   xmlns:cc="http://creativecommons.org/ns#"
   xmlns:rdf="http://www.w3.org/1999/02/22-rdf-syntax-ns#"
   xmlns:svg="http://www.w3.org/2000/svg"
   xmlns="http://www.w3.org/2000/svg"
   xmlns:xlink="http://www.w3.org/1999/xlink"
   xmlns:sodipodi="http://sodipodi.sourceforge.net/DTD/sodipodi-0.dtd"
   xmlns:inkscape="http://www.inkscape.org/namespaces/inkscape"
   version="1.1"
   id="svg182"
   width="666.66669"
   height="666.66669"
   viewBox="0 0 666.66669 666.66669"
   sodipodi:docname="pesawat.svg"
   inkscape:version="0.92.3 (2405546, 2018-03-11)">
  <metadata
     id="metadata188">
    <rdf:RDF>
      <cc:Work
         rdf:about="">
        <dc:format>image/svg+xml</dc:format>
        <dc:type
           rdf:resource="http://purl.org/dc/dcmitype/StillImage" />
        <dc:title></dc:title>
      </cc:Work>
    </rdf:RDF>
  </metadata>
  <defs
     id="defs186" />
  <sodipodi:namedview
     pagecolor="#ffffff"
     bordercolor="#666666"
     borderopacity="1"
     objecttolerance="10"
     gridtolerance="10"
     guidetolerance="10"
     inkscape:pageopacity="0"
     inkscape:pageshadow="2"
     inkscape:window-width="1366"
     inkscape:window-height="705"
     id="namedview184"
     showgrid="false"
     inkscape:zoom="0.35399999"
     inkscape:cx="333.33334"
     inkscape:cy="333.33334"
     inkscape:window-x="-8"
     inkscape:window-y="-8"
     inkscape:window-maximized="1"
     inkscape:current-layer="svg182" />
  <image
     sodipodi:absref="E:\Project-website\tanyabudi\public\assets\images\icon\stepper\pesawat.png"
     xlink:href="pesawat.png"
     y="0"
     x="0"
     id="image190"
     preserveAspectRatio="none"
     height="666.66669"
     width="666.66669" />
  <path
     inkscape:connector-curvature="0"
     id="path206"
     d="m 20.000001,593.92687 c 0,-0.8692 2.675817,-6.80576 17.996451,-39.92685 1.696068,-3.66667 4.697683,-10.26667 6.670254,-14.66667 1.97257,-4.4 4.961066,-11 6.641101,-14.66666 1.680035,-3.66667 4.367686,-9.66667 5.972558,-13.33334 1.60487,-3.66667 4.34031,-9.66667 6.078753,-13.33333 1.738443,-3.66667 4.693823,-10.11667 6.567512,-14.33334 5.118799,-11.51966 9.895609,-22.08612 14.014265,-31 2.03302,-4.4 4.631957,-10.1 5.775415,-12.66666 2.634655,-5.91388 10.54965,-23.11737 16.423,-35.69591 2.49005,-5.33276 4.52736,-9.94728 4.52736,-10.2545 0,-0.30722 2.33014,-5.54406 5.17808,-11.63742 5.21476,-11.15732 9.24638,-19.95844 15.61083,-34.07884 1.90057,-4.21667 5.12628,-11.26667 7.16825,-15.66667 2.04196,-4.4 4.06812,-9.05 4.50258,-10.33334 0.43445,-1.28333 1.79301,-2.33333 3.01904,-2.33333 2.56509,0 13.46209,5.01743 16.72649,7.70156 2.34585,1.92888 2.46325,1.60963 -12.12144,32.96511 -2.04661,4.4 -4.76413,10.4 -6.03892,13.33333 -2.48295,5.71331 -8.31996,18.49818 -13.39233,29.33334 -5.79412,12.37689 -8.65258,19.18014 -8.65258,20.59352 0,0.77356 -0.6,1.40648 -1.33333,1.40648 -0.73334,0 -1.33334,0.65932 -1.33334,1.46516 0,1.46837 -1.18894,4.30613 -8.0449,19.20151 -2.02521,4.4 -4.72865,10.4 -6.00765,13.33333 -1.27899,2.93333 -4.27391,9.53333 -6.655356,14.66667 -2.381449,5.13333 -6.416524,13.83333 -8.966831,19.33333 -2.550308,5.5 -5.972345,13 -7.604528,16.66667 -1.632181,3.66666 -4.342168,9.66666 -6.022192,13.33333 -5.430913,11.85302 -9.955129,21.82814 -13.455318,29.66667 -1.882895,4.21667 -4.854167,10.51667 -6.602827,14 l -3.179383,6.33333 h 50.976285 50.97629 l 42.58723,-57 C 327.42594,343.10695 346.94324,317.21201 347.79723,317.5881 c 3.84469,1.6932 16.11162,11.42155 16.1522,12.80958 0.0279,0.95205 -4.35814,7.55205 -9.74659,14.66667 l -9.79716,12.93566 119.46383,-0.76146 c 114.55018,-0.73014 119.98483,-0.87566 132.13051,-3.53794 15.15205,-3.32128 20.26644,-5.08348 27.33334,-9.41792 8.92032,-5.47122 11.6899,-9.44086 10.87517,-15.58735 -0.38673,-2.91756 -1.34185,-5.51756 -2.12249,-5.77777 -0.78064,-0.26021 -1.41935,-1.20089 -1.41935,-2.0904 0,-1.57248 -12.47598,-21.39045 -15.27148,-24.2586 -0.76735,-0.78729 -3.49519,-4.21873 -6.06186,-7.62544 l -4.66666,-6.194 -36.2381,-0.0412 c -41.35828,-0.0471 -40.42857,0.1966 -40.42857,-10.59651 0,-10.35357 0.79408,-10.65572 29.11968,-11.08032 l 24.31175,-0.36442 -9.04906,-6.73964 c -11.4878,-8.556 -31.24128,-20.75149 -39.79056,-24.56606 -3.62549,-1.61765 -9.59181,-4.32595 -13.25848,-6.01844 -5.56519,-2.56883 -23.99669,-8.83879 -41.33333,-14.06061 -11.9027,-3.58511 -31.24428,-3.911 -234.22976,-3.9466 -116.10698,-0.0204 -212.603592,-0.41196 -214.436926,-0.87022 -5.859681,-1.46468 -9.333333,-5.72678 -9.333333,-11.45185 0,-5.97195 1.582473,-9.53987 4.96296,-11.18972 1.303705,-0.63628 58.664677,-1.45687 127.468829,-1.82353 L 277.53024,179.33334 242.61988,143.66667 207.7095,108 h -55.23091 c -65.676919,0 -64.478587,0.20441 -64.478587,-10.998627 0,-3.924087 0.72,-7.854703 1.6,-8.734703 1.199774,-1.199774 17.527837,-1.6 65.275267,-1.6 h 63.67527 l 17.05807,17.56603 c 9.38193,9.66131 29.90272,30.66132 45.60175,46.66667 l 28.54369,29.10064 76.12298,0.001 c 79.18801,0.001 80.77505,0.0928 102.47255,5.91537 30.14181,8.08871 66.05068,24.47507 89.15967,40.6864 2.66341,1.86843 6.16937,4.29714 7.79102,5.39714 3.33263,2.26058 5.4173,3.98436 16.63483,13.75505 21.6807,18.88431 39.00876,40.5239 53.20751,66.44642 4.23868,7.7385 4.85741,10.02016 4.85741,17.91236 0,11.22215 -2.93628,17.77484 -12.04793,26.88649 -6.37331,6.3733 -23.59543,16.33302 -28.24269,16.33302 -1.22027,0 -2.55475,0.54378 -2.96551,1.20842 -0.41076,0.66463 -3.89618,1.63182 -7.74536,2.1493 -3.84918,0.51748 -7.78763,1.57961 -8.7521,2.3603 -1.22026,0.98774 -42.85696,1.31879 -136.90276,1.0885 l -135.14917,-0.33095 -29.19492,39.09555 c -16.0572,21.50255 -50.67144,67.89555 -76.92053,103.09555 -26.24908,35.2 -49.57283,65.95 -51.83055,68.33333 l -4.10493,4.33334 H 93.071781 c -40.189479,0 -73.07178,-0.33292 -73.07178,-0.73982 z"
     style="fill:#e9e9e9;stroke-width:1.33333337" />
  <path
     inkscape:connector-curvature="0"
     id="path204"
     d="m 21.843517,591.48214 c 0.439598,-1.75151 3.555859,-9.10151 6.925023,-16.33333 3.369162,-7.23184 6.929757,-14.94879 7.912431,-17.14879 9.938557,-22.25035 14.012557,-31.20703 20.807618,-45.74551 2.847944,-6.09336 5.17808,-11.28791 5.17808,-11.54344 0,-0.25552 2.739355,-6.37004 6.087453,-13.58783 3.348101,-7.21777 7.200201,-15.52322 8.560223,-18.45656 1.360023,-2.93333 5.585487,-12.23333 9.389921,-20.66666 3.804435,-8.43334 8.300433,-18.33334 9.991108,-22.00001 1.690676,-3.66666 6.189426,-13.56666 9.997226,-22 3.8078,-8.43333 8.35971,-18.48333 10.11534,-22.33333 1.75564,-3.85 4.74505,-10.45 6.64315,-14.66667 3.98117,-8.84425 6.25197,-13.81116 13.77615,-30.13238 2.99168,-6.4895 5.43943,-12.26603 5.43943,-12.83675 0,-0.57072 0.82292,-1.72064 1.8287,-2.55536 1.40668,-1.16744 3.86832,-0.60259 10.66666,2.44764 4.8609,2.18092 8.83798,4.61544 8.83798,5.41002 0,0.79459 -1.72763,5.16969 -3.83919,9.72243 -2.11155,4.55276 -5.41155,11.72774 -7.33333,15.9444 -1.92178,4.21667 -4.93058,10.81667 -6.68622,14.66667 -5.34604,11.72355 -16.32515,35.86337 -20.16337,44.33333 -1.99389,4.4 -8.28395,18.20001 -13.9779,30.66667 -12.780334,27.98202 -16.098274,35.28414 -23.324869,51.33334 -3.136932,6.96666 -7.918179,17.46666 -10.624994,23.33333 -5.005138,10.84799 -5.884152,12.78491 -11.950625,26.33334 -5.791249,12.93376 -10.364923,22.88604 -11.642201,25.33333 -1.149742,2.20293 1.655272,2.33333 50.192449,2.33333 h 51.41025 l 79.01273,-105.66667 c 43.457,-58.11667 86.1935,-115.38916 94.97,-127.27221 8.7765,-11.88306 16.59891,-21.63306 17.38313,-21.66667 1.54564,-0.0663 15.71089,10.1243 16.21518,11.66528 0.16924,0.51714 -4.16812,6.94027 -9.63856,14.2736 l -9.94626,13.33333 101.63856,0.36976 c 130.5399,0.4749 150.50344,-0.86657 173.7729,-11.67682 8.21875,-3.81818 16.53233,-11.9293 16.53233,-16.12971 0,-3.02302 -13.53322,-25.18706 -22.93588,-37.56323 l -7.85063,-10.33333 h -35.94008 c -34.1623,0 -36.07198,-0.13187 -38.60674,-2.66667 -3.81612,-3.81612 -3.5987,-11.99291 0.41926,-15.76759 2.936,-2.75822 4.26984,-2.89908 27.45307,-2.89908 h 24.36713 l -6.45306,-5.08326 c -15.71428,-12.37862 -36.49987,-24.25205 -61.78641,-35.2945 -6.2974,-2.75003 -22.33204,-8.14213 -35.33333,-11.88184 l -10.66667,-3.06819 -214,-0.28997 C 136.96667,205.5561 37.436163,205.05162 33.487768,204.59451 21.160141,203.16735 15.929147,193.53489 22.763441,184.84649 l 2.76344,-3.51315 H 152.09678 c 69.61344,0 126.5699,-0.34285 126.5699,-0.76191 0,-0.41904 -0.75,-1.53576 -1.66667,-2.48157 -0.91667,-0.94581 -16.80829,-17.07279 -35.31471,-35.83772 l -33.64805,-34.11805 -56.35195,-0.40038 c -42.84998,-0.30444 -57.070766,-0.81095 -59.351963,-2.11395 -2.514246,-1.43612 -3.000001,-2.8502 -3.000001,-8.733335 0,-3.860866 0.72,-7.739755 1.600001,-8.619755 1.199176,-1.199176 17.341213,-1.6 64.435453,-1.6 h 62.83544 l 10.55859,11 c 5.80723,6.05 26.54782,27.35 46.09022,47.33334 l 35.53162,36.33333 78.47434,0.0581 c 43.1609,0.0319 80.87435,0.58642 83.80768,1.23218 14.95068,3.29132 37.76207,10.02612 45.33334,13.38416 1.46666,0.65049 5.96667,2.53028 10,4.17728 4.03333,1.64701 13.57513,6.22853 21.204,10.18117 46.03829,23.85317 81.31492,57.95095 105.26527,101.74756 4.6888,8.57416 5.53073,11.29202 5.53073,17.85396 0,21.11859 -19.55472,38.4415 -52.70845,46.69278 l -13.29155,3.30799 -133.33334,0.0185 -133.33334,0.0185 -7.33333,10.038 c -4.03333,5.5209 -10.03333,13.58634 -13.33333,17.92319 -8.39584,11.03377 -7.81804,10.26192 -75.3819,100.69991 -33.41911,44.73334 -62.07964,82.36999 -63.69007,83.63702 -2.69084,2.11706 -8.74544,2.30609 -74.739251,2.33333 l -71.811213,0.0296 z"
     style="fill:#cecece;stroke-width:1.33333337" />
  <path
     inkscape:connector-curvature="0"
     id="path202"
     d="m 21.333334,593.95985 c 0,-0.99464 5.588612,-14.12716 11.047339,-25.95983 2.537299,-5.5 10.762737,-23.5 18.27875,-40 7.516015,-16.5 15.992378,-35.00958 18.836363,-41.13239 2.843986,-6.12283 5.170883,-11.329 5.170883,-11.56929 0,-0.43211 4.749158,-10.82939 14.81335,-32.43071 2.852659,-6.12283 5.186651,-11.33731 5.186651,-11.58773 0,-0.25044 2.453235,-5.74087 5.45163,-12.20095 2.9984,-6.46008 6.66763,-14.4456 8.15385,-17.7456 1.48622,-3.3 7.35118,-16.2 13.03325,-28.66667 5.68207,-12.46667 13.17356,-28.96667 16.64778,-36.66667 3.4742,-7.7 6.74047,-14.45447 7.25836,-15.00992 0.72785,-0.78063 16.49655,5.751 18.54757,7.68269 0.45607,0.42954 -0.22736,1.99591 -15.12282,34.66057 -20.57194,45.11272 -31.09572,68.22305 -33.69747,74 -1.48622,3.3 -5.15545,11.28552 -8.15385,17.7456 -2.9984,6.46008 -5.45163,11.95051 -5.45163,12.20095 0,0.25042 -2.335189,5.4649 -5.189305,11.58773 -2.854116,6.12281 -7.889311,17.13239 -11.189321,24.46572 -3.300011,7.33333 -7.654302,16.93333 -9.676203,21.33334 -15.928677,34.66352 -21.945176,48.09006 -21.945176,48.97333 0,1.31116 100.165875,1.31728 102.146765,0.007 0.81405,-0.53878 25.67489,-33.37959 55.24629,-72.97959 29.57142,-39.6 72.24667,-96.75001 94.8339,-127.00001 22.58723,-30.25 41.41643,-55 41.84267,-55 0.91043,0 9.32012,6.06777 13.52268,9.75689 l 2.92563,2.5682 -9.92563,13.10646 c -5.45909,7.20813 -9.92563,13.43499 -9.92563,13.83704 0,0.40205 49.3258,0.731 109.6129,0.731 119.29975,0 133.51127,-0.6788 154.83296,-7.39552 17.31041,-5.45308 27.53241,-13.20441 27.54917,-20.89051 0.009,-4.38493 -13.79726,-26.83125 -24.8499,-40.39953 l -5.95829,-7.31444 h -35.3207 -35.32068 l -3.43129,-3.4313 c -2.84316,-2.84316 -3.29751,-4.25565 -2.65077,-8.24098 1.40437,-8.65411 2.2227,-8.92059 29.66792,-9.66106 l 24.70993,-0.66666 -11.08729,-8.11319 c -30.28062,-22.15802 -66.57319,-38.44299 -101.91701,-45.73158 -13.35421,-2.7539 -15.74808,-2.78341 -227.23212,-2.8013 -191.01314,-0.0162 -214.071882,-0.23834 -216.897668,-2.08986 -6.46551,-4.23637 -7.257527,-12.82086 -1.627651,-17.64173 2.4732,-2.11781 12.131778,-2.33888 129.137969,-2.95568 l 126.46484,-0.66667 -36.17449,-37.04656 -36.1745,-37.04656 -55.33333,-0.0863 c -30.43334,-0.0475 -56.83334,-0.50093 -58.666673,-1.00763 -2.946197,-0.81428 -3.380673,-1.74331 -3.740926,-7.999138 -0.321335,-5.580003 0.10192,-7.464194 2,-8.903412 1.955394,-1.482674 13.987279,-1.833516 64.060139,-1.867956 l 61.65255,-0.0424 24.34746,24.995806 c 13.3911,13.7477 34.1857,35.02199 46.21022,47.27622 l 21.86278,22.28041 81.47056,0.48562 81.47056,0.48562 12.66667,3.59126 c 53.0057,15.02816 94.28884,38.14764 127.70619,71.51832 15.0496,15.02857 29.92528,34.66115 39.91971,52.68508 6.01875,10.8542 7.03652,13.71231 7.01149,19.68949 -0.0319,7.59921 -3.05225,15.55118 -8.73858,23.00634 -7.66855,10.054 -28.26959,20.52531 -48.90931,24.86015 -4.8761,1.02409 -47.35475,1.377 -140.48651,1.1671 L 328.33932,378.40762 315.05509,396.204 C 212.4555,533.65286 169.85446,590.24331 167.50569,592.206 c -2.64275,2.20834 -7.79343,2.3754 -74.505687,2.4167 -39.416668,0.0244 -71.666669,-0.27372 -71.666669,-0.66248 z"
     style="fill:#b0b0b0;stroke-width:1.33333337" />
  <path
     inkscape:connector-curvature="0"
     id="path200"
     d="m 22.642225,591.00002 c 0.617509,-2.01667 6.797305,-15.96667 13.732883,-31 14.42832,-31.27436 17.695575,-38.41495 25.623406,-56 3.140768,-6.96667 7.641438,-16.86667 10.001489,-22 2.36005,-5.13334 6.86072,-15.03334 10.001488,-22 3.140768,-6.96667 7.213024,-15.96667 9.049459,-20 1.836435,-4.03334 7.980244,-17.53334 13.65291,-30.00001 5.67267,-12.46666 12.10041,-26.56666 14.28387,-31.33333 2.18347,-4.76667 6.66928,-14.66667 9.96847,-22 12.76548,-28.37468 16.31391,-35.33039 17.98207,-35.24883 2.9658,0.145 16.40922,7.38124 16.12743,8.68099 -0.1472,0.67897 -3.80559,9.03451 -8.12975,18.56784 -10.56325,23.28847 -73.548952,161.58654 -78.941967,173.33334 -2.356739,5.13333 -6.854701,15.03333 -9.995469,22 -3.140768,6.96667 -7.275293,16.07823 -9.187833,20.24789 -1.91254,4.16968 -3.477346,8.21968 -3.477346,9 0,0.97824 15.941687,1.41878 51.341845,1.41878 h 51.34184 l 21.08832,-28.33334 c 41.48013,-55.73088 168.54898,-225.68743 169.53617,-226.75726 1.05088,-1.13885 16.02517,9.34045 16.02517,11.21473 0,0.59047 -4.18519,6.6541 -9.30043,13.47473 -5.11524,6.82062 -9.31524,12.85113 -9.33333,13.40113 -0.0493,1.50141 219.90779,1.17072 234.36615,-0.35236 19.08124,-2.01005 30.70126,-4.83436 41.24787,-10.02549 10.16658,-5.00408 16.68642,-11.6379 16.68642,-16.97811 0,-5.07938 -17.33007,-32.37895 -27.49411,-43.31071 l -4.029,-4.33333 h -34.45203 c -40.01563,0 -41.02487,-0.2447 -41.02487,-9.9467 0,-4.04045 0.79599,-6.36037 2.80666,-8.17998 2.53989,-2.29858 5.07442,-2.53999 26.66666,-2.53999 13.123,0 23.86002,-0.41493 23.86002,-0.92207 0,-0.50714 -3.45,-3.55653 -7.66667,-6.77641 -24.69981,-18.86104 -57.04496,-34.82835 -88.33334,-43.60611 -5.5,-1.54299 -12.1,-3.51817 -14.66666,-4.38931 -3.51154,-1.19181 -58.29791,-1.6655 -221.33334,-1.91369 C 131.5,204.21102 32.045461,203.72047 29.656578,203.30233 21.050937,201.79599 17.968409,190.09063 24.661222,184.33334 l 3.487482,-3 H 154.07435 c 69.25911,0 125.92566,-0.29729 125.92566,-0.66065 0,-0.36336 -16.26024,-17.13926 -36.13385,-37.27976 l -36.13387,-36.61912 -57.1341,-0.3869 c -40.18998,-0.27216 -57.580107,-0.83331 -58.638025,-1.89213 -0.827166,-0.82787 -1.846287,-4.05763 -2.264715,-7.177239 -0.657283,-4.900415 -0.32555,-6.006643 2.438555,-8.131798 3.000528,-2.306929 6.969108,-2.461472 63.866005,-2.487039 l 60.66666,-0.02727 46.39138,47.281816 46.39137,47.2818 80.2753,0.43667 80.2753,0.43665 13.30184,3.67968 c 26.35617,7.2909 40.97761,12.83012 62.53781,23.69198 48.07407,24.21936 83.44734,58.12012 108.75017,104.22316 6.72081,12.24568 7.04254,18.17526 1.60929,29.65996 -8.43923,17.8387 -32.24684,31.44519 -60.91614,34.8147 -4.17354,0.49052 -66.16958,0.95117 -137.76896,1.02368 l -130.18069,0.13182 -32,42.68058 c -17.6,23.47434 -52.33058,69.97434 -77.17909,103.33334 -24.84851,33.35902 -47.29847,62.60275 -49.88882,64.98608 l -4.70972,4.33334 H 92.537598 21.519482 Z"
     style="fill:#8f8f8f;stroke-width:1.33333337" />
  <path
     inkscape:connector-curvature="0"
     id="path198"
     d="m 22.666667,592.85315 c 0,-0.99745 2.319727,-6.84745 5.15495,-13 7.396146,-16.04996 11.690718,-25.46588 18.176897,-39.85313 3.140768,-6.96667 7.496959,-16.56667 9.680424,-21.33334 3.66442,-7.9997 20.124863,-44.14928 27.927684,-61.33333 4.41115,-9.71463 15.865792,-34.89011 19.867988,-43.66667 1.75563,-3.85 4.62849,-10.15 6.38412,-14 7.15186,-15.68359 17.3789,-38.18445 21.05931,-46.33333 11.18586,-24.76685 13.65774,-30.08555 14.41229,-31.01066 0.96626,-1.18469 17.33634,5.60403 17.33634,7.18944 0,0.59153 -1.43642,4.24331 -3.19206,8.11503 -1.75563,3.87173 -6.19492,13.63952 -9.86508,21.70619 -3.67018,8.06666 -8.30441,18.26666 -10.2983,22.66666 -1.99389,4.4 -8.28394,18.2 -13.97789,30.66667 -12.5023,27.37326 -15.91255,34.8763 -23.33185,51.33334 -3.140767,6.96666 -7.641436,16.86666 -10.001487,22 -2.360051,5.13333 -6.86072,15.03333 -10.001488,22 -3.140768,6.96666 -7.219768,15.96667 -9.064444,20 -16.127012,35.26127 -20.934069,45.8802 -20.934069,46.24397 0,0.23248 23.550001,0.39666 52.333338,0.36484 l 52.33333,-0.0579 21.9767,-29.60882 C 281.55586,406.28999 347.06991,319.86944 348.77221,320.52268 c 2.734,1.04913 13.78088,9.31494 13.84247,10.3576 0.0285,0.48414 -2.21432,3.78415 -4.98427,7.33333 -2.76993,3.54919 -7.34438,9.63488 -10.16544,13.52376 l -5.1292,7.0707 122.49879,-0.50064 c 119.85377,-0.48983 122.75227,-0.56242 134.23793,-3.36178 20.72221,-5.05056 34.81113,-13.53117 37.53276,-22.59225 1.39152,-4.63274 -12.57587,-28.31228 -26.35847,-44.68672 l -5.33085,-6.33334 h -35.58464 c -39.91163,0 -39.99794,-0.0208 -39.99794,-9.6183 0,-8.17687 2.86352,-9.04836 29.73087,-9.04836 12.73691,0 23.5276,-0.36959 23.97932,-0.8213 0.45171,-0.4517 -2.29829,-3.33218 -6.11112,-6.40104 -22.48263,-18.09583 -55.21783,-34.81795 -86.47316,-44.17308 -25.58332,-7.65744 -12.07303,-7.25573 -244.27809,-7.26303 -129.90473,-0.004 -215.295549,-0.49792 -217.291169,-1.25665 -6.484182,-2.46528 -9.652932,-11.24413 -5.847596,-16.20045 4.017656,-5.23286 3.635748,-5.21779 132.314385,-5.21779 69.60647,0 124.66875,-0.50988 124.42099,-1.15215 -0.24444,-0.63368 -16.39444,-17.43368 -35.88889,-37.33333 l -35.44444,-36.18119 h -52.96514 c -33.94088,0 -55.04686,-0.52419 -58.760853,-1.45938 -5.511808,-1.38789 -5.826312,-1.73081 -6.419933,-7.000003 -0.534302,-4.742674 -0.120693,-5.971714 2.871974,-8.533995 l 3.496172,-2.993377 59.63871,-0.0067 59.63869,-0.0067 34.43469,34.999995 c 18.93908,19.25 39.74804,40.55 46.24213,47.33334 l 11.80747,12.33333 h 75.63905 c 70.11343,0 76.55077,0.1917 88.11917,2.62408 54.81228,11.52488 103.39987,36.99987 139.89288,73.34732 17.68215,17.6116 28.91176,32.65442 41.88379,56.10613 6.53457,11.81362 7.18368,15.85186 4.01172,24.95792 -6.01736,17.27465 -21.25783,29.06709 -47.34704,36.63521 -9.85162,2.8578 -11.46838,2.89754 -146.90465,3.60948 l -136.9434,0.71996 -36.35326,48.66666 c -19.99429,26.76667 -55.16951,73.86667 -78.16713,104.66668 -22.99764,30.8 -43.69722,57.35 -45.99906,59 l -4.18517,3 H 92.370963 c -57.885234,0 -69.704296,-0.30751 -69.704296,-1.81354 z"
     style="fill:#6a6a6a;stroke-width:1.33333337" />
  <path
     inkscape:connector-curvature="0"
     id="path196"
     d="m 23.375306,591.66669 c 0.488587,-1.65 2.264202,-6 3.94581,-9.66667 1.681609,-3.66667 6.187107,-13.56667 10.012219,-22 6.919168,-15.25489 8.15636,-17.95351 18.551644,-40.46572 2.996596,-6.4895 5.448356,-11.99567 5.448356,-12.23596 0,-0.43211 4.749158,-10.82939 14.81335,-32.43071 2.852659,-6.12283 5.186651,-11.329 5.186651,-11.56929 0,-0.24031 2.171855,-5.13072 4.826344,-10.86762 12.046798,-26.03557 15.411,-33.38977 25.81439,-56.43071 3.8078,-8.43333 8.30655,-18.33333 9.99723,-22 2.75463,-5.97413 11.07122,-24.27732 20.2956,-44.66667 1.82472,-4.03333 3.47389,-7.49608 3.66483,-7.69498 0.19092,-0.19891 4.03528,1.46824 8.54302,3.70476 l 8.19588,4.0664 -1.86365,4.29524 c -2.04605,4.71564 -8.93295,19.91149 -12.82365,28.29525 -1.3613,2.93334 -5.21443,11.23879 -8.56254,18.45656 -3.34809,7.21779 -6.08745,13.32396 -6.08745,13.5693 0,0.44045 -4.70046,10.73402 -14.81335,32.43986 -2.85266,6.12283 -5.18665,11.33731 -5.18665,11.58774 0,0.25044 -2.45324,5.74087 -5.45164,12.20095 -2.99839,6.46008 -6.66763,14.4456 -8.153843,17.7456 -4.592496,10.19718 -23.74971,52.13413 -28.528777,62.45217 -2.492826,5.38204 -4.532411,9.99652 -4.532411,10.25442 0,0.49217 -9.48367,21.17698 -12.760356,27.8316 -1.048471,2.12933 -1.906311,4.37933 -1.906311,5 0,0.62066 23.563867,1.12848 52.364148,1.12848 h 52.36415 l 46.61712,-62.33334 c 25.63943,-34.28333 68.1361,-91.13334 94.43707,-126.33334 26.30096,-35.2 48.3321,-64.54269 48.95806,-65.206 0.66232,-0.70181 4.23356,1.13108 8.54232,4.38421 l 7.40418,5.59023 -10.07541,13.30424 c -5.54147,7.31732 -9.71064,13.89443 -9.26483,14.61578 0.52099,0.84297 39.96274,1.30212 110.39857,1.28514 112.7282,-0.0272 127.79644,-0.60213 149.59107,-5.70808 16.41127,-3.84477 31.40395,-13.44918 33.39825,-21.39516 0.667,-2.65753 -0.0549,-5.52653 -2.64873,-10.52593 -4.67693,-9.01462 -13.65684,-22.38652 -21.72087,-32.34443 l -6.47851,-8 -35.27661,-0.66667 c -39.36391,-0.7439 -41.27663,-1.15617 -41.27663,-8.8966 0,-3.17497 0.98304,-4.95513 3.8725,-7.01261 3.56222,-2.53652 5.75222,-2.75745 27.33333,-2.75745 12.90347,0 23.46084,-0.52731 23.46084,-1.17179 0,-0.64448 -4.35,-4.41949 -9.66667,-8.38893 -27.76088,-20.7263 -58.73251,-35.80557 -91,-44.30546 -24.3672,-6.41881 -11.94157,-6.10243 -240.24927,-6.11741 -233.429755,-0.0153 -219.245374,0.45093 -221.183302,-7.27039 -1.147868,-4.57347 0.414123,-8.45396 4.474011,-11.11488 3.236788,-2.12145 13.148004,-2.34899 129.131561,-2.96448 l 125.62569,-0.66667 -36.23268,-37.05912 -36.23269,-37.05912 -52.51197,0.0591 c -51.87057,0.0584 -61.730989,-0.6364 -64.467613,-4.54263 -2.146349,-3.063681 -1.028176,-10.297665 1.979583,-12.806834 2.834193,-2.364376 6.291375,-2.50515 62.55187,-2.547058 l 59.55185,-0.04436 19.78148,20.260092 c 10.87981,11.14305 31.73163,32.44306 46.33739,47.33334 l 26.55591,27.07324 74.11076,2.3e-4 c 60.61927,1.8e-4 76.02965,0.36741 84.65151,2.01725 57.21275,10.94789 108.77367,37.82063 146.21522,76.20507 16.68135,17.10145 26.63174,29.99275 36.1358,46.81601 11.60311,20.53886 11.75212,21.08676 8.37347,30.78847 -2.83276,8.13423 -5.10369,12.19154 -9.48316,16.9429 -9.23324,10.0173 -24.76649,17.39446 -46.35468,22.01512 -11.26607,2.41133 -18.9882,2.54829 -143.68147,2.54829 H 326.6371 l -41.56633,55.66667 c -22.86148,30.61667 -58.16152,77.86667 -78.44454,105 -20.28302,27.13334 -38.74722,50.68334 -41.03156,52.33334 l -4.15334,3 H 91.964143 22.486967 Z"
     style="fill:#4e4e4e;stroke-width:1.33333337" />
  <path
     inkscape:connector-curvature="0"
     id="path194"
     d="m 24.000001,592.58125 c 0,-1.14699 1.5,-5.34699 3.333333,-9.33334 1.833334,-3.98633 4.888344,-10.69789 6.788914,-14.91456 3.681992,-8.169 9.46406,-20.76077 14.541146,-31.66666 1.706964,-3.66667 4.137613,-9.06667 5.401444,-12 1.263829,-2.93334 3.962681,-8.93334 5.997448,-13.33334 2.034768,-4.4 5.021615,-11 6.637439,-14.66667 1.615825,-3.66666 4.31386,-9.66666 5.995635,-13.33333 1.681775,-3.66667 4.393193,-9.66667 6.025375,-13.33333 1.632182,-3.66667 4.918192,-10.86667 7.302244,-16 8.199622,-17.6554 12.335003,-26.68159 15.271791,-33.33334 1.61885,-3.66667 4.60818,-10.26667 6.64295,-14.66667 2.03477,-4.4 4.63308,-10.1 5.77404,-12.66666 1.14095,-2.56667 4.57066,-10.06667 7.62158,-16.66667 5.53398,-11.97159 6.22405,-13.49108 12.41318,-27.33333 6.17668,-13.81436 11.84181,-26.00003 12.31505,-26.48963 0.26029,-0.26931 4.08068,1.17578 8.48974,3.2113 7.96172,3.67567 8.00355,3.72454 6.12411,7.1563 -1.0408,1.90045 -3.48716,7.05536 -5.43636,11.45536 -3.46205,7.81504 -7.10448,15.86796 -13.26776,29.33333 -1.6783,3.66667 -4.6084,10.11667 -6.51136,14.33334 -4.08801,9.05837 -9.24869,20.40601 -13.49181,29.66666 -1.68002,3.66667 -4.39001,9.66667 -6.02219,13.33334 -1.63218,3.66667 -4.91595,10.86667 -7.29727,16 -4.74191,10.22201 -9.442868,20.51235 -14.770913,32.33333 -4.005967,8.88778 -10.092178,22.12608 -14.558509,31.66667 -1.716515,3.66667 -4.419136,9.66667 -6.005827,13.33334 -1.58669,3.66666 -4.5497,10.26666 -6.584468,14.66666 -6.744474,14.58432 -8.062284,17.72288 -8.062284,19.20151 0,0.80584 -0.6,1.46516 -1.333334,1.46516 -0.733333,0 -1.333333,0.65932 -1.333333,1.46516 0,0.80584 -0.966059,3.50097 -2.146796,5.9892 -4.209262,8.87036 -6.134867,8.54564 50.676384,8.54564 42.46988,0 51.58264,-0.32383 53.04184,-1.88484 2.57836,-2.75827 5.74339,-6.95456 34.70247,-46.00957 14.45276,-19.49142 26.83109,-36.08595 27.50741,-36.87677 0.67631,-0.79081 26.29165,-34.99081 56.92295,-76 30.63131,-41.00919 58.95698,-78.91216 62.94594,-84.22883 3.98895,-5.31667 7.82473,-9.66667 8.52395,-9.66667 1.73853,0 13.04254,8.40423 13.1072,9.74486 0.044,0.91302 -7.1389,10.86779 -9.32383,12.92181 -2.45335,2.30636 -9.29084,12.8282 -9.29084,14.29718 0,1.46404 20.67151,1.68508 119,1.27249 120.31795,-0.50485 128.69917,-0.83152 145.00001,-5.65156 15.81107,-4.67523 27.21943,-12.2624 30.55817,-20.32284 1.3449,-3.24686 1.01272,-4.6995 -2.6644,-11.65227 -6.4076,-12.11559 -15.31754,-24.97479 -26.52111,-38.27633 -1.77842,-2.11147 -5.24564,-2.33334 -36.46316,-2.33334 -32.73925,0 -34.69525,-0.14056 -38.37034,-2.75745 -4.88558,-3.47884 -4.90298,-6.85517 -0.0615,-11.92135 l 3.81103,-3.98786 H 560.399 c 12.89399,0 23.7614,-0.51418 24.1498,-1.14262 1.68936,-2.73345 -32.62146,-25.48889 -53.21546,-35.29325 -5.86667,-2.793 -11.70853,-5.63752 -12.98191,-6.32116 -1.2734,-0.68363 -2.98272,-1.24298 -3.79851,-1.24298 -0.81579,0 -3.37393,-0.82692 -5.68476,-1.8376 -8.54224,-3.73608 -19.94164,-7.3263 -35.53484,-11.19166 -7.75643,-1.92274 -31.35273,-2.18883 -224.66667,-2.53367 -118.80001,-0.21192 -217.310176,-0.69839 -218.911487,-1.08104 -1.601312,-0.38265 -4.246593,-2.57073 -5.878403,-4.8624 -2.898004,-4.06987 -2.912135,-4.2684 -0.608289,-8.54639 1.297251,-2.40884 3.642532,-4.72422 5.211736,-5.14528 1.569203,-0.42105 59.147094,-0.77374 127.950863,-0.78376 105.1665,-0.0153 125.02908,-0.3089 124.66667,-1.84276 -0.23709,-1.00352 -16.53241,-18.25352 -36.2118,-38.33333 L 209.10525,106 151.32882,105.33334 C 119.55177,104.96667 93.285646,104.36667 92.959639,104 c -0.326006,-0.36666 -0.90315,-3.10449 -1.282544,-6.084061 -0.628661,-4.93719 -0.312589,-5.67587 3.565724,-8.333333 4.214876,-2.88808 4.804431,-2.915936 61.712481,-2.915936 h 57.45695 L 250.40926,123 c 19.79835,19.98334 40.96423,41.58334 47.03527,48.00001 l 11.03828,11.66666 76.7586,0.0795 c 42.21723,0.0437 79.45861,0.60551 82.75861,1.24844 16.0088,3.11891 45.35913,11.58676 47.46706,13.69469 0.53756,0.53756 1.83671,0.97739 2.88699,0.97739 2.682,0 25.11319,10.3728 38.31262,17.71681 9.86417,5.48832 29.27333,18.6027 36.66666,24.77493 9.46868,7.9048 30.03605,28.47014 36.17847,36.17493 6.94136,8.70692 18.71291,27.08439 24.99452,39.02085 l 5.44892,10.35419 -1.94764,7.47752 c -3.96081,15.20658 -12.77421,25.285 -28.67426,32.78996 -9.11176,4.30083 -12.19187,5.28391 -27.33334,8.72391 -10.80665,2.45517 -5.65515,2.36801 -160.152,2.70988 l -116.15201,0.25704 -3.848,5.66667 c -2.1164,3.11666 -4.88552,6.81641 -6.1536,8.22165 -1.26808,1.40524 -3.96808,5.00524 -6,8 -2.03192,2.99476 -4.73192,6.59476 -6,8 -1.26808,1.40524 -3.96808,5.00524 -6,8 -2.03192,2.99476 -4.73192,6.59476 -6,8 -1.26808,1.40524 -3.96808,5.00524 -6,8 -2.03192,2.99476 -4.73192,6.59476 -6,8 -1.26808,1.40524 -3.9664,5.00524 -5.99625,8 -2.02986,2.99476 -4.00812,5.74502 -4.39616,6.11168 -0.38803,0.36667 -8.04627,10.56667 -17.01832,22.66667 -8.97204,12.1 -17.65626,23.73704 -19.29825,25.86008 -1.64198,2.12305 -4.48542,6.013 -6.31876,8.64432 -1.83333,2.63133 -4.37085,5.94403 -5.63893,7.36156 -1.26808,1.41753 -3.9664,5.0276 -5.99625,8.02236 -2.02986,2.99476 -4.05548,5.74502 -4.5014,6.11168 -0.44591,0.36667 -9.92618,12.93074 -21.06724,27.92014 -11.14108,14.98941 -22.2961,28.63941 -24.78894,30.33333 l -4.53242,3.07987 H 92.070742 c -60.857868,0 -68.070741,-0.22098 -68.070741,-2.08544 z"
     style="fill:#353535;stroke-width:1.33333337" />
</svg>
