<?xml version="1.0" encoding="UTF-8" standalone="no"?>
<!-- Created with Inkscape (http://www.inkscape.org/) -->

<svg
   xmlns:dc="http://purl.org/dc/elements/1.1/"
   xmlns:cc="http://creativecommons.org/ns#"
   xmlns:rdf="http://www.w3.org/1999/02/22-rdf-syntax-ns#"
   xmlns:svg="http://www.w3.org/2000/svg"
   xmlns="http://www.w3.org/2000/svg"
   xmlns:xlink="http://www.w3.org/1999/xlink"
   xmlns:sodipodi="http://sodipodi.sourceforge.net/DTD/sodipodi-0.dtd"
   xmlns:inkscape="http://www.inkscape.org/namespaces/inkscape"
   version="1.1"
   id="svg146"
   width="666.66669"
   height="666.66669"
   viewBox="0 0 666.66669 666.66669"
   sodipodi:docname="pesawat-alt.svg"
   inkscape:version="0.92.3 (2405546, 2018-03-11)">
  <metadata
     id="metadata152">
    <rdf:RDF>
      <cc:Work
         rdf:about="">
        <dc:format>image/svg+xml</dc:format>
        <dc:type
           rdf:resource="http://purl.org/dc/dcmitype/StillImage" />
        <dc:title></dc:title>
      </cc:Work>
    </rdf:RDF>
  </metadata>
  <defs
     id="defs150" />
  <sodipodi:namedview
     pagecolor="#ffffff"
     bordercolor="#666666"
     borderopacity="1"
     objecttolerance="10"
     gridtolerance="10"
     guidetolerance="10"
     inkscape:pageopacity="0"
     inkscape:pageshadow="2"
     inkscape:window-width="1366"
     inkscape:window-height="705"
     id="namedview148"
     showgrid="false"
     inkscape:zoom="0.35399999"
     inkscape:cx="333.33334"
     inkscape:cy="333.33334"
     inkscape:window-x="-8"
     inkscape:window-y="-8"
     inkscape:window-maximized="1"
     inkscape:current-layer="svg146" />
  <image
     sodipodi:absref="E:\Project-website\tanyabudi\public\assets\images\icon\pesawat-alt.png"
     xlink:href="pesawat-alt.png"
     y="0"
     x="0"
     id="image154"
     preserveAspectRatio="none"
     height="666.66669"
     width="666.66669" />
  <path
     inkscape:connector-curvature="0"
     id="path214"
     d="m 263.45186,601.23105 c -3.91378,-4.65127 -4.53613,-11.08966 -1.49202,-15.43572 2.16042,-3.08444 28.43506,-29.09311 95.76473,-94.79531 18.9548,-18.49663 19.62295,-19 25.22,-19 9.89147,0 16.39691,9.0063 13.07523,18.1017 -0.78695,2.15482 -12.29077,14.5435 -25.72173,27.70019 -13.36394,13.09104 -38.84362,38.14104 -56.62153,55.66667 l -32.32346,31.86477 h -7.22467 c -6.43063,0 -7.60408,-0.45088 -10.67655,-4.1023 z M 94.53495,585.19234 c -2.965421,-3.17449 -3.86828,-5.41587 -3.86828,-9.60316 0,-5.34524 0.592228,-6.04399 27.66667,-32.64248 15.21666,-14.94916 39.96667,-39.29391 55,-54.09942 33.18616,-32.68324 33.38983,-32.84726 40.78587,-32.84726 8.31584,0 12.54746,4.4973 12.54746,13.33522 v 6.54735 l -26.33333,25.90412 c -28.04191,27.58486 -49.16197,48.27351 -74.05944,72.54664 -15.1646,14.78434 -15.47556,15 -21.62824,15 -5.264035,0 -6.848718,-0.64902 -10.11071,-4.14101 z m 399.46507,-77.19232 c -0.45323,-0.73334 -1.83864,-1.33455 -3.0787,-1.33602 -3.58834,-0.004 -19.4821,-11.08916 -28.05145,-19.5641 -8.54912,-8.45495 -9.49715,-10.00224 -27.224,-44.43322 -6.60727,-12.83333 -16.22116,-31.43333 -21.3642,-41.33333 -5.14304,-9.9 -11.10722,-21.45 -13.25372,-25.66667 -3.40832,-6.69541 -6.34215,-9.76569 -6.37038,-6.66667 -0.005,0.55 -2.25501,2.49464 -5,4.32143 -2.74498,1.8268 -5.29089,3.68031 -5.65756,4.11893 -0.36666,0.43863 -10.25361,7.88807 -21.971,16.55432 -11.71737,8.66627 -21.99385,16.41275 -22.83662,17.21442 -0.84276,0.80166 -2.88078,2.35757 -4.52892,3.45757 -1.64817,1.1 -6.37167,4.57955 -10.49671,7.73233 -8.55546,6.53897 -7.95098,4.5473 -11.41207,37.60101 -2.90308,27.72468 -4.06023,33.05061 -7.96751,36.67176 -4.71689,4.37146 -7.99226,4.7275 -33.08861,3.59669 -19.95291,-0.89904 -22.5144,-1.28201 -24.32376,-3.63665 -2.26096,-2.94234 -2.22676,-2.80663 -5.36795,-21.29847 -1.2457,-7.33333 -2.75222,-14.59168 -3.34782,-16.12965 -0.59561,-1.53796 -1.50745,-6.19408 -2.0263,-10.34691 -0.77719,-6.22033 -1.44456,-7.66188 -3.78807,-8.18223 -2.71664,-0.60318 -8.30509,-1.4842 -32.178,-5.07278 -10.84052,-1.62956 -16.03629,-3.68132 -18.9576,-7.48622 -1.14356,-1.48945 -1.63681,-9.70907 -1.66666,-27.77385 l -0.0424,-25.65831 5.24137,-3.79683 c 4.97013,-3.60034 6.22932,-3.84861 24.33333,-4.79758 10.50058,-0.55043 24.54324,-1.39563 31.20591,-1.87822 l 12.11395,-0.87742 5.94439,-7.33334 c 3.26941,-4.03333 11.57736,-14.83333 18.46209,-24 6.88473,-9.16667 12.86643,-16.96667 13.29264,-17.33333 3.4238,-2.94543 21.38852,-28.28346 20.76655,-29.28983 -0.43782,-0.70837 -3.62296,-2.72821 -7.07812,-4.48851 -3.45516,-1.76029 -11.38211,-5.89061 -17.61544,-9.17846 -6.23334,-3.28787 -17.93334,-9.45796 -26,-13.71134 -8.06667,-4.25336 -18.26667,-9.64604 -22.66667,-11.98373 -4.4,-2.33769 -15.2,-8.0167 -24,-12.62 -8.8,-4.60332 -18.01606,-10.25032 -20.48011,-12.5489 -6.01693,-5.61285 -17.51989,-22.01145 -17.51989,-24.97632 0,-1.30838 -0.6,-2.74969 -1.33334,-3.20292 -2.66693,-1.64825 -1.48792,-14.90149 1.89098,-21.25632 5.31145,-9.98948 17.98461,-20.28742 26.5723,-21.5921 2.31187,-0.35124 21.30339,0.005 42.20339,0.79157 20.9,0.78659 56,1.98592 78,2.66516 22.00001,0.67925 45.10001,1.55629 51.33334,1.94899 6.23333,0.3927 22.13333,1.06492 35.33333,1.49382 l 24.00001,0.77982 8.66666,-8.24738 C 456.88139,135.7232 465.7416,127.64559 472.55703,122 c 3.54115,-2.93333 7.50852,-6.23333 8.81636,-7.33333 1.30785,-1.1 3.70739,-2.9 5.33231,-4 1.62492,-1.1 3.65764,-2.66962 4.51716,-3.48804 2.8985,-2.75991 19.60144,-13.845293 20.86144,-13.845293 0.68697,0 1.24905,-0.559568 1.24905,-1.243483 0,-0.683916 1.35,-1.664786 3,-2.17971 1.65,-0.514922 3.3,-1.305356 3.66667,-1.756516 1.5059,-1.852932 22.95145,-11.367728 30.08733,-13.348928 8.21631,-2.281164 30.66463,-1.872357 35.99158,0.655443 6.01997,2.856664 14.8764,12.679627 18.19397,20.179532 2.36575,5.348185 2.62693,8.114455 2.09924,22.234225 -0.62661,16.76689 -0.48799,16.25097 -9.52821,35.45944 -3.31595,7.04564 -15.36623,26.85453 -19.87202,32.66667 -16.01106,20.65314 -28.87986,35.29424 -44.73528,50.89625 l -9.7634,9.60736 0.55099,11.74819 c 0.30304,6.46151 1.25028,29.4482 2.10496,51.08153 0.85469,21.63334 2.22017,46.57274 3.03439,55.4209 2.18144,23.70581 2.3123,110.62774 0.16978,112.77523 -0.91666,0.9188 -1.66666,3.15313 -1.66666,4.96517 0,1.81206 -1.7987,6.94206 -3.99711,11.4 -5.25832,10.66284 -11.79699,15.43871 -21.13724,15.43871 -3.68955,0 -7.0791,-0.6 -7.53232,-1.33333 z m 5.16304,-37 c 2.54069,-21.55246 2.36742,-29.34523 -3.87619,-174.33334 -1.07371,-24.93334 -2.31843,-48.99806 -2.76607,-53.47715 l -0.81388,-8.1438 17.6752,-17.18954 c 20.12071,-19.56785 38.6411,-41.20248 49.72737,-58.08916 8.09046,-12.32345 15.5572,-26.44636 15.5572,-29.42558 0,-0.99446 0.70365,-2.51177 1.56368,-3.3718 0.87438,-0.87438 1.60908,-5.66992 1.66666,-10.87875 0.13366,-12.08877 -1.66702,-14.16283 -12.07934,-13.91327 -8.0836,0.19375 -8.01631,0.1712 -24.48434,8.20217 -11.29713,5.50928 -28.10479,16.03743 -34.92631,21.87751 -1.97613,1.69181 -5.5623,4.57603 -7.96926,6.40936 -8.6256,6.56995 -21.66651,18.38584 -41.65018,37.73772 l -12.12092,11.73774 -7.33333,-0.61618 c -4.03333,-0.33889 -29.23334,-1.26704 -56,-2.06256 -26.76667,-0.79552 -57.96667,-2.04828 -69.33334,-2.78392 -11.36667,-0.73562 -39.56667,-1.70102 -62.66667,-2.14533 -35.20088,-0.67704 -42.40308,-0.50021 -44.48997,1.09235 -2.32584,1.77489 -2.351,2.16886 -0.38175,5.977 3.57481,6.9129 8.80261,12.2193 15.30808,15.53821 3.42667,1.74819 10.43031,5.42215 15.56364,8.16436 14.60128,7.79996 40.22232,21.2122 52.66667,27.57023 6.23333,3.18471 11.63333,6.09039 12,6.45705 0.36667,0.36667 4.56667,2.68162 9.33333,5.14434 4.76667,2.46272 14.06667,7.26272 20.66667,10.66666 6.6,3.40395 12.3,6.48956 12.66667,6.85691 0.36667,0.36735 3.51667,2.05943 7,3.7602 6.86159,3.35023 7.59723,5.00469 3.99604,8.98715 -1.28552,1.42161 -3.23552,3.87697 -4.33333,5.45634 -2.14239,3.08215 -26.11843,34.42032 -28.90115,37.7756 -2.11086,2.54518 -17.83046,23.12785 -36.16474,47.35281 -7.77017,10.26666 -14.97469,19.52605 -16.01005,20.57642 -1.48149,1.50296 -8.11337,2.03735 -31.13386,2.50872 l -29.25137,0.59898 0.39923,6.15793 0.39922,6.15795 8.62222,0.95082 c 4.74221,0.52295 11.34221,1.54414 14.66666,2.26931 5.21731,1.13807 9.85185,2.04723 24.88514,4.88176 3.25067,0.61291 4.19987,2.89588 6.61,15.89811 0.95153,5.13333 2.69267,14.13333 3.86919,20 1.17652,5.86667 2.46842,12.54751 2.87089,14.84631 0.62569,3.57378 1.42784,4.29258 5.53383,4.9589 2.64113,0.42859 5.0041,0.57722 5.25105,0.33027 0.77684,-0.77684 2.86139,-15.54221 4.44272,-31.46881 3.04607,-30.67886 0.39272,-25.48238 20.76451,-40.66667 9.83865,-7.33334 19.82241,-14.97375 22.18613,-16.97871 2.36372,-2.00495 4.70481,-3.65495 5.20243,-3.66667 0.49763,-0.012 1.69763,-0.814 2.66667,-1.78288 0.96905,-0.96886 8.9619,-7.08333 17.7619,-13.58769 8.8,-6.50437 16.67648,-12.46165 17.5033,-13.23843 0.82681,-0.77676 2.83277,-2.31229 4.45769,-3.41229 1.62492,-1.1 4.04972,-2.9 5.38845,-4 1.33872,-1.1 3.83276,-3.02016 5.54231,-4.26703 1.70953,-1.24686 6.36661,-4.69686 10.34907,-7.66667 3.98244,-2.9698 8.18244,-5.37861 9.33333,-5.3529 1.26604,0.0283 4.07451,4.10958 7.11065,10.33333 2.75998,5.65763 10.31158,20.4866 16.78133,32.95327 15.86854,30.57736 34.49122,66.63454 42.21361,81.73383 5.21455,10.19581 7.86487,13.69235 14.90707,19.66667 4.71072,3.9964 9.0745,7.26617 9.69729,7.26617 0.62279,0 1.46831,-2.85 1.87895,-6.33333 z M 76.232421,424.91408 c -2.19722,-2.33884 -2.899085,-4.73859 -2.899085,-9.91227 v -6.82632 l 63.364294,-63.42106 63.3643,-63.42109 h 5.64933 c 8.1964,0 12.95541,4.69376 12.95541,12.77775 0,5.26901 -0.7283,6.78179 -5.9554,12.36997 -8.74376,9.34779 -112.62255,113.14381 -117.757661,117.66383 -5.746273,5.05798 -14.359612,5.41187 -18.721188,0.76919 z"
     style="fill:#e8e8e8;stroke-width:1.33333337" />
  <path
     inkscape:connector-curvature="0"
     id="path212"
     d="m 264.72728,601.93942 c -2.67082,-2.67083 -3.39572,-4.73043 -3.4023,-9.66667 l -0.008,-6.27273 19.00836,-18.5298 c 10.45424,-10.19139 33.708,-33.00405 51.67467,-50.69482 44.65939,-43.97357 45.57508,-44.77538 51.1352,-44.77538 3.21686,0 5.81704,1.15296 8.72379,3.86828 3.42276,3.19733 4.14101,4.88906 4.14101,9.75349 v 5.88521 l -37.66666,37.29933 c -20.71667,20.51461 -46.72955,46.12554 -57.80641,56.91317 -20.02406,19.5012 -20.17496,19.61385 -26.27273,19.61385 -4.79328,0 -6.87437,-0.74138 -9.52693,-3.39393 z M 95.754545,585.66669 c -4.063704,-4.36826 -5.537998,-9.6425 -3.899776,-13.95134 1.066644,-2.80549 29.887101,-31.79148 92.490401,-93.02163 11.5565,-11.30301 21.7565,-21.02388 22.66666,-21.6019 0.91016,-0.57803 3.951,-1.06016 6.7574,-1.07139 7.43435,-0.0297 12.89478,5.70099 12.90488,13.54369 0.007,5.6683 -0.32512,6.09406 -19,24.33476 -10.45409,10.21106 -33.70744,33.01334 -51.6741,50.67175 -45.80539,45.01948 -45.50887,44.76272 -51.69343,44.76272 -3.89256,0 -5.969338,-0.89041 -8.552035,-3.66666 z M 485.50111,503.87336 c -9.93409,-4.96412 -29.34497,-22.85829 -33.52809,-30.9083 -1.60956,-3.09744 -7.285,-14.03171 -12.6121,-24.29838 -5.32709,-10.26666 -14.67053,-28.26667 -20.76319,-40 -6.09266,-11.73333 -13.2196,-25.49508 -15.83764,-30.58165 -2.61804,-5.08658 -5.36008,-9.41071 -6.09341,-9.60916 -0.73333,-0.19847 -19.01079,12.97332 -40.61657,29.27064 -45.01187,33.95263 -40.22574,27.44468 -43.33167,58.92017 -4.50284,45.63179 -3.88744,44.96491 -39.98339,43.328 -28.07023,-1.27294 -26.57565,-0.20584 -29.87161,-21.328 -1.93824,-12.42112 -5.19995,-29.34329 -6.54502,-33.95636 -1.08097,-3.7073 -1.77779,-4.05877 -11.06933,-5.5834 -38.67546,-6.34617 -39.82976,-6.64976 -43.11454,-11.33943 -1.7662,-2.52161 -2.13454,-7.20976 -2.13454,-27.16804 v -24.12053 l 3.66666,-3.41987 c 2.01667,-1.88093 4.86667,-4.01704 6.33334,-4.74692 1.46666,-0.72986 15.86666,-1.75664 32,-2.2817 18.31768,-0.59616 30.01215,-1.516 31.14093,-2.44943 0.99419,-0.82213 10.97318,-13.51867 22.17554,-28.21455 11.20234,-14.69588 24.31578,-31.81292 29.14094,-38.03788 4.82518,-6.22496 8.34619,-11.74193 7.82448,-12.25993 -0.96809,-0.96123 -3.6154,-2.39139 -31.61522,-17.07955 -8.8,-4.61632 -19,-10.0204 -22.66667,-12.00908 -3.66667,-1.98868 -13.86667,-7.38965 -22.66667,-12.00216 -24.45272,-12.81687 -35.72757,-18.88496 -38.76859,-20.86515 -4.29964,-2.79976 -16.23472,-18.11308 -19.18484,-24.61513 -3.34049,-7.36243 -3.61281,-20.88551 -0.55053,-27.33879 2.84184,-5.98872 13.88469,-15.81529 21.65123,-19.26651 5.9659,-2.65108 7.13509,-2.69726 32.85273,-1.29754 14.66667,0.79824 46.16667,2.06052 70,2.80505 23.83334,0.74453 57.43334,1.89641 74.66667,2.55975 17.23334,0.66332 37.63334,1.23265 45.33334,1.26517 l 14,0.0591 11.33333,-11.06427 c 28.64576,-27.96567 61.42636,-52.700162 83.33334,-62.878896 16.53419,-7.682347 21.32868,-8.987917 35.52289,-9.673083 12.9888,-0.626978 14.71991,-0.420068 20.45691,2.445127 7.55181,3.771559 13.2852,10.02786 17.51588,19.113427 4.31213,9.260455 4.43617,26.931425 0.28219,40.195985 -8.27555,26.42552 -31.52348,59.8466 -66.92314,96.20827 l -14.58729,14.98371 0.87552,25.01629 c 0.48153,13.75895 1.48376,36.41628 2.22715,50.34961 2.64269,49.53135 5.33318,112.17522 5.31501,123.75132 -0.044,27.98789 -7.15388,52.43821 -17.21563,59.2028 -6.87897,4.62478 -17.36119,4.21972 -27.9684,-1.08076 z m 15.95276,-60.59192 c 0.12787,-19.73773 -0.66609,-40.47932 -4.13237,-107.94809 -0.71584,-13.93334 -1.95831,-42.40327 -2.76104,-63.26653 l -1.45951,-37.93319 13.91148,-12.99174 c 26.52196,-24.76847 52.60926,-57.72096 63.836,-80.63523 5.35494,-10.92962 6.7605,-15.27631 7.39775,-22.87749 0.74853,-8.92861 0.6106,-9.56029 -2.84159,-13.01247 -3.28078,-3.28079 -4.27337,-3.55191 -10.36322,-2.83066 -16.78671,1.98814 -37.85587,13.54653 -66.80283,36.64752 -12.96282,10.34493 -18.85,15.64778 -40.23852,36.2447 l -13.33334,12.83985 -14.66666,-0.93436 c -8.06667,-0.51389 -29.36667,-1.30916 -47.33334,-1.76725 -17.96667,-0.45809 -46.46667,-1.43931 -63.33334,-2.18047 -16.86666,-0.74117 -48.63082,-1.93168 -70.58704,-2.64558 -34.87855,-1.13407 -40.30932,-1.04315 -43,0.71985 -4.11773,2.69804 -3.89099,4.68531 1.31307,11.50827 5.40289,7.08366 9.90504,10.08781 33.60731,22.42509 10.26666,5.34391 21.66666,11.34879 25.33333,13.34417 3.66667,1.99538 13.86667,7.40183 22.66667,12.01434 8.8,4.61251 20.2,10.61249 25.33333,13.33331 5.13333,2.7208 15.93333,8.41428 24,12.65217 8.06667,4.23789 15.44766,8.42676 16.40218,9.3086 1.75149,1.61811 1.40602,2.10339 -35.14617,49.37043 -3.96966,5.13333 -12.92773,16.83333 -19.9068,26 -13.71973,18.02019 -19.92502,26.08969 -27.6306,35.93148 l -4.94805,6.3198 -16.26128,0.87436 c -8.94371,0.48089 -22.19996,0.87436 -29.45834,0.87436 H 207.8539 l 0.40639,6.33333 c 0.40184,6.26255 0.466,6.34318 5.73972,7.21312 5.70469,0.94106 24.3208,4.11867 37.18193,6.34666 4.31672,0.7478 7.98314,1.52777 8.14758,1.73326 0.5045,0.63046 4.37825,18.2825 7.25069,33.0403 4.41,22.65723 4.07223,21.93691 10.50855,22.41 3.06785,0.22549 5.59609,-0.0745 5.6183,-0.66667 0.0223,-0.59217 0.93963,-10.07666 2.03871,-21.07666 1.09907,-11 2.36565,-23.78255 2.81463,-28.40567 l 0.81632,-8.40567 33.87561,-25.59433 c 18.6316,-14.07688 36.74431,-27.69434 40.25047,-30.261 3.50617,-2.56667 14.58781,-10.81667 24.62588,-18.33334 10.03807,-7.51667 18.79667,-13.66667 19.46356,-13.66667 0.66688,0 3.868,5.25 7.11359,11.66667 3.24558,6.41667 10.25792,20.06667 15.58296,30.33334 9.1334,17.60917 22.32837,43.11125 40.35776,78 8.75943,16.95041 10.39395,19.09087 20.99869,27.49837 l 7.3119,5.79692 1.67908,-6.98097 c 0.94941,-3.94733 1.73929,-16.27416 1.81765,-28.36623 z M 76.861367,424.73035 c -2.865622,-2.65578 -3.528031,-4.46447 -3.528031,-9.63323 v -6.36357 L 135,346.94136 c 33.91667,-33.98571 63.28687,-62.65076 65.26713,-63.70011 5.45789,-2.89217 9.68618,-2.31084 14.25853,1.96037 3.39839,3.17458 4.14101,4.90286 4.14101,9.63731 v 5.76903 l -63.69602,63.69603 c -63.233437,63.23342 -63.735563,63.69602 -69.138644,63.69602 -3.929174,0 -6.423655,-0.9092 -8.970639,-3.26966 z"
     style="fill:#cfcfcf;stroke-width:1.33333337" />
  <path
     inkscape:connector-curvature="0"
     id="path210"
     d="m 264.7852,601.23105 c -3.89286,-4.62639 -4.53923,-11.08523 -1.53816,-15.36986 1.82101,-2.59986 52.55065,-52.96829 94.13125,-93.461 11.40452,-11.10615 20.87918,-19.24797 23.02588,-19.78676 8.06927,-2.02527 15.59172,4.8804 15.59944,14.32037 0.004,4.76555 2.58876,2.08415 -83.61064,86.73289 l -32.24676,31.66666 h -5.95457 c -5.01236,0 -6.50079,-0.64913 -9.40644,-4.1023 z M 96.14101,585.46507 c -3.399868,-3.17594 -4.142731,-4.90605 -4.150636,-9.66666 -0.0096,-5.77508 0.09625,-5.90263 26.333336,-31.73215 69.92628,-68.84007 85.25614,-83.73796 88.30631,-85.81804 1.81316,-1.23651 5.32244,-2.2482 7.79839,-2.2482 9.07853,0 15.4954,12.08976 10.33062,19.46352 -1.60909,2.2973 -72.65921,73.23856 -77.32162,77.20315 -0.86242,0.73333 -9.72799,9.28333 -19.7013,19 -16.2568,15.83846 -18.61556,17.66666 -22.79369,17.66666 -3.30251,0 -5.866958,-1.12709 -8.80141,-3.86828 z m 393.33066,-80.18312 c -8.1056,-3.6776 -20.94085,-13.12307 -28.30421,-20.82909 -6.21138,-6.50043 -8.11956,-9.8858 -35.57766,-63.11951 -21.96993,-42.5937 -27.49669,-52.98446 -28.46571,-53.51784 -0.48174,-0.26519 -19.15696,13.1956 -41.50045,29.91285 l -40.62456,30.39501 -0.8758,9.60499 c -2.33432,25.60055 -5.10679,48.69583 -6.31246,52.58414 -0.73545,2.37186 -2.94376,5.59541 -4.90733,7.16344 -3.4316,2.74032 -4.50033,2.82325 -27.53913,2.13693 -23.74372,-0.70732 -23.99691,-0.74649 -26.94058,-4.16869 -1.63436,-1.90008 -3.30958,-5.70231 -3.72269,-8.44942 -1.37011,-9.11084 -6.09325,-34.23332 -7.5999,-40.42388 l -1.48356,-6.09581 -14.14214,-2.33089 c -22.23662,-3.66503 -33.37734,-6.06027 -36.10208,-7.7619 -4.58259,-2.86188 -5.3734,-7.29888 -5.3734,-30.14833 0,-25.05123 0.38989,-26.338 9.36832,-30.91846 4.35548,-2.222 8.04738,-2.67156 22.91189,-2.79 9.74588,-0.0776 22.94788,-0.52765 29.33778,-1 l 11.618,-0.85881 24.02986,-31.33333 c 13.21643,-17.23334 26.73834,-34.76246 30.04867,-38.95361 3.31035,-4.19114 6.01881,-8.09485 6.01881,-8.67489 0,-0.58005 -4.95,-3.61812 -11,-6.75127 -6.05,-3.13314 -15.8,-8.25386 -21.66666,-11.37937 -5.86667,-3.12549 -19.06667,-10.10548 -29.33334,-15.51105 -10.26666,-5.40559 -21.89828,-11.568 -25.84803,-13.69427 -3.94974,-2.12627 -11.87513,-6.25754 -17.61197,-9.1806 -12.22329,-6.22807 -22.97189,-17.1326 -29.22783,-29.65184 -9.2357,-18.48228 -2.04349,-36.48998 18.55694,-46.46247 3.33884,-1.61631 7.28418,-2.85103 8.76742,-2.74381 1.48324,0.1072 22.7968,0.82298 47.36347,1.59062 24.56667,0.76764 60.26667,2.01978 79.33334,2.78254 19.06667,0.76276 49.62296,1.90432 67.90289,2.53681 l 33.23622,1.14996 18.09712,-16.69968 c 50.17827,-46.30359 87.87314,-68.404849 116.53668,-68.327801 13.19988,0.03548 19.4016,2.492988 26.68999,10.576235 8.34903,9.259551 11.50885,17.555016 11.52408,30.254036 0.0321,26.76865 -18.0282,59.64705 -56.34891,102.58201 -9.11018,10.20713 -19.1698,20.70653 -22.35469,23.33199 l -5.79074,4.77355 0.3214,13.22645 c 0.35635,14.66539 1.70737,45.64064 5.08389,116.55979 1.23946,26.03333 2.26016,56.03334 2.26821,66.66667 0.0269,35.47373 -5.65809,56.42403 -17.41427,64.17533 -5.00704,3.30135 -15.39708,3.19868 -22.94688,-0.22673 z m 10.34568,-32.9486 c 2.60275,-11.63597 3.05341,-28.74369 1.57177,-59.66667 -0.80813,-16.86667 -2.34433,-50.46667 -3.41376,-74.66667 -1.06942,-24.2 -2.55192,-57.27079 -3.29442,-73.49064 l -1.35002,-29.49063 21.10986,-21.17604 c 36.89217,-37.00783 57.54289,-66.6258 63.55275,-91.14956 5.90156,-24.081823 -9.05822,-28.33535 -40.63583,-11.55403 -21.7672,11.56776 -43.89608,28.99141 -75.93058,59.78556 l -16.5729,15.93122 -17.4271,-0.77698 c -9.58491,-0.42734 -43.82711,-1.67208 -76.09377,-2.76606 -32.26667,-1.09399 -72.16667,-2.59062 -88.66667,-3.32583 -46.09199,-2.05379 -54.92394,-1.8544 -58.32781,1.31679 -2.59024,2.41317 -2.67085,2.95738 -0.94921,6.4085 3.59485,7.20604 10.67464,13.43815 21.94368,19.3163 21.14444,11.02936 40.63846,21.29458 48.66667,25.62706 4.4,2.3745 15.2,8.08479 24,12.68957 8.8,4.60477 19,9.991 22.66667,11.9694 3.66666,1.97838 12.81667,6.82498 20.33333,10.77021 7.51667,3.94523 13.66667,7.83521 13.66667,8.64443 0,0.80921 -2.77473,5.02616 -6.16608,9.37101 -6.64009,8.507 -37.73764,49.07459 -64.20098,83.75191 -9.00188,11.79597 -17.40188,21.82804 -18.66666,22.29347 -1.26479,0.46542 -14.74962,1.28906 -29.96629,1.8303 l -27.66666,0.98407 v 6.51999 c 0,3.58598 0.56021,6.51998 1.2449,6.51998 0.6847,0 8.3347,1.22555 17,2.72343 8.66531,1.49789 19.3551,3.33269 23.7551,4.07733 4.4,0.74464 8.40243,1.7691 8.89428,2.27658 0.49187,0.50746 3.04424,11.72267 5.67196,24.92267 2.62773,13.2 5.08673,25.35 5.46445,27 0.58414,2.55162 1.56222,3 6.54418,3 6.86621,0 6.01304,2.8831 9.46942,-32 1.19894,-12.10001 2.43907,-23.20001 2.75586,-24.66667 0.35314,-1.63499 22.51638,-19.17355 57.28711,-45.33334 64.40866,-48.45792 60.28126,-45.43795 60.98166,-44.61951 0.2916,0.34074 6.40518,12.01951 13.58574,25.95285 7.18057,13.93333 17.08597,33.13333 22.01201,42.66666 4.92604,9.53334 14.8292,28.73334 22.00702,42.66667 7.17781,13.93334 13.71262,26.18232 14.52178,27.21999 1.84251,2.3628 17.164,14.67372 18.33822,14.73487 0.47685,0.0248 1.5045,-2.80486 2.28365,-6.28819 z M 77.435636,424.54816 c -3.485676,-2.93301 -4.1023,-4.37347 -4.1023,-9.58316 v -6.13131 l 62.472524,-62.5939 62.47252,-62.59391 6.77492,-0.65099 c 6.10577,-0.58669 7.1126,-0.2866 10.19413,3.03843 5.32131,5.74178 4.65256,11.35201 -2.24742,18.85405 -11.74228,12.76685 -115.344263,116.06435 -119.863979,119.51171 -5.924499,4.51883 -10.456096,4.56187 -15.700395,0.14908 z"
     style="fill:#b0b0b0;stroke-width:1.33333337" />
  <path
     inkscape:connector-curvature="0"
     id="path208"
     d="m 265.99362,602.11485 c -1.77017,-1.77018 -3.60794,-4.77018 -4.08393,-6.66667 -1.91217,-7.61871 -6.18971,-2.96529 85.6038,-93.12626 28.97367,-28.45837 29.6157,-28.98857 35.10256,-28.98857 10.08862,0 16.40276,9.84173 11.67004,18.18985 -1.4162,2.49807 -57.01246,57.54442 -100.4724,99.47862 -13.36693,12.89765 -15.34065,14.33153 -19.72727,14.33153 -3.37509,0 -5.86421,-0.98992 -8.0928,-3.2185 z M 99.301018,587.50235 c -4.512251,-1.99984 -7.301015,-6.95461 -7.301015,-12.97162 0,-3.50012 5.387326,-9.30822 42.333337,-45.63972 71.66425,-70.4723 74.288,-72.89099 79.07041,-72.89099 3.02396,0 5.50986,1.3136 8.89831,4.70205 4.15536,4.15536 4.61389,5.27925 3.94384,9.66667 -0.67633,4.42845 -6.56229,10.69269 -54.50205,58.00475 C 142.18474,557.54555 116.2,582.84885 114,584.60301 c -5.26715,4.19976 -9.76369,5.08669 -14.698982,2.89934 z m 392.032332,-81.7906 c -8.26017,-3.33123 -17.94153,-10.13352 -27.49952,-19.32167 -7.41748,-7.13046 -10.08592,-11.0924 -17.77423,-26.39006 -4.97554,-9.9 -9.4849,-18.6 -10.0208,-19.33334 -0.53589,-0.73333 -8.93749,-16.93333 -18.67023,-36 -9.73272,-19.06667 -18.42168,-35.44471 -19.3088,-36.39563 -1.29825,-1.39165 -8.98604,3.81088 -39.40524,26.66667 -20.78576,15.61759 -39.1708,29.59563 -40.85564,31.06229 -2.58783,2.25274 -3.27649,4.73634 -4.43655,16.00001 -6.43741,62.50426 -4.03062,58.9057 -38.43022,57.45978 -23.69166,-0.99584 -27.71864,-2.0889 -28.77274,-7.80998 -10.12783,-54.96846 -9.00257,-51.0959 -15.16399,-52.187 -13.81249,-2.446 -28.48634,-5.01844 -35.66205,-6.25186 -13.82444,-2.37622 -14,-2.76916 -14,-31.33432 0,-13.37885 0.35953,-25.26212 0.79896,-26.40727 0.43944,-1.14513 2.79649,-3.3166 5.23792,-4.82549 3.95352,-2.4434 7.76653,-2.87841 34.86771,-3.97789 16.73581,-0.67898 30.53623,-1.25658 30.6676,-1.28356 0.13133,-0.0269 9.10403,-11.59908 19.93927,-25.71575 10.83522,-14.11667 24.64484,-32.07051 30.68804,-39.89742 7.78497,-10.08281 10.52313,-14.5639 9.39406,-15.37372 -0.87646,-0.62864 -3.99356,-2.39693 -6.92689,-3.92954 -2.93333,-1.53262 -9.83333,-5.17699 -15.33333,-8.09859 -5.5,-2.92161 -17.2,-9.08477 -26,-13.69592 -8.8,-4.61113 -19.6,-10.31159 -24,-12.66765 -4.40001,-2.35607 -15.80001,-8.3515 -25.33334,-13.32318 -9.53333,-4.97167 -19.0444,-10.60868 -21.13571,-12.52669 -5.42572,-4.97611 -14.72805,-18.49952 -17.32118,-25.18095 -6.1019,-15.72197 1.71278,-32.11885 19.65089,-41.23184 6.37189,-3.23708 7.0228,-3.2968 27.33333,-2.50767 11.44331,0.44462 46.60601,1.70216 78.13934,2.79458 31.53334,1.09241 71.43334,2.58329 88.66667,3.31308 49.10683,2.07954 41.44376,3.87113 60.25352,-14.08698 28.93334,-27.6233 53.36132,-45.849237 77.74649,-58.007298 31.9304,-15.920002 54.02677,-15.876756 67.73014,0.13256 24.57827,28.714188 4.06898,79.434568 -57.95021,143.313398 l -17.30971,17.82873 1.4616,31.07255 c 0.80388,17.08991 2.34688,49.67255 3.42888,72.40588 4.36136,91.63461 4.10556,116.99937 -1.36988,135.83426 -5.45244,18.75571 -17.81728,26.1312 -33.32416,19.87748 z m 8.61165,-32.04507 c 2.47606,-8.81997 3.05763,-34.80057 1.51472,-67.66667 -0.82624,-17.6 -2.42605,-52.7 -3.55514,-78 -1.1291,-25.3 -2.53392,-56.5 -3.12184,-69.33333 l -1.06896,-23.33334 18.15566,-18 c 35.2175,-34.91556 59.11897,-68.32303 65.96849,-92.20521 2.82604,-9.85354 2.72141,-14.19444 -0.4682,-19.42568 -3.26282,-5.35129 -7.34964,-6.438235 -16.34616,-4.34746 -24.69938,5.74008 -58.55482,29.29465 -101.68478,70.74612 l -14.67211,14.10111 -29.33333,-1.02172 c -27.93408,-0.97299 -116.38803,-4.1556 -178.00001,-6.40452 -27.05113,-0.9874 -28.87331,-0.90215 -32.33333,1.51295 -2.01667,1.40764 -3.66667,3.001 -3.66667,3.54082 0,2.45551 8.16163,13.48196 12.19311,16.47303 2.46045,1.82549 11.07356,6.78068 19.14022,11.01152 27.37359,14.35703 42.64521,22.40161 50.66667,26.68956 4.4,2.35206 21.95359,11.62648 39.00796,20.60984 17.05438,8.98335 31.33203,16.85772 31.7281,17.49859 0.39608,0.64087 -14.14211,20.52779 -32.3071,44.19313 -18.16498,23.66537 -37.84262,49.40858 -43.72809,57.20717 l -10.70087,14.17922 -16.66666,0.85072 c -9.16667,0.4679 -22.51667,1.20196 -29.66667,1.63126 l -13,0.78054 v 6.42831 6.42831 l 7,1.36853 c 3.85,0.75271 14.93189,2.69864 24.62641,4.32431 9.69454,1.62566 18.1282,3.30237 18.74147,3.726 0.61328,0.42362 3.40877,12.47023 6.21221,26.77023 2.80344,14.3 5.46978,26.40078 5.9252,26.89062 1.80544,1.94194 11.21759,1.75719 12.24368,-0.2403 0.56043,-1.09102 1.99038,-12.18366 3.17766,-24.65032 1.18726,-12.46667 2.49524,-24.93453 2.90658,-27.70635 0.72204,-4.86528 2.75288,-6.54955 58.68102,-48.66667 31.8632,-23.99484 58.3262,-43.54044 58.80668,-43.43467 1.07155,0.23589 3.45004,4.67413 25.76366,48.07452 9.72737,18.91991 23.58772,45.74772 30.80077,59.61737 7.21307,13.86964 13.11467,25.5922 13.11467,26.05012 0,2.07125 19.07868,18.73234 21.45046,18.73234 0.59998,0 1.72251,-2.25 2.49452,-5 z M 80.33218,425.95029 c -4.900039,-2.06032 -6.998844,-5.51304 -6.998844,-11.51374 0,-4.03466 5.359872,-9.76532 63.682214,-68.08766 59.87011,-59.87011 63.96283,-63.68221 68.36999,-63.68221 8.94097,0 14.63035,7.20638 11.99399,15.19205 -1.95796,5.93079 -123.238203,127.04664 -128.822918,128.64831 -2.792378,0.80085 -5.418445,0.62308 -8.224432,-0.55675 z"
     style="fill:#909090;stroke-width:1.33333337" />
  <path
     inkscape:connector-curvature="0"
     id="path206"
     d="m 267.71188,603.01647 c -4.51571,-2.80049 -6.96923,-8.48144 -5.75406,-13.32306 0.61836,-2.46376 15.41503,-17.88634 44.48438,-46.36608 72.50656,-71.03598 71.37256,-69.99398 76.17324,-69.99398 2.3246,0 5.38089,0.61779 6.79176,1.37285 3.78117,2.02363 6.89725,8.87242 5.96596,13.11252 -0.76707,3.49246 -22.53441,25.66282 -91.52119,93.2157 -26.73035,26.17475 -28.06779,26.98824 -36.14009,21.98205 z M 95.897439,584.10258 c -2.703297,-2.70329 -3.914481,-5.25655 -3.953068,-8.33333 -0.05145,-4.10252 4.232312,-8.66796 57.000009,-60.74797 37.80507,-37.31238 58.49015,-56.7949 61.30732,-57.74312 5.73355,-1.92984 11.94151,1.26302 14.53791,7.47708 2.89234,6.92238 0.33878,11.18495 -16.29506,27.20086 -7.972,7.67584 -27.99838,27.17584 -44.50308,43.33333 -55.36197,54.19735 -53.6906,52.71059 -59.25567,52.71059 -3.68324,0 -5.932993,-0.99207 -8.838361,-3.89744 z M 490.6547,504.91448 c -4.03994,-1.66222 -10.63994,-5.48689 -14.66667,-8.49925 -14.15507,-10.58924 -20.32752,-18.46729 -31.66528,-40.41521 -5.87175,-11.36667 -14.86081,-28.76667 -19.9757,-38.66667 -5.11488,-9.9 -13.09084,-25.35 -17.72437,-34.33334 -4.63352,-8.98333 -9.03393,-16.33333 -9.77868,-16.33333 -1.43227,0 -78.51047,57.85495 -80.87674,60.70613 -1.40566,1.69371 -2.52422,9.69934 -5.86282,41.96054 -2.16874,20.95669 -3.11674,23.97375 -8.80582,28.02472 -4.01334,2.85776 -5.01302,2.96156 -20.4259,2.12076 -29.22299,-1.59416 -31.395,-1.99873 -33.5976,-6.25808 -1.06798,-2.06524 -1.94178,-5.36625 -1.94178,-7.3356 0,-3.51384 -7.77711,-43.05223 -8.80245,-44.75116 -0.69811,-1.15673 -9.50498,-3.04296 -31.19755,-6.68179 -25.24661,-4.23498 -24,-2.4953 -24,-33.49249 0,-33.57296 -1.59227,-32.26787 41.08947,-33.6788 23.96043,-0.79206 30.1528,-1.38031 31.79265,-3.02016 1.1201,-1.12008 7.31027,-8.98696 13.75596,-17.48196 6.4457,-8.49499 19.57872,-25.64545 29.1845,-38.11211 9.60578,-12.46667 17.47533,-22.98023 17.4879,-23.36347 0.012,-0.38323 -2.22714,-1.87136 -4.97714,-3.30695 -2.75,-1.43558 -11.9,-6.27102 -20.33334,-10.74541 -16.23998,-8.61629 -32.76165,-17.33405 -60,-31.65939 -9.16667,-4.82097 -20.5068,-10.81108 -25.20029,-13.31133 -13.76152,-7.33084 -27.56318,-26.31811 -29.11078,-40.04842 -1.32582,-11.76264 8.074,-25.35246 22.45768,-32.46828 5.75563,-2.84738 6.41008,-2.87517 39.18672,-1.66365 78.51317,2.90205 147.16704,5.30821 172.00001,6.02819 l 26.66667,0.77314 10.66667,-10.52484 c 19.08098,-18.82729 48.92741,-43.18211 66.35374,-54.144959 18.59225,-11.696317 43.36762,-20.897975 56.26761,-20.897975 26.43417,0 43.54002,26.412589 36.03789,55.644944 -7.00433,27.29259 -30.48847,62.52367 -66.02531,99.05162 l -17.48253,17.97011 0.75157,20.66667 c 0.41336,11.36666 1.65105,40.46666 2.75044,64.66666 1.09939,24.20001 2.66204,58.70001 3.47256,76.66667 2.2729,50.38305 -0.0323,73.8385 -8.71231,88.64989 -3.83545,6.54469 -11.38213,11.37217 -17.69388,11.31846 -2.04588,-0.0175 -7.02518,-1.39165 -11.0651,-3.05388 z m 10.26362,-32.58113 c 2.5085,-14.68724 0.46562,-94.85795 -4.95192,-194.33334 -0.71888,-13.2 -1.30541,-28.4504 -1.30338,-33.88979 l 0.004,-9.8898 15.3623,-14.58697 c 25.01785,-23.7552 50.88971,-56.34536 61.64054,-77.64706 9.93249,-19.68028 10.83943,-35.11074 2.40777,-40.96597 -4.53374,-3.148161 -22.88618,1.66968 -38.07761,9.99595 -20.51504,11.2441 -46.1626,31.38335 -72.14476,56.6503 l -18.16675,17.66667 -13.84424,0.004 c -7.61435,0.003 -26.14426,-0.58687 -41.17759,-1.30928 -15.03333,-0.72241 -46.53333,-1.95584 -70,-2.74093 -23.46667,-0.7851 -58.23122,-1.98987 -77.25455,-2.67727 -30.38362,-1.09791 -34.97083,-0.99891 -37.73834,0.81443 -5.06281,3.31728 -5.0095,5.58101 0.3135,13.30976 5.28137,7.66832 5.8882,8.0648 38.67939,25.27228 15.60782,8.19034 30.65825,16.12765 48,25.31428 5.86666,3.1078 16.66666,8.80831 24,12.66777 7.33333,3.85948 18.91164,9.99718 25.72957,13.63935 l 12.39623,6.62212 -3.64219,4.87499 c -6.89173,9.2244 -59.62484,78.21889 -66.39933,86.87499 -3.73052,4.76666 -9.32662,12.02338 -12.43574,16.12602 l -5.65297,7.45938 -18.99779,0.86909 c -10.44879,0.478 -23.67773,0.87128 -29.39765,0.87396 l -10.39988,0.005 0.39988,7.59422 0.39986,7.59422 18,3.04839 c 28.18773,4.77373 31.79871,5.68108 32.54562,8.1778 0.37053,1.23861 2.8966,13.35204 5.61348,26.91871 2.71688,13.56667 5.59252,25.12321 6.39033,25.68121 0.79782,0.558 3.85058,0.858 6.78391,0.66667 l 5.33333,-0.34788 0.92692,-8 c 0.50982,-4.4 1.90051,-17.6 3.09042,-29.33333 1.2029,-11.86134 2.86334,-21.99866 3.73974,-22.83182 3.44656,-3.27651 114.27762,-85.8347 115.22658,-85.83242 0.55899,10e-4 5.65915,9.15135 11.33368,20.33334 5.67455,11.18199 15.60663,30.53089 22.0713,42.99756 6.46468,12.46667 17.33214,33.46667 24.14992,46.66667 6.84184,13.24656 14.57626,26.31247 17.26204,29.16105 5.86698,6.22264 14.61958,12.83895 16.98444,12.83895 1.00913,0 2.16465,-2.61373 2.79994,-6.33333 z M 76.754531,423.30215 c -3.662727,-3.95215 -4.3212,-8.36414 -1.948631,-13.05646 2.094095,-4.14157 121.11421,-123.35567 125.46123,-125.66571 11.34198,-6.02722 21.3376,4.84792 15.1529,16.48624 -1.05232,1.98026 -29.1691,30.81478 -62.48173,64.07673 -59.718305,59.62744 -60.654006,60.48592 -66.665501,61.1635 -5.399294,0.60858 -6.488612,0.26475 -9.518268,-3.0043 z"
     style="fill:#6e6e6e;stroke-width:1.33333337" />
  <path
     inkscape:connector-curvature="0"
     id="path204"
     d="m 266.80769,601.46507 c -3.21199,-3.00042 -4.15355,-5.01957 -4.19687,-9 -0.0545,-5.0122 1.22636,-6.39958 55,-59.57154 30.28073,-29.94191 56.85586,-55.58967 59.05586,-56.99503 5.59461,-3.57382 9.57224,-3.19804 14.10256,1.33229 2.92741,2.9274 3.90644,5.16741 3.93361,9 0.0349,4.93249 -1.19821,6.31553 -37,41.49619 -61.54184,60.47413 -79.98977,77.60637 -83.56627,77.60637 -1.75334,0 -5.05134,-1.74072 -7.32889,-3.86828 z M 98.940763,586.66531 c -4.483605,-1.8904 -7.550524,-9.97424 -5.584682,-14.7202 1.295502,-3.12762 63.985789,-65.46692 104.385709,-103.80127 11.49356,-10.90592 11.85683,-11.12602 17.18344,-10.41157 6.90788,0.92653 9.0895,3.15232 10.04068,10.24397 l 0.76138,5.67644 -35.19698,34.76859 c -19.35833,19.12272 -45.12065,44.5681 -57.24959,56.54527 -18.36665,18.13684 -22.82383,21.87797 -26.66667,22.38265 -2.53773,0.33328 -5.9907,0.0255 -7.673287,-0.68388 z M 493.66363,505.42659 c -9.02489,-3.07539 -19.46696,-10.05088 -29.52923,-19.72605 -6.22077,-5.98146 -9.76669,-11.12352 -15.88392,-23.03386 -4.33142,-8.43333 -12.68852,-24.63333 -18.57132,-36 -5.88279,-11.36667 -15.03648,-29.06667 -20.34153,-39.33333 -5.30506,-10.26667 -10.38067,-19.44964 -11.27915,-20.40662 -1.32781,-1.41425 -2.92515,-0.71904 -8.5334,3.71403 -3.79488,2.99969 -21.28253,16.22473 -38.86145,29.38897 -17.57891,13.16424 -33.07034,25.04367 -34.42541,26.39874 -1.91477,1.91477 -2.81762,6.15225 -4.05192,19.01764 -1.50996,15.73857 -3.49938,32.57452 -5.00662,42.36955 -0.37935,2.46526 -2.1227,5.91526 -3.8741,7.66666 -2.90485,2.90486 -4.28353,3.18436 -15.7068,3.18436 -6.88734,0 -18.08093,-0.39454 -24.87465,-0.87678 -11.993,-0.85128 -12.42533,-0.9967 -14.86652,-5 -1.38287,-2.26776 -2.51655,-6.39991 -2.51928,-9.18252 -0.003,-2.78263 -0.92292,-9.08263 -2.04484,-14 -1.95413,-8.56502 -3.48049,-15.80464 -5.34763,-25.36412 -0.98544,-5.04534 -1.13199,-5.12867 -11.94585,-6.79336 -35.67052,-5.49116 -37.19016,-5.85154 -41.66667,-9.88099 -2.90197,-2.61216 -3,-3.4921 -3,-26.928 0,-21.40563 0.27177,-24.4659 2.33333,-26.27346 6.18427,-5.42236 9.68822,-6.0136 39.57698,-6.67806 l 29.24364,-0.65014 3.15997,-3.85294 c 1.73799,-2.11914 8.42908,-10.75296 14.86911,-19.1863 6.44001,-8.43333 14.05839,-18.37904 16.92972,-22.10159 20.39733,-26.44417 26.25905,-34.47106 26.39679,-36.14704 0.1579,-1.92138 -2.38616,-3.39548 -39.10096,-22.65618 -10.59195,-5.55658 -21.69195,-11.43616 -24.66667,-13.06575 -5.5142,-3.02075 -42.47272,-22.38498 -49.0104,-25.67875 -4.50046,-2.26739 -14.80232,-13.62363 -19.2619,-21.23332 -1.85229,-3.16069 -4.20777,-8.90512 -5.23441,-12.76539 -1.63097,-6.13261 -1.60725,-7.91745 0.18783,-14.13844 2.37641,-8.23557 9.8423,-16.36872 19.66189,-21.41912 6.03301,-3.10289 6.64148,-3.14758 32.53155,-2.3895 45.17581,1.32277 106.42126,3.4816 137.71687,4.85434 16.5,0.72376 38.53972,1.48128 48.97716,1.68338 l 18.97716,0.36745 5.73544,-5.32171 c 3.1545,-2.92694 10.64158,-9.90306 16.63798,-15.50249 36.57312,-34.15195 70.06711,-55.387001 98.84111,-62.664855 11.83265,-2.99285 14.86733,-3.054596 23.36908,-0.475478 12.2546,3.717594 21.21816,13.476976 25.28169,27.526313 3.19695,11.05324 3.09485,12.30482 -2.70235,33.12812 -6.5165,23.40702 -31.41936,59.06455 -65.64861,94.00001 l -15.67658,16 1.02882,24 c 0.56584,13.2 1.98553,45.3 3.15485,71.33334 1.16932,26.03333 2.66167,59.63333 3.31635,74.66666 2.58012,59.24793 -3.33083,84.52727 -21.15772,90.48526 -5.42196,1.81208 -4.49348,1.88691 -13.13743,-1.05868 z m 6.16663,-28.42657 c 2.85045,-7.79115 4.53354,-28.45936 3.69513,-45.37582 -1.1316,-22.83223 -4.40207,-96.37189 -6.78671,-152.60594 l -1.8792,-44.31508 8.84376,-8.35159 c 33.41717,-31.55741 56.09614,-59.95664 69.49082,-87.01825 5.05309,-10.20888 6.0252,-13.49261 6.51285,-22 0.50903,-8.88018 0.23372,-10.42886 -2.45853,-13.82973 -2.91084,-3.676975 -3.38173,-3.802933 -11.80672,-3.15814 -21.42951,1.64008 -56.99851,24.21327 -94.77498,60.14714 -5.5,5.23173 -13.6681,12.97437 -18.15134,17.20585 l -8.15135,7.69363 -38.51532,-1.35091 c -21.18343,-0.743 -53.21532,-1.96417 -71.18199,-2.71372 -17.96667,-0.74955 -53.76484,-2.00264 -79.55148,-2.78467 -43.27337,-1.31234 -47.15046,-1.24781 -50.33334,0.83768 -2.08812,1.36819 -3.44852,3.49432 -3.44852,5.3896 0,5.24067 10.38121,16.39002 20,21.47983 4.76667,2.52231 17.36667,9.14452 28,14.71604 10.63334,5.57153 22.33334,11.73628 26,13.69947 3.66667,1.96317 15.06667,7.99216 25.33334,13.39775 10.26666,5.40557 23.46666,12.40562 29.33333,15.55568 5.86667,3.15004 13.53064,7.07445 17.03104,8.72092 3.50042,1.64648 6.20042,3.7271 6,4.62364 -0.32113,1.43661 -67.4902,89.96053 -84.55627,111.43899 -2.81478,3.54253 -3.11088,3.5999 -19.33333,3.74686 -9.06112,0.0821 -22.17478,0.53208 -29.14144,1 l -12.66667,0.85076 v 7.27366 c 0,8.23092 -2.10309,7.0044 18,10.49764 12.70885,2.20837 32.62138,5.93404 32.95847,6.16657 0.16049,0.11067 2.48344,11.26999 5.16209,24.79839 6.37676,32.20541 5.65758,30.59708 13.68182,30.59708 h 6.53502 l 1.41747,-12.33333 c 0.7796,-6.78334 2.10816,-19.23334 2.95235,-27.66667 0.84418,-8.43334 2.0214,-16.58203 2.61601,-18.1082 0.93827,-2.40824 111.73835,-86.89849 114.90582,-87.62107 0.65273,-0.14891 5.7103,8.42927 11.23905,19.0626 25.17846,48.42535 33.10906,63.7522 45.87887,88.66667 7.51735,14.66667 14.93956,28.09949 16.4938,29.85073 3.46929,3.90899 17.10541,14.81395 18.52557,14.8151 0.56815,4.6e-4 1.52691,-1.34916 2.13058,-2.99916 z M 77.360469,422.69572 c -4.592321,-4.91609 -4.994153,-7.91929 -1.74958,-13.07595 1.252655,-1.99086 28.960971,-30.42748 61.574031,-63.19246 39.35609,-39.53943 61.01333,-60.3469 64.40183,-61.8749 5.9841,-2.69845 10.2174,-1.45908 13.82556,4.04767 5.0106,7.64714 4.97188,7.6938 -61.78605,74.44039 -55.087426,55.07808 -62.952721,62.45942 -67.307576,63.16612 -4.342233,0.70464 -5.411984,0.28538 -8.958215,-3.51087 z"
     style="fill:#4d4d4d;stroke-width:1.33333337" />
  <path
     inkscape:connector-curvature="0"
     id="path202"
     d="m 270.66668,603.60017 c -5.74168,-2.67454 -7.33334,-5.11615 -7.33334,-11.24938 v -5.8397 l 30,-29.32739 c 65.08415,-63.62494 82.90215,-80.58796 86.45041,-82.30218 3.23508,-1.56292 4.25585,-1.47188 8.19942,0.73123 4.8274,2.69687 7.40328,8.0046 6.20388,12.78337 -0.40698,1.6216 -3.0649,5.34586 -5.90648,8.27612 -5.34098,5.5077 -103.49436,101.6263 -106.19595,103.99445 -1.66901,1.46301 -7.17305,4.72025 -7.73318,4.57642 -0.19328,-0.0496 -1.85143,-0.78896 -3.68476,-1.64294 z M 97.474343,584.13174 c -4.235901,-3.95692 -5.310285,-8.79183 -2.93753,-13.21937 1.309129,-2.44283 59.914617,-60.53835 111.632037,-110.66063 0.99214,-0.96156 3.88221,-2.08555 6.42234,-2.49776 3.92823,-0.63746 5.25004,-0.11787 8.84471,3.47681 3.68036,3.68036 4.12405,4.86413 3.43488,9.16441 -0.68335,4.26396 -4.30097,8.37116 -26.49775,30.08366 -94.12405,92.07047 -89.24478,87.52116 -93.86915,87.52116 -1.58869,0 -4.751982,-1.74072 -7.029537,-3.86828 z m 397.859007,-78.3626 c -3.58629,-0.79106 -11.53716,-4.70768 -13.74156,-6.76912 -0.98024,-0.91667 -2.34597,-1.66667 -3.03496,-1.66667 -0.68899,0 -6.0022,-4.53764 -11.80715,-10.08365 -9.0451,-8.64166 -11.64448,-12.21675 -18.17685,-25 -4.19233,-8.20399 -11.51104,-22.41635 -16.26381,-31.58302 -4.75278,-9.16667 -14.02305,-27.16667 -20.60062,-40 -6.57756,-12.83333 -12.66684,-24.07597 -13.53172,-24.98364 -1.24092,-1.30229 -2.26887,-1.01569 -4.8746,1.35912 -1.81613,1.65519 -17.40207,13.49411 -34.6354,26.30872 -17.23333,12.81461 -31.93334,23.74565 -32.66667,24.2912 -0.73333,0.54556 -4.01703,3.33928 -7.29709,6.20829 l -5.96378,5.21638 -1.76293,19.79997 c -3.84683,43.20458 -3.96828,43.76762 -10.34205,47.94388 -2.84408,1.86351 -6.32186,2.01687 -26.59,1.17248 -14.61479,-0.60885 -23.7635,-1.53346 -24.5117,-2.47725 -1.97741,-2.49437 -3.98842,-10.26465 -5.39332,-20.83915 -1.42749,-10.7445 -4.69469,-28.20201 -6.14913,-32.85642 -0.73456,-2.35072 -2.58315,-3.13304 -10.4413,-4.41878 -5.25178,-0.85928 -14.6487,-2.47173 -20.88204,-3.58322 -6.23333,-1.1115 -13.28974,-2.33944 -15.68093,-2.72878 -2.71079,-0.44137 -5.34619,-2.11028 -7,-4.43284 -2.39639,-3.36541 -2.6524,-5.90261 -2.6524,-26.28671 0,-21.69886 0.1148,-22.66625 3,-25.29421 6.47949,-5.90168 8.62448,-6.28517 39.27085,-7.02129 17.09903,-0.41071 30.10735,-1.2743 30.79534,-2.04442 0.65512,-0.73333 4.99891,-6.43333 9.65284,-12.66666 4.65395,-6.23334 8.81829,-11.63334 9.25412,-12 0.43583,-0.36667 6.91041,-8.76667 14.38796,-18.66667 7.47756,-9.9 16.8784,-22.2 20.89076,-27.33334 4.01236,-5.13333 7.32212,-9.69166 7.355,-10.12962 0.0559,-0.74406 -4.49431,-3.305 -22.60687,-12.72366 -4.03333,-2.09736 -7.63333,-4.11338 -8,-4.48005 -0.36666,-0.36667 -6.06666,-3.40233 -12.66666,-6.74592 -12.2145,-6.18792 -36.19881,-18.81595 -69.29579,-36.4851 -8.0632,-4.30461 -15.11379,-11.90989 -21.72639,-23.43565 -4.35875,-7.59731 -4.96856,-9.73603 -4.94221,-17.33333 0.0244,-7.05315 0.67689,-9.6596 3.50436,-14 4.48566,-6.88587 8.32125,-10.32456 16.09192,-14.42678 5.93745,-3.13444 7.19873,-3.28886 22,-2.69356 8.63578,0.34732 33.40144,1.17694 55.03477,1.84356 21.63334,0.66663 66.93334,2.08523 100.66667,3.15244 l 61.33334,1.94038 8.66667,-8.41672 c 15.15805,-14.72089 24.42441,-23.11226 33.96148,-30.75463 3.64548,-2.92125 7.88222,-6.37109 9.41497,-7.6663 9.05607,-7.6526 34.15877,-23.529481 45.29022,-28.645022 2.2,-1.011028 4.97613,-2.358594 6.16918,-2.994592 1.19306,-0.635999 4.34968,-1.565425 7.01474,-2.06539 2.66504,-0.499965 5.17432,-1.441011 5.57616,-2.091211 0.40185,-0.6502 2.75616,-1.182182 5.23181,-1.182182 2.47564,0 6.0774,-0.59928 8.00389,-1.331734 3.86392,-1.469058 12.64912,0.09581 20.66067,3.680196 13.11852,5.869261 23.36267,27.660515 19.93547,42.406515 -3.80228,16.35976 -6.2187,23.13417 -12.80966,35.91169 -4.21238,8.16632 -16.96836,27.85255 -21.66484,33.43526 -1.89792,2.25605 -5.25076,6.43461 -7.45076,9.28568 -5.26418,6.82206 -17.1493,19.7887 -31.72544,34.6124 l -11.7996,12 0.72971,10 c 0.40133,5.5 1.0668,23.8 1.4788,40.66667 0.412,16.86666 1.30338,37.26667 1.98087,45.33333 2.70444,32.20178 4.50998,108.06366 2.9188,122.63633 -3.5675,32.67245 -13.18046,45.19204 -31.58314,41.1328 z m 5.87864,-30.76912 c 2.6188,-7.89082 3.24625,-40.81615 1.44197,-75.66667 -1.73078,-33.43098 -2.56552,-52.27928 -5.40726,-122.09743 l -1.71347,-42.09743 19.93104,-19.90258 c 27.62387,-27.5844 48.56004,-54.66182 57.65672,-74.56924 1.67548,-3.66667 3.58927,-7.67742 4.25286,-8.9128 2.17689,-4.05264 3.78506,-17.9488 2.65634,-22.95342 -1.91486,-8.49027 -3.25324,-9.224804 -15.42464,-8.46546 -5.93309,0.37016 -11.9465,1.29984 -13.36314,2.06596 -1.41666,0.76613 -7.07572,3.58739 -12.57572,6.26948 -5.5,2.68208 -11.90998,6.32845 -14.24438,8.10304 -2.3344,1.7746 -4.8844,3.22653 -5.66667,3.22653 -0.78226,0 -1.42609,0.45 -1.43072,1 -0.004,0.55 -1.65464,1.94582 -3.66666,3.10181 -9.45663,5.43322 -30.04546,23.10178 -51.6323,44.30889 l -16.02594,15.74403 -43.33334,-0.81024 c -23.83333,-0.44563 -49.03333,-1.3431 -56,-1.99438 -6.96667,-0.65128 -30.96667,-1.52685 -53.33334,-1.94569 -22.36666,-0.41885 -50.11365,-1.45231 -61.65997,-2.29655 -19.6611,-1.4376 -21.28776,-1.37642 -25.63351,0.96392 -2.55212,1.3744 -4.93903,3.27762 -5.30425,4.22936 -0.77724,2.02547 1.64594,7.89504 4.82973,11.69886 1.22761,1.46666 3.32761,3.9582 4.66667,5.53673 1.33906,1.57855 9.33466,6.45671 17.768,10.84036 8.43333,4.38365 20.13333,10.52671 26,13.65123 5.86667,3.12453 16.66667,8.80486 24,12.62297 7.33333,3.81812 17.83333,9.34474 23.33333,12.28139 18.64298,9.95415 36.63707,19.42767 44.33422,23.34103 8.6582,4.402 8.65707,4.34868 0.30775,14.53153 -6.78392,8.27367 -7.15172,8.74955 -15.26541,19.75161 -4.00954,5.43692 -9.26381,12.33582 -11.67612,15.3309 -5.50756,6.83805 -4.8418,5.97645 -15.02552,19.44559 -4.71289,6.23333 -9.34274,12.12618 -10.28857,13.09524 -0.94583,0.96904 -1.71968,2.17517 -1.71968,2.68029 0,0.50511 -1.38019,2.41225 -3.06708,4.23809 -1.68689,1.82584 -7.4066,9.09868 -12.71048,16.16187 l -9.6434,12.84215 -16.95619,0.8414 c -9.3259,0.46276 -22.80619,1.1985 -29.95619,1.635 l -13,0.79361 v 7.70484 c 0,7.62464 0.0451,7.71393 4.33334,8.57804 5.50078,1.10845 25.5094,4.43207 37.69419,6.26133 l 9.36085,1.40532 2.43228,13.54807 c 1.33776,7.45146 2.94869,15.04808 3.57987,16.88142 0.63117,1.83333 1.52917,6.33333 1.99554,10 0.46638,3.66666 1.523,8.64273 2.34807,11.05792 1.47956,4.33106 1.60124,4.38589 8.878,4 l 7.37787,-0.39126 1.5817,-16 c 3.03036,-30.65413 4.31635,-42.34241 4.69939,-42.71269 0.94001,-0.90867 15.74889,-12.15063 18.38139,-13.95398 2.61366,-1.79044 6.02368,-4.42362 10.05769,-7.76645 0.76277,-0.63208 12.13869,-9.13717 25.27983,-18.90021 13.14113,-9.76304 24.51705,-18.24798 25.27983,-18.85539 0.76276,-0.60743 3.18684,-2.53697 5.38684,-4.28787 2.2,-1.7509 10.05553,-7.68685 17.45674,-13.191 l 13.45675,-10.00756 8.658,16.83758 c 4.76191,9.26066 13.77586,26.73757 20.03099,38.83757 6.25513,12.1 17.22539,33.4 24.37833,47.33334 7.15295,13.93333 14.26892,27.43333 15.81328,30 3.20475,5.32618 13.72431,15.55256 17.20591,16.72636 1.28333,0.43266 2.33333,1.34624 2.33333,2.03016 0,0.6839 1.09934,1.24348 2.44296,1.24348 1.63908,0 2.989,-1.6453 4.10235,-5 z M 80.273839,424.87401 c -4.7942,-2.66102 -7.148884,-8.22952 -5.324826,-12.59248 2.194044,-5.24792 122.116157,-125.37207 127.429487,-127.64417 5.20148,-2.22428 9.71616,-0.72642 13.0232,4.32078 4.71183,7.19115 4.05713,7.97846 -60.53083,72.79227 -54.23248,54.42215 -65.912948,65.13922 -70.700366,64.86902 -0.460442,-0.026 -2.213941,-0.81142 -3.896665,-1.74542 z"
     style="fill:#353535;stroke-width:1.33333337" />
</svg>
