<?xml version="1.0" encoding="UTF-8" standalone="no"?>
<!-- Created with Inkscape (http://www.inkscape.org/) -->

<svg
   xmlns:dc="http://purl.org/dc/elements/1.1/"
   xmlns:cc="http://creativecommons.org/ns#"
   xmlns:rdf="http://www.w3.org/1999/02/22-rdf-syntax-ns#"
   xmlns:svg="http://www.w3.org/2000/svg"
   xmlns="http://www.w3.org/2000/svg"
   xmlns:xlink="http://www.w3.org/1999/xlink"
   xmlns:sodipodi="http://sodipodi.sourceforge.net/DTD/sodipodi-0.dtd"
   xmlns:inkscape="http://www.inkscape.org/namespaces/inkscape"
   version="1.1"
   id="svg226"
   width="666.66669"
   height="666.66669"
   viewBox="0 0 666.66669 666.66669"
   sodipodi:docname="rupiah.svg"
   inkscape:version="0.92.3 (2405546, 2018-03-11)">
  <metadata
     id="metadata232">
    <rdf:RDF>
      <cc:Work
         rdf:about="">
        <dc:format>image/svg+xml</dc:format>
        <dc:type
           rdf:resource="http://purl.org/dc/dcmitype/StillImage" />
        <dc:title></dc:title>
      </cc:Work>
    </rdf:RDF>
  </metadata>
  <defs
     id="defs230" />
  <sodipodi:namedview
     pagecolor="#ffffff"
     bordercolor="#666666"
     borderopacity="1"
     objecttolerance="10"
     gridtolerance="10"
     guidetolerance="10"
     inkscape:pageopacity="0"
     inkscape:pageshadow="2"
     inkscape:window-width="1366"
     inkscape:window-height="705"
     id="namedview228"
     showgrid="false"
     inkscape:zoom="0.35399999"
     inkscape:cx="375.70623"
     inkscape:cy="333.33334"
     inkscape:window-x="-8"
     inkscape:window-y="-8"
     inkscape:window-maximized="1"
     inkscape:current-layer="svg226" />
  <image
     sodipodi:absref="E:\Project-website\tanyabudi\public\assets\images\icon\rupiah.png"
     xlink:href="rupiah.png"
     y="0"
     x="0"
     id="image234"
     preserveAspectRatio="none"
     height="666.66669"
     width="666.66669" />
  <path
     inkscape:connector-curvature="0"
     id="path250"
     d="m 408.84649,594.56991 -3.51314,-2.76344 V 413.33335 234.86022 l 3.51314,-2.76344 c 3.17896,-2.50056 5.3114,-2.76344 22.41722,-2.76344 h 18.90407 l 3.58278,3.73963 c 2.95354,3.08282 3.58279,4.96273 3.58279,10.70372 v 6.96409 l 8.81537,-6.75661 c 15.58003,-11.94144 28.06574,-16.77472 48.03582,-18.59491 57.04552,-5.19944 103.05607,28.51876 118.42146,86.78352 4.9049,18.59918 6.14402,28.66145 6.14402,49.89242 0,46.16149 -12.90118,82.80272 -38.06784,108.11814 -14.55759,14.64365 -34.56091,25.62204 -55.51317,30.4672 -12.43296,2.87509 -34.88138,2.90213 -45.83566,0.0552 -10.08176,-2.62018 -24.90541,-9.81134 -33.06019,-16.03796 l -6.27314,-4.78991 v 55.82866 55.82865 l -3.08594,2.89909 c -2.89528,2.71998 -4.36692,2.89908 -23.82018,2.89908 -18.95737,0 -21.03534,-0.23682 -24.24741,-2.76344 z M 542.82855,449.68135 c 11.19599,-5.51176 23.79367,-18.43747 29.17226,-29.93186 8.24781,-17.62612 9.81082,-26.82652 9.81082,-57.74948 0,-31.22307 -1.65757,-40.80951 -10.0079,-57.87987 -5.33248,-10.90105 -17.99626,-23.71605 -28.56336,-28.90448 -7.21007,-3.54012 -9.14286,-3.88232 -21.92781,-3.88232 -13.12734,0 -14.5831,0.27662 -22.84561,4.34088 -16.92496,8.32528 -32.1054,28.61711 -37.64904,50.32579 -5.49672,21.52498 -5.50297,55.61432 -0.0143,77.80615 5.76698,23.31691 20.42411,41.24483 39.49252,48.30544 5.61516,2.07918 9.74706,2.52835 20.44771,2.22287 11.9724,-0.3418 14.34072,-0.84079 22.08467,-4.65312 z m -499.929463,45.8994 -2.899086,-3.08593 V 315.14649 137.79818 l 3.241575,-3.04531 3.241576,-3.0453 92.425088,0.68718 c 57.09467,0.42449 96.50254,1.25832 103.09177,2.18132 29.92685,4.19205 46.78657,11.43266 61.84945,26.56196 20.20432,20.29342 29.43758,43.35608 29.43758,73.52864 0,18.48743 -2.57216,29.98699 -10.13346,45.30437 -8.82685,17.88112 -22.44364,31.39132 -41.15357,40.83141 -7.33333,3.70004 -18.26641,8.14016 -24.29573,9.86693 l -10.9624,3.13959 6.29573,4.25018 c 7.80507,5.26909 24.12093,22.24796 34.00057,35.3822 4.09246,5.4406 22.55384,33.592 41.02532,62.55867 l 33.5845,52.66666 -2.49232,4.66667 -2.49233,4.66667 -29.99834,0.32694 c -16.49908,0.17982 -30.67248,-0.12013 -31.49643,-0.66666 -0.82396,-0.5465 -14.2411,-21.09362 -29.81588,-45.66028 -50.7714,-80.08357 -63.5094,-96.17931 -83.67465,-105.73141 l -9.01138,-4.2686 -37,-0.41058 -37,-0.41058 v 75.16112 75.16114 l -3.739625,3.58279 -3.739626,3.58278 H 68.492796 c -21.998464,0 -22.783553,-0.0947 -25.593709,-3.08593 z M 225.33334,284.75926 c 22.47915,-4.07854 35.04635,-12.41142 42.95924,-28.48478 4.06115,-8.24938 4.3741,-9.841 4.3741,-22.24643 0,-10.91479 -0.53206,-14.51307 -2.9057,-19.65102 -4.06506,-8.7992 -13.67389,-18.58214 -22.49266,-22.90028 -14.17979,-6.94316 -19.83941,-7.4284 -86.93498,-7.4536 l -61.66667,-0.0231 v 51.33333 51.33334 l 58.33334,-0.0465 c 43.23677,-0.0345 60.92132,-0.51606 68.33333,-1.86089 z"
     style="fill:#e7e7e7;stroke-width:1.33333337" />
  <path
     inkscape:connector-curvature="0"
     id="path248"
     d="m 407.54,593.5617 c -2.03012,-2.24325 -2.20665,-16.68005 -2.20665,-180.46002 0,-170.7712 0.0993,-178.11158 2.43832,-180.22835 2.04836,-1.85375 5.74704,-2.20666 23.12668,-2.20666 24.74597,0 25.10167,0.18571 25.10167,13.10499 0,4.52559 0.35384,8.22835 0.78632,8.22835 0.43248,0 4.12125,-2.97237 8.19728,-6.60528 9.14649,-8.15214 23.73598,-15.50651 35.8552,-18.07415 13.47828,-2.85557 37.42779,-2.54396 50.79572,0.66092 38.21749,9.1624 64.56229,34.77635 78.18755,76.01851 6.36551,19.26765 8.84564,35.51382 8.83924,57.90163 -0.008,28.83467 -4.70281,52.48567 -14.62161,73.66278 -12.0783,25.78777 -27.03345,41.73265 -51.00659,54.38217 -16.34751,8.62584 -27.00484,11.53435 -45.3263,12.37005 -24.43809,1.11471 -39.06177,-2.82729 -57.89713,-15.60693 l -9.80968,-6.6558 v 55.7664 c 0,52.33227 -0.15016,55.9023 -2.43832,57.97306 -2.0678,1.87133 -5.88603,2.20665 -25.12668,2.20665 -20.28681,0 -22.92195,-0.25809 -24.89502,-2.43832 z M 538.32063,451.73812 c 19.6375,-7.27025 34.13468,-25.58924 40.69768,-51.42651 2.58514,-10.17714 2.95523,-15.09017 2.93627,-38.97826 -0.0243,-30.52581 -1.28861,-38.03089 -9.3896,-55.73489 -11.02208,-24.08781 -36.51617,-39.02293 -59.52536,-34.87156 -10.11775,1.82547 -15.1252,4.03584 -23.64447,10.4371 -19.2904,14.49453 -29.01861,35.12456 -32.30284,68.50268 -1.87187,19.02411 -0.0433,41.77919 4.66285,58.02765 10.73007,37.0461 43.91104,56.13323 76.56547,44.04379 z M 42.206652,494.89503 c -2.030032,-2.24316 -2.206651,-16.63372 -2.206651,-179.79335 0,-170.12535 0.0994,-177.445 2.438322,-179.56169 2.219255,-2.0084 10.697584,-2.20665 94.368317,-2.20665 55.6773,0 96.38551,0.5482 103.22834,1.39013 43.01194,5.29211 66.74146,20.41202 82.56711,52.60987 8.3846,17.05875 10.02828,24.97547 9.96583,48 -0.0488,17.99932 -0.40866,21.06703 -3.59715,30.66667 -11.15761,33.59244 -37.26833,56.06987 -76.69371,66.02181 l -5.72294,1.44462 7.72294,5.6908 c 18.07367,13.31791 31.5378,30.85865 69.78312,90.91178 42.14786,66.18089 37.79421,58.38918 35.30975,63.19357 l -2.10506,4.07076 -31.63243,-0.0544 -31.63243,-0.0544 -19.33333,-30.85969 C 231.3533,397.2284 207.4009,363.42176 195.04702,353.98887 179.58417,342.18211 169.02705,340.09905 124.33334,340.03615 l -25.66667,-0.0361 v 75.76759 75.76758 l -3.085935,2.89909 c -2.932846,2.75527 -4.278557,2.89908 -27.126685,2.89908 -21.596963,0 -24.265058,-0.24785 -26.247398,-2.43832 z M 209.79306,286.64933 c 17.26007,-1.43003 29.1607,-4.04781 37.31636,-8.20852 8.67168,-4.42397 17.52828,-13.72292 21.71068,-22.79505 3.36576,-7.30072 3.83304,-9.85407 3.83938,-20.97909 0.009,-15.6229 -2.62935,-23.27721 -11.17016,-32.40804 -7.84714,-8.38921 -14.60035,-12.25429 -27.60421,-15.79876 -9.93094,-2.70688 -14.21925,-2.91078 -72.8851,-3.46566 l -62.33334,-0.58956 v 52.79768 52.79768 l 47.66667,-0.0211 c 26.21667,-0.012 54.77355,-0.60992 63.45972,-1.32957 z"
     style="fill:#d3d3d3;stroke-width:1.33333337" />
  <path
     inkscape:connector-curvature="0"
     id="path246"
     d="m 408.23243,592.91409 -2.89908,-3.08594 V 413.14649 236.46485 l 3.08593,-2.8991 c 2.88584,-2.71109 4.38545,-2.89908 23.12668,-2.89908 24.23768,0 24.45406,0.1228 24.45406,13.87831 v 9.00166 l 7.66666,-6.85722 c 4.21667,-3.77148 12.46667,-9.23084 18.33334,-12.13193 15.09326,-7.46368 26.70958,-9.61214 48,-8.87766 15.19365,0.52415 18.97833,1.14987 30.65927,5.06886 51.66432,17.33357 80.24363,68.87667 77.58089,139.91799 -0.84745,22.60992 -3.31894,35.92244 -10.16709,54.7642 -17.82176,49.03419 -61.54988,79.23346 -111.33738,76.89119 -18.70217,-0.87985 -29.15531,-4.26019 -44.51472,-14.39517 l -11.55431,-7.62416 -0.34816,55.42669 c -0.3093,49.24066 -0.59278,55.69702 -2.53998,57.84866 -1.95102,2.15585 -4.63382,2.42193 -24.41942,2.42193 -21.51029,0 -22.32116,-0.0996 -25.12669,-3.08593 z M 528.75514,454.54071 c 11.64199,-2.1474 21.52412,-7.50789 30.71451,-16.66083 9.35954,-9.32141 15.13525,-20.0292 19.35336,-35.87987 4.3631,-16.39554 5.09281,-55.16185 1.37698,-73.15376 -6.54796,-31.70503 -24.87796,-53.04467 -49.95526,-58.15757 -25.57719,-5.21482 -53.56853,12.83269 -65.51935,42.24385 -12.45047,30.64078 -11.07578,82.67538 2.91473,110.3289 7.33803,14.50427 23.88543,27.61249 39.02657,30.9154 9.5144,2.07548 12.539,2.12531 22.08846,0.36388 z M 42.206652,494.89503 c -2.030032,-2.24316 -2.206651,-16.63372 -2.206651,-179.79335 0,-170.12535 0.0994,-177.445 2.438322,-179.56169 2.218348,-2.00759 10.58299,-2.20665 92.719217,-2.20665 111.36979,0 123.4384,1.08269 148.33451,13.30727 31.51485,15.47452 51.52322,53.26246 49.43291,93.3594 -1.20387,23.09307 -7.01211,39.04855 -20.24291,55.60808 -12.69124,15.88424 -27.04689,25.27029 -50.68204,33.13708 -8.06667,2.68492 -14.79613,4.99512 -14.95437,5.13375 -0.15824,0.13864 3.38614,2.9226 7.87642,6.18659 9.08086,6.60085 25.95024,24.99198 36.01872,39.26784 3.62044,5.13333 20.97739,31.97721 38.571,59.65307 l 31.98839,50.31973 -2.38472,4.03701 -2.38473,4.03703 -31.27003,-0.35675 -31.27003,-0.35676 -30.3524,-47.75868 c -48.35381,-76.08345 -61.81341,-93.25352 -80.09672,-102.17741 -11.39759,-5.56304 -20.29487,-6.5971 -57.4082,-6.67203 l -29.000003,-0.0586 v 76.46002 c 0,72.37991 -0.13012,76.57777 -2.438322,78.66667 -2.078957,1.88144 -5.978675,2.20665 -26.460017,2.20665 -21.578507,0 -24.24613,-0.248 -26.228346,-2.43832 z M 212.66667,286.63412 c 31.13774,-2.89512 46.97777,-11.45483 56.29282,-30.4198 3.37192,-6.86506 3.70719,-8.87407 3.70719,-22.21431 0,-13.46767 -0.30347,-15.24264 -3.7122,-21.7122 -7.10458,-13.48406 -18.55994,-21.93536 -35.92893,-26.50691 -7.04132,-1.85329 -18.39426,-2.28819 -72.02554,-2.75904 l -63.666673,-0.55895 v 52.76855 52.76855 l 50.333333,-10e-4 c 27.68334,-6.1e-4 56.93334,-0.61476 65,-1.36477 z"
     style="fill:#afafaf;stroke-width:1.33333337" />
  <path
     inkscape:connector-curvature="0"
     id="path244"
     d="m 408.23243,592.91409 -2.89908,-3.08594 V 413.14649 236.46485 l 3.08593,-2.8991 c 2.88584,-2.71109 4.38545,-2.89908 23.12668,-2.89908 24.23768,0 24.45406,0.1228 24.45406,13.87831 v 9.00166 l 7.66666,-6.85722 c 16.9672,-15.17581 39.78908,-22.31452 66.96997,-20.94825 40.64822,2.0432 71.09194,21.40707 89.96985,57.22573 21.58562,40.95623 23.95036,101.31035 5.73847,146.4599 -20.8409,51.66715 -73.55382,81.86788 -124.34495,71.24075 -11.14903,-2.33273 -28.47876,-10.60625 -36.33334,-17.34616 l -5.66666,-4.86251 v 56.56393 c 0,53.10488 -0.14911,56.69885 -2.43832,58.77056 -2.06147,1.8656 -5.83791,2.20665 -24.43426,2.20665 -21.26812,0 -22.09185,-0.10213 -24.89501,-3.08593 z M 532.71989,453.94356 c 22.4972,-5.82178 40.39309,-26.24685 46.6553,-53.24895 3.3584,-14.48117 4.78471,-37.6731 3.33375,-54.20749 -2.61405,-29.7886 -8.49155,-44.5225 -23.91501,-59.95098 -13.02312,-13.02734 -20.6504,-16.31493 -38.15529,-16.44604 -11.07329,-0.0829 -12.76665,0.27096 -21.33333,4.45863 -18.0394,8.81823 -33.24097,28.55601 -38.59963,50.11795 -6.26205,25.19704 -6.27222,56.46529 -0.0264,81.05787 3.08398,12.14286 8.63628,22.15241 17.53784,31.61675 15.2384,16.20181 33.98416,21.91201 54.50273,16.60226 z M 42.206652,494.89503 c -2.030032,-2.24316 -2.206651,-16.63372 -2.206651,-179.79335 0,-172.18438 0.07343,-177.42149 2.518527,-179.63428 2.337563,-2.11546 9.45105,-2.24447 99.000012,-1.79541 104.46058,0.52384 109.4635,0.83899 130.73048,8.23491 22.37268,7.78045 38.79919,22.77133 49.77674,45.42644 8.6428,17.83671 10.50566,26.18 10.5684,47.33333 0.0452,15.21473 -0.4283,19.54738 -3.05952,28.00001 -5.33554,17.13994 -11.58079,27.51021 -24.13538,40.07693 -14.37806,14.39196 -31.10809,23.38115 -54.52561,29.29708 l -5.79301,1.46348 5.91068,3.74846 c 8.10033,5.13708 24.73782,22.29254 35.63786,36.74738 4.9769,6.6 23.80211,35.23488 41.8338,63.63306 l 32.78493,51.63305 -2.29062,4.0439 -2.29061,4.04389 -31.15918,-0.34361 -31.15916,-0.34362 -26.22488,-41.33333 c -53.46093,-84.26039 -65.61679,-99.89011 -84.596,-108.77156 -11.95729,-5.59548 -19.9558,-6.54527 -55.19412,-6.55406 l -31.000003,-0.008 v 76.46002 c 0,72.37991 -0.13012,76.57777 -2.438322,78.66667 -2.078957,1.88144 -5.978675,2.20665 -26.460017,2.20665 -21.578507,0 -24.24613,-0.248 -26.228346,-2.43832 z M 230.00001,284.6991 c 19.88923,-4.9885 32.43217,-14.03988 38.83435,-28.02405 11.37676,-24.85015 3.17772,-52.50948 -19.06634,-64.31987 -16.28731,-8.64769 -17.25324,-8.75007 -88.10135,-9.33759 l -64.333333,-0.5335 v 52.87204 52.87204 l 61.666673,-0.59407 c 53.02657,-0.51082 62.97436,-0.92205 71,-2.935 z"
     style="fill:#919191;stroke-width:1.33333337" />
  <path
     inkscape:connector-curvature="0"
     id="path242"
     d="m 408.23243,592.91409 -2.89908,-3.08594 V 413.14649 236.46485 l 3.08593,-2.8991 c 2.88584,-2.71109 4.38545,-2.89908 23.12668,-2.89908 24.25086,0 24.45406,0.11572 24.45406,13.92681 v 9.05016 l 5.45992,-4.93271 c 18.82217,-17.0047 41.98854,-24.61715 69.81749,-22.94199 59.52442,3.58307 97.95122,45.45791 106.13649,115.66014 5.8479,50.15548 -9.87954,102.67575 -38.91946,129.96767 -38.17315,35.8754 -94.20231,41.27789 -131.49444,12.67908 l -7,-5.3682 v 55.74711 55.74711 l -3.08594,2.89909 c -2.90314,2.72735 -4.3505,2.89908 -24.43425,2.89908 -20.59118,0 -21.45114,-0.10947 -24.2474,-3.08593 z M 541.99886,450.86295 c 11.22392,-5.25231 24.10112,-17.84168 29.80283,-29.1367 15.86572,-31.42984 15.78194,-89.61988 -0.17214,-119.5528 -5.75452,-10.7966 -17.71924,-22.39913 -28.64609,-27.77897 -8.20107,-4.0378 -9.95589,-4.39447 -21.62114,-4.39447 -11.55136,0 -13.51833,0.38964 -21.82322,4.32299 -19.27944,9.13108 -34.59587,30.2246 -40.42819,55.67701 -3.31328,14.45926 -3.38753,57.00211 -0.12227,70.06686 5.30238,21.21558 13.19864,34.52756 26.43647,44.56812 16.15703,12.25468 38.45048,14.70888 56.57378,6.22796 z M 42.899087,494.24742 40.000001,491.16148 V 315.14649 139.13151 l 3.171919,-2.97987 3.17192,-2.97986 95.16142,0.50122 c 82.86899,0.43648 96.79763,0.79846 107.82808,2.80224 26.79546,4.86764 42.67034,12.68139 56.91666,28.01482 28.66096,30.84803 35.04723,79.68524 15.3635,117.48818 -3.36998,6.47213 -8.37541,12.84772 -16.24232,20.68844 -13.1243,13.08064 -25.50684,20.28453 -44.7045,26.00813 -6.6,1.96772 -12.85827,3.84359 -13.90726,4.16859 -1.21373,0.37602 0.48318,2.21425 4.66667,5.05532 8.69701,5.90623 26.19293,24.10763 36.19877,37.65841 9.82775,13.30958 72.37515,111.37905 72.37515,113.47862 0,0.828 -0.6963,3.03369 -1.54736,4.90153 l -1.54734,3.39607 H 325.93028 294.95524 L 274.52906,465.00002 C 217.00082,373.93645 202.7575,355.37027 183.39005,346.20021 c -11.52607,-5.45733 -17.94468,-6.2002 -53.57203,-6.2002 H 97.333337 v 76.46002 c 0,72.37991 -0.13012,76.57777 -2.438322,78.66667 -2.07332,1.87633 -5.930557,2.20665 -25.767582,2.20665 -22.661842,0 -23.412199,-0.0883 -26.228346,-3.08593 z M 232.4327,284.27236 c 18.79431,-5.1896 29.04403,-12.75035 36.06332,-26.60224 12.51615,-24.69945 3.47399,-54.99393 -19.81529,-66.3883 -15.65244,-7.65803 -16.05323,-7.69641 -86.34739,-8.26783 l -65.000003,-0.52838 v 52.8608 52.8608 l 62.333333,-0.52707 c 58.86418,-0.49772 62.91396,-0.68738 72.76603,-3.40778 z"
     style="fill:#727272;stroke-width:1.33333337" />
  <path
     inkscape:connector-curvature="0"
     id="path240"
     d="m 408.87333,593.5617 c -2.03012,-2.24325 -2.20665,-16.68005 -2.20665,-180.46002 0,-170.7712 0.0993,-178.11158 2.43832,-180.22835 2.03285,-1.83971 5.6526,-2.20666 21.76759,-2.20666 18.48068,0 19.45653,0.13548 22.22835,3.08594 2.33596,2.48652 2.89908,4.69907 2.89908,11.3908 v 8.30487 l 9,-7.23283 c 21.0496,-16.91646 46.37276,-23.52984 75,-19.58695 24.74595,3.40832 43.49383,12.63796 60.78327,29.92382 17.20694,17.20336 27.49228,38.06985 34.04864,69.07654 3.78812,17.91501 4.11885,51.44347 0.69364,70.31902 -9.66291,53.25016 -38.77078,88.55899 -84.19222,102.12803 -9.94981,2.97237 -14.73358,3.6056 -28,3.70635 -23.24885,0.17656 -37.87949,-4.37202 -55.29095,-17.1896 l -8.04238,-5.92046 v 55.76482 55.76483 l -3.08594,2.89909 c -2.90346,2.72765 -4.34982,2.89908 -24.46001,2.89908 -19.01355,0 -21.61779,-0.26929 -23.58074,-2.43832 z M 543.02271,450.28348 c 17.46798,-8.63314 30.76886,-25.91468 36.13556,-46.95013 6.71624,-26.32508 6.19376,-62.39124 -1.24585,-86.00001 -6.36937,-20.21249 -18.75924,-35.40694 -35.24573,-43.22402 -7.88472,-3.73855 -9.86966,-4.10928 -22.00001,-4.10904 -12.01313,2.5e-4 -14.12545,0.38538 -21.33333,3.88976 -11.12992,5.4112 -26.74881,21.30837 -32.40993,32.98737 -8.40066,17.33067 -10.0503,26.6062 -10.15919,57.1226 -0.0785,22.00436 0.37531,29.34888 2.3278,37.67144 6.17101,26.30416 22.07977,45.19494 44.24132,52.53413 3.2986,1.0924 9.98025,1.62348 17.51363,1.39206 10.96613,-0.33685 13.17667,-0.86658 22.17573,-5.31416 z M 42.899087,494.24742 40.000001,491.16148 V 315.14649 139.13151 l 3.085935,-2.89909 3.085935,-2.89908 83.914069,0.0211 c 109.61027,0.0276 128.73548,1.69819 152.16706,13.29209 41.10949,20.34089 60.89904,73.82876 44.99346,121.60985 -9.80614,29.45814 -34.19733,51.05718 -69.03021,61.1281 -5.25227,1.51854 -10.35977,3.03253 -11.35003,3.36441 -1.0888,0.36492 1.28275,2.88412 6,6.37356 9.39471,6.94943 22.48475,20.6793 33.45439,35.08962 9.77508,12.84108 73.6794,112.9664 73.6794,115.44093 0,0.96452 -0.93402,3.08718 -2.0756,4.717 -2.04146,2.91466 -2.57461,2.96339 -32.41532,2.96339 h -30.33971 l -22.5155,-35.66667 c -43.12513,-68.31421 -58.23243,-89.84349 -72.84909,-103.81657 -16.75688,-16.01908 -23.80922,-17.8501 -68.75158,-17.8501 H 97.333337 v 75.76759 75.76758 l -3.085935,2.89909 c -2.918732,2.742 -4.314876,2.89908 -25.767582,2.89908 -21.9849,0 -22.770704,-0.0948 -25.580733,-3.08593 z M 231.69222,284.89666 c 22.46956,-5.94328 36.04766,-18.5902 41.08991,-38.27201 5.93208,-23.15518 -5.28107,-46.95264 -26.75621,-56.7843 -14.15363,-6.47973 -22.6801,-7.17368 -88.14321,-7.17368 H 97.333337 v 52.75952 52.75954 l 63.000003,-0.53907 c 53.20927,-0.45528 64.29904,-0.88265 71.35888,-2.75 z"
     style="fill:#4d4d4d;stroke-width:1.33333337" />
  <path
     inkscape:connector-curvature="0"
     id="path238"
     d="m 408.87333,593.5617 c -2.03012,-2.24325 -2.20665,-16.68005 -2.20665,-180.46002 0,-170.7712 0.0993,-178.11158 2.43832,-180.22835 2.03285,-1.83971 5.6526,-2.20666 21.76759,-2.20666 18.48068,0 19.45653,0.13548 22.22835,3.08594 2.38713,2.541 2.89908,4.6798 2.89908,12.11187 v 9.02594 l 8.32329,-7.53216 c 9.38307,-8.49118 22.83001,-15.60223 35.67671,-18.86664 12.03614,-3.05844 36.23453,-3.05457 50,0.008 13.02389,2.89759 32.02684,11.92062 42.29577,20.083 28.8617,22.94107 45.28838,63.75668 45.37773,112.75073 0.1184,64.88848 -26.03351,111.81788 -73.58854,132.05436 -14.25471,6.06592 -25.61168,8.31137 -42.08496,8.32084 -22.10592,0.0133 -35.26282,-4.22084 -53.66667,-17.26855 l -8.33333,-5.90805 v 55.83495 55.83495 l -3.08594,2.89909 c -2.90346,2.72765 -4.34982,2.89908 -24.46001,2.89908 -19.01355,0 -21.61779,-0.26929 -23.58074,-2.43832 z m 134.1863,-142.66078 c 27.11512,-13.34873 40.88756,-43.29385 40.88756,-88.90091 0,-23.9716 -3.42968,-42.26083 -10.8483,-57.84996 -5.3845,-11.31471 -18.72094,-24.86879 -29.76554,-30.25129 -7.29562,-3.55548 -9.23513,-3.89875 -22.02804,-3.89875 -13.18787,0 -14.56565,0.26467 -23.00451,4.41911 -12.79973,6.30129 -24.97817,18.95814 -31.5911,32.83214 -8.84206,18.5507 -10.0432,25.49827 -10.04167,58.08209 0.001,25.88368 0.29665,29.68653 3.04309,39.17192 4.08246,14.09961 9.06524,23.92016 16.11523,31.76144 13.12356,14.59656 25.72399,19.94597 45.61215,19.36427 11.31285,-0.33088 13.78271,-0.87122 21.62113,-4.73006 z m -500.160543,43.3465 -2.899086,-3.08594 V 315.14649 139.13151 l 3.085935,-2.89909 3.085935,-2.89908 80.580739,0.012 c 84.32428,0.012 109.64666,1.02582 129.7894,5.19506 16.85745,3.48924 25.84445,7.17951 37.04693,15.21235 16.95974,12.16111 30.06947,32.25323 35.75219,54.79416 3.64281,14.44948 3.65608,37.79445 0.0296,51.97409 -8.65077,33.8242 -34.80521,58.57782 -73.02723,69.11596 -6.04445,1.6665 -10.99445,3.38028 -11,3.80839 -0.005,0.4281 3.32155,3.07297 7.39356,5.87748 8.93512,6.15385 21.80598,19.78206 34.00958,36.01081 7.18668,9.55709 67.03787,102.26004 72.08683,111.65463 0.85488,1.59068 0.59453,3.58407 -0.82718,6.33333 l -2.07476,4.01175 -30.29909,-0.0376 -30.2991,-0.0376 -29.74552,-46.99272 C 215.94907,371.84484 202.64134,354.97992 182.99917,345.60056 L 172.66667,340.66668 135,340.24056 97.333337,339.81443 v 75.86037 75.86038 l -3.085935,2.89909 c -2.918732,2.742 -4.314876,2.89908 -25.767582,2.89908 -21.9849,0 -22.770704,-0.0948 -25.580733,-3.08593 z M 234.66667,284.16276 c 5.50001,-1.64904 12.43451,-4.41787 15.41003,-6.15296 7.58423,-4.42256 16.1991,-14.19655 20.36895,-23.10959 3.09691,-6.6196 3.53771,-9.23603 3.52123,-20.9002 -0.0153,-10.83219 -0.56275,-14.52158 -2.91834,-19.66768 -3.94552,-8.61958 -14.85329,-19.8179 -23.361,-23.98327 -14.33689,-7.01933 -22.01523,-7.68239 -88.96465,-7.68239 H 97.333337 v 52.75874 52.75873 l 63.666673,-0.51157 c 61.37826,-0.49319 64.0261,-0.61935 73.66666,-3.50981 z"
     style="fill:#353535;stroke-width:1.33333337" />
</svg>
