<?xml version="1.0" encoding="UTF-8" standalone="no"?>
<!-- Created with Inkscape (http://www.inkscape.org/) -->

<svg
   xmlns:dc="http://purl.org/dc/elements/1.1/"
   xmlns:cc="http://creativecommons.org/ns#"
   xmlns:rdf="http://www.w3.org/1999/02/22-rdf-syntax-ns#"
   xmlns:svg="http://www.w3.org/2000/svg"
   xmlns="http://www.w3.org/2000/svg"
   xmlns:xlink="http://www.w3.org/1999/xlink"
   xmlns:sodipodi="http://sodipodi.sourceforge.net/DTD/sodipodi-0.dtd"
   xmlns:inkscape="http://www.inkscape.org/namespaces/inkscape"
   version="1.1"
   id="svg82"
   width="666.66669"
   height="666.66669"
   viewBox="0 0 666.66669 666.66669"
   sodipodi:docname="scan-barcode.svg"
   inkscape:version="0.92.3 (2405546, 2018-03-11)">
  <metadata
     id="metadata88">
    <rdf:RDF>
      <cc:Work
         rdf:about="">
        <dc:format>image/svg+xml</dc:format>
        <dc:type
           rdf:resource="http://purl.org/dc/dcmitype/StillImage" />
        <dc:title></dc:title>
      </cc:Work>
    </rdf:RDF>
  </metadata>
  <defs
     id="defs86" />
  <sodipodi:namedview
     pagecolor="#ffffff"
     bordercolor="#666666"
     borderopacity="1"
     objecttolerance="10"
     gridtolerance="10"
     guidetolerance="10"
     inkscape:pageopacity="0"
     inkscape:pageshadow="2"
     inkscape:window-width="1366"
     inkscape:window-height="705"
     id="namedview84"
     showgrid="false"
     inkscape:zoom="0.35399999"
     inkscape:cx="333.33334"
     inkscape:cy="333.33334"
     inkscape:window-x="-8"
     inkscape:window-y="-8"
     inkscape:window-maximized="1"
     inkscape:current-layer="svg82" />
  <image
     sodipodi:absref="E:\Project-website\tanyabudi\public\assets\images\icon\scan-barcode.png"
     xlink:href="scan-barcode.png"
     y="0"
     x="0"
     id="image90"
     preserveAspectRatio="none"
     height="666.66669"
     width="666.66669" />
  <path
     inkscape:connector-curvature="0"
     id="path106"
     d="M 36.000001,345.33335 V 132 h 67.333339 67.33333 v 16.00001 16 H 119.33334 68.000002 v 181.33334 181.33334 h 51.333338 51.33333 v 16 16 H 103.33334 36.000001 Z M 497.33335,542.66669 v -16 h 51.33334 51.33333 V 345.33335 164.00001 h -51.33333 -51.33334 v -16 V 132 h 67.33334 67.33333 V 345.33335 558.66669 H 564.66669 497.33335 Z M 257.9473,461.00002 c -0.34961,-0.91667 -0.48078,-53.56667 -0.29148,-117.00001 l 0.34419,-115.33334 12.33333,-0.38337 12.33334,-0.38336 v 117.38337 117.38337 h -12.04184 c -8.40558,0 -12.23382,-0.50328 -12.67754,-1.66666 z M 488.00002,345.33335 V 227.89994 l 12.33333,0.38336 12.33333,0.38337 v 116.66668 116.66667 l -12.33333,0.38337 -12.33333,0.38336 z m -338.66668,0 v -86.66667 h 12.66667 12.66666 v 86.66667 86.66667 h -12.66666 -12.66667 z m 224.00001,0 v -86.66667 h 12.66666 12.66667 v 86.66667 86.66667 h -12.66667 -12.66666 z"
     style="fill:#c1c1c1;stroke-width:1.33333337" />
  <path
     inkscape:connector-curvature="0"
     id="path104"
     d="M 36.000001,345.33335 V 132 h 67.333339 67.33333 v 16.00001 16 H 119.33334 68.000002 v 181.33334 181.33334 h 51.333338 51.33333 v 16 16 H 103.33334 36.000001 Z M 497.33335,542.66669 v -16 h 51.33334 51.33333 V 345.33335 164.00001 h -51.33333 -51.33334 v -16 V 132 h 67.33334 67.33333 V 345.33335 558.66669 H 564.66669 497.33335 Z M 258.66668,345.33335 V 227.89618 l 11.66666,0.38525 11.66667,0.38524 v 116.66668 116.66667 l -11.66667,0.38524 -11.66666,0.38525 z m 229.96735,115.71889 c -0.36065,-0.94538 -0.50084,-53.61889 -0.31153,-117.05223 l 0.34418,-115.33334 h 12 12 v 116.66668 116.66667 l -11.68846,0.38556 c -8.59951,0.28366 -11.86176,-0.0687 -12.34419,-1.33334 z M 149.33334,345.33335 v -86.66667 h 12.66667 12.66666 v 86.66667 86.66667 h -12.66666 -12.66667 z m 224.00001,0 v -86.66667 h 12.66666 12.66667 v 86.66667 86.66667 h -12.66667 -12.66666 z"
     style="fill:#b2b2b2;stroke-width:1.33333337" />
  <path
     inkscape:connector-curvature="0"
     id="path102"
     d="M 36.000001,345.33335 V 132 h 67.333339 67.33333 v 16.00001 16 H 119.33334 68.000002 v 181.33334 181.33334 h 51.333338 51.33333 v 16 16 H 103.33334 36.000001 Z M 497.33335,542.66669 v -16 h 51.33334 51.33333 V 345.33335 164.00001 h -51.33333 -51.33334 v -16 V 132 h 67.33334 67.33333 V 345.33335 558.66669 H 564.66669 497.33335 Z M 258.66668,345.33335 V 229.33334 h 12 12 v 116.00001 116 h -12 -12 z m 229.33334,0 V 229.33334 h 12 12 v 116.00001 116 h -12 -12 z m -338.05411,85 c -0.35037,-0.91667 -0.48154,-39.76667 -0.29148,-86.33334 l 0.34558,-84.66667 12.33333,-0.38337 12.33333,-0.38336 v 86.7167 86.71671 h -12.04184 c -8.40482,0 -12.23426,-0.50339 -12.67892,-1.66667 z m 224.72077,-85 v -86.66667 h 12 12 v 86.66667 86.66667 h -12 -12 z"
     style="fill:#959595;stroke-width:1.33333337" />
  <path
     inkscape:connector-curvature="0"
     id="path100"
     d="M 36.000001,345.33335 V 132 h 67.375649 67.37565 l -0.37564,15.66667 -0.37565,15.66667 L 119,163.68251 68.000002,164.0317 V 345.33335 526.63499 L 119,526.98418 l 51.00001,0.34917 0.37565,15.66667 0.37564,15.66667 H 103.37565 36.000001 Z m 461.624359,197.66667 0.37566,-15.66667 51,-0.34917 51,-0.34919 V 345.33335 164.0317 l -51,-0.34919 -51,-0.34917 -0.37566,-15.66667 L 497.24872,132 h 67.37565 67.37565 V 345.33335 558.66669 H 564.62437 497.24872 Z M 258.66668,345.33335 V 229.33334 h 12 12 v 116.00001 116 h -12 -12 z m 229.33334,0 V 229.33334 h 12 12 v 116.00001 116 h -12 -12 z m -337.33335,0 v -86.7705 l 11.66667,0.38525 11.66667,0.38524 v 86.00001 86 l -11.66667,0.38524 -11.66667,0.38525 z m 224.00001,0 v -86.66667 h 12 12 v 86.66667 86.66667 h -12 -12 z"
     style="fill:#747474;stroke-width:1.33333337" />
  <path
     inkscape:connector-curvature="0"
     id="path98"
     d="M 36.000001,345.33335 V 132 h 67.333339 67.33333 v 15.33334 15.33333 H 119.33334 68.000002 v 182.66668 182.66667 h 51.333338 51.33333 v 15.33333 15.33334 H 103.33334 36.000001 Z m 461.333349,198 v -15.33333 h 51.33334 51.33333 V 345.33335 162.66667 H 548.66669 497.33335 V 147.33334 132 h 67.33334 67.33333 v 213.33335 213.33334 h -67.33333 -67.33334 z m -238.66667,-198 V 229.33334 h 12 12 v 116.00001 116 h -12 -12 z m 229.33334,0 V 229.33334 h 12 12 v 116.00001 116 h -12 -12 z m -337.33335,0 v -86.66667 h 11.33334 11.33333 v 86.66667 86.66667 h -11.33333 -11.33334 z m 224.00001,0 v -86.7705 l 11.66667,0.38525 11.66666,0.38524 v 86.00001 86 l -11.66666,0.38524 -11.66667,0.38525 z"
     style="fill:#666666;stroke-width:1.33333337" />
  <path
     inkscape:connector-curvature="0"
     id="path96"
     d="M 36.000001,345.33335 V 132 h 67.333339 67.33333 v 15.31769 15.31766 L 119,162.98435 67.333336,163.33334 v 182.00001 182 L 119,527.68234 l 51.66667,0.349 v 15.31767 15.31768 H 103.33334 36.000001 Z M 497.33335,543.34901 v -15.31767 l 51.66667,-0.349 51.66667,-0.34899 v -182 -182.00001 l -51.66667,-0.34899 -51.66667,-0.349 V 147.31769 132 h 67.33334 67.33333 V 345.33335 558.66669 H 564.66669 497.33335 Z M 258.66668,345.33335 V 229.33334 h 12 12 v 116.00001 116 h -12 -12 z m 229.33334,0 V 229.33334 h 12 12 v 116.00001 116 h -12 -12 z m -337.33335,0 v -86.66667 h 11.33334 11.33333 v 86.66667 86.66667 h -11.33333 -11.33334 z m 224.00001,0 v -86.7705 l 11.35659,0.38525 11.35658,0.38524 v 86.00001 86 l -11.35658,0.38524 -11.35659,0.38525 z"
     style="fill:#565656;stroke-width:1.33333337" />
  <path
     inkscape:connector-curvature="0"
     id="path94"
     d="M 36.000001,345.33335 V 132 h 66.666669 66.66667 v 15.3175 15.31748 l -51,0.34919 -51.000004,0.34917 v 182.00001 182 l 51.000004,0.34918 51,0.34918 v 15.31748 15.3175 H 102.66667 36.000001 Z M 498.66668,543.34919 v -15.31748 l 51.00001,-0.34918 51,-0.34918 v -182 -182.00001 l -51,-0.34917 -51.00001,-0.34919 V 147.3175 132 h 66.66667 66.66667 v 213.33335 213.33334 h -66.66667 -66.66667 z m -240,-198.01584 V 229.33334 h 11.33333 11.33333 v 116.00001 116 h -11.33333 -11.33333 z m 230.66667,0 V 229.33334 h 11.33333 11.33334 v 116.00001 116 h -11.33334 -11.33333 z m -338.66668,0 v -85.33334 h 11.33334 11.33333 v 85.33334 85.33333 h -11.33333 -11.33334 z m 224.00001,0 v -85.33334 h 11.33333 11.33334 v 85.33334 85.33333 h -11.33334 -11.33333 z"
     style="fill:#353535;stroke-width:1.33333337" />
</svg>
