<?xml version="1.0" encoding="UTF-8" standalone="no"?>
<!-- Created with Inkscape (http://www.inkscape.org/) -->

<svg
   xmlns:dc="http://purl.org/dc/elements/1.1/"
   xmlns:cc="http://creativecommons.org/ns#"
   xmlns:rdf="http://www.w3.org/1999/02/22-rdf-syntax-ns#"
   xmlns:svg="http://www.w3.org/2000/svg"
   xmlns="http://www.w3.org/2000/svg"
   xmlns:xlink="http://www.w3.org/1999/xlink"
   xmlns:sodipodi="http://sodipodi.sourceforge.net/DTD/sodipodi-0.dtd"
   xmlns:inkscape="http://www.inkscape.org/namespaces/inkscape"
   version="1.1"
   id="svg110"
   width="666.66669"
   height="666.66669"
   viewBox="0 0 666.66669 666.66669"
   sodipodi:docname="sedekah.svg"
   inkscape:version="0.92.3 (2405546, 2018-03-11)">
  <metadata
     id="metadata116">
    <rdf:RDF>
      <cc:Work
         rdf:about="">
        <dc:format>image/svg+xml</dc:format>
        <dc:type
           rdf:resource="http://purl.org/dc/dcmitype/StillImage" />
        <dc:title></dc:title>
      </cc:Work>
    </rdf:RDF>
  </metadata>
  <defs
     id="defs114" />
  <sodipodi:namedview
     pagecolor="#ffffff"
     bordercolor="#666666"
     borderopacity="1"
     objecttolerance="10"
     gridtolerance="10"
     guidetolerance="10"
     inkscape:pageopacity="0"
     inkscape:pageshadow="2"
     inkscape:window-width="1366"
     inkscape:window-height="705"
     id="namedview112"
     showgrid="false"
     inkscape:zoom="0.35399999"
     inkscape:cx="333.33334"
     inkscape:cy="333.33334"
     inkscape:window-x="-8"
     inkscape:window-y="-8"
     inkscape:window-maximized="1"
     inkscape:current-layer="svg110" />
  <image
     sodipodi:absref="E:\Project-website\tanyabudi\public\assets\images\icon\sedekah.png"
     xlink:href="sedekah.png"
     y="0"
     x="0"
     id="image118"
     preserveAspectRatio="none"
     height="666.66669"
     width="666.66669" />
  <path
     inkscape:connector-curvature="0"
     id="path134"
     d="M 64.000002,604.3395 C 52.734577,598.86819 40.441316,581.80307 35.79298,565.18338 c -1.153583,-4.12452 -1.865401,-27.48017 -2.413296,-79.18336 -0.851807,-80.38226 -1.36918,-71.86237 7.853796,-129.33334 2.236031,-13.93333 4.7221,-29.83334 5.5246,-35.33334 0.8025,-5.5 2.852295,-19.6 4.5551,-31.33333 7.532515,-51.90349 9.097834,-61.43191 10.349579,-63 1.040315,-1.30323 20.629563,-1.66667 89.833831,-1.66667 h 88.50342 V 159.11715 92.900957 l 3.32153,-5.667774 c 1.82686,-3.117275 5.34767,-6.91999 7.82406,-8.450476 4.43576,-2.741454 5.7035,-2.782704 85.52108,-2.782704 79.81757,0 81.08532,0.04125 85.52108,2.782704 2.47639,1.530486 5.9972,5.333201 7.82406,8.450476 l 3.32153,5.667774 v 66.216193 66.21619 h 87.96576 87.96576 l 1.85004,3.66667 c 1.01752,2.01666 2.22475,6.96666 2.68272,11 0.45798,4.03333 1.7494,12.73333 2.86984,19.33333 1.12044,6.6 2.90365,18 3.96267,25.33334 1.97178,13.65382 3.04754,20.6999 6.71772,44 1.15514,7.33333 2.69326,17.53333 3.41806,22.66667 1.71013,12.11184 3.61897,24.79458 6.22097,41.33333 2.79359,17.75644 3.29575,163.10861 0.59601,172.5167 -3.16848,11.04161 -10.08312,23.42437 -16.86249,30.19741 -12.53075,12.51904 18.51201,11.28986 -284.25524,11.25554 C 87.184766,606.60806 68.343972,606.44925 64.000002,604.3395 Z M 596.73065,573.62233 c 1.50184,-1.25894 3.8375,-4.38898 5.19038,-6.95564 1.35287,-2.56667 3.12408,-5.86667 3.93604,-7.33334 0.99482,-1.79696 1.69371,-23.64857 2.14295,-67.00096 l 0.66667,-64.33431 -216.66668,-7.9e-4 c -119.16667,-4.4e-4 -241.44852,-0.39813 -271.73746,-0.88376 l -55.070792,-0.88297 0.404122,65.21807 c 0.27559,44.47535 0.873656,66.06619 1.880402,67.88472 0.811954,1.46667 2.583175,4.76667 3.936046,7.33334 1.352872,2.56666 3.688545,5.6967 5.190387,6.95564 2.559748,2.14573 18.833675,2.28897 260.063965,2.28897 241.23029,0 257.50421,-0.14324 260.06397,-2.28897 z M 108.98989,522.98291 c -2.02223,-1.25371 -4.01266,-3.33775 -4.42318,-4.63119 -0.41053,-1.29344 -1.30597,-2.3517 -1.98989,-2.3517 -2.1018,0 -1.37628,-11.55252 0.98378,-15.66468 1.225,-2.13444 3.97362,-4.88306 6.10806,-6.10806 3.58318,-2.05646 20.99085,-2.22726 226.99802,-2.22726 206.00717,0 223.41483,0.1708 226.99802,2.22726 2.13444,1.225 4.88305,3.97362 6.10805,6.10806 2.36006,4.11216 3.08559,15.66468 0.98379,15.66468 -0.68392,0 -1.58315,1.07018 -1.99829,2.37817 -0.41514,1.308 -2.49815,3.408 -4.62891,4.66667 -3.61992,2.13835 -18.55753,2.28616 -227.66838,2.25301 -208.76385,-0.0331 -224.04123,-0.18857 -227.47107,-2.31496 z M 603.4741,392.33335 c -1.5586,-6.82948 -6.53596,-37.53763 -12.26448,-75.66667 -1.10177,-7.33334 -2.53828,-16.63334 -3.19227,-20.66667 -0.65397,-4.03333 -2.10206,-13.56 -3.218,-21.17036 -1.11592,-7.61037 -2.20562,-14.01371 -2.42154,-14.22964 -0.21594,-0.21592 -33.83927,-0.80432 -74.71854,-1.30756 l -74.32592,-0.91496 v 24.81127 24.81125 h 22.20645 22.20644 l 5.1269,5.38948 c 4.4273,4.65407 5.12688,6.22884 5.12688,11.54081 0,7.01722 -4.1893,13.72013 -10.66938,17.07111 -5.83909,3.01952 -275.48883,3.01952 -281.32793,0 -6.48008,-3.35098 -10.66937,-10.05389 -10.66937,-17.07111 0,-5.31197 0.69957,-6.88674 5.12688,-11.54081 l 5.12689,-5.38948 h 22.20644 22.20646 V 282.66668 257.33334 H 165.35874 90.717475 l -0.727677,3 c -0.783967,3.23206 -3.065956,18.3321 -4.080371,27 -0.922843,7.88544 -4.524579,33.57502 -5.888495,42 -0.652955,4.03334 -1.823192,11.53334 -2.600529,16.66667 -0.777336,5.13334 -2.795004,17.88334 -4.483707,28.33334 l -3.070368,19 71.400172,0.18954 c 39.27009,0.10427 122.40018,0.5857 184.73351,1.06987 62.33334,0.48417 150.45329,0.99888 195.82211,1.14379 l 82.48877,0.26346 z M 401.33335,207.33334 V 106.66667 h -64.66667 -64.66667 v 100.66667 100.66667 h 64.66667 64.66667 z"
     style="fill:#e8e8e8;stroke-width:1.33333337" />
  <path
     inkscape:connector-curvature="0"
     id="path132"
     d="m 64.646924,603.87094 c -10.696058,-5.62775 -22.407459,-20.03208 -26.169955,-32.18751 -4.922136,-15.90185 -5.047994,-18.07377 -5.096138,-87.94361 -0.04352,-63.14831 0.184837,-70.47001 2.72379,-87.33334 1.524208,-10.12356 3.297894,-22.00647 3.941524,-26.40647 0.643631,-4.4 1.75361,-11.6 2.466619,-16 0.713011,-4.4 1.982267,-12.5 2.820571,-18 0.838304,-5.5 2.033895,-13.3 2.656868,-17.33333 0.622975,-4.03334 2.096107,-14.23334 3.273628,-22.66667 1.17752,-8.43333 2.687282,-18.63333 3.355023,-22.66667 0.667741,-4.03333 1.84158,-11.53333 2.608531,-16.66666 3.525714,-23.59825 4.383126,-28.06075 5.695289,-29.64181 1.108087,-1.33516 19.909138,-1.69153 89.240586,-1.69153 h 87.83675 v -64.91237 c 0,-63.116979 0.0771,-65.071569 2.78639,-70.668282 1.53252,-3.165752 4.96922,-7.555186 7.63713,-9.7543 l 4.85073,-3.998385 h 81.64982 81.64981 l 4.62248,4.058596 c 2.54238,2.232228 5.86326,6.621663 7.37974,9.7543 2.67235,5.520343 2.75719,7.704495 2.75552,70.941401 l -0.001,65.24571 5.00173,0.0463 c 2.75095,0.0255 42.36657,0.17543 88.03472,0.33334 l 83.0326,0.28706 1.22827,3.23058 c 1.15024,3.02537 2.81343,12.80793 7.38479,43.43609 1.0398,6.96667 2.83072,18.66667 3.97981,26 1.14911,7.33334 3.88888,25.33334 6.08839,40.00001 7.18348,47.90044 8.22887,54.58105 9.59748,61.33333 2.0484,10.10605 2.8968,147.51363 0.96732,156.66667 -4.78227,22.6861 -15.10595,38.72264 -29.95898,46.53759 l -5.31358,2.79575 H 336.66668 69.960512 Z M 598.2783,573.00002 c 1.50872,-1.65 3.81325,-5.1 5.12119,-7.66667 5.22786,-10.2591 5.83838,-18.42925 5.88702,-78.78201 l 0.0468,-58.11535 -117.66667,-0.89491 c -64.71667,-0.4922 -187.26667,-0.90033 -272.33334,-0.90697 l -154.666671,-0.012 -0.416507,57.02232 c -0.438661,60.05544 0.271771,70.72015 5.397327,81.02232 1.459397,2.93334 3.890328,6.68334 5.402067,8.33334 l 2.748617,2.99993 H 336.66668 595.53518 Z M 108.96267,522.48604 c -10.012541,-7.4684 -9.90766,-20.50054 0.22304,-27.71424 l 3.89262,-2.77178 223.12751,0.005 c 218.94885,0.005 223.20746,0.0537 227.39611,2.60771 10.70283,6.52589 10.9761,20.52176 0.5457,27.94885 l -3.89262,2.77144 -223.79418,-0.0422 -223.79418,-0.0422 z m 495.03735,-129.998 c 0,-1.93159 -0.56636,-5.68159 -1.25857,-8.33333 -0.69222,-2.65175 -2.21324,-11.42136 -3.38008,-19.48803 -3.35444,-23.19028 -6.01287,-40.67291 -7.50168,-49.33334 -0.7564,-4.4 -2.99995,-18.8 -4.98567,-32 l -3.61039,-24 -74.96515,-0.34444 -74.96513,-0.34442 v 24.67776 24.67777 h 20.79428 c 23.88001,0 26.82371,0.94799 31.23404,10.05851 3.27304,6.76118 3.27304,7.78846 0,14.54965 -5.25964,10.86496 6.66223,10.05851 -148.69499,10.05851 -155.35722,0 -143.43535,0.80645 -148.69499,-10.05851 -3.27304,-6.76119 -3.27304,-7.78847 0,-14.54965 4.41033,-9.11052 7.35402,-10.05851 31.23404,-10.05851 h 20.79428 l -7.6e-4,-25.66667 -7.6e-4,-25.66666 -74.48336,-0.50136 c -46.29646,-0.31164 -74.780324,-0.0209 -75.268043,0.76824 -0.724835,1.1728 -2.846976,14.26289 -6.333385,39.06645 -1.501378,10.68133 -2.26735,15.81249 -6.568265,44 -1.510564,9.9 -3.384394,22.2 -4.164068,27.33334 -0.779672,5.13333 -1.964437,12.21286 -2.632811,15.73229 -0.668372,3.51943 -1.215222,7.56636 -1.215222,8.99316 0,2.87601 -23.259725,2.66171 392.333344,3.6148 l 142.33334,0.32641 z M 401.68385,207.00001 402.00001,106.66667 h -65.33333 -65.33334 l 0.32484,100.33334 c 0.17866,55.18333 0.32866,100.48904 0.33334,100.67935 0.005,0.1903 29.11622,0.1903 64.69233,0 l 64.68386,-0.34602 z"
     style="fill:#cdcdcd;stroke-width:1.33333337" />
  <path
     inkscape:connector-curvature="0"
     id="path130"
     d="m 63.158104,602.7175 c -14.817549,-8.49859 -25.181099,-26.28755 -28.436492,-48.81104 -0.7345,-5.08188 -1.34734,-36.65904 -1.361865,-70.17148 -0.02612,-60.2697 0.594872,-72.0977 5.271312,-100.40163 3.81862,-23.11202 8.448996,-53.2371 13.321107,-86.66667 8.094028,-55.5365 10.212986,-68.60987 11.295408,-69.68945 0.538891,-0.53748 40.678646,-1.02189 89.199446,-1.07649 l 88.21966,-0.0993 0.66666,-67.90073 0.66667,-67.900737 3.02385,-4.239332 c 1.66312,-2.331633 5.03395,-5.481634 7.49072,-7 4.38758,-2.711672 5.88627,-2.760668 84.44277,-2.760668 h 79.97589 l 5.30793,3.845046 c 10.02333,7.260853 9.75885,5.112315 9.75885,79.277771 0,36.32923 0.46693,66.34172 1.03762,66.69443 0.57071,0.35272 40.18272,0.79113 88.02672,0.97426 68.03366,0.26043 87.29311,0.6993 88.38426,2.01404 0.76733,0.92459 1.92585,5.17159 2.57449,9.43777 0.64863,4.26618 2.42778,15.85669 3.95366,25.75669 1.52588,9.9 3.31051,21.6 3.96583,26 0.65532,4.4 2.17398,14.3 3.3748,22 3.83601,24.59754 6.03217,38.99051 8.03616,52.66667 3.22753,22.02617 4.54838,30.29717 6.06846,38 2.12679,10.77725 3.26332,135.43293 1.36347,149.5467 -3.22185,23.93489 -13.29803,41.72183 -28.61024,50.50412 l -6.8419,3.92416 H 336.66668 70.000002 Z M 598.68382,572.29662 c 9.66011,-9.66012 9.87704,-11.39371 10.33949,-82.62994 l 0.40899,-63 H 422.93605 c -102.57292,0 -225.31748,-0.39869 -272.76567,-0.886 l -86.26945,-0.88599 0.408546,63.88599 c 0.461869,72.22446 0.661573,73.83745 10.340064,83.51594 l 5.036737,5.03673 H 336.66668 593.64707 Z M 108.05615,520.20647 c -4.74599,-4.51475 -5.38948,-5.84645 -5.38948,-11.15353 0,-6.78094 3.16197,-11.86159 9.38485,-15.07956 5.77317,-2.98543 443.45715,-2.98543 449.23031,0 6.22288,3.21797 9.38486,8.29862 9.38486,15.07956 0,5.30708 -0.6435,6.63878 -5.38948,11.15353 l -5.38947,5.12688 H 336.66668 113.44562 Z M 603.66099,396.87621 c 0.80882,-0.49988 0.83356,-3.63681 0.0671,-8.50088 -0.66813,-4.23976 -2.03317,-13.10865 -3.03343,-19.70865 -9.436,-62.26164 -16.77484,-109.20475 -17.11933,-109.50424 -0.13308,-0.11568 -34.14195,-0.42455 -75.57528,-0.68638 l -75.33334,-0.47605 -0.36276,25 -0.36274,25 h 20.76229 c 22.50957,0 25.93735,0.82305 31.17881,7.48651 1.97751,2.51398 2.7844,5.46508 2.7844,10.1835 0,5.93967 -0.54856,7.19227 -5.17646,11.82019 l -5.17648,5.17647 H 336.66668 197.01962 l -5.17648,-5.17647 c -4.62791,-4.62792 -5.17647,-5.88052 -5.17647,-11.82019 0,-4.71842 0.8069,-7.66952 2.7844,-10.1835 5.24144,-6.66342 8.66928,-7.48651 31.17818,-7.48651 h 20.76168 l -0.36213,-25.66667 -0.36212,-25.66666 -74.46201,-0.66667 c -40.95411,-0.36667 -74.98308,-0.34425 -75.619941,0.0499 -0.636863,0.39405 -1.731951,3.69405 -2.433533,7.33333 -1.355764,7.03268 -1.917802,10.74229 -8.274928,54.61685 -2.231355,15.40001 -4.5734,31.30001 -5.204543,35.33334 -0.631144,4.03333 -1.784937,11.53333 -2.563984,16.66667 -0.779047,5.13333 -1.940313,12.5335 -2.580592,16.44482 -0.814749,4.97712 -0.718401,7.27758 0.321021,7.66484 0.816842,0.30434 84.88517,1.00416 186.81851,1.55518 101.93333,0.551 221.41864,1.22721 265.52291,1.50269 44.10427,0.27548 80.76639,0.14439 81.4714,-0.29133 z M 402.34173,207.00001 402.00001,106 h -65.33333 -65.33334 l -0.34172,101.00001 -0.3417,101 h 66.01676 66.01676 z"
     style="fill:#afafaf;stroke-width:1.33333337" />
  <path
     inkscape:connector-curvature="0"
     id="path128"
     d="m 68.666669,604.94797 c -13.279356,-7.77792 -15.587702,-9.7432 -21.181266,-18.03339 -3.308163,-4.90301 -7.395718,-12.81456 -9.083455,-17.58123 -3.03442,-8.57009 -3.073115,-9.46152 -3.472584,-80 -0.244652,-43.20059 0.12936,-75.27718 0.948347,-81.33334 1.170088,-8.65246 4.094726,-28.29392 8.139939,-54.66666 3.254194,-21.21571 4.193185,-27.43838 6.53894,-43.33334 5.629109,-38.14316 8.441255,-56.60976 10.558272,-69.33333 l 2.218474,-13.33334 88.666674,-0.66667 88.66667,-0.66666 0.66666,-67.33334 c 0.47226,-47.69756 1.11924,-68.110988 2.21859,-70 1.98032,-3.402771 8.25971,-9.234881 12.02709,-11.170419 2.05536,-1.055967 25.90963,-1.496248 81.06622,-1.496248 64.68157,0 78.77452,0.324244 81.75432,1.880965 4.83427,2.525536 10.44499,8.607666 12.1823,13.205835 0.93201,2.466784 1.41816,26.274377 1.41816,69.450737 v 65.69728 l 46.21785,0.8826 c 25.41983,0.48541 65.25563,0.88259 88.52402,0.88259 38.02936,0 42.39122,0.22168 43.14765,2.19288 0.46281,1.20609 1.41807,6.15609 2.12279,11 2.31538,15.91496 6.42122,43.08977 9.99316,66.14045 1.93183,12.46667 5.26588,34.06667 7.409,48.00001 2.14311,13.93333 4.95159,31.93333 6.24105,40 2.03636,12.73914 2.34448,24.56713 2.34448,90 0,75.22318 -0.004,75.346 -3.06861,84 -3.53329,9.97906 -13.07172,24.79027 -18.59451,28.87344 -2.08028,1.53802 -6.41979,4.07068 -9.64337,5.62815 l -5.86106,2.83175 -264.74956,-0.0784 C 136.28252,606.5291 70.679141,606.1267 68.666669,604.94797 Z M 596.10714,575.94269 c 3.66795,-1.96303 8.63325,-10.29383 11.11381,-18.64679 1.79486,-6.04393 2.1124,-16.39685 2.1124,-68.87122 v -61.758 h -96.44557 c -53.04507,0 -175.74507,-0.39925 -272.66668,-0.88721 L 64.000002,424.89225 v 62.64522 c 0,53.28398 0.315662,63.70816 2.112398,69.75843 2.398184,8.07556 7.336599,16.53125 10.848795,18.5756 3.330052,1.93833 515.525915,2.00857 519.145945,0.0712 z M 112.55359,523.43814 c -6.26409,-2.72739 -9.88692,-8.17114 -9.88692,-14.85634 0,-4.66904 0.82847,-6.60368 4.49077,-10.48685 l 4.49077,-4.7616 h 225.01847 225.01847 l 4.49076,4.7616 c 3.6815,3.90352 4.49078,5.80732 4.49078,10.56437 0,7.23556 -4.68387,13.33103 -11.75238,15.29426 -3.26316,0.90631 -78.38339,1.34987 -223.58096,1.32015 -180.01452,-0.0368 -219.39372,-0.36131 -222.77976,-1.83559 z M 605.33335,396.17487 c 0,-1.35419 -10.07389,-68.05761 -11.90704,-78.84153 -0.68562,-4.03333 -2.87718,-18.43333 -4.87013,-32 -1.99293,-13.56666 -4.20683,-25.41666 -4.91977,-26.33333 -1.00975,-1.29829 -17.91048,-1.66667 -76.46631,-1.66667 h -75.17008 v 25.33334 25.33333 h 20.04282 c 22.79423,0 27.65783,1.2574 31.923,8.25309 5.03951,8.2658 2.52024,18.79041 -5.69722,23.80089 -4.16071,2.53693 -7.74006,2.60272 -141.60194,2.60272 -133.86189,0 -137.44123,-0.0657 -141.60194,-2.60272 -8.21747,-5.01048 -10.73673,-15.53509 -5.69723,-23.80089 4.26518,-6.99569 9.12878,-8.25309 31.923,-8.25309 h 20.04283 v -25.78452 -25.78452 l -43,-0.87991 c -23.65,-0.48396 -57.80958,-0.88092 -75.91015,-0.88214 -30.176668,-0.003 -32.970894,0.19156 -33.64145,2.33109 -0.630004,2.01015 -2.478508,13.96877 -10.253468,66.33333 -0.762185,5.13334 -1.901484,12.63334 -2.531776,16.66667 -7.35297,47.05278 -8.139866,53.75402 -6.43576,54.80722 0.959321,0.59289 66.213174,1.11637 145.008554,1.16329 78.79537,0.0469 143.55176,0.37276 143.90308,0.72408 1.1772,1.17719 246.86098,0.65995 246.86098,-0.51973 z M 402.66668,206.66667 V 105.33334 h -66 -66 v 101.33333 101.33334 h 66 66 z"
     style="fill:#929292;stroke-width:1.33333337" />
  <path
     inkscape:connector-curvature="0"
     id="path126"
     d="m 70.666669,605.4017 c -1.1,-0.60949 -4.318303,-2.2242 -7.151784,-3.58825 -12.171893,-5.8596 -24.155304,-25.25268 -27.493161,-44.49291 -1.02748,-5.92265 -1.350471,-30.53579 -1.023405,-77.98719 l 0.47789,-69.33334 4.942875,-30.66666 c 5.770075,-35.7988 6.25447,-38.95646 10.840492,-70.66667 4.528105,-31.30974 10.968393,-73.09047 12.177449,-79.00001 l 0.613783,-3 h 88.641262 88.64127 v -65.37616 c 0,-55.81629 0.2999,-66.093901 2.05086,-70.284533 2.6464,-6.333733 5.45238,-9.362607 11.56269,-12.481188 4.68472,-2.390985 9.01548,-2.524786 81.71979,-2.524786 72.70431,0 77.03507,0.133801 81.71979,2.524786 6.1103,3.118581 8.91629,6.147455 11.56269,12.481188 1.75084,4.190358 2.05086,14.460373 2.05086,70.205843 0,35.91361 0.46693,65.58605 1.03762,65.93876 0.57071,0.35272 40.22478,0.79129 88.12018,0.97463 l 87.08253,0.33333 1.09336,2.87575 c 1.03924,2.73341 1.84698,7.678 8.16774,49.99905 1.47858,9.9 3.20081,21.3 3.82717,25.33334 0.62636,4.03333 3.03758,19.63333 5.35824,34.66667 2.32066,15.03333 5.76567,36.63333 7.65558,48 3.32117,19.97484 3.45333,22.98762 3.94804,90 0.35024,47.44298 0.0395,72.06559 -0.98415,77.98719 -3.36925,19.49008 -15.13141,38.51919 -27.50235,44.49397 -2.82551,1.36463 -6.17915,3.01463 -7.45253,3.66667 -2.94739,1.5092 -528.959473,1.43057 -531.684781,-0.0795 z M 600.40158,571.94835 c 8.59088,-10.0365 8.93177,-13.20565 8.93177,-83.0358 v -62.24587 l -91,-0.15007 c -50.05,-0.0825 -101.5,-0.34204 -114.33334,-0.57668 -12.83333,-0.23464 -94.43333,-0.58465 -181.33334,-0.77778 l -158.000001,-0.35118 -0.3922,62.59453 c -0.443317,70.75288 -0.07768,74.33799 8.61763,84.49651 l 4.649032,5.43134 H 336.66668 595.79222 Z M 110.3501,521.91283 c -10.08909,-5.47428 -9.88086,-20.34361 0.36968,-26.39876 3.3777,-1.99525 22.5942,-2.18072 225.9469,-2.18072 203.3527,0 222.56919,0.18547 225.9469,2.18072 7.44473,4.39772 9.95448,12.94153 6.03053,20.52959 -4.40862,8.52536 12.15726,7.96164 -232.24455,7.90297 -194.11474,-0.0465 -222.86375,-0.30525 -226.04946,-2.0338 z M 605.59778,396.62448 c 0.38987,-0.38988 0.16696,-3.53988 -0.49535,-7 -0.66232,-3.46012 -2.1315,-12.59113 -3.26488,-20.29113 -10.07022,-68.41623 -16.66274,-110.02073 -17.56144,-110.82786 -0.51852,-0.46568 -34.84276,-1.06993 -76.27609,-1.34276 l -75.33334,-0.49605 -0.36212,25.66666 -0.36213,25.66667 19.69547,0.003 c 16.08986,10e-4 20.54489,0.42885 24.33554,2.33333 5.32123,2.67348 10.69324,9.94948 10.69324,14.48321 0,5.94266 -4.2537,12.39966 -10.00162,15.18218 -5.39486,2.611 -8.24528,2.66528 -139.99838,2.66528 -131.7531,0 -134.60353,-0.0543 -139.99838,-2.66588 -5.74792,-2.78252 -10.00163,-9.23952 -10.00163,-15.18218 0,-4.53373 5.37202,-11.80973 10.69324,-14.48321 3.79063,-1.90447 8.24564,-2.33164 24.33495,-2.33333 l 19.69486,-0.002 -0.36152,-26.33333 -0.36152,-26.33334 -75.69549,-0.34436 -75.695475,-0.34434 -1.13932,3.01101 c -0.626627,1.65607 -2.092552,9.91103 -3.257611,18.34436 -1.862426,13.48125 -3.459224,24.24801 -8.898489,60 -0.725195,4.76667 -3.004308,19.6143 -5.064695,32.99474 -2.060388,13.38042 -3.376643,24.92594 -2.925012,25.6567 0.899824,1.45594 57.711812,1.83434 354.120532,2.3586 100.52779,0.17782 183.09678,0.004 183.48666,-0.38557 z M 402.66668,206.66667 V 105.33334 h -66 -66 v 101.33333 101.33334 h 66 66 z"
     style="fill:#6e6e6e;stroke-width:1.33333337" />
  <path
     inkscape:connector-curvature="0"
     id="path124"
     d="m 72.000003,605.06187 c -1.833334,-0.78337 -5.341934,-2.29872 -7.796891,-3.36744 -6.983789,-3.04025 -15.724101,-12.90185 -20.752601,-23.41496 -8.092388,-16.91878 -8.783843,-24.28021 -8.783843,-93.5152 0,-33.88431 0.539823,-64.86803 1.199607,-68.85271 0.659784,-3.98468 1.880721,-11.74488 2.713194,-17.24488 0.832474,-5.5 2.092651,-13.75 2.800394,-18.33333 0.707742,-4.58334 1.886805,-12.23334 2.620139,-17 0.733333,-4.76667 1.933333,-12.56667 2.666666,-17.33334 3.11475,-20.24587 3.949956,-25.89204 5.325282,-36 2.498639,-18.36376 12.045415,-79.91838 12.666042,-81.66667 0.465226,-1.31053 19.404458,-1.66667 88.633508,-1.66667 h 88.04184 V 163.1547 c 0,-44.28942 0.46991,-65.172986 1.55258,-69.000003 1.74073,-6.153117 9.76049,-15.488028 13.306,-15.488028 1.27456,0 2.6882,-0.6 3.14142,-1.333333 0.53372,-0.863576 27.51512,-1.333333 76.58253,-1.333333 83.30286,0 81.04341,-0.209236 88.86294,8.229113 7.00803,7.56261 7.22121,9.912242 7.22121,79.592254 v 64.17864 l 9,0.18928 c 4.95,0.10413 44.67798,0.55409 88.2844,1 l 79.28441,0.81072 0.93575,4.66666 c 1.21151,6.04187 3.37021,19.78823 5.86279,37.33334 1.0939,7.7 2.88476,19.7 3.97965,26.66667 2.77671,17.66784 4.37347,27.98641 6.6025,42.66667 1.05781,6.96666 2.86769,18.66666 4.02196,26 8.92673,56.71384 8.60726,52.35032 8.65297,118.18604 0.0475,68.42376 -0.65209,75.8473 -8.7416,92.76008 -2.52883,5.28703 -7.22839,12.28107 -10.44345,15.54231 -5.3781,5.45533 -7.91079,7.00547 -18.50211,11.3242 -5.13083,2.09215 -524.037322,2.00964 -528.937287,-0.0841 z M 602.29745,570.23643 c 7.5682,-11.32433 7.5452,-11.09616 8.03545,-79.74308 l 0.45355,-63.50666 -73.72655,-0.82368 c -40.5496,-0.45302 -163.72655,-0.97502 -273.72656,-1.16 l -200.000004,-0.33633 -0.39337,60 c -0.465177,70.9529 -0.0056,75.03127 9.954511,88.33667 l 3.246328,4.33668 260.929605,-0.33668 260.92961,-0.33666 z M 110.98278,521.3375 c -2.3928,-1.45891 -5.3374,-4.72202 -6.54356,-7.25136 -1.95374,-4.09704 -1.98307,-5.15042 -0.26877,-9.65459 1.09557,-2.87849 3.85495,-6.35689 6.40741,-8.077 l 4.48317,-3.0212 h 221.60565 221.60565 l 4.48316,3.0212 c 2.46574,1.66167 5.30092,5.16977 6.3004,7.79581 1.56337,4.10766 1.53464,5.45092 -0.20576,9.61627 -1.12,2.68053 -3.99302,6.04276 -6.43654,7.53255 -4.38001,2.67041 -6.0966,2.69087 -225.74691,2.69087 -218.5941,0 -221.38719,-0.0328 -225.6839,-2.65255 z M 605.85757,397.56384 c 0.79797,-1.29116 -1.53536,-18.00089 -12.50666,-89.56383 -1.51777,-9.9 -3.60864,-24.01237 -4.64638,-31.36084 -2.02667,-14.35108 -3.0296,-18.08196 -5.27392,-19.61875 -0.78683,-0.53877 -35.18059,-0.98877 -76.43059,-1 l -75,-0.0204 v 26.57887 26.57886 l 22.563,0.42114 c 21.33658,0.39824 22.73818,0.58589 25.78589,3.4524 6.98641,6.57105 6.98467,18.03884 -0.004,24.60413 l -3.22664,3.03127 H 336.66644 196.21461 l -3.22664,-3.03127 c -6.98843,-6.56529 -6.99018,-18.03308 -0.004,-24.60413 3.0477,-2.86651 4.4493,-3.05416 25.78589,-3.4524 l 22.56348,-0.42114 v -27.06949 -27.06951 l -75.35301,-0.98962 c -57.59763,-0.75644 -75.80425,-0.61514 -77.267996,0.59966 -1.053232,0.87411 -2.276115,4.39022 -2.717518,7.81359 -0.441401,3.42337 -1.38909,10.12431 -2.105977,14.89097 -5.62849,37.42455 -10.935491,72.54298 -11.887894,78.66667 -4.145645,26.65538 -5.605577,38.83988 -4.755641,39.6903 1.786064,1.78706 537.513996,3.65057 538.612266,1.87353 z M 402.66668,207.33334 v -102 h -66 -66 v 102 102 h 66 66 z"
     style="fill:#4c4c4c;stroke-width:1.33333337" />
  <path
     inkscape:connector-curvature="0"
     id="path122"
     d="m 74.000003,605.01113 c -9.586751,-3.28798 -16.014876,-7.35994 -21.478724,-13.60594 -3.220036,-3.68098 -5.854611,-7.45301 -5.854611,-8.38226 0,-0.92927 -0.45,-1.69183 -1,-1.69458 -2.498922,-0.012 -7.674532,-17.73386 -9.733688,-33.32833 -1.854665,-14.0458 -0.92356,-124.92391 1.147665,-136.66667 4.005986,-22.71184 5.926594,-34.09119 6.976245,-41.33334 0.637721,-4.4 1.735981,-11.6 2.440578,-16 1.457914,-9.10422 6.336933,-42.64265 7.370757,-50.66667 1.67552,-13.0045 3.443574,-24.9122 5.444266,-36.66666 1.185775,-6.96667 2.959183,-18.16658 3.940909,-24.88868 0.981725,-6.72211 2.241693,-12.96103 2.799928,-13.86427 0.792684,-1.28259 20.170986,-1.52599 88.480822,-1.11132 l 87.46586,0.53093 0.66667,-68.10539 0.66666,-68.105391 3.49094,-4.575259 c 1.92002,-2.516392 5.22002,-5.38897 7.33333,-6.383507 2.11332,-0.994536 4.88425,-2.338245 6.15764,-2.986018 3.82737,-1.946995 146.67264,-1.49152 153.32638,0.488894 6.97905,2.07724 14.99075,9.828473 16.15005,15.625001 0.48126,2.406249 0.875,33.05093 0.875,68.09928 0,35.04836 0.36419,64.67336 0.80932,65.83334 0.71288,1.85773 5.53275,2.10905 40.44863,2.10905 21.80161,0 61.2346,0.3954 87.62886,0.87867 l 47.98954,0.87866 1.46884,5.45467 c 0.80786,3.00007 1.80742,8.45467 2.22123,12.12134 0.98096,8.69168 2.90697,21.77761 8.73279,59.33333 0.62568,4.03333 2.04795,13.63333 3.16061,21.33333 1.89411,13.10781 4.73662,30.98289 7.63299,48.00001 0.68648,4.03333 1.81733,11.53333 2.513,16.66666 0.69567,5.13334 1.97512,13.23334 2.84325,18 2.23024,12.24582 3.25835,121.05854 1.28498,136.00001 -2.05974,15.59531 -7.23527,33.31585 -9.73403,33.32833 -0.55,0.003 -1,0.76531 -1,1.69458 0,0.92925 -2.63457,4.70128 -5.85461,8.38226 -5.65793,6.46784 -12.28487,10.56235 -22.24006,13.74115 -6.39176,2.04096 -518.611889,1.90893 -524.572017,-0.13521 z M 597.20773,576.73165 c 2.38516,-1.23342 5.07442,-4.73846 7.41682,-9.66667 2.02118,-4.2524 4.20751,-8.77348 4.85851,-10.04687 1.54485,-3.02182 1.55109,-129.96695 0.007,-130.9216 -0.64746,-0.40015 -123.94746,-1.13488 -274.00001,-1.63274 l -272.823051,-0.9052 v 65.57215 c 0,36.06469 0.532633,66.61401 1.183631,67.88739 0.650997,1.27339 2.835145,5.79018 4.853662,10.03731 2.149434,4.52259 5.111757,8.50564 7.149703,9.61328 5.303081,2.88225 515.782925,2.94389 521.354065,0.0629 z M 113.34404,522.24311 c -6.58278,-3.12321 -8.68186,-6.44828 -8.61193,-13.64187 0.071,-7.30248 2.22451,-10.55134 9.01558,-13.60122 4.77651,-2.14514 442.9294,-2.4739 444.25233,-0.33334 0.45323,0.73334 1.68864,1.33334 2.74536,1.33334 1.05672,0 3.27131,1.35 4.92131,3 2.3111,2.3111 3,4.53086 3,9.66666 0,7.24772 -2.2168,10.58394 -9.08103,13.66667 -5.25135,2.35839 -441.26649,2.27022 -446.24162,-0.0903 z M 606.53209,398.1622 c 0.9998,-1.20468 1.11678,-2.92721 0.3396,-5 -0.6521,-1.7392 -1.59027,-7.36219 -2.0848,-12.49552 -1.04424,-10.83924 -3.13623,-26.46405 -4.82002,-36 -0.64744,-3.66667 -1.85352,-11.16667 -2.68018,-16.66667 -0.82667,-5.5 -2.06002,-13.6 -2.74078,-18 -0.68076,-4.4 -2.10602,-14 -3.16724,-21.33333 -3.80405,-26.287 -4.58457,-30.40594 -6.03725,-31.8593 -1.03275,-1.03321 -24.17181,-1.58326 -77.37396,-1.83929 l -75.90062,-0.36524 -0.74614,3.03191 c -0.41038,1.66756 -0.57542,13.83192 -0.36675,27.03192 l 0.3794,24 20.66667,0.67661 c 23.4766,0.7686 28.10725,2.04659 31.22546,8.61772 2.6443,5.57245 2.65968,9.13981 0.0629,14.61196 -4.38498,9.24071 3.65433,8.76038 -146.62174,8.76038 -150.27607,0 -142.23677,0.48033 -146.62178,-8.76038 -2.59671,-5.47215 -2.58132,-9.03951 0.0629,-14.61196 3.11822,-6.57113 7.74887,-7.84912 31.22547,-8.61772 l 20.66671,-0.67661 0.37901,-24.66667 c 0.20846,-13.56667 0.0471,-26.01667 -0.35874,-27.66667 l -0.73774,-3 h -76.47801 c -59.59968,0 -76.765118,0.36783 -77.778942,1.66667 -0.715514,0.91667 -3.193389,15.46667 -5.506388,32.33333 -2.313,16.86667 -4.81042,33.96667 -5.549824,38 -0.739404,4.03334 -2.848115,16.93334 -4.686026,28.66667 -1.837909,11.73334 -4.045968,25.68591 -4.906794,31.00571 -1.234874,7.63135 -1.214704,10.02285 0.09557,11.33333 1.308149,1.30834 53.659944,1.81539 246.594304,2.38836 134.71348,0.40007 255.51012,0.85007 268.437,1 18.59796,0.21571 23.82173,-0.11093 25.02865,-1.56521 z M 403.67512,207.41725 c 0.27045,-80.11751 -0.008,-101.47139 -1.33333,-102.31292 -1.93492,-1.22844 -127.72813,-1.51194 -130.89939,-0.29501 -1.8975,0.72814 -2.10906,10.93774 -2.10906,101.77778 0,55.53266 0.40555,101.374 0.9012,101.86967 0.49567,0.49565 30.64567,0.74565 67.00001,0.55555 l 66.0988,-0.34564 z"
     style="fill:#353535;stroke-width:1.33333337" />
</svg>
