<?xml version="1.0" encoding="UTF-8" standalone="no"?>
<!-- Created with Inkscape (http://www.inkscape.org/) -->

<svg
   xmlns:dc="http://purl.org/dc/elements/1.1/"
   xmlns:cc="http://creativecommons.org/ns#"
   xmlns:rdf="http://www.w3.org/1999/02/22-rdf-syntax-ns#"
   xmlns:svg="http://www.w3.org/2000/svg"
   xmlns="http://www.w3.org/2000/svg"
   xmlns:xlink="http://www.w3.org/1999/xlink"
   xmlns:sodipodi="http://sodipodi.sourceforge.net/DTD/sodipodi-0.dtd"
   xmlns:inkscape="http://www.inkscape.org/namespaces/inkscape"
   version="1.1"
   id="svg20"
   width="666.66669"
   height="666.66669"
   viewBox="0 0 666.66669 666.66669"
   sodipodi:docname="star.svg"
   inkscape:version="0.92.3 (2405546, 2018-03-11)">
  <metadata
     id="metadata26">
    <rdf:RDF>
      <cc:Work
         rdf:about="">
        <dc:format>image/svg+xml</dc:format>
        <dc:type
           rdf:resource="http://purl.org/dc/dcmitype/StillImage" />
        <dc:title></dc:title>
      </cc:Work>
    </rdf:RDF>
  </metadata>
  <defs
     id="defs24" />
  <sodipodi:namedview
     pagecolor="#ffffff"
     bordercolor="#666666"
     borderopacity="1"
     objecttolerance="10"
     gridtolerance="10"
     guidetolerance="10"
     inkscape:pageopacity="0"
     inkscape:pageshadow="2"
     inkscape:window-width="1366"
     inkscape:window-height="705"
     id="namedview22"
     showgrid="false"
     inkscape:zoom="0.35399999"
     inkscape:cx="333.33334"
     inkscape:cy="333.33334"
     inkscape:window-x="-8"
     inkscape:window-y="-8"
     inkscape:window-maximized="1"
     inkscape:current-layer="svg20" />
  <image
     sodipodi:absref="E:\Project-website\tanyabudi\public\assets\images\icon\star.png"
     xlink:href="star.png"
     y="0"
     x="0"
     id="image28"
     preserveAspectRatio="none"
     height="666.66669"
     width="666.66669" />
  <path
     inkscape:connector-curvature="0"
     id="path44"
     d="m 174.66667,605.57461 c 0,-0.60064 11.43834,-45.06803 25.41852,-98.81643 13.98019,-53.74839 25.12247,-98.49585 24.76063,-99.43879 -0.36184,-0.94295 -34.45017,-30.36472 -75.75185,-65.38172 -41.30168,-35.01702 -75.293967,-64.17813 -75.538411,-64.80249 -0.244446,-0.62434 0.655554,-1.12828 2,-1.11985 10.708876,0.0671 193.319021,-9.78316 194.032981,-10.46643 0.67978,-0.65054 66.01562,-179.027973 69.8639,-190.739735 0.33569,-1.021628 0.83869,-1.621628 1.1178,-1.333333 0.27911,0.288293 15.94485,43.424168 34.81279,95.857508 18.86793,52.43333 34.6963,95.77419 35.17416,96.31302 0.47786,0.53881 44.57121,3.36204 97.98524,6.27384 53.41402,2.9118 97.47579,5.65356 97.91504,6.09282 0.43926,0.43926 0.17378,1.21603 -0.58996,1.72615 -0.76373,0.51013 -35.09636,29.34051 -76.29472,64.06751 -44.20353,37.26013 -74.88423,64.03901 -74.85273,65.33333 0.0293,1.20634 11.32897,45.99334 25.11026,99.52667 13.7813,53.53334 24.61347,97.51461 24.07151,97.73617 -0.54197,0.22154 -37.67085,-24.85587 -82.50864,-55.72759 l -81.52323,-56.1304 -39.60164,27.00592 c -21.78091,14.85325 -58.71914,40.08067 -82.08497,56.06091 -23.36582,15.98025 -42.71582,29.055 -43,29.055 -0.28417,0 -0.51668,-0.49144 -0.51668,-1.09208 z m 230.12542,-92.88295 c 35.70121,24.59387 65.05039,44.54936 65.22041,44.34557 0.17001,-0.2038 -8.58363,-34.87055 -19.45254,-77.03721 -10.86892,-42.16667 -19.79126,-77.69577 -19.82746,-78.95354 -0.0408,-1.41839 22.59396,-21.36309 59.60085,-52.51745 32.81667,-27.62683 59.86667,-50.74774 60.11111,-51.37981 0.24445,-0.63206 -2.15555,-1.15884 -5.33333,-1.1706 -10.89575,-0.0403 -147.83944,-7.85934 -148.87661,-8.50034 -0.57004,-0.35231 -13.26549,-34.58955 -28.21212,-76.08278 -14.94661,-41.49321 -27.56337,-74.9817 -28.03724,-74.41886 -0.47387,0.56286 -13.05722,34.62337 -27.96302,75.69003 -14.90578,41.06667 -27.17572,74.78381 -27.26653,74.92698 -0.0908,0.14317 -31.64796,1.79909 -70.12702,3.67983 -38.47905,1.88073 -73.42324,3.8636 -77.65375,4.40636 l -7.69183,0.98684 59.94718,50.66667 c 32.97096,27.86666 59.98229,51.50388 60.02518,52.52713 0.0429,1.02325 -8.92203,36.48604 -19.92203,78.8062 -11,42.32016 -20,77.28986 -20,77.71045 0,0.42058 29.37318,-19.29771 65.27374,-43.81843 l 65.27373,-44.58314 z"
     style="fill:#d0d0d0;stroke-width:1.33333337" />
  <path
     inkscape:connector-curvature="0"
     id="path42"
     d="m 174.66667,606.15778 c 0,-0.36647 11.35154,-44.35188 25.22563,-97.74536 13.87409,-53.3935 25.42409,-98.08683 25.66667,-99.31853 0.30708,-1.55922 -21.83367,-21.14724 -72.8923,-64.48809 -40.33333,-34.23675 -74.774931,-63.3874 -76.536883,-64.77922 -1.761954,-1.39182 -2.961954,-2.73148 -2.666667,-2.97702 0.295285,-0.24555 44.58061,-2.63087 98.41183,-5.30072 53.83123,-2.66986 98.00523,-5.01056 98.16445,-5.20156 0.20638,-0.24758 62.58361,-171.309857 69.35747,-190.204781 0.36625,-1.021628 0.9524,-1.571026 1.30253,-1.220886 0.35015,0.35014 15.9784,43.186017 34.72947,95.190847 18.75106,52.00481 34.59353,95.06728 35.20548,95.69436 0.61194,0.6271 44.80961,3.51714 98.21703,6.42234 53.40743,2.90518 97.35595,5.53372 97.6634,5.84117 0.30745,0.30745 -0.88259,1.6932 -2.64455,3.07945 -1.76194,1.38626 -36.20354,30.27822 -76.53688,64.20438 -40.33333,33.92615 -73.42748,61.75035 -73.54256,61.83155 -0.11507,0.0812 11.12959,44.24764 24.98812,98.14764 13.85855,53.9 25.05269,98.78052 24.87589,99.73448 -0.18434,0.99472 -34.72593,-21.99406 -80.98812,-53.90082 -44.36667,-30.59942 -81.56783,-55.65851 -82.66924,-55.68686 -1.10141,-0.0284 -38.00142,24.5502 -82,54.61902 -87.83098,60.02406 -83.33077,56.99665 -83.33077,56.05861 z m 100.04635,-93.34699 65.15386,-44.52257 64.8278,44.65021 c 35.65531,24.55763 65.05904,44.41899 65.34166,44.13638 0.28261,-0.28262 -8.45995,-35.5285 -19.42791,-78.32419 -10.96796,-42.7957 -19.94175,-78.23006 -19.94175,-78.74302 0,-0.51296 27.30443,-23.92011 60.6765,-52.01585 33.37207,-28.09577 60.51907,-51.24063 60.32665,-51.43303 -0.1924,-0.1924 -35.14683,-2.23826 -77.67648,-4.54634 -42.52967,-2.30808 -77.67907,-4.60508 -78.10978,-5.10444 -0.4307,-0.49936 -12.96506,-34.80793 -27.85414,-76.24127 -14.88907,-41.43333 -27.27255,-75.56921 -27.51884,-75.85751 -0.2463,-0.28829 -0.73003,0.31171 -1.07498,1.33334 -4.71178,13.95509 -54.59999,150.09226 -55.23329,150.72312 -0.47794,0.47608 -35.51898,2.56467 -77.86898,4.6413 -42.35,2.07662 -77,4.1571 -77,4.62326 0,0.46616 27,23.74783 60,51.73703 33,27.9892 60,51.25642 60,51.70492 0,1.41507 -40.23563,155.71232 -40.87815,156.76122 -0.3369,0.55 -0.22634,1 0.24571,1 0.47204,0 30.17751,-20.03516 66.01212,-44.52256 z"
     style="fill:#afafaf;stroke-width:1.33333337" />
  <path
     inkscape:connector-curvature="0"
     id="path40"
     d="m 175.12379,604.50993 c 0.41191,-1.38046 11.88702,-45.40991 25.50024,-97.84325 13.61323,-52.43333 25.04699,-96.27209 25.40838,-97.41947 0.46354,-1.47177 -21.72795,-21.07658 -75.35435,-66.57086 -41.80626,-35.46662 -76.011391,-64.84402 -76.011391,-65.28314 0,-0.43912 40.650001,-2.76341 90.333341,-5.16508 49.68333,-2.40168 93.71032,-4.70475 97.83775,-5.11793 l 7.50441,-0.75126 34.31695,-94.17947 c 18.87432,-51.7987 34.72956,-94.94445 35.23388,-95.87943 0.50432,-0.934979 16.42837,41.36502 35.38677,94.00001 18.9584,52.63497 34.67866,95.95245 34.9339,96.26104 0.25524,0.3086 42.06341,2.81931 92.90707,5.57935 50.84365,2.76004 95.05175,5.20756 98.2402,5.43892 l 5.7972,0.42065 -75.17489,63.33334 c -41.34619,34.83333 -75.94699,63.93333 -76.89065,64.66666 -1.35928,1.05632 3.54182,21.83267 23.58976,100.00001 13.91803,54.26667 25.15824,99.09293 24.97826,99.61393 -0.18,0.521 -36.8811,-24.229 -81.55801,-55 -44.6769,-30.771 -81.70346,-55.94727 -82.28125,-55.94727 -0.87639,0 -59.27854,39.61613 -146.96725,99.69279 -12.22774,8.37739 -18.22586,11.81126 -17.73032,10.15046 z m 99.97263,-91.70225 c 34.98727,-23.91088 64.11898,-43.47433 64.73713,-43.47433 0.61816,0 29.55849,19.57375 64.31185,43.49721 34.75338,23.92349 63.93795,43.78767 64.85462,44.14266 0.91666,0.35499 1.66666,0.25129 1.66666,-0.23044 0,-0.48175 -9.03498,-36.09208 -20.07776,-79.13408 -19.25698,-75.05907 -19.97736,-78.34031 -17.62186,-80.26678 1.35073,-1.10472 28.80658,-24.20857 61.013,-51.34191 l 58.55712,-49.33333 -7.93525,-0.89907 c -4.36438,-0.49448 -39.43525,-2.53156 -77.93525,-4.52685 -38.5,-1.9953 -70.3,-4.08843 -70.66667,-4.65142 -0.36666,-0.56298 -12.90444,-34.97589 -27.86172,-76.47313 -24.06652,-66.76976 -29.47161,-80.28928 -29.47161,-73.71597 0,0.95346 -12.24346,35.30346 -27.20768,76.33334 l -27.20768,74.59976 -69.79233,3.56839 c -38.38577,1.96261 -73.54232,3.61261 -78.12565,3.66667 -4.58334,0.054 -8.29034,0.54828 -8.23779,1.09828 0.0525,0.55 24.96824,22 55.36819,47.66667 30.39996,25.66666 57.67034,48.76666 60.60084,51.33333 l 5.3282,4.66667 -18.74268,72 c -10.30848,39.6 -19.57717,75.19706 -20.59712,79.10456 -1.4228,5.45095 -1.47217,6.95787 -0.21211,6.47434 0.90328,-0.34662 30.26829,-20.19367 65.25555,-44.10457 z"
     style="fill:#909090;stroke-width:1.33333337" />
  <path
     inkscape:connector-curvature="0"
     id="path38"
     d="m 174.93046,605.23297 c 0.40033,-1.04479 11.93376,-45.09962 25.62984,-97.89962 13.69608,-52.8 25.18893,-96.97296 25.53968,-98.16214 0.45847,-1.55438 -20.71669,-20.27986 -75.33427,-66.61908 -41.7846,-35.45132 -75.674515,-64.75443 -75.310929,-65.11801 0.363587,-0.36359 44.126159,-2.82615 97.250159,-5.47238 53.12399,-2.64621 96.91484,-5.13706 97.31299,-5.53521 0.39815,-0.39815 16.42865,-43.79203 35.62333,-96.43084 28.09954,-77.059123 35.11318,-95.085598 35.99643,-92.517982 0.60334,1.753928 16.26714,45.188962 34.80844,96.522302 l 33.71146,93.33333 90.58788,4.91912 c 49.82334,2.70551 94.09538,5.10551 98.38232,5.33334 l 7.79444,0.41421 -73.59596,62 c -40.47777,34.1 -75.07165,63.20254 -76.87528,64.67228 l -3.27932,2.67228 25.45695,99.17383 c 14.00133,54.54562 25.2877,99.32841 25.08085,99.51733 -0.20687,0.18893 -36.87148,-24.79182 -81.47692,-55.51278 -44.60544,-30.72095 -81.69344,-55.85627 -82.41779,-55.85627 -1.09793,0 -129.33413,86.9061 -157.04679,106.43114 -4.71096,3.31912 -8.23784,5.17993 -7.83751,4.13515 z m 99.71899,-91.81899 c 35.52935,-24.27852 65.23612,-43.8982 66.01504,-43.5993 0.77892,0.2989 29.83427,20.11288 64.56743,44.03106 34.73318,23.91819 63.66502,43.48761 64.29299,43.48761 0.62797,0 1.14177,-0.60198 1.14177,-1.33774 0,-1.00192 -36.22161,-143.39592 -39.34237,-154.66226 -0.36668,-1.32378 19.90792,-19.13112 59.96375,-52.66667 33.28476,-27.86667 60.56021,-51.26667 60.61212,-52 0.0519,-0.73334 -3.9544,-1.50451 -8.90289,-1.71372 -4.9485,-0.20922 -36.29727,-1.83998 -69.66394,-3.6239 -33.36667,-1.78393 -64.34028,-3.35845 -68.83026,-3.49894 l -8.16357,-0.25546 -27.04303,-75.04293 c -26.30958,-73.00769 -28.64426,-79.14329 -29.61398,-77.82645 -0.25438,0.34543 -12.65269,34.22806 -27.55181,75.29473 -14.8991,41.06667 -27.58304,75.19611 -28.18652,75.8432 -0.84482,0.90588 -134.15628,8.58965 -152.38862,8.78333 -2.07778,0.0221 -3.57778,0.56518 -3.33333,1.20688 0.24444,0.64172 27.44444,24.06683 60.44444,52.05582 33,27.98897 59.93498,51.61395 59.85551,52.49992 -0.0795,0.88597 -9.22948,36.52942 -20.33333,79.20764 -11.10387,42.67824 -20.18884,77.96366 -20.18884,78.41203 0,1.05026 -7.10052,5.80119 66.64944,-44.59485 z"
     style="fill:#767676;stroke-width:1.33333337" />
  <path
     inkscape:connector-curvature="0"
     id="path36"
     d="m 421.48415,549.88091 -81.84919,-56.40483 -4.15081,3.062 c -8.23746,6.07667 -159.26688,108.79527 -159.96408,108.79527 -0.39308,0 -0.16122,-1.65 0.51523,-3.66666 0.67645,-2.01667 12.34451,-46.50608 25.92901,-98.86535 15.66564,-60.3807 24.2515,-95.73559 23.47528,-96.66667 -0.67309,-0.8074 -34.83508,-29.96799 -75.91552,-64.80132 l -74.691702,-63.33334 4.917151,-0.82569 c 2.704433,-0.45414 46.260261,-2.84011 96.790731,-5.30215 58.95406,-2.87248 92.39663,-4.99949 93.33333,-5.93621 0.80287,-0.80287 17.04175,-44.20147 36.08639,-96.44134 l 34.62663,-94.981569 2.22179,6.410142 c 9.79014,28.245767 66.8845,185.258807 67.60537,185.919007 0.50577,0.4632 44.57578,3.14462 97.93335,5.95873 53.35756,2.81411 96.85756,5.52903 96.66667,6.03315 -0.19091,0.50413 -33.64709,28.92676 -74.34709,63.1614 -40.70001,34.23463 -74.79254,63.00468 -75.76118,63.93345 -1.45233,1.39255 2.69211,19.0689 23.63415,100.8013 13.96741,54.51194 25.25994,99.21227 25.0945,99.33407 -0.16545,0.12187 -37.13294,-25.16072 -82.15001,-56.18339 z m -207.41097,5.5014 c 1.94915,-1.8064 5.28005,-4.05286 7.40203,-4.99214 2.12197,-0.93928 3.85813,-2.16131 3.85813,-2.71563 0,-0.55432 0.9,-1.00785 2,-1.00785 1.1,0 2,-0.50994 2,-1.13319 0,-1.33276 22.01356,-16.20015 23.98692,-16.20015 0.74052,0 1.34642,-0.50993 1.34642,-1.13318 0,-1.33276 22.01356,-16.20015 23.98692,-16.20015 0.74052,0 1.34641,-0.6 1.34641,-1.33334 0,-0.73333 0.9,-1.33333 2,-1.33333 1.1,0 2,-0.50993 2,-1.13319 0,-1.33276 22.01356,-16.20014 23.98692,-16.20014 0.74052,0 1.34641,-0.50994 1.34641,-1.13319 0,-1.33276 22.01356,-16.20015 23.98692,-16.20015 0.74053,0 1.34642,-0.6 1.34642,-1.33333 0,-0.73333 0.85,-1.33333 1.88889,-1.33333 1.03888,0 2.11774,-0.68656 2.39746,-1.5257 0.54876,-1.6463 15.71365,7.72892 15.71365,9.71447 0,0.62951 0.63292,1.14456 1.40649,1.14456 1.58902,0 15.89114,9.48811 19.02298,12.61995 1.12569,1.12569 2.39881,2.04672 2.82914,2.04672 1.57492,0 15.40806,9.74585 15.40806,10.85544 0,0.6295 0.60718,1.14456 1.34932,1.14456 1.9761,0 19.98401,12.19114 19.98401,13.52896 0,0.62573 0.9,1.1377 2,1.1377 1.1,0 2,0.6 2,1.33334 0,0.73333 0.60923,1.33333 1.35384,1.33333 1.98051,0 15.9795,9.51002 15.9795,10.85544 0,0.62951 0.60718,1.14456 1.34932,1.14456 1.9761,0 19.98401,12.19115 19.98401,13.52896 0,0.62574 0.75,1.15106 1.66667,1.16736 0.91666,0.0163 3.16666,1.20296 5,2.63702 4.00362,3.13168 6.66666,3.39622 6.66666,0.66225 0,-1.98967 -37.77941,-149.99327 -39.51762,-154.81319 -0.49899,-1.38366 -0.44492,-2.099 0.12013,-1.58967 0.56507,0.50933 2.514,-0.84067 4.33096,-3 1.81696,-2.15933 3.91388,-3.92607 4.65981,-3.92607 0.74595,0 2.53615,-1.5 3.97826,-3.33333 1.4421,-1.83333 3.2421,-3.33333 4,-3.33333 0.75789,0 2.55789,-1.5 4,-3.33334 1.4421,-1.83333 3.21718,-3.33333 3.94464,-3.33333 0.72745,0 2.83724,-1.8 4.68841,-4 1.85119,-2.2 3.97609,-4 4.72203,-4 0.74594,0 2.53614,-1.5 3.97825,-3.33333 1.44211,-1.83334 3.24211,-3.33334 4,-3.33334 0.75789,0 2.55789,-1.5 4,-3.33333 1.44211,-1.83333 3.21719,-3.33333 3.94464,-3.33333 0.72745,0 2.83724,-1.8 4.68841,-4 1.85119,-2.2 3.9761,-4 4.72203,-4 0.74595,0 2.53615,-1.5 3.97825,-3.33334 1.44211,-1.83333 3.24211,-3.33333 4,-3.33333 0.7579,0 2.5579,-1.5 4,-3.33333 1.44211,-1.83334 3.21719,-3.33334 3.94464,-3.33334 0.72746,0 2.83724,-1.8 4.68842,-4 1.85118,-2.2 3.97609,-4 4.72202,-4 0.74595,0 2.53615,-1.5 3.97826,-3.33333 1.4421,-1.83334 3.2421,-3.33334 4,-3.33334 0.75789,0 2.55789,-1.5 4,-3.33333 1.44211,-1.83333 3.21719,-3.33333 3.94464,-3.33333 0.72745,0 2.83724,-1.8 4.68841,-4 1.85119,-2.2 3.9761,-4 4.72203,-4 0.74595,0 2.53615,-1.5 3.97825,-3.33334 1.44211,-1.83333 3.47846,-3.33333 4.52523,-3.33333 1.04677,0 1.90323,-1.06975 1.90323,-2.37721 0,-2.20594 -5.57744,-2.67535 -77.40339,-6.51451 -42.57187,-2.27551 -77.65654,-4.39043 -77.96594,-4.69983 -0.98137,-0.98137 -53.964,-148.32239 -53.964,-150.07015 0,-0.9194 -0.75273,-1.67164 -1.67275,-1.67164 -0.99762,0 -12.62459,30.06136 -28.80857,74.48426 -14.92471,40.96635 -27.56562,75.17965 -28.0909,76.02959 -0.65917,1.06656 -24.82762,2.75424 -78.01212,5.44754 -42.38139,2.14623 -77.30187,4.14704 -77.60108,4.44626 -1.07461,1.0746 1.17412,4.92569 2.8762,4.92569 0.95636,0 3.25342,1.8 5.10461,4 1.85117,2.2 3.98655,4 4.74527,4 0.75872,0 2.69288,1.77644 4.29812,3.94764 1.60524,2.17121 3.36851,3.6696 3.91839,3.32976 0.54986,-0.33984 2.5157,1.18372 4.36854,3.38569 1.85283,2.20196 3.95419,4.00358 4.66968,4.00358 0.71548,0 2.81548,1.8 4.66667,4 1.85117,2.2 3.96096,4 4.68841,4 0.72746,0 2.50254,1.5 3.94464,3.33333 1.44211,1.83334 3.23231,3.33334 3.97826,3.33334 0.74593,0 2.87084,1.8 4.72202,4 1.85118,2.2 3.96096,4 4.68842,4 0.72745,0 2.50253,1.5 3.94464,3.33333 1.4421,1.83333 3.2323,3.33333 3.97825,3.33333 0.74593,0 2.87084,1.8 4.72203,4 1.85117,2.2 3.98654,4 4.74526,4 0.75872,0 2.7103,1.8 4.33683,4 1.62653,2.2 3.70095,4 4.60981,4 0.90887,0 2.83238,1.5 4.27448,3.33334 1.44211,1.83333 3.23231,3.33333 3.97826,3.33333 0.74593,0 2.87084,1.8 4.72202,4 1.85118,2.2 3.96096,4 4.68842,4 0.72745,0 2.50253,1.5 3.94464,3.33333 1.4421,1.83334 3.2323,3.33334 3.97825,3.33334 0.74593,0 2.7726,1.68324 4.5037,3.74053 1.7311,2.05731 4.1627,4.13013 5.40356,4.60629 1.81262,0.69556 2.01801,1.59834 1.0449,4.59279 -1.96214,6.03785 -40.02553,153.41055 -40.02553,154.96963 0,2.33702 2.30657,1.6305 6.07317,-1.86028 z"
     style="fill:#686868;stroke-width:1.33333337" />
  <path
     inkscape:connector-curvature="0"
     id="path34"
     d="m 421.57672,549.81723 -81.75663,-56.40315 -81.86335,55.95963 c -45.02483,30.7778 -82.12563,55.95964 -82.44621,55.95964 -0.32058,0 0.19877,-2.59721 1.15412,-5.77158 0.95534,-3.17439 12.68566,-47.89314 26.06737,-99.37501 21.96857,-84.51709 24.11996,-93.76115 22.16269,-95.2284 -1.19222,-0.89376 -35.40521,-29.82501 -76.02886,-64.29168 l -73.861178,-62.66667 7.497666,-0.88696 c 4.123716,-0.48783 47.697662,-2.82603 96.831002,-5.196 57.825,-2.78921 89.84582,-4.82775 90.78635,-5.77971 0.79915,-0.80886 16.99575,-44.23088 35.99244,-96.49335 18.99668,-52.26248 34.77286,-94.262479 35.05818,-93.333337 2.6422,8.604662 68.46974,189.845807 69.19848,190.522237 0.75546,0.70125 156.35336,9.57797 187.99578,10.72499 3.86716,0.14018 6.86716,0.66812 6.66666,1.17318 -0.2005,0.50508 -34.41454,29.5717 -76.03121,64.5925 -41.61667,35.02079 -75.66667,64.09189 -75.66667,64.60245 0,0.51056 11.36616,45.26993 25.25812,99.46525 13.89196,54.19533 25.14196,98.60271 25,98.68304 -0.14196,0.0804 -37.0486,-25.23533 -82.01475,-56.25707 z m -206.48775,5.66771 c 17.54348,-13.15125 124.4205,-84.78015 125.7428,-84.27274 0.91882,0.35259 29.58728,19.87408 63.70771,43.38111 34.12044,23.50702 62.95742,42.74004 64.08218,42.74004 1.12476,0 2.04502,-1.08325 2.04502,-2.40722 0,-1.32398 -8.73212,-36.49123 -19.40472,-78.14947 -17.32978,-67.64321 -19.19276,-75.97577 -17.42257,-77.92611 1.09017,-1.20114 28.08736,-24.08387 59.99375,-50.85054 31.90639,-26.76667 58.04655,-49.58912 58.08925,-50.71656 0.0672,-1.77551 -9.42582,-2.54137 -70.92237,-5.72184 -39.05,-2.01957 -74.00001,-4.00183 -77.66667,-4.40501 l -6.66667,-0.73306 -27.33333,-75.87752 C 354.30001,168.81338 341.3142,134.66808 340.476,134.66758 c -0.83821,-5e-4 -1.93164,1.04909 -2.42984,2.33242 -0.49821,1.28334 -12.93,35.33334 -27.62619,75.66667 -14.6962,40.33334 -26.86507,73.49563 -27.04193,73.69399 -0.17686,0.19836 -30.25927,1.83719 -66.84981,3.64183 -85.40379,4.21212 -88.77957,4.46709 -88.26843,6.66675 0.22378,0.96301 27.10687,24.3738 59.74021,52.02397 32.63333,27.65019 59.49797,50.69959 59.69921,51.22091 0.20124,0.52131 -8.64876,35.58379 -19.66667,77.91663 -11.0179,42.33283 -20.03254,77.83888 -20.03254,78.90235 0,2.78312 2.23668,2.38931 7.08896,-1.24816 z"
     style="fill:#4f4f4f;stroke-width:1.33333337" />
  <path
     inkscape:connector-curvature="0"
     id="path32"
     d="m 176.60865,601.66597 c 0.49356,-2.01627 11.95852,-46.22114 25.4777,-98.23302 13.51918,-52.01189 24.55087,-95.2119 24.51487,-96 -0.036,-0.78812 -34.1732,-30.30159 -75.86043,-65.5855 L 74.945805,277.69489 86.472904,276.89173 C 92.812809,276.45 136.7,274.18445 184.00001,271.85717 c 47.3,-2.32727 86.15948,-4.35668 86.3544,-4.5098 0.19492,-0.15311 15.96188,-43.08586 35.03767,-95.4061 19.0758,-52.32025 34.82963,-95.274069 35.00849,-95.452941 0.17888,-0.178872 15.83412,42.688081 34.78943,95.259891 18.95531,52.57181 34.54201,95.68171 34.63711,95.79976 0.0951,0.118 40.97291,2.3741 90.83957,5.01342 49.86667,2.63932 93.79206,5.13282 97.61197,5.54113 l 6.94529,0.74236 -75.94529,63.94934 c -41.76991,35.17213 -75.93489,64.68202 -75.92215,65.57756 0.0133,0.89552 11.30385,45.57823 25.09138,99.29489 13.78754,53.71667 24.86656,97.66667 24.62008,97.66667 -0.24648,0 -37.07414,-25.21774 -81.83925,-56.03942 l -81.39111,-56.03942 -82.06316,56.0387 c -70.53945,48.16948 -81.93715,55.52392 -81.16579,52.37276 z m 38.48032,-46.18103 c 17.54348,-13.15125 124.4205,-84.78015 125.7428,-84.27274 0.91882,0.35259 29.58728,19.87408 63.70771,43.38111 34.12044,23.50702 62.95742,42.74004 64.08218,42.74004 1.12476,0 2.04502,-1.08325 2.04502,-2.40722 0,-1.32398 -8.73212,-36.49123 -19.40472,-78.14947 -17.32978,-67.64321 -19.19276,-75.97577 -17.42257,-77.92611 1.09017,-1.20114 28.08736,-24.08387 59.99375,-50.85054 31.90639,-26.76667 58.04655,-49.58912 58.08925,-50.71656 0.0672,-1.77551 -9.42582,-2.54137 -70.92237,-5.72184 -39.05,-2.01957 -74.00001,-4.00183 -77.66667,-4.40501 l -6.66667,-0.73306 -27.33333,-75.87752 C 354.30001,168.81338 341.3142,134.66808 340.476,134.66758 c -0.83821,-5e-4 -1.93164,1.04909 -2.42984,2.33242 -0.49821,1.28334 -12.93,35.33334 -27.62619,75.66667 -14.6962,40.33334 -26.86507,73.49563 -27.04193,73.69399 -0.17686,0.19836 -30.25927,1.83719 -66.84981,3.64183 -85.40379,4.21212 -88.77957,4.46709 -88.26843,6.66675 0.22378,0.96301 27.10687,24.3738 59.74021,52.02397 32.63333,27.65019 59.49797,50.69959 59.69921,51.22091 0.20124,0.52131 -8.64876,35.58379 -19.66667,77.91663 -11.0179,42.33283 -20.03254,77.83888 -20.03254,78.90235 0,2.78312 2.23668,2.38931 7.08896,-1.24816 z"
     style="fill:#353535;stroke-width:1.33333337" />
</svg>
