<?xml version="1.0" encoding="UTF-8" standalone="no"?>
<!-- Created with Inkscape (http://www.inkscape.org/) -->

<svg
   xmlns:dc="http://purl.org/dc/elements/1.1/"
   xmlns:cc="http://creativecommons.org/ns#"
   xmlns:rdf="http://www.w3.org/1999/02/22-rdf-syntax-ns#"
   xmlns:svg="http://www.w3.org/2000/svg"
   xmlns="http://www.w3.org/2000/svg"
   xmlns:xlink="http://www.w3.org/1999/xlink"
   xmlns:sodipodi="http://sodipodi.sourceforge.net/DTD/sodipodi-0.dtd"
   xmlns:inkscape="http://www.inkscape.org/namespaces/inkscape"
   version="1.1"
   id="svg82"
   width="666.66669"
   height="666.66669"
   viewBox="0 0 666.66669 666.66669"
   sodipodi:docname="tabungan-haji.svg"
   inkscape:version="0.92.3 (2405546, 2018-03-11)">
  <metadata
     id="metadata88">
    <rdf:RDF>
      <cc:Work
         rdf:about="">
        <dc:format>image/svg+xml</dc:format>
        <dc:type
           rdf:resource="http://purl.org/dc/dcmitype/StillImage" />
        <dc:title></dc:title>
      </cc:Work>
    </rdf:RDF>
  </metadata>
  <defs
     id="defs86" />
  <sodipodi:namedview
     pagecolor="#ffffff"
     bordercolor="#666666"
     borderopacity="1"
     objecttolerance="10"
     gridtolerance="10"
     guidetolerance="10"
     inkscape:pageopacity="0"
     inkscape:pageshadow="2"
     inkscape:window-width="1366"
     inkscape:window-height="705"
     id="namedview84"
     showgrid="false"
     inkscape:zoom="0.35399999"
     inkscape:cx="333.33334"
     inkscape:cy="333.33334"
     inkscape:window-x="-8"
     inkscape:window-y="-8"
     inkscape:window-maximized="1"
     inkscape:current-layer="svg82" />
  <image
     sodipodi:absref="E:\Project-website\tanyabudi\public\assets\images\icon\tabungan-haji.png"
     xlink:href="tabungan-haji.png"
     y="0"
     x="0"
     id="image90"
     preserveAspectRatio="none"
     height="666.66669"
     width="666.66669" />
  <path
     inkscape:connector-curvature="0"
     id="path106"
     d="M 304.66668,622.03824 C 261.07785,606.93117 176.25861,577.62074 117.33334,557.30267 93.500003,549.08469 71.150002,541.11726 67.666669,539.59727 l -6.333334,-2.76362 V 363.10139 189.36913 l 5.000001,-2.1659 C 76.658661,182.7305 113.06579,167.50873 123.33334,163.37159 129.2,161.00773 136.7,157.84083 140,156.33407 c 3.30001,-1.50676 11.40001,-4.95868 18.00001,-7.67094 40.5675,-16.67114 50.38242,-20.76794 95.66667,-39.93177 l 18.33333,-7.75849 V 81.686438 62.400002 l 4.53333,-4.533333 4.53334,-4.533334 h 56.77896 56.77897 l 4.35436,3.88628 4.35438,3.88628 0.66666,20.309021 0.66667,20.309024 22,8.52188 c 12.1,4.68704 28.3,10.9693 36,13.96058 7.7,2.99128 21.5,8.30837 30.66667,11.81575 9.16667,3.50737 25.36667,9.78455 36,13.94927 24.36054,9.5412 41.21302,16.03121 63.84724,24.58803 9.81599,3.7109 18.66599,7.4266 19.66667,8.25709 1.51992,1.26141 1.81943,30.01149 1.81943,174.64933 v 173.13934 l -3,1.93298 c -3.3554,2.16198 -30.32286,13.042 -51.66667,20.84495 -7.7,2.81499 -20.9,7.78095 -29.33333,11.03545 -27.74735,10.708 -55.08906,21.13539 -70.66667,26.95036 -8.43334,3.14808 -24.93334,9.42618 -36.66667,13.95132 -11.73334,4.52514 -24.33334,9.32284 -28,10.66156 -3.66667,1.33871 -16.24152,6.09046 -27.94412,10.55945 -11.70262,4.46897 -22.50262,8.09132 -24,8.04965 -1.4974,-0.0417 -18.92255,-5.69039 -38.72255,-12.55269 z m 65.0804,-18.84651 c 42.01835,-15.82991 52.06109,-19.64726 74.9196,-28.47775 11.73334,-4.53271 27.63334,-10.56043 35.33334,-13.39493 7.7,-2.83451 20.9,-7.8126 29.33333,-11.06243 45.19222,-17.41508 63.12762,-24.21619 73.66667,-27.93442 l 11.66667,-4.11606 v -40.51239 -40.5124 l -7.22738,7.80643 c -10.17352,10.98861 -18.68633,15.33246 -31.5015,16.07432 -17.84878,1.03325 -34.28974,-6.0552 -54.08255,-23.31744 -5.49692,-4.79414 -10.14663,-8.49791 -10.33268,-8.23062 -0.18607,0.26728 -1.13298,3.78598 -2.10427,7.81931 -7.94355,32.98615 -24.74115,59.5872 -43.38808,68.71029 -25.65444,12.55155 -62.2883,-2.22701 -100.25956,-40.44597 l -12.54118,-12.62297 -4.82337,5.84598 c -17.18566,20.82928 -43.78283,42.19254 -60.00259,48.19503 -11.47709,4.24735 -25.40637,3.94523 -35.20198,-0.76351 -17.38496,-8.35694 -32.79738,-31.75856 -41.87774,-63.58552 -1.35995,-4.76666 -2.6395,-8.89201 -2.84342,-9.16742 -0.20393,-0.27542 -2.03165,1.47306 -4.06158,3.8855 -7.37796,8.76822 -23.93646,21.57444 -34.95638,27.03503 -10.47673,5.19143 -12.0116,5.57603 -22.02857,5.51997 -11.66961,-0.0653 -17.65821,-2.27409 -27.796125,-10.25213 -4.693989,-3.69393 -15.6872,-17.85528 -17.353243,-22.35428 -0.407346,-1.1 -0.787998,17.29648 -0.845893,40.88105 l -0.105263,42.88107 5.666667,2.69591 c 3.116667,1.48275 16.466667,6.4052 29.666667,10.93877 13.2,4.53358 32.4,11.19623 42.66667,14.80591 10.26667,3.60968 25.56667,8.86511 34,11.67872 8.43333,2.81361 26.73333,9.14023 40.66667,14.05913 13.93333,4.91891 43.58317,15.1944 65.88855,22.83444 22.30536,7.64003 40.85536,14.19114 41.22221,14.55799 0.99408,0.99408 -0.20105,1.38951 28.63631,-9.47461 z M 267.30273,484.20092 c 15.32275,-7.18784 31.76612,-22.44213 55.91069,-51.86757 4.96424,-6.05 9.49439,-11 10.06702,-11 0.57261,0 6.84168,6.82045 13.93125,15.15656 19.26106,22.64765 41.02059,40.40576 58.68427,47.89265 24.52668,10.39584 39.25568,4.10714 52.42299,-22.38254 6.10927,-12.29047 11.46761,-30.84678 17.71071,-61.33334 1.65192,-8.06667 3.43156,-15.1472 3.95477,-15.73452 0.52321,-0.58733 8.00572,7.07759 16.6278,17.03313 16.76949,19.36307 25.77893,27.17517 39.07163,33.87905 16.31741,8.22934 26.60533,6.44762 38.00297,-6.5816 7.90708,-9.03899 18.1015,-29.37314 19.68415,-39.26273 1.21588,-7.59769 1.89168,-70 0.75808,-70 -0.29569,0 -6.44569,2.03807 -13.66667,4.52903 -26.04266,8.98375 -221.3329,73.20349 -229.79571,75.56661 l -8.66667,2.42004 -68.66667,-22.77606 c -37.76667,-12.52684 -96.26667,-31.94963 -130,-43.16176 l -61.333337,-20.3857 -0.381689,36.90392 c -0.400699,38.74188 0.40215,45.80302 6.242558,54.90392 1.176522,1.83334 3.497878,6.03334 5.158569,9.33334 4.699137,9.33777 16.152389,23.85528 21.734319,27.54923 16.34407,10.816 35.25651,0.52284 67.24625,-36.59899 9.53333,-11.06276 18.08333,-20.15224 19,-20.19884 0.91666,-0.0467 1.66666,1.04848 1.66666,2.43352 0,3.24106 6.1125,35.53213 8.86179,46.81508 2.84869,11.69083 13.61927,33.99116 19.88957,41.18111 10.05871,11.53396 20.04558,13.11653 35.8847,5.68646 z M 394.9102,436.67339 c -6.78393,-3.15819 -28.24339,-22.4425 -28.24363,-25.38082 -5e-5,-0.76118 6.44048,-1.29256 15.66667,-1.29256 12.46056,0 17.58817,-0.60453 25.05548,-2.95394 9.87685,-3.10754 23.66211,-11.17086 30.92466,-18.08856 2.37234,-2.25971 4.69388,-3.72804 5.15896,-3.26296 1.39536,1.39537 -3.04962,18.69264 -7.57232,29.46705 -9.54959,22.74992 -23.0787,29.8501 -40.98982,21.51179 z m -142.30035,-1.82393 c -5.64543,-3.4427 -11.15729,-10.30162 -14.70906,-18.30381 -3.36665,-7.58512 -8.14565,-28.07856 -6.84997,-29.37422 0.46011,-0.46011 2.69511,0.72729 4.96667,2.63869 16.10044,13.54763 41.18203,20.18865 63.84803,16.90548 5.42602,-0.78596 10.19172,-1.10281 10.59042,-0.70411 1.19594,1.19595 -14.55865,16.50858 -22.81826,22.17815 -13.4901,9.25987 -26.65852,11.76358 -35.02783,6.65982 z m -138.0668,-44.61542 c -7.3758,-3.89013 -11.02805,-9.24919 -15.110291,-22.17176 -3.30721,-10.46917 -5.925888,-29.3956 -4.067201,-29.3956 0.573897,0 4.157543,2.94517 7.963652,6.54484 14.21437,13.44336 33.51329,20.49568 55.96101,20.44957 l 14.70979,-0.0303 -6.66667,6.00142 c -14.21056,12.79258 -31.38647,21.7011 -41.84031,21.7011 -2.79048,0 -7.71797,-1.3947 -10.94998,-3.09931 z m 428.3001,1.04552 c -7.67084,-3.33027 -17.16572,-11.10832 -24.82592,-20.33704 -4.0428,-4.8706 -7.35055,-9.56823 -7.35055,-10.43916 0,-1.17163 1.99424,-1.05752 7.66667,0.43864 17.05964,4.49968 42.02763,-1.14388 60.39616,-13.65143 6.34334,-4.31933 10.60384,-6.48734 10.60384,-5.39593 0,1.00347 -1.26888,5.93768 -2.81972,10.96492 -9.48328,30.74113 -26.62372,45.82079 -43.67048,38.42 z M 426.66668,353.35507 c 45.1,-14.85862 101.20001,-33.40126 124.66667,-41.2059 l 42.66667,-14.19024 v -49.97687 -49.97687 l -4.66667,-2.29957 c -2.56666,-1.26476 -10.36666,-4.39228 -17.33333,-6.95007 -6.96667,-2.55777 -20.46667,-7.70734 -30,-11.4435 -9.53333,-3.73616 -22.73334,-8.81408 -29.33334,-11.28428 -6.6,-2.4702 -22.2,-8.48323 -34.66666,-13.3623 -30.09426,-11.77793 -51.07183,-19.91077 -63.66667,-24.68303 l -10.33334,-3.91536 v 25.1081 25.10809 l 25.00001,10.41064 c 13.75,5.72587 31.3,13.03743 39,16.24794 7.7,3.2105 21.2,8.77034 30,12.3552 41.67733,16.97808 48,19.80349 48,21.44976 0,0.96548 -3.6,3.19216 -8,4.94817 -10.52141,4.19904 -34.61642,14.33087 -62.66667,26.35103 -12.46667,5.34224 -28.66667,12.13321 -36,15.09105 -7.33333,2.95783 -20.53334,8.45384 -29.33334,12.21335 -52.29302,22.34045 -66.83389,28.06273 -69.56698,27.37676 -2.56494,-0.64375 -21.21339,-8.22163 -55.76635,-22.66085 -33.1086,-13.83567 -84.29711,-35.03388 -103.33334,-42.79247 -7.7,-3.13829 -20.57799,-8.39272 -28.61776,-11.67651 -8.03976,-3.28378 -14.79935,-6.51533 -15.02132,-7.18123 -0.22196,-0.66588 21.35604,-11.31301 47.95109,-23.66028 26.59506,-12.34728 56.90466,-26.41622 67.35466,-31.26434 l 19,-8.81476 v -24.27862 -24.2786 l -8.88996,3.34617 c -4.88947,1.84039 -10.13947,4.01561 -11.66667,4.83382 -1.52718,0.81821 -8.1767,3.69137 -14.77671,6.38481 -6.6,2.69343 -26.7,11.06531 -44.66666,18.60418 -17.96667,7.53886 -39.86667,16.69504 -48.66667,20.34704 -31.20392,12.94964 -37.46706,15.58621 -49.333337,20.76772 l -12,5.23988 -0.33888,45.17844 -0.338879,45.17844 131.005546,43.50068 c 72.05306,23.92538 131.30556,43.35878 131.67222,43.18535 0.36667,-0.17343 37.56667,-12.47237 82.66667,-27.33097 z m -67.46331,-61.29871 c 8.87148,-3.63568 23.32998,-9.67858 32.12998,-13.42867 8.8,-3.75009 26.8,-11.33199 40,-16.84865 13.2,-5.51668 31.5,-13.18822 40.66667,-17.04786 9.16666,-3.85964 18.07706,-7.46271 19.80088,-8.0068 1.72382,-0.54411 2.62382,-1.449 2,-2.01089 -0.62382,-0.5619 -8.03422,-3.86864 -16.46755,-7.34832 -13.57761,-5.60228 -67.3141,-27.81491 -71.66667,-29.6243 -1.27951,-0.53189 -1.66667,3.04288 -1.66667,15.3889 v 16.08173 l 9,0.39425 9,0.39426 v 10 10 l -16,0.81921 c -20.80273,1.06512 -115.55721,1.06888 -135.33333,0.005 l -15.33334,-0.82455 v -10 -10 l 8.33334,-0.39696 8.33333,-0.39695 v -16.55567 -16.55566 l -5.66667,2.43833 c -3.11666,1.34109 -19.46666,8.89796 -36.33333,16.79304 -16.86667,7.89509 -33.30159,15.4916 -36.52206,16.88113 -3.22045,1.38954 -5.56832,2.81348 -5.21746,3.16432 0.35085,0.35086 5.68577,2.67891 11.85538,5.17346 31.56387,12.76217 58.98529,24.05257 91.88414,37.83207 27.17192,11.38078 48.7568,20.12574 49.87003,20.20446 0.66184,0.0468 8.46184,-2.88954 17.33333,-6.52522 z M 383.33335,151.3331 V 73.333107 l -45.66667,1.14e-4 -45.66667,1.15e-4 v 78.000004 78 l 45.66667,-1.2e-4 45.66667,-1.3e-4 z"
     style="fill:#d1d1d1;stroke-width:1.33333337" />
  <path
     inkscape:connector-curvature="0"
     id="path104"
     d="M 273.33334,610.6947 C 235.56667,597.59723 174.29255,576.38753 137.16862,563.56201 100.04469,550.73649 67.794688,539.27283 65.50195,538.08722 l -4.168615,-2.15568 V 363.46236 c 0,-136.35783 0.348964,-172.75521 1.666667,-173.83531 0.916667,-0.75139 6.766667,-3.453 13.000001,-6.0036 6.233333,-2.5506 19.133334,-7.92482 28.666667,-11.94271 95.84982,-40.39649 164.73837,-69.01407 166.13141,-69.01407 0.66106,0 1.20193,-8.429796 1.20193,-18.73288 0,-20.836992 1.17947,-25.073417 7.95636,-28.577885 5.83875,-3.019333 110.24854,-3.019333 116.08728,0 6.75736,3.494364 7.95636,7.761013 7.95636,28.312698 V 102.1363 l 32.33334,12.45193 c 56.58677,21.7922 61.32696,23.61988 79,30.46008 9.53334,3.68979 25.73334,9.97083 36,13.95787 10.26667,3.98704 27.66667,10.71185 38.66667,14.94403 11,4.23218 21.05,8.61772 22.33333,9.74565 2.19951,1.93316 2.33334,11.89172 2.33334,173.63749 0,161.72269 -0.13414,171.70808 -2.33334,173.69804 -3.27125,2.96004 -21.31796,10.35708 -63.66666,26.09591 -5.86667,2.18033 -20.26667,7.65723 -32.00001,12.17088 -11.73333,4.51364 -26.73333,10.23651 -33.33333,12.71747 -12.62693,4.74652 -18.93784,7.14684 -92.50195,35.1828 -25.20941,9.60753 -46.50941,17.4326 -47.33333,17.38903 -0.82394,-0.0436 -32.39806,-10.79531 -70.16473,-23.89278 z m 85.33677,-2.79299 c 7.69812,-2.9874 17.89657,-6.82717 22.66324,-8.53281 4.76666,-1.70564 22.16666,-8.2878 38.66666,-14.62703 16.50001,-6.33922 38.10001,-14.58744 48.00001,-18.32934 9.9,-3.74192 23.1,-8.76394 29.33333,-11.16004 6.23333,-2.39611 21.83333,-8.33772 34.66667,-13.2036 12.83333,-4.86588 32.18333,-12.23135 43,-16.36771 l 19.66667,-7.52064 v -41.2636 -41.2636 l -4.05554,5.18334 c -23.04414,29.45255 -56.70974,26.86971 -92.32527,-7.08324 -3.50944,-3.34562 -6.59322,-5.85431 -6.85285,-5.57485 -0.25963,0.27945 -2.09623,6.50809 -4.08132,13.84143 -4.70536,17.38252 -8.6448,26.90573 -16.03483,38.76253 -26.96397,43.26192 -69.92987,38.25961 -124.20749,-14.46091 l -13.5573,-13.16834 -18.44271,18.64645 c -32.15286,32.50809 -54.07973,42.60416 -77.20071,35.54648 -18.90716,-5.77141 -36.256,-29.59496 -45.4988,-62.47929 l -3.58104,-12.74076 -11.66126,11.24149 c -13.66483,13.17293 -22.90096,19.40579 -34.65214,23.38441 -21.94554,7.43018 -42.555193,-1.47722 -57.056995,-24.65977 l -4.125099,-6.59437 v 42.77436 42.77436 l 3.170059,2.0771 c 1.743531,1.14241 46.893535,17.19799 100.333335,35.6791 53.4398,18.48109 110.66328,38.27583 127.16328,43.98831 16.5,5.71248 30.60155,10.42589 31.33676,10.47425 0.73523,0.0484 7.63523,-2.35631 15.33334,-5.34371 z m 79.97567,-121.22436 c 10.17244,-5.1896 20.62997,-21.50952 27.34689,-42.67733 1.97795,-6.23334 5.84335,-21.83334 8.58979,-34.66667 2.74642,-12.83334 5.58294,-23.33334 6.30336,-23.33334 0.72041,0 7.64326,7.24 15.38412,16.0889 17.21469,19.67884 25.53646,27.08075 37.70137,33.53399 8.02674,4.25802 10.6137,4.97189 18.13755,5.00508 7.42659,0.0328 9.5856,-0.52214 14.04556,-3.60986 7.07047,-4.89505 13.61748,-13.76779 21.39125,-28.99016 l 6.45435,-12.63872 0.42612,-37.69461 c 0.23437,-20.73204 -0.0113,-37.69462 -0.54585,-37.69462 -0.94636,0 -196.61324,64.31699 -227.21361,74.68662 -25.68244,8.70306 -10.44915,12.14269 -147.43931,-33.29128 -66.67504,-22.11336 -124.588969,-41.37369 -128.697595,-42.80073 -4.108625,-1.42704 -7.88352,-2.59461 -8.388656,-2.59461 -0.505136,0 -0.743533,18.15 -0.529772,40.33334 l 0.388656,40.33333 5.202285,10.66667 c 9.292238,19.05262 21.839012,35.60668 30.398172,40.10695 1.98025,1.04117 6.40662,1.89305 9.83638,1.89305 14.24706,0 31.31701,-12.99721 58.44941,-44.50391 7.9877,-9.27549 14.78132,-16.60631 15.09692,-16.29071 0.3156,0.3156 2.56874,11.10596 5.00698,23.97858 6.1495,32.46603 11.7559,48.25311 22.4423,63.19527 18.7448,26.20977 47.53289,14.22762 90.6076,-37.71256 7.29797,-8.8 13.68968,-16.16341 14.20381,-16.36311 0.51414,-0.19971 5.26371,4.99216 10.55461,11.53749 22.42569,27.7427 50.82068,49.45882 72.56756,55.49875 8.12468,2.25653 15.18403,1.62417 22.27975,-1.9958 z m -40.12642,-48.51479 c -2.64768,-0.94622 -8.34768,-4.44505 -12.66667,-7.77517 -7.89618,-6.0883 -19.62314,-18.83914 -18.42673,-20.03555 0.35316,-0.35315 3.76525,-0.0744 7.58244,0.61936 12.26951,2.23005 35.35573,-2.77455 48.59795,-10.535 3.13945,-1.83984 8.73573,-6.06728 12.43617,-9.39428 3.70044,-3.32701 7.03415,-5.74303 7.40826,-5.36892 2.44176,2.44175 -8.27768,32.93827 -14.97431,42.60149 -7.09972,10.24491 -18.46326,13.99571 -29.95711,9.88807 z m -145.44779,-3.54994 c -8.81264,-4.65427 -15.55752,-16.12878 -19.74296,-33.58709 -1.45379,-6.06404 -2.64746,-11.77153 -2.65259,-12.68332 -0.005,-0.91178 4.04065,1.11987 8.99066,4.51479 11.26184,7.72384 17.62324,10.47533 30.24757,13.08296 11.52469,2.38049 22.7336,2.62675 32.78625,0.72031 3.88546,-0.73687 7.41735,-0.98286 7.84866,-0.54664 1.23494,1.249 -16.63732,17.57064 -25.5423,23.3262 -12.91389,8.34665 -22.87168,9.95959 -31.93529,5.17279 z M 113.82111,389.53071 c -5.52241,-3.48479 -10.41593,-10.14191 -12.88647,-17.5307 -2.927207,-8.7546 -6.849349,-32 -5.399278,-32 0.385571,0 3.784927,2.69771 7.554128,5.99492 15.25436,13.34414 33.01737,19.83278 54.57669,19.93627 7.88307,0.0379 14.33307,0.43349 14.33333,0.87923 0.001,1.77428 -19.6194,16.3002 -27.23118,20.16045 -10.68939,5.42104 -24.59077,6.57091 -30.94722,2.55983 z m 424.14058,-1.4017 c -6.60363,-3.78782 -22.98173,-19.89425 -26.03927,-25.60733 -1.39558,-2.60765 -1.2952,-2.8144 0.92249,-1.9002 1.36864,0.56421 8.18844,1.31595 15.15511,1.67053 19.96913,1.01639 38.39683,-4.58557 53.81792,-16.36044 3.50065,-2.67296 6.6324,-4.59236 6.95943,-4.26533 1.08353,1.08355 -5.01259,18.85587 -9.58254,27.93641 -8.16754,16.22904 -15.91432,22.40836 -28.06298,22.38486 -4.6712,-0.009 -8.32567,-1.07971 -13.17016,-3.8585 z M 429.9474,352.72303 c 47.6956,-15.73568 104.26929,-34.39499 125.71929,-41.46514 l 39,-12.85483 v -50.48794 c 0,-57.06355 1.15138,-51.32461 -11.072,-55.18729 -3.07707,-0.97238 -15.79467,-5.76549 -28.26134,-10.65136 -12.46666,-4.88586 -34.96667,-13.61586 -50,-19.39997 -15.03333,-5.78412 -37.53333,-14.49092 -50,-19.34845 C 427.96152,132.66285 405.15875,124 404.45708,124 c -0.28305,0 -0.35169,11.5162 -0.15252,25.59155 l 0.36212,25.59155 17.33333,7.18368 c 50.44771,20.90769 89.98157,37.23011 106.33334,43.90204 10.08334,4.11425 18.33334,7.85336 18.33334,8.30912 0,0.82908 -4.45692,2.84244 -30.66667,13.8533 -45.2387,19.00502 -56.95939,23.92588 -72,30.22872 -24.27733,10.17353 -74.70246,31.39556 -89.10606,37.50134 l -12.43937,5.27316 -17.56063,-7.27348 c -15.62936,-6.47357 -45.4273,-18.7879 -87.56062,-36.18542 -7.7,-3.17944 -30.2,-12.44976 -50,-20.6007 -42.67065,-17.56594 -48.66667,-20.20371 -48.66667,-21.40939 0,-0.50162 5.55,-3.47482 12.33334,-6.60713 18.20577,-8.40677 63.26997,-29.35112 93.66667,-43.53316 l 26.66666,-12.44173 0.36312,-24.79103 0.36312,-24.79102 -3.02978,0.94821 c -1.66639,0.52151 -9.02979,3.48973 -16.36312,6.59605 -25.15465,10.6552 -91.29717,38.35051 -139.00001,58.20232 l -32.333334,13.45571 v 45.75564 45.75565 l 130.333334,43.33473 c 71.68334,23.83409 130.60966,43.36821 130.9474,43.40917 0.33772,0.0409 39.63772,-12.80017 87.33333,-28.53585 z m -48.61405,-69.42566 c 69.00285,-29.11331 87.92928,-37.06907 104.66667,-43.99685 9.88149,-4.09007 10.42129,-4.51005 7.33333,-5.70542 -1.83333,-0.70969 -10.83333,-4.42327 -20,-8.25239 -9.16667,-3.82912 -23.86667,-9.9535 -32.66667,-13.60973 -8.8,-3.65623 -20.65,-8.62579 -26.33333,-11.04347 l -10.33334,-4.39576 v 16.45618 16.45617 l 8.33334,0.39695 8.33333,0.39696 0.38933,9.54721 0.38934,9.54722 -15.056,0.91053 c -19.60956,1.18592 -117.55769,1.18717 -136.11194,0.001 l -14.38927,-0.91932 0.38927,-9.54369 0.38927,-9.54328 7.66666,-0.39987 7.66667,-0.39988 v -16.60012 c 0,-9.13008 -0.41465,-16.60013 -0.92145,-16.60013 -0.5068,0 -17.7568,7.88748 -38.33334,17.52773 -20.57653,9.64024 -39.42673,18.3754 -41.88933,19.41144 -2.46259,1.03604 -4.26259,2.08793 -4,2.33753 0.2626,0.24962 12.17745,5.26203 26.47745,11.13871 34.39342,14.13422 82.38672,33.95723 108,44.608 l 20.66667,8.59382 6,-2.39376 c 3.3,-1.31658 18.3,-7.58332 33.33334,-13.92611 z m 2.66666,-131.96403 V 73.333336 h -46 -46 v 78.000004 78 h 46 46 z"
     style="fill:#b0b0b0;stroke-width:1.33333337" />
  <path
     inkscape:connector-curvature="0"
     id="path102"
     d="m 294.66668,617.90049 c -26.03334,-9.09914 -53.33334,-18.60255 -60.66667,-21.11871 -7.33334,-2.51615 -26.23334,-9.06119 -42,-14.54451 -15.76667,-5.48333 -49.36667,-17.16086 -74.66667,-25.95008 -25.300003,-8.78921 -48.252242,-17.0616 -51.004975,-18.38309 l -5.004972,-2.40272 0.338305,-172.73482 0.338304,-172.73483 12.000001,-5.14922 c 12.029937,-5.16206 37.619107,-15.90969 106.000007,-44.52073 63.83509,-26.70905 71.10028,-29.73093 81.66667,-33.96836 l 10.33333,-4.14397 V 84.32623 c 0,-13.826705 0.49821,-18.97312 2.17979,-22.516791 4.036,-8.505218 3.81465,-8.476104 64.44025,-8.476104 h 54.75246 l 4.98042,4.562284 4.98042,4.562285 0.4529,19.969183 0.45292,19.969183 12.21375,4.67816 c 6.71757,2.57298 28.71376,11.08867 48.88043,18.92375 20.16667,7.83508 60.66667,23.52077 90,34.85712 29.33334,11.33633 54.68559,21.49679 56.33835,22.5788 l 3.005,1.96728 -0.33833,172.29931 -0.33835,172.29933 -10,4.89981 c -5.5,2.69491 -15.7,6.98866 -22.66667,9.54167 -6.96666,2.55301 -22.26666,8.33993 -34,12.85981 -11.73333,4.51988 -34.53333,13.2209 -50.66667,19.3356 -16.13333,6.1147 -57.09478,21.67287 -91.02547,34.57371 -33.93066,12.90084 -62.13066,23.40604 -62.66666,23.34491 -0.53599,-0.0612 -22.27454,-7.55592 -48.30787,-16.65504 z m 80.99564,-16.08267 c 16.68573,-6.33355 39.63769,-15.07212 51.00436,-19.41905 11.36667,-4.34695 26.06667,-9.91167 32.66667,-12.36607 6.6,-2.4544 21.6,-8.15765 33.33333,-12.67391 11.73334,-4.51625 34.53334,-13.21201 50.66667,-19.32392 16.13334,-6.1119 34.28334,-13.0226 40.33334,-15.35709 l 11,-4.24452 v -41.2654 -41.2654 l -8.11175,8.67148 c -11.21259,11.98628 -19.6732,15.97188 -33.88825,15.96397 -8.43274,-0.005 -12.41998,-0.73053 -19.03839,-3.46576 -12.17232,-5.03053 -21.90471,-11.28681 -32.25946,-20.73739 -5.02268,-4.5841 -9.46228,-8.33475 -9.86576,-8.33475 -0.40349,0 -1.37702,2.55001 -2.16341,5.66667 -7.21807,28.6071 -16.43133,48.03774 -28.61251,60.34336 -10.27233,10.37731 -18.29544,14.21076 -31.42716,15.01598 -24.33139,1.49196 -50.72885,-12.25704 -81.7312,-42.56934 l -14.5335,-14.21 -4.07752,4.87667 c -9.85704,11.78893 -32.28204,32.69312 -41.58985,38.76933 -14.43096,9.42063 -23.22296,12.57358 -35.36792,12.6835 -16.12398,0.14593 -27.05183,-5.51975 -38.40107,-19.9095 -8.67499,-10.99904 -18.17019,-32.12825 -22.96675,-51.10681 l -1.45916,-5.77347 -10.91984,10.48156 c -19.05784,18.29291 -31.99444,25.48304 -47.93314,26.64108 -7.85232,0.57052 -11.08294,0.16044 -17.31559,-2.19796 -9.71911,-3.67765 -20.268021,-13.22376 -26.355646,-23.85021 -4.23067,-7.38499 -8.098031,-11.22731 -6.124797,-6.08513 0.445126,1.15997 0.809319,20.91056 0.809319,43.89018 v 41.78114 l 5,2.30763 c 7.340274,3.38769 253.921374,88.41488 256.662314,88.50342 1.28095,0.0413 15.98095,-5.10674 32.66667,-11.44029 z M 267.33334,485.04635 c 4.4,-2.17797 11.05886,-6.255 14.79744,-9.06007 9.6926,-7.27236 28.02695,-26.19638 40.14571,-41.43693 5.7146,-7.18667 10.69019,-13.07876 11.05685,-13.09354 0.36667,-0.0148 4.26667,4.51139 8.66667,10.05815 18.39602,23.19055 48.96512,48.41522 66.72646,55.06058 17.62478,6.59428 26.85232,5.0303 38.09385,-6.45654 12.30083,-12.56928 19.29492,-30.07516 27.88418,-69.79283 4.81762,-22.27724 5.96548,-26.33446 7.03916,-24.88072 3.97942,5.38807 26.6878,31.21654 30.75481,34.98047 8.03669,7.43779 20.42791,15.67666 27.77802,18.46947 19.13072,7.26911 32.03885,-0.87489 47.19385,-29.77556 l 6.52968,-12.45215 0.40743,-39.00517 0.40742,-39.00518 -3.07409,1.27656 c -1.69075,0.70211 -57.07409,19.12879 -123.0741,40.94816 -91.31745,30.18926 -121.43413,39.63372 -126,39.51312 -3.99823,-0.1056 -48.61091,-14.35978 -133.71965,-42.72469 l -127.719642,-42.5662 0.386307,41.50883 0.386308,41.50882 6.545037,12.6062 c 15.2252,29.32483 30.27511,42.51422 44.22513,38.75786 12.66102,-3.40925 27.87885,-15.53688 47.16937,-37.59092 16.32349,-18.66198 20.26897,-22.79667 21.02857,-22.03706 0.3995,0.3995 2.37287,9.8951 4.38527,21.10134 6.44267,35.87648 14.59221,56.73729 27.21683,69.6682 10.54395,10.79977 19.55867,11.94591 34.76313,4.4198 z m 127.87963,-48.99572 c -5.0668,-2.53956 -11.68734,-7.79934 -18.54629,-14.73434 l -10.66667,-10.78494 10.15568,0.90214 c 19.81954,1.7606 40.64032,-4.67672 57.30813,-17.71837 5.15172,-4.03095 9.56342,-7.11587 9.80378,-6.85539 0.78334,0.84892 -4.55982,19.67626 -8.07858,28.46595 -1.8884,4.71713 -5.90174,11.38072 -8.91853,14.80798 -9.48008,10.76994 -18.09897,12.41198 -31.05752,5.91697 z m -141.59452,-1.46761 c -5.77989,-2.9425 -10.94595,-9.35363 -15.38395,-19.09173 -2.46752,-5.41433 -7.85395,-26.31626 -7.0014,-27.16881 0.27091,-0.27091 4.39907,2.18195 9.17368,5.45077 15.69335,10.7441 31.79458,14.99623 52.61279,13.8944 7.13924,-0.37786 14.18044,-1.17718 15.64711,-1.77629 3.99626,-1.63241 -2.98059,6.4658 -12.92094,14.99765 -16.8329,14.44778 -31.36665,19.17214 -42.12729,13.69401 z M 114.90617,389.75767 c -5.08696,-2.50676 -9.88027,-8.31002 -12.96831,-15.70072 -2.539991,-6.07907 -5.937857,-23.02543 -5.937857,-29.6142 v -4.65603 l 7.530607,6.71192 c 15.16791,13.51893 36.54037,20.89989 57.50089,19.85787 l 11.03148,-0.54843 -4.36481,4.52993 c -5.8958,6.11883 -21.05775,16.08822 -29.13605,19.15772 -8.07136,3.06688 -17.74648,3.17402 -23.65595,0.26194 z m 425.20738,-0.48682 c -5.68229,-2.57798 -23.65861,-19.4381 -26.61528,-24.96268 -1.40752,-2.62997 -1.15475,-2.67004 12.45986,-1.97518 8.56916,0.43734 17.11904,0.0787 22.30253,-0.93576 10.3648,-2.02832 24.94699,-8.67026 33.53704,-15.27555 3.5554,-2.73391 6.71116,-4.72393 7.01281,-4.42229 0.30164,0.30165 -0.96217,5.17613 -2.80849,10.83217 -10.76399,32.97459 -26.47,45.54916 -45.88847,36.73929 z m -86.24441,-44.03744 c 58.00532,-19.11376 113.41421,-37.49297 123.13088,-40.84271 l 17.66667,-6.09041 v -50.32021 c 0,-38.66865 -0.38592,-50.62354 -1.66667,-51.63017 -0.91667,-0.72048 -5.26667,-2.53978 -9.66667,-4.0429 -4.4,-1.50314 -18.2,-6.7425 -30.66666,-11.64303 -12.46667,-4.90055 -25.66667,-9.9984 -29.33334,-11.32859 -3.66667,-1.33017 -24.66667,-9.43481 -46.66667,-18.01029 -22,-8.5755 -46.26318,-17.97126 -53.91819,-20.87948 -7.65501,-2.90823 -15.00501,-5.86933 -16.33333,-6.58023 -2.29367,-1.22753 -2.41449,0.0343 -2.40223,25.08771 l 0.0133,26.38024 25.65375,10.54828 c 14.10956,5.80155 38.25374,15.77429 53.65374,22.16165 15.4,6.38736 35.65,14.75602 45.00001,18.597 9.35,3.841 17,7.43263 17,7.9814 0,0.91296 -8.41335,4.67177 -42.00001,18.76421 -6.6,2.76926 -19.8,8.32201 -29.33333,12.33946 -9.53333,4.01744 -24.83333,10.43888 -34,14.26987 -9.16667,3.83099 -20.56667,8.63149 -25.33334,10.6678 -4.76666,2.03629 -19.76666,8.32852 -33.33333,13.98271 -13.56667,5.6542 -27.78901,11.67613 -31.60523,13.38209 l -6.93856,3.10175 -20.39477,-8.39211 c -11.21754,-4.61565 -34.49519,-14.24775 -51.72852,-21.40464 -17.23334,-7.15689 -36.13334,-14.95876 -42.00001,-17.33745 -5.86666,-2.37871 -21.16666,-8.6782 -34,-13.9989 -42.55377,-17.64274 -48.63665,-20.14652 -52.33333,-21.5409 -2.01667,-0.7607 -3.65464,-1.77439 -3.63994,-2.25266 0.0147,-0.47825 10.6647,-5.79855 23.66667,-11.82287 58.6891,-27.19293 72.83118,-33.71508 90.58614,-41.77709 l 18.94621,-8.60293 0.0538,-25.53482 0.0538,-25.53482 -15.66667,6.58717 c -23.5206,9.88942 -104.63304,43.82789 -141.66667,59.27512 l -32.666667,13.62571 v 46.30325 46.30324 l 129.333337,43.07779 c 89.647,29.85923 130.52059,42.89448 133.20246,42.48042 2.12801,-0.32855 51.32801,-16.2359 109.33334,-35.34966 z m -97.59541,-51.06703 c 19.32023,-8.21102 51.35055,-21.71816 76.39295,-32.21477 11.73334,-4.91808 27.03334,-11.33095 34,-14.25084 6.96667,-2.91989 16.26667,-6.80704 20.66667,-8.63812 4.4,-1.83107 8.23492,-3.55416 8.52205,-3.8291 0.60816,-0.58232 -4.59269,-2.8785 -34.52205,-15.24153 -12.1,-4.99819 -29.95,-12.39268 -39.66667,-16.43223 l -17.66667,-7.34461 v 17.22575 17.22574 h 8.66667 8.66667 v 9.12459 9.12459 l -21,0.87097 c -27.04271,1.12159 -100.82421,1.12212 -125.33334,9.1e-4 l -19,-0.86919 v -9.12593 -9.12594 h 8 8 v -17.86714 -17.86716 l -34.33334,16.00685 c -18.88333,8.80376 -38.23333,17.78619 -43,19.96093 -10.16549,4.63794 -11.37925,3.47079 14.78479,14.21693 19.58508,8.04401 70.91843,29.25238 110.54855,45.67312 12.1,5.01364 22.12318,9.13688 22.27372,9.16276 0.15054,0.0259 6.45054,-2.57808 14,-5.78658 z M 384.00001,152.00001 V 73.333336 h -46 -46 v 78.666674 78.66666 h 46 46 z"
     style="fill:#919191;stroke-width:1.33333337" />
  <path
     inkscape:connector-curvature="0"
     id="path100"
     d="m 317.33334,625.32398 c -14.3,-5.0226 -74.6,-25.90949 -134,-46.41532 -59.4,-20.50583 -111.150004,-38.66145 -115.000004,-40.34583 l -7.000001,-3.06252 V 363.31984 191.13935 l 5.666667,-2.82448 c 5.049225,-2.51673 34.857478,-15.10445 79.666668,-33.64241 8.43334,-3.48895 29.13334,-12.13307 46,-19.20916 16.86667,-7.07609 41.56172,-17.4118 54.8779,-22.96823 l 24.21124,-10.10261 0.45543,-19.101358 c 0.40269,-16.888944 0.7792,-19.537036 3.25064,-22.862895 5.33277,-7.176393 4.87548,-7.128293 64.31521,-6.76502 l 55.11042,0.336815 3.88958,4.354369 3.88959,4.354369 v 19.149039 c 0,13.769736 0.4682,19.496991 1.66667,20.387671 0.91666,0.68125 7.36666,3.42532 14.33333,6.09794 6.96667,2.67262 29.16667,11.2488 49.33334,19.05817 59.08051,22.87846 74.7732,28.94819 110,42.54663 18.33333,7.07715 34.08333,13.84867 35,15.04784 1.31324,1.71796 1.66667,38.26344 1.66667,172.33732 0,134.06147 -0.35355,170.62443 -1.66667,172.36056 -2.11381,2.79476 -12.89069,7.34059 -57.66667,24.32455 -19.8,7.51033 -49.8,18.91713 -66.66667,25.34843 -33.69566,12.84822 -49.14365,18.71296 -94,35.68649 -16.5,6.24356 -34.66561,13.21075 -40.36804,15.48263 -5.70243,2.27187 -10.50243,4.08327 -10.66667,4.02532 -0.16424,-0.058 -11.99863,-4.21475 -26.29863,-9.23735 z m 50.00001,-19.99444 c 3.66666,-1.32936 16.26666,-6.12561 28,-10.65833 11.73333,-4.53274 26.73333,-10.24238 33.33333,-12.68811 6.6,-2.44572 21.6,-8.14013 33.33334,-12.65423 11.73333,-4.5141 28.23333,-10.79438 36.66666,-13.9562 8.43334,-3.16181 33.58726,-12.71413 55.89761,-21.22737 22.31034,-8.51324 40.76034,-15.47862 41,-15.47862 1.18954,0 0.29992,-82.59322 -0.8976,-83.33333 -0.73334,-0.45323 -1.33334,-0.23699 -1.33334,0.48053 0,3.39602 -14.09172,16.39239 -21.98994,20.28067 -20.31419,10.00064 -45.81535,2.24527 -72.29981,-21.98771 l -8.28976,-7.58503 -0.87249,3.73911 c -7.56428,32.41682 -19.6896,56.90042 -33.75687,68.16227 -27.12077,21.71212 -65.87737,10.03191 -109.05847,-32.86735 l -13.86803,-13.77749 -5.48281,6.44416 c -18.81609,22.11531 -44.57563,42.68743 -60.01355,47.92813 -4.21325,1.43028 -11.049,2.40676 -17.04264,2.43455 -8.2926,0.0384 -11.3037,-0.58768 -17.57009,-3.65353 -9.2476,-4.52443 -20.376,-16.17342 -27.33359,-28.61224 -4.91257,-8.78274 -15.06397,-36.0953 -15.08037,-40.57404 -0.0168,-4.58474 -2.4095,-3.35528 -12.59151,6.46994 -11.46329,11.06162 -24.47003,20.01439 -34.75008,23.91912 -9.7185,3.69143 -24.62427,3.3263 -33.22239,-0.81382 -8.08208,-3.89164 -19.234244,-14.84679 -24.305836,-23.87646 -2.092811,-3.72612 -4.255111,-6.77537 -4.805111,-6.77612 -0.55,-7.4e-4 -1,19.42964 -1,43.17863 v 43.17999 l 3.431368,2.24832 c 2.890033,1.89363 44.274459,16.48415 157.235309,55.43499 10.26666,3.54012 31.86666,11.04249 48,16.67193 16.13333,5.62944 35.03333,12.19237 42,14.58428 l 12.66667,4.34892 8.66666,-3.28427 c 4.76667,-1.80634 11.66667,-4.37193 15.33334,-5.70129 z M 259.58933,488.66512 c 15.74292,-4.67514 38.77552,-24.22308 61.6606,-52.33177 6.1198,-7.51667 11.52919,-13.66667 12.02087,-13.66667 0.49168,0 6.38893,6.47759 13.10501,14.39464 27.22946,32.09864 59.05315,53.60536 79.32035,53.60536 8.68639,0 18.73351,-5.58416 25.01412,-13.90278 10.13326,-13.42139 16.40264,-30.54182 24.10298,-65.82038 2.99446,-13.71893 5.60938,-25.1164 5.81094,-25.32771 0.20155,-0.21132 7.41356,7.79147 16.02671,17.78395 16.54521,19.19483 26.66465,27.77835 40.40488,34.27227 7.21059,3.40787 9.57632,3.88928 16.83995,3.42676 10.23267,-0.65156 15.36623,-4.07076 24.41015,-16.25831 9.51738,-12.8256 15.21638,-25.94312 16.47357,-37.9176 1.3716,-13.06432 1.54675,-66.5667 0.22056,-67.37495 -0.55,-0.33521 -13.3,3.48205 -28.33333,8.4828 -63.79214,21.22006 -218.26833,71.89539 -221.33334,72.60755 -2.31572,0.53808 -43.02023,-12.406 -133.33334,-42.40013 C 140.5,334.49208 81.550003,315.30961 81.000003,315.61044 c -0.55,0.30082 -1,17.50465 -1,38.23075 0,31.38534 0.365861,38.78204 2.188964,44.25464 1.203929,3.61397 2.724647,7.25729 3.379372,8.09628 0.654725,0.83898 2.926659,5.03898 5.048743,9.33333 5.246559,10.61719 16.805438,25.32435 23.847468,30.34278 11.06552,7.88572 24.69289,4.70474 42.44412,-9.90752 6.00454,-4.94275 36.57862,-38.26454 42.68052,-46.51625 1.06518,-1.44045 2.00603,2.30355 5.69386,22.65779 7.62588,42.08958 20.45109,68.69463 36.66535,76.05982 6.58748,2.99229 9.02473,3.0618 17.64093,0.50306 z m 140.3477,-50.40322 c -7.12766,-2.655 -15.73392,-9.04115 -24.27035,-18.00942 -4.21667,-4.42997 -7.66667,-8.30893 -7.66667,-8.61991 0,-0.31096 4.39395,-0.28341 9.76434,0.0612 20.22904,1.29823 40.96289,-5.55886 57.47491,-19.00809 l 7.78452,-6.34059 -0.96218,5.12888 c -3.39021,18.07132 -12.23969,36.57816 -20.75271,43.39989 -5.6485,4.5263 -14.53433,5.93494 -21.37186,3.388 z m -143.08734,-2.8838 c -10.27561,-3.65883 -17.1126,-13.4043 -22.14559,-31.56643 -1.48725,-5.36694 -2.70409,-11.17054 -2.70409,-12.8969 0,-3.13041 0.0139,-3.12781 5.1841,0.96706 7.06518,5.5957 19.10663,11.40638 29.50535,14.23797 9.81624,2.67299 32.99958,3.11085 38.97722,0.73617 2.01666,-0.80114 3.66666,-0.9338 3.66666,-0.2948 0,0.639 -4.8206,5.6967 -10.71244,11.23932 -16.12156,15.16599 -30.98192,21.41934 -41.77121,17.57761 z m -141.5366,-45.79402 c -5.17142,-2.42139 -10.1091,-8.42839 -13.69549,-16.66144 -1.790094,-4.10941 -5.617597,-24.57797 -5.617597,-30.04156 0,-3.36447 0.118427,-3.32072 5.666667,2.09329 7.36486,7.1867 19.10724,14.1626 30.16624,17.92112 7.04173,2.3932 11.8753,3.01262 23.82695,3.05339 9.36795,0.032 14.83341,0.55139 14.56733,1.38447 -0.90694,2.83964 -16.69189,14.38105 -25.9446,18.96981 -11.93893,5.92095 -21.11225,6.95987 -28.9695,3.28092 z m 425.13456,-0.81613 c -6.70996,-3.12419 -19.56626,-14.70686 -25.36845,-22.85527 l -2.88478,-4.05131 15.60385,0.55634 c 22.40014,0.79864 37.78339,-3.63886 53.0728,-15.30952 3.33171,-2.54316 6.43428,-4.24728 6.8946,-3.78696 1.00316,1.00316 -4.01337,15.81162 -8.79281,25.95578 -1.88572,4.00235 -5.87604,9.94092 -8.86737,13.19683 -9.2658,10.08531 -17.68006,11.87101 -29.65784,6.29411 z M 368.69728,373.52911 c 13.18317,-4.29232 69.7194,-22.92195 125.63607,-41.39918 L 596.00002,298.535 v -49.72751 c 0,-45.67255 -0.19027,-49.89835 -2.33333,-51.82255 -1.28334,-1.15227 -10.43334,-5.10408 -20.33334,-8.7818 -9.9,-3.67773 -28.2,-10.66632 -40.66666,-15.53021 -12.46667,-4.86388 -28.66667,-11.14415 -36.00001,-13.95614 -19.21056,-7.36636 -77.42359,-29.94386 -85.70951,-33.2418 -5.41782,-2.1564 -7.19396,-2.40932 -7.69786,-1.09618 -0.36027,0.93884 -0.49099,12.7645 -0.2905,26.27925 l 0.36454,24.57225 24.66666,10.22268 c 13.56667,5.62248 43.77301,18.14651 67.12518,27.83118 23.35219,9.68468 44.20219,18.21634 46.33334,18.95926 2.13116,0.74294 3.87482,1.78732 3.87482,2.32088 0,0.53356 -9.15,4.78425 -20.33333,9.44597 -22.91027,9.55004 -37.47136,15.65697 -68.33334,28.65906 -11.73333,4.94323 -26.73333,11.24679 -33.33333,14.00792 -6.6,2.76114 -27.189,11.38831 -45.75334,19.1715 -18.56433,7.78318 -34.41748,14.15125 -35.22921,14.15125 -1.37231,0 -19.04994,-7.17631 -97.68412,-39.65528 -16.86667,-6.96659 -44.46667,-18.35737 -61.33334,-25.31284 -16.86667,-6.95547 -33.96667,-14.03497 -38,-15.73223 L 138,236.21374 l 14.66667,-6.90321 c 8.06667,-3.79678 22.46667,-10.51183 32,-14.92234 9.53334,-4.4105 30.83334,-14.31425 47.33334,-22.0083 16.5,-7.69407 32.25,-14.89226 35,-15.99599 l 5,-2.00677 v -25.87312 -25.87313 l -5,2.12759 c -12.33119,5.24712 -95.86108,40.21554 -109.66667,45.91015 -41.7071,17.20359 -74.170868,31.05953 -75.683965,32.30287 -1.308918,1.07556 -1.605871,11.4482 -1.333334,46.57359 l 0.350628,45.18984 129.333341,43.18733 c 71.13333,23.75303 130.54711,43.23768 132.0306,43.29922 1.4835,0.0616 13.4835,-3.40003 26.66667,-7.69236 z M 360.333,292.81076 c 18.53716,-7.87398 50.00249,-21.1583 96.66702,-40.81176 21.45,-9.03399 38.99424,-16.77949 38.9872,-17.21222 -0.007,-0.43272 -6.15706,-3.32881 -13.66667,-6.43576 -7.50963,-3.10695 -28.17849,-11.65695 -45.93081,-19 -17.75234,-7.34305 -32.62026,-13.35101 -33.03985,-13.35101 -0.41958,0 -0.59496,7.65 -0.38972,17 l 0.37318,17 9,0.39425 9,0.39425 v 9.06367 9.06367 l -21,0.87097 c -27.13152,1.12528 -98.17297,1.12815 -124.12135,0.005 L 256.00001,248.917 v -9.06154 -9.06155 l 8.09373,-0.39694 8.09374,-0.39696 -0.0432,-17.33334 c -0.0336,-13.46178 -0.42678,-17.23481 -1.7604,-16.89226 -0.94444,0.24258 -14.61718,6.42824 -30.38384,13.74589 -15.76667,7.31765 -34.1963,15.81917 -40.95474,18.89227 -6.75844,3.07309 -12.12843,6.1275 -11.93329,6.78757 0.19513,0.66008 8.72476,4.63679 18.95473,8.83715 10.22999,4.20035 34.19996,14.09615 53.26663,21.99065 19.06667,7.89452 39.46667,16.30916 45.33333,18.69922 5.86667,2.39005 16.36667,6.76725 23.33334,9.72709 7.24753,3.07916 13.95,5.12061 15.66632,4.77167 1.6498,-0.33543 9.1498,-3.22226 16.66667,-6.41516 z M 384.00001,151.33334 V 72.000003 h -46 -46 v 79.333337 79.33333 h 46 46 z"
     style="fill:#707070;stroke-width:1.33333337" />
  <path
     inkscape:connector-curvature="0"
     id="path98"
     d="m 340.66668,633.28061 c -1.46667,-0.66389 -24.56667,-8.76237 -51.33334,-17.99664 -26.76666,-9.23426 -54.36667,-18.81303 -61.33333,-21.28616 -6.96667,-2.47315 -45.01499,-15.67235 -84.55183,-29.33158 -39.53684,-13.65922 -74.189107,-26.01033 -77.005034,-27.4469 l -5.119867,-2.61198 0.338362,-171.637 0.338361,-171.63701 7.333334,-3.61701 c 4.033333,-1.98935 12.433334,-5.71644 18.666667,-8.28242 6.233334,-2.56597 19.433337,-8.055 29.333337,-12.19785 9.9,-4.14284 24.9,-10.39436 33.33333,-13.89224 8.43334,-3.49789 28.23334,-11.76579 44,-18.37311 15.76667,-6.60732 38.1807,-15.99642 49.80897,-20.86468 11.62826,-4.86826 22.87826,-9.74908 25,-10.84628 l 3.8577,-1.99489 V 83.385896 c 0,-9.833429 0.58504,-19.417746 1.3001,-21.298482 0.71506,-1.880736 3.26506,-4.617552 5.66666,-6.081815 4.17068,-2.542862 6.74718,-2.66252 57.43279,-2.66728 58.22752,-0.0055 58.83638,0.07148 62.91122,7.951372 1.5236,2.946321 2.02257,8.488623 2.02257,22.465741 v 18.554528 l 15.66667,6.13359 c 8.61666,3.37348 21.06667,8.2121 27.66667,10.75249 28.68864,11.04247 116.55628,45.06834 145.06023,56.17313 12.1235,4.72316 20.47453,8.75277 21.66666,10.45477 1.67263,2.38801 1.93978,25.96925 1.93978,171.22707 0,117.66418 -0.43248,169.26576 -1.43435,171.13776 -2.31132,4.31873 -6.89668,6.20545 -111.89899,46.04256 -10.63333,4.0342 -25.33333,9.62544 -32.66667,12.42496 -30.32448,11.57646 -50.28925,19.16252 -66.66667,25.33144 -13.82409,5.20716 -36.11977,13.75463 -56.66666,21.72421 -1.1,0.42667 -3.2,0.23256 -4.66667,-0.43133 z m 24.06953,-26.71655 c 11.6951,-4.45644 26.6638,-10.11421 33.2638,-12.57283 6.6,-2.45861 29.4,-11.13704 50.66667,-19.28538 21.26667,-8.14835 52.76667,-20.14602 70,-26.66147 28.77897,-10.88057 69.39082,-26.42824 75.00001,-28.7127 2.15249,-0.87665 2.33333,-4.19441 2.33333,-42.80765 0,-24.538 -0.50669,-41.85735 -1.22459,-41.85735 -0.67352,0 -2.51173,2.08264 -4.0849,4.62808 -4.35447,7.0457 -14.14227,14.9752 -22.21107,17.99412 -20.20736,7.56055 -45.25171,-1.00641 -69.66586,-23.83072 -3.95253,-3.69513 -7.62372,-6.44816 -8.1582,-6.11784 -0.53448,0.33032 -1.33441,2.8639 -1.77764,5.63015 -0.44322,2.76625 -2.68661,10.72955 -4.98529,17.69621 -11.85451,35.9276 -30.43077,56.10035 -53.58201,58.18696 -23.24431,2.09502 -54.7155,-14.71988 -84.94767,-45.38708 -6.21715,-6.3066 -11.66066,-11.46654 -12.0967,-11.46654 -0.43605,0 -5.23087,5.16981 -10.65517,11.48848 -26.46292,30.82618 -58.47456,48.95454 -78.76242,44.60358 -22.75273,-4.87958 -38.6214,-24.64956 -49.83912,-62.09206 -1.97736,-6.6 -3.84767,-12.82327 -4.15624,-13.82947 -0.35555,-1.15937 -4.33844,1.97839 -10.87376,8.56644 -24.9632,25.16463 -49.17103,33.67941 -68.65297,24.14779 -8.6874,-4.25035 -21.745518,-17.50604 -25.528906,-25.91518 -1.394708,-3.09993 -3.044708,-5.63625 -3.666666,-5.63625 -0.621959,0 -1.130835,19.75915 -1.130835,43.90921 v 43.9092 l 3.666667,2.54647 c 2.016666,1.40056 27.66667,10.81044 57,20.91086 87.04808,29.97345 190.27614,65.71708 196.00001,67.86672 2.93333,1.10164 5.66463,2.04525 6.06953,2.09693 0.40491,0.0517 10.30491,-3.55224 22,-8.00868 z M 261.87693,488.1559 c 15.24917,-5.35966 33.06989,-20.49175 55.90292,-47.46882 8.07839,-9.54454 15.13981,-17.35373 15.69208,-17.35373 0.55226,0 5.87914,5.84059 11.83752,12.97907 25.82363,30.93818 56.11387,52.18242 76.87108,53.91398 14.02459,1.16992 22.36298,-3.40084 31.60505,-17.3246 8.91401,-13.42953 14.45066,-30.09182 23.0139,-69.25932 2.04712,-9.36331 4.10768,-16.86331 4.57906,-16.66667 0.47136,0.19664 5.2613,5.45754 10.64433,11.69087 21.48412,24.87777 33.40935,35.09396 46.98674,40.25296 8.47941,3.22194 19.04026,3.49066 24.58093,0.62547 7.20816,-3.72749 17.56159,-16.81608 24.83403,-31.39467 l 6.90878,-13.84956 0.42612,-37.81711 c 0.23438,-20.7994 -0.0604,-37.81709 -0.65509,-37.81709 -0.96808,0 -156.92904,51.18675 -201.6061,66.16759 -9.80928,3.28918 -25.27288,8.34216 -34.36356,11.22881 l -16.52849,5.24848 -114.96978,-38.10067 C 164.40307,342.25552 105.87729,322.76042 97.579159,319.88845 c -8.298131,-2.87197 -15.648131,-5.22177 -16.333333,-5.22177 -0.744257,0 -1.238011,15.70137 -1.226419,39 0.02152,43.24416 -0.111934,42.38663 9.389549,60.33333 12.706164,23.99981 25.906274,36.66818 38.204594,36.66562 6.65488,-0.001 19.07088,-6.08821 29.05312,-14.24303 4.4,-3.59449 16.04439,-15.66568 25.87642,-26.82484 9.83202,-11.15915 18.03188,-20.13376 18.22189,-19.94356 0.19001,0.1902 2.17747,10.54581 4.41655,23.01248 4.26613,23.75268 7.86789,36.10304 14.70945,50.43822 7.43713,15.58312 20.86119,27.45113 31.14234,27.5325 2.03498,0.0161 6.91461,-1.10057 10.84361,-2.4815 z m 139.18392,-49.99287 c -10.07396,-3.68548 -20.7411,-12.08667 -30.68024,-24.16302 -2.17092,-2.63773 -2.06024,-2.66172 10.20119,-2.21068 14.95693,0.55018 25.34355,-1.75712 39.22035,-8.71249 5.39116,-2.70217 12.77395,-7.58497 16.40619,-10.85067 7.5611,-6.79808 7.37189,-7.84625 2.18552,12.10695 -6.50371,25.02132 -22.29547,39.33128 -37.33301,33.82991 z M 253.3694,433.66462 c -2.54684,-1.2822 -6.57743,-4.90247 -8.95688,-8.04505 -4.30039,-5.67961 -10.23982,-21.89844 -11.95951,-32.65793 l -0.89958,-5.62829 4.92703,4.32514 c 5.9267,5.20271 11.5896,8.16103 24.85288,12.98322 8.14416,2.96101 12.47446,3.67186 23.33334,3.83036 7.33333,0.10706 16.03333,-0.24688 19.33333,-0.7865 l 6,-0.9811 -10.58041,10.01248 c -17.93036,16.96792 -34.15184,22.93784 -46.0502,16.94767 z m -136.72752,-43.5227 c -9.81988,-4.27879 -16.843682,-17.78076 -19.255461,-37.01507 -0.762529,-6.08128 -1.386416,-11.22018 -1.386416,-11.41978 0,-0.19959 3.75,2.66846 8.333337,6.37348 15.7601,12.73992 33.37093,18.91706 54.20587,19.01314 l 12.5392,0.0579 -5.20587,4.46245 c -8.12299,6.96302 -23.86028,16.44268 -30.72779,18.5095 -7.6686,2.30792 -13.23577,2.31346 -18.50287,0.0184 z m 428.37686,0.53048 c -6.62861,-1.99591 -12.72217,-6.65164 -22.98631,-17.56247 -5.57732,-5.92873 -9.94348,-10.97662 -9.70257,-11.21753 0.2409,-0.24091 4.61525,0.16235 9.72076,0.89613 6.3758,0.91635 12.71392,0.88364 20.23956,-0.1044 15.87792,-2.08469 23.61929,-5.10781 38.04317,-14.85638 4.21667,-2.8499 7.66667,-4.61275 7.66667,-3.91747 0,2.21704 -6.88105,20.52564 -10.16284,27.04053 -8.11589,16.11143 -20.364,23.4717 -32.81844,19.72162 z M 422.66668,356.043 c 42.9,-14.13283 99.3,-32.72087 125.33334,-41.30675 l 47.33333,-15.61071 0.34902,-50.71982 c 0.27216,-39.55229 -0.0215,-51.02395 -1.33334,-52.10102 -0.92529,-0.75964 -10.68234,-4.70321 -21.68234,-8.76351 -11,-4.06028 -28.7,-10.77088 -39.33334,-14.91244 -23.99072,-9.34412 -41.1774,-15.99474 -75.33333,-29.15128 -14.66667,-5.64945 -32.66667,-12.64567 -40.00001,-15.54714 -7.33333,-2.90148 -13.78333,-5.27277 -14.33333,-5.26954 -0.55,0.003 -1,11.63241 -1,25.84263 0,19.11095 0.43387,26.16355 1.66667,27.09215 0.91666,0.69048 13.06666,5.9317 27,11.64717 13.93333,5.71547 44.68667,18.424 68.34075,28.24119 23.65408,9.81717 43.60408,17.84941 44.33333,17.84941 4.27022,0 -0.81832,2.86996 -17.03257,9.60647 -10.0695,4.18356 -35.70818,14.91017 -56.97484,23.83692 -21.26667,8.92675 -44.66667,18.74849 -52.00001,21.82611 -7.33333,3.0776 -27.31389,11.47016 -44.40125,18.65013 l -31.06792,13.05448 -15.59875,-6.36168 C 307.075,305.84741 269.77384,290.46598 240.66668,278.37357 218.69323,269.24481 165.27677,247.21276 148.33334,240.28993 143.75001,238.41725 140,236.45107 140,235.92063 c 0,-0.53042 2.39284,-1.92184 5.31742,-3.09202 4.64645,-1.85914 43.30077,-19.79014 108.01592,-50.1065 l 19.33334,-9.05686 0.36212,-25.49928 c 0.20577,-14.48927 -0.15599,-25.4993 -0.83783,-25.4993 -0.65997,0 -7.42292,2.64046 -15.02879,5.86769 -7.60586,3.22724 -27.02884,11.37919 -43.16217,18.11546 -16.13334,6.73627 -36.38334,15.1958 -45,18.79897 -8.61667,3.60318 -23.01667,9.62344 -32.00001,13.37839 -8.98333,3.75495 -25.33333,10.62853 -36.33333,15.27463 l -20.000001,8.44745 v 46.30919 46.30919 l 130.666671,43.58469 c 71.86667,23.97159 131.26667,43.45015 132.00001,43.28571 0.73333,-0.16445 36.43333,-11.86221 79.33333,-25.99504 z m -59.74136,-64.15362 c 10.42896,-4.46085 21.68716,-9.19164 25.01821,-10.51286 3.33107,-1.32122 21.95648,-9.1039 41.38982,-17.29482 19.43333,-8.19093 42.68668,-17.9768 51.67411,-21.74637 9.45789,-3.96692 15.84456,-7.34999 15.1627,-8.03184 -0.64792,-0.64792 -15.80126,-7.19267 -33.67409,-14.54387 -17.87283,-7.3512 -38.14528,-15.70441 -45.0499,-18.56272 -6.9046,-2.85829 -13.0546,-5.19689 -13.66666,-5.19689 -0.61206,0 -1.11283,7.8 -1.11283,17.33333 v 17.33333 h 9.33333 9.33334 v 9.12395 9.12395 l -22.21295,0.87605 c -28.46553,1.12266 -95.01046,1.12058 -122.12039,-0.004 l -21,-0.87097 v -9.12459 -9.12459 h 8.66667 8.66666 v -18 c 0,-9.9 -0.53222,-18 -1.18272,-18 -0.65049,0 -15.80049,6.82639 -33.66666,15.16976 -17.86618,8.34338 -37.28395,17.37938 -43.15062,20.08 -8.74161,4.02407 -10.25081,5.14546 -8.36241,6.21355 1.26734,0.71683 16.26734,7.05655 33.33333,14.08827 17.066,7.03172 38.22908,15.77547 47.02908,19.43056 8.8,3.65509 22.3,9.21605 30,12.35771 7.7,3.14164 20.6,8.44894 28.66667,11.794 8.06667,3.34505 15.40847,6.10837 16.31512,6.1407 0.90666,0.0324 10.18124,-3.591 20.61019,-8.05184 z M 384.00001,151.33334 V 72.000003 h -46 -46 v 79.333337 79.33333 h 46 46 z"
     style="fill:#575757;stroke-width:1.33333337" />
  <path
     inkscape:connector-curvature="0"
     id="path96"
     d="M 303.33334,619.91865 C 282.80001,612.71705 233.60001,595.65715 194.00001,582.00778 81.650971,543.28317 75.770541,541.21739 68.333336,537.86147 l -7.000001,-3.15864 V 363.51468 c 0,-135.38057 0.348619,-171.45526 1.666667,-172.46515 1.944366,-1.48976 16.370254,-7.66079 83.666668,-35.79046 13.56667,-5.67082 30.96667,-12.98763 38.66667,-16.25956 7.7,-3.27193 22.4,-9.3798 32.66667,-13.57302 10.26666,-4.19322 26.91667,-11.14251 37,-15.44286 l 18.33333,-7.81883 V 83.682858 c 0,-31.85471 -3.20324,-30.349523 64.58797,-30.349523 67.88832,0 64.74537,-1.523395 64.74537,31.382275 v 17.65101 l 8.33333,3.4544 c 8.57462,3.55441 39.29725,15.52185 57.00001,22.20332 11.9002,4.49143 27.09816,10.36156 53.33333,20.59971 10.63334,4.14961 27.73334,10.76884 38,14.7094 45.25174,17.36854 50.60155,19.50594 52.253,20.87653 1.42391,1.18173 1.747,33.22409 1.747,173.25589 v 171.806 l -3,1.90259 c -3.4606,2.19471 -10.02812,4.93847 -32.33333,13.50817 -8.8,3.38099 -20.5,7.87928 -26,9.99623 -5.5,2.11695 -22.9,8.72755 -38.66667,14.69023 -29.57161,11.18348 -43.96687,16.67146 -64.66667,24.6532 -15.85388,6.11317 -72.36111,27.57207 -89.85501,34.12288 -7.62027,2.85351 -14.82027,5.11599 -16,5.02775 -1.17975,-0.0883 -18.94499,-6.05266 -39.47833,-13.25427 z m 51.75937,-9.21623 c 9.99708,-4.13948 26.10248,-10.29747 47.57397,-18.19019 6.96667,-2.56088 25.26667,-9.49177 40.66667,-15.40198 38.63984,-14.82919 50.33204,-19.28664 83.33334,-31.76935 15.76666,-5.96372 33.16666,-12.59423 38.66666,-14.73445 5.5,-2.14024 14.5,-5.58172 20,-7.64775 l 10,-3.75643 0.35207,-42.26779 c 0.20312,-24.38624 -0.15507,-42.2678 -0.84665,-42.2678 -0.6593,0 -2.08371,1.35 -3.16535,3 -3.77868,5.76418 -13.72653,14.54896 -20.31408,17.93902 -19.029,9.79262 -45.8414,2.03912 -69.63198,-20.1359 -5.4268,-5.05828 -10.32432,-8.65828 -10.88337,-8 -0.55905,0.65828 -2.69364,7.15584 -4.74352,14.43902 -9.64124,34.25496 -23.00655,54.40184 -41.94044,63.2211 -6.31201,2.94008 -9.28005,3.476 -18.82668,3.3994 -9.37182,-0.0752 -13.12962,-0.79952 -21.71196,-4.18506 -19.73086,-7.7834 -40.24576,-22.35115 -59.42583,-42.19863 -5.39245,-5.58008 -10.14287,-10.14561 -10.55647,-10.14561 -0.4136,0 -7.28565,6.88093 -15.27123,15.29096 -16.4294,17.30265 -32.30193,29.92534 -45.03452,35.81386 -6.92232,3.20142 -11.01233,4.13011 -20.321,4.61415 -10.52072,0.54708 -12.34036,0.27039 -18.70721,-2.84463 -10.3159,-5.04709 -17.3794,-11.69302 -24.40064,-22.95814 -7.13532,-11.44818 -12.43994,-23.83578 -16.61908,-38.80978 -1.60252,-5.74186 -3.19808,-10.9146 -3.54568,-11.49497 -0.3476,-0.58036 -6.55646,4.63123 -13.79744,11.58129 -10.78822,10.35479 -15.45968,13.77543 -25.87146,18.9441 -11.65439,5.78554 -13.50741,6.30633 -22.38843,6.29218 -8.15966,-0.0133 -10.95903,-0.6629 -17.79991,-4.13246 -9.07662,-4.6035 -19.414331,-15.00923 -24.574442,-24.73614 -1.816906,-3.4249 -3.754496,-6.22709 -4.305756,-6.22709 -0.551259,0 -1.002289,19.95567 -1.002289,44.34593 0,43.82676 0.03331,44.36675 2.84464,46.12246 2.449095,1.52948 66.350777,24.49452 73.822027,26.53021 1.46667,0.39963 26.66667,9.10856 56,19.35319 50.72166,17.71448 63.86254,22.24851 99.33334,34.2732 8.43333,2.85892 18.33333,6.40979 22,7.89083 8.79528,3.55257 9.88683,3.49322 21.0927,-1.14675 z M 264.06808,487.55836 c 4.07077,-1.67477 11.28452,-5.81596 16.03053,-9.20265 9.88571,-7.05429 31.19381,-28.74409 43.9014,-44.6878 4.76667,-5.98055 8.96667,-10.87403 9.33334,-10.87439 0.36666,-3.7e-4 3.36666,3.37653 6.66666,7.50424 22.2865,27.87634 50.42515,50.88339 70.50648,57.6483 32.43737,10.92734 49.40587,-8.82571 64.66735,-75.27938 1.85256,-8.06667 3.773,-17.21667 4.26764,-20.33333 0.49466,-3.11667 1.27267,-5.62779 1.72895,-5.58027 0.45627,0.0475 5.62959,5.79099 11.49625,12.76325 16.31482,19.38943 29.89751,31.62839 41.42194,37.32407 23.71653,11.72135 39.04569,3.48319 55.58065,-29.87003 l 5.66408,-11.42521 0.40843,-38.43924 c 0.34993,-32.9337 0.13064,-38.43924 -1.53108,-38.43924 -1.06673,0 -6.95052,1.76678 -13.07509,3.9262 -11.0529,3.89704 -214.05472,70.71087 -230.25618,75.78403 -7.44515,2.33129 -9.03618,2.43568 -13.33334,0.87477 -12.08399,-4.38941 -254.976498,-84.585 -256.186952,-84.585 -0.892965,0 -1.359135,13.66377 -1.359135,39.83717 0,40.80067 0.308872,43.70459 5.619145,52.8295 0.853534,1.46666 2.978108,5.59604 4.721278,9.17638 6.351023,13.04454 21.256774,29.88235 29.089944,32.86051 16.34803,6.21551 34.19389,-5.84876 70.56964,-47.70691 5.86666,-6.75086 10.79062,-11.83682 10.94214,-11.30214 0.15151,0.53469 2.09902,11.27446 4.32779,23.86618 5.44689,30.77277 12.45737,49.59763 23.82699,63.98127 9.58357,12.12412 20.88399,15.14535 34.97115,9.34972 z m 132.5986,-51.47309 c -6.41331,-2.87763 -15.85853,-10.56846 -23.02952,-18.75192 l -5.25767,-6 16.14359,-0.0849 c 12.9612,-0.0681 17.75379,-0.65141 24.31173,-2.95852 10.02162,-3.52564 22.73549,-10.9704 27.84802,-16.30673 2.09885,-2.19073 4.22507,-3.98315 4.72493,-3.98315 1.08048,0 -1.49548,11.56174 -4.77749,21.44298 -8.12948,24.47557 -22.87858,34.30827 -39.96359,26.64228 z m -142.79858,-2.5434 c -8.60465,-4.03755 -14.45926,-13.91307 -19.03244,-32.1038 -1.55259,-6.17574 -2.63279,-11.4187 -2.40045,-11.65103 0.23233,-0.23233 2.47946,1.14191 4.99361,3.05387 7.05227,5.3631 25.30091,13.4558 33.94588,15.0539 9.11832,1.68562 22.9161,1.78178 31.01342,0.21615 7.7434,-1.4972 6.98156,-0.0508 -5.8089,11.02835 -17.80281,15.42089 -31.03302,19.88224 -42.71112,14.40256 z M 118.99048,390.93481 C 107.08477,387.23673 99.509635,372.20349 96.851137,346.99816 l -0.59788,-5.66852 6.206703,5.48352 c 14.77752,13.05569 34.0344,20.38524 53.77247,20.46685 12.53247,0.0519 12.83566,0.12467 10.66667,2.56451 -4.11871,4.63299 -16.36499,13.02429 -24.69975,16.9246 -8.65476,4.05005 -18.11475,5.748 -23.20887,4.16569 z m 421.40761,-2.91508 c -5.70748,-2.87366 -11.17958,-7.2802 -17.66667,-14.22652 -5.16894,-5.53484 -9.39807,-10.614 -9.39807,-11.28701 0,-0.6946 1.58532,-0.78032 3.66667,-0.19825 5.76929,1.61341 26.92595,1.09952 35,-0.85015 9.72505,-2.34833 21.94573,-8.18204 29.96147,-14.30251 3.5796,-2.73322 6.19065,-4.11132 5.80233,-3.0624 -0.38833,1.04892 -2.34692,6.86792 -4.35241,12.93114 -6.5563,19.82153 -17.42,32.50661 -29.41139,34.34237 -4.33612,0.66381 -6.87937,0.038 -13.60193,-3.34667 z m -185.50432,-9.18984 c 6.10843,-2.11024 49.80624,-16.58212 97.10625,-32.15973 47.3,-15.57762 98.9,-32.60106 114.66667,-37.82987 l 28.66666,-9.50695 0.34954,-50.51052 c 0.24224,-35.00361 -0.0971,-51.04859 -1.10502,-52.26317 -0.80001,-0.96395 -3.9573,-2.66835 -7.01621,-3.78756 -22.08679,-8.08122 -110.69512,-42.15439 -165.10367,-63.48845 -9.28144,-3.63933 -17.53144,-6.61697 -18.33334,-6.61697 -1.00606,0 -1.45797,8.19597 -1.45797,26.44252 v 26.44254 l 8.33333,3.40325 c 8.90464,3.63657 94.55751,39.15563 115.66668,47.96537 6.96666,2.90748 14.16666,5.88256 16,6.6113 3.03392,1.20594 1.89613,1.92185 -12.66667,7.96999 -8.8,3.65476 -19.6,8.05889 -24,9.78696 -4.4,1.72805 -20.6276,8.551 -36.06134,15.16208 -15.43372,6.61109 -31.03372,13.20574 -34.66666,14.6548 -3.63294,1.44905 -14.70534,6.05733 -24.60534,10.24062 -9.9,4.1833 -24.9,10.48668 -33.33333,14.00751 -8.43334,3.52084 -19.64811,8.26472 -24.92172,10.54196 l -9.5884,4.14045 -8.4116,-3.26386 c -4.62639,-1.79512 -18.61162,-7.54692 -31.07829,-12.78176 -12.46666,-5.23484 -28.36666,-11.80368 -35.33333,-14.59742 -11.00053,-4.41137 -53.25628,-21.90285 -96.66667,-40.01452 -7.33333,-3.0596 -17.40748,-7.11726 -22.387,-9.01702 -4.97952,-1.89975 -8.57952,-3.92209 -8,-4.49407 0.57952,-0.57199 15.15367,-7.6115 32.387,-15.64336 17.23333,-8.03186 45.13333,-21.05318 62,-28.93624 16.86667,-7.88308 31.95938,-14.39771 33.53935,-14.47698 1.57997,-0.0792 2.59456,-0.59412 2.25464,-1.14412 -0.33992,-0.55 0.0173,-1 0.79399,-1 0.94553,0 1.41202,-8.5896 1.41202,-26 0,-17.96227 -0.45174,-26 -1.46129,-26 -0.80371,0 -8.45371,2.94828 -17,6.55173 -33.02508,13.92467 -91.04799,38.17675 -108.87204,45.50571 C 135.73334,178.94559 116.83334,186.87657 104,192.3485 l -23.333331,9.94896 v 46.51794 46.51794 l 130.666671,43.56513 c 71.86667,23.96082 131.06886,43.61082 131.56043,43.66666 0.49158,0.0559 5.89158,-1.62501 12,-3.73524 z m 49.77291,-104.18803 c 16.13333,-6.76745 37.13334,-15.60346 46.66667,-19.63558 9.53333,-4.03212 23.61132,-9.892 31.28443,-13.02196 7.67309,-3.12995 14.1452,-6.27321 14.38246,-6.98499 0.23726,-0.71178 -14.44073,-7.35926 -32.61776,-14.77218 -18.17702,-7.41292 -38.74913,-15.87813 -45.7158,-18.8116 -6.96667,-2.93345 -13.41667,-5.35201 -14.33333,-5.37456 -1.24996,-0.0307 -1.66667,4.29271 -1.66667,17.29235 v 17.33333 h 8.66667 8.66666 v 9.12459 9.12459 l -21,0.87097 c -27.12036,1.12482 -95.51807,1.12764 -121.45468,0.005 L 257.33334,248.917 v -9.12516 -9.12517 h 8 8 v -18 c 0,-10.43716 -0.53042,-18 -1.26242,-18 -1.22944,0 -19.38626,8.27311 -63.89607,29.11407 -12.00384,5.6206 -21.90384,10.77936 -22,11.46391 -0.0961,0.68456 7.02516,4.18888 15.82516,7.78737 8.8,3.59851 22.3,9.10887 30,12.24527 14.66889,5.97499 53.48313,22.02028 77.33333,31.96859 7.7,3.21178 18.2,7.57369 23.33334,9.69312 l 9.33333,3.8535 16.66667,-6.92309 c 9.16667,-3.80769 29.86667,-12.46009 46,-19.22755 z m -20,-123.30852 V 72.666669 h -46.66667 -46.66667 l -0.34606,77.333341 c -0.19034,42.53333 -0.0561,78.09112 0.29813,79.01732 0.50541,1.32118 10.63381,1.60844 47.01274,1.33333 l 46.36853,-0.35065 z"
     style="fill:#464646;stroke-width:1.33333337" />
  <path
     inkscape:connector-curvature="0"
     id="path94"
     d="m 328.00001,628.02864 c -8.43333,-2.83148 -23.13333,-7.93023 -32.66667,-11.33054 -18.99633,-6.77553 -55.336,-19.31989 -79.33333,-27.38568 -8.43334,-2.83453 -21.03334,-7.20291 -28,-9.70748 -6.96667,-2.50457 -29.76667,-10.38995 -50.66667,-17.52307 -42.707555,-14.57596 -64.480053,-22.4156 -71.344883,-25.68921 l -4.655122,-2.21987 V 363.95972 c 0,-160.41462 0.13432,-170.33461 2.333334,-172.32409 2.237201,-2.02402 12.715943,-6.80636 35.666668,-16.27769 21.933413,-9.05152 49.801533,-20.67763 64.000003,-26.69975 35.45344,-15.03715 40.52592,-17.15845 49.69917,-20.7842 9.48216,-3.74784 37.45134,-15.54748 52.54027,-22.16569 l 7.57276,-3.32152 0.42724,-19.72428 c 0.66438,-30.672941 -2.28749,-29.329165 64.42723,-29.329165 66.76231,0 63.74803,-1.381941 64.45724,29.551431 l 0.45724,19.943224 4.20943,1.85958 c 5.62375,2.48438 39.39022,15.64679 54.6517,21.30363 13.79182,5.1121 35.24185,13.38268 58.89106,22.70693 22.91413,9.03441 55.31001,21.46637 69.71682,26.7539 6.81092,2.49972 14.76092,5.75783 17.66667,7.24023 l 5.28318,2.69528 -0.0204,170.9729 c -0.0107,94.03511 -0.4675,171.67577 -1.01393,172.53481 -1.13936,1.79114 -14.29395,8.05914 -26.97407,12.8528 -4.76204,1.80025 -15.25825,5.78833 -23.32492,8.86237 -8.06666,3.07405 -23.36666,8.81828 -34,12.76495 -10.63333,3.94666 -27.13333,10.24605 -36.66667,13.99862 -9.53333,3.75258 -23.03333,8.89186 -30,11.42063 -6.96666,2.52877 -13.86666,5.16904 -15.33333,5.86727 -1.46667,0.69822 -12.26667,4.83818 -24,9.19993 -34.0078,12.64204 -46.4783,17.39462 -49.33334,18.80119 -2.63946,1.30037 -28.55121,10.74293 -29.06614,10.59207 -0.14698,-0.0431 -7.1672,-2.39495 -15.60054,-5.22644 z m 25.60602,-16.56953 c 4.61669,-1.76416 14.99398,-5.73124 23.06065,-8.81572 8.06667,-3.08449 23.96667,-9.09646 35.33333,-13.35993 11.36667,-4.26347 27.86667,-10.54847 36.66667,-13.96667 8.8,-3.41818 22.9,-8.77677 31.33334,-11.90794 23.64512,-8.7791 56.51928,-21.29263 72,-27.40676 7.7,-3.04112 20,-7.68884 27.33333,-10.32827 7.33334,-2.63943 14.08334,-5.36927 15,-6.06631 2.02798,-1.54208 2.46215,-86.27416 0.44208,-86.27416 -0.67352,0 -2.47749,2.02724 -4.00882,4.50499 -4.00699,6.48344 -13.0576,14.42197 -20.76659,18.2149 -9.78412,4.81395 -24.61021,4.57335 -37.03325,-0.60098 -11.8187,-4.9226 -22.21237,-11.80247 -33.29751,-22.04054 -5.86112,-5.41325 -9.20638,-7.68859 -9.59686,-6.52747 -0.32968,0.98034 -2.43114,8.38243 -4.6699,16.4491 -12.87798,46.40168 -37.8161,70.15259 -67.92629,64.69257 -20.64966,-3.74449 -45.60886,-19.0187 -69.25586,-42.38229 l -15.23407,-15.05148 -4.79131,5.70393 c -17.91913,21.3323 -37.98936,38.29767 -54.45329,46.0294 -8.44927,3.96792 -12.32799,4.98739 -20.60728,5.41631 -8.93418,0.46285 -11.21698,0.0715 -18.40817,-3.15569 -18.37708,-8.24715 -34.81232,-34.03096 -42.65606,-66.91942 -0.91822,-3.85 -2.17566,-7 -2.79434,-7 -0.61866,0 -4.25654,3.3113 -8.08416,7.35843 -10.40681,11.00368 -25.11938,21.69399 -35.88708,26.07593 -16.87233,6.86626 -32.91715,4.51511 -45.684007,-6.69434 -5.019714,-4.40736 -16.953913,-21.24466 -16.953913,-23.91932 0,-0.81806 -0.6,-1.48736 -1.333334,-1.48736 -0.862719,0 -1.333333,15.98436 -1.333333,45.28642 v 45.28642 l 3,1.65508 c 4.572925,2.52284 17.966327,7.22351 184.333337,64.69531 30.8,10.63992 59.9,20.74022 64.66667,22.44512 11.0068,3.93682 11.5353,3.93905 21.60602,0.0908 z M 264.38125,487.43107 c 4.24303,-1.74477 11.10404,-5.48052 15.24671,-8.30168 10.09578,-6.87521 29.28064,-26.05591 42.775,-42.76571 l 11.01231,-13.63633 7.51642,8.96967 c 18.58291,22.17576 31.6991,34.4926 48.65162,45.6866 28.11196,18.56272 48.92611,17.85896 63.19473,-2.13672 10.1965,-14.28911 16.89023,-34.01042 24.97432,-73.58022 1.53566,-7.51667 3.17922,-13.66667 3.65235,-13.66667 0.47313,0 6.38095,6.45 13.12845,14.33334 16.37603,19.13261 27.71178,28.85752 40.99666,35.17087 18.38037,8.73486 28.14227,6.6431 40.79149,-8.74074 3.85663,-4.69039 9.71204,-13.77616 13.01204,-20.19063 l 6,-11.66266 0.4074,-39.12176 c 0.36554,-35.10218 0.18875,-39.12175 -1.72062,-39.12175 -2.00955,0 -52.3116,16.45341 -179.62026,58.7524 -61.32007,20.37393 -70.54467,23.07523 -74.82572,21.91168 -6.12444,-1.66456 -225.68262,-74.30915 -227.69258,-75.336 -2.47229,-1.26304 -29.13218,-9.32808 -30.83504,-9.32808 -0.634815,0 -0.979981,18.81911 -0.767035,41.82024 l 0.387174,41.82025 7.148067,13.84344 c 17.424054,33.74465 33.246594,44.32987 52.848814,35.35567 11.75499,-5.3816 22.78955,-15.05696 41.31348,-36.2246 9.37014,-10.70741 17.46999,-18.97611 17.99967,-18.37485 0.98659,1.11989 3.62305,13.35737 7.36292,34.17584 5.16855,28.77137 19.32203,54.71809 33.32706,61.09647 7.20402,3.28096 14.47432,3.05162 23.71457,-0.74807 z m 135.4618,-50.60516 c -7.71018,-2.75524 -13.22936,-6.72733 -22.81562,-16.4202 l -8.97259,-9.07236 13.26465,0.421 c 20.50411,0.65076 34.87811,-3.9116 51.97371,-16.49667 4.42208,-3.25535 8.04015,-5.23475 8.04015,-4.39867 0,3.676 -5.88804,21.16915 -9.5842,28.47434 -8.60203,17.00121 -18.34038,22.34028 -31.9061,17.49256 z m -144.63261,-2.72524 c -9.32556,-4.06003 -16.64954,-16.66604 -21.05081,-36.23264 l -1.82918,-8.13198 6.83479,4.61932 c 16.89872,11.42112 32.0245,15.5666 53.29425,14.6062 l 14.45947,-0.65289 -5.7928,5.99984 c -12.65196,13.10412 -28.06392,21.79634 -38.36815,21.63931 -1.88357,-0.0287 -5.27997,-0.85993 -7.54757,-1.84716 z M 119.00854,390.50729 C 108.53251,387.48964 99.571975,371.29635 97.576478,351.77568 l -1.045181,-10.22435 7.071583,6.46303 c 7.16548,6.54885 18.17355,12.5068 31.2224,16.89865 5.05232,1.70046 11.18181,2.41562 20.72053,2.41756 15.5535,0.003 15.52205,-0.17905 1.73337,10.04294 -14.19247,10.5213 -29.31881,15.71238 -38.27064,13.13378 z m 428.99148,0.62036 c -7.59367,-2.51285 -15.21701,-7.60945 -22.88668,-15.30088 -4.88767,-4.90154 -9.51327,-10.08272 -10.27912,-11.51372 -1.31427,-2.45574 -1.07735,-2.54082 4.22001,-1.51549 19.29691,3.73501 46.40114,-2.58897 61.9435,-14.45272 3.11793,-2.37997 5.66896,-3.778 5.66896,-3.10675 0,4.52216 -8.69426,25.32779 -13.36864,31.99159 -7.32436,10.44159 -18.00743,16.31055 -25.29803,13.89797 z m -159.07039,-23.2934 c 24.7887,-8.15782 65.47039,-21.59306 90.40372,-29.85608 24.93333,-8.26303 61.38334,-20.27315 81,-26.68916 l 35.66667,-11.66551 v -50.93842 c 0,-46.83957 -0.18776,-51.10411 -2.33333,-52.99735 -1.28334,-1.1324 -7.43334,-3.87251 -13.66667,-6.08912 -6.23333,-2.21662 -20.93333,-7.74563 -32.66667,-12.28671 -11.73333,-4.54108 -27.63333,-10.59023 -35.33333,-13.44255 -7.7,-2.85232 -15.2,-5.76422 -16.66667,-6.4709 -8.63601,-4.1611 -89.1121,-34.73178 -91.42998,-34.73178 -0.71858,0 -1.23669,11.11123 -1.23669,26.5219 v 26.52189 l 5,2.0686 c 2.75,1.13772 12.2,5.1366 21,8.8864 8.8,3.74979 23.5,9.83872 32.66667,13.53096 9.16667,3.69224 19.09235,7.81688 22.05707,9.16585 2.96472,1.34898 9.26472,3.95546 14,5.7922 7.4337,2.8834 23.46262,9.5842 41.75372,17.4549 2.82925,1.21744 4.9092,2.44842 4.62211,2.73553 -0.28711,0.28709 -5.99203,2.60944 -12.6776,5.16075 -6.68559,2.55132 -13.26554,5.27732 -14.62213,6.0578 -1.35657,0.78047 -9.3665,4.18796 -17.79984,7.5722 -8.43333,3.38424 -18.03333,7.37304 -21.33333,8.86401 -7.78043,3.51526 -21.78184,9.4002 -36,15.13116 -6.23333,2.5125 -13.13334,5.44816 -15.33334,6.52372 -2.2,1.07555 -10.6,4.62439 -18.66666,7.88631 -8.06667,3.26191 -21.86667,9.02432 -30.66667,12.80536 -8.8,3.78103 -20.11989,8.61971 -25.15531,10.75263 l -9.1553,3.87801 -16.17803,-6.78744 c -8.89792,-3.73309 -21.87803,-9.19864 -28.8447,-12.14565 -6.96666,-2.94702 -18.36666,-7.62716 -25.33333,-10.40032 -13.44808,-5.35318 -36.0526,-14.68578 -58,-23.94615 -12.99596,-5.48344 -30.43227,-12.60869 -59.76592,-24.42301 l -14.43261,-5.81282 27.76594,-13.09477 c 15.27125,-7.20214 34.66592,-16.23499 43.09925,-20.07303 8.43334,-3.83804 24.17567,-11.20636 34.98297,-16.37403 23.73782,-11.35061 25.01704,-11.80728 25.01704,-8.93078 0,1.19269 0.6,1.79772 1.33333,1.34449 0.82021,-0.50692 1.33333,-11.5694 1.33333,-28.74536 0,-23.54877 -0.30386,-27.92131 -1.94038,-27.92131 -1.0672,0 -8.1172,2.63762 -15.66667,5.86137 -7.54945,3.22375 -20.32628,8.57184 -28.39295,11.88466 -8.06667,3.31281 -21.26667,8.84385 -29.33333,12.2912 -15.6717,6.69741 -28.00306,11.84727 -56.66667,23.66527 -9.9,4.08177 -25.2,10.51298 -34,14.2916 -8.800003,3.7786 -18.550004,7.85514 -21.66667,9.05897 l -5.666667,2.1888 v 46.76348 46.76348 l 34.333337,11.5407 c 18.88333,6.3474 38.83333,12.8576 44.33333,14.46713 5.5,1.60953 10.6,3.37883 11.33334,3.93176 0.73333,0.55293 8.23333,3.13953 16.66666,5.748 15.645,4.83907 68.3047,22.3132 123.33334,40.92587 16.86667,5.70492 31.38499,10.42773 32.26295,10.49515 0.87795,0.0675 21.87795,-6.55202 46.66667,-14.70986 z m -29.59628,-73.77256 c 8.06666,-3.38011 16.60405,-7.04892 18.97197,-8.15292 2.36792,-1.104 6.56792,-2.81505 9.33333,-3.80235 2.76542,-0.9873 19.90167,-8.16513 38.08055,-15.95074 18.1789,-7.78562 33.42079,-14.15567 33.87088,-14.15567 0.4501,0 4.47646,-1.71835 8.94748,-3.81853 4.47102,-2.1002 12.78578,-5.5502 18.47723,-7.66667 6.32489,-2.35203 10.21277,-4.51792 10,-5.5709 -0.34403,-1.70256 -3.80393,-3.2535 -40.34811,-18.08661 -10.26666,-4.16719 -19.86666,-8.15524 -21.33333,-8.86236 -1.46667,-0.70711 -8.66667,-3.72236 -16,-6.70056 -7.33334,-2.97819 -14.10072,-5.75864 -15.03866,-6.17879 -1.34916,-0.60434 -1.62762,3.09792 -1.33333,17.72694 l 0.37199,18.49081 h 8.33576 8.33577 l -0.003,9 -0.003,9 h -81.33334 -81.33333 l -0.003,-9 -0.003,-9 h 7.6691 7.6691 l 0.36995,-19 c 0.20347,-10.45 0.0224,-19 -0.40252,-19 -0.42484,0 -2.99132,1.20376 -5.70327,2.67501 -4.56997,2.47924 -56.46145,26.53812 -73.93083,34.27718 -4.21666,1.86801 -7.66666,4.07408 -7.66666,4.90237 0,0.82829 5.55,3.69992 12.33333,6.38139 14.79151,5.84713 38.93388,15.81115 59,24.3504 8.06667,3.43283 21.56667,8.97047 30,12.30587 8.43334,3.33541 17.73334,7.13968 20.66667,8.45392 2.93333,1.31425 10.13333,4.26442 16,6.55594 5.86667,2.29154 12.16667,5.04575 14,6.1205 3.9823,2.3345 3.5398,2.44098 22,-5.29423 z m 23.89094,-62.871 c 1.89043,-0.72543 2.10906,-9.01844 2.10906,-80 V 72.000003 h -47.33334 -47.33333 v 79.111107 c 0,43.51112 0.4,79.51112 0.88889,80 1.11071,1.11071 88.78331,1.18682 91.66872,0.0796 z"
     style="fill:#353535;stroke-width:1.33333337" />
</svg>
