<?xml version="1.0" encoding="UTF-8" standalone="no"?>
<!-- Created with Inkscape (http://www.inkscape.org/) -->

<svg
   xmlns:dc="http://purl.org/dc/elements/1.1/"
   xmlns:cc="http://creativecommons.org/ns#"
   xmlns:rdf="http://www.w3.org/1999/02/22-rdf-syntax-ns#"
   xmlns:svg="http://www.w3.org/2000/svg"
   xmlns="http://www.w3.org/2000/svg"
   xmlns:xlink="http://www.w3.org/1999/xlink"
   xmlns:sodipodi="http://sodipodi.sourceforge.net/DTD/sodipodi-0.dtd"
   xmlns:inkscape="http://www.inkscape.org/namespaces/inkscape"
   version="1.1"
   id="svg34"
   width="666.66669"
   height="666.66669"
   viewBox="0 0 666.66669 666.66669"
   sodipodi:docname="toko.svg"
   inkscape:version="0.92.3 (2405546, 2018-03-11)">
  <metadata
     id="metadata40">
    <rdf:RDF>
      <cc:Work
         rdf:about="">
        <dc:format>image/svg+xml</dc:format>
        <dc:type
           rdf:resource="http://purl.org/dc/dcmitype/StillImage" />
        <dc:title></dc:title>
      </cc:Work>
    </rdf:RDF>
  </metadata>
  <defs
     id="defs38" />
  <sodipodi:namedview
     pagecolor="#ffffff"
     bordercolor="#666666"
     borderopacity="1"
     objecttolerance="10"
     gridtolerance="10"
     guidetolerance="10"
     inkscape:pageopacity="0"
     inkscape:pageshadow="2"
     inkscape:window-width="1366"
     inkscape:window-height="705"
     id="namedview36"
     showgrid="false"
     inkscape:zoom="0.35399999"
     inkscape:cx="333.33334"
     inkscape:cy="333.33334"
     inkscape:window-x="-8"
     inkscape:window-y="-8"
     inkscape:window-maximized="1"
     inkscape:current-layer="svg34" />
  <image
     sodipodi:absref="E:\Project-website\tanyabudi\public\assets\images\icon\toko.png"
     xlink:href="toko.png"
     y="0"
     x="0"
     id="image42"
     preserveAspectRatio="none"
     height="666.66669"
     width="666.66669" />
  <path
     inkscape:connector-curvature="0"
     id="path58"
     d="m 78.181821,564.48487 c -2.97418,-2.97418 -3.515152,-4.68258 -3.515152,-11.10092 0,-6.16821 0.560611,-8.09638 3,-10.31822 5.323675,-4.84894 8.598082,-5.73238 21.24568,-5.73219 l 12.420991,1.9e-4 L 110.66667,412.22211 110,287.11048 l -4.3797,-5.22191 c -6.345219,-7.56536 -6.106361,-7.19919 -10.370179,-15.89787 l -3.916784,-7.99069 -0.388239,-71 L 90.556859,116 H 340.00001 589.44317 l -0.38824,71.00001 -0.38824,71 -3.91679,7.99069 c -4.22849,8.62662 -4.05855,8.36386 -10.03684,15.51867 l -4.04637,4.84268 v 125.49066 125.49064 h 11.42098 c 11.67676,0 14.97843,0.93484 20.24568,5.73238 2.43939,2.22184 3,4.15001 3,10.31822 0,6.41834 -0.54097,8.12674 -3.51514,11.10092 l -3.51516,3.51515 H 340.00001 81.696972 Z M 328.00001,414.59883 V 291.8643 l -4.33333,3.25462 c -2.38334,1.79004 -7.33334,4.55334 -11,6.14066 -3.66667,1.58732 -8.1075,3.60327 -9.86852,4.4799 -4.22659,2.10397 -42.9587,2.19832 -45.59323,0.11106 -1.02937,-0.81554 -3.57603,-1.89065 -5.65924,-2.3891 -5.6306,-1.34726 -20.00303,-10.83527 -25.30786,-16.70708 l -4.64853,-5.14538 -4.46132,4.70278 c -5.56619,5.86744 -20.71068,15.8795 -25.90065,17.12298 -2.1417,0.51315 -4.7362,1.60026 -5.76558,2.4158 -1.18946,0.94238 -9.32398,1.48282 -22.31886,1.48282 H 142.69563 L 142.34782,422.33348 142,537.33359 l 93.00001,-10e-5 93,-1.2e-4 V 414.59884 Z m -50.9726,30.74256 c -9.79148,-2.94904 -10.36073,-5.85159 -10.36073,-52.82772 0,-32.88476 0.36888,-41.35943 1.93185,-44.38187 4.65703,-9.00569 16.30764,-11.02051 23.29892,-4.02923 l 4.10256,4.10258 v 44.26742 c 0,49.08901 0.0777,48.62638 -8.79809,52.33495 -4.95188,2.06903 -5.05879,2.07464 -10.17451,0.53387 z m 264.97261,-24.67483 c 0,-64.16665 -0.4,-116.66663 -0.88889,-116.6666 -0.48888,2e-5 -1.13874,0.75005 -1.44411,1.66672 -0.73803,2.21538 -42.3472,2.3849 -45.12738,0.18385 -1.03013,-0.81555 -3.5774,-1.89065 -5.66061,-2.38911 -5.68565,-1.36042 -20.02331,-10.8577 -25.43584,-16.84873 l -4.77651,-5.28703 -4.7765,5.28703 c -5.41254,5.99103 -19.75019,15.48831 -25.43585,16.84873 -2.08321,0.49846 -4.62986,1.57356 -5.65924,2.38911 -2.63122,2.08465 -41.36436,1.99303 -45.59322,-0.10787 -1.76103,-0.87486 -6.55788,-3.07374 -10.65968,-4.88641 -4.10182,-1.81265 -8.45182,-4.28972 -9.66667,-5.50457 -2.05623,-2.0562 -2.20884,6.22685 -2.20884,119.88643 v 122.09524 l 93.66667,-5e-5 93.66667,-7e-5 z m -149.75986,19.54786 -4.24015,-3.7856 v -44.42881 -44.4288 l 4.24015,-3.7856 c 5.50265,-4.91276 11.85224,-5.04861 17.96733,-0.38441 l 4.45919,3.40119 v 45.19762 45.19763 l -4.45919,3.40119 c -6.11509,4.6642 -12.46468,4.52835 -17.96733,-0.38441 z M 174.66667,277.53125 c 12.00964,-2.72419 22.38156,-10.75423 28.29243,-21.90428 2.92047,-5.50905 2.99204,-6.73753 3.41576,-58.62696 l 0.43279,-53 h -44.18482 -44.18481 l 0.38238,48.31026 c 0.21031,26.57066 0.93554,50.72066 1.61161,53.66667 3.89886,16.98935 13.77581,26.7465 32.35614,31.96368 6.88295,1.93267 11.97351,1.83742 21.87852,-0.40937 z m 114.26829,0.45844 c 10.48234,-2.72551 15.971,-5.48677 22.00682,-11.07132 11.65662,-10.78511 12.65375,-16.56019 12.99298,-75.2517 l 0.27552,-47.66666 h -44.17563 -44.17562 l 0.43279,53 c 0.41927,51.34467 0.52288,53.16939 3.3174,58.42337 5.68572,10.6898 20.24336,21.87726 28.53683,21.93038 1.75301,0.0107 4.08729,0.60204 5.18729,1.31292 2.80538,1.81297 6.67019,1.64526 15.60162,-0.67699 z m 123.06505,-0.45844 c 3.3,-0.74855 7.89684,-2.31672 10.21519,-3.48484 5.74661,-2.89545 14.67748,-12.04616 18.1756,-18.62303 2.79452,-5.25398 2.89814,-7.0787 3.3174,-58.42337 l 0.43279,-53 H 399.986 355.83101 l 0.24032,48.33333 c 0.29056,58.43991 1.20343,63.68254 12.98691,74.58503 5.75152,5.32151 11.53025,8.34547 21.06325,11.02225 6.88295,1.93267 11.97351,1.83742 21.87852,-0.40937 z m 114.26829,0.45844 c 19.36645,-5.03545 29.30035,-14.58541 33.29971,-32.01275 0.67608,-2.94601 1.4013,-27.09601 1.61161,-53.66667 l 0.38239,-48.31026 h -44.18482 -44.18481 l 0.43278,53 c 0.42372,51.88943 0.4953,53.11791 3.41576,58.62696 5.80092,10.94264 19.89751,21.66929 28.55262,21.72679 1.69022,0.0107 3.97314,0.60204 5.07314,1.31292 2.80538,1.81297 6.67019,1.64526 15.60162,-0.67699 z"
     style="fill:#eaeaea;stroke-width:1.33333337" />
  <path
     inkscape:connector-curvature="0"
     id="path56"
     d="m 78.564105,564.10258 c -5.251797,-5.25179 -5.579853,-15.32817 -0.684614,-21.02821 3.090457,-3.59854 3.788711,-3.7664 18.333334,-4.40768 l 15.120515,-0.66667 0.3402,-124.34374 0.34021,-124.34374 -6.04839,-7.42578 c -3.32662,-4.08419 -7.218934,-9.92951 -8.649593,-12.9896 -6.566909,-14.04623 -6.619333,-14.72496 -6.634665,-85.89715 L 90.66667,116 h 249.33334 249.33334 l -0.0144,67.00001 c -0.012,55.80129 -0.35004,68.11429 -2.02228,73.66667 -2.91293,9.67182 -5.63089,15.11281 -11.4607,22.94278 l -5.16926,6.9428 v 126.05721 126.05722 h 13.4359 c 13.07242,0 13.54133,0.10546 17.33333,3.89744 3.29937,3.2994 3.89741,4.95186 3.89741,10.76922 0,5.81736 -0.59804,7.46983 -3.89744,10.76923 l -3.89742,3.89744 H 340.00001 82.461542 Z M 328.00001,415.33335 c 0,-76.17648 -0.47972,-123.33334 -1.25464,-123.33334 -0.69005,0 -1.60273,0.56321 -2.02817,1.2516 -1.2284,1.98757 -14.0872,8.99497 -21.38386,11.65311 -5.1685,1.88285 -10.56186,2.42862 -24,2.42862 -16.08976,0 -18.00294,-0.27732 -26.66666,-3.86528 -11.01656,-4.56237 -18.0261,-9.14121 -25.62185,-16.73694 l -5.55012,-5.55014 -7.56934,7.27323 c -8.0694,7.75372 -19.21564,13.90835 -31.82946,17.57528 -5.88242,1.71007 -11.17617,2.11296 -21.92533,1.66865 -7.79381,-0.32216 -15.07057,-0.83602 -16.17057,-1.14193 -1.76467,-0.49076 -2.04051,12.93604 -2.34422,114.11047 -0.18932,63.06667 -0.0581,115.41667 0.29149,116.33334 0.50014,1.31125 20.40533,1.66667 93.34422,1.66667 h 92.70851 z m -56.10256,26.10256 -3.89744,-3.89743 v -44.23591 -44.23589 l 4.53333,-4.53333 c 6.33474,-6.33474 12.29959,-6.27819 18.75556,0.17777 l 4.71111,4.71112 v 42.68843 c 0,35.46749 -0.34064,43.34717 -2.0138,46.58271 -2.56865,4.96721 -5.75995,6.63997 -12.66777,6.63997 -4.3272,0 -6.36771,-0.84415 -9.42099,-3.89744 z m 270.76924,-20.24522 c 0,-111.35985 -0.12147,-117.42585 -2.33334,-116.513 -9.47145,3.90896 -31.82424,4.51717 -43.09133,1.17252 -12.2084,-3.62409 -23.23894,-9.77773 -31.14614,-17.3756 l -7.5481,-7.25283 -7.42764,7.25207 c -7.9113,7.72427 -19.0181,13.87156 -31.75053,17.57299 -6.10384,1.77442 -11.04924,2.12186 -22.59201,1.5872 -16.04861,-0.74339 -23.675,-2.93231 -35.44188,-10.17255 l -6.66904,-4.10349 v 122.65433 122.65436 h 94 94.00001 z m -150.13334,18.27599 -4.53334,-4.53333 v -42.93334 -42.93333 l 4.53334,-4.53333 c 5.92072,-5.92072 10.99593,-6.03586 17.42026,-0.39522 l 4.71307,4.13812 v 43.72376 43.72377 l -4.71307,4.13812 c -6.42433,5.64064 -11.49954,5.5255 -17.42026,-0.39522 z M 174.95058,277.92644 c 12.58,-3.2598 22.66252,-11.0123 28.51648,-21.92643 2.29375,-4.27645 2.56004,-9.1542 3.18467,-58.33439 l 0.68161,-53.66773 -44.35415,10e-4 -44.35415,0.001 0.0755,48.88361 c 0.0635,41.07288 0.42522,50.14136 2.26406,56.75528 3.67734,13.22667 15.5396,24.39618 30.06361,28.30791 9.21022,2.48059 14.28752,2.47627 23.92234,-0.0204 z m 117.01198,-0.0388 c 9.23886,-2.74366 15.68098,-6.89203 22.19506,-14.29242 9.32822,-10.5974 9.74272,-13.5502 9.8164,-69.92852 l 0.0649,-49.66667 H 279.94973 235.8605 l 0.419,53.66667 c 0.38624,49.47284 0.61451,54.03135 2.92108,58.33334 9.89824,18.4613 32.59474,27.87664 52.76199,21.8876 z m 120.32136,0.0388 c 12.58052,-3.25994 22.66468,-11.01394 28.51554,-21.92643 2.30657,-4.30199 2.53484,-8.86049 2.92108,-58.33334 l 0.419,-53.66666 h -44.06977 -44.06976 v 49.54948 c 0,56.317 0.4259,59.34803 9.84239,70.04571 12.40059,14.08781 28.36697,19.01482 46.44152,14.33124 z m 116.10205,0.0907 c 9.53734,-2.48416 16.34089,-6.73746 23.14892,-14.4718 9.0259,-10.25396 9.5768,-14.24293 9.74254,-70.54529 l 0.14427,-49 -44.37751,-10e-4 -44.37751,-0.001 0.66667,53.66773 c 0.64401,51.84454 0.76475,53.84891 3.55369,59.00106 5.41528,10.00392 15.76495,18.02044 27.31118,21.15437 9.39862,2.55103 14.97296,2.5962 24.18775,0.19605 z"
     style="fill:#cecece;stroke-width:1.33333337" />
  <path
     inkscape:connector-curvature="0"
     id="path54"
     d="m 78.928225,563.60321 c -3.45155,-3.5611 -4.261556,-5.48716 -4.261556,-10.13334 0,-4.7461 0.782682,-6.5192 4.533334,-10.26985 l 4.533333,-4.53333 H 97.86667 112 V 413.26104 287.85538 l -3.80598,-4.0724 c -6.22542,-6.66118 -12.415583,-17.9573 -15.05347,-27.47034 -2.255432,-8.13379 -2.47388,-14.7226 -2.47388,-74.61711 V 116 h 249.33334 249.33334 v 65.47422 c 0,55.29419 -0.32684,66.73555 -2.10216,73.5867 -2.52462,9.74286 -5.49494,15.79358 -11.82245,24.08306 l -4.74205,6.21244 v 126.65513 126.65514 h 12.62026 c 12.21487,0 12.77168,0.13293 17.33334,4.13812 4.13977,3.63477 4.71306,4.90044 4.71306,10.40512 0,5.33857 -0.65136,6.8983 -4.39681,10.52853 l -4.3968,4.26156 H 339.86476 83.189782 Z M 328.00001,414.59883 V 290.53097 l -4.33333,3.25204 c -27.52466,20.65648 -68.89623,18.21996 -94.59325,-5.57093 l -7.74009,-7.16598 -7.75164,7.14363 c -14.87641,13.70955 -33.97441,20.60917 -53.58169,19.35771 -6.23334,-0.39784 -12.98334,-1.12872 -15,-1.62416 l -3.66667,-0.9008 v 116.82209 116.82212 h 93.33333 93.33334 z m -53.18657,28.87384 c -6.50339,-3.60455 -6.7157,-5.20355 -6.76618,-50.95951 -0.0452,-40.95027 0.0701,-42.96939 2.64027,-46.23681 4.00776,-5.09506 10.61515,-6.88204 16.44292,-4.44704 8.6218,3.60242 8.86956,5.05525 8.86956,52.00956 v 41.97128 l -4.49077,4.7616 c -4.93127,5.22867 -10.69059,6.22936 -16.6958,2.90092 z m 267.85325,-22.13932 c 0,-64.53334 -0.45,-117.32622 -1,-117.31751 -0.55,0.009 -4.3,0.90158 -8.33334,1.98417 -21.98199,5.90021 -48.98552,-1.28712 -66.91503,-17.81028 l -7.75164,-7.14363 -7.74009,7.16598 c -23.39826,21.66264 -57.96408,25.7961 -86.69562,10.36725 -5.37298,-2.88529 -10.02298,-5.24599 -10.33333,-5.24599 -0.31036,0 -0.56429,55.20001 -0.56429,122.66667 v 122.66668 h 94.66667 94.66667 z m -146.24706,20.71512 c -8.07868,-3.51365 -8.41962,-5.54025 -8.41962,-50.04846 0,-44.81768 0.31036,-46.59444 8.75523,-50.12293 3.97673,-1.66159 5.17948,-1.66159 9.15621,0 8.44487,3.52849 8.75523,5.30525 8.75523,50.12293 0,44.77543 -0.31676,46.59713 -8.7124,50.10505 -5.32748,2.22596 -4.27217,2.23222 -9.53465,-0.0565 z M 178.07091,277.42105 c 14.01216,-4.92488 24.62307,-15.55516 27.89051,-27.94145 1.22684,-4.65074 1.77787,-20.56594 1.93845,-55.98869 l 0.22436,-49.4909 h -44.72877 -44.72879 v 50.61665 c 0,47.4192 0.16913,51.06868 2.67733,57.77246 1.47254,3.9357 4.70726,9.52732 7.18827,12.42582 4.71181,5.5047 15.72804,12.26178 22.71846,13.93494 7.7773,1.86149 19.37852,1.2867 26.82018,-1.32883 z m 120.77726,-1.33035 c 8.87067,-4.1735 15.97977,-10.73472 20.52764,-18.94562 l 3.95753,-7.14507 0.39076,-53 0.39076,-53 h -44.86962 -44.86963 l 0.5474,51.66666 c 0.5309,50.11037 0.63776,51.86749 3.54716,58.33334 4.91152,10.91533 13.80065,18.97836 25.88699,23.48117 9.30401,3.46626 25.56121,2.81086 34.49101,-1.39048 z m 120.16378,0.1252 c 8.85009,-3.90252 18.75507,-13.58745 22.42912,-21.93085 2.98373,-6.77573 3.07541,-8.25935 3.62228,-58.61835 l 0.56107,-51.66667 h -44.86963 -44.86963 l 0.39076,53 0.39076,53.00001 3.95753,7.14506 c 5.86167,10.5829 16.23631,18.60796 28.04247,21.69162 7.00392,1.82936 23.48028,0.40636 30.34527,-2.62082 z m 119.60871,-1.63224 c 9.87799,-5.26492 16.40744,-12.49802 20.03536,-22.19452 2.50821,-6.7038 2.67733,-10.35328 2.67733,-57.77248 v -50.61665 h -44.6968 -44.6968 l 0.10973,49.17748 c 0.0819,36.68397 0.56618,50.90787 1.90647,55.98869 3.30145,12.51523 13.61153,23.0574 27.66905,28.29192 10.97083,4.08516 26.15098,2.9057 36.99569,-2.87446 z"
     style="fill:#b1b1b1;stroke-width:1.33333337" />
  <path
     inkscape:connector-curvature="0"
     id="path52"
     d="m 79.200003,563.46669 c -5.192248,-5.19226 -6.078994,-11.86818 -2.335334,-17.58174 3.72093,-5.67885 8.498626,-7.21826 22.402454,-7.21826 H 112 V 412.87333 287.07998 L 109.13841,284.54 C 104.02637,280.0025 97.439167,268.40661 94.015237,257.91768 L 90.66667,247.65962 V 181.82982 116 h 249.33334 249.33334 v 65.82982 65.8298 l -3.3234,10.18095 c -3.27453,10.03127 -7.95081,18.86439 -12.82809,24.23128 -2.39199,2.63209 -2.49044,7.65796 -2.53375,129.33334 l -0.0451,126.59483 12.36514,0.66667 c 13.23136,0.71337 16.72567,1.96592 20.17632,7.23228 3.73495,5.70025 2.84355,12.37966 -2.3445,17.56772 l -4.53334,4.53333 H 340 83.733323 l -4.533334,-4.53333 z M 328.00001,414.68324 V 290.6998 l -7.06801,4.52136 c -9.28223,5.93777 -15.64448,8.52674 -26.68583,10.8592 -12.2462,2.587 -19.87355,2.41737 -32.11815,-0.71427 -13.19937,-3.37584 -24.60549,-9.48911 -33.63351,-18.02636 l -7.16117,-6.77189 -7.21331,6.82118 c -14.37084,13.58966 -37.23829,21.89263 -55.3144,20.0842 -4.84309,-0.48453 -10.75562,-1.23232 -13.13896,-1.66176 l -4.33333,-0.78078 v 116.818 116.81801 h 93.33333 93.33334 z m -55.46667,26.11678 -4.53333,-4.53334 v -42.19955 c 0,-44.85154 0.41088,-48.05245 6.59281,-51.36093 6.23311,-3.33585 15.55512,-0.65816 18.79698,5.39931 1.86602,3.48669 1.7498,87.18616 -0.12587,90.69099 -1.72745,3.22776 -8.1384,6.53685 -12.66432,6.53685 -2.24001,0 -5.19187,-1.65899 -8.06621,-4.53333 z m 270.13335,-19.46667 c 0,-64.53334 -0.45,-117.31226 -1,-117.2865 -0.55,0.0257 -4.9,0.90468 -9.66667,1.95316 -11.38908,2.50515 -19.3836,2.46747 -31.07012,-0.14644 -12.47262,-2.78972 -26.02259,-9.92795 -35.04991,-18.46455 l -7.21331,-6.82118 -7.2133,6.82118 c -12.67324,11.98434 -33.86401,20.61099 -50.62941,20.61099 -13.15024,0 -29.99601,-5.0446 -40.55746,-12.14525 -3.15343,-2.12011 -6.00343,-3.85475 -6.33334,-3.85475 -0.3299,0 -0.59982,55.5 -0.59982,123.33334 v 123.33334 h 94.66667 94.66667 z m -150.06061,18.0606 -3.27273,-3.27272 V 392.00001 347.8788 l 3.27273,-3.27272 c 2.40808,-2.40809 4.7138,-3.27273 8.72727,-3.27273 4.01346,0 6.31918,0.86464 8.72726,3.27273 l 3.27274,3.27272 v 44.12121 44.12122 l -3.27274,3.27272 c -4.54797,4.54799 -12.90656,4.54799 -17.45453,0 z M 183.02821,276.22637 c 9.16938,-4.0682 18.64706,-14.08869 22.12986,-23.39731 2.7834,-7.43932 2.86251,-9.27524 2.52436,-58.58785 l -0.34909,-50.90787 -44.33333,-0.35131 -44.33334,-0.35131 -0.007,51.68465 c -0.006,45.90295 0.25492,52.41421 2.33118,58.20651 4.09897,11.43514 17.07203,23.27661 28.78472,26.27392 7.64203,1.9556 26.30323,0.51364 33.25223,-2.56943 z m 116.77101,-0.12053 c 7.72751,-3.94679 17.08779,-12.73254 20.64651,-19.37922 2.80548,-5.23985 2.89869,-6.93928 3.27723,-59.74464 l 0.38961,-54.35139 -44.38961,0.35139 -44.38962,0.35136 -0.34983,49.93537 c -0.3916,55.89717 -0.0443,58.7995 8.35283,69.79685 4.74775,6.21793 12.70906,11.75805 21.78924,15.16272 7.55103,2.8313 27.34712,1.61953 34.67364,-2.12246 z m 120.51261,0.14185 c 7.98512,-3.54372 17.71323,-13.20733 21.46147,-21.31919 2.81444,-6.09097 2.89338,-7.69881 2.89338,-58.92849 v -52.66667 l -44.38961,-0.35137 -44.38962,-0.35139 0.38962,54.35139 c 0.37853,52.80536 0.47174,54.50479 3.27722,59.74464 5.05732,9.44564 17.61526,19.43695 27.77906,22.10148 7.34652,1.92596 26.1372,0.45568 32.97848,-2.58041 z m 118.27747,-1.00091 c 8.92505,-4.85761 17.42036,-14.29998 20.41732,-22.69341 2.07855,-5.82132 2.33919,-12.32667 2.33333,-58.23799 l -0.007,-51.68466 -44.33333,0.35131 -44.33334,0.35131 v 52.76301 52.76301 l 4,7.77105 c 4.81992,9.36396 13.52512,17.07689 23.42675,20.75644 10.97029,4.07667 28.90559,3.0796 38.49587,-2.14008 z"
     style="fill:#939393;stroke-width:1.33333337" />
  <path
     inkscape:connector-curvature="0"
     id="path50"
     d="m 79.37778,563.28891 c -5.587265,-5.58726 -6.265553,-11.61978 -1.926716,-17.13572 4.682536,-5.95288 9.288167,-7.4865 22.482726,-7.4865 H 112 V 413.40396 288.14124 l -6.52946,-8.62663 c -3.59121,-4.74464 -7.941209,-12.12641 -9.666669,-16.40395 -3.135313,-7.77264 -3.137436,-7.81925 -3.526356,-77.44399 L 91.888361,116 H 340.00001 588.11166 l -0.38915,69.66667 c -0.38697,69.27578 -0.40645,69.7095 -3.47237,77.2997 -1.69576,4.19816 -5.74576,11.24984 -9,15.6704 l -5.91679,8.0374 v 125.99626 125.99626 h 11.39955 c 12.48688,0 17.19917,1.61709 21.81605,7.4865 4.33884,5.51594 3.66056,11.54846 -1.9267,17.13572 l -4.71112,4.71111 H 340.00001 84.088892 Z M 329.33334,414.66668 c 0,-86.94846 -0.42498,-124 -1.42229,-124 -0.78227,0 -3.36308,1.4803 -5.73516,3.28957 -12.11209,9.23836 -35.06065,14.83419 -51.45488,12.54688 -17.55971,-2.44992 -30.5112,-8.63008 -42.36646,-20.21635 l -6.97877,-6.82044 -6.35456,6.38074 c -15.47913,15.54292 -38.9592,23.56974 -60.35455,20.63264 -4.76666,-0.65436 -9.71666,-1.52042 -11,-1.92458 -2.21012,-0.69602 -2.33333,5.4657 -2.33333,116.68835 v 117.4232 h 94 94 z m -52.91372,28.71512 c -8.08866,-3.518 -8.41961,-5.50106 -8.41961,-50.45173 0,-39.99202 0.0408,-40.59623 3.04125,-45.04862 5.21203,-7.73412 13.76902,-8.52572 20.40691,-1.88782 l 3.21851,3.2185 v 43.09727 c 0,47.1776 0.0497,46.8613 -8.01472,51.03156 -4.6165,2.38728 -4.83534,2.38815 -10.23234,0.0408 z m 266.24707,-22.85777 c 0,-112.01598 -0.12107,-118.08983 -2.33334,-117.12401 -1.28333,0.56027 -7.11964,1.7564 -12.96957,2.65808 -23.06706,3.55546 -46.17006,-3.92928 -62.38498,-20.21102 l -6.35456,-6.38074 -6.97877,6.82044 c -11.85525,11.58627 -24.80675,17.76643 -42.36646,20.21635 -15.83716,2.20957 -38.21858,-3.01132 -50.54938,-11.79164 -2.09436,-1.49131 -4.16531,-2.71148 -4.60211,-2.71148 -0.4368,0 -0.79417,55.5 -0.79417,123.33334 v 123.33334 h 94.66667 94.66667 z m -149.4359,18.24521 -3.89744,-3.89742 v -42.87181 -42.8718 l 3.89744,-3.89742 c 2.65998,-2.66 5.23256,-3.89744 8.10256,-3.89744 2.87,0 5.44257,1.23744 8.10256,3.89744 l 3.89744,3.89742 v 42.8718 42.87181 l -3.89744,3.89742 c -2.65999,2.66 -5.23256,3.89744 -8.10256,3.89744 -2.87,0 -5.44258,-1.23744 -8.10256,-3.89744 z M 173.52994,279.51934 c 9.83463,-2.3148 18.26127,-7.35817 24.90473,-14.90556 9.40712,-10.68705 9.56534,-11.84789 9.56534,-70.18463 V 142.66667 H 163.2777 118.55539 l 0.38897,55 0.38898,55.00001 5.13157,7.66956 c 6.93694,10.36784 15.05824,15.87465 28.20176,19.1228 8.7762,2.16884 11.86703,2.17778 20.86327,0.0603 z m 123.67048,-2.01282 c 9.02922,-3.43084 16.3693,-9.47631 21.71098,-17.8817 l 4.42194,-6.95814 0.66667,-54.44653 c 0.36667,-29.94558 0.41667,-54.69558 0.11107,-55 -0.30551,-0.30441 -20.55551,-0.55348 -44.99996,-0.55348 h -44.44445 l -0.007,51.66667 c -0.008,58.20754 0.18897,59.62084 9.80299,70.54294 13.04944,14.82496 33.85052,19.80666 52.73736,12.63024 z m 113.66286,2.01282 c 14.79775,-3.48298 27.55812,-14.19982 32.14548,-26.99746 2.07622,-5.79215 2.33704,-12.30272 2.33119,-58.18854 l -0.007,-51.66667 h -44.44444 c -24.44446,0 -44.69446,0.24907 -45,0.55348 -0.30556,0.30442 -0.25556,25.05442 0.11106,55 l 0.66667,54.44653 4.86292,7.47826 c 6.62235,10.18395 14.54192,15.78856 27.13708,19.20472 8.55463,2.32026 12.91803,2.3536 22.1966,0.16968 z m 116.73063,-0.17325 c 14.82503,-3.49573 25.08608,-11.74429 31.1049,-25.00428 2.40562,-5.29983 2.57792,-9.18013 2.60526,-58.67514 l 0.0293,-53 H 516.6667 472.00004 v 51.76248 c 0,58.33674 0.15821,59.49758 9.56533,70.18463 6.46509,7.34474 15.06727,12.60156 24.27935,14.83719 9.09429,2.20704 12.00412,2.19301 21.74921,-0.10493 z"
     style="fill:#6b6b6b;stroke-width:1.33333337" />
  <path
     inkscape:connector-curvature="0"
     id="path48"
     d="m 82.982783,565.3375 c -6.186232,-3.77179 -9.228335,-10.58289 -7.062307,-15.81215 3.205233,-7.73812 5.63745,-8.79701 21.879329,-9.52533 l 14.866865,-0.66667 0.34013,-125.65531 0.34013,-125.6553 -4.43163,-5.01137 c -5.58877,-6.31987 -9.713653,-13.13641 -13.334601,-22.03596 -2.74749,-6.75276 -2.851721,-9.17769 -3.265674,-75.9754 L 91.887423,116 h 248.112587 248.1126 l -0.42762,69.00001 c -0.41394,66.79771 -0.51817,69.22264 -3.26566,75.9754 -3.44267,8.46136 -7.77632,15.85977 -11.97163,20.43796 l -3.12789,3.41336 0.3401,127.25331 0.34011,127.25331 13.53371,0.66667 c 14.78058,0.72809 17.40606,1.94529 20.54582,9.52533 2.16603,5.22926 -0.87608,12.04036 -7.06232,15.81215 -4.30242,2.62321 -7.14534,2.65255 -257.01722,2.65255 -249.871871,0 -252.714796,-0.0293 -257.017227,-2.65255 z M 329.00685,414.33335 c 0.18709,-68.75 -0.005,-125.00001 -0.42644,-125.00001 -0.42163,0 -3.27471,1.71563 -6.34016,3.8125 -7.13216,4.87862 -12.43553,7.58177 -20.46987,10.43354 -9.10765,3.23276 -34.58988,3.25151 -43.77037,0.0321 -11.44751,-4.01428 -20.62798,-9.34623 -28.79419,-16.72344 l -7.87248,-7.11182 -7.87248,7.11188 c -8.05964,7.28095 -17.49405,12.81888 -28.12752,16.51067 -7.92655,2.75197 -25.35613,3.83837 -35.33333,2.20235 -5.81195,-0.95303 -8.26793,-0.89554 -8.97959,0.21018 -1.17328,1.82296 -1.37659,229.04241 -0.20766,232.08859 0.73363,1.91181 9.91779,2.08469 94.33334,1.77572 l 93.52058,-0.3423 z m -55.77607,25.76923 -3.89744,-3.89743 v -42.01578 c 0,-23.52629 0.56154,-43.49272 1.27606,-45.37202 1.36353,-3.58638 7.55897,-7.484 11.89613,-7.484 1.45087,0 4.78067,2.02084 7.39955,4.49077 l 4.7616,4.49076 v 41.57545 c 0,34.47476 -0.34394,42.24055 -2.0138,45.46971 -4.0208,7.77536 -13.10634,9.05831 -19.4221,2.74254 z m 270.44324,-18.02857 c 0.21136,-72.75094 -0.14005,-117.74005 -0.92583,-118.52583 -0.79974,-0.79974 -2.89074,-0.58281 -5.674,0.5887 -5.86626,2.46918 -33.13196,2.51048 -40.40751,0.0612 -10.83221,-3.6466 -22.32252,-10.23451 -30.05458,-17.23162 l -7.94542,-7.1902 -7.87248,7.11188 c -15.01417,13.56356 -29.35121,19.01876 -50.12752,19.07334 -17.07619,0.0448 -25.32211,-2.09186 -38.25733,-9.91338 l -8.40934,-5.08486 -0.34393,122.85172 c -0.18917,67.56846 -0.0564,123.60575 0.29492,124.52735 0.50631,1.32795 20.21988,1.6046 95.0106,1.33334 l 94.37175,-0.3423 z M 396.14677,440.806 c -6.46565,-3.58364 -6.7157,-5.3774 -6.76617,-48.53887 -0.052,-44.48233 0.25508,-46.41197 7.88987,-49.57441 3.2712,-1.35497 4.85456,-1.35497 8.12576,0 7.61965,3.15617 7.93712,5.12832 7.93712,49.30729 0,43.55063 -0.35067,45.90922 -7.29608,49.07375 -4.36699,1.98975 -5.89196,1.94846 -9.8905,-0.26776 z M 178.55485,278.70756 c 12.1005,-4.4229 19.64752,-10.82259 26.77849,-22.70755 1.67359,-2.78932 2.06348,-12.30959 2.38897,-58.33334 l 0.38898,-55 h -45.38898 -45.38897 v 51.28332 c 0,48.85215 0.13289,51.63851 2.80335,58.77595 8.34861,22.31366 35.46197,34.37239 58.41816,25.98162 z m 115.54097,0.41861 c 13.32776,-4.47687 24.14376,-14.45327 28.71278,-26.48396 2.3168,-6.10036 2.52266,-10.85692 2.52366,-58.30887 l 10e-4,-51.66667 h -45.38897 -45.38898 l 0.38898,55 0.38897,55.00001 5.33334,7.86893 c 9.02133,13.31031 22.16124,20.44004 38.09581,20.67083 4.96028,0.0719 11.61369,-0.83083 15.33333,-2.08027 z m 120.80045,0.005 c 10.02748,-3.27982 18.46047,-9.68145 24.43708,-18.55062 l 5.33333,-7.91456 0.38898,-55.00001 0.38897,-55 h -45.38898 -45.38897 l 0.001,51.66667 c 10e-4,47.45195 0.20687,52.20851 2.52367,58.30887 8.27853,21.79824 34.8107,33.97795 57.70484,26.48965 z m 116.5329,-0.005 c 13.54846,-4.551 23.83148,-14.09845 28.43417,-26.40023 2.67045,-7.13744 2.80335,-9.9238 2.80335,-58.77595 v -51.28332 h -45.38898 -45.38897 l 0.38897,55 c 0.42045,59.45185 -0.0155,55.82519 7.98564,66.43683 10.7324,14.23407 33.56017,20.93648 51.16582,15.02267 z"
     style="fill:#4a4a4a;stroke-width:1.33333337" />
  <path
     inkscape:connector-curvature="0"
     id="path46"
     d="m 85.333336,566.26066 c -7.610463,-3.55913 -11.536579,-10.77225 -9.032132,-16.59397 3.446215,-8.01091 5.658616,-8.96119 21.996694,-9.44807 l 15.035442,-0.44808 -0.0256,-126.21859 -0.0256,-126.21861 -4.68278,-5.33333 c -6.075,-6.91897 -12.522157,-19.81299 -13.518519,-27.0364 -0.43266,-3.13669 -1.302854,-6.02209 -1.933766,-6.41203 -0.630912,-0.38992 -1.147112,-30.37355 -1.147112,-66.63027 V 116 H 340.00001 588.00002 v 65.92131 c 0,36.25672 -0.5162,66.24035 -1.14711,66.63027 -0.63092,0.38994 -1.5011,3.27534 -1.93377,6.41203 -0.90345,6.54983 -7.27831,19.89499 -12.21796,25.57712 l -3.36783,3.87405 v 127.67125 127.67126 l 13.70172,0.4547 c 14.86574,0.49332 17.2848,1.60016 20.66375,9.4547 2.57157,5.97774 -1.48043,13.14476 -9.4282,16.67622 -5.25744,2.33607 -503.938562,2.25547 -508.937284,-0.0822 z M 329.33334,414.74537 c 0,-68.89005 -0.47066,-125.54553 -1.04593,-125.90107 -0.57527,-0.35553 -3.05657,1.10906 -5.51401,3.25464 -2.45744,2.14559 -5.28678,3.90107 -6.2874,3.90107 -1.00063,0 -1.81932,0.6 -1.81932,1.33333 0,0.73334 -0.65932,1.33334 -1.46516,1.33334 -0.80584,0 -3.35584,0.83486 -5.66667,1.85526 -25.94947,11.4586 -59.60879,4.67912 -80.13395,-16.14012 l -6.11516,-6.20278 -5.11301,5.24381 c -2.81215,2.88411 -6.56355,6.44383 -8.33643,7.91049 -4.60435,3.80908 -19.34916,10.80394 -27.16963,12.88912 -7.98561,2.12922 -29.1519,2.10274 -34.44522,-0.0431 -2.0782,-0.84248 -4.32821,-1.19207 -5.00001,-0.77688 -1.39977,0.8651 -1.72913,234.31206 -0.33254,235.70863 0.48888,0.4889 43.08888,0.8889 94.66667,0.8889 l 93.77777,-3e-5 z m -53.30705,27.54205 c -6.34659,-3.21122 -6.65364,-5.47034 -6.65364,-48.95407 0,-44.22996 0.16933,-45.35895 7.43993,-49.6052 3.77718,-2.20599 4.5557,-2.24414 8.88492,-0.43527 8.61679,3.60032 8.96918,5.55079 8.96918,49.64487 0,42.00017 -0.3326,44.34231 -6.95572,48.98133 -3.57419,2.50346 -7.23668,2.61891 -11.68467,0.36834 z M 544.00002,421.18747 V 302.37493 l -4.33333,0.64959 c -2.38334,0.35726 -7.93334,1.38694 -12.33334,2.28816 -20.70071,4.23998 -47.07423,-4.7119 -63.13976,-21.43134 l -5.47931,-5.7023 -6.11516,6.20278 c -20.52516,20.81924 -54.18448,27.59872 -80.13395,16.14012 -2.31082,-1.0204 -4.86082,-1.85526 -5.66666,-1.85526 -0.80584,0 -1.46516,-0.6 -1.46516,-1.33334 0,-0.73333 -0.8082,-1.33333 -1.79599,-1.33333 -0.98779,0 -3.19576,-1.21401 -4.90659,-2.6978 -1.71082,-1.4838 -3.75262,-2.48383 -4.53734,-2.22229 -1.42882,0.47621 -2.88316,243.57113 -1.47922,247.25343 0.50018,1.31188 20.93827,1.66667 96.01063,1.66667 h 95.37518 z M 397.01677,440.5795 c -7.329,-3.97668 -7.68342,-6.21755 -7.68342,-48.57949 0,-42.68098 0.33306,-44.70194 8.02257,-48.67833 3.58432,-1.85353 4.37053,-1.85353 7.95485,0 7.68951,3.97639 8.02258,5.99735 8.02258,48.67833 0,42.62309 -0.34067,44.70587 -7.95636,48.6441 -4.6167,2.38739 -3.82998,2.39347 -8.36022,-0.0647 z M 184.09537,276.98298 c 8.02182,-3.90702 16.20154,-11.25402 19.65009,-17.64964 5.38599,-9.98878 5.54716,-11.87036 5.5678,-65 l 0.0201,-51.66667 h -46 -46 v 53.92131 c 0,31.51309 0.51146,54.23742 1.23075,54.68196 0.67691,0.41836 1.62458,2.55376 2.10594,4.74536 0.48135,2.19159 1.33121,3.98471 1.88856,3.98471 0.55736,0 1.67657,1.45556 2.48715,3.23459 1.78141,3.90976 13.59941,12.87388 20.95427,15.89409 3.94081,1.61825 8.64057,2.0964 18,1.83127 10.60969,-0.30056 13.87302,-0.94639 20.09536,-3.97698 z m 117.20811,-0.094 c 6.33984,-3.25565 12.50326,-8.62764 18.30914,-15.95804 0.88695,-1.11984 2.00342,-3.59309 2.48104,-5.49613 0.47764,-1.90303 1.40196,-3.7898 2.05406,-4.19283 0.66033,-0.40804 1.18562,-24.63036 1.18562,-54.67149 v -53.93883 l -45.66666,0.35084 -45.66667,0.35084 -0.0837,48.63743 c -0.0461,26.75057 0.41748,51.83399 1.03014,55.74089 1.64937,10.51788 9.49021,21.53408 19.02596,26.73106 11.13371,6.06785 14.49232,6.86948 27.36104,6.5305 10.87965,-0.28658 13.69704,-0.86278 19.97013,-4.08417 z m 120.06467,0.12254 c 13.04777,-6.35642 21.78195,-17.16094 23.68553,-29.29998 0.61266,-3.9069 1.07622,-28.99032 1.03014,-55.74089 l -0.0838,-48.63731 -45.66667,-0.35084 -45.66667,-0.35084 v 53.93883 c 0,30.04113 0.52529,54.26345 1.18563,54.67156 0.65209,0.40303 1.57641,2.2898 2.05405,4.19283 0.95592,3.8087 1.87975,5.13482 8.79019,12.61793 3.98512,4.31536 11.9239,9.24689 19.97013,12.40533 1.1,0.43179 7.7,0.6406 14.66667,0.46403 10.63372,-0.26952 13.84921,-0.89713 20.0348,-3.91053 z m 116.24314,0.48638 c 9.1735,-4.49026 20.20545,-15.64733 21.81572,-22.06314 0.47764,-1.90303 1.40196,-3.7898 2.05405,-4.19283 0.66032,-0.40797 1.18563,-24.62302 1.18563,-54.65395 v -53.92131 h -46.00001 -46 l 0.0201,51.66667 c 0.0149,38.42265 0.45468,52.86291 1.71553,56.33334 5.17139,14.23401 12.20176,21.27465 28.26439,28.30566 8.00581,3.50435 28.4392,2.68894 36.9446,-1.47432 z"
     style="fill:#353535;stroke-width:1.33333337" />
</svg>
