<?xml version="1.0" encoding="UTF-8" standalone="no"?>
<!-- Created with Inkscape (http://www.inkscape.org/) -->

<svg
   xmlns:dc="http://purl.org/dc/elements/1.1/"
   xmlns:cc="http://creativecommons.org/ns#"
   xmlns:rdf="http://www.w3.org/1999/02/22-rdf-syntax-ns#"
   xmlns:svg="http://www.w3.org/2000/svg"
   xmlns="http://www.w3.org/2000/svg"
   xmlns:xlink="http://www.w3.org/1999/xlink"
   xmlns:sodipodi="http://sodipodi.sourceforge.net/DTD/sodipodi-0.dtd"
   xmlns:inkscape="http://www.inkscape.org/namespaces/inkscape"
   version="1.1"
   id="svg118"
   width="666.66669"
   height="666.66669"
   viewBox="0 0 666.66669 666.66669"
   sodipodi:docname="top-up.svg"
   inkscape:version="0.92.3 (2405546, 2018-03-11)">
  <metadata
     id="metadata124">
    <rdf:RDF>
      <cc:Work
         rdf:about="">
        <dc:format>image/svg+xml</dc:format>
        <dc:type
           rdf:resource="http://purl.org/dc/dcmitype/StillImage" />
        <dc:title></dc:title>
      </cc:Work>
    </rdf:RDF>
  </metadata>
  <defs
     id="defs122" />
  <sodipodi:namedview
     pagecolor="#ffffff"
     bordercolor="#666666"
     borderopacity="1"
     objecttolerance="10"
     gridtolerance="10"
     guidetolerance="10"
     inkscape:pageopacity="0"
     inkscape:pageshadow="2"
     inkscape:window-width="1366"
     inkscape:window-height="705"
     id="namedview120"
     showgrid="false"
     inkscape:zoom="0.35399999"
     inkscape:cx="333.33334"
     inkscape:cy="333.33334"
     inkscape:window-x="-8"
     inkscape:window-y="-8"
     inkscape:window-maximized="1"
     inkscape:current-layer="svg118" />
  <image
     sodipodi:absref="E:\Project-website\tanyabudi\public\assets\images\icon\top-up.png"
     xlink:href="top-up.png"
     y="0"
     x="0"
     id="image126"
     preserveAspectRatio="none"
     height="666.66669"
     width="666.66669" />
  <path
     inkscape:connector-curvature="0"
     id="path142"
     d="M 70.000002,603.56314 C 56.243466,598.13331 46.093928,588.89601 40.529295,576.74125 l -3.231794,-7.05918 0.35125,-141.84103 0.35125,-141.84103 3.186776,-6.23409 c 4.005582,-7.83587 13.513734,-17.19356 22.011811,-21.6635 11.367833,-5.9794 11.468081,-5.86957 11.468081,12.56426 0,9.93229 -0.513074,16 -1.35293,16 -0.744114,0 -2.54187,1.95 -3.995017,4.33333 -2.587437,4.24371 -2.642188,7.09943 -2.647069,138.06622 -0.0056,149.88206 -0.700257,139.59799 9.750106,144.34262 5.409555,2.45602 12.412639,2.53261 231.578251,2.53261 218.89622,0 226.17474,-0.0793 231.5591,-2.52404 3.0575,-1.38821 6.22862,-3.77504 7.04691,-5.30405 1.36843,-2.55691 2.6548,-2.78002 16.02889,-2.78002 8.64975,0 14.88907,0.56308 15.40002,1.38982 0.47242,0.7644 -0.24216,4.48421 -1.58798,8.26624 -3.23441,9.08941 -13.91664,20.53525 -23.96421,25.67728 l -7.81605,4 -235.33335,0.23764 c -178.6232,0.18038 -236.297249,-0.14282 -239.333338,-1.34119 z m 55.324708,-59.47557 c -9.75257,-2.9666 -22.13426,-12.00511 -27.450621,-20.03867 -1.806087,-2.72918 -4.46661,-8.19819 -5.912274,-12.15336 -2.550917,-6.97902 -2.628479,-11.16399 -2.628479,-141.8241 v -134.6329 l 3.000001,-7.89852 c 5.516833,-14.52492 19.502523,-26.74492 35.227803,-30.78028 7.18656,-1.84419 19.92621,-2.06804 100.66667,-1.76889 l 92.43887,0.34249 0.38245,13.89095 c 0.28108,10.20885 -0.0724,14.184 -1.33333,14.99645 -0.94368,0.60803 -24.48811,1.07936 -52.32095,1.0474 l -50.60516,-0.0581 -1.6589,8.1325 c -3.41028,16.71855 -13.71394,39.22833 -24.54574,53.62353 -8.3155,11.05109 -21.91368,22.53608 -32.77515,27.68177 -9.12911,4.32501 -27.76935,9.3522 -34.67679,9.3522 h -4.50055 l 0.35039,46.96279 0.35039,46.9628 11.33333,2.92971 c 39.38862,10.18208 68.46904,32.26241 80.61892,61.21272 2.62784,6.26153 7.38108,25.99957 7.38108,30.65029 v 3.2817 h 141.78141 141.7814 l 2.15576,-7.75384 c 9.55208,-34.35696 30.85009,-63.83567 54.31998,-75.18467 11.76272,-5.68792 29.05435,-10.39504 38.18361,-10.39432 l 6.44452,5e-4 -0.36418,-50.52041 -0.36419,-50.5204 -6.30248,-0.9382 C 581.80623,318.53073 561.47722,309.78554 546.79834,299.39285 521.761,281.66633 509.2564,260.00396 506.13706,228.95321 l -0.37306,-3.71348 -50.54866,-0.28652 -50.54866,-0.28654 -0.377,-15 -0.377,-15 h 91.51787 c 78.97423,0 92.64076,0.28814 99.71035,2.10223 14.83697,3.80725 27.45031,14.25255 33.70283,27.90987 l 3.20416,6.99878 -0.35727,140.5187 -0.35726,140.5187 -4.70163,7.92407 c -5.68719,9.58511 -15.74987,18.09117 -25.89016,21.88513 l -7.50826,2.8092 -232.28331,-0.1146 c -127.75583,-0.063 -233.78721,-0.57206 -235.62529,-1.13118 z m 61.65706,-38.41061 c -3.63839,-19.52698 -15.16243,-34.20681 -35.64843,-45.41052 -6.75095,-3.69206 -21.14601,-8.97372 -27.66667,-10.1511 l -5,-0.90283 v 23.89279 c 0,25.8433 1.30016,32.85917 6.97628,37.64496 5.11896,4.31602 10.10816,5.00504 37.143,5.1295 l 26.11927,0.12027 -1.92345,-10.32305 z m 402.42738,8.99072 c 2.60835,-0.7246 6.50835,-3.15921 8.66667,-5.41024 l 3.9242,-4.0928 0.41105,-26.5823 0.41104,-26.58232 -3.0777,0.0205 c -5.58328,0.0372 -23.13642,5.04541 -28.48812,8.12827 -14.9565,8.61566 -28.5567,26.61784 -34.56294,45.74993 -0.93837,2.98907 -2.14244,6.48467 -2.67572,7.768 -0.90396,2.1754 0.77736,2.33283 24.83974,2.32589 14.19513,-0.004 27.94342,-0.60029 30.55178,-1.32489 z M 140.97935,289.10185 c 8.20871,-3.07128 18.04178,-10.49313 24.71726,-18.65623 5.25818,-6.42996 15.59345,-25.8614 15.6198,-29.36692 0.009,-1.24005 0.54892,-2.58342 1.19912,-2.98528 0.6502,-0.40184 1.58537,-2.87987 2.07817,-5.50671 0.4928,-2.62684 1.16859,-5.48346 1.50176,-6.34805 0.4582,-1.18905 -6.13796,-1.40959 -27.07819,-0.90532 -25.95847,0.62512 -27.94456,0.85257 -31.86561,3.64947 -7.3245,5.2246 -8.48499,10.58565 -8.48499,39.19781 v 25.45999 l 7.64323,-0.95496 c 4.20378,-0.52523 10.80502,-2.13795 14.66945,-3.5838 z m 461.68734,-24.76653 c -0.94698,-39.30195 -0.62886,-39.00198 -41.36032,-39.00198 -20.47978,0 -25.30635,0.34675 -25.30635,1.81801 0,5.60011 3.17939,16.87077 6.77277,24.00897 6.07472,12.06726 17.3025,22.83821 31.8939,30.5962 3.82013,2.03109 25.59737,9.95105 28,10.18306 0.36666,0.0355 0.36666,-12.38652 0,-27.60426 z M 343.33335,448.68244 c -24.76042,-6.7178 -45.62229,-24.89496 -55.32715,-48.20709 -3.7084,-8.90798 -4.45383,-12.5562 -5.00026,-24.47198 -0.80901,-17.64157 0.9308,-26.92324 7.64796,-40.80086 8.7031,-17.98057 24.65334,-32.37526 44.47046,-40.13345 8.71324,-3.41114 11.04831,-3.73572 26.87565,-3.73572 13.43607,0 18.82982,0.54568 23.98902,2.42695 20.68633,7.54315 39.1668,23.43745 47.56228,40.90639 2.64328,5.5 5.47557,13.17953 6.294,17.06563 1.83111,8.69462 1.88551,29.50533 0.0983,37.60104 -1.3471,6.10197 -1.59815,6.77414 -6.474,17.33333 -8.84305,19.15056 -30.23797,36.06656 -53.1709,42.03983 -9.26951,2.4144 -28.02265,2.40219 -36.96535,-0.0241 z m 29.26628,-29.38765 c 4.3046,-1.1212 9.85425,-3.00076 12.33258,-4.17682 8.15812,-3.87128 17.41114,-13.46726 22.02704,-22.84349 4.01483,-8.15528 4.3741,-9.92775 4.3741,-21.57976 0,-11.47851 -0.40298,-13.54527 -4.20627,-21.57288 -5.19924,-10.97404 -12.80349,-18.51854 -24.30532,-24.11432 -7.98351,-3.88408 -9.97919,-4.29006 -21.00287,-4.27263 -6.73454,0.0107 -12.99438,0.66724 -14,1.46843 -1.00038,0.79704 -4.11757,2.18996 -6.92708,3.09537 -7.31082,2.35604 -20.12867,15.3823 -24.51797,24.9166 -3.11719,6.77106 -3.57454,9.4341 -3.5123,20.45139 0.0899,15.91752 3.75483,24.92751 14.34535,35.26716 7.74456,7.56111 12.72678,10.36463 23.63198,13.29784 9.32461,2.50809 12.34028,2.51684 21.76076,0.0631 z M 347.18669,272.76532 c -0.40129,-1.04576 -0.53245,-40.33431 -0.29148,-87.3079 l 0.43814,-85.40653 -11.36218,11.31034 -11.36217,11.31035 -10.51043,-10.57244 -10.51043,-10.57243 18.53927,-18.934444 c 34.32272,-35.054323 38.01832,-38.592264 40.31211,-38.592264 1.89604,0 57.56049,55.827464 57.56049,57.729048 0,0.33487 -4.65,5.16244 -10.33333,10.72792 l -10.33333,10.11906 -11,-10.92524 -11,-10.92525 -0.0283,59.97057 c -0.0273,58.18914 -0.94144,108.90279 -2.02417,112.3039 -0.81284,2.55325 -27.10872,2.33359 -28.09427,-0.23469 z"
     style="fill:#e9e9e9;stroke-width:1.33333337" />
  <path
     inkscape:connector-curvature="0"
     id="path140"
     d="M 67.762124,602.16191 C 53.783203,596.40147 42.572436,584.47119 38.740688,571.27787 37.617685,567.41119 37.31374,528.74555 37.603919,426.66668 l 0.396082,-139.33334 3.801612,-7.33333 c 4.988861,-9.62355 11.485354,-16.22643 20.904369,-21.24671 12.039457,-6.41696 11.960687,-6.48768 11.960687,10.73735 0,14.51475 -0.08207,14.91745 -3.934235,19.30483 -2.163829,2.46446 -4.287266,6.44368 -4.718752,8.84269 -0.431484,2.39901 -0.611078,63.16184 -0.399098,135.02851 l 0.385418,130.66667 3.201426,4.48871 c 1.760784,2.46879 5.660784,5.60561 8.666667,6.97072 5.260473,2.38901 13.882875,2.48201 230.131915,2.48201 215.18849,0 224.89168,-0.10333 230.00001,-2.44908 2.93333,-1.347 6.47632,-3.73381 7.87332,-5.30405 2.31544,-2.60259 3.88513,-2.85497 17.75652,-2.85497 15.14699,0 15.21259,0.0137 14.35328,3 -3.93305,13.66834 -13.87647,25.14184 -27.31645,31.5199 l -7.33334,3.4801 -234.00001,0.30758 -234.000004,0.30759 z M 128,544.47094 c -19.73862,-6.43369 -32.154482,-18.55889 -36.608066,-35.75106 -1.787972,-6.9021 -2.058598,-25.15673 -2.058598,-138.85955 0,-126.81273 0.08283,-131.17815 2.644665,-139.38654 3.187613,-10.21345 10.401609,-20.01524 19.146119,-26.01421 12.58956,-8.63677 10.19222,-8.45957 114.45122,-8.45957 h 94.42467 v 14 14 h -51.37517 c -39.96885,0 -51.47611,0.37004 -51.82974,1.66666 -0.25001,0.91667 -1.82469,6.76667 -3.49931,13.00001 -3.64266,13.55892 -12.24946,32.64306 -19.60528,43.4715 -2.93733,4.324 -9.8749,12.16791 -15.41684,17.43091 C 163.77401,313.33896 148.80822,320.00245 125,323.2891 l -6.33333,0.87431 v 47.16179 c 0,43.77388 0.16762,47.20953 2.33333,47.82647 1.28334,0.36558 5.89138,1.37098 10.2401,2.23422 12.03961,2.38992 31.56144,10.90414 44.04187,19.20833 24.26864,16.1478 39.40722,40.27769 41.6616,66.4058 l 0.77653,9 h 142.51514 c 112.86172,0 142.61715,-0.34679 143.00544,-1.66667 13.03327,-44.30301 30.05794,-68.46501 57.62617,-81.78504 9.85018,-4.75927 29.36777,-9.80219 38.13317,-9.85278 l 5,-0.0289 v -50.66667 -50.66667 h -3.4978 c -5.21721,0 -30.27099,-8.7161 -40.49144,-14.0868 -18.94731,-9.95652 -35.36769,-26.12472 -44.09936,-43.42205 -4.60142,-9.11535 -9.24474,-26.23038 -9.24474,-34.0756 v -5.74888 h -51.33333 -51.33334 v -14.03383 -14.03381 l 96.33334,0.36714 96.33334,0.36716 7.64772,3.58423 c 9.21016,4.31649 19.14219,13.9956 23.68561,23.08244 l 3.33334,6.66667 V 370.66663 511.3333 l -3.32699,6.51484 c -4.92423,9.64252 -17.88018,20.91144 -28.21563,24.54162 l -8.45739,2.97053 -230.66667,-0.1188 C 233.80001,545.17627 129.1,544.82947 128,544.47094 Z m 61.31019,-29.47092 c -0.0133,-0.55 -0.88389,-5.06188 -1.93589,-10.02642 -5.2508,-24.77908 -24.01165,-42.72474 -55.38283,-52.97637 -6.72757,-2.19847 -12.51151,-3.99721 -12.85321,-3.99721 -0.3417,0 -0.43759,12.4985 -0.2131,27.77445 l 0.40818,27.77444 3.71499,4.86663 c 2.08726,2.73429 5.59249,5.40934 8,6.10529 5.11773,1.4794 58.29514,1.91676 58.26186,0.47919 z M 595.5023,512.3596 c 7.5696,-5.39944 8.49772,-9.35625 8.49772,-36.22776 v -24.13182 h -3.81801 c -7.87008,0 -18.4832,2.81116 -27.72606,7.34396 -15.34701,7.52636 -27.24905,22.58042 -35.69496,45.14812 -1.8852,5.0373 -3.42764,9.72926 -3.42764,10.42656 0,0.77574 11.2556,1.10225 29,0.84125 27.50551,-0.40457 29.21484,-0.57981 33.16895,-3.40031 z M 136.39196,291.08872 c 14.75018,-4.63514 26.68341,-14.39415 35.47771,-29.01372 4.84314,-8.05118 12.5433,-26.52566 14.1067,-33.84523 l 0.94768,-4.4369 -25.79535,0.4369 c -22.61932,0.3831 -26.44143,0.76524 -31.04265,3.10357 -10.3387,5.25412 -10.70039,6.51124 -11.15975,38.78802 l -0.40704,28.6004 5.74037,-0.81222 c 3.15721,-0.4467 8.61675,-1.71609 12.13233,-2.82082 z m 467.35098,-26.19659 -0.40959,-27.10788 -3.70345,-4.85139 c -5.62892,-7.37367 -12.66593,-8.93285 -40.31632,-8.93285 -12.57801,0 -23.17537,0.30626 -23.54969,0.68058 -0.37432,0.37432 0.11053,4.86434 1.0774,9.9778 4.8659,25.7337 22.29634,43.12722 54.0623,53.94779 5.3697,1.82911 10.5474,3.34099 11.50602,3.35974 1.39212,0.0272 1.66048,-5.42187 1.33333,-27.07379 z M 346.23171,448.60674 c -26.00913,-5.17052 -48.68565,-24.9533 -59.09493,-51.55385 -3.51126,-8.97289 -3.79732,-11.05108 -3.72385,-27.05288 0.0681,-14.84141 0.52264,-18.46076 3.16144,-25.17546 10.42089,-26.51703 32.54876,-46.23929 58.35552,-52.01143 36.30094,-8.11936 73.43655,10.22125 89.25338,44.08065 6.23889,13.3557 7.61748,21.14515 6.79577,38.39818 -0.58016,12.18134 -1.3663,16.3189 -4.57621,24.08477 -10.89515,26.35917 -32.53155,44.12667 -60.17648,49.41602 -11.75486,2.24906 -17.93844,2.21072 -29.99464,-0.186 z m 38.52102,-33.35922 c 15.39064,-7.60467 23.7648,-19.07857 27.28562,-37.3856 4.01002,-20.85075 -8.62494,-43.90119 -29.37167,-53.58387 -6.18811,-2.88804 -9.31583,-3.43728 -20.02804,-3.51695 -11.69648,-0.0869 -13.37899,0.24246 -21.39715,4.18978 -10.84007,5.33654 -19.73045,13.97065 -24.71832,24.0058 -3.44736,6.93576 -3.83341,9.04893 -3.84435,21.04333 -0.0107,11.88626 0.40376,14.23376 3.82008,21.62983 6.19027,13.40152 19.82714,24.57525 34.83445,28.54252 2.2,0.58157 8.36369,0.82596 13.6971,0.54305 7.8656,-0.41721 11.59059,-1.44994 19.72228,-5.46789 z m -37.6408,-228.88219 0.88295,-86.968013 -11.02528,10.968013 c -6.06391,6.0324 -11.45903,10.96801 -11.98915,10.96801 -0.95741,0 -19.64711,-18.75058 -19.64711,-19.71112 0,-1.35423 55.48385,-57.622218 56.81921,-57.622218 0.84977,0 6.26308,4.843537 12.02958,10.763416 5.76651,5.919879 18.48818,18.901779 28.27039,28.848668 l 17.78585,18.085254 -9.75248,9.818 c -5.36386,5.3999 -10.17533,9.818 -10.69217,9.818 -0.51684,0 -5.78185,-4.94066 -11.70004,-10.97924 L 377.33335,99.374855 v 30.760595 c 0,16.91833 -0.39767,56.05898 -0.8837,86.97924 l -0.88369,56.21865 h -14.66849 -14.6685 z"
     style="fill:#d3d3d3;stroke-width:1.33333337" />
  <path
     inkscape:connector-curvature="0"
     id="path138"
     d="m 73.333336,604.09407 c -12.125619,-3.72929 -26.0191,-15.1184 -31.799739,-26.06765 l -3.533596,-6.69307 v -142 -142.00001 l 3.74825,-7.11666 c 2.061537,-3.91418 6.261537,-9.62404 9.333333,-12.6886 5.130029,-5.11795 18.406446,-12.8614 22.051315,-12.8614 1.061636,0 1.53377,4.44086 1.53377,14.42652 0,14.12929 -0.08201,14.51838 -3.980547,18.88502 -2.1893,2.45218 -4.312696,6.31024 -4.718656,8.57348 -0.405961,2.26323 -0.564714,63.6257 -0.352786,136.36104 l 0.385322,132.24605 4,4.2515 c 7.973893,8.47524 -8.62694,7.92306 238.202888,7.92306 h 225.62186 l 5.7769,-2.79654 c 3.1773,-1.53811 6.38784,-3.93811 7.13454,-5.33334 1.20776,-2.2567 2.97176,-2.53678 15.9774,-2.53678 16.91766,0 17.20999,0.31041 11.29154,11.9899 -4.24804,8.38311 -12.15596,15.96556 -22.50746,21.58108 l -8.16432,4.42902 -233.33334,0.22628 C 181.66667,605.01743 75.166669,604.65793 73.333336,604.09407 Z M 125.33334,542.8335 c -13.44278,-4.31961 -24.32865,-13.38701 -30.942254,-25.7734 l -3.057749,-5.72675 V 370.66668 230.00001 l 3.533596,-6.69307 c 4.579101,-8.6734 15.226707,-18.56003 24.842317,-23.06685 l 7.62409,-3.57342 96.33333,-0.36716 96.33334,-0.36714 v 14.03381 14.03383 H 268.1484 216.29678 l -0.93201,4.9681 c -1.84283,9.82307 -7.75078,26.58074 -13.39276,37.98799 -13.88918,28.08188 -34.99815,46.31567 -61.45131,53.08124 -5.65434,1.44614 -12.8921,2.62934 -16.08394,2.62934 h -5.80335 l 0.34996,48.27357 0.34997,48.27358 8,1.62652 c 26.61155,5.41053 55.55587,21.66032 69.26891,38.88864 11.78029,14.80012 20.73109,37.19169 20.73109,51.86148 v 5.75489 l 142.97999,-0.33934 142.97998,-0.33934 2.27808,-8.44141 c 6.59235,-24.42781 16.85024,-42.94092 32.29658,-58.28776 16.02758,-15.92437 32.93182,-23.9076 54.38957,-25.68614 l 11.07581,-0.91802 0.34918,-51 c 0.33354,-48.71595 0.23956,-51.00001 -2.09836,-51.00001 -4.30436,0 -23.55563,-6.26472 -33.80902,-11.00208 -25.75044,-11.89742 -43.76121,-28.77458 -53.00052,-49.66458 -3.49959,-7.91255 -8.08543,-26.22133 -8.0986,-32.33334 l -0.009,-4.33333 H 455.3337 404.00036 v -14.03404 -14.03403 l 95.66667,0.36736 95.66667,0.36737 8.7855,4.29907 c 9.66773,4.73079 19.08225,13.78867 24.09079,23.17821 l 3.12372,5.85606 0.35744,138.21887 c 0.35428,136.99363 0.33296,138.28432 -2.405,145.60219 -3.20791,8.57391 -12.21953,19.18872 -20.30618,23.91871 -13.7854,8.06327 1.49037,7.60037 -248.22161,7.52187 -214.31207,-0.0674 -228.53435,-0.21406 -235.42467,-2.42815 z m 63.98029,-28.50015 c -0.0333,-5.06817 -3.82888,-19.47724 -6.50866,-24.70864 -6.39459,-12.48332 -18.81906,-23.93547 -34.00554,-31.34429 -8.50827,-4.15082 -25.76336,-10.2804 -28.93987,-10.2804 -0.66197,0 -1.19289,11.89814 -1.19289,26.73288 0,28.10437 0.51903,31.03692 6.4419,36.39704 5.62459,5.09018 11.86073,6.08401 38.5581,6.14489 l 25.66667,0.0585 -0.0197,-3 z m 404.01519,-0.40543 c 2.56417,-1.5063 6.01417,-4.74504 7.66667,-7.19717 2.85324,-4.23392 3.00453,-5.72413 3.00453,-29.59457 v -25.13616 h -5.71987 c -7.76641,0 -20.05721,3.3494 -27.84524,7.58817 -13.04461,7.09977 -27.88944,26.7826 -34.25366,45.41713 -4.64622,13.60415 -6.74503,12.58166 24.81877,12.09123 25.05487,-0.38928 28.10679,-0.68841 32.3288,-3.16863 z M 129.47891,293.30573 c 25.09779,-4.75969 43.12646,-23.22135 53.83827,-55.13125 5.27812,-15.72327 7.45908,-14.43954 -23.65051,-13.92093 -29.35858,0.48943 -31.69197,1.04182 -37.67857,8.91968 -2.42949,3.197 -2.68917,5.95431 -3.06027,32.49345 -0.34021,24.33076 -0.10117,29 1.48468,29 1.03961,0 5.11948,-0.61243 9.0664,-1.36095 z M 602.36126,236.3609 c -0.93201,-1.89857 -3.99873,-5.30645 -6.81492,-7.57308 l -5.12033,-4.12115 -27.87967,-0.42986 c -22.45433,-0.34623 -27.87515,-0.0868 -27.85651,1.33333 0.0133,0.96976 0.86647,5.74184 1.89719,10.60463 5.42611,25.59961 23.89177,42.92377 57.413,53.86385 l 9.33333,3.04606 0.36124,-26.63591 c 0.26414,-19.47564 -0.0943,-27.56387 -1.33333,-30.08787 z M 343.58983,447.94735 c -8.52164,-2.13329 -23.86525,-9.88243 -31.31767,-15.81668 -19.17444,-15.26834 -31.10572,-42.56439 -29.14491,-66.67688 1.689,-20.76986 9.10589,-36.60505 24.10604,-51.46679 10.5526,-10.45524 24.01524,-17.91899 37.20068,-20.62423 9.84738,-2.02036 27.7445,-2.00116 36.30535,0.0389 11.51061,2.7431 25.41519,10.42463 35.09895,19.39031 15.95137,14.76852 23.91192,31.83952 25.12325,53.87555 0.83248,15.14425 -1.30472,25.17192 -8.525,39.99908 -5.58701,11.47316 -19.90793,26.91831 -29.76984,32.10684 -15.10888,7.94907 -21.25457,9.56908 -38,10.01688 -8.8,0.23534 -18.28459,-0.14404 -21.07685,-0.84305 z m 39.43454,-31.06695 c 4.56324,-2.03025 10.5488,-6.29407 14.71814,-10.48445 25.42653,-25.55491 18.00633,-66.78654 -14.78507,-82.15586 -6.67625,-3.12916 -9.28172,-3.57341 -20.95743,-3.57341 -11.61018,0 -14.28106,0.44974 -20.66666,3.48009 -20.76929,9.85624 -33.37351,32.90696 -29.37167,53.71515 4.11202,21.38113 18.07605,36.90573 38.03833,42.2894 7.75188,2.09061 24.75994,0.40604 33.02436,-3.27092 z M 347.7068,272.59569 c -0.45379,-0.45379 -0.51672,-39.92346 -0.13985,-87.71038 l 0.68522,-86.885307 -11.71772,11.730947 -11.71772,11.73094 -9.95275,-9.95275 -9.95273,-9.95274 27.84812,-28.7782 c 15.31648,-15.828009 28.47476,-28.778198 29.24064,-28.778198 0.76588,0 13.91931,12.945169 29.22984,28.767045 l 27.83734,28.767043 -9.8363,9.90239 -9.83629,9.90238 -11.03063,-10.97332 -11.03062,-10.973329 -0.18627,14.637229 c -0.10245,8.05048 -0.55245,47.03723 -1,86.63723 l -0.81373,72.00001 -13.40074,0.37704 c -7.37041,0.20737 -13.77202,0.005 -14.22581,-0.44803 z"
     style="fill:#afafaf;stroke-width:1.33333337" />
  <path
     inkscape:connector-curvature="0"
     id="path136"
     d="M 70.96471,602.71329 C 57.246903,597.76182 48.655374,590.22353 41.713388,577.04789 l -3.713387,-7.04787 V 429.33335 288.66668 l 2.997252,-6.18607 c 4.58719,-9.46757 14.048884,-19.12915 23.222823,-23.71343 4.46113,-2.22924 8.636621,-3.72841 9.278869,-3.33149 0.642248,0.39693 1.167724,6.89329 1.167724,14.43636 0,12.24396 -0.3006,13.98669 -2.803172,16.25149 -6.801577,6.15535 -6.530161,0.1863 -6.530161,143.61309 v 133.86903 l 3,4.39504 c 1.65,2.41727 5.090639,5.50599 7.645864,6.86384 4.469365,2.37503 13.275514,2.46881 231.7985,2.46881 207.02313,0 227.55772,-0.19222 231.72375,-2.16913 2.5141,-1.19301 5.69113,-3.59301 7.06006,-5.33333 2.33991,-2.97471 3.33586,-3.1642 16.6304,-3.1642 15.92407,0 15.80523,-0.10027 11.47752,9.68325 -4.1876,9.46676 -13.66592,19.02036 -23.77857,23.9674 l -8.89084,4.34935 -232.00001,0.293 c -225.169943,0.28438 -232.207126,0.21825 -239.0353,-2.2464 z m 59.93702,-58.8066 c -14.99497,-2.9509 -27.86296,-12.31711 -34.995273,-25.47199 l -4.57312,-8.43468 V 370.66668 231.33334 l 2.9585,-6.09847 c 3.96673,-8.17677 12.406653,-17.55206 19.591283,-21.76254 12.67382,-7.42735 13.35824,-7.47232 113.73035,-7.47232 h 92.38654 v 14 14 h -51.93733 -51.93733 l -1.38857,5 c -0.76371,2.75 -1.39192,5.75112 -1.396,6.66917 -0.0133,2.9376 -7.50923,23.43583 -11.34011,31.00959 -8.38505,16.57747 -21.7127,32.51496 -34.2216,40.92291 -11.97314,8.04785 -32.60032,14.97678 -44.77907,15.04185 l -4.33333,0.0231 v 48.49625 48.49626 l 5.66667,0.89662 c 9.05294,1.43243 21.71324,5.69202 33.92129,11.4129 34.83152,16.3226 54.38367,42.27111 58.54526,77.69797 l 0.9006,7.66667 h 142.88259 142.88259 l 3.55293,-12.64072 c 4.05272,-14.41891 11.93194,-31.0144 20.27846,-42.71121 15.57956,-21.8332 39.74188,-35.52642 66.30213,-37.57459 l 10.40083,-0.80206 V 372.61268 321.6206 l -9.66667,-2.29515 c -12.0574,-2.86277 -32.39061,-11.34013 -42.21756,-17.6014 -26.8207,-17.08889 -40.18625,-38.41689 -44.7382,-71.39071 l -0.87431,-6.33333 H 455.205 403.90672 l 0.37999,-13.66667 0.37997,-13.66667 90.66667,-0.35721 c 56.95756,-0.2244 93.01082,0.13989 96.97166,0.97985 15.07093,3.19599 27.18589,12.20204 34.45884,25.61612 l 4.56951,8.42791 v 138.6945 138.6945 l -4.38934,8.91621 c -4.56792,9.27899 -11.6328,16.54362 -20.56869,21.15022 -13.02143,6.71278 -5.37914,6.51438 -245.70865,6.37878 -123.20001,-0.0695 -226.59424,-0.63689 -229.76495,-1.26086 z m 58.39901,-30.90667 c -0.19495,-25.91762 -21.40112,-49.45016 -55.1481,-61.19798 -16.94887,-5.90014 -15.48597,-8.13968 -15.48597,23.70727 0,31.49025 0.68413,33.91069 11.0326,39.03312 5.15587,2.55211 7.92572,2.78891 32.63407,2.78987 l 27,10e-4 -0.0327,-4.33333 z m 403.27832,1.68645 c 2.98152,-1.45579 6.77096,-4.64292 8.42096,-7.08251 2.85933,-4.22764 3,-5.66652 3,-30.68645 0,-20.11715 -0.38943,-26.24847 -1.66667,-26.24076 -5.44293,0.0329 -19.8037,3.20884 -25.57922,5.65693 -9.38442,3.97784 -19.58391,11.90322 -25.96779,20.17791 -5.26511,6.82456 -14.86083,25.93932 -16.58187,33.03123 -0.47285,1.94853 -1.22649,4.49853 -1.67474,5.66666 -0.72948,1.90096 2.0944,2.12387 26.90668,2.12387 24.94324,0 28.265,-0.26529 33.14265,-2.64688 z M 133.76054,292.67302 c 10.79971,-2.81296 17.62573,-6.60826 25.81483,-14.35317 11.0121,-10.41479 21.30712,-28.33615 25.69913,-44.73658 0.84693,-3.16253 1.87083,-6.61253 2.27533,-7.66666 0.62455,-1.62752 -3.25796,-1.91219 -25.7405,-1.88732 -30.0226,0.0332 -35.41189,1.3071 -40.44346,9.55986 -2.47353,4.05706 -2.68963,6.68349 -2.69422,32.74419 l -0.005,28.33334 h 3.71987 c 2.04593,0 7.16423,-0.89715 11.374,-1.99366 z m 470.23948,-26.84897 c 0,-31.54187 -0.70429,-34.01195 -11.13791,-39.06278 -5.17692,-2.50609 -8.12938,-2.76126 -31.94972,-2.76126 h -26.2457 v 3.85954 c 0,5.22995 4.95286,21.06779 8.38321,26.80713 6.95901,11.64316 17.33688,20.76314 32.28024,28.36762 6.86757,3.49482 24.59827,10.05615 27.66988,10.23939 0.55,0.0328 1,-12.31952 1,-27.44964 z M 348.66668,448.515 c -19.77951,-5.07817 -31.81764,-11.79724 -43.69584,-24.38876 -16.27048,-17.24756 -24.25888,-41.61923 -20.93019,-63.85548 5.89348,-39.36947 38.6556,-68.27075 77.39084,-68.27075 14.42586,0 22.80204,1.90591 35.59959,8.10028 19.09465,9.24233 34.26836,26.85776 40.47678,46.99022 9.63676,31.24972 -1.38911,66.23118 -26.9261,85.42768 -15.88767,11.94297 -25.88673,15.52172 -45.24841,16.19477 -7.7,0.26767 -15.2,0.17859 -16.66667,-0.19796 z m 34.57137,-31.24039 c 10.27832,-5.12181 20.08994,-14.9156 25.06315,-25.01764 4.00831,-8.14204 4.36548,-9.90972 4.36548,-21.60545 0,-14.16776 -1.79399,-19.91377 -9.65276,-30.91719 -10.21832,-14.30711 -31.15861,-22.82709 -48.49443,-19.73093 -12.0058,2.14421 -21.63917,7.39254 -29.88915,16.28384 -25.67164,27.66723 -13.80148,71.19729 22.70301,83.25609 8.78912,2.90338 27.95585,1.69228 35.9047,-2.26872 z m -34.99028,-231.2746 c 0.33034,-48.03334 0.2716,-87.33334 -0.13053,-87.33334 -0.40212,0 -5.85647,5.10157 -12.12075,11.33683 l -11.3896,11.33684 -9.66579,-9.73073 -9.66577,-9.73072 18.36373,-18.606111 c 10.10007,-10.23336 22.77513,-23.25611 28.16681,-28.939444 5.39169,-5.683333 10.20437,-10.333333 10.69485,-10.333333 0.49049,0 13.41809,12.944644 28.728,28.765875 l 27.83621,28.765873 -9.16337,9.23413 C 404.86172,115.84465 400.10709,120 399.33573,120 c -0.77134,0 -5.87242,-4.5 -11.33572,-10 -5.46329,-5.5 -10.39828,-10 -10.96662,-10 -0.56836,0 -1.0346,23.25 -1.03611,51.66667 -10e-4,28.41667 -0.39779,67.41667 -0.88064,86.66667 l -0.87792,35 h -13.29577 -13.29578 z"
     style="fill:#8c8c8c;stroke-width:1.33333337" />
  <path
     inkscape:connector-curvature="0"
     id="path134"
     d="m 71.230945,602.18986 c -4.456316,-1.66112 -10.354666,-4.4122 -13.107444,-6.11352 -7.225489,-4.46559 -14.791397,-14.73001 -18.029208,-24.45964 -2.794686,-8.39804 -2.808262,-9.20093 -2.452268,-145.03074 l 0.357976,-136.58595 4.357526,-8.90797 c 4.9721,-10.16435 12.776172,-17.78032 23.337213,-22.77472 l 6.971929,-3.29708 0.378991,14.7026 c 0.365865,14.19338 0.261052,14.8257 -3.02626,18.25693 -1.87289,1.95487 -3.993435,5.60519 -4.712326,8.1118 -1.956985,6.82361 -1.7592,260.82437 0.207682,266.70949 2.165562,6.47959 7.274007,11.4294 14.248176,13.80573 5.356678,1.82522 31.359958,2.0599 228.237078,2.0599 244.49016,0 229.861,0.49529 238.05738,-8.0599 3.70374,-3.86586 4.03398,-3.9401 17.52542,-3.9401 8.00909,0 13.75054,0.54085 13.75054,1.29532 0,0.71241 -1.42653,4.46241 -3.17006,8.33333 -4.91864,10.92007 -11.67172,17.70337 -23.26698,23.37112 l -10.22962,5.00023 -230.66668,0.27169 -230.666674,0.27171 z m 55.429035,-59.55909 c -12.52194,-3.00098 -25.40499,-13.76411 -31.619454,-26.41645 l -3.707189,-7.54764 v -138 -138.00001 l 3.562938,-7.59802 c 4.097482,-8.73795 13.077825,-18.30747 20.948345,-22.32271 12.9515,-6.60736 16.15398,-6.78925 113.07011,-6.42195 l 90.41861,0.34268 0.3798,13.65115 0.37982,13.65115 -52.33008,0.34885 -52.33007,0.34885 -1.1588,5.33334 c -3.76766,17.34065 -12.40772,38.05225 -21.73742,52.10803 -5.70213,8.59061 -20.81757,23.04813 -29.28518,28.01048 -8.74619,5.1256 -26.22966,10.75896 -36.93454,11.90069 l -9.01647,0.96165 0.3498,48.05497 0.3498,48.05494 13.33334,3.56644 c 22.74141,6.08294 36.07732,12.51455 51.57756,24.87471 17.64772,14.0726 27.62852,31.17512 32.25151,55.26426 l 2.78985,14.53717 h 142.99847 142.99849 l 0.80976,-3.66667 c 5.19948,-23.54364 18.05924,-48.35788 32.59303,-62.89166 15.62541,-15.62543 31.21676,-22.95834 55.31468,-26.01558 l 12,-1.52241 v -50.61851 -50.61851 l -6,-1.72961 c -3.3,-0.95128 -10.8,-3.27403 -16.66667,-5.16164 -42.66617,-13.72798 -70.02387,-44.20695 -73.52872,-81.91773 l -0.85134,-9.16006 -51.47664,-0.34882 -51.47664,-0.34881 v -13.33333 -13.33334 h 92.66667 c 83.69202,0 93.37943,0.22094 100.02616,2.28128 15.54908,4.81988 26.68837,15.62592 31.93293,30.97762 2.65006,7.75718 2.70758,10.74727 2.70758,140.74111 0,131.45167 -0.0288,132.90079 -2.80325,141.11644 -3.60355,10.67067 -13.26764,21.48043 -24.41256,27.30665 l -8.11752,4.24358 -232.66668,0.20871 c -127.96667,0.1148 -234.76968,-0.29529 -237.34003,-0.91129 z m 63.06707,-26.29742 c 0.3031,-0.55 -0.18082,-5.21073 -1.07536,-10.3572 -3.53138,-20.31644 -16.1126,-35.92249 -38.75484,-48.07243 -6.1405,-3.29501 -23.5164,-9.45548 -28.56351,-10.12692 L 118,447.33335 l -0.36151,26.33121 c -0.33102,24.10994 -0.13672,26.77184 2.30315,31.55439 2.48422,4.86947 7.37457,9.39239 12.05836,11.15236 3.03975,1.14221 57.09626,1.10667 57.72705,-0.038 z m 406.09501,-2.86809 c 8.14773,-5.81111 9.44887,-11.00363 9.48201,-37.84042 0.034,-27.55169 0.75931,-26.30637 -13.86928,-23.81389 -18.19053,3.09937 -33.73094,13.31988 -44.17285,29.05127 -4.77955,7.20069 -12.75576,25.07625 -14.66979,32.87657 l -0.91741,3.73877 29.82931,-0.40544 c 29.03784,-0.39468 29.9484,-0.49038 34.31801,-3.60686 z M 133.1792,293.18782 c 17.40531,-3.91956 33.8031,-18.07661 43.80922,-37.82276 3.36991,-6.65018 11.01159,-27.48948 11.01159,-30.02921 0,-1.85224 -52.00498,-1.77338 -56.91321,0.0863 -2.0644,0.78219 -5.15585,2.73219 -6.86989,4.33334 -6.09646,5.695 -6.88357,10.06136 -6.88357,38.18517 0,14.45488 0.37083,26.65244 0.82407,27.10568 0.87033,0.87034 5.38382,0.31192 15.02179,-1.85848 z m 471.84729,-25.87174 c 0.34205,-24.06623 0.2104,-25.60843 -2.66667,-31.23802 -5.66445,-11.08372 -6.56645,-11.35488 -39.31805,-11.8198 l -28.77066,-0.40841 0.84984,8.13084 c 1.96168,18.76835 15.68526,38.00169 34.70467,48.63796 9.47581,5.29917 29.66927,12.89589 32.84107,12.35472 1.68054,-0.28673 2.05746,-4.38487 2.3598,-25.65729 z M 345.33335,447.25324 c -19.38846,-4.17918 -41.94411,-20.4212 -50.80861,-36.58656 -8.09977,-14.77081 -9.86344,-22.10267 -9.78233,-40.66667 0.0677,-15.50792 0.44921,-18.28537 3.62201,-26.37342 9.24232,-23.56041 26.66132,-39.89693 51.63559,-48.42677 10.9923,-3.75437 33.66682,-3.51125 45.64504,0.4894 28.53322,9.52991 47.79582,31.28804 53.63882,60.58791 2.55405,12.80735 2.55405,15.97175 0,28.7791 -6.15828,30.88084 -30.73986,55.85847 -61.28386,62.27125 -11.4409,2.40206 -21.28221,2.3797 -32.66666,-0.0743 z m 35.18196,-28.66385 c 14.53062,-5.478 26.78296,-18.51188 30.98292,-32.95922 3.124,-10.74617 2.05102,-26.69012 -2.45838,-36.53036 -6.30008,-13.74781 -18.11912,-23.65216 -33.95993,-28.45843 -13.32035,-4.04153 -29.43644,-0.97142 -42.64135,8.12315 -25.34389,17.455 -29.00607,53.72983 -7.72163,76.48463 14.91986,15.95051 35.69777,20.91808 55.79837,13.34023 z m -31.97116,-233.58938 0.94797,-88.33334 -12.08756,11.98034 -12.08756,11.98033 -9.53584,-9.53585 -9.53586,-9.53585 27.84778,-28.777816 c 15.31627,-15.827802 27.94907,-28.777822 28.07289,-28.777822 0.12387,0 4.6347,4.65 10.02418,10.333333 5.38948,5.683334 18.00018,18.733334 28.0238,29.000001 L 418.43868,102 l -9.21381,9.30939 -9.2138,9.3094 -11.03338,-10.97606 C 382.90933,103.6059 377.579,98.66667 377.13251,98.66667 c -0.44651,0 -1.2584,39.3 -1.80423,87.33334 l -0.99241,87.33333 h -13.36986 -13.36985 z"
     style="fill:#6e6e6e;stroke-width:1.33333337" />
  <path
     inkscape:connector-curvature="0"
     id="path132"
     d="M 74.000003,602.77667 C 58.985759,598.52138 46.764027,587.6749 41.044464,573.52947 l -3.044463,-7.52945 -0.381661,-134 c -0.2866,-100.62378 0.01468,-135.49446 1.209589,-140.00001 2.03069,-7.65695 5.863405,-15.40627 10.55119,-21.33333 3.639702,-4.60191 15.107805,-12.24428 20.954217,-13.96395 2.975953,-0.87535 3,-0.77079 3,13.04417 0,11.04016 -0.434717,14.28738 -2.097451,15.66732 -1.153597,0.9574 -3.253597,4.00696 -4.666667,6.7768 -2.485597,4.87218 -2.569216,9.33886 -2.569216,137.24101 v 132.20491 l 2.848807,5.06877 c 1.78688,3.17932 5.208995,6.35334 9.180438,8.51487 l 6.331632,3.44611 H 307.86165 533.36242 l 6.02608,-2.8326 c 3.31435,-1.55792 6.82907,-3.97902 7.81051,-5.38022 1.59745,-2.28068 3.26696,-2.50778 15.93345,-2.1674 l 14.14903,0.38022 -3.2101,6.92238 c -4.6716,10.07399 -8.44182,14.6217 -16.62512,20.05347 -15.5304,10.30848 2.42528,9.62595 -250.11293,9.50732 -207.88449,-0.0976 -225.952822,-0.28143 -233.333337,-2.37319 z m 52.572467,-60.59036 c -14.12274,-3.8298 -26.673061,-15.00098 -32.194671,-28.65684 l -3.044462,-7.52945 -0.413572,-131.33334 c -0.306207,-97.23844 -0.0052,-133.23711 1.1594,-138.66667 3.35387,-15.63604 12.807935,-27.52228 27.254175,-34.26567 l 8,-3.73433 96.33333,-0.36716 96.33334,-0.36715 v 12.70048 12.70049 l -51,0.0204 c -28.05,0.0107 -51.67463,0.46123 -52.49916,1 -0.82454,0.53878 -1.92954,3.07959 -2.45554,5.64626 -5.738,27.99856 -20.65981,55.74997 -38.25052,71.13789 -12.85976,11.2494 -30.84026,18.66986 -52.12812,21.51298 l -6.33333,0.84586 v 48.38582 48.38581 l 10.33333,2.40988 c 51.4416,11.99691 83.93296,43.85523 87.86404,86.15214 l 0.85334,9.18148 143.9659,-0.33925 143.96591,-0.33927 3.58906,-12.11227 c 7.18283,-24.24038 17.9475,-42.61297 33.29014,-56.8179 14.66992,-13.58211 31.88809,-20.80062 55.34851,-23.20421 l 8.82076,-0.90372 -0.34883,-51.43225 -0.34881,-51.43226 -9.33334,-2.2627 c -13.99825,-3.39364 -20.9035,-5.8431 -31.61908,-11.21604 -32.65684,-16.3746 -50.13192,-39.63586 -54.88045,-73.05193 l -1.54894,-10.90005 -50.97576,-0.34917 -50.97577,-0.34919 v -12.68507 -12.68508 l 95,0.36759 95,0.36759 8.31242,3.83936 c 13.18052,6.08786 22.92719,17.99998 26.85975,32.8273 1.19466,4.50434 1.49618,39.07078 1.2096,138.66668 l -0.38176,132.66667 -3.20506,7.95868 c -4.04037,10.03291 -14.55593,20.82773 -25.10392,25.77059 l -7.69103,3.60406 -231.33334,0.25279 c -180.50306,0.19725 -232.6724,-0.11033 -237.42754,-1.39983 z m 64.0942,-26.76579 c 0,-4.26861 -4.12661,-21.13734 -6.14977,-25.13901 -6.75043,-13.35184 -19.20579,-24.89911 -35.94509,-33.32439 -10.33691,-5.20281 -27.92301,-10.8488 -29.92941,-9.60877 -0.78694,0.48636 -1.30906,11.60091 -1.30906,27.86651 0,25.93558 0.1257,27.244 3.03173,31.55625 1.66745,2.47433 5.05618,5.86307 7.53051,7.53051 4.33844,2.92368 5.53722,3.03173 33.63493,3.03173 24.41982,0 29.13616,-0.30964 29.13616,-1.91283 z m 404.90602,-1.5431 c 2.06837,-1.5341 5.11066,-4.77283 6.76066,-7.19718 2.85592,-4.19621 3,-5.64718 3,-30.21073 v -25.80283 h -6.38653 c -27.39969,0 -51.10825,20.19832 -64.16711,54.66667 -4.95942,13.09019 -7.01878,12.19911 27.12631,11.73757 27.90995,-0.37725 30.15701,-0.59041 33.66667,-3.1935 z M 132.37901,293.9018 c 25.36329,-6.57228 41.75545,-24.5806 52.96176,-58.18345 1.64132,-4.92157 2.62992,-9.87157 2.1969,-11 -0.66588,-1.73524 -4.27968,-2.05168 -23.43018,-2.05168 -25.12867,0 -33.72186,1.30034 -38.98624,5.89946 -7.25537,6.3385 -7.78791,8.96972 -7.78791,38.47877 0,14.94754 0.4,27.57734 0.88889,28.06622 1.39937,1.39938 5.41242,1.05657 14.15678,-1.20932 z m 472.95434,-27.7833 c 0,-25.93558 -0.12573,-27.244 -3.03173,-31.55625 -7.15236,-10.61339 -13.77309,-12.27727 -46.3016,-11.6362 l -20.66667,0.40729 0.2095,8.66667 c 0.43004,17.79104 13.57596,36.71101 33.7905,48.63224 8.72434,5.14504 33.11982,14.32377 34.99307,13.16604 0.55381,-0.34228 1.00693,-12.79819 1.00693,-27.67979 z M 348.66668,447.395 c -39.97551,-7.27134 -66.87798,-41.76949 -64.15591,-82.2698 2.40639,-35.80328 27.04116,-63.83176 62.43303,-71.03384 13.45741,-2.73852 19.40632,-2.628 32.92011,0.6116 26.09086,6.25464 46.16636,23.90269 55.65293,48.92363 4.57146,12.05725 5.70987,31.70146 2.60139,44.88905 -7.13271,30.26012 -31.83996,53.38408 -62.80975,58.78476 -13.48495,2.35158 -14.21928,2.35419 -26.6418,0.0947 z m 28.9882,-27.3556 c 19.34449,-6.47365 32.38069,-21.86748 35.90045,-42.39312 1.33944,-7.81105 1.2316,-10.4658 -0.74698,-18.38767 -1.27184,-5.09222 -3.7235,-11.67924 -5.44814,-14.63781 -4.52077,-7.75529 -15.58026,-17.58176 -24.40064,-21.68022 -6.63016,-3.08074 -9.36769,-3.54769 -20.95956,-3.57513 -11.93416,-0.0283 -14.12977,0.35952 -20.92294,3.69521 -11.2589,5.52851 -20.25775,14.27997 -25.36963,24.67214 -4.11467,8.36491 -4.37172,9.72389 -4.33412,22.91309 0.0352,12.32347 0.46918,14.94675 3.58546,21.66974 10.76166,23.21696 38.93557,35.67526 62.6961,27.72377 z m -26.66487,-147.66691 -3.00998,-0.56057 0.89524,-87.23929 c 0.5239,-51.05347 0.40073,-87.239293 -0.29696,-87.239293 -0.65572,0 -6.31807,5.102113 -12.58302,11.338033 l -11.39081,11.33803 -9.16803,-9.23882 -9.16803,-9.23883 27.83622,-28.765873 c 15.30991,-15.821231 27.86283,-28.765875 27.89537,-28.765875 0.0325,0 12.58547,12.944644 27.89538,28.765875 l 27.83621,28.765873 -9.16729,9.23809 -9.1673,9.23808 -10.99089,-10.93379 c -6.04499,-6.01359 -11.36239,-10.562296 -11.81643,-10.108248 -0.45405,0.454049 -1.16532,39.826118 -1.58058,87.493508 l -0.75504,86.66797 -10.12703,-0.0972 c -5.56987,-0.0535 -11.48152,-0.34942 -13.13703,-0.65772 z"
     style="fill:#4f4f4f;stroke-width:1.33333337" />
  <path
     inkscape:connector-curvature="0"
     id="path130"
     d="M 79.333336,603.66609 C 56.916807,598.02541 44.582943,586.3697 39.212524,565.75127 36.376431,554.86278 36.429113,303.60165 39.269777,292.69561 43.401516,276.8328 52.317651,265.65976 66.000002,259.19929 l 6.666667,-3.14784 0.382288,13.51689 c 0.359572,12.71372 0.190995,13.72232 -2.837085,16.97428 -1.770655,1.90156 -3.892684,4.76795 -4.715622,6.36974 -1.07684,2.096 -1.496248,40.44192 -1.496248,136.79995 v 133.8876 l 3.845047,5.30794 c 7.708824,10.64172 -14.018095,9.75884 240.154961,9.75884 247.90454,0 231.29309,0.51548 238.73725,-7.40846 2.84339,-3.02664 3.99204,-3.25821 16.16184,-3.25821 8.71075,0 13.10092,0.49596 13.10092,1.48003 0,3.5663 -8.94589,17.78849 -13.80569,21.9483 -6.1024,5.22343 -14.80872,9.71423 -22.72712,11.72287 -7.47786,1.89688 -452.661976,2.39501 -460.133874,0.51487 z M 132,543.08265 c -5.94094,-1.0275 -15.19898,-4.90888 -21.00864,-8.8078 -6.25657,-4.19884 -10.39763,-9.18667 -15.172395,-18.27483 l -3.152295,-6 V 370.66668 231.33334 l 3.333333,-6.66667 c 4.538957,-9.07792 14.248997,-18.5396 23.582977,-22.9798 l 7.75036,-3.68686 96,-0.38251 96,-0.38252 v 12.71585 12.71584 h -52.06802 -52.06803 l -2.96763,11.94944 c -6.19127,24.92983 -16.45861,44.31735 -31.93113,60.29455 -14.35668,14.82498 -29.78474,22.47428 -51.56392,25.56566 L 118,322.00001 v 49.27874 49.27874 l 7.33334,1.5209 c 16.54602,3.43154 37.73069,12.14679 49.93268,20.54197 23.14816,15.92636 35.93684,36.83823 39.98301,65.37966 l 1.41764,10 143.61657,0.3393 c 135.77978,0.32079 143.68022,0.21166 144.78302,-2 0.64156,-1.28661 1.93089,-5.9393 2.86521,-10.3393 0.93431,-4.4 2.15375,-8.6 2.70988,-9.33334 0.55612,-0.73333 1.73715,-3.58724 2.62449,-6.342 2.26523,-7.03236 11.19742,-22.95054 17.36187,-30.94082 5.94495,-7.70575 20.544,-20.20648 27.79259,-23.79796 10.74825,-5.32548 18.80449,-7.6973 30.91305,-9.10106 6.96667,-0.80764 13.41667,-1.67831 14.33334,-1.93479 1.29668,-0.36282 1.66666,-11.95129 1.66666,-52.20304 v -51.73668 l -12.33333,-3.20667 c -36.58901,-9.51314 -61.80028,-27.67765 -74.85167,-53.93001 -5.22023,-10.50028 -7.06004,-16.80217 -9.09128,-31.14031 l -1.36945,-9.66667 h -51.17714 -51.17713 v -12.717 -12.71698 l 95.12932,0.38365 c 67.668,0.27292 95.66934,0.81463 97,1.87657 1.02888,0.8211 4.09195,2.20814 6.80682,3.08232 10.12009,3.25864 22.06513,17.94916 25.55188,31.42478 2.0584,7.95532 2.77931,262.2933 0.76341,269.33334 -6.14785,21.46992 -12.33099,29.00582 -30.58476,37.2762 -5.95885,2.69982 -7.57263,2.7196 -235.33334,2.88403 C 238.53334,543.58465 133.83334,543.39971 132,543.08265 Z m 58.42193,-30.21854 c 0.65357,-7.95569 -4.32555,-22.20088 -10.86466,-31.08364 -10.88822,-14.7906 -26.50929,-25.3536 -47.21036,-31.92376 -16.43264,-5.21543 -15.01357,-7.60481 -15.01357,25.27947 0,27.3276 0.12076,28.6512 3.01076,33 1.65592,2.49177 5.70592,5.89202 9,7.55609 5.72754,2.8934 7.18352,3.00992 33.32257,2.66667 l 27.33334,-0.35892 z m 401.00097,3.85108 c 5.11488,-2.13713 8.01825,-4.62612 11.56833,-9.91727 2.01566,-3.00418 2.32572,-6.98885 2.33334,-29.98585 l 0.009,-26.52127 -11,0.69191 c -26.9782,1.69697 -49.25936,22.47616 -60.87076,56.76749 -1.56752,4.62928 -2.50245,8.97928 -2.07761,9.66667 0.43982,0.71168 12.52602,1.24981 28.06989,1.24981 20.94652,0 28.38411,-0.45402 31.96803,-1.95149 z M 144.76426,289.99381 c 11.9934,-5.76581 22.83155,-16.53395 30.67964,-30.48145 6.73225,-11.96446 14.60464,-33.99715 12.79421,-35.80758 -0.65504,-0.65504 -13.77509,-1.0066 -29.15566,-0.78121 l -27.96467,0.40977 -4.89362,3.73559 c -8.53875,6.51813 -8.89082,8.11725 -8.89082,40.38232 v 28.91701 l 9,-0.92028 c 6.05215,-0.61885 12.089,-2.4053 18.43092,-5.45417 z m 460.56909,-23.79375 v -28.46661 l -3.84504,-5.30794 c -6.54326,-9.0327 -9.51545,-9.75884 -39.94444,-9.75884 -17.49666,0 -27.02337,0.49118 -27.59922,1.42294 -0.4837,0.78261 -0.15832,5.43261 0.72304,10.33333 1.65189,9.18526 7.17777,21.56583 13.09986,29.34987 7.45114,9.79383 26.03959,21.42671 44.04162,27.56177 14.81969,5.05055 13.52418,7.45823 13.52418,-25.13452 z m -259.2927,180.37846 c -3.6443,-0.60932 -7.8443,-1.67457 -9.33333,-2.36725 -16.28639,-7.57619 -19.55836,-9.71881 -28.82823,-18.87792 -12.86468,-12.71098 -18.63513,-23.79351 -21.93695,-42.13139 -2.2387,-12.43357 -2.23737,-13.56425 0.0301,-25.60364 6.42568,-34.11638 30.60132,-58.06411 64.02768,-63.42411 10.40901,-1.66911 13.56473,-1.67283 23.80201,-0.028 12.09484,1.94323 22.45298,5.60889 29.53132,10.45093 16.71702,11.4355 26.77181,24.53211 32.81033,42.73626 4.03649,12.16868 4.35364,33.53481 0.663,44.66667 -7.55527,22.78854 -21.50318,39.33885 -40.40469,47.94336 -3.52109,1.60289 -7.41273,3.45195 -8.6481,4.109 -6.42832,3.41904 -28.41068,4.75028 -41.71323,2.52615 z m 36.06959,-27.39673 c 2.99396,-1.40506 8.51484,-4.89684 12.26863,-7.75952 30.8851,-23.55328 25.32498,-71.59191 -10.25203,-88.57602 -13.38599,-6.39032 -29.14895,-6.37273 -43.66573,0.0487 -9.67635,4.28032 -23.45519,18.66692 -27.23699,28.43837 -4.31244,11.14254 -4.33258,27.53926 -0.0471,38.37944 5.37457,13.59514 19.43195,26.10143 36.15634,32.16688 4.69242,1.7018 27.38128,-0.16572 32.77689,-2.69788 z M 348.54195,236.33334 c 1.84745,-85.34207 2.2841,-138.744127 1.14022,-139.451079 -0.66485,-0.410904 -6.25208,4.322489 -12.41605,10.518659 -6.16398,6.19616 -11.70351,11.26575 -12.31007,11.26575 -1.15604,0 -16.91997,-16.177 -16.89073,-17.33333 0.009,-0.36667 12.14837,-13.116161 26.97577,-28.332207 l 26.95892,-27.665535 9.66667,8.814129 c 5.31667,4.847772 9.66667,9.327034 9.66667,9.953917 0,0.626882 8.18376,9.309361 18.18613,19.294396 l 18.18613,18.15461 -8.48094,8.55701 c -4.66452,4.70636 -8.98684,8.55701 -9.60515,8.55701 -0.61829,0 -5.95653,-4.8 -11.86275,-10.66667 -5.90621,-5.86666 -11.23061,-10.666663 -11.83201,-10.666663 -0.6014,0 -1.02059,1.35 -0.93152,3.000003 0.0891,1.65 0.052,40.95 -0.0823,87.33333 l -0.24429,84.33334 h -13.44841 -13.44843 z"
     style="fill:#353535;stroke-width:1.33333337" />
</svg>
