<?xml version="1.0" encoding="UTF-8" standalone="no"?>
<!-- Created with Inkscape (http://www.inkscape.org/) -->

<svg
   xmlns:dc="http://purl.org/dc/elements/1.1/"
   xmlns:cc="http://creativecommons.org/ns#"
   xmlns:rdf="http://www.w3.org/1999/02/22-rdf-syntax-ns#"
   xmlns:svg="http://www.w3.org/2000/svg"
   xmlns="http://www.w3.org/2000/svg"
   xmlns:xlink="http://www.w3.org/1999/xlink"
   xmlns:sodipodi="http://sodipodi.sourceforge.net/DTD/sodipodi-0.dtd"
   xmlns:inkscape="http://www.inkscape.org/namespaces/inkscape"
   version="1.1"
   id="svg154"
   width="666.66669"
   height="666.66669"
   viewBox="0 0 666.66669 666.66669"
   sodipodi:docname="umroh.svg"
   inkscape:version="0.92.3 (2405546, 2018-03-11)">
  <metadata
     id="metadata160">
    <rdf:RDF>
      <cc:Work
         rdf:about="">
        <dc:format>image/svg+xml</dc:format>
        <dc:type
           rdf:resource="http://purl.org/dc/dcmitype/StillImage" />
        <dc:title></dc:title>
      </cc:Work>
    </rdf:RDF>
  </metadata>
  <defs
     id="defs158" />
  <sodipodi:namedview
     pagecolor="#ffffff"
     bordercolor="#666666"
     borderopacity="1"
     objecttolerance="10"
     gridtolerance="10"
     guidetolerance="10"
     inkscape:pageopacity="0"
     inkscape:pageshadow="2"
     inkscape:window-width="1366"
     inkscape:window-height="705"
     id="namedview156"
     showgrid="false"
     inkscape:zoom="0.35399999"
     inkscape:cx="333.33334"
     inkscape:cy="333.33334"
     inkscape:window-x="-8"
     inkscape:window-y="-8"
     inkscape:window-maximized="1"
     inkscape:current-layer="svg154" />
  <image
     sodipodi:absref="E:\Project-website\tanyabudi\public\assets\images\icon\umroh.png"
     xlink:href="umroh.png"
     y="0"
     x="0"
     id="image162"
     preserveAspectRatio="none"
     height="666.66669"
     width="666.66669" />
  <path
     inkscape:connector-curvature="0"
     id="path178"
     d="M 307.33334,640.48214 C 248.70469,631.96601 202.18657,612.28698 158.89375,577.68625 103.94802,533.77221 66.957709,471.42367 53.080061,399.33335 50.323424,385.01343 50.000648,379.48316 50.00616,346.66668 c 0.0056,-33.08067 0.30946,-38.16627 3.107399,-52 5.366352,-26.53263 10.947515,-44.5239 20.681021,-66.66667 28.32338,-64.43294 76.06959,-114.28814 140.24116,-146.435739 19.18311,-9.610028 19.41769,-9.634404 22.94037,-2.38367 l 2.90826,5.986063 -20.27551,9.971951 C 144.69621,131.98233 90.511522,199.77162 70.781481,281.33334 53.919646,351.03824 65.063466,427.36087 101.04925,488.6335 l 6.28409,10.69985 0.34549,-66.68295 0.34548,-66.68295 8.98785,-3.11148 c 4.94331,-1.7113 10.87852,-3.95397 13.18935,-4.98372 2.31083,-1.02973 4.84047,-1.87224 5.62143,-1.87224 0.78096,0 3.39028,-0.85505 5.79849,-1.90013 2.40822,-1.04507 17.27858,-6.49703 33.04524,-12.11547 15.76667,-5.61842 30.76667,-11.01209 33.33334,-11.98592 2.56666,-0.97381 22.96666,-8.37879 45.33333,-16.45549 22.36667,-8.07671 50.86667,-18.37279 63.33334,-22.88018 17.31457,-6.26016 23.75451,-8.02362 27.27377,-7.46842 3.6826,0.58096 59.13924,20.09589 80.05956,28.17257 2.56667,0.99092 19.96667,7.28189 38.66667,13.97996 18.7,6.69807 36.1,12.98271 38.66667,13.96587 2.56667,0.98316 16.66667,6.11911 31.33334,11.41321 14.66666,5.29412 29.81114,10.78758 33.65438,12.20771 l 6.98772,2.58204 0.34562,66.90879 0.34561,66.9088 6.28409,-10.69985 c 50.0873,-85.28315 50.57082,-194.57788 1.2415,-280.63349 -9.5475,-16.65574 -13.30702,-22.18582 -25.38032,-37.33334 -24.60399,-30.86888 -54.29393,-55.08844 -89.92547,-73.356671 -18.68411,-9.579313 -20.39107,-11.428256 -16.77998,-18.175651 2.36223,-4.413867 5.15627,-3.972977 19.02531,3.002132 46.33657,23.3039 84.01862,56.18808 113.67084,99.19775 12.22494,17.73187 28.60106,50.93059 35.18658,71.33245 10.72381,33.22222 13.58259,50.52806 14.33875,86.80091 0.88709,42.5536 -2.19464,64.736 -13.96663,100.53243 -29.07239,88.40372 -98.81946,158.55984 -186.28037,187.37286 -13.55373,4.46512 -18.12313,5.65292 -36.74764,9.55237 -15.03436,3.14779 -19.93127,3.52129 -50,3.81373 -18.33334,0.1783 -35.13334,0.0627 -37.33334,-0.25684 z M 559.33335,337.46412 c -5.86666,-2.09915 -18.46666,-6.62427 -28,-10.05584 -9.53333,-3.43158 -27.53333,-9.8692 -40,-14.30584 -12.46667,-4.43664 -34.06667,-12.16214 -48,-17.16778 -13.93333,-5.00564 -34.93334,-12.50137 -46.66667,-16.65718 -11.73333,-4.15582 -29.28015,-10.4533 -38.99293,-13.9944 l -17.6596,-6.43836 -17.00707,6.05324 c -9.35388,3.32928 -19.40707,6.84032 -22.3404,7.8023 -2.93334,0.96199 -18.23334,6.34687 -34,11.96642 -15.76667,5.61954 -31.06667,11.00765 -34.00001,11.97357 -2.93333,0.96592 -14.93333,5.1752 -26.66666,9.35395 -11.73334,4.17876 -27.03334,9.58137 -34,12.00581 -21.03175,7.31917 -53.75742,18.9476 -57.75347,20.52158 -2.06441,0.81313 -4.4041,1.47842 -5.19932,1.47842 -2.29669,0 -0.54222,-66.42747 1.81473,-68.70883 0.9926,-0.96076 10.50472,-5.75518 21.13805,-10.65426 23.09521,-10.64062 41.69497,-19.2602 64.00001,-29.65919 7.65844,-3.5705 31.73142,-14.73208 55.33333,-25.65564 4.4,-2.03643 13.4,-6.22026 20,-9.2974 6.6,-3.07714 19.2,-8.91276 28,-12.96804 8.8,-4.0553 21.61812,-10.00202 28.48471,-13.21495 6.86659,-3.21293 13.04432,-5.84169 13.72831,-5.84169 0.684,0 5.86588,2.18161 11.51531,4.84801 5.64942,2.66641 16.27168,7.6848 23.60501,11.15199 7.33333,3.46718 18.13333,8.56334 24,11.3248 5.86667,2.76146 16.36667,7.71818 23.33333,11.01492 6.96667,3.29674 17.46667,8.24386 23.33334,10.99361 5.86667,2.74975 16.66667,7.85371 24,11.34213 7.33333,3.48843 18.73333,8.88107 25.33333,11.98364 22.0965,10.3873 33.20893,15.64877 52.26543,24.74646 10.41266,4.97107 20.16266,9.42887 21.66667,9.90623 2.6646,0.8457 2.73457,1.75273 2.73457,35.44473 0,26.78659 -0.3755,34.57088 -1.66666,34.55051 -0.91667,-0.0144 -6.46667,-1.74379 -12.33334,-3.84292 z M 284.73864,93.847425 c -10.1479,-8.885735 -12.96212,-13.649041 -7.07196,-11.969858 13.23853,3.774076 18.52676,4.788832 24.9468,4.787031 7.45892,-0.0021 16.0919,-3.167575 17.05958,-6.255295 0.27419,-0.874886 -2.69008,-3.376426 -6.58726,-5.558979 -10.4832,-5.870943 -13.08579,-8.02929 -13.08579,-10.852151 0,-4.110082 8.17683,-5.003258 13.18123,-1.439817 6.50889,4.634748 14.52982,6.775952 25.31975,6.759154 11.99268,-0.01867 20.54665,-2.092153 31.49902,-7.63538 21.25478,-10.757484 43.97971,-11.246442 46.551,-1.001605 0.50167,1.998777 0.73292,3.760245 0.5139,3.914373 -0.21903,0.154128 -20.49823,7.632259 -45.0649,16.618068 -24.56666,8.985809 -47.66667,17.469319 -51.33333,18.852244 -4.20995,1.58782 -10.2024,2.53045 -16.26138,2.55793 l -9.5947,0.0435 z"
     style="fill:#d2e59f;stroke-width:1.33333337" />
  <path
     inkscape:connector-curvature="0"
     id="path176"
     d="M 309.33334,640.46577 C 243.99452,632.22185 186.19985,604.98749 140.34699,560.83498 93.594239,515.81595 65.807746,463.9569 53.098723,398.00001 c -2.735,-14.19401 -3.081749,-19.91296 -3.072003,-50.66666 0.01173,-37.00111 0.874326,-44.78513 8.126573,-73.33334 18.590028,-73.179 63.160387,-134.79589 127.672327,-176.502313 11.48355,-7.424015 44.31944,-24.225914 47.15711,-24.129964 1.0951,0.03703 5.68395,9.313618 5.68395,11.490403 0,0.724807 -3.45001,2.723096 -7.66667,4.440643 -17.57444,7.158482 -44.85892,23.639071 -63.51982,38.367741 -13.5802,10.71859 -35.53581,33.42234 -46.66465,48.25478 -30.029267,40.02276 -46.126389,77.90488 -54.990628,129.41204 -3.36989,19.58131 -3.351455,64.30599 0.03463,84.00001 6.380894,37.1124 16.935284,67.34041 34.140458,97.77909 l 7.33334,12.97383 0.66666,-66.88135 0.66667,-66.88133 34.66667,-12.59979 c 19.06667,-6.92987 36.76667,-13.40044 39.33333,-14.37903 2.56667,-0.97858 19.96667,-7.25247 38.66667,-13.94195 18.7,-6.68946 37,-13.29152 40.66667,-14.67121 25.13025,-9.45597 74.02503,-26.82369 77.33334,-27.46925 2.82081,-0.55044 8.52022,0.8488 19.33333,4.74642 72.34078,26.07551 97.32503,35.10992 101.33334,36.64258 2.56666,0.98141 17.56666,6.3883 33.33333,12.01532 29.00135,10.35039 32.1561,11.49085 45.33334,16.38851 4.03333,1.49908 13.47786,4.93957 20.98785,7.64552 l 13.65453,4.9199 0.34547,67.23219 0.34548,67.23218 7.33333,-12.97318 c 17.19743,-30.42342 27.73406,-60.59343 34.14834,-97.77845 3.67717,-21.31738 3.34094,-65.61734 -0.66792,-88.00001 -4.74014,-26.46554 -9.89943,-43.92064 -19.50799,-66 -14.51089,-33.34433 -33.29071,-61.15388 -58.4086,-86.49275 -22.05003,-22.24398 -47.56279,-40.66208 -75.08083,-54.20212 -11.33559,-5.577594 -13.81633,-7.329119 -13.81633,-9.755004 0,-3.504192 3.48528,-8.888589 5.74226,-8.871219 3.31247,0.02549 31.43819,14.629004 43.59107,22.633462 63.71942,41.968611 107.43676,102.884181 125.84671,175.354301 7.25226,28.54821 8.11486,36.33223 8.12658,73.33334 0.009,30.7537 -0.337,36.47265 -3.072,50.66666 -12.39787,64.34206 -38.22566,113.66882 -82.76957,158.07612 -44.40749,44.27128 -90.89512,68.73328 -154.79839,81.45564 -11.32448,2.25456 -19.98807,2.85751 -45.33333,3.15501 -17.23334,0.2023 -33.43334,0.1028 -36.00001,-0.22101 z M 567.33335,339.35065 c -3.7446,-1.69644 -26.89549,-10.06427 -77.33333,-27.95191 -11.73334,-4.16118 -32.73334,-11.65364 -46.66667,-16.64988 -23.38307,-8.38474 -44.37219,-15.88129 -87.20463,-31.1463 -15.49089,-5.52079 -16.84155,-5.78352 -21.33333,-4.1498 -2.63746,0.95926 -10.79538,3.83617 -18.12871,6.3931 -7.33334,2.55694 -22.03334,7.72686 -32.66667,11.48872 -29.96003,10.59924 -48.79522,17.22118 -63.33334,22.26624 -7.33333,2.54484 -15.43333,5.42448 -18,6.39919 -2.56666,0.97471 -10.66666,3.85435 -18,6.39919 -7.33333,2.54484 -20.53333,7.1652 -29.33333,10.26748 -29.78336,10.49956 -41.32293,14.49035 -44.49172,15.38676 l -3.15837,0.89348 0.80252,-9.80679 c 0.44139,-5.39373 1.19516,-20.52125 1.67506,-33.61671 l 0.87254,-23.80992 12.81665,-6.00674 c 7.04916,-3.30371 16.41665,-7.66679 20.81665,-9.69574 4.4,-2.02896 21.2,-9.82533 37.33334,-17.32528 50.77941,-23.60599 52.4024,-24.35912 102,-47.332 36.34168,-16.83295 39.34447,-18.23801 48.31073,-22.60551 l 8.97741,-4.37292 8.35593,3.9907 c 16.31145,7.79014 36.46761,17.31241 44.35593,20.95481 4.4,2.03169 14.9,6.99235 23.33334,11.02369 8.43333,4.03135 19.83333,9.43662 25.33333,12.01171 5.5,2.57509 16.6,7.81275 24.66667,11.63924 33.02361,15.66503 40.33125,19.11362 47.33333,22.33732 4.03334,1.85692 15.73334,7.36324 26.00001,12.23627 10.26666,4.87303 21.81666,10.33015 25.66666,12.12695 l 7,3.26689 v 33.68523 c 0,18.52688 -0.45,33.64685 -1,33.59996 -0.55,-0.0469 -2.8,-0.90075 -5,-1.89743 z M 297.16228,101.80372 c -3.68588,-0.6481 -23.72679,-18.252653 -22.38104,-19.660189 0.42968,-0.449405 4.32968,0.446391 8.66666,1.990656 10.8561,3.865512 26.30528,4.155051 32.17696,0.60304 6.76452,-4.092126 6.37831,-5.565459 -2.80512,-10.701124 -9.28857,-5.194469 -13.5399,-9.125482 -12.20498,-11.285417 1.47628,-2.388683 10.06122,-1.60358 13.69165,1.252119 1.86652,1.468208 6.42007,3.568208 10.11897,4.666667 13.59042,4.035919 29.04489,1.703768 47.34086,-7.143961 13.95867,-6.750256 26.56272,-9.178891 35.9496,-6.927013 5.56987,1.336188 7.0014,2.294861 8.09004,5.41774 1.19825,3.437296 0.98735,3.915002 -2.24159,5.077374 -30.69322,11.049147 -79.21488,28.94125 -87.14953,32.135926 -9.96896,4.013742 -21.86272,5.873562 -29.25248,4.574182 z"
     style="fill:#9d8eb5;stroke-width:1.33333337" />
  <path
     inkscape:connector-curvature="0"
     id="path174"
     d="M 306.00001,639.32885 C 277.98942,635.35044 257.47685,630.09174 234.87021,621.0937 172.48671,596.26345 121.78205,552.09603 87.954592,493.11963 51.450676,429.47696 40.089169,349.50091 57.440993,278.32796 78.312013,192.72011 134.69339,121.81712 212.59062,83.217904 c 9.49151,-4.703179 18.02931,-8.551235 18.97291,-8.551235 0.94358,0 2.95073,2.421038 4.46033,5.380082 l 2.74471,5.380081 -5.05095,2.083062 c -12.21664,5.038264 -32.80981,16.227666 -45.71761,24.840896 -58.50143,39.03734 -100.335554,98.36964 -117.26627,166.31589 -6.336374,25.42909 -7.401272,35.43713 -7.377358,69.33333 0.02016,28.57944 0.403622,34.58516 3.064751,48 6.327307,31.89616 12.355315,49.7365 26.355157,78.00001 16.51599,33.34321 15.13584,35.92316 15.33525,-28.66667 0.094,-30.43334 0.5573,-60.6553 1.02965,-67.15992 L 110,366.34684 146.66667,353.06547 c 20.16667,-7.30475 38.76667,-14.09622 41.33334,-15.09215 2.56666,-0.99593 23.26666,-8.49174 46,-16.65734 22.73333,-8.1656 56.22192,-20.28002 74.41909,-26.92094 l 33.08575,-12.0744 12.91426,4.70726 c 12.95152,4.72086 60.32236,21.8237 136.24757,49.19103 22.36667,8.0621 42.76667,15.4664 45.33334,16.45402 2.56667,0.98761 12.0086,4.39022 20.98207,7.56136 l 16.3154,5.7657 0.0604,67.33334 c 0.068,75.83881 -0.87534,71.18045 10.28481,50.79016 14.23188,-26.00255 23.65224,-51.75956 30.0358,-82.1235 4.07724,-19.39373 4.20563,-21.03065 4.23525,-54 0.0323,-35.97656 -1.67529,-50.66312 -8.75904,-75.33333 -22.58549,-78.65703 -74.58496,-142.20051 -145.15469,-177.379287 -8.43334,-4.20399 -15.46707,-7.747203 -15.63054,-7.873809 -0.77749,-0.602208 2.57152,-10.092407 3.83767,-10.874932 2.1372,-1.320859 31.73145,13.883396 47.79287,24.553918 108.02189,71.76516 156.666,205.94433 119.72254,330.24078 -32.07209,107.90662 -121.08258,186.86916 -232.38921,206.15595 -20.95846,3.6316 -62.15583,4.56338 -81.33334,1.83955 z m 261.33334,-299.9782 c -3.7446,-1.69644 -26.89549,-10.06427 -77.33333,-27.95191 -11.73334,-4.16118 -32.73334,-11.65364 -46.66667,-16.64988 -23.38307,-8.38474 -44.37219,-15.88129 -87.20463,-31.1463 -15.49089,-5.52079 -16.84155,-5.78352 -21.33333,-4.1498 -2.63746,0.95926 -10.79538,3.83617 -18.12871,6.3931 -7.33334,2.55694 -22.03334,7.72686 -32.66667,11.48872 -29.96003,10.59924 -48.79522,17.22118 -63.33334,22.26624 -7.33333,2.54484 -15.43333,5.42448 -18,6.39919 -2.56666,0.97471 -10.66666,3.85435 -18,6.39919 -7.33333,2.54484 -20.53333,7.1652 -29.33333,10.26748 -29.78336,10.49956 -41.32293,14.49035 -44.49172,15.38676 l -3.15837,0.89348 0.80252,-9.80679 c 0.44139,-5.39373 1.19516,-20.52125 1.67506,-33.61671 l 0.87254,-23.80992 12.81665,-6.00674 c 7.04916,-3.30371 16.41665,-7.66679 20.81665,-9.69574 4.4,-2.02896 21.2,-9.82533 37.33334,-17.32528 50.77941,-23.60599 52.4024,-24.35912 102,-47.332 36.34168,-16.83295 39.34447,-18.23801 48.31073,-22.60551 l 8.97741,-4.37292 8.35593,3.9907 c 16.31145,7.79014 36.46761,17.31241 44.35593,20.95481 4.4,2.03169 14.9,6.99235 23.33334,11.02369 8.43333,4.03135 19.83333,9.43662 25.33333,12.01171 5.5,2.57509 16.6,7.81275 24.66667,11.63924 33.02361,15.66503 40.33125,19.11362 47.33333,22.33732 4.03334,1.85692 15.73334,7.36324 26.00001,12.23627 10.26666,4.87303 21.81666,10.33015 25.66666,12.12695 l 7,3.26689 v 33.68523 c 0,18.52688 -0.45,33.64685 -1,33.59996 -0.55,-0.0469 -2.8,-0.90075 -5,-1.89743 z M 297.16228,101.80372 c -3.68588,-0.6481 -23.72679,-18.252653 -22.38104,-19.660189 0.42968,-0.449405 4.32968,0.446391 8.66666,1.990656 10.8561,3.865512 26.30528,4.155051 32.17696,0.60304 6.76452,-4.092126 6.37831,-5.565459 -2.80512,-10.701124 -9.28857,-5.194469 -13.5399,-9.125482 -12.20498,-11.285417 1.47628,-2.388683 10.06122,-1.60358 13.69165,1.252119 1.86652,1.468208 6.42007,3.568208 10.11897,4.666667 13.59042,4.035919 29.04489,1.703768 47.34086,-7.143961 13.95867,-6.750256 26.56272,-9.178891 35.9496,-6.927013 5.56987,1.336188 7.0014,2.294861 8.09004,5.41774 1.19825,3.437296 0.98735,3.915002 -2.24159,5.077374 -30.69322,11.049147 -79.21488,28.94125 -87.14953,32.135926 -9.96896,4.013742 -21.86272,5.873562 -29.25248,4.574182 z"
     style="fill:#a8ce45;stroke-width:1.33333337" />
  <path
     inkscape:connector-curvature="0"
     id="path172"
     d="M 306.00001,639.32885 C 277.98942,635.35044 257.47685,630.09174 234.87021,621.0937 172.48671,596.26345 121.78205,552.09603 87.954592,493.11963 51.450676,429.47696 40.089169,349.50091 57.440993,278.32796 78.312013,192.72011 134.69339,121.81712 212.59062,83.217904 c 9.49151,-4.703179 18.02931,-8.551235 18.97291,-8.551235 0.94358,0 2.95073,2.421038 4.46033,5.380082 l 2.74471,5.380081 -5.05095,2.083062 c -12.21664,5.038264 -32.80981,16.227666 -45.71761,24.840896 -58.50143,39.03734 -100.335554,98.36964 -117.26627,166.31589 -6.336374,25.42909 -7.401272,35.43713 -7.377358,69.33333 0.02016,28.57944 0.403622,34.58516 3.064751,48 6.327307,31.89616 12.355315,49.7365 26.355157,78.00001 16.51599,33.34321 15.13584,35.92316 15.33525,-28.66667 0.094,-30.43334 0.5573,-60.6553 1.02965,-67.15992 L 110,366.34684 146.66667,353.06547 c 20.16667,-7.30475 38.76667,-14.09622 41.33334,-15.09215 2.56666,-0.99593 23.26666,-8.49174 46,-16.65734 22.73333,-8.1656 56.22192,-20.28002 74.41909,-26.92094 l 33.08575,-12.0744 12.91426,4.70726 c 12.95152,4.72086 60.32236,21.8237 136.24757,49.19103 22.36667,8.0621 42.76667,15.4664 45.33334,16.45402 2.56667,0.98761 12.0086,4.39022 20.98207,7.56136 l 16.3154,5.7657 0.0604,67.33334 c 0.068,75.83881 -0.87534,71.18045 10.28481,50.79016 14.23188,-26.00255 23.65224,-51.75956 30.0358,-82.1235 4.07724,-19.39373 4.20563,-21.03065 4.23525,-54 0.0323,-35.97656 -1.67529,-50.66312 -8.75904,-75.33333 -22.58549,-78.65703 -74.58496,-142.20051 -145.15469,-177.379287 -8.43334,-4.20399 -15.46707,-7.747203 -15.63054,-7.873809 -0.77749,-0.602208 2.57152,-10.092407 3.83767,-10.874932 2.1372,-1.320859 31.73145,13.883396 47.79287,24.553918 108.02189,71.76516 156.666,205.94433 119.72254,330.24078 -32.07209,107.90662 -121.08258,186.86916 -232.38921,206.15595 -20.95846,3.6316 -62.15583,4.56338 -81.33334,1.83955 z"
     style="fill:#8775a4;stroke-width:1.33333337" />
  <path
     inkscape:connector-curvature="0"
     id="path170"
     d="m 305.18765,638.67349 c -25.81496,-3.42269 -52.15952,-10.12765 -72.3465,-18.41292 -13.88136,-5.69727 -40.02144,-19.5624 -51.816,-27.48406 -33.83586,-22.72538 -58.81081,-47.57769 -80.3552,-79.96064 C 72.176953,469.98863 58.122929,431.65999 51.333972,378.26505 46.127806,337.31871 52.349652,287.53473 68.030682,244.66668 93.98123,173.7243 148.17055,114.12508 216.43883,81.442411 c 7.78434,-3.726658 14.7579,-6.775742 15.49682,-6.775742 0.73892,0 2.57956,2.42289 4.0903,5.3842 l 2.74682,5.384201 -4.38638,1.490952 c -8.91836,3.031392 -34.33456,16.904618 -47.95449,26.175578 -24.56388,16.72039 -39.26064,30.09417 -59.59659,54.23174 -34.167269,40.55455 -56.134405,91.62402 -62.785726,145.96503 -1.77782,14.52471 -1.782098,53.49258 -0.0075,68.06995 4.819561,39.58956 19.875005,82.51234 40.162406,114.50224 l 3.79548,5.98487 0.0173,-26.59437 c 0.0232,-35.53747 1.28609,-100.26946 2.05362,-105.26105 0.5836,-3.79541 1.44996,-4.29506 16.93871,-9.76904 19.68396,-6.95661 77.89611,-27.96765 194.27053,-70.11979 l 20.61353,-7.46645 33.38647,12.13239 c 18.36256,6.67282 51.38647,18.64412 73.38647,26.60288 22,7.95877 58.26604,21.10413 80.59121,29.21192 22.32517,8.10779 41.45372,14.74143 42.50788,14.74143 1.64953,0 1.83242,9.47797 1.31216,68 -0.3325,37.4 -0.26104,67.98952 0.15878,67.97671 0.41982,-0.0133 2.96347,-3.76282 5.65255,-8.33334 20.91013,-35.54013 33.64855,-72.56204 38.40199,-111.6084 1.77463,-14.57737 1.77035,-53.54524 -0.008,-68.06995 C 605.79513,219.43665 548.43134,137.50111 464.53908,95.125535 451.04052,88.307158 449.33335,87.056854 449.33335,83.989086 c 0,-3.849565 2.17947,-6.65575 5.16929,-6.65575 3.03459,0 23.47602,10.231472 36.83071,18.434747 65.21831,40.061077 112.22444,104.249897 131.36361,179.382457 18.90268,74.20422 7.57513,154.26921 -31.24567,220.84948 -28.77958,49.35891 -70.93206,89.05479 -120.78461,113.74544 -20.53758,10.17172 -24.0204,11.60828 -42.17448,17.39566 -19.67583,6.2725 -30.46257,8.60961 -53.53661,11.5995 -24.06414,3.11819 -45.90182,3.09718 -69.76794,-0.0671 z"
     style="fill:#6a538e;stroke-width:1.33333337" />
  <path
     inkscape:connector-curvature="0"
     id="path168"
     d="m 325.33334,640.94321 c -0.36666,-0.37285 -7.56666,-1.38619 -16,-2.25187 -25.32272,-2.59937 -55.71405,-10.04405 -74.20151,-18.17646 -2.31082,-1.01651 -4.52534,-1.84819 -4.92116,-1.84819 -0.39581,0 -5.90821,-2.44223 -12.24977,-5.42716 C 185.22837,597.83251 156.76738,577.09521 130.50048,549.5139 80.340132,496.84352 53.562487,431.80123 49.733759,353.33335 c -0.716956,-14.69367 2.918678,-50.76406 6.944172,-68.89551 15.51118,-69.86482 54.089859,-130.06571 110.655409,-172.67452 18.16499,-13.683045 46.64615,-30.149922 60.76053,-35.129768 4.85718,-1.713711 4.86862,-1.70886 7.12372,3.020161 1.24231,2.605145 1.77658,5.165122 1.18724,5.688838 -0.58932,0.523715 -5.57149,2.972895 -11.07149,5.442622 -62.95937,28.271347 -115.39896,83.211597 -143.059513,149.881507 -12.286314,29.61356 -20.940492,73.6962 -20.940492,106.66667 0,33.3049 7.771057,72.73692 20.889923,106 4.259525,10.80009 16.443152,34.77016 21.539672,42.37715 l 3.82589,5.71046 0.85622,-22.37713 c 0.47092,-12.30743 1.25695,-42.59941 1.74674,-67.31552 l 0.89053,-44.93839 4.79218,-1.88515 c 2.6357,-1.03682 16.79218,-6.21697 31.45885,-11.51144 14.66667,-5.29446 28.76667,-10.42192 31.33333,-11.39434 2.56667,-0.97242 17.56667,-6.38491 33.33334,-12.02775 33.48109,-11.98279 41.80901,-15.04935 47.53484,-17.50364 2.31083,-0.99051 4.66965,-1.80092 5.24183,-1.80092 1.24012,0 66.01869,-23.3777 72.14692,-26.03683 4.0054,-1.73801 5.30527,-1.46521 22,4.61715 9.75869,3.55536 36.34308,13.1755 59.07641,21.3781 22.73334,8.2026 43.43334,15.71784 46.00001,16.70055 2.56666,0.98271 19.96666,7.26096 38.66666,13.9517 18.7,6.69073 37.01161,13.34045 40.69245,14.77714 3.68084,1.43671 7.07957,2.61219 7.55274,2.61219 0.47318,0 5.71158,1.85252 11.6409,4.11672 l 10.78058,4.11671 -10e-4,20.21662 c -6.3e-4,11.11914 -0.63064,41.73659 -1.40004,68.03879 -0.76941,26.3022 -1.12265,48.09844 -0.785,48.4361 1.88975,1.88976 20.87744,-32.22684 27.97139,-50.25827 13.18565,-33.51542 20.90036,-72.79968 20.86936,-106.26958 -0.0215,-23.2346 -4.75256,-55.79488 -11.48804,-79.06376 C 586.2391,191.09569 530.1511,125.43367 457.66681,91.420137 c -8.63294,-4.051047 -9.85837,-6.079205 -6.95309,-11.507789 1.94199,-3.628635 3.93671,-3.287396 15.87707,2.716098 83.32939,41.897194 139.993,115.049824 158.56328,204.704894 12.04935,58.17283 6.5157,116.90714 -16.28664,172.86685 -23.66581,58.07881 -67.36223,108.33818 -122.416,140.80215 -10.33182,6.09244 -33.47558,17.66435 -35.32862,17.66435 -0.39581,0 -2.61033,0.83168 -4.92116,1.84819 -17.06086,7.50488 -44.20481,14.46828 -68.86817,17.6672 -16.04467,2.08104 -50.85127,3.92922 -52.00001,2.76113 z"
     style="fill:#4a2f76;stroke-width:1.33333337" />
  <path
     inkscape:connector-curvature="0"
     id="path166"
     d="m 325.33334,639.87448 c -4.76666,-0.60324 -14.06666,-1.66718 -20.66666,-2.36428 -13.23356,-1.39778 -32.80798,-4.88039 -38,-6.76084 -1.83334,-0.664 -8.73334,-2.87028 -15.33334,-4.90284 -6.6,-2.03256 -13.5,-4.47583 -15.33333,-5.42948 -1.83334,-0.95366 -3.82756,-1.73762 -4.43163,-1.74214 -2.37399,-0.0177 -34.09516,-16.14627 -42.90171,-21.81321 -10.1242,-6.51486 -22.26172,-15.00715 -26.00498,-18.195 -1.29166,-1.1 -7.15774,-6.09686 -13.03574,-11.10412 -9.39901,-8.00671 -29.91447,-29.09103 -36.31926,-37.32635 -12.53983,-16.12382 -31.082238,-47.93327 -38.610475,-66.2362 -2.262223,-5.5 -4.589142,-10.9 -5.170929,-12 -0.581786,-1.1 -2.681502,-7.4 -4.666034,-14 -1.984532,-6.6 -4.245567,-13.99706 -5.024522,-16.43789 -1.78102,-5.58078 -4.953644,-23.14665 -6.543388,-36.22878 -3.92682,-32.3141 -4.287762,-38.7838 -2.844371,-50.98407 0.803561,-6.7921 1.789912,-16.54927 2.191891,-21.6826 0.760973,-9.71774 1.372237,-13.12552 6.061859,-33.79478 3.045249,-13.42176 8.213457,-30.29958 11.352357,-37.0734 1.070808,-2.31082 1.946925,-4.67139 1.946925,-5.24569 0,-0.96168 2.125273,-5.84587 7.782854,-17.88614 3.667622,-7.8053 16.289638,-29.41905 23.224163,-39.76869 25.27929,-37.72884 69.80776,-75.99518 110.99299,-95.383814 4.4,-2.071374 9.59257,-4.609441 11.53905,-5.640149 5.21201,-2.75988 6.899,-2.27658 9.19272,2.633595 l 2.06511,4.420768 -6.25415,2.869144 c -3.43979,1.578031 -6.52984,2.869146 -6.8668,2.869146 -0.33696,0 -6.5844,3.245528 -13.8832,7.212284 -40.19573,21.845586 -75.20726,53.458696 -99.07075,89.454386 -3.88933,5.86667 -8.08059,12.16667 -9.31391,14 -3.666765,5.45067 -16.785508,32.04615 -20.059634,40.66667 -1.671146,4.4 -3.497449,9.2 -4.05845,10.66667 -2.448287,6.40073 -6.540612,20.43616 -7.38647,25.33333 -0.506654,2.93333 -1.407148,6.27836 -2.001096,7.4334 -0.593948,1.15504 -2.163752,9.25504 -3.488453,18 -3.523262,23.25868 -3.250138,67.43336 0.551712,89.23327 3.805248,21.81939 8.335092,39.81686 12.41688,49.33334 0.629079,1.46666 2.765056,6.86666 4.746617,12 6.463292,16.74349 23.058584,47.33333 25.678794,47.33333 1.66639,0 2.84927,-36.47751 2.85425,-88.0188 l 0.004,-46.0188 5.34248,-2.31454 c 2.93836,-1.27298 5.99769,-2.31453 6.7985,-2.31453 0.8008,0 3.34669,-0.8386 5.65752,-1.86355 2.31082,-1.02496 9.0015,-3.49649 14.86817,-5.49229 5.86667,-1.99581 12.55735,-4.45721 14.86817,-5.46979 2.31083,-1.01257 4.69923,-1.84104 5.30756,-1.84104 1.10584,0 12.10295,-4.13641 20.02578,-7.53241 2.31082,-0.99051 4.92014,-1.80092 5.79849,-1.80092 0.87835,0 3.48767,-0.8348 5.79849,-1.85511 2.31083,-1.0203 14.70151,-5.58503 27.53484,-10.14383 12.83334,-4.5588 24.53334,-8.80776 26.00001,-9.44213 3.41428,-1.47677 13.42933,-5.01279 18.93242,-6.68448 2.34618,-0.71269 5.94618,-2.17231 8,-3.24359 2.05383,-1.07128 4.54356,-1.95146 5.53274,-1.95598 0.98917,-0.004 3.68917,-0.84608 6,-1.87015 4.40468,-1.95199 47.52864,-17.39525 52.29055,-18.72596 1.51564,-0.42353 6.31564,0.46571 10.66666,1.97611 4.35103,1.5104 9.83055,3.33574 12.17672,4.05633 2.34618,0.72057 5.94618,2.18664 8,3.25792 2.05383,1.07128 4.54356,1.95147 5.53274,1.95599 0.98917,0.004 3.68917,0.84301 6,1.86332 2.31082,1.0203 14.7015,5.58502 27.53484,10.14382 12.83333,4.5588 24.53333,8.80776 26,9.44214 3.64379,1.57604 13.67087,5.09196 19.33333,6.77908 2.56667,0.76474 5.26667,1.84532 6,2.40129 0.73334,0.55597 3.13334,1.43987 5.33334,1.9642 2.2,0.52433 5.8,1.74317 8,2.70853 2.2,0.96536 11.2,4.28266 20,7.37177 18.6735,6.55506 29.59768,10.55302 33.33333,12.19913 1.46667,0.64628 4.46667,1.73197 6.66667,2.41264 5.77124,1.78561 15.56641,5.26957 18.66667,6.6394 1.46666,0.64804 6.79893,2.57179 11.84948,4.27501 l 9.18282,3.09678 -0.85098,15.35556 c -0.46806,8.44554 -1.19611,39.65554 -1.61792,69.35555 l -0.76694,54 2.77031,-3.33334 c 6.55855,-7.8915 24.19485,-41.36978 27.39351,-52 0.55165,-1.83333 1.77288,-5.13333 2.71382,-7.33333 4.76611,-11.14344 9.01858,-27.68302 13.02687,-50.66667 3.80186,-21.79991 4.07498,-65.97459 0.55172,-89.23327 -1.32471,-8.74496 -2.89451,-16.84496 -3.48845,-18 -0.59395,-1.15504 -1.49444,-4.50007 -2.0011,-7.4334 -0.84586,-4.89717 -4.93818,-18.9326 -7.38646,-25.33333 -0.56102,-1.46667 -2.38731,-6.26667 -4.05846,-10.66667 -3.27413,-8.62052 -16.39286,-35.216 -20.05964,-40.66667 -1.23332,-1.83333 -5.42457,-8.13333 -9.3139,-14 C 551.86849,159.06225 522.95162,130.54066 492.66624,110.45413 481.15743,102.821 460.2154,91.384745 453.9752,89.325292 c -4.12596,-1.361689 -4.54893,-1.927405 -3.80958,-5.09519 1.238,-5.304279 3.65026,-7.403062 6.66504,-5.798903 1.37624,0.732296 6.10225,3.022919 10.50225,5.090273 32.97255,15.492258 66.58735,41.594128 92.77947,72.043178 15.35359,17.84894 32.29953,43.65454 41.43768,63.10202 5.65757,12.04027 7.78285,16.92446 7.78285,17.88614 0,0.5743 0.87612,2.93487 1.94692,5.24569 3.13891,6.77382 8.30711,23.65164 11.35237,37.0734 4.68962,20.66926 5.30089,24.07704 6.06185,33.79478 0.40199,5.13333 1.38833,14.8905 2.19189,21.6826 1.44506,12.21431 1.09072,18.45216 -2.97182,52.3174 -1.43582,11.96881 -4.6252,29.22136 -6.48758,35.09357 -0.73954,2.33187 -2.96835,9.63977 -4.95288,16.23977 -1.98453,6.6 -4.08424,12.9 -4.66603,14 -0.58178,1.1 -2.9087,6.5 -5.17093,12 -8.55796,20.80645 -21.90779,43.50824 -37.13431,63.14805 -15.72553,20.28347 -24.61393,29.29384 -50.82123,51.51862 -3.79054,3.21453 -15.93881,11.71109 -26.01492,18.195 -8.80654,5.66694 -40.52772,21.79545 -42.9017,21.81321 -0.60407,0.004 -2.5983,0.78848 -4.43163,1.74214 -1.83333,0.95365 -8.73333,3.39692 -15.33333,5.42948 -6.60001,2.03256 -13.50001,4.23884 -15.33334,4.90284 -4.77684,1.73008 -24.19751,5.25772 -36.66667,6.66025 -39.1793,4.40693 -37.82265,4.34344 -52.66667,2.46487 z"
     style="fill:#2e0e61;stroke-width:1.33333337" />
</svg>
