<?xml version="1.0" encoding="UTF-8" standalone="no"?>
<!-- Created with Inkscape (http://www.inkscape.org/) -->

<svg
   xmlns:dc="http://purl.org/dc/elements/1.1/"
   xmlns:cc="http://creativecommons.org/ns#"
   xmlns:rdf="http://www.w3.org/1999/02/22-rdf-syntax-ns#"
   xmlns:svg="http://www.w3.org/2000/svg"
   xmlns="http://www.w3.org/2000/svg"
   xmlns:xlink="http://www.w3.org/1999/xlink"
   xmlns:sodipodi="http://sodipodi.sourceforge.net/DTD/sodipodi-0.dtd"
   xmlns:inkscape="http://www.inkscape.org/namespaces/inkscape"
   version="1.1"
   id="svg10"
   width="666.66669"
   height="666.66669"
   viewBox="0 0 666.66669 666.66669"
   sodipodi:docname="user.svg"
   inkscape:version="0.92.3 (2405546, 2018-03-11)">
  <metadata
     id="metadata16">
    <rdf:RDF>
      <cc:Work
         rdf:about="">
        <dc:format>image/svg+xml</dc:format>
        <dc:type
           rdf:resource="http://purl.org/dc/dcmitype/StillImage" />
        <dc:title></dc:title>
      </cc:Work>
    </rdf:RDF>
  </metadata>
  <defs
     id="defs14" />
  <sodipodi:namedview
     pagecolor="#ffffff"
     bordercolor="#666666"
     borderopacity="1"
     objecttolerance="10"
     gridtolerance="10"
     guidetolerance="10"
     inkscape:pageopacity="0"
     inkscape:pageshadow="2"
     inkscape:window-width="1366"
     inkscape:window-height="705"
     id="namedview12"
     showgrid="false"
     inkscape:zoom="0.28425692"
     inkscape:cx="483.32671"
     inkscape:cy="253.50342"
     inkscape:window-x="-8"
     inkscape:window-y="-8"
     inkscape:window-maximized="1"
     inkscape:current-layer="svg10" />
  <image
     sodipodi:absref="E:\Project-website\tanyabudi\public\assets\images\icon\user.png"
     xlink:href="user.png"
     y="0"
     x="0"
     id="image18"
     preserveAspectRatio="none"
     height="666.66669"
     width="666.66669" />
  <path
     inkscape:connector-curvature="0"
     id="path34"
     d="m 91.555559,615.11113 c -1.39778,-1.39778 -0.922368,-111.07825 0.51051,-117.77778 0.705794,-3.3 1.824273,-8.7 2.485508,-12 4.787424,-23.8924 19.846093,-50.12421 40.761743,-71.00592 15.76095,-15.73535 33.26147,-27.30958 52.02002,-34.40418 11.53929,-4.36424 14.38719,-5.25657 16.77645,-5.25657 1.49738,0 5.53523,-0.91272 8.97302,-2.02828 5.44661,-1.76741 22.28477,-1.98177 130.9172,-1.66667 l 124.66667,0.36162 11.33334,3.15376 c 6.23333,1.73457 12.98333,3.98457 15,5 2.01666,1.01544 5.31666,2.6678 7.33333,3.67193 19.97753,9.94711 30.72256,17.64671 45.67787,32.73152 11.38185,11.48044 25.7516,31.37728 27.39768,37.93576 0.48412,1.92887 1.34521,3.50703 1.91356,3.50703 0.56835,0 1.35413,1.35 1.74619,3 1.05673,4.44739 4.75896,14.66412 6.2745,17.31524 0.72795,1.27339 1.33003,3.67339 1.33796,5.33333 0.008,1.65995 0.90795,5.96346 2,9.56334 1.62882,5.36922 1.98558,17.04808 1.98558,65 v 58.45476 h -16.66667 -16.66667 v -52.25307 c 0,-31.22894 -0.5746,-55.50419 -1.4281,-60.33333 -1.9541,-11.0563 -9.26399,-33.77486 -11.4515,-35.59032 -0.98289,-0.81572 -1.78706,-2.07898 -1.78706,-2.80723 0,-2.22477 -11.5151,-18.64697 -17.59824,-25.09765 -7.42309,-7.87156 -24.08098,-20.01158 -31.7351,-23.12802 -10.34323,-4.21135 -11.17409,-4.51556 -18,-6.59063 -17.84111,-5.42368 -20.07467,-5.51285 -136,-5.4301 -130.15078,0.0929 -125.90085,-0.26567 -152.38548,12.85704 -16.40969,8.13073 -36.74136,26.6958 -44.81852,40.92425 C 137.07844,467.44848 132,478.04078 132,479.67814 c 0,1.05537 -0.85106,3.80954 -1.89126,6.12037 -3.90873,8.68339 -4.7754,22.08951 -4.7754,73.86835 0,28.66328 -0.3642,53.06413 -0.80932,54.22411 -0.67432,1.75726 -3.41724,2.10905 -16.44445,2.10905 -8.599316,0 -16.035123,-0.4 -16.524011,-0.88889 z M 318.66668,354.47411 c -1.83334,-0.74628 -6.03334,-1.86479 -9.33334,-2.48558 -8.03814,-1.5121 -25.88845,-7.86896 -26.44444,-9.4174 -0.24445,-0.68078 -1.22586,-1.23778 -2.18093,-1.23778 -7.63157,0 -35.29015,-21.94935 -52.08451,-41.33334 -11.77085,-13.58587 -23.62819,-39.10116 -28.81231,-62 -2.40709,-10.63236 -2.40709,-46.70098 0,-57.33334 2.94919,-13.0269 7.53138,-26.82362 10.9925,-33.09781 0.73762,-1.33713 2.63054,-4.93714 4.2065,-8 10.31464,-20.04649 35.68061,-46.712517 53.61273,-56.360501 20.64941,-11.109971 34.07029,-16.54169 40.8718,-16.54169 1.81793,0 4.0541,-0.75 4.96926,-1.666667 1.18882,-1.190766 9.25874,-1.790408 28.26193,-2.100024 22.15316,-0.36094 27.30145,-0.08243 30.80758,1.666667 2.31528,1.155013 5.42482,2.100024 6.91008,2.100024 6.25816,0 19.34796,5.394256 40.83496,16.827925 12.11186,6.444962 34.57021,28.058986 44.99677,43.305076 5.10097,7.45884 13.72476,23.45766 13.72476,25.46212 0,0.84054 0.79725,2.47548 1.77166,3.63323 0.97442,1.15775 2.8908,6.90499 4.25864,12.77165 1.36786,5.86667 3.11014,11.49627 3.87175,12.51024 2.1088,2.8075 1.89453,52.89299 -0.23539,55.02302 -0.91666,0.9167 -1.66666,2.97784 -1.66666,4.58031 0,7.43608 -6.62464,24.16424 -18.1141,45.74068 -2.69173,5.05489 -17.22129,23.02054 -22.80092,28.19309 -13.40281,12.42499 -33.84207,26.61934 -38.33069,26.61934 -1.02598,0 -2.0654,0.557 -2.30986,1.23778 -0.55728,1.55206 -18.42614,7.91119 -26.44444,9.41099 -3.3,0.61725 -7.68905,1.7738 -9.75346,2.57009 -4.75706,1.83491 -47.03758,1.7709 -51.57987,-0.0781 z m 48.66667,-34.34915 c 5.13333,-0.84376 9.53333,-2.11706 9.77777,-2.82954 0.24445,-0.71248 2.07977,-1.29541 4.07849,-1.29541 1.99874,0 4.79874,-0.88092 6.22223,-1.9576 1.42349,-1.07667 3.31689,-1.97667 4.20755,-2 2.7547,-0.0721 20.64217,-11.54095 28.77774,-18.45128 7.67263,-6.51709 17.19499,-18.41355 22.37546,-27.95404 1.4844,-2.73373 3.19829,-5.87041 3.80865,-6.97041 1.15872,-2.0883 2.53031,-5.48559 5.38303,-13.33334 0.93301,-2.56666 2.12744,-7.66667 2.65429,-11.33333 0.52686,-3.66667 1.77158,-10.40854 2.76606,-14.98194 1.52214,-7.00001 1.52197,-9.9526 -10e-4,-18.66666 -0.99504,-5.69327 -2.24418,-13.0514 -2.77586,-16.3514 -1.08104,-6.70952 -5.09928,-18.72448 -8.0265,-24 -0.61036,-1.1 -2.35346,-4.29274 -3.87358,-7.09498 -3.90407,-7.19689 -13.00382,-19.49319 -18.04829,-24.38823 -10.44868,-10.1392 -36.3489,-25.85013 -42.61518,-25.85013 -1.5643,0 -3.56291,-0.71873 -4.44135,-1.59717 -5.36684,-5.366842 -60.48686,-5.385467 -65.85008,-0.0222 -0.89068,0.89068 -2.90358,1.61942 -4.47312,1.61942 -6.51474,0 -35.87002,17.94944 -44.06446,26.94345 -6.2744,6.88663 -15.81772,20.95755 -20.15916,29.72322 -5.51715,11.13953 -7.88383,18.67152 -9.11783,29.01763 -0.50408,4.22634 -1.4464,8.01176 -2.09401,8.41201 -1.64823,1.01867 -1.47643,21.52045 0.20668,24.66539 0.76131,1.4225 1.74988,6.50238 2.19681,11.28862 0.44695,4.78624 1.32407,9.01834 1.94915,9.40466 0.62509,0.38632 1.13652,1.92441 1.13652,3.41799 0,1.49357 0.9,4.45817 2,6.58798 1.1,2.12982 2.98924,5.82239 4.1983,8.20572 4.1151,8.11178 13.84985,22.10474 19.50014,28.02995 10.60351,11.11943 37.83292,27.63672 45.56023,27.63672 1.75217,0 3.38577,0.58267 3.63023,1.2948 0.24444,0.71215 4.90844,1.92615 10.36444,2.69779 5.45601,0.77164 10.25601,1.74084 10.66666,2.1538 1.07877,1.08474 23.14529,-0.22411 34.08001,-2.02144 z"
     style="fill:#e8e8e8;stroke-width:1.33333337" />
  <path
     inkscape:connector-curvature="0"
     id="path32"
     d="m 92.930097,615.15234 c -0.511552,-0.51156 -0.930094,-26.83473 -0.930094,-58.49597 0,-47.16467 0.35876,-58.74849 1.985568,-64.11111 1.092062,-3.59988 1.992062,-7.90339 2,-9.56334 0.008,-1.65994 0.54462,-4.05994 1.192627,-5.33333 0.648008,-1.27339 3.146522,-7.41524 5.552252,-13.64857 2.40573,-6.23334 5.03218,-12.23334 5.83656,-13.33334 0.80437,-1.1 2.6141,-4.1 4.02163,-6.66666 4.94441,-9.0163 13.18312,-19.43054 23.24811,-29.38706 21.71819,-21.48413 46.14602,-34.54007 76.82992,-41.06325 10.40008,-2.21099 254.68043,-2.73375 256.86573,-0.5497 0.91719,0.91667 3.57434,1.66667 5.90479,1.66667 8.61497,0 38.97248,14.47307 54.56283,26.01305 11.67155,8.63928 27.97161,25.66026 35.26,36.81945 6.31336,9.6663 15.99729,29.11886 17.49125,35.13546 0.55066,2.21763 2.23388,8.68808 3.74051,14.37879 2.55268,9.64175 2.74643,14.27505 2.84351,68 0.0573,31.7093 0.0803,58.40326 0.0511,59.31992 -0.0392,1.23271 -4.00837,1.66667 -15.24373,1.66667 -12.62193,0 -15.32753,-0.35664 -16,-2.10905 -0.44513,-1.15998 -0.80943,-25.60998 -0.80955,-54.33334 -1.7e-4,-40.43315 -0.44134,-54.48207 -1.954,-62.22428 -2.22796,-11.40339 -7.03718,-25.15516 -11.19092,-32 -1.55756,-2.56667 -3.2415,-5.56667 -3.74209,-6.66667 -3.63695,-7.99185 -19.98192,-25.25457 -32.48767,-34.3118 -7.30409,-5.29 -25.30105,-13.6882 -29.33312,-13.6882 -1.15056,0 -2.6826,-0.59068 -3.40453,-1.31261 -4.62774,-4.62774 -46.00326,-6.37722 -155.22073,-6.56319 -69.96829,-0.1192 -85.2579,0.19187 -95.33334,1.93924 -12.05505,2.09068 -25.51558,5.62429 -28,7.35045 -0.73333,0.50952 -2.79858,1.37686 -4.58946,1.9274 -5.06159,1.55603 -20.01027,11.07135 -27.68152,17.62019 -3.81571,3.25743 -10.28954,10.01959 -14.38628,15.02704 -7.80865,9.54447 -19.34274,30.63951 -19.34274,35.37646 0,1.5226 -0.62041,3.38877 -1.3787,4.14705 -3.28871,3.28872 -4.36927,18.51981 -5.14261,72.48798 l -0.81202,56.66666 -14.73658,0.37454 c -8.10511,0.206 -15.155113,-0.044 -15.666663,-0.55555 z M 326.66668,354.65331 c -10.46519,-1.36238 -23.10519,-4.0574 -24.66667,-5.2593 -0.73333,-0.56446 -3.11607,-1.45377 -5.29496,-1.97625 -7.67401,-1.84013 -28.75816,-12.96185 -39.00575,-20.57523 -11.89362,-8.83629 -27.80011,-25.37163 -34.75788,-36.13203 -3.95547,-6.11724 -8.60649,-14.87657 -14.89067,-28.04382 -1.31376,-2.75274 -4.88169,-14.95774 -7.33982,-25.1077 -3.08287,-12.72961 -2.78951,-45.04179 0.53089,-58.47451 4.523,-18.29789 5.00769,-19.66081 12.21383,-34.34408 8.72309,-17.77425 21.75406,-34.61717 35.70692,-46.152281 3.93941,-3.256792 7.83941,-6.558716 8.66667,-7.337611 7.58581,-7.142354 39.26976,-21.911724 53.05298,-24.730478 3.91479,-0.800598 9.51779,-1.968987 12.45112,-2.596423 7.34022,-1.57006 36.01287,-1.436332 43.33334,0.202103 3.3,0.738593 8.7,1.879552 12,2.535464 5.65224,1.123449 11.20724,3.037484 25.33333,8.728876 6.67615,2.689813 23.79984,12.732135 29.17607,17.110519 8.40051,6.841366 25.5022,24.886761 31.11575,32.832781 10.70031,15.14637 16.94044,29.55204 24.30841,56.11719 2.43522,8.78013 2.89188,44.49312 0.66355,51.89161 -0.77159,2.56183 -1.91168,7.35787 -2.53353,10.65787 -3.56822,18.9354 -17.59064,45.33433 -33.54239,63.14765 -14.62728,16.33428 -38.49288,32.43465 -58.52119,39.4799 -2.56667,0.90287 -5.86667,2.18495 -7.33333,2.84907 -10.85046,4.9132 -42.16484,7.58525 -60.66667,5.17668 z m 36,-33.17242 c 14.43913,-2.56733 27.85087,-7.02413 36,-11.963 2.56667,-1.55556 5.56667,-3.23313 6.66667,-3.72795 3.1192,-1.40309 12.08576,-8.36869 18.47394,-14.35133 15.74329,-14.74381 29.23351,-40.14387 32.98475,-62.10527 2.49528,-14.60847 0.18526,-50.22272 -3.49637,-53.90435 -0.71261,-0.71261 -1.29565,-2.4093 -1.29565,-3.77044 0,-3.32929 -6.88556,-17.00818 -13.55208,-26.92262 -11.77945,-17.51839 -25.40901,-28.85966 -48.44793,-40.31391 -8.44056,-4.19639 -33.92397,-9.763419 -44.66666,-9.757746 -14.30055,0.0076 -36.10405,5.100403 -49.68881,11.606286 -31.80282,15.2307 -57.11273,47.29193 -62.41407,79.06278 -3.96806,23.78064 -3.96865,24.32997 -0.0493,46.90367 2.65247,15.27715 9.38988,30.72352 19.37711,44.4244 17.34252,23.7912 42.54407,39.14173 74.10844,45.14028 13.76395,2.61572 19.7864,2.56205 36,-0.3208 z"
     style="fill:#d1d1d1;stroke-width:1.33333337" />
  <path
     inkscape:connector-curvature="0"
     id="path30"
     d="m 92.569318,612.7535 c -1.40304,-5.59015 0.242449,-115.67023 1.805035,-120.75348 0.78899,-2.56667 2.486646,-8.56667 3.772568,-13.33334 11.579939,-42.92461 49.235099,-82.89883 92.814739,-98.53092 4.19557,-1.50496 13.57823,-3.9488 20.85033,-5.43076 12.6767,-2.58335 18.11859,-2.69551 131.94528,-2.71951 84.72098,-0.0179 120.56379,0.4128 125.14968,1.50374 11.19541,2.66324 20.98205,5.54994 24.4264,7.20488 1.83333,0.88089 7.53333,3.61813 12.66667,6.08277 27.8848,13.3882 51.73525,36.60224 67.01123,65.22314 4.37785,8.2023 11.05092,27.18469 13.82721,39.33333 1.39812,6.11793 1.82823,21.64501 1.82823,66 v 58 h -14.66667 -14.66667 l -0.79778,-56.66666 c -0.85076,-60.42926 -1.09987,-62.89455 -8.23512,-81.49786 -1.86295,-4.85716 -4.94266,-11.29523 -6.8438,-14.30684 -1.90115,-3.0116 -3.46622,-5.93757 -3.47792,-6.50215 -0.012,-0.56457 -1.66172,-2.96641 -3.66667,-5.33741 -2.00496,-2.37101 -5.72828,-6.80253 -8.27407,-9.84784 -5.61153,-6.71261 -19.84087,-18.27282 -28.03797,-22.77864 -3.3,-1.81396 -11.7,-5.15714 -18.66667,-7.42927 -25.68371,-8.37661 -24.58513,-8.31299 -143.39576,-8.30619 -102.26202,0.005 -108.7032,0.14611 -120.00001,2.61295 -20.70415,4.52108 -30.5764,8.80055 -45.93757,19.91323 -11.41982,8.26139 -12.96576,9.72284 -22.33972,21.11867 -8.06345,9.80264 -15.87134,23.34122 -19.40179,33.64194 -6.13723,17.90643 -6.54263,22.40186 -7.09884,78.71941 -0.29332,29.7 -0.80541,54.75 -1.13797,55.66666 -0.43147,1.1893 -4.61932,1.66667 -14.6211,1.66667 -13.738944,0 -14.03258,-0.0643 -14.831272,-3.24652 z M 315.33334,351.97931 c -17.45841,-3.82438 -39.11593,-12.5523 -48.24437,-19.44235 -2.3344,-1.76199 -4.74564,-3.20362 -5.35829,-3.20362 -1.60255,0 -18.95359,-15.52042 -25.86222,-23.13362 -29.60351,-32.62263 -43.02903,-80.43913 -34.59677,-123.22022 3.71681,-18.85728 12.1105,-40.4244 19.63022,-50.43868 1.70395,-2.26922 3.0981,-4.60743 3.0981,-5.19601 0,-1.84999 9.55424,-12.96474 19.72888,-22.95125 16.82633,-16.515209 42.34716,-30.989736 62.93779,-35.696139 5.5,-1.257135 11.73953,-2.828337 13.86562,-3.49156 6.59558,-2.057444 41.74663,-1.451397 52.13438,0.89886 39.75053,8.993664 70.88976,29.7614 92.56848,61.736839 14.48007,21.35763 22.93966,46.3373 24.83642,73.33755 0.99634,14.18296 -3.02255,46.96249 -6.14094,50.08757 -0.69518,0.69666 -1.26396,2.42989 -1.26396,3.85162 0,1.42174 -3.26714,9.25174 -7.26033,17.4 -20.49056,41.81188 -56.63871,69.86395 -102.60872,79.62751 -15.33514,3.25703 -42.19095,3.17922 -57.46429,-0.1665 z m 52.26223,-30.55954 c 37.95891,-8.11183 68.79343,-33.48859 82.72973,-68.08643 0.73848,-1.83333 2.0185,-5.014 2.8445,-7.06814 3.26228,-8.11288 5.94771,-24.88611 5.91286,-36.93186 -0.0903,-31.17297 -11.92051,-59.73639 -33.68827,-81.33789 -7.35931,-7.3031 -9.26586,-8.83432 -19.35792,-15.54713 -31.7268,-21.103302 -77.37217,-23.645382 -112.03646,-6.23953 -19.74095,9.91245 -36.79792,25.35074 -46.90953,42.45788 -3.26722,5.52759 -10.80301,21.4632 -11.66461,24.66667 -6.47958,24.09141 -7.36981,38.51543 -3.4974,56.66667 3.25384,15.25179 4.21606,18.31512 8.80857,28.04337 22.57082,47.81151 75.63694,74.32246 126.85853,63.37639 z"
     style="fill:#b0b0b0;stroke-width:1.33333337" />
  <path
     inkscape:connector-curvature="0"
     id="path28"
     d="m 94.472699,614.54775 c -0.783706,-0.48494 -1.103706,-23.44826 -0.836118,-60 l 0.433497,-59.2144 3.682813,-13.33333 C 112.78315,427.58416 155.02029,387.99079 212.00001,374.904 c 7.22949,-1.66043 28.23429,-2.08213 126.66667,-2.54299 133.61322,-0.62558 130.609,-0.80485 154.66667,9.22928 48.37604,20.17702 78.91068,55.11913 91.48902,104.69482 3.62977,14.30624 3.65189,14.67384 4.22294,70.1719 0.39324,38.2166 0.12934,56.23502 -0.83773,57.20212 -1.48884,1.48884 -25.87749,1.78094 -28.2124,0.3379 -0.84739,-0.52372 -1.32849,-20.56 -1.32849,-55.32629 0,-56.37024 -0.39287,-61.44507 -5.98334,-77.29014 -6.9916,-19.81632 -22.51533,-41.58042 -38.14404,-53.47755 -11.82027,-8.998 -21.32813,-14.5697 -24.86255,-14.5697 -1.36221,0 -3.04674,-0.51811 -3.74341,-1.15136 -1.91912,-1.74443 -9.31205,-4.00828 -22.6,-6.92056 -11.42417,-2.50382 -17.41968,-2.62887 -124.94448,-2.60607 -119.42185,0.0253 -118.51426,-0.0156 -137.05553,6.18632 -22.34877,7.47557 -45.25795,25.37259 -59.02031,46.1076 -5.42651,8.17583 -12.97694,23.34159 -12.97864,26.06883 -5.8e-4,0.92661 -0.57996,2.72661 -1.28751,4 -0.70756,1.27339 -2.20756,7.02941 -3.33334,12.79119 -1.631,8.3475 -2.04687,21.28296 -2.04687,63.66667 0,29.25489 -0.45,53.2151 -1,53.2449 -9.76778,0.52924 -26.228221,0.42446 -27.193971,-0.17312 z M 320.00001,352.09613 c -46.0304,-8.27488 -82.63838,-35.36308 -105.06566,-77.74371 -17.5403,-33.14578 -20.01581,-80.87467 -6.03472,-116.35241 16.07782,-40.79829 48.75901,-72.558648 88.49622,-86.002753 76.18016,-25.773674 158.88991,14.905993 184.34874,90.669413 12.24925,36.45282 9.51427,77.63455 -7.39396,111.33334 -13.53371,26.97325 -37.58069,51.13313 -64.54336,64.84638 -10.8202,5.50317 -29.29955,11.38589 -43.04222,13.70205 -15.64668,2.63707 -30.37212,2.49464 -46.76504,-0.45231 z m 48.93186,-30.18673 c 10.18336,-2.0205 12.16594,-2.70338 25.56582,-8.8059 24.51522,-11.16461 47.67943,-36.07333 57.44401,-61.77016 16.78997,-44.18516 6.46374,-91.86915 -26.89894,-124.21255 -8.28779,-8.03458 -27.02437,-21.78745 -29.68271,-21.78745 -0.46182,0 -3.52616,-1.22384 -6.80964,-2.71964 -9.69972,-4.418731 -25.66512,-8.002121 -39.21706,-8.802162 -22.68029,-1.338932 -47.09075,5.584219 -68.00001,19.285762 -33.03629,21.64821 -52,56.77408 -52,96.31791 0,30.88552 13.0371,61.58069 35.21731,82.91729 6.60757,6.35627 27.22752,20.99262 29.59792,21.00906 0.65163,0.004 2.76707,0.83381 4.70099,1.84286 7.11648,3.71319 23.64552,7.85875 37.15045,9.31754 6.95516,0.75129 22.07995,-0.4394 32.93186,-2.59256 z"
     style="fill:#919191;stroke-width:1.33333337" />
  <path
     inkscape:connector-curvature="0"
     id="path26"
     d="m 94.265934,613.8215 c -0.512928,-0.51292 -0.932597,-24.154 -0.932597,-52.53572 0,-66.8342 1.403914,-76.31866 15.782033,-106.6191 18.80419,-39.62795 58.57388,-70.13364 102.7698,-78.83052 4.80217,-0.94497 49.13149,-1.83149 124.78151,-2.49544 97.52119,-0.85591 119.13444,-0.71747 128,0.81991 13.8535,2.40232 26.12312,5.84377 28.77166,8.07002 1.15774,0.97315 2.70761,1.76936 3.44417,1.76936 2.85492,0 22.91256,11.42216 31.93784,18.18756 30.37414,22.76858 50.20455,54.92837 57.08868,92.58302 1.67735,9.17473 2.09099,22.16485 2.09099,65.66667 v 54.22943 h -13.91037 -13.91036 l -0.51732,-57 c -0.35474,-39.08521 -1.02031,-58.67625 -2.11767,-62.33334 -4.93257,-16.43828 -6.63001,-20.90821 -11.39247,-30 -8.36898,-15.97688 -20.15926,-29.83069 -34.81848,-40.9124 -5.95029,-4.49816 -15.92803,-10.20382 -20,-11.43678 -1.46667,-0.4441 -5.36667,-1.81836 -8.66667,-3.05392 -3.3,-1.23554 -11.1,-3.42976 -17.33333,-4.87601 -10.65379,-2.47188 -18.06199,-2.67323 -123.55274,-3.35785 -120.51262,-0.78214 -118.77624,-0.8564 -139.11394,5.9505 -38.4876,12.8816 -66.89763,44.44158 -78.33448,87.01979 -1.5445,5.74999 -2.08129,19.42432 -2.4862,63.33334 l -0.5164,56 -13.06553,0.37704 c -7.18604,0.20737 -13.485198,-0.0427 -13.998126,-0.55556 z M 321.33334,351.77643 c -16.535,-2.7206 -34.95834,-9.49286 -51.38452,-18.8885 -20.9363,-11.97539 -42.68792,-35.5842 -54.49567,-59.14861 -27.96717,-55.81331 -16.47924,-124.14949 28.09103,-167.10005 18.25106,-17.58781 33.93158,-27.089651 57.78916,-35.018215 18.91144,-6.284817 47.02605,-8.366901 66.63493,-4.934782 12.80025,2.240412 32.61889,8.988162 44.024,14.989071 34.47752,18.140685 60.32524,49.948296 71.23325,87.657996 2.89067,9.99325 6.09595,31.05457 6.10247,40.09837 0.009,12.22715 -5.00077,39.21793 -9.26195,49.90163 -19.82034,49.69404 -60.07659,83.08706 -110.95887,92.04165 -12.06774,2.12376 -36.07973,2.32553 -47.77383,0.40144 z m 45.24815,-28.47389 c 34.2062,-7.93729 59.77499,-25.73648 76.61303,-53.33261 12.16078,-19.93045 16.8055,-36.91636 16.8055,-61.4582 0,-13.86215 -0.57822,-18.71291 -3.44692,-28.91727 -9.53266,-33.90885 -30.50203,-59.2895 -62.09499,-75.15774 -21.13719,-10.616603 -52.27507,-14.179937 -74.4581,-8.520777 -19.4012,4.949477 -24.96215,7.324697 -39.38228,16.821087 -25.43751,16.75191 -42.93967,42.56403 -50.12874,73.92964 -2.19754,9.5878 -2.21914,36.01835 -0.0371,45.33334 12.98171,55.41671 58.54463,92.85767 113.4629,93.23717 8.09642,0.056 17.57434,-0.75301 22.66666,-1.93464 z"
     style="fill:#6e6e6e;stroke-width:1.33333337" />
  <path
     inkscape:connector-curvature="0"
     id="path24"
     d="m 95.221383,613.44446 c -0.305092,-0.30555 -0.542908,-24.60555 -0.52848,-54 0.02675,-54.48216 0.576723,-62.2368 5.728987,-80.77778 2.49606,-8.98233 7.92013,-22.25633 11.53387,-28.22617 1.47839,-2.44227 3.10023,-5.34049 3.60409,-6.44049 2.2588,-4.93134 15.39798,-21.3671 22.74262,-28.4487 8.76683,-8.45283 22.8745,-19.16289 29.92956,-22.72151 2.43906,-1.23026 5.33464,-2.77033 6.43464,-3.42237 3.53735,-2.09679 11.13946,-5.11452 18.66667,-7.40993 4.03333,-1.22995 8.53333,-2.7139 10,-3.29764 1.46667,-0.58376 9.26667,-2.03602 17.33333,-3.22724 12.63436,-1.86575 30.12585,-2.16402 126.23162,-2.15258 73.62522,0.009 113.98002,0.49682 118.66667,1.43515 30.12743,6.03187 59.04741,21.48013 79.78493,42.61895 9.41138,9.5935 20.87822,24.97232 23.94584,32.11512 0.75052,1.74757 1.89998,4.07741 2.55434,5.17741 1.18566,1.9931 4.00898,8.33494 6.52943,14.66667 1.95079,4.90064 4.40663,14.09157 6.59099,24.66667 1.4216,6.88237 2.10249,23.77646 2.59285,64.33333 l 0.66499,55 h -14.11416 -14.11415 v -55.47421 c 0,-58.82262 -0.19552,-61.08546 -6.84008,-79.16564 -2.58728,-7.04008 -11.30411,-23.9888 -13.04289,-25.36015 -0.46491,-0.36667 -1.99174,-2.46667 -3.39294,-4.66667 -3.89789,-6.11997 -15.29441,-17.79742 -22.72409,-23.28427 -8.3406,-6.15954 -19.14034,-12.49382 -21.90222,-12.84613 -1.15378,-0.14717 -5.39778,-1.54128 -9.43112,-3.098 -19.52469,-7.53584 -13.6603,-7.21608 -142,-7.74256 -105.59411,-0.43319 -119.47453,-0.25263 -126.00001,1.63893 -4.03333,1.16916 -9.73333,2.81283 -12.66666,3.65262 -6.55444,1.87645 -21.71384,9.67142 -30.66667,15.7688 -15.11147,10.29177 -33.89668,33.6078 -40.74899,50.57728 -8.42191,20.85651 -8.31122,19.85875 -9.14653,82.44271 l -0.77115,57.77604 -12.44529,0.22396 c -6.8449,0.1232 -12.694903,-0.026 -12.999997,-0.3316 z M 324.66668,351.33211 c -11.66167,-1.86299 -23.20255,-4.7768 -30,-7.57432 -12.77406,-5.25723 -21.73359,-9.74482 -30,-15.02619 -5.95327,-3.80352 -19.15452,-15.2614 -25.27899,-21.94062 -2.96323,-3.23164 -6.02067,-6.53164 -6.79432,-7.33333 -4.86184,-5.03808 -20.59336,-31.5874 -20.59336,-34.75441 0,-0.53179 -0.80694,-2.85756 -1.79319,-5.16839 -8.03829,-18.83399 -11.20624,-49.07778 -7.54313,-72.01283 5.98048,-37.4444 26.92612,-72.21585 56.79176,-94.278894 8.48597,-6.268954 29.18744,-17.243123 32.52711,-17.243123 1.18293,0 2.72078,-0.513274 3.41745,-1.140607 0.69667,-0.627333 4.36257,-2.121828 8.14645,-3.321099 24.72684,-7.836963 60.80543,-7.306669 85.6209,1.258482 23.04189,7.952993 38.87984,17.597199 55.28152,33.662591 18.51692,18.13727 29.26294,35.95258 38.05935,63.09684 4.96061,15.30764 6.75145,42.2212 3.99812,60.08572 -8.19004,53.13967 -41.82585,94.7548 -92.50634,114.45132 -19.11784,7.42999 -48.76264,10.5251 -69.33333,7.23886 z m 47.49783,-28.57951 c 14.77993,-3.87811 15.65037,-4.18899 23.70557,-8.46646 20.57107,-10.92362 37.41731,-26.43954 47.95311,-44.16634 9.52044,-16.01842 10.98791,-19.72639 16.40552,-41.45313 1.60883,-6.45206 0.67089,-39.74009 -1.27733,-45.33333 -0.76631,-2.2 -2.10687,-6.4 -2.97903,-9.33333 -1.52004,-5.11235 -8.90917,-21.08654 -12.33512,-26.66667 -3.6368,-5.92356 -16.11891,-20.77087 -21.37436,-25.42454 -13.81772,-12.23548 -31.76123,-21.57871 -51.59619,-26.866261 -10.88749,-2.902358 -40.16656,-3.234785 -50,-0.567688 -12.65532,3.432464 -21.75548,6.774739 -28.20022,10.357289 -3.55654,1.97703 -7.65744,4.24859 -9.11309,5.0479 -11.57916,6.35821 -28.11347,22.38127 -36.34607,35.22222 -8.63533,13.46915 -12.55305,22.67731 -16.91501,39.75687 -2.78814,10.91714 -2.82672,38.69672 -0.0675,48.56554 1.11365,3.9831 2.70933,9.64201 3.54596,12.57534 4.56319,15.99912 20.72187,39.85481 35.35136,52.19059 12.48831,10.53029 33.97719,21.86396 45.32058,23.90296 2.79984,0.50328 5.99062,1.41988 7.09062,2.03688 1.1,0.617 10.77403,1.14006 21.49783,1.16236 15.10518,0.0315 21.71366,-0.54087 29.33334,-2.5402 z"
     style="fill:#4d4d4d;stroke-width:1.33333337" />
  <path
     inkscape:connector-curvature="0"
     id="path22"
     d="m 94.66667,561.54526 c 0,-42.04754 0.373456,-53.01915 1.985568,-58.33334 1.092061,-3.59988 1.995525,-8.64524 2.007696,-11.2119 0.03248,-6.84923 6.886576,-27.11515 13.251646,-39.18194 15.39693,-29.1892 35.5462,-48.73449 65.68031,-63.71148 4.17553,-2.07529 8.37553,-3.79233 9.33333,-3.81565 0.9578,-0.0233 2.90613,-0.92334 4.32963,-2 1.42349,-1.07668 4.45349,-1.9576 6.73333,-1.9576 2.27984,0 4.75515,-0.60999 5.50068,-1.35552 3.413,-3.413 24.70867,-4.25707 133.84449,-5.30502 96.11479,-0.92292 115.77807,-0.79697 125.33333,0.80279 13.90352,2.32776 26.66042,5.77676 29.33334,7.93068 1.1,0.8864 3.5,2.06104 5.33333,2.61028 16.25283,4.86915 48.43758,29.33633 58.73387,44.65012 1.72571,2.56667 3.53284,4.96667 4.01585,5.33334 0.483,0.36666 1.94563,2.76666 3.25028,5.33333 1.30466,2.56667 2.78208,4.96667 3.28318,5.33333 1.496,1.09468 9.38349,18.0507 9.38349,20.17204 0,1.07871 0.56559,2.5313 1.25687,3.22796 1.37493,1.38566 3.16972,7.89831 6.41194,23.26667 1.67262,7.92832 2.21047,21.39424 2.59622,65 l 0.48654,55 h -12.70912 -12.70912 v -54.78116 c 0,-56.75261 -0.69056,-65.35197 -6.12937,-76.32689 -1.02884,-2.0761 -1.87063,-4.61104 -1.87063,-5.63322 0,-2.30822 -8.72164,-18.66793 -12.5231,-23.49037 -1.54563,-1.96073 -4.60034,-6.04399 -6.78826,-9.07391 -9.51422,-13.17566 -30.67139,-29.27008 -42.68864,-32.47355 -1.46667,-0.39098 -5.36667,-1.70926 -8.66667,-2.92953 -20.9467,-7.7456 -14.55701,-7.37617 -142.18653,-8.22059 -104.51828,-0.69149 -118.23678,-0.54606 -124.00001,1.31456 -3.56407,1.15064 -10.08013,3.15954 -14.48013,4.4642 -4.4,1.30467 -8.9,3.04843 -10,3.87503 -1.1,0.8266 -4.1,2.31949 -6.66667,3.31753 -5.04853,1.96311 -26.94665,17.93738 -31.40172,22.90697 C 142.10143,449.47888 128,472.21399 128,478.09082 c 0,0.9635 -0.54779,2.09037 -1.21731,2.50416 -0.66953,0.41378 -1.6392,3.2992 -2.15484,6.41202 -0.51564,3.11283 -1.48476,6.70184 -2.15361,7.9756 -0.67858,1.29228 -1.2149,27.95978 -1.21338,60.33334 l 0.003,58.01741 H 107.96512 94.66667 Z M 328.00001,350.74352 c -1.83333,-0.6294 -6.33333,-1.22325 -10,-1.31967 -3.66667,-0.0964 -7.83135,-1.05624 -9.25484,-2.1329 -1.42349,-1.07668 -3.95313,-1.9576 -5.62143,-1.9576 -1.66829,0 -5.30361,-1.0032 -8.07849,-2.22934 -11.62609,-5.1372 -22.42307,-10.29407 -23.04524,-11.00688 -0.90343,-1.03504 -5.54268,-3.91804 -8,-4.97148 -4.68013,-2.00636 -22.27572,-18.02205 -30,-27.30635 -8.20999,-9.86809 -18,-25.86444 -18,-29.41102 0,-0.84239 -0.79174,-2.47887 -1.75942,-3.63662 -0.96768,-1.15774 -2.85172,-5.70498 -4.18677,-10.10498 -1.33505,-4.4 -2.88639,-9.2 -3.44743,-10.66667 -1.79212,-4.68499 -4.37366,-26.3274 -4.37366,-36.66667 0,-10.33927 2.58154,-31.98168 4.37366,-36.66667 0.56104,-1.46666 2.14874,-6.26666 3.52822,-10.66666 5.84536,-18.64435 21.66222,-43.57171 35.60965,-56.12078 10.41736,-9.372927 23.77859,-19.175284 29.63116,-21.738676 1.48982,-0.652528 5.68982,-2.486446 9.33334,-4.075371 3.64352,-1.588926 8.32321,-3.753606 10.3993,-4.810402 2.0761,-1.056794 5.0761,-1.942706 6.66667,-1.968692 1.59057,-0.02599 4.39195,-0.904725 6.22528,-1.952753 1.83333,-1.048028 6.14428,-1.926767 9.57987,-1.952754 3.4356,-0.02599 7.90062,-0.67613 9.92229,-1.444768 8.35042,-3.174821 36.72063,-1.252057 53.83118,3.648358 18.11193,5.187211 35.80961,13.584435 48.70052,23.107509 9.35048,6.907599 27.65561,25.606859 30.82096,31.484559 1.33005,2.46974 2.88183,4.49043 3.44839,4.49043 0.56657,0 1.03013,0.68364 1.03013,1.5192 0,0.83556 1.68211,4.28556 3.73803,7.66667 2.05592,3.38111 4.54592,8.24747 5.53334,10.81413 0.98743,2.56667 2.54967,6.46667 3.47166,8.66667 3.0301,7.23025 5.66742,18.42855 8.04616,34.16459 2.22406,14.71296 2.22649,16.26622 0.0479,30.66666 -2.54986,16.85443 -5.333,28.79879 -8.34993,35.83542 -1.10045,2.56667 -2.63335,6.16667 -3.40641,8 -2.96079,7.02147 -9.33068,18.75613 -11.4228,21.04313 -0.92147,1.00731 -2.35472,3.10082 -3.18502,4.65222 -3.52558,6.58766 -30.64736,32.97132 -33.89372,32.97132 -0.56972,0 -1.98311,0.84654 -3.14085,1.88121 -3.6358,3.24928 -21.75858,12.05266 -30.10499,14.62388 -4.4,1.35548 -9.8,3.26172 -12,4.23607 -2.2,0.97436 -7,2.10353 -10.66667,2.50928 -13.0748,1.44683 -38.72283,1.95149 -42,0.8264 z m 42.44783,-26.25615 c 8.8278,-2.16516 11.88471,-3.18124 19.55217,-6.49885 2.2,-0.95192 4.9,-2.09536 6,-2.54099 1.1,-0.44561 3.8,-1.99657 6,-3.44655 2.2,-1.44998 4.97395,-3.09337 6.16432,-3.65198 5.17726,-2.42955 17.47607,-13.49735 26.65679,-23.98867 6.91182,-7.89852 19.84556,-29.41959 19.84556,-33.02195 0,-1.12268 0.52534,-3.08308 1.16742,-4.35646 0.64206,-1.27339 2.29206,-5.91524 3.66666,-10.31525 3.46876,-11.10332 3.53124,-47.1099 0.0929,-53.60045 -1.24316,-2.34692 -2.26035,-5.76151 -2.26035,-7.58797 0,-1.82648 -0.6,-3.69168 -1.33333,-4.14491 -0.73334,-0.45323 -1.33334,-2.21517 -1.33334,-3.91543 0,-1.70026 -0.9,-3.83832 -2,-4.75124 -1.1,-0.91292 -2,-2.4178 -2,-3.34418 0,-4.32656 -11.16777,-20.71718 -20.88738,-30.65582 -9.20806,-9.41555 -17.95289,-16.61206 -24.44595,-20.11765 -2.56667,-1.38573 -5.56667,-3.16358 -6.66667,-3.95076 -1.1,-0.78719 -4.7,-2.51566 -8,-3.84104 -3.3,-1.325383 -7.2,-2.911577 -8.66667,-3.524874 -1.46666,-0.613297 -6.69093,-2.085093 -11.60948,-3.270657 -15.03358,-3.623687 -58.25192,-1.30029 -62.9356,3.383388 -0.72687,0.726876 -2.13451,1.321593 -3.12807,1.321593 -3.82249,0 -20.79429,9.36937 -31.82093,17.56691 -15.38808,11.43996 -31.41729,33.15688 -38.70075,52.43309 -8.89909,23.55211 -8.89909,57.78123 0,81.33334 9.17816,24.29068 29.01018,47.60461 52.54819,61.77407 3.86103,2.32426 7.91103,4.22593 9,4.22593 1.08899,0 1.97997,0.6 1.97997,1.33333 0,0.73334 1.05,1.33703 2.33334,1.34155 1.28333,0.004 4.05192,0.90452 6.15241,2 2.10049,1.09548 5.10049,2.03744 6.66667,2.09323 1.56617,0.0557 4.94758,0.91014 7.51425,1.89856 6.99755,2.69474 39.19631,2.58029 50.44783,-0.17931 z"
     style="fill:#353535;stroke-width:1.33333337" />
</svg>
