<?xml version="1.0" encoding="UTF-8" standalone="no"?>
<!-- Created with Inkscape (http://www.inkscape.org/) -->

<svg
   xmlns:dc="http://purl.org/dc/elements/1.1/"
   xmlns:cc="http://creativecommons.org/ns#"
   xmlns:rdf="http://www.w3.org/1999/02/22-rdf-syntax-ns#"
   xmlns:svg="http://www.w3.org/2000/svg"
   xmlns="http://www.w3.org/2000/svg"
   xmlns:xlink="http://www.w3.org/1999/xlink"
   xmlns:sodipodi="http://sodipodi.sourceforge.net/DTD/sodipodi-0.dtd"
   xmlns:inkscape="http://www.inkscape.org/namespaces/inkscape"
   version="1.1"
   id="svg46"
   width="666.66669"
   height="666.66669"
   viewBox="0 0 666.66669 666.66669"
   sodipodi:docname="user-referal.svg"
   inkscape:version="0.92.3 (2405546, 2018-03-11)">
  <metadata
     id="metadata52">
    <rdf:RDF>
      <cc:Work
         rdf:about="">
        <dc:format>image/svg+xml</dc:format>
        <dc:type
           rdf:resource="http://purl.org/dc/dcmitype/StillImage" />
        <dc:title></dc:title>
      </cc:Work>
    </rdf:RDF>
  </metadata>
  <defs
     id="defs50" />
  <sodipodi:namedview
     pagecolor="#ffffff"
     bordercolor="#666666"
     borderopacity="1"
     objecttolerance="10"
     gridtolerance="10"
     guidetolerance="10"
     inkscape:pageopacity="0"
     inkscape:pageshadow="2"
     inkscape:window-width="1366"
     inkscape:window-height="705"
     id="namedview48"
     showgrid="false"
     inkscape:zoom="0.35399999"
     inkscape:cx="333.33334"
     inkscape:cy="333.33334"
     inkscape:window-x="-8"
     inkscape:window-y="-8"
     inkscape:window-maximized="1"
     inkscape:current-layer="svg46" />
  <image
     sodipodi:absref="E:\Project-website\tanyabudi\public\assets\images\icon\user-referal.png"
     xlink:href="user-referal.png"
     y="0"
     x="0"
     id="image54"
     preserveAspectRatio="none"
     height="666.66669"
     width="666.66669" />
  <path
     inkscape:connector-curvature="0"
     id="path70"
     d="m 220.66667,601.51951 c -43.08536,-18.13728 -72.30108,-43.25466 -91.86942,-78.98211 -5.61221,-10.24665 -13.51814,-32.38649 -14.85751,-41.6071 l -0.9301,-6.40307 -14.836369,0.23615 -14.836369,0.23614 -2.329634,-3.83309 c -1.281297,-2.10819 -3.30484,-6.75691 -4.496761,-10.33047 l -2.167128,-6.49738 43.153951,-43.16929 c 23.73467,-23.7431 43.7603,-43.16928 44.5014,-43.16928 1.5323,0 104.66795,102.81217 104.66795,104.33967 0,0.54652 -12.5263,0.99367 -27.83622,0.99367 h -27.83623 l 0.6309,6.33333 c 3.17945,31.91752 17.68941,74.07794 33.5152,97.38245 3.03949,4.47585 5.52635,8.69453 5.52635,9.37486 0,1.80424 -14.71461,19.52488 -16.49235,19.86155 -0.82922,0.15703 -6.90766,-1.98768 -13.50766,-4.76603 z m -7.14393,-34.05588 c -3.90704,-6.9229 -10.87847,-23.77561 -15.38407,-37.18944 -4.10312,-12.21556 -8.965,-40.1366 -10.20802,-58.62312 -0.68767,-10.22697 -0.91796,-19.13223 -0.51178,-19.78944 0.40618,-0.65723 6.49966,-1.19495 13.54106,-1.19495 h 12.80254 l -25.88124,-25.29664 -25.88122,-25.29665 -17.33334,17.15378 c -9.53333,9.43459 -21.76345,21.51022 -27.17805,26.83473 l -9.84471,9.68094 11.84471,-0.86409 c 6.5146,-0.47525 12.53559,-0.41739 13.37999,0.12853 0.84439,0.54598 2.17525,7.29268 2.95746,14.99268 0.7822,7.7 2.36095,17.1378 3.50833,20.97291 9.57874,32.01668 34.02382,61.30383 67.13597,80.4342 4.87464,2.81631 9.37025,5.15183 9.99025,5.19006 0.62,0.0383 -0.70204,-3.17187 -2.93788,-7.13355 z m 93.41635,28.86972 0.39425,-9 145.33334,-0.73306 c 79.93334,-0.40319 145.33334,-0.85304 145.33334,-0.9997 0,-10.43938 -2.34992,-39.10001 -4.01215,-48.9339 C 585.59533,487.0156 557.96234,443.35718 517.419,415.69257 l -11.19778,-7.64078 -6.1106,5.67461 c -26.45759,24.56988 -59.05699,39.82551 -89.27351,41.77755 -34.8093,2.24873 -70.65019,-11.80044 -106.64319,-41.80276 l -5.1572,-4.29884 -11.92138,8.9655 c -6.55676,4.93102 -13.35316,10.3155 -15.1031,11.9655 -1.74995,1.65 -4.4289,3 -5.95322,3 -3.06478,0 -16.74834,-11.29167 -16.68696,-13.77007 0.0213,-0.8598 8.52575,-7.86327 18.89879,-15.56327 10.37304,-7.7 22.15373,-16.66289 26.17932,-19.91754 l 7.31927,-5.91754 6.78194,7.39499 c 26.73727,29.15412 62.0085,46.43338 94.78197,46.43338 30.55665,0 57.83975,-12.64046 86.57353,-40.11014 l 12.14664,-11.61227 3.97324,1.99878 c 54.79777,27.56638 93.70809,77.51385 108.83426,139.70577 3.29881,13.56325 5.09183,33.78797 5.11458,57.69125 L 620,605.33335 H 463.27243 306.54484 Z m 73.72759,-190.90486 c -12.63973,-2.04576 -24.04059,-5.79313 -37.73325,-12.40266 -37.43105,-18.06815 -61.73822,-46.7856 -73.90855,-87.31847 -4.08052,-13.59002 -4.31708,-15.53759 -4.33707,-35.70735 -0.0193,-19.48405 0.31464,-22.54692 3.85229,-35.33334 6.56091,-23.7136 17.3317,-42.87346 33.84334,-60.20306 17.17565,-18.02651 39.498,-31.10699 64.94991,-38.05946 11.80577,-3.22487 15.70105,-3.64639 34,-3.6792 18.51156,-0.0332 22.0323,0.34356 33.76267,3.61292 27.188,7.57755 46.74158,18.90387 64.41318,37.31103 20.23004,21.07207 32.22673,43.44304 37.11463,69.20995 2.61862,13.80421 2.61862,39.14477 0,52.94899 -8.16458,43.04017 -38.88419,80.89045 -80.62381,99.33831 -17.33591,7.66204 -29.73982,10.36161 -50.00001,10.88194 -10.26666,0.26368 -21.66666,-0.007 -25.33333,-0.5996 z m 48.06792,-25.44585 c 35.46715,-9.07097 62.17831,-31.45024 77.39676,-64.84492 17.37586,-38.12882 10.62459,-86.26943 -16.65332,-118.74814 -40.99568,-48.81189 -110.41595,-55.1453 -161.24352,-14.71068 -28.6087,22.75893 -45.00918,63.27864 -40.4704,99.98778 6.63352,53.65103 44.86917,92.36945 99.68223,100.94085 10.7216,1.67659 29.01753,0.51343 41.28825,-2.62489 z M 60.000002,401.47912 c -4.376092,-1.21011 -4.784167,-4.76028 -1.90974,-16.61441 6.319456,-26.06144 24.474882,-63.13354 41.234549,-84.19803 13.603589,-17.09776 33.605279,-35.81108 45.726159,-42.78079 l 4.38429,-2.52104 3.60883,4.65092 c 14.87522,19.17059 39.17782,33.90509 61.76185,37.4458 5.87157,0.92053 15.88559,1.22941 24.75347,0.76351 l 14.89273,-0.78244 0.4931,9.61201 c 0.78744,15.34984 1.98314,14.67344 -24.73827,13.99435 -21.56332,-0.54802 -23.61598,-0.83271 -35.83255,-4.96991 -14.60111,-4.94473 -28.38979,-12.61219 -40.74676,-22.65801 -6.50843,-5.29115 -8.88313,-6.53138 -10.66667,-5.57087 -6.95808,3.74727 -28.50097,29.26032 -37.84244,44.81647 -11.553523,19.23983 -23.706122,48.54181 -23.778218,57.33333 -0.012,1.46667 -0.646724,4.91667 -1.410437,7.66667 l -1.38857,5 -7.603995,-0.13293 c -4.182197,-0.0731 -9.103995,-0.54767 -10.937328,-1.05463 z M 209.33334,275.40137 c -22.95441,-4.19339 -41.30235,-14.63403 -57.84805,-32.91763 -8.92051,-9.85748 -18.28948,-28.32328 -21.3502,-42.08028 -2.70814,-12.17225 -2.7731,-35.86279 -0.13274,-48.41461 7.04341,-33.48321 30.4344,-62.880136 63.01054,-79.189303 14.16962,-7.093993 28.39954,-10.114195 47.65379,-10.114195 31.16857,0 51.40056,8.039262 72.05312,28.630597 12.06357,12.027801 20.51402,24.878941 18.98302,28.868661 -0.41344,1.07741 -4.4438,3.92678 -8.95634,6.33195 -6.59492,3.51506 -8.58479,4.05753 -10.14222,2.76498 -1.06568,-0.88443 -1.94389,-2.28459 -1.9516,-3.11146 -0.0253,-2.71106 -11.64541,-17.06581 -18.19784,-22.48043 -18.93298,-15.645308 -44.3666,-21.414876 -69.78815,-15.831315 -18.75436,4.119188 -30.19376,10.412159 -44.15124,24.288205 -15.13172,15.04344 -22.7102,29.5807 -26.15952,50.18001 -2.13894,12.7737 -2.14492,14.49703 -0.0921,26.56367 2.94151,17.29061 9.99019,31.60535 21.06904,42.78777 15.71583,15.86277 32.36787,22.79474 56.6524,23.58345 l 13.31858,0.43254 -0.44566,9.81968 c -0.24509,5.40083 -0.65261,10.03384 -0.90558,10.29559 -1.39172,1.44004 -24.05509,1.15665 -32.61923,-0.40788 z"
     style="fill:#e8e8e8;stroke-width:1.33333337" />
  <path
     inkscape:connector-curvature="0"
     id="path68"
     d="m 222.66667,602.13891 c -46.15424,-19.44644 -76.6512,-46.26988 -95.66184,-84.13889 -5.56316,-11.08175 -11.36134,-27.9098 -12.96398,-37.62531 l -0.92793,-5.62531 -15.329905,-0.37469 -15.329901,-0.37469 -3.930135,-9.21848 -3.930135,-9.21847 11.036914,-11.4482 c 6.070301,-6.29651 25.736912,-25.98122 43.703582,-43.7438 l 32.66667,-32.29562 52.33333,52.00802 c 28.78334,28.6044 52.33334,52.28743 52.33334,52.62893 0,0.34152 -12.65274,0.62095 -28.1172,0.62095 h -28.11721 l 0.72828,5 c 0.40056,2.75 1.11334,8.3 1.58395,12.33333 3.10696,26.62759 17.34705,64.28515 33.62876,88.93038 l 4.5785,6.93037 -8.22819,10.06963 c -4.52551,5.53829 -8.63966,9.99888 -9.14255,9.91243 -0.50289,-0.0864 -5.41435,-2.05323 -10.91435,-4.37058 z m -9.50456,-35.80556 C 198.51245,537.33299 189.67561,500.8307 187.66195,461.00002 l -0.455,-9 h 14.05038 14.05037 l -25.97436,-26.00001 c -14.28589,-14.3 -26.58575,-26 -27.33301,-26 -0.74727,0 -13.32424,11.97682 -27.94885,26.61514 l -26.59017,26.61513 13.26935,0.38487 13.26934,0.38487 0.93439,10.66666 c 3.11925,35.60823 20.83896,67.28126 51.12232,91.37846 7.75967,6.17456 27.96775,18.58899 30.29583,18.61163 0.56055,0.005 -0.87515,-3.74008 -3.19043,-8.32342 z m 94.8379,29.66667 v -9.33333 l 141.00001,-0.1096 c 130.89604,-0.10174 147.88537,-0.3313 149.57465,-2.02058 1.41191,-1.4119 -2.82426,-42.26762 -5.79293,-55.86978 -10.66235,-48.85402 -38.2306,-89.57214 -77.96447,-115.153 l -8.51607,-5.48269 -6.1506,5.39049 c -29.49478,25.84977 -57.09822,38.58022 -90.81725,41.88403 -17.42804,1.70762 -51.8384,-6.86052 -70.356,-17.51854 -11.32342,-6.51732 -24.83803,-15.97238 -31.83991,-22.27573 -3.77442,-3.39786 -7.25984,-6.17794 -7.74539,-6.17794 -1.00012,0 -20.44559,14.51941 -27.10511,20.23865 -2.40884,2.06875 -5.23086,3.76135 -6.27116,3.76135 -1.04029,0 -5.32813,-3.19887 -9.52854,-7.1086 l -7.6371,-7.10859 23.68575,-17.89141 c 32.66324,-24.67268 28.16703,-23.08818 37.55107,-13.23332 22.52633,23.65649 54.57796,40.79429 82.04113,43.86687 34.63343,3.87476 65.77218,-8.77729 97.48149,-39.60793 l 11.60957,-11.28785 4.39043,1.73789 c 12.22444,4.83888 34.87227,20.70826 49.94407,34.9959 33.75314,31.99701 56.08457,76.54216 62.48758,124.64578 1.0487,7.87853 1.91845,25.2746 1.93277,38.65793 L 620,605.33335 H 464 307.99999 Z m 76.66667,-190.76849 c -53.99167,-7.35229 -100.09572,-46.00328 -114.39022,-95.89819 -6.96242,-24.30236 -7.8477,-43.49268 -3.08382,-66.84837 8.86145,-43.44466 37.4592,-79.35458 78.04425,-97.99944 20.68431,-9.50242 48.27587,-13.98782 69.64203,-11.32132 39.605,4.9427 70.64223,21.86694 93.79279,51.14412 33.70791,42.62841 39.45843,99.47189 14.87365,147.02501 -15.77861,30.51981 -40.6881,52.92361 -73.15965,65.80041 -18.40984,7.30053 -46.31947,10.73952 -65.71903,8.09778 z m 33.57019,-22.68212 c 46.9762,-6.5335 86.87768,-44.28806 95.69852,-90.5494 5.93201,-31.11075 -0.93692,-63.98083 -18.51916,-88.62014 -3.25781,-4.56541 -10.54581,-12.61766 -16.19555,-17.89389 -43.9847,-41.07687 -111.71497,-40.93812 -156.07651,0.31973 -51.851,48.22335 -47.40951,132.35321 9.23532,174.9339 24.6811,18.55311 54.60995,26.15575 85.85738,21.8098 z M 65.333336,401.77849 c -10.686553,-1.68322 -10.749309,-1.81809 -7.252738,-15.58602 9.692406,-38.16436 31.869892,-77.64819 58.524372,-104.19425 12.46388,-12.41317 29.79374,-26.19178 32.60341,-25.92228 0.4354,0.0417 3.03809,3.02566 5.78379,6.63087 7.2447,9.51265 21.40552,20.70747 33.85366,26.76299 15.17615,7.38257 26.59787,9.527 47.82084,8.97832 l 17.33334,-0.44811 0.38663,10.96123 c 0.38164,10.81978 0.34198,10.97241 -3.07322,11.82958 -1.90292,0.4776 -12.2769,0.57728 -23.05329,0.22151 -16.62896,-0.549 -21.30819,-1.20269 -30.92679,-4.32053 -18.79813,-6.09335 -33.79947,-14.62618 -46.70267,-26.56467 l -5.55401,-5.13875 -10.00211,9.83915 c -15.78602,15.52883 -25.07649,27.87612 -36.140863,48.03223 -7.813289,14.23356 -16.996799,38.60395 -18.982971,50.37535 -1.580485,9.36701 -3.237955,10.33576 -14.61738,8.54338 z M 210.66667,275.34014 c -39.81177,-6.84685 -70.03911,-35.23876 -80.14906,-75.28237 -2.43005,-9.62496 -2.74772,-13.8214 -2.17012,-28.66667 0.76122,-19.56419 3.21769,-29.2709 11.65714,-46.06291 13.8439,-27.545297 42.44995,-51.346873 71.45738,-59.455889 12.09805,-3.382005 40.60859,-4.050887 53.20589,-1.248255 12.10864,2.693918 30.73807,11.761251 39.99878,19.46824 15.36305,12.785513 29.28576,32.615294 25.82625,36.783734 -1.75408,2.11354 -13.51519,8.45732 -15.67953,8.45732 -0.7014,0 -4.05754,-4.18514 -7.4581,-9.3003 C 296.37208,103.5119 281.41138,92.964595 261.872,87.967263 208.33461,74.274705 154.23438,114.66779 151.10906,170.66667 c -1.38989,24.90376 6.14043,45.37851 22.82643,62.06452 15.52629,15.52629 34.4964,23.26882 57.01132,23.26882 h 11.71987 v 9.81428 9.81428 l -7.00001,0.8408 c -9.1928,1.10419 -13.01836,0.93139 -25,-1.12923 z"
     style="fill:#d1d1d1;stroke-width:1.33333337" />
  <path
     inkscape:connector-curvature="0"
     id="path66"
     d="m 220.66667,600.91009 c -41.31305,-16.69719 -75.67198,-47.23644 -94.03002,-83.57674 -3.8479,-7.61704 -9.95595,-25.63181 -11.95408,-35.25677 l -1.53829,-7.4099 H 98.091619 83.038963 l -4.104872,-9.66666 -4.104874,-9.66667 42.911033,-43 c 23.60107,-23.65 43.51742,-43 44.25856,-43 1.53233,0 103.33453,101.47895 103.33453,103.00641 0,0.54647 -12.3,0.99359 -27.33333,0.99359 -21.27744,0 -27.33334,0.37701 -27.33334,1.70164 0,0.93591 0.63266,6.78591 1.4059,13 3.72405,29.92804 16.13162,63.88528 32.76889,89.68243 l 5.83706,9.05073 -7.67259,9.25063 c -4.21992,5.08784 -8.57259,9.23976 -9.67259,9.22649 -1.1,-0.0133 -6.8,-1.9641 -12.66667,-4.33518 z m -7.51993,-35.47256 c -15.26679,-32.03826 -22.13259,-59.60482 -24.51711,-98.43751 l -0.92108,-15 h 13.7999 13.79989 l -26.64196,-26.66697 -26.64196,-26.66696 -27.02994,27.0003 -27.02993,27.00029 12.6098,0.38072 12.6098,0.38071 0.67989,5.61929 c 0.37395,3.0906 1.01446,9.08379 1.42338,13.3182 1.5996,16.56452 12.56083,42.35148 24.56896,57.79999 5.70827,7.34372 20.33228,21.82356 27.87896,27.60412 7.09807,5.43692 27.91245,18.23031 29.66009,18.23031 0.43148,0 -1.48042,-4.75312 -4.24869,-10.56249 z m 94.85327,30.56802 v -9.33886 h 145.33334 145.33334 l -0.0107,-10.33334 c -0.007,-5.68333 -0.61355,-15.73333 -1.35005,-22.33333 -5.40999,-48.48007 -22.78628,-86.30131 -53.91707,-117.35582 -12.06395,-12.0344 -33.82504,-28.66445 -37.48954,-28.64988 -0.78882,0.003 -2.88882,1.59009 -4.66666,3.52657 -10.39604,11.3238 -33.67064,26.84547 -50.92134,33.9591 -21.94867,9.05089 -47.93027,11.45771 -71.38144,6.61243 -23.60133,-4.87632 -48.68354,-17.62172 -69.93463,-35.53698 l -9.66168,-8.14507 -13.18165,10.12816 c -7.24991,5.57048 -14.5991,11.22759 -16.33151,12.57137 -3.06403,2.37664 -3.26797,2.37009 -7.48501,-0.23994 -5.57592,-3.45108 -12.10094,-10.26824 -11.48199,-11.99607 0.26409,-0.7372 11.75139,-9.83606 25.52732,-20.21969 l 25.04716,-18.87932 12.93392,12.36491 c 42.78746,40.90507 91.51335,51.66588 134.97177,29.80766 15.56981,-7.83112 28.92073,-17.53484 41.67912,-30.29322 l 10.77917,-10.77918 8.67421,4.49736 c 18.4325,9.55679 40.99889,27.10712 54.61145,42.47242 24.84529,28.04432 39.28012,55.61652 48.16465,92.00004 5.30121,21.70926 6.97248,38.05023 6.49328,63.48848 l -0.40188,21.33334 -155.66667,0.33886 -155.66667,0.33887 v -9.33887 z m 67.33334,-192.62436 c -12.96835,-2.37807 -31.94824,-9.78822 -44.88746,-17.52502 -13.49751,-8.07061 -33.28729,-26.67086 -41.67037,-39.16562 -27.74184,-41.34853 -31.73431,-91.47033 -10.80539,-135.65172 18.91007,-39.91954 58.21135,-69.71245 100.69655,-76.33451 12.76969,-1.99036 36.84195,-1.66124 49.14116,0.67187 43.48258,8.24851 81.22318,38.71996 99.48059,80.31986 14.8167,33.76013 14.55556,75.11892 -0.68802,108.97063 -18.29665,40.63165 -56.94561,71.11992 -99.86282,78.77687 -12.54732,2.23858 -39.03164,2.20645 -51.40424,-0.0624 z m 47.53626,-21.33759 c 25.64806,-4.47264 51.26247,-19.70352 67.88398,-40.36524 34.21624,-42.53326 34.29664,-101.63607 0.19664,-144.54733 -36.10991,-45.44052 -103.52024,-55.99313 -152.4577,-23.86618 -11.57624,7.59969 -29.07949,25.51933 -35.60292,36.44989 -22.84765,38.28319 -21.63741,86.39259 3.10973,123.61759 7.7157,11.60608 24.45963,27.50763 36.4915,34.65563 10.52661,6.25375 27.62784,12.62512 38.90535,14.49489 11.39068,1.88854 29.20697,1.69984 41.47342,-0.43925 z M 58.139502,399.60023 c -3.10256,-2.26864 -2.45006,-6.8376 3.465588,-24.26688 17.404121,-51.27778 42.13969,-87.05714 78.09865,-112.96767 l 8.3704,-6.03138 12.96293,12.89032 c 21.4573,21.33711 42.35278,30.0994 70.96294,29.75755 8.43333,-0.1008 16.80131,-0.36297 18.59549,-0.58269 3.2165,-0.39387 3.26316,-0.25048 3.33334,10.2403 l 0.0712,10.63976 -5.33334,0.95007 c -9.3246,1.66104 -28.42969,1.17504 -39.05621,-0.99353 -22.19498,-4.52938 -39.19123,-12.68983 -55.8323,-26.80688 l -8.5399,-7.24463 -5.36946,4.25268 c -8.01012,6.34415 -23.17745,24.07704 -31.45427,36.77481 -12.791931,19.62455 -25.314374,48.63931 -28.963155,67.10823 l -1.451402,7.34639 -8.672071,0.38677 c -5.806786,0.25899 -9.503486,-0.22116 -11.18843,-1.45322 z M 202.81597,273.27341 c -42.43104,-11.11211 -72.04174,-47.45454 -74.44075,-91.36422 -1.20173,-21.99556 3.98395,-43.48161 15.10275,-62.57585 7.34417,-12.6121 27.81872,-33.596908 39.46032,-40.44374 20.58334,-12.10578 39.4105,-16.859596 63.06172,-15.922943 26.15867,1.035955 44.78649,8.82015 64.14164,26.803499 11.85257,11.012514 23.05157,27.852214 20.53737,30.881634 -1.3904,1.67534 -14.68188,8.68155 -16.46974,8.68155 -0.3424,0 -2.28755,-2.85 -4.32255,-6.33334 -9.39288,-16.07784 -27.52393,-29.885907 -45.85992,-34.925538 -12.15239,-3.340072 -31.4185,-3.630706 -44.00658,-0.66385 -32.22566,7.595187 -59.7824,35.430328 -67.49244,68.174298 -2.91178,12.3661 -1.90685,36.5858 1.97124,47.50895 4.22408,11.89765 11.23942,22.37417 21.40175,31.9608 15.07836,14.22415 32.60501,20.94535 54.61856,20.94535 h 12.13442 l -0.61919,9 c -0.34056,4.95 -0.63765,9.45 -0.66021,10 -0.0881,2.14828 -28.64519,0.86953 -38.55839,-1.7266 z"
     style="fill:#b0b0b0;stroke-width:1.33333337" />
  <path
     inkscape:connector-curvature="0"
     id="path64"
     d="m 225.74469,602.67698 c -9.29428,-3.30515 -32.28027,-14.88656 -40.09738,-20.20292 -37.09613,-25.22885 -62.40267,-60.95127 -70.23341,-99.14071 l -1.6404,-8 -15.211827,-0.66667 -15.211826,-0.66666 -2.219659,-4.66667 c -1.220812,-2.56667 -2.983084,-6.95461 -3.91616,-9.75097 l -1.696503,-5.08432 42.566765,-42.58235 c 23.41171,-23.42031 43.1732,-42.58236 43.9144,-42.58236 1.53241,0 103.33465,101.47887 103.33465,103.00641 0,0.54647 -12.3,0.99359 -27.33333,0.99359 h -27.33334 l 0.008,3.66667 c 0.0159,7.42492 4.0083,29.88986 7.4526,41.93542 6.48584,22.68251 15.2972,42.37154 26.31638,58.80401 l 6.06425,9.04338 -7.98296,9.27527 c -4.39064,5.10139 -8.40488,9.23141 -8.92055,9.17783 -0.51568,-0.0536 -4.05248,-1.20511 -7.85957,-2.55895 z m -12.2161,-37.01029 C 198.95395,536.52402 191.34982,505.49087 188.69865,464.33335 l -0.79446,-12.33333 h 13.38124 c 7.35968,0 13.38124,-0.35976 13.38124,-0.79947 0,-0.43969 -11.85,-12.40119 -26.33333,-26.5811 l -26.33333,-25.78162 -27.01774,26.91442 -27.01772,26.91443 12.68439,0.38162 c 10.93013,0.32884 12.6876,0.69764 12.7075,2.66666 0.0133,1.25679 0.59474,7.68506 1.2934,14.28506 4.2312,39.9708 32.98578,79.50913 73.83959,101.53148 4.49748,2.42437 8.63394,4.42159 9.19212,4.43824 0.55819,0.0167 -1.31065,-4.61972 -4.15296,-10.30305 z m 94.47142,31 v -8.66667 l 132.33334,-0.007 c 72.78333,-0.004 138.18334,-0.39429 145.33334,-0.86777 l 13,-0.86087 -0.026,-12.79889 c -0.0823,-40.44573 -12.87443,-82.42712 -34.41127,-112.93111 -13.30321,-18.84216 -40.46923,-44.24123 -54.4495,-50.90796 l -4.28382,-2.04282 -7.71458,7.0507 c -41.71666,38.12643 -91.6144,49.23443 -139.78151,31.11725 -15.1575,-5.70122 -35.40803,-17.75895 -48.13125,-28.65868 -3.59448,-3.07932 -7.4961,-6.39716 -8.67026,-7.373 -1.85126,-1.53855 -4.2186,-0.16256 -17.82133,10.35852 -11.97015,9.25834 -16.36059,11.95034 -18.53183,11.36283 -3.71968,-1.00652 -14.4636,-11.23515 -13.47733,-12.83095 0.41987,-0.67936 11.86365,-9.6512 25.43064,-19.93743 l 24.66725,-18.70221 10.38326,10.34785 c 27.58187,27.48786 60.60433,43.01454 91.48419,43.01454 30.67863,0 62.46559,-15.26234 89.90281,-43.16635 l 8.56948,-8.71527 11.43052,5.92012 c 15.78214,8.17392 31.64446,20.47487 47.67089,36.96792 32.32978,33.27111 52.24133,76.98055 57.67528,126.6077 1.52739,13.94924 1.93324,48.82428 0.60837,52.27683 -0.73157,1.90647 -15.71639,2.10905 -156,2.10905 H 308.00001 Z m 69.77886,-193.30764 c -28.09782,-5.09825 -52.89761,-18.1736 -73.15979,-38.57248 -17.59282,-17.71149 -28.73126,-37.06409 -35.61866,-61.88599 -2.39925,-8.64678 -2.83962,-13.85256 -2.83962,-33.56724 0,-19.71468 0.44037,-24.92045 2.83962,-33.56724 6.90796,-24.89599 18.12355,-44.40328 35.57263,-61.87157 17.38572,-17.40486 36.85443,-28.80498 61.42696,-35.96926 16.06502,-4.68385 41.18307,-5.85458 58.97652,-2.74885 43.57758,7.60618 81.43469,36.79004 100.50042,77.47527 19.64187,41.91465 15.64482,92.97597 -10.35389,132.2682 -6.24647,9.44036 -20.78614,24.95292 -30.1828,32.20239 -16.24214,12.53072 -42.07874,23.66267 -62.27358,26.83116 -11.61383,1.82216 -33.14055,1.53712 -44.88781,-0.59439 z m 53.52823,-22.61296 c 40.16897,-11.1105 70.20805,-41.37448 82.13121,-82.74608 4.37588,-15.18372 4.43731,-40.53311 0.13728,-56.66667 -10.9634,-41.13444 -41.86848,-72.27568 -82.99725,-83.63149 -6.55165,-1.80894 -13.46095,-2.35951 -29.24499,-2.33042 -24.02904,0.0443 -31.40584,1.60759 -50.07342,10.61168 -32.274,15.56698 -53.9608,42.79947 -62.80592,78.86649 -3.25924,13.2899 -2.90049,37.92024 0.75472,51.81708 11.32417,43.05368 45.02611,75.69132 88.12462,85.34169 11.45657,2.5653 42.7844,1.83263 53.97375,-1.26228 z M 60.666669,400.12948 c -3.66099,-0.81305 -3.974134,-1.3168 -3.694795,-5.94359 0.484325,-8.0221 10.439767,-36.0659 18.999114,-53.51921 10.718426,-21.85587 22.319953,-38.78594 37.362352,-54.52275 12.16264,-12.72411 31.87695,-28.86875 35.11545,-28.75711 0.85318,0.0295 3.95122,3.09574 6.88455,6.81407 10.61312,13.45333 30.00305,26.21081 48.66667,32.01992 8.59588,2.67549 12.74732,3.10763 29.5661,3.0776 l 19.56611,-0.0349 0.4339,8.21641 c 0.67209,12.72711 1.21125,12.16455 -12.64099,13.18943 -32.34412,2.393 -60.97876,-7.17398 -88.45414,-29.55298 -5.73336,-4.66989 -7.6743,-5.58962 -9.60986,-4.55374 -4.8885,2.61624 -25.48053,25.62085 -32.85582,36.70521 -13.487041,20.26979 -29.291201,55.8578 -30.819102,69.39887 -0.330981,2.93333 -0.864448,6.08333 -1.185481,7 -0.624151,1.78217 -10.237609,2.03885 -17.334058,0.4628 z M 204.00001,273.24208 c -35.17232,-9.18383 -60.0224,-32.7047 -71.04204,-67.24207 -3.92228,-12.29308 -4.24552,-14.68567 -4.14311,-30.66667 0.0944,-14.73857 0.64237,-19.08911 3.66027,-29.06212 9.87254,-32.62507 30.28773,-56.97581 60.43021,-72.079696 14.07688,-7.053683 26.84572,-10.289762 43.76133,-11.09068 27.9427,-1.323029 52.0257,7.273304 72.7321,25.961447 8.25407,7.449542 21.26791,25.519149 21.26791,29.530319 0,1.53608 -2.8462,3.8862 -8.09396,6.68323 -4.45167,2.37272 -8.2639,4.10631 -8.47162,3.85243 -0.2077,-0.25388 -2.63212,-4.02751 -5.38757,-8.38584 -24.22477,-38.316494 -76.8828,-47.888502 -116.94184,-21.257308 -18.19415,12.095448 -33.62359,33.268928 -39.24002,53.848218 -3.37117,12.3524 -3.15216,35.19905 0.44319,46.23228 6.99189,21.45639 21.79621,39.06063 40.73969,48.44474 12.20388,6.04548 28.80299,9.71578 40.95212,9.0551 5.24185,-0.28505 7.29531,0.0765 7.20001,1.26788 -0.0733,0.91667 -0.22334,5.26667 -0.33334,9.66667 l -0.2,8 -13.66667,-0.0735 c -9.06312,-0.0487 -17.0351,-0.95294 -23.66666,-2.68452 z"
     style="fill:#909090;stroke-width:1.33333337" />
  <path
     inkscape:connector-curvature="0"
     id="path62"
     d="m 217.58142,598.78699 c -35.47219,-15.34097 -60.64013,-35.71258 -80.83366,-65.42893 -9.73402,-14.32439 -19.20043,-37.4627 -21.4418,-52.40919 l -0.92976,-6.20007 -15.48599,-0.3744 -15.485992,-0.37438 -3.826015,-9.20688 -3.826014,-9.20688 43.123911,-43.0701 43.12391,-43.07011 51.77349,51.27699 51.7735,51.27698 h -27.44016 -27.44017 v 5.8675 c 0,26.10095 15.94638,73.71038 33.50463,100.03131 2.89804,4.34436 5.01712,8.55566 4.70907,9.35846 -0.8464,2.20568 -14.3147,18.0777 -15.3291,18.0649 -0.48653,-0.007 -7.67296,-2.94697 -15.96985,-6.5352 z m -4.60773,-35.05977 c -12.4782,-25.70537 -21.41978,-59.86374 -22.9642,-87.7272 -0.4268,-7.7 -1.06062,-16.25 -1.4085,-19 l -0.6325,-5 h 14.3366 14.33658 l -26.64166,-26.66667 c -14.65292,-14.66667 -27.25278,-26.66667 -27.9997,-26.66667 -0.74692,0 -13.62388,12.27681 -28.61548,27.2818 l -27.25745,27.2818 13.26409,0.38487 13.2641,0.38487 1.62911,14.79213 c 4.59334,41.70684 30.68215,78.26872 73.09969,102.44468 5.7769,3.29256 10.75146,5.73848 11.05457,5.43536 0.30312,-0.3031 -2.15625,-6.12834 -5.46525,-12.94497 z m 95.02632,32.93947 v -8.66667 l 137.66667,-0.14471 c 75.71667,-0.0796 141.26667,-0.5296 145.66667,-1 l 8,-0.85529 -0.40289,-14.66667 c -1.23068,-44.80168 -14.03361,-83.5312 -38.368,-116.06516 -11.75383,-15.71432 -31.52353,-34.08803 -47.73747,-44.36655 l -6.50836,-4.12585 -11.49164,9.78892 c -34.0914,29.04009 -68.4195,41.11539 -104.60276,36.79517 -28.4529,-3.39722 -60.38585,-18.35868 -82.68802,-38.74161 -3.98279,-3.64004 -7.63655,-6.61826 -8.11947,-6.61826 -0.48293,0 -7.85048,5.4 -16.37234,12 -8.52187,6.6 -16.25076,12.00001 -17.17534,12.00001 -0.92458,0 -4.83082,-2.89623 -8.68056,-6.43607 l -6.99952,-6.43608 25.02878,-18.89726 c 13.76584,-10.39349 25.44381,-18.89726 25.95106,-18.89726 0.50726,0 5.10839,4.09584 10.22475,9.10186 43.62646,42.6857 94.37363,54.41034 138.60845,32.02411 14.63052,-7.40417 25.83905,-15.61439 40.05529,-29.34036 l 12.05528,-11.63956 9.90001,5.37188 c 52.05754,28.24708 89.37557,78.93407 101.92086,138.43343 5.2877,25.07824 7.70942,59.94398 5.21276,75.04864 l -0.82644,5 H 463.1589 308.00001 Z m 74.04272,-192.72374 c -34.90846,-5.49678 -65.32387,-22.94764 -86.81789,-49.81186 -61.51039,-76.87848 -23.23812,-191.5925 72.10851,-216.13185 76.75981,-19.75565 154.55259,29.76807 168.01362,106.95929 14.38461,82.48748 -45.92834,156.9582 -129.34696,159.70966 -8.8,0.29025 -19.58077,-0.0361 -23.95728,-0.72524 z m 46.92514,-22.5929 c 39.95309,-9.57192 70.02348,-38.28765 83.79145,-80.01671 3.4377,-10.41924 3.74254,-13.0002 3.77947,-32 0.0396,-20.34493 -0.0355,-20.88701 -4.81881,-34.82025 -6.8772,-20.03238 -14.04011,-31.4999 -29.0533,-46.51308 -18.92238,-18.92239 -36.65793,-27.99392 -64.07083,-32.77151 -14.61556,-2.54723 -28.23018,-1.93419 -44.59584,2.00808 -41.01096,9.879 -73.50644,41.82275 -84.87111,83.4301 -4.15056,15.19566 -4.14617,42.1681 0.009,57.33333 16.94326,61.83342 77.92201,98.18179 139.82964,83.35004 z M 66.666669,400.42671 c -10.277732,-1.05687 -10.939371,-1.46495 -9.959363,-6.14264 2.717919,-12.97292 12.66452,-39.42515 21.113973,-56.15098 11.139569,-22.05096 21.183666,-36.65487 36.055781,-52.42435 9.89998,-10.49733 31.83964,-28.38644 34.78916,-28.36629 0.73359,0.005 2.786,2.14131 4.56092,4.74732 7.12725,10.46452 27.02573,25.34788 41.43953,30.99531 15.16746,5.94272 23.5922,7.28116 41.71887,6.62786 l 17.0522,-0.61456 -0.38553,10.11748 -0.38553,10.11748 -17.23113,0.3749 c -33.06144,0.71932 -56.90225,-7.3513 -80.54218,-27.2652 -4.64199,-3.91034 -9.20136,-7.1097 -10.13194,-7.1097 -3.32673,0 -27.42077,26.56335 -36.07613,39.77343 -14.196163,21.66663 -30.018631,58.25595 -30.018631,69.41783 0,3.29025 -0.745965,4.49169 -3.420133,5.50841 -1.881072,0.71519 -3.531072,1.20431 -3.666667,1.08695 -0.135593,-0.11733 -2.346533,-0.42932 -4.9132,-0.69325 z M 208.00001,273.95116 c -47.56688,-10.3369 -79.27147,-49.86709 -79.09491,-98.61782 0.12149,-33.54624 15.39593,-64.9986 41.97424,-86.431221 13.02353,-10.502104 25.32491,-17.104906 40.454,-21.713802 10.36973,-3.159015 14.35483,-3.664125 29.33334,-3.718001 15.37397,-0.05529 18.68981,0.361616 29.33333,3.6882 25.48063,7.963857 45.64137,23.82539 58.08603,45.699374 2.5835,4.54104 2.84354,5.88544 1.46064,7.55173 C 327.91381,122.37711 317.11108,128 314.964,128 c -0.58579,0 -3.60706,-3.86635 -6.71392,-8.59189 -35.43804,-53.901273 -119.54358,-44.245059 -149.62233,17.17824 -20.08188,41.00887 -5.8881,89.37148 32.46515,110.61885 11.44297,6.3393 20.65448,8.78546 36.63004,9.72728 l 13.72294,0.80902 -0.3896,8.79592 -0.3896,8.79592 -12.00001,0.2506 c -6.6,0.13783 -15.9,-0.59692 -20.66666,-1.63278 z"
     style="fill:#707070;stroke-width:1.33333337" />
  <path
     inkscape:connector-curvature="0"
     id="path60"
     d="M 221.86773,600.26226 C 195.11914,589.39527 173.87081,575.20717 155.31869,555.82557 134.62122,534.20273 121.62103,509.44887 115.1466,479.33335 L 114,474.00002 l -15.33333,-0.3881 -15.333334,-0.38809 -3.660456,-8.94524 -3.660456,-8.94524 42.998306,-43.00198 42.99832,-43.00197 51.32232,51.33531 51.32232,51.33531 h -26.91482 c -16.71026,0 -27.23086,0.51137 -27.7484,1.34876 -1.56196,2.5273 4.90646,37.93906 9.61743,52.65124 5.70709,17.82303 15.44169,38.8728 23.77142,51.40248 l 6.18445,9.30276 -7.03733,8.31405 c -3.87054,4.57272 -7.37239,8.73206 -7.78189,9.24295 -0.4095,0.51089 -6.20406,-1.28911 -12.87682,-4 z m -2.15782,-23.92891 c -13.10973,-25.58938 -21.57074,-49.10809 -25.602,-71.16469 -2.42201,-13.25176 -4.77457,-35.90572 -4.77457,-45.97658 v -7.19206 h 13.65416 13.65417 l -26.64166,-26.66667 c -14.65292,-14.66667 -27.25278,-26.66667 -27.9997,-26.66667 -0.74692,0 -13.64705,12.3 -28.66697,27.33333 l -27.30894,27.33334 h 12.92738 12.92739 l 0.61097,4.33333 c 0.33603,2.38334 1.29518,9.68559 2.13146,16.22724 2.43987,19.08558 10.97799,38.64475 24.78291,56.77277 6.80364,8.93425 24.3961,25.89998 32.98271,31.80772 14.18752,9.76128 29.09808,17.32438 27.32269,13.85894 z m 88.2901,20.33334 v -8.66667 h 143.89095 c 79.14003,0 144.84003,-0.36419 146.00001,-0.80932 5.64925,-2.16781 0.2349,-49.91727 -8.8283,-77.85735 -12.6536,-39.00863 -37.69405,-72.51635 -71.6334,-95.85582 -5.44725,-3.74597 -10.52839,-6.81085 -11.29141,-6.81085 -0.76303,0 -4.40619,2.94581 -8.09591,6.54624 -15.50721,15.13191 -38.58299,28.82575 -60.08331,35.65519 -11.20715,3.55987 -13.383,3.79808 -34.62529,3.79083 -21.27586,-0.007 -23.40299,-0.24275 -34.66667,-3.83754 -21.26659,-6.78718 -42.19386,-18.52988 -60.10872,-33.72816 -4.5986,-3.90127 -8.80266,-7.09323 -9.34234,-7.09323 -0.53966,0 -6.65857,4.35 -13.59754,9.66667 -17.6568,13.52868 -19.05371,14.3724 -21.56794,13.02683 -1.18326,-0.63325 -4.6872,-3.46935 -7.78653,-6.30242 l -5.63513,-5.15102 25.36554,-19.13082 25.36555,-19.13081 11.65355,11.21807 c 25.32519,24.3788 50.52088,37.56268 79.04332,41.36019 33.31191,4.43518 68.2235,-10.05166 99.43187,-41.26003 l 10.16561,-10.16562 9.98903,5.14214 c 43.91288,22.60544 79.65847,65.93056 96.30602,116.72683 7.96689,24.30919 13.25036,65.75727 11.38559,89.31823 l -0.95097,12.0151 H 463.1918 308.00001 Z m 77.56836,-192.7657 c -30.04353,-3.89891 -55.52599,-15.8961 -77.06036,-36.28018 -18.09917,-17.13237 -29.4026,-35.24412 -36.98325,-59.25909 -14.68515,-46.52158 -1.31248,-99.51385 34.0189,-134.80765 33.65187,-33.61608 83.73567,-47.27175 129.78969,-35.38801 83.88336,21.6452 126.26188,115.06954 87.32083,192.50062 -16.85038,33.5056 -49.85984,60.09344 -86.12168,69.36765 -19.00366,4.86032 -34.34079,6.02395 -50.96413,3.86666 z m 47.09831,-23.16524 c 35.5306,-10.48626 61.97606,-33.96306 76.17088,-67.62029 11.24731,-26.66838 11.4592,-59.72804 0.55459,-86.5238 -21.90667,-53.83096 -79.60901,-83.68164 -134.86159,-69.76684 -32.24124,8.11963 -58.30336,27.87683 -75.00359,56.85877 -18.73609,32.51503 -18.89549,76.93455 -0.39588,110.31642 8.00007,14.43583 22.27025,30.59219 35.5424,40.24027 10.7601,7.82196 28.42738,15.24932 45.47716,19.11869 13.29723,3.01774 37.49883,1.80886 52.51603,-2.62322 z m -374.27003,17.5976 c -1.909316,-1.50599 -1.753237,-2.91162 1.618907,-14.5798 8.589151,-29.71991 23.674177,-60.23558 41.003213,-82.94586 8.91248,-11.68011 26.56095,-28.84004 37.72322,-36.679 l 9.60492,-6.74528 8.67732,9.37231 c 14.92978,16.12553 32.7165,26.86786 52.00247,31.40701 9.08709,2.13873 32.41344,2.90425 39.70394,1.30299 l 3.95026,-0.86763 0.24979,8.98977 c 0.13739,4.94438 -0.28155,9.62999 -0.93096,10.41248 -1.85473,2.23482 -29.90399,2.38099 -41.99972,0.21888 -20.61455,-3.68484 -45.0365,-15.79392 -58.91563,-29.21197 l -5.58229,-5.39684 -6.73691,5.64045 c -26.69055,22.34659 -55.178729,71.95206 -60.731232,105.74915 l -0.821447,5 h -8.351409 c -4.66529,0 -9.284054,-0.73562 -10.464442,-1.66666 z M 217.33334,274.6961 c -25.56181,-3.23524 -45.52803,-13.13552 -61.6844,-30.58633 -25.11131,-27.1232 -32.79268,-65.20528 -20.73059,-102.77643 10.62726,-33.10185 39.43239,-61.909025 72.41499,-72.420092 8.85287,-2.821279 27.64541,-6.246579 34.27118,-6.246579 8.88061,0 31.519,5.211643 40.67825,9.364647 17.76067,8.053075 35.64841,24.028899 44.53483,39.774764 3.98673,7.06409 4.0506,7.41856 1.66413,9.23572 -2.61465,1.99091 -14.05515,7.28617 -14.38553,6.65838 -6.63647,-12.61041 -19.21186,-25.85104 -31.42952,-33.092157 -13.82312,-8.192624 -26.7052,-11.076147 -45.98353,-10.292936 -13.89276,0.564415 -17.45412,1.210231 -26.85877,4.870568 -26.04693,10.137596 -47.64241,32.576285 -56.60419,58.814355 -4.09068,11.97657 -5.08332,35.91761 -1.9916,48.03438 9.24366,36.22683 41.5567,61.43229 78.75534,61.43229 h 11.08445 l -0.71464,8.26666 c -0.39305,4.54667 -0.85206,8.4353 -1.02004,8.6414 -0.88018,1.08006 -14.44087,1.27812 -22.00036,0.32136 z"
     style="fill:#4b4b4b;stroke-width:1.33333337" />
  <path
     inkscape:connector-curvature="0"
     id="path58"
     d="m 308.00001,596.66669 v -8.66667 h 146.00001 146 l -0.0107,-13 c -0.0209,-24.81309 -5.54774,-55.14055 -13.87701,-76.14716 -4.5586,-11.49691 -14.49995,-29.68902 -21.89691,-40.07014 -13.07277,-18.3467 -40.58916,-43.85112 -54.49333,-50.50883 -4.24611,-2.03316 -4.32267,-2.0075 -10.21176,3.42088 -18.27356,16.84398 -46.00514,32.98074 -63.51006,36.95595 -5.5,1.249 -11.73953,2.81355 -13.86563,3.47678 -2.12637,0.66321 -10.28698,1.20585 -18.13497,1.20585 -30.65235,0 -61.77112,-11.98753 -89.839,-34.60767 -5.04498,-4.06579 -10.46712,-8.39924 -12.04923,-9.62992 -2.79333,-2.17284 -3.33807,-1.89445 -18.82733,9.62167 -8.77292,6.5226 -16.64272,11.87951 -17.48844,11.90425 -0.84572,0.0248 -4.39784,-2.54448 -7.89362,-5.7094 l -6.35592,-5.7544 10.56027,-7.89039 c 5.80815,-4.33972 17.11743,-12.96324 25.13172,-19.16337 l 14.57145,-11.27297 5.42855,6.08901 c 18.64125,20.90929 47.74902,39.01143 72.76188,45.25063 10.71904,2.67376 38.44588,2.27651 49.33334,-0.70681 20.28641,-5.55878 41.01595,-18.10526 59.96669,-36.29465 l 12.83074,-12.31524 5.26794,2.36671 c 14.99854,6.73829 38.10105,24.359 54.6013,41.64539 20.21003,21.17293 34.50289,45.36991 44.50359,75.342 6.43949,19.29913 8.84485,30.78826 10.9827,52.4585 1.58826,16.09916 1.83546,47.1947 0.39374,49.52745 -0.38724,0.62657 -70.26867,1.13921 -155.29206,1.13921 H 308.00001 Z m -88.00624,2.2216 c -36.21783,-15.87523 -60.508,-34.426 -78.08217,-59.63255 -13.08429,-18.76675 -21.91975,-39.47971 -26.53823,-62.21354 l -0.73633,-3.62448 -15.443003,-0.37552 -15.443005,-0.37552 -3.208848,-7.89316 c -1.764867,-4.34124 -3.208848,-8.51446 -3.208848,-9.27382 0,-1.17763 68.495334,-69.83058 80.933854,-81.1201 l 4.26719,-3.87301 50.98059,50.74672 50.98059,50.74671 h -27.58111 -27.58111 l 0.0795,5.66666 c 0.0897,6.3989 0.96606,11.7112 5.20342,31.54367 4.68879,21.94535 15.77943,48.99263 27.55062,67.18903 3.29571,5.09464 5.73192,9.94127 5.4138,10.77028 -1.22799,3.20007 -13.1425,16.82672 -14.65391,16.75972 -0.87637,-0.0389 -6.69623,-2.30735 -12.93299,-5.04109 z m -4.42223,-31.77554 c -14.14317,-28.16782 -22.13353,-56.9338 -24.1974,-87.11273 -0.42628,-6.23334 -1.08965,-14.78334 -1.47415,-19 l -0.69906,-7.66667 h 12.65418 c 7.28036,0 13.01626,-0.58584 13.50678,-1.37953 0.7399,-1.19718 -51.28508,-54.62047 -53.19083,-54.62047 -1.36177,0 -55.50439,54.58245 -55.50439,55.95529 0,0.85059 4.78831,1.37804 12.51002,1.37804 h 12.51001 l 0.89869,10.33334 c 3.80281,43.72556 33.38779,85.21844 77.41462,108.57385 5.13333,2.72314 9.51642,4.43376 9.7402,3.80139 0.22377,-0.63237 -1.65212,-5.25051 -4.16867,-10.26251 z M 384.00001,403.19689 c -26.57325,-4.90762 -39.54236,-9.75352 -56.65521,-21.16916 -31.32974,-20.89942 -49.42368,-47.40014 -58.28212,-85.36105 -8.50703,-36.45504 1.64021,-79.50694 26.20884,-111.19665 49.37152,-63.68159 149.10374,-68.0542 204.38266,-8.96085 49.28756,52.68856 49.70659,131.99762 0.97549,184.63302 -17.48875,18.88993 -43.80023,34.30704 -67.40287,39.49444 -9.57288,2.10393 -42.44139,3.8134 -49.22679,2.56025 z m 52.0121,-22.84236 c 21.27251,-7.47 36.28356,-16.7674 49.58249,-30.70994 6.97415,-7.31168 21.07208,-27.23291 21.07208,-29.77614 0,-0.61751 1.44671,-4.29053 3.2149,-8.16225 7.27154,-15.92223 9.67857,-46.305 5.34194,-67.42907 -8.92488,-43.4739 -46.11722,-80.15443 -90.36333,-89.11984 -15.03935,-3.04736 -43.24734,-1.96222 -56.19351,2.16173 -37.89452,12.07112 -69.88087,44.33127 -79.99622,80.68099 -3.45721,12.42359 -4.19334,41.6276 -1.39776,55.45281 8.92964,44.16051 44.04712,78.98125 90.72731,89.96063 5.5839,1.31336 13.83894,1.7372 27.33334,1.40338 17.34317,-0.42903 20.50122,-0.88838 30.67876,-4.4623 z M 63.333336,398.84017 c -2.933334,-0.46209 -5.313091,-1.44016 -5.288351,-2.17349 0.281264,-8.33684 9.234759,-35.04621 18.06423,-53.88781 10.760312,-22.96191 26.160725,-44.81015 43.435035,-61.62038 15.13531,-14.72868 31.12242,-25.75824 31.12242,-21.47145 0,1.8978 15.28444,17.06094 22.72191,22.54158 10.73731,7.9123 19.67667,12.07435 34.3162,15.97719 11.45773,3.05457 14.76692,3.38185 28.51648,2.82024 l 15.5546,-0.63535 0.4454,6.96654 c 0.71795,11.22921 1.022,10.92794 -12.07485,11.96452 -31.0354,2.45636 -62.0836,-8.00134 -87.69239,-29.53668 -3.78363,-3.18179 -7.30936,-5.78507 -7.83495,-5.78507 -1.99685,0 -22.49081,21.07861 -29.41382,30.25295 -7.97115,10.56334 -19.011716,29.04036 -24.148387,40.41372 -5.661061,12.53444 -12.607455,32.38837 -13.528498,38.66667 -0.810414,5.52418 -1.196688,6.01376 -4.870956,6.17349 -2.194907,0.0955 -6.39074,-0.20457 -9.324073,-0.66667 z M 207.33334,272.70981 c -27.38656,-5.97327 -52.14504,-23.92269 -64.36269,-46.66174 -9.85937,-18.34986 -12.6861,-29.2695 -12.78322,-49.3814 -0.0733,-15.18336 0.37636,-18.90446 3.62533,-30 6.22498,-21.25879 18.66641,-41.40601 33.18315,-53.735667 17.22703,-14.631595 37.09784,-24.21281 56.12902,-27.064011 6.48537,-0.971623 12.88562,-2.113819 14.22277,-2.538212 1.33715,-0.424395 9.81858,0.468245 18.84763,1.983644 18.98989,3.187186 32.02855,8.746265 46.81545,19.959947 12.70772,9.636923 27.65587,29.329899 25.84507,34.048779 -0.41259,1.07519 -3.75996,3.40687 -7.4386,5.18151 l -6.68843,3.2266 -4.21829,-6.86463 C 301.18508,105.68888 283.7064,92.526637 264.00001,85.840088 252.77164,82.030204 229.18921,82.34067 216.01614,86.4718 c -12.80268,4.014975 -18.56687,6.961939 -29.79029,15.23038 -16.84407,12.40925 -30.47078,33.08752 -35.74439,54.24141 -11.34836,45.52134 18.56412,92.08723 64.70832,100.73387 6.51948,1.22166 14.76923,2.01899 18.33275,1.77187 l 6.47913,-0.44932 -8.2e-4,8.33333 -8.3e-4,8.33334 -12.33334,-0.106 c -6.78333,-0.0583 -15.93333,-0.89119 -20.33333,-1.85087 z"
     style="fill:#353535;stroke-width:1.33333337" />
</svg>
