<?xml version="1.0" encoding="UTF-8" standalone="no"?>
<!-- Created with Inkscape (http://www.inkscape.org/) -->

<svg
   xmlns:dc="http://purl.org/dc/elements/1.1/"
   xmlns:cc="http://creativecommons.org/ns#"
   xmlns:rdf="http://www.w3.org/1999/02/22-rdf-syntax-ns#"
   xmlns:svg="http://www.w3.org/2000/svg"
   xmlns="http://www.w3.org/2000/svg"
   xmlns:xlink="http://www.w3.org/1999/xlink"
   xmlns:sodipodi="http://sodipodi.sourceforge.net/DTD/sodipodi-0.dtd"
   xmlns:inkscape="http://www.inkscape.org/namespaces/inkscape"
   version="1.1"
   id="svg10"
   width="666.66669"
   height="666.66669"
   viewBox="0 0 666.66669 666.66669"
   sodipodi:docname="voucher.svg"
   inkscape:version="0.92.3 (2405546, 2018-03-11)">
  <metadata
     id="metadata16">
    <rdf:RDF>
      <cc:Work
         rdf:about="">
        <dc:format>image/svg+xml</dc:format>
        <dc:type
           rdf:resource="http://purl.org/dc/dcmitype/StillImage" />
        <dc:title></dc:title>
      </cc:Work>
    </rdf:RDF>
  </metadata>
  <defs
     id="defs14" />
  <sodipodi:namedview
     pagecolor="#ffffff"
     bordercolor="#666666"
     borderopacity="1"
     objecttolerance="10"
     gridtolerance="10"
     guidetolerance="10"
     inkscape:pageopacity="0"
     inkscape:pageshadow="2"
     inkscape:window-width="1366"
     inkscape:window-height="705"
     id="namedview12"
     showgrid="false"
     inkscape:zoom="0.28425692"
     inkscape:cx="480.81402"
     inkscape:cy="105.25709"
     inkscape:window-x="-8"
     inkscape:window-y="-8"
     inkscape:window-maximized="1"
     inkscape:current-layer="svg10" />
  <image
     sodipodi:absref="E:\Project-website\tanyabudi\public\assets\images\icon\voucher.png"
     xlink:href="voucher.png"
     y="0"
     x="0"
     id="image18"
     preserveAspectRatio="none"
     height="666.66669"
     width="666.66669" />
  <path
     inkscape:connector-curvature="0"
     id="path34"
     d="m 269.11909,620.33336 c -26.10996,-22.24966 -58.45242,-52.17306 -58.45242,-54.08049 0,-0.7203 2.74196,-4.24102 6.09326,-7.82382 20.31825,-21.72186 19.5771,-57.21526 -1.64703,-78.8761 -7.78312,-7.94327 -16.06444,-12.25837 -27.60729,-14.38524 -10.75992,-1.98259 -23.02706,-0.13975 -33.12214,4.97581 -6.52097,3.30443 -17.99004,14.36376 -22.91723,22.0985 l -2.53376,3.97752 -13.46624,-13.16598 c -7.40643,-7.24128 -17.073819,-16.44068 -21.483089,-20.44309 -14.83721,-13.46815 -27.957879,-25.04949 -31.649815,-27.93663 -2.016667,-1.57705 -3.666667,-3.66993 -3.666667,-4.65084 0,-0.9809 5.884296,-8.28736 13.076215,-16.23656 25.981994,-28.7178 80.142686,-88.79386 105.764626,-117.31611 14.3958,-16.02535 38.3958,-42.69197 53.33334,-59.25918 14.93753,-16.56721 36.82043,-40.86721 48.62864,-54 11.80821,-13.1328 27.70821,-30.80258 35.33333,-39.26618 7.62512,-8.46362 29.3309,-32.61362 48.23506,-53.66668 18.90415,-21.053058 34.84001,-38.278288 35.41303,-38.278288 1.03832,0 9.53928,7.006365 19.59006,16.145847 2.9108,2.646881 15.04238,13.659902 26.95905,24.473377 11.91666,10.813474 21.66666,20.385594 21.66666,21.271364 0,0.88578 -1.84202,3.37276 -4.0934,5.52663 -2.25136,2.15386 -5.36846,6.01612 -6.92688,8.58278 -1.55841,2.56667 -3.57596,5.12387 -4.48345,5.68266 -2.5282,1.55677 -6.88641,14.36905 -7.86969,23.13539 -1.01707,9.06746 1.07246,22.50849 4.82852,31.05978 4.72414,10.75531 13.57073,19.51028 25.87544,25.60751 10.22044,5.06443 12.06892,5.53797 21.86376,5.60104 9.95926,0.0641 11.48473,-0.32024 22.05128,-5.55617 9.05957,-4.48919 12.58644,-7.14066 17.46579,-13.13056 3.36266,-4.12802 7.01294,-9.24399 8.11173,-11.36882 1.0988,-2.12482 2.80061,-3.67601 3.78181,-3.44708 0.9812,0.22895 13.6965,11.2334 28.25622,24.45435 14.55972,13.22095 29.92221,26.98539 34.13888,30.58763 4.21666,3.60225 7.66666,7.23405 7.66666,8.07068 0,1.59232 -6.47496,8.93768 -59.99588,68.0608 -17.96893,19.8498 -37.17079,41.19807 -42.67079,47.44059 -5.5,6.24253 -26.2,29.25579 -46,51.14057 -19.8,21.88479 -44.06604,48.83653 -53.92455,59.89275 -9.8585,11.05623 -29.3585,32.72998 -43.33333,48.1639 -13.97483,15.43392 -40.59759,44.98392 -59.16167,65.66667 -18.56408,20.68274 -34.19005,37.605 -34.72437,37.605 -0.53432,0 -4.31598,-2.85 -8.40367,-6.33333 z m 24.88092,-50.65751 c 9.53333,-10.71518 32.33333,-36.05268 50.66667,-56.30559 18.33333,-20.2529 37.23333,-41.26495 42,-46.69344 9.04055,-10.29579 28.13291,-31.49752 72.00063,-79.95551 14.30035,-15.79671 30.50035,-33.8015 36,-40.01062 5.49965,-6.20913 21.69937,-24.24085 35.99938,-40.07049 45.70497,-50.59395 49.33333,-54.69564 49.33333,-55.7691 0,-0.88029 -16.0946,-15.991 -26.19824,-24.59672 -2.74881,-2.34128 -3.02497,-2.23713 -12.95065,4.88423 -15.16767,10.88231 -24.14463,13.5288 -45.51778,13.41909 -14.41715,-0.074 -18.66959,-0.5826 -25.27579,-3.02306 -19.15218,-7.07521 -36.15749,-22.62502 -44.89155,-41.04925 -7.645,-16.1269 -9.61126,-25.29449 -8.82878,-41.1636 0.70064,-14.20934 2.59341,-21.19717 9.6469,-35.61479 l 4.37353,-8.93967 -13.83651,-12.39366 C 408.91107,95.577153 401.9306,89.881735 401.009,89.737184 c -0.92161,-0.14455 -9.47565,8.498891 -19.00899,19.207646 -9.53333,10.70876 -35.33333,39.40895 -57.33333,63.77819 -22,24.36925 -49.3,54.69571 -60.66667,67.39214 -11.36667,12.69641 -35.36667,39.36716 -53.33334,59.26832 -17.96666,19.90116 -39.86666,44.21204 -48.66666,54.02419 -8.8,9.81213 -27.25001,30.3217 -41.00001,45.5768 -13.75,15.2551 -24.999997,28.22698 -24.999997,28.8264 0,0.99933 16.388707,16.41208 26.482317,24.90529 l 4.23537,3.56384 8.63461,-5.62566 c 4.74902,-3.09412 12.38755,-7.20712 16.97449,-9.14 7.66003,-3.22784 9.80722,-3.5088 26.33988,-3.44662 20.58363,0.0775 25.08763,1.34799 41.87988,11.81415 10.69464,6.66567 22.86081,19.6874 28.01253,29.98247 7.31957,14.62725 9.4436,23.85078 9.39609,40.80234 -0.0429,15.33211 -0.25496,16.52875 -5.07861,28.66667 -2.76859,6.96667 -5.14842,13.39991 -5.2885,14.29611 -0.28382,1.81561 25.642,25.75049 27.74528,25.61463 0.73334,-0.0473 9.13334,-8.85308 18.66667,-19.56824 z M 469.65467,349.63081 c -5.17963,-4.32788 -5.24891,-5.14664 -0.85804,-10.14057 l 3.37901,-3.84311 4.57886,4.438 c 2.51837,2.4409 4.57885,5.11571 4.57885,5.94402 0,1.42114 -5.50395,7.34545 -6.7526,7.26833 -0.3194,-0.0197 -2.53615,-1.66973 -4.92608,-3.66667 z m -21.67736,-18.32089 -4.54583,-4.6901 4.09874,-4.09873 4.09873,-4.09873 4.8522,4.26028 c 5.67777,4.98514 5.93493,6.50202 1.76627,10.41829 -4.09947,3.85124 -4.9442,3.70392 -10.27011,-1.79101 z m -19.9766,-17.3092 -4.52243,-4.66595 2.67533,-3.58331 c 1.47143,-1.97082 3.23882,-3.76162 3.92754,-3.97954 0.68871,-0.21794 3.6522,1.64298 6.58553,4.13536 l 5.33334,4.53158 -3.91612,4.11391 c -2.15387,2.26265 -4.28618,4.11391 -4.73844,4.11391 -0.45228,0 -2.85742,-2.09968 -5.34475,-4.66596 z m -20.41072,-19.07122 -4.95122,-5.0705 3.94946,-3.78383 3.94945,-3.78381 4.63491,3.85432 c 2.5492,2.11988 4.67821,4.3617 4.73116,4.98184 0.1296,1.51826 -5.1674,8.87249 -6.3906,8.87249 -0.53456,0 -3.19999,-2.28173 -5.92316,-5.07051 z m -18.58998,-17.03394 c -2.75,-2.52896 -4.9668,-5.04003 -4.92622,-5.58016 0.0405,-0.54014 1.84848,-2.38424 4.01757,-4.09803 l 3.94381,-3.11596 4.55283,3.78263 c 2.50405,2.08045 4.59613,4.42038 4.64908,5.19985 0.0529,0.77947 -1.55373,2.99053 -3.5704,4.91348 l -3.66667,3.49628 z m -20.66666,-17.91584 c -5.16216,-4.69612 -5.24816,-5.32211 -1.2474,-9.08063 4.08842,-3.84088 4.9494,-3.69856 10.16228,1.67977 l 4.438,4.57886 -3.84311,3.37901 c -2.11371,1.85845 -4.14311,3.38039 -4.50977,3.38207 -0.36667,0.001 -2.61667,-1.77091 -5,-3.93908 z m -20.77486,-19.19198 -4.96264,-4.5456 4.01818,-4.39933 4.01816,-4.39934 4.68392,4.53983 c 2.57614,2.49689 4.6839,5.21753 4.6839,6.04584 0,1.44507 -5.47504,7.3042 -6.82537,7.3042 -0.35944,0 -2.88671,-2.04552 -5.61615,-4.5456 z m -19.24473,-17.38875 -4.98042,-4.60102 4.30991,-4.34991 4.30991,-4.34992 4.69009,4.54583 c 2.57955,2.5002 4.6901,5.22353 4.6901,6.05184 0,1.60674 -5.54247,7.3042 -7.10552,7.3042 -0.51351,0 -3.17483,-2.07046 -5.91407,-4.60102 z M 309.5949,204.93653 c -5.08352,-5.24486 -5.20184,-6.25502 -1.17562,-10.03744 4.09656,-3.84851 4.9456,-3.7025 10.24132,1.7613 l 4.51702,4.66039 -3.83826,4.00628 c -2.11104,2.20345 -4.20831,4.00628 -4.66058,4.00628 -0.45228,0 -2.74002,-1.97856 -5.08388,-4.39681 z"
     style="fill:#e8e8e8;stroke-width:1.33333337" />
  <path
     inkscape:connector-curvature="0"
     id="path32"
     d="m 253.25677,605.92074 c -12.79121,-11.41028 -27.69279,-24.89233 -33.11459,-29.96015 l -9.85783,-9.21418 4.96454,-5.49515 c 12.42294,-13.75072 17.86262,-29.41211 16.24837,-46.78076 -3.80207,-40.90872 -45.69717,-63.22011 -80.49355,-42.86712 -5.76792,3.37374 -14.79768,12.71258 -18.73247,19.37366 -2.07784,3.51751 -5.60457,5.06572 -5.60457,2.46039 0,-0.67609 -15.3234,-15.15589 -34.052007,-32.17732 C 73.886059,444.23868 58.736058,429.83098 58.947995,429.24298 59.361873,428.09472 68.929846,417.38048 128,351.91831 148.90001,328.7567 218.18105,251.79356 281.95786,180.8891 345.73469,109.98464 398.39408,52.131358 398.97875,52.326244 c 1.83129,0.610434 67.68793,59.938906 67.68793,60.978246 0,0.54271 -2.25,3.62176 -5,6.84233 -14.18836,16.61626 -17.29769,23.05571 -18.59957,38.51985 -2.03356,24.15527 10.66071,46.08204 32.63513,56.37059 7.87936,3.68915 10.3563,4.19741 20.46328,4.19901 10.59108,0.001 12.29326,-0.3908 21.56215,-4.97173 10.47978,-5.17939 19.64099,-13.78964 25.39234,-23.86525 1.58401,-2.77498 3.24001,-5.05003 3.68002,-5.05568 1.57288,-0.0201 70.67142,62.90664 70.27315,63.99653 -0.40299,1.10286 -30.99803,35.32747 -81.07316,90.69111 -34.17943,37.78918 -141.48407,157.0083 -150.00001,166.65514 -3.66666,4.1536 -20.16666,22.52035 -36.66666,40.81499 -16.50001,18.29465 -39.28038,43.59101 -50.62306,56.21415 -11.34268,12.62314 -20.97715,22.95116 -21.40991,22.95116 -0.43277,0 -11.2524,-9.33568 -24.04361,-20.74595 z m 60.05659,-57.28776 c 15.75566,-17.58147 42.75567,-47.58726 60,-66.67952 17.24432,-19.09228 52.05332,-57.73487 77.35332,-85.87241 25.3,-28.13754 65.02819,-72.21659 88.28485,-97.95344 l 42.28485,-46.79427 -10.95152,-10.3933 c -6.02332,-5.71631 -12.8738,-11.91641 -15.22328,-13.77797 l -4.27177,-3.38466 -8.3949,5.94888 c -17.57942,12.45732 -30.12067,16.2528 -50.39489,15.25152 -19.92511,-0.98404 -35.69471,-7.8291 -50.08848,-21.74172 -26.90482,-26.00546 -33.07811,-67.25095 -15.05243,-100.56942 l 3.96743,-7.33333 -9.07993,-8.36451 c -4.99396,-4.60048 -11.8714,-10.757341 -15.28318,-13.681917 l -6.20326,-5.317411 -15.13008,17.006008 c -8.32154,9.3533 -37.63008,41.96111 -65.13008,72.46179 C 185.9761,326.08534 95.311669,427.01911 95.109058,427.80108 c -0.123347,0.47608 7.024192,7.2655 15.883422,15.08758 l 16.10771,14.22197 4.78324,-3.83095 c 6.43581,-5.15452 23.81327,-13.0383 32.27704,-14.64342 16.86182,-3.19779 31.00688,-1.04939 48.57691,7.37802 10.01408,4.80322 13.70033,7.50524 21.63529,15.8587 24.45379,25.74348 30.24362,61.3185 15.37262,94.45551 l -3.51771,7.83849 3.21955,3.163 c 1.77075,1.73965 8.31955,7.71327 14.55288,13.27469 l 11.33333,10.11171 4.66667,-5.05856 c 2.56667,-2.7822 17.55767,-19.44339 33.31335,-37.02484 z M 469.66668,349.31305 c -5.19761,-4.72836 -5.26364,-5.30756 -1.05576,-9.26065 l 3.27758,-3.07912 4.62616,3.84671 c 2.54438,2.11568 4.66948,4.4921 4.72242,5.28094 0.0905,1.34832 -5.39661,7.27811 -6.65633,7.19334 -0.3194,-0.0215 -2.53073,-1.81304 -4.91407,-3.98122 z m -21.00904,-17.95605 -5.32429,-4.52052 4.04441,-4.10367 4.0444,-4.10367 4.96955,5.08927 4.96955,5.08928 -3.68966,3.53492 -3.68966,3.53492 z m -20.20873,-17.13767 -5.11556,-4.69504 3.92594,-4.10572 3.92595,-4.10573 4.40739,4.27181 c 5.26081,5.09897 5.40484,6.3468 1.18961,10.30679 l -3.21776,3.02294 z m -20.16463,-18.59271 c -5.16483,-5.32873 -5.24667,-6.25764 -0.91036,-10.3314 l 3.37391,-3.16961 4.93549,4.93549 4.93549,4.9355 -4.02513,4.02513 -4.02513,4.02513 z m -20.03296,-18.70066 -4.27181,-4.40739 4.04174,-3.87224 4.04174,-3.87223 4.90572,4.90571 4.9057,4.90572 -3.16961,3.37391 c -4.11521,4.38044 -5.32172,4.26116 -10.45348,-1.03348 z m -20.27172,-17.61368 -4.54352,-4.68772 3.53316,-3.53318 3.53317,-3.53317 4.7488,3.62209 c 2.61184,1.99215 4.7488,4.38696 4.7488,5.32182 0,1.587 -5.37993,7.49789 -6.82437,7.49789 -0.35888,0 -2.69711,-2.10948 -5.19604,-4.68773 z m -19.96479,-18.63034 -4.50832,-4.6514 3.14584,-3.3486 c 1.73023,-1.84173 3.69515,-3.3486 4.36651,-3.3486 1.75259,0 8.98117,7.05319 8.98117,8.76326 0,1.39502 -5.50884,7.23674 -6.82437,7.23674 -0.35888,0 -2.68125,-2.09313 -5.16083,-4.6514 z m -19.07316,-17.73367 -4.96955,-5.08928 3.77171,-3.61353 3.77172,-3.61353 5.24224,4.5907 5.24224,4.5907 -4.04441,4.1121 -4.0444,4.11211 z m -18.685,-18.68544 -4.95121,-5.0705 3.75349,-3.59608 3.75348,-3.59607 5.13833,4.70652 5.13832,4.70652 -3.79398,3.96005 c -2.08668,2.17804 -3.85995,3.96007 -3.94059,3.96007 -0.0807,0 -2.37467,-2.28173 -5.09784,-5.07051 z"
     style="fill:#d0d0d0;stroke-width:1.33333337" />
  <path
     inkscape:connector-curvature="0"
     id="path30"
     d="m 258.00001,609.82886 c -10.26667,-9.24629 -25.12582,-22.79203 -33.02032,-30.10164 l -14.35364,-13.2902 6.12773,-6.81552 c 10.28372,-11.43796 15.24623,-24.37451 15.24623,-39.7447 0,-28.43721 -18.84627,-51.18541 -46.43128,-56.04441 -18.58688,-3.27401 -38.22119,5.98465 -51.73702,24.39688 l -4.83297,6.58384 -10.8327,-10.46216 C 112.20805,478.59678 96.383337,464.07784 83.000003,452.08667 69.616669,440.0955 58.666669,430.07748 58.666669,429.82444 c 0,-0.34901 193.134861,-215.24775 326.978091,-363.824438 6.60613,-7.333333 12.52679,-13.333333 13.15703,-13.333333 0.63022,0 14.72437,12.3 31.32031,27.333334 16.59594,15.033334 31.74098,28.613107 33.65564,30.177287 l 3.48121,2.84394 -4.86008,5.37954 c -2.67305,2.95874 -5.92595,7.07896 -7.22865,9.15605 -1.30271,2.07708 -3.43475,4.83668 -4.73786,6.13242 -1.30312,1.29575 -3.65485,6.58828 -5.22606,11.76118 -2.30262,7.58084 -2.73227,11.65003 -2.21495,20.97743 0.86865,15.66234 4.71003,25.06334 14.53116,35.56217 9.23917,9.87669 17.5516,14.61517 29.50092,16.81692 21.59684,3.97937 43.96535,-7.18037 55.75755,-27.81768 1.77047,-3.09848 3.65487,-5.48861 4.18753,-5.31143 1.16987,0.38916 70.36484,62.46725 70.36484,63.12763 0,0.69695 -338.87546,377.14424 -339.83633,377.5147 -0.45669,0.17606 -9.23034,-7.24502 -19.49701,-16.4913 z m 34.93941,-38.16217 c 17.63799,-19.48302 91.96199,-102.05655 167.72726,-186.34404 23.46667,-26.10624 60.06667,-66.79133 81.33334,-90.41133 21.26667,-23.61999 38.66667,-43.44262 38.66667,-44.05028 0,-0.60766 -6.76715,-7.2543 -15.03812,-14.77031 l -15.03811,-13.66548 -5.26199,4.75388 c -13.1389,11.87021 -34.43668,18.87167 -53.99512,17.7504 -20.89824,-1.19807 -37.33272,-9.27015 -52.71928,-25.89399 -14.58086,-15.75333 -21.22346,-33.07421 -21.26102,-55.43899 -0.0248,-14.77693 2.76408,-27.16779 8.78003,-39.00896 l 4.70166,-9.25425 -11.7507,-11.05131 C 412.62116,98.203806 405.71103,92.032657 403.72819,90.568362 L 400.12303,87.906007 357.85279,134.953 c -23.24864,25.87586 -60.38978,67.14701 -82.53587,91.71367 -44.00927,48.81951 -99.45823,110.44448 -148.50399,165.04464 -17.31378,19.27454 -31.479593,35.54268 -31.479593,36.15142 0,0.60874 7.058963,7.48121 15.686583,15.27218 l 15.68659,14.16539 6.45954,-4.64072 c 12.4124,-8.91743 31.35869,-15.27992 45.50062,-15.27992 9.68772,0 23.42366,3.49244 34.41943,8.75136 12.56757,6.01065 27.9663,20.89188 34.61362,33.4504 12.23341,23.11206 12.70344,57.79164 1.0655,78.61417 l -3.24357,5.80339 14.67317,13.33385 c 8.07026,7.33362 14.8691,13.33386 15.10854,13.33386 0.23944,0 8.17566,-8.55 17.63606,-19 z m 176.37352,-223.02108 -4.54352,-4.68772 3.61933,-3.61934 3.61935,-3.61935 4.8026,4.80261 4.80261,4.8026 -3.04709,3.50447 c -1.67591,1.92745 -3.42119,3.50447 -3.87843,3.50447 -0.45723,0 -2.87592,-2.10948 -5.37485,-4.68774 z m -20.00058,-17.33392 -4.54294,-4.68713 3.61933,-3.61935 3.61935,-3.61935 4.69412,4.69412 4.6941,4.69412 -3.77049,3.61236 -3.77051,3.61238 z m -20.49696,-17.82604 -4.86092,-4.97803 3.10871,-2.92048 c 4.04267,-3.79788 5.03059,-3.69356 9.53379,1.00678 l 3.76253,3.92724 -3.34159,3.97126 -3.3416,3.97126 z m -20.61473,-18.74769 -4.46602,-3.82035 3.00386,-4.06293 c 3.33593,-4.51208 4.93372,-4.25483 10.49392,1.68957 l 3.23242,3.45576 -3.1315,3.33333 c -1.72234,1.83334 -3.47692,3.30895 -3.89908,3.27915 -0.42218,-0.0299 -2.7773,-1.77335 -5.2336,-3.87453 z m -18.55844,-16.89235 c -5.10318,-3.99384 -5.33878,-5.74656 -1.28443,-9.55541 l 3.02444,-2.84134 4.30889,3.37222 c 5.10318,3.99384 5.33878,5.74656 1.28443,9.55541 l -3.02444,2.84133 z m -21.39091,-18.25299 -4.27181,-4.40738 3.67692,-3.50235 3.67692,-3.50233 4.33333,3.89093 c 2.38333,2.14001 4.33333,4.3948 4.33333,5.01064 0,1.16268 -5.67741,6.91788 -6.82437,6.91788 -0.35888,0 -2.57483,-1.98332 -4.92432,-4.40739 z m -20.27229,-18.9476 -4.54295,-4.68713 3.61933,-3.61935 3.61935,-3.61935 4.69412,4.69412 4.69411,4.69413 -3.7705,3.61236 -3.7705,3.61237 z m -18.66667,-17.33333 -4.54295,-4.68714 3.61933,-3.61934 3.61935,-3.61935 4.69412,4.69412 4.69411,4.69412 -3.77049,3.61236 -3.77051,3.61237 z m -19.72771,-19.71907 -4.27181,-4.40739 3.74926,-3.59202 3.74927,-3.59203 4.50775,4.65081 4.50774,4.65082 -3.14584,3.3486 c -1.73022,1.84173 -3.52356,3.3486 -3.98521,3.3486 -0.46164,0 -2.76167,-1.98332 -5.11116,-4.40739 z"
     style="fill:#b0b0b0;stroke-width:1.33333337" />
  <path
     inkscape:connector-curvature="0"
     id="path28"
     d="m 256.66668,608.4487 c -11,-9.94739 -25.87303,-23.48089 -33.05118,-30.07445 l -13.05116,-11.98828 6.13785,-6.56187 c 9.47267,-10.12704 14.38476,-21.90428 15.06434,-36.11831 0.93304,-19.5152 -4.46703,-33.79601 -17.257,-45.63728 -17.60387,-16.29808 -38.95086,-19.57585 -59.56499,-9.14605 -6.66539,3.37237 -24.27787,20.23184 -24.27787,23.23986 0,3.02575 -4.00813,0.21488 -15.91687,-11.1623 -7.10025,-6.78334 -22.591657,-21.0214 -34.42534,-31.64014 C 61.891574,432.81947 59.054414,429.76271 60.523722,428.02655 61.467001,426.91195 137.74463,342.00001 230.02955,239.33334 322.31449,136.66667 397.97393,52.453503 398.16165,52.192968 c 0.37679,-0.522934 64.18093,56.786532 66.82171,60.019882 1.35996,1.66511 1.03822,2.58576 -1.83018,5.23704 -5.19686,4.80347 -13.74015,16.69571 -16.51908,22.9945 -12.18848,27.62667 0.47409,61.72888 27.71158,74.63144 8.14494,3.85831 10.17536,4.25751 21.65434,4.25751 11.42177,0 13.51844,-0.40708 21.33333,-4.14199 9.43388,-4.50865 19.5029,-13.7667 24.93196,-22.92393 1.8693,-3.15293 4.19426,-5.55293 5.1666,-5.33333 0.97235,0.21958 17.06116,14.18209 35.75294,31.02778 28.20798,25.42206 33.71561,30.9597 32.4001,32.57669 -0.87172,1.07148 -51.00622,56.88864 -111.41004,124.03813 -60.4038,67.1495 -136.0038,151.28782 -168,186.97406 -31.99619,35.68623 -58.4749,64.90658 -58.84157,64.9341 -0.36666,0.0275 -9.66666,-8.08875 -20.66666,-18.03615 z M 428.58834,421.48835 c 83.5569,-92.96005 152.11376,-169.59459 152.34857,-170.29901 0.2348,-0.70441 -6.48048,-7.45648 -14.92285,-15.00459 l -15.34976,-13.72384 -5.66547,4.85644 c -3.11601,2.67103 -9.86548,6.92568 -14.99881,9.45476 -31.29412,15.41797 -66.68487,8.69721 -90.79363,-17.24184 -15.88338,-17.0892 -22.84056,-36.96742 -21.49207,-61.40768 0.79975,-14.49489 3.61404,-24.5064 10.13888,-36.06777 l 3.82359,-6.77502 -15.1755,-13.74976 C 408.15477,93.967682 400.82197,87.979728 400.20617,88.223482 398.60888,88.85574 94.66667,426.79665 94.66667,427.94035 c 0,0.52125 7.23023,7.40103 16.06718,15.28839 15.58262,13.90818 16.15562,14.27636 19,12.20842 13.6754,-9.94238 25.32493,-14.80222 39.55696,-16.502 37.39725,-4.46648 71.91211,18.08958 84.2592,55.06486 2.60276,7.79436 3.11661,12.08149 3.11639,26 -3.1e-4,17.66784 -1.40467,24.085 -8.27094,37.79371 l -3.23578,6.46037 8.42016,7.53556 c 4.63109,4.14457 11.12017,10.07349 14.42017,13.1754 3.3,3.10189 6.6,5.61771 7.33333,5.59068 0.73334,-0.0271 69.69809,-76.10735 153.255,-169.06739 z m 40.17769,-73.38464 -3.73289,-3.89631 3.45504,-3.72611 3.45504,-3.7261 4.6881,4.54389 4.68811,4.54388 -2.89213,3.07853 c -3.75976,4.00208 -5.15684,3.88383 -9.66127,-0.81778 z m -19.45984,-16.79839 -4.53677,-4.68076 3.58793,-3.58795 3.58795,-3.58793 4.02736,3.85845 c 4.83653,4.63369 4.96989,6.00924 0.94884,9.78683 l -3.07854,2.89213 z m -20.39005,-17.7116 c -4.28931,-4.47707 -4.41851,-5.75742 -0.90215,-8.93968 2.60307,-2.35575 2.78633,-2.33338 6.33333,0.77337 2.00899,1.75963 4.21475,3.65036 4.90171,4.20164 1.17611,0.94381 -3.99991,7.70429 -5.89864,7.70429 -0.46831,0 -2.46372,-1.68282 -4.43425,-3.73962 z m -20.67357,-19.34344 -4.28054,-4.41642 3.36758,-3.16368 3.3676,-3.16369 4.64444,4.50157 4.64444,4.50156 -2.89213,3.07854 c -1.59067,1.69318 -3.26983,3.07852 -3.73148,3.07852 -0.46164,0 -2.7656,-1.98739 -5.11991,-4.4164 z m -18.90922,-17.5836 -4.56394,-4.70879 3.33334,-3.33333 3.33333,-3.33334 4.56393,4.70879 4.56394,4.70879 -3.33334,3.33333 -3.33333,3.33333 z m -19.67868,-16.39927 c -5.15316,-4.27011 -5.3205,-5.53056 -1.2428,-9.36135 l 3.07853,-2.89213 4.53677,4.68077 4.53678,4.68076 -3.28196,3.24634 -3.28198,3.24633 z m -22.34754,-20.29476 -3.85845,-4.02736 3.58793,-3.58795 3.58795,-3.58793 4.68076,4.53677 4.68077,4.53677 -2.89213,3.07854 c -3.77759,4.02105 -5.15313,3.88769 -9.78683,-0.94884 z m -18.66667,-17.33334 -3.85845,-4.02736 3.58164,-3.58164 3.58164,-3.58164 4.02736,3.85846 c 4.66642,4.4707 4.95107,6.1103 1.58904,9.15289 -3.35929,3.04012 -4.48421,2.81053 -8.92123,-1.82071 z m -18.68692,-18.6878 c -4.08704,-4.26596 -3.80474,-6.7393 1.12403,-9.84829 1.78181,-1.12393 3.09711,-0.54393 6.51311,2.87208 l 4.28042,4.28041 -3.16796,3.37215 c -1.74238,1.85468 -3.55113,3.37215 -4.01942,3.37215 -0.46831,0 -2.59688,-1.82183 -4.73018,-4.0485 z"
     style="fill:#8f8f8f;stroke-width:1.33333337" />
  <path
     inkscape:connector-curvature="0"
     id="path26"
     d="m 254.36468,605.9431 c -32.78234,-29.29568 -42.36467,-38.27581 -42.36467,-39.70227 0,-0.71368 2.74106,-4.22802 6.09125,-7.80964 11.43452,-12.22444 17.04172,-31.15865 14.04632,-47.43117 -3.60508,-19.58458 -14.8674,-34.9256 -31.73669,-43.23034 -8.30122,-4.08668 -10.01424,-4.43633 -21.73422,-4.43633 -11.74565,0 -13.42185,0.34417 -21.82589,4.48147 -9.05536,4.45793 -16.553,10.86025 -24.17847,20.64626 l -3.99564,5.12772 -15.5135,-14.46105 c -8.53243,-7.95359 -24.208127,-22.26107 -34.834881,-31.7944 l -19.321371,-17.33333 4.08659,-4.66667 c 5.571729,-6.36262 126.040022,-140.33079 158.249832,-175.98357 14.3,-15.82856 59.83495,-66.40757 101.18878,-112.39783 41.35383,-45.990235 75.67937,-83.618615 76.27901,-83.618615 1.5437,0 66.53222,58.700945 66.53222,60.095295 0,0.63196 -2.55,4.14672 -5.66667,7.81056 -12.81725,15.06748 -16.32774,22.25742 -17.77784,36.41124 -2.41072,23.53 11.78056,48.65172 32.77784,58.02406 15.54655,6.93936 35.66451,5.1724 50.29074,-4.417 6.70855,-4.39832 16.59181,-15.37952 19.43213,-21.59082 0.75451,-1.65 1.88186,-3 2.5052,-3 1.50903,0 68.3667,60.28951 68.75452,62.00001 0.33904,1.49538 -336.8301,376.66668 -338.51306,376.66668 -0.59045,0 -10.83764,-8.72562 -22.77153,-19.39026 z M 431.15975,418.97412 c 82.59548,-91.86424 150.1736,-167.54932 150.1736,-168.18906 0,-0.9532 -12.30794,-12.49796 -27.58528,-25.87477 -2.90309,-2.54195 -2.94916,-2.53108 -8.66666,2.04386 -8.69342,6.95618 -14.04939,9.82798 -25.74806,13.80582 -32.45592,11.03579 -69.90205,-2.5382 -88.5776,-32.10884 -6.37035,-10.08672 -8.65512,-15.57354 -11.3755,-27.31779 -4.26365,-18.40689 -1.62625,-39.2122 7.12622,-56.21542 l 5.25841,-10.21541 -15.54911,-14.00876 -15.54909,-14.008763 -2.82752,2.890841 c -1.55513,1.589963 -48.94149,54.190842 -105.303,116.890842 -56.36153,62.70001 -123.93914,137.84098 -150.17249,166.97994 -26.23335,29.13896 -47.697,53.5656 -47.697,54.2814 0,1.32757 29.70376,28.37285 32.05404,29.18522 0.71055,0.2456 3.17848,-1.14089 5.48429,-3.08111 12.32475,-10.37058 31.13023,-15.96444 50.46167,-15.01025 20.22028,0.99805 36.05666,8.03504 50.51055,22.44465 24.40791,24.33315 31.08455,63.65973 16.01574,94.33563 -3.50904,7.14343 -3.87575,8.75127 -2.34319,10.27366 0.99929,0.99266 7.81691,7.17902 15.15024,13.74746 l 13.33333,11.94263 2.8264,-2.88295 c 1.55452,-1.58561 70.40453,-78.04459 153.00001,-169.90883 z m 38.93579,-70.49019 c -4.09772,-3.60164 -3.8494,-5.99978 0.93366,-9.01686 1.67996,-1.05968 2.96778,-0.64178 5.57756,1.80998 4.0296,3.78562 4.22792,5.5543 0.95494,8.51631 -3.04552,2.75616 -2.78952,2.80107 -7.46616,-1.30943 z m -21.45507,-17.84461 -3.85845,-4.02736 3.27566,-3.23404 3.27567,-3.23404 4.37899,3.95006 c 4.32536,3.90168 4.34985,3.99011 2,7.2195 -3.10566,4.26811 -4.4313,4.1696 -9.07187,-0.67412 z m -19.96519,-17.297 -3.82364,-3.99102 3.15779,-3.3613 3.15777,-3.36131 4.40946,4.2738 4.40944,4.2738 -2.89214,3.07853 c -3.66282,3.89891 -3.826,3.88122 -8.41868,-0.9125 z m -20.41229,-19.07099 -4.30096,-4.43747 3.39113,-3.1858 3.39115,-3.18581 4.26654,4.26655 4.26655,4.26654 -3.35672,3.35674 -3.35673,3.35672 z m -18.66667,-17.33333 -4.30096,-4.43747 3.39113,-3.1858 3.39115,-3.18581 4.26655,4.26654 4.26654,4.26655 -3.35672,3.35673 -3.35673,3.35672 z m -20.38808,-17.73374 -4.43883,-4.5797 3.33334,-3.33334 3.33333,-3.33333 4.19201,4.35439 4.19203,4.3544 -3.08652,3.55865 -3.08652,3.55865 z m -20.41167,-19.06868 c -3.60302,-3.76075 -3.64137,-3.95751 -1.42945,-7.33333 2.8426,-4.33835 3.31695,-4.32171 7.71677,0.27072 4.2297,4.41485 4.40723,5.76763 1.14447,8.72039 -3.15535,2.85554 -3.09483,2.86904 -7.43179,-1.65778 z m -19.4238,-17.571 -4.62723,-3.91616 3.45727,-3.45728 3.45728,-3.45727 4.5033,4.06114 4.50329,4.06113 -3.33333,3.31229 -3.33334,3.31231 z m -18.66667,-18.66667 -4.62722,-3.91616 3.62956,-3.62957 3.62957,-3.62956 4.30303,4.30303 4.30302,4.30302 -3.30536,3.2427 -3.30536,3.2427 z"
     style="fill:#6f6f6f;stroke-width:1.33333337" />
  <path
     inkscape:connector-curvature="0"
     id="path24"
     d="m 259.33334,609.80487 c -9.53333,-8.51217 -24.08928,-21.75168 -32.34655,-29.42114 l -15.01321,-13.94448 5.53141,-6.21962 c 3.04228,-3.42078 7.69823,-10.71961 10.34655,-16.21961 4.59735,-9.54771 4.81513,-10.63775 4.81513,-24.10052 0,-13.91527 -0.0748,-14.2514 -5.69022,-25.58388 -6.4338,-12.98396 -14.60831,-21.26712 -26.97644,-27.33502 -6.53708,-3.20714 -8.85346,-3.60036 -21.33334,-3.62146 -12.40433,-0.0209 -14.86348,0.38098 -21.57594,3.52664 -7.30224,3.42204 -18.45393,13.17752 -25.18911,22.03538 l -3.23495,4.25448 -9.34199,-8.92114 C 114.18658,479.34787 98.72279,465.17472 84.960699,452.75862 71.198608,440.34251 60.102505,429.75846 60.302691,429.23851 60.640353,428.36148 190.13718,284.12034 249.33334,218.68511 c 14.3,-15.80717 38.6,-42.8006 54,-59.98538 59.66263,-66.577253 94.43193,-104.699728 95.49055,-104.699728 1.28142,0 66.50946,58.249898 66.50946,59.394228 0,0.42084 -2.74072,4.0293 -6.09048,8.0188 -3.34976,3.9895 -7.02784,8.4017 -8.17352,9.80488 -7.89603,9.67073 -11.78928,30.44826 -8.41871,44.92888 3.88342,16.68382 16.53426,32.4946 31.67919,39.59203 6.80397,3.18859 9.25124,3.59452 21.67019,3.59452 12.34021,0 14.88838,-0.41656 21.49334,-3.51356 9.35585,-4.38685 17.2401,-11.43433 24.11075,-21.55181 l 5.31595,-7.8281 2.87332,2.53863 c 29.30177,25.88864 66.18563,59.71719 65.90537,60.44602 -0.20097,0.52264 -61.2654,68.62516 -135.69873,151.33895 -175.14184,194.62574 -201.52864,223.83923 -202.51605,224.21065 -0.44951,0.16908 -8.61729,-6.65709 -18.15063,-15.16925 z M 428.85248,421.82548 c 84.23115,-93.596 153.14754,-170.546 153.14754,-171 0,-1.39723 -29.69699,-28.15881 -31.24748,-28.15881 -0.80127,0 -4.60561,2.5647 -8.45409,5.69932 -12.11556,9.86827 -29.19021,15.63402 -46.29843,15.63402 -34.22604,0 -64.40555,-22.80007 -75.00731,-56.66667 -2.27202,-7.25779 -2.91748,-12.59491 -2.90254,-24 0.0216,-16.42879 2.10642,-25.35586 9.01415,-38.59696 2.31543,-4.43834 4.39426,-8.45992 4.61962,-8.93685 0.22534,-0.47693 -6.67035,-7.28301 -15.32377,-15.12462 l -15.73349,-14.257466 -5.88212,6.457947 c -3.23517,3.55187 -38.01348,42.157949 -77.28514,85.791279 -39.27166,43.63334 -81.94568,91.03334 -94.83115,105.33334 -121.49483,134.83218 -129.740571,144.0584 -129.158469,144.51638 0.26961,0.21212 7.550549,6.78271 16.179869,14.60132 8.62932,7.8186 16.26513,14.21564 16.96847,14.21564 0.70334,0 5.34299,-2.72719 10.31033,-6.0604 12.93198,-8.67771 24.31282,-11.9196 41.6982,-11.87797 17.54338,0.042 27.64058,2.84928 40.50534,11.26145 24.2572,15.8616 37.37247,40.19663 37.37247,69.34359 0,15.01189 -2.12727,24.65187 -7.9954,36.23207 -1.76866,3.49026 -3.21574,6.92433 -3.21574,7.63125 0,1.02393 28.9825,28.13668 30.07704,28.13668 0.16202,0 69.21095,-76.57855 153.4421,-170.17454 z m 41.12462,-73.84939 -3.85516,-4.02392 2.94473,-2.94474 2.94475,-2.94474 4.24894,4.24895 c 4.16299,4.16299 4.19916,4.30399 1.78766,6.96867 -3.18352,3.51774 -3.50022,3.46657 -8.07092,-1.30422 z m -19.92,-17.24984 c -3.69931,-3.86124 -3.72863,-4.01147 -1.45919,-7.47508 l 2.316,-3.53465 4.53609,4.39656 4.5361,4.39654 -2.89214,3.07854 c -1.59066,1.69318 -2.97528,3.07852 -3.0769,3.07852 -0.1016,0 -1.88363,-1.77319 -3.95996,-3.94043 z m -20.71748,-17.38749 -4.66041,-3.80392 3.2394,-3.44818 3.23939,-3.44817 3.75435,3.59688 c 4.36092,4.17803 4.63687,5.88612 1.421,8.79599 -2.14848,1.94405 -2.70255,1.80996 -6.99373,-1.6926 z m -21.10719,-19.09135 c -3.59471,-3.8264 -3.62394,-5.17812 -0.17938,-8.2954 2.66436,-2.41121 2.80522,-2.37579 6.92132,1.74031 4.1161,4.1161 4.15152,4.25696 1.74031,6.92132 -3.17092,3.50382 -4.91736,3.42842 -8.48225,-0.36623 z m -19.33039,-18.00173 -3.59688,-3.75435 3.3564,-3.15317 3.35641,-3.15319 3.9095,3.74553 c 3.70232,3.54706 3.7997,3.91308 1.83766,6.90752 -2.69072,4.10656 -4.47554,3.98727 -8.86309,-0.59234 z m -19.89029,-17.24567 c -3.46266,-3.64088 -3.46931,-3.68855 -0.94536,-6.77828 l 2.54182,-3.1116 4.02923,2.86907 c 4.63795,3.30249 5.02616,5.37198 1.59092,8.48082 -3.14453,2.84576 -3.11615,2.85151 -7.21661,-1.46001 z m -20.36896,-19.02493 -3.85419,-4.02291 2.94473,-2.94475 2.94475,-2.94473 4.03311,4.0331 4.03312,4.03313 -3.12367,2.93453 -3.12367,2.93452 z m -18.3943,-17.04905 c -4.22408,-4.409 -4.40532,-5.76745 -1.16119,-8.70336 2.27027,-2.05456 2.68558,-1.91729 6.68567,2.20975 l 4.26503,4.4004 -3.10384,2.91591 -3.10385,2.9159 z m -19.33925,-19.34242 -4.28055,-4.41642 3.10384,-2.9159 3.10385,-2.91591 3.77419,3.9394 c 3.65017,3.80996 3.70115,4.05091 1.55108,7.33232 -1.22271,1.86609 -2.39159,3.39291 -2.59749,3.39291 -0.20591,0 -2.30062,-1.98739 -4.65492,-4.4164 z"
     style="fill:#4c4c4c;stroke-width:1.33333337" />
  <path
     inkscape:connector-curvature="0"
     id="path22"
     d="m 256.66668,607.12247 c -32.66846,-29.40902 -43.33334,-39.46212 -43.33334,-40.84756 0,-0.7205 2.30515,-3.81078 5.12253,-6.8673 2.8174,-3.05651 7.10115,-9.57643 9.51946,-14.48871 3.74753,-7.61231 4.49277,-10.76379 5.04586,-21.33799 0.48628,-9.29675 0.0797,-14.36455 -1.62185,-20.21787 -4.43495,-15.25565 -16.70603,-29.74784 -30.73267,-36.29536 -7.16633,-3.34518 -9.45892,-3.73433 -22,-3.73433 -19.19761,0 -26.89905,3.47261 -40.51265,18.26737 l -9.64163,10.47815 -12.60031,-11.70609 c -12.66744,-11.76846 -44.836079,-40.73902 -52.345415,-47.14146 -3.98769,-3.39988 -4.002811,-3.463 -1.464641,-6.11336 1.410554,-1.47292 17.864645,-19.68691 36.564646,-40.47553 18.7,-20.78864 45.7,-50.78632 60,-66.66154 14.3,-15.87521 38.3,-42.54928 53.33334,-59.27571 15.03333,-16.72642 42.03333,-46.70495 60,-66.61892 17.96667,-19.91399 44.96667,-49.93655 60,-66.71683 15.03334,-16.78027 36.25736,-40.352528 47.16452,-52.38279 l 19.83119,-21.873203 4.83548,4.558888 c 4.44221,4.188122 41.07536,37.30519 54.78792,49.529345 6.70979,5.98149 6.92802,5.02482 -4.48073,19.64281 -9.37163,12.00783 -11.76067,18.24251 -12.51479,32.65973 -0.85081,16.2659 2.36759,27.23053 11.55528,39.3672 7.50639,9.91572 15.71788,15.67964 28.04135,19.68314 11.10948,3.60914 19.03145,3.50942 30.54065,-0.38442 14.16543,-4.7925 18.42411,-8.13564 30.09405,-23.62436 l 5.61637,-7.45424 15.26436,13.87978 c 8.3954,7.63388 23.79133,21.45056 34.21317,30.70374 l 18.94882,16.82395 -6.24836,7.41717 c -3.4366,4.07944 -14.98384,17.01717 -25.66055,28.75051 -10.67669,11.73333 -27.18995,30.03333 -36.69611,40.66666 -9.50616,10.63334 -25.98588,28.9621 -36.6216,40.73059 -10.63572,11.7685 -31.70599,35.1685 -46.8228,52 -29.30899,32.63349 -42.30008,47.0699 -103.18155,114.66102 -21.26667,23.61044 -47.46098,52.75614 -58.20956,64.76823 -10.7486,12.01209 -20.9486,23.14375 -22.66667,24.737 l -3.12377,2.89684 z m 30.66666,-27.35437 c 5.86667,-6.71403 25.66667,-28.80169 44,-49.08369 18.33334,-20.28201 45.63334,-50.58991 60.66667,-67.35089 15.03334,-16.76098 36.33611,-40.41779 47.33949,-52.57068 11.00338,-12.15289 24.80338,-27.49511 30.66666,-34.09383 5.8633,-6.59872 21.8034,-24.29872 35.42248,-39.33333 52.93289,-58.43462 77.23805,-85.6749 77.23805,-86.5654 0,-0.81994 -6.30354,-6.72503 -26.384,-24.71629 l -5.71732,-5.12249 -3.61602,3.36171 c -7.16348,6.65969 -17.44758,12.65228 -27.10719,15.79548 -13.43366,4.37125 -33.59802,4.47724 -47.23268,0.24825 -17.32141,-5.37248 -35.39277,-20.53564 -44.1622,-37.05521 -7.76535,-14.6281 -10.14472,-23.8035 -10.18663,-39.28172 -0.0447,-16.5084 1.23863,-22.06601 8.69147,-37.63992 l 5.57023,-11.63992 -7.92783,-7.02658 c -4.36032,-3.86462 -11.28209,-10.176656 -15.38172,-14.026749 -4.09964,-3.850095 -7.99964,-6.992449 -8.66667,-6.983011 -0.66704,0.0095 -6.31278,5.833965 -12.54612,12.943393 -6.23333,7.109427 -26.33333,29.503497 -44.66666,49.764597 -18.33334,20.26109 -45.63334,50.56524 -60.66667,67.34255 -15.03334,16.7773 -39.03334,43.47836 -53.33334,59.33568 -14.3,15.85732 -44.59907,49.47864 -67.33125,74.71406 -22.73219,25.23541 -47.48219,52.59082 -55,60.78978 -7.517816,8.19898 -13.668753,15.50222 -13.668753,16.22944 0,0.72722 2.314232,3.31898 5.142738,5.75946 2.828505,2.44047 10.256195,9.09532 16.505975,14.78853 l 11.36323,10.35131 7.1607,-4.82539 c 16.39305,-11.04681 27.36587,-14.49876 45.82736,-14.41686 20.82613,0.0924 38.68041,7.65468 53.54349,22.67869 9.97819,10.08623 13.97186,16.69403 19.38647,32.07621 3.63928,10.3387 4.14591,13.5026 4.12879,25.78474 -0.0205,14.73744 -1.85055,22.36144 -9.04336,37.67564 l -3.28356,6.99103 7.63409,6.65965 c 4.19875,3.66281 10.93408,9.80072 14.96742,13.6398 4.03333,3.83908 7.93333,6.98669 8.66666,6.99471 0.73334,0.008 6.13334,-5.47874 12,-12.19275 z M 469.66623,347.66668 c -2.78557,-2.986 -2.78644,-3.01496 -0.18603,-6.205 l 2.6126,-3.20501 3.94338,3.77798 c 3.69793,3.54286 3.80666,3.92907 1.74696,6.20502 -2.88811,3.19132 -4.72634,3.06156 -8.11691,-0.57299 z m -20.32165,-17.65472 -3.20462,-3.41115 2.93339,-2.9334 2.9334,-2.93339 3.6474,3.64739 c 2.94551,2.94552 3.36637,4.09364 2.18705,5.96633 -2.22588,3.53457 -4.96221,3.42643 -8.49662,-0.33578 z m -19.9475,-17.27744 c -5.77371,-6.14583 0.33447,-11.60904 6.3046,-5.6389 3.39047,3.39046 3.4136,3.53206 1.01079,6.18712 -3.11992,3.44748 -3.59507,3.41188 -7.31539,-0.54822 z m -20.50852,-19.16958 c -3.55908,-3.71488 -3.57352,-3.80173 -1.01752,-6.11488 2.48367,-2.24769 2.76175,-2.22161 6.60427,0.6193 3.81538,2.82082 3.91058,3.11966 1.94805,6.11488 -2.61959,3.998 -3.15316,3.95414 -7.5348,-0.6193 z m -18.88855,-17.56493 -3.87808,-4.04784 2.66667,-2.66667 2.66667,-2.66666 3.87808,4.04784 3.87808,4.04784 -2.66667,2.66666 -2.66667,2.66667 z m -20.21678,-17.28553 -4.21679,-3.80195 2.96831,-2.78857 2.9683,-2.78858 3.85419,4.0229 c 3.82107,3.98833 3.8318,4.04497 1.24848,6.59053 -2.57424,2.53661 -2.65661,2.52172 -6.82249,-1.23433 z m -21.37554,-19.30216 -3.74101,-3.25438 2.97608,-3.018 2.97608,-3.01801 4.01368,3.84536 c 3.76468,3.60678 3.87743,3.99593 1.81728,6.27237 -2.84472,3.14338 -3.56248,3.06954 -8.04211,-0.82734 z m -19.06312,-17.40037 -3.20461,-3.41114 2.93338,-2.9334 2.9334,-2.93339 3.64741,3.64739 c 2.9455,2.94552 3.36637,4.09364 2.18705,5.96633 -2.22588,3.53456 -4.96222,3.42643 -8.49663,-0.33579 z m -18.61416,-18.61077 c -5.77371,-6.14583 0.33447,-11.60904 6.3046,-5.63889 3.39047,3.39045 3.4136,3.53205 1.01079,6.18712 -3.11992,3.44748 -3.59507,3.41188 -7.31539,-0.54823 z"
     style="fill:#353535;stroke-width:1.33333337" />
</svg>
